<?xml version="1.0" encoding="utf-8" standalone="no"?>
<!DOCTYPE svg PUBLIC "-//W3C//DTD SVG 1.1//EN"
  "http://www.w3.org/Graphics/SVG/1.1/DTD/svg11.dtd">
<!-- Created with matplotlib (https://matplotlib.org/) -->
<svg height="345.6pt" version="1.1" viewBox="0 0 460.8 345.6" width="460.8pt" xmlns="http://www.w3.org/2000/svg" xmlns:xlink="http://www.w3.org/1999/xlink">
 <metadata>
  <rdf:RDF xmlns:cc="http://creativecommons.org/ns#" xmlns:dc="http://purl.org/dc/elements/1.1/" xmlns:rdf="http://www.w3.org/1999/02/22-rdf-syntax-ns#">
   <cc:Work>
    <dc:type rdf:resource="http://purl.org/dc/dcmitype/StillImage"/>
    <dc:date>2020-12-16T18:00:06.821111</dc:date>
    <dc:format>image/svg+xml</dc:format>
    <dc:creator>
     <cc:Agent>
      <dc:title>Matplotlib v3.3.3, https://matplotlib.org/</dc:title>
     </cc:Agent>
    </dc:creator>
   </cc:Work>
  </rdf:RDF>
 </metadata>
 <defs>
  <style type="text/css">*{stroke-linecap:butt;stroke-linejoin:round;}</style>
 </defs>
 <g id="figure_1">
  <g id="patch_1">
   <path d="M 0 345.6 
L 460.8 345.6 
L 460.8 0 
L 0 0 
z
" style="fill:#ffffff;"/>
  </g>
  <g id="axes_1">
   <g id="patch_2">
    <path d="M 60.992054 296.728 
L 450 296.728 
L 450 43.44 
L 60.992054 43.44 
z
" style="fill:#ffffff;"/>
   </g>
   <g id="PolyCollection_1">
    <defs>
     <path d="M 264.557521 -63.677502 
L 260.353278 -63.677502 
L 261.518748 -62.459704 
L 263.095413 -62.093618 
L 263.152682 -61.902765 
L 262.633497 -62.093618 
L 261.794933 -63.602871 
L 262.135769 -64.038638 
L 260.84756 -62.279169 
L 261.32087 -64.707135 
L 259.62491 -66.235658 
L 261.667605 -62.635488 
L 259.812756 -63.136677 
L 259.592799 -62.370046 
L 260.583926 -62.370046 
L 260.814283 -63.055714 
L 258.933207 -62.093618 
L 259.966096 -63.677502 
L 261.215175 -62.370046 
L 260.485769 -62.459704 
L 260.116721 -62.806764 
L 260.965655 -62.806764 
L 260.612351 -62.279169 
L 260.32548 -62.093618 
L 261.216063 -62.459704 
L 262.02478 -62.806764 
L 260.796686 -62.635488 
L 259.570486 -66.483991 
L 261.492795 -62.806764 
L 261.858458 -62.093618 
L 260.547674 -63.602871 
L 261.344123 -62.279169 
L 259.676851 -63.967956 
L 260.25113 -62.370046 
L 258.946062 -67.520585 
L 259.227697 -62.806764 
L 260.715396 -62.806764 
L 258.434746 -67.644664 
L 260.813329 -64.895299 
L 260.992979 -67.044829 
L 260.62814 -71.329664 
L 261.62099 -74.982729 
L 259.052741 -80.752475 
L 258.521544 -86.171556 
L 255.762916 -92.108729 
L 256.114315 -96.077421 
L 255.675732 -101.947239 
L 253.723979 -106.333736 
L 251.065055 -112.361449 
L 250.882745 -119.121182 
L 250.344628 -123.145103 
L 247.811505 -131.368967 
L 246.517501 -134.278169 
L 244.397315 -140.273974 
L 243.158485 -145.084305 
L 239.304674 -149.674065 
L 234.1905 -155.941365 
L 233.098172 -161.964013 
L 230.584609 -167.221086 
L 224.871888 -172.498388 
L 220.532949 -176.569429 
L 211.853548 -183.380379 
L 206.356519 -187.717882 
L 201.763567 -194.830474 
L 197.346255 -197.754877 
L 193.088734 -202.138059 
L 187.867415 -205.504073 
L 183.161926 -211.163759 
L 181.464772 -211.933323 
L 176.513253 -218.091716 
L 169.792638 -223.83911 
L 166.939031 -225.00667 
L 164.389771 -228.610269 
L 160.54781 -230.436382 
L 149.825919 -241.628386 
L 149.046424 -241.531937 
L 134.170851 -247.517431 
L 119.961119 -247.718144 
L 119.617772 -249.012852 
L 110.047052 -255.255259 
L 78.674233 -266.263517 
L 79.522531 -266.253158 
L 91.083285 -266.253158 
L 91.083285 -266.253158 
L 80.725057 -266.263517 
L 114.257824 -255.255259 
L 122.588097 -249.012852 
L 138.19134 -247.718144 
L 139.826932 -247.517431 
L 154.707675 -241.531937 
L 159.451757 -241.628386 
L 165.989674 -230.436382 
L 168.577389 -228.610269 
L 168.179287 -225.00667 
L 174.494843 -223.83911 
L 181.30535 -218.091716 
L 185.963103 -211.933323 
L 184.876342 -211.163759 
L 191.593602 -205.504073 
L 197.231154 -202.138059 
L 199.191277 -197.754877 
L 203.430072 -194.830474 
L 214.690212 -187.717882 
L 219.935681 -183.380379 
L 225.406449 -176.569429 
L 229.676042 -172.498388 
L 234.420715 -167.221086 
L 237.272478 -161.964013 
L 238.528653 -155.941365 
L 241.706444 -149.674065 
L 245.050885 -145.084305 
L 247.356918 -140.273974 
L 250.107648 -134.278169 
L 250.296236 -131.368967 
L 252.277142 -123.145103 
L 253.676915 -119.121182 
L 254.753534 -112.361449 
L 256.257716 -106.333736 
L 256.270743 -101.947239 
L 258.23012 -96.077421 
L 259.004442 -92.108729 
L 260.088468 -86.171556 
L 261.031437 -80.752475 
L 262.523925 -74.982729 
L 262.491717 -71.329664 
L 263.000185 -67.044829 
L 262.796405 -64.895299 
L 262.764682 -67.644664 
L 263.568003 -62.806764 
L 262.562846 -62.806764 
L 262.365684 -67.520585 
L 263.840144 -62.370046 
L 262.940522 -63.967956 
L 263.082485 -62.279169 
L 261.75468 -63.602871 
L 263.175509 -62.093618 
L 262.268268 -62.806764 
L 262.377679 -66.483991 
L 263.382932 -62.635488 
L 263.28383 -62.806764 
L 264.08378 -62.459704 
L 263.418761 -62.093618 
L 262.771618 -62.279169 
L 263.681037 -62.806764 
L 263.187537 -62.806764 
L 262.976643 -62.459704 
L 262.873994 -62.370046 
L 261.983134 -63.677502 
L 263.732282 -62.093618 
L 263.201444 -63.055714 
L 262.732595 -62.370046 
L 263.981713 -62.370046 
L 262.366417 -63.136677 
L 264.666832 -62.635488 
L 263.839076 -66.235658 
L 264.774129 -64.707135 
L 263.766861 -62.279169 
L 264.851487 -64.038638 
L 263.352098 -63.602871 
L 265.07786 -62.093618 
L 264.891833 -61.902765 
L 264.513593 -62.093618 
L 264.583722 -62.459704 
L 264.557521 -63.677502 
z
" id="m5192d89b9e" style="stroke:#1f77b4;stroke-opacity:0.3;"/>
    </defs>
    <g clip-path="url(#p9d2977b260)">
     <use style="fill:#1f77b4;fill-opacity:0.3;stroke:#1f77b4;stroke-opacity:0.3;" x="0" xlink:href="#m5192d89b9e" y="345.6"/>
    </g>
   </g>
   <g id="PolyCollection_2">
    <defs>
     <path d="M 126.586601 -281.450111 
L 100.565223 -281.450111 
L 98.276481 -278.765004 
L 115.027224 -276.706491 
L 116.372803 -275.113263 
L 127.464354 -272.440025 
L 136.498706 -268.917451 
L 151.322931 -265.165298 
L 162.422042 -260.958034 
L 178.228545 -256.485664 
L 190.971351 -250.354546 
L 205.811762 -242.686109 
L 223.155055 -232.598384 
L 240.361289 -217.443988 
L 255.962252 -205.620372 
L 269.152406 -193.213082 
L 283.821839 -179.363347 
L 297.074044 -162.704801 
L 311.096621 -142.70224 
L 327.285965 -116.42271 
L 344.32121 -78.135714 
L 359.787096 -60.742799 
L 379.675036 -60.742799 
L 406.282631 -60.742799 
L 432.317821 -60.742799 
L 432.317821 -60.742799 
L 432.317821 -60.742799 
L 411.091686 -60.742799 
L 381.930165 -60.742799 
L 363.093013 -60.742799 
L 345.764081 -78.135714 
L 328.882589 -116.42271 
L 312.825178 -142.70224 
L 300.399765 -162.704801 
L 284.012539 -179.363347 
L 270.323688 -193.213082 
L 256.453686 -205.620372 
L 241.821728 -217.443988 
L 224.70547 -232.598384 
L 209.050348 -242.686109 
L 192.815317 -250.354546 
L 180.584121 -256.485664 
L 164.688788 -260.958034 
L 157.290471 -265.165298 
L 144.53467 -268.917451 
L 136.570251 -272.440025 
L 129.680289 -275.113263 
L 125.713739 -276.706491 
L 124.892715 -278.765004 
L 126.586601 -281.450111 
z
" id="m3596b8e3fc" style="stroke:#ff7f0e;stroke-opacity:0.3;"/>
    </defs>
    <g clip-path="url(#p9d2977b260)">
     <use style="fill:#ff7f0e;fill-opacity:0.3;stroke:#ff7f0e;stroke-opacity:0.3;" x="0" xlink:href="#m3596b8e3fc" y="345.6"/>
    </g>
   </g>
   <g id="PolyCollection_3">
    <defs>
     <path d="M 147.036068 -285.677315 
L 124.027951 -285.677315 
L 131.238691 -279.158388 
L 138.858655 -271.864807 
L 146.326082 -264.832187 
L 157.288503 -252.861726 
L 166.481535 -221.933199 
L 195.712276 -173.039801 
L 211.270573 -115.859033 
L 229.171424 -60.742799 
L 242.462131 -60.742799 
L 244.060172 -60.742799 
L 243.031486 -60.742799 
L 243.236911 -60.742799 
L 243.115857 -60.742799 
L 243.907429 -60.742799 
L 243.907429 -60.742799 
L 244.715438 -60.742799 
L 245.26029 -60.742799 
L 245.151272 -60.742799 
L 246.344763 -60.742799 
L 231.315263 -60.742799 
L 218.208935 -115.859033 
L 202.473451 -173.039801 
L 179.109695 -221.933199 
L 164.322249 -252.861726 
L 150.982293 -264.832187 
L 157.421237 -271.864807 
L 143.643406 -279.158388 
L 147.036068 -285.677315 
z
" id="m702ce5cd82" style="stroke:#2ca02c;stroke-opacity:0.3;"/>
    </defs>
    <g clip-path="url(#p9d2977b260)">
     <use style="fill:#2ca02c;fill-opacity:0.3;stroke:#2ca02c;stroke-opacity:0.3;" x="0" xlink:href="#m702ce5cd82" y="345.6"/>
    </g>
   </g>
   <g id="PolyCollection_4">
    <defs>
     <path d="M 333.956731 -287.573245 
L 289.232361 -287.573245 
L 303.46188 -287.573245 
L 314.740613 -287.573245 
L 338.102239 -287.573245 
L 373.576051 -265.707721 
L 399.525939 -142.238838 
L 399.728741 -142.238838 
L 401.748167 -142.238838 
L 401.884682 -142.238838 
L 401.884682 -142.238838 
L 400.096241 -142.238838 
L 400.016246 -142.238838 
L 374.546072 -265.707721 
L 339.84322 -287.573245 
L 316.843949 -287.573245 
L 305.403081 -287.573245 
L 333.956731 -287.573245 
z
" id="m0a82c6792e" style="stroke:#d62728;stroke-opacity:0.3;"/>
    </defs>
    <g clip-path="url(#p9d2977b260)">
     <use style="fill:#d62728;fill-opacity:0.3;stroke:#d62728;stroke-opacity:0.3;" x="0" xlink:href="#m0a82c6792e" y="345.6"/>
    </g>
   </g>
   <g id="PolyCollection_5">
    <defs>
     <path d="M 154.062279 -290.646909 
L 82.467133 -290.646909 
L 81.646866 -281.215362 
L 86.923521 -276.75023 
L 80.910234 -276.146612 
L 95.859002 -274.978058 
L 109.67864 -273.529983 
L 135.535596 -273.162382 
L 150.785221 -273.162382 
L 186.736376 -268.078983 
L 204.314735 -263.135347 
L 219.916897 -258.371455 
L 243.465907 -249.238892 
L 268.414769 -235.576578 
L 292.637693 -217.817874 
L 317.003592 -189.135343 
L 335.417382 -109.512528 
L 365.899935 -106.079023 
L 396.998064 -102.136214 
L 424.386358 -97.410333 
L 425.43657 -97.410333 
L 425.43657 -97.410333 
L 401.16188 -102.136214 
L 367.690778 -106.079023 
L 345.450473 -109.512528 
L 323.429482 -189.135343 
L 296.419252 -217.817874 
L 269.821181 -235.576578 
L 247.993436 -249.238892 
L 248.209533 -258.371455 
L 222.869201 -263.135347 
L 209.538435 -268.078983 
L 211.68606 -273.162382 
L 160.929446 -273.162382 
L 138.289111 -273.529983 
L 118.75366 -274.978058 
L 116.603076 -276.146612 
L 108.751338 -276.75023 
L 132.606551 -281.215362 
L 154.062279 -290.646909 
z
" id="m36a13ac020" style="stroke:#9467bd;stroke-opacity:0.3;"/>
    </defs>
    <g clip-path="url(#p9d2977b260)">
     <use style="fill:#9467bd;fill-opacity:0.3;stroke:#9467bd;stroke-opacity:0.3;" x="0" xlink:href="#m36a13ac020" y="345.6"/>
    </g>
   </g>
   <g id="PolyCollection_6">
    <defs>
     <path d="M 209.568095 -290.646909 
L 177.332082 -290.646909 
L 182.616565 -290.590281 
L 181.27767 -290.590281 
L 191.268586 -290.536624 
L 181.845692 -290.536624 
L 184.242701 -290.472417 
L 192.587257 -290.19812 
L 190.443629 -289.786256 
L 201.869904 -288.287982 
L 209.509874 -285.754312 
L 220.246657 -281.327598 
L 233.121577 -276.410897 
L 250.771481 -270.980608 
L 273.710249 -258.261142 
L 295.850336 -238.673273 
L 301.349969 -123.381438 
L 300.785149 -123.381438 
L 299.168078 -123.381438 
L 298.961256 -123.381438 
L 298.794561 -123.381438 
L 297.849568 -123.381438 
L 299.772791 -123.381438 
L 299.772791 -123.381438 
L 304.554268 -123.381438 
L 303.945529 -123.381438 
L 303.766048 -123.381438 
L 305.805275 -123.381438 
L 308.469726 -123.381438 
L 298.489596 -238.673273 
L 282.515854 -258.261142 
L 256.234105 -270.980608 
L 256.596922 -276.410897 
L 245.782006 -281.327598 
L 218.717277 -285.754312 
L 232.936274 -288.287982 
L 233.970921 -289.786256 
L 233.163933 -290.19812 
L 206.604114 -290.472417 
L 196.354384 -290.536624 
L 230.169855 -290.536624 
L 228.365909 -290.590281 
L 240.846822 -290.590281 
L 209.568095 -290.646909 
z
" id="m4dfdfab7f5" style="stroke:#8c564b;stroke-opacity:0.3;"/>
    </defs>
    <g clip-path="url(#p9d2977b260)">
     <use style="fill:#8c564b;fill-opacity:0.3;stroke:#8c564b;stroke-opacity:0.3;" x="0" xlink:href="#m4dfdfab7f5" y="345.6"/>
    </g>
   </g>
   <g id="PolyCollection_7">
    <defs>
     <path d="M 241.336077 -279.117743 
L 206.979818 -279.117743 
L 210.090544 -277.313737 
L 214.304131 -276.689432 
L 213.623758 -276.224652 
L 213.874079 -275.478564 
L 219.595886 -274.60987 
L 222.413395 -273.719237 
L 227.087683 -272.718053 
L 234.449449 -271.61707 
L 242.206937 -270.375682 
L 252.10498 -269.071829 
L 255.473269 -267.664441 
L 261.198953 -266.088204 
L 268.007189 -264.424612 
L 276.458514 -262.609328 
L 287.685153 -260.614428 
L 299.428648 -258.50451 
L 314.67605 -256.128177 
L 330.524463 -253.065844 
L 347.285028 -249.612412 
L 362.877231 -245.068472 
L 378.608315 -240.578238 
L 391.649931 -235.017065 
L 409.391576 -228.181818 
L 409.391576 -228.181818 
L 409.391576 -228.181818 
L 395.56993 -235.017065 
L 383.564012 -240.578238 
L 368.452837 -245.068472 
L 349.638108 -249.612412 
L 335.707136 -253.065844 
L 321.887416 -256.128177 
L 305.395642 -258.50451 
L 297.079247 -260.614428 
L 277.755745 -262.609328 
L 270.129283 -264.424612 
L 262.098277 -266.088204 
L 256.612401 -267.664441 
L 252.892328 -269.071829 
L 244.504046 -270.375682 
L 238.14907 -271.61707 
L 231.14519 -272.718053 
L 227.336027 -273.719237 
L 226.08759 -274.60987 
L 221.925608 -275.478564 
L 224.47099 -276.224652 
L 240.918098 -276.689432 
L 221.484378 -277.313737 
L 241.336077 -279.117743 
z
" id="m8d257f55e7" style="stroke:#e377c2;stroke-opacity:0.3;"/>
    </defs>
    <g clip-path="url(#p9d2977b260)">
     <use style="fill:#e377c2;fill-opacity:0.3;stroke:#e377c2;stroke-opacity:0.3;" x="0" xlink:href="#m8d257f55e7" y="345.6"/>
    </g>
   </g>
   <g id="PolyCollection_8">
    <defs>
     <path d="M 236.93653 -287.54453 
L 180.169861 -287.54453 
L 182.729984 -277.427718 
L 185.0897 -277.002649 
L 189.037093 -275.99194 
L 193.364649 -274.491803 
L 201.935032 -272.536932 
L 213.354578 -270.421681 
L 223.187253 -267.991194 
L 235.375099 -264.873662 
L 246.74094 -261.20333 
L 260.872232 -256.384716 
L 275.736002 -250.633339 
L 289.89483 -243.153952 
L 306.882507 -235.960159 
L 322.122797 -226.215102 
L 339.225808 -217.154978 
L 355.433105 -202.076791 
L 368.17997 -183.807852 
L 383.03489 -151.04349 
L 402.155049 -96.593409 
L 404.875834 -96.593409 
L 404.875834 -96.593409 
L 383.99944 -151.04349 
L 372.754103 -183.807852 
L 357.9284 -202.076791 
L 341.901609 -217.154978 
L 327.222646 -226.215102 
L 311.631614 -235.960159 
L 296.958658 -243.153952 
L 282.093328 -250.633339 
L 274.481977 -256.384716 
L 260.946406 -261.20333 
L 253.04811 -264.873662 
L 240.510983 -267.991194 
L 234.022185 -270.421681 
L 239.014956 -272.536932 
L 224.221486 -274.491803 
L 220.263787 -275.99194 
L 219.491391 -277.002649 
L 217.61238 -277.427718 
L 236.93653 -287.54453 
z
" id="mb28e5b78bc" style="stroke:#7f7f7f;stroke-opacity:0.3;"/>
    </defs>
    <g clip-path="url(#p9d2977b260)">
     <use style="fill:#7f7f7f;fill-opacity:0.3;stroke:#7f7f7f;stroke-opacity:0.3;" x="0" xlink:href="#mb28e5b78bc" y="345.6"/>
    </g>
   </g>
   <g id="PolyCollection_9">
    <defs>
     <path d="M 149.17049 -283.29165 
L 139.061314 -283.29165 
L 158.404052 -281.698303 
L 162.204085 -279.976103 
L 162.737999 -278.564397 
L 167.888275 -276.189073 
L 167.627186 -272.991801 
L 169.734101 -271.150444 
L 171.690141 -269.422348 
L 172.547753 -268.288116 
L 175.398634 -268.201982 
L 180.679505 -267.71507 
L 184.237761 -267.271673 
L 188.38833 -267.940623 
L 195.113181 -267.665532 
L 203.363283 -268.378529 
L 214.7777 -268.261162 
L 224.546506 -266.910391 
L 239.494109 -267.508729 
L 253.284578 -268.684245 
L 260.857318 -267.375315 
L 273.061625 -267.390201 
L 281.588837 -267.013811 
L 293.66438 -267.631353 
L 303.903 -266.853513 
L 317.630666 -267.972838 
L 331.578178 -267.258257 
L 348.039483 -266.412675 
L 362.98606 -268.269059 
L 378.855152 -267.4843 
L 395.75809 -266.889241 
L 412.753326 -266.902882 
L 412.753326 -266.902882 
L 412.753326 -266.902882 
L 397.499064 -266.889241 
L 384.357902 -267.4843 
L 366.843055 -268.269059 
L 349.435616 -266.412675 
L 336.31706 -267.258257 
L 321.312341 -267.972838 
L 315.78369 -266.853513 
L 302.143326 -267.631353 
L 291.837702 -267.013811 
L 280.177145 -267.390201 
L 266.349397 -267.375315 
L 254.844597 -268.684245 
L 240.761624 -267.508729 
L 226.516808 -266.910391 
L 216.286459 -268.261162 
L 207.189525 -268.378529 
L 196.313687 -267.665532 
L 190.636139 -267.940623 
L 186.409199 -267.271673 
L 183.229112 -267.71507 
L 176.707552 -268.201982 
L 178.031936 -268.288116 
L 177.191363 -269.422348 
L 172.277598 -271.150444 
L 172.113233 -272.991801 
L 170.886291 -276.189073 
L 164.554425 -278.564397 
L 167.167706 -279.976103 
L 160.750321 -281.698303 
L 149.17049 -283.29165 
z
" id="mf124269cf1" style="stroke:#bcbd22;stroke-opacity:0.3;"/>
    </defs>
    <g clip-path="url(#p9d2977b260)">
     <use style="fill:#bcbd22;fill-opacity:0.3;stroke:#bcbd22;stroke-opacity:0.3;" x="0" xlink:href="#mf124269cf1" y="345.6"/>
    </g>
   </g>
   <g id="PolyCollection_10">
    <defs>
     <path d="M 202.80364 -279.117743 
L 187.72696 -279.117743 
L 191.068297 -277.313737 
L 189.734295 -276.689432 
L 187.251975 -276.224652 
L 189.888442 -275.478564 
L 189.103733 -274.60987 
L 191.132265 -273.719237 
L 193.074187 -272.718053 
L 193.862899 -271.61707 
L 196.26816 -270.375682 
L 199.817208 -269.071829 
L 205.40794 -267.664441 
L 212.479065 -266.088204 
L 220.072743 -264.424612 
L 230.044667 -262.609328 
L 243.815776 -260.614428 
L 255.47664 -258.50451 
L 270.667003 -256.128177 
L 286.65396 -253.065844 
L 303.857753 -249.612412 
L 326.47897 -245.068472 
L 349.258705 -240.578238 
L 365.860977 -235.017065 
L 381.58978 -228.181818 
L 397.552586 -222.69837 
L 430.487247 -215.003751 
L 430.487247 -215.003751 
L 430.487247 -215.003751 
L 405.446796 -222.69837 
L 384.512106 -228.181818 
L 368.594262 -235.017065 
L 351.00404 -240.578238 
L 333.546815 -245.068472 
L 307.807228 -249.612412 
L 288.19689 -253.065844 
L 273.342755 -256.128177 
L 258.569084 -258.50451 
L 246.012856 -260.614428 
L 236.236979 -262.609328 
L 222.859198 -264.424612 
L 216.718697 -266.088204 
L 208.04266 -267.664441 
L 202.687413 -269.071829 
L 201.576127 -270.375682 
L 195.627525 -271.61707 
L 197.818718 -272.718053 
L 193.591307 -273.719237 
L 193.45551 -274.60987 
L 193.157209 -275.478564 
L 191.466652 -276.224652 
L 195.201911 -276.689432 
L 192.870132 -277.313737 
L 202.80364 -279.117743 
z
" id="m7a246421df" style="stroke:#17becf;stroke-opacity:0.3;"/>
    </defs>
    <g clip-path="url(#p9d2977b260)">
     <use style="fill:#17becf;fill-opacity:0.3;stroke:#17becf;stroke-opacity:0.3;" x="0" xlink:href="#m7a246421df" y="345.6"/>
    </g>
   </g>
   <g id="PolyCollection_11">
    <defs>
     <path d="M 232.577566 -279.117743 
L 220.126689 -279.117743 
L 220.899142 -277.313737 
L 220.884483 -276.544732 
L 220.855932 -275.888106 
L 222.876648 -274.671983 
L 223.85391 -273.079187 
L 223.006592 -271.340968 
L 224.42391 -269.258875 
L 226.707818 -266.731721 
L 229.233973 -263.616108 
L 233.051393 -259.906707 
L 239.303962 -255.511276 
L 245.489432 -249.134818 
L 254.288441 -240.905374 
L 263.653018 -229.630957 
L 275.538234 -218.994827 
L 289.694776 -206.247898 
L 303.067733 -195.451331 
L 315.682107 -177.837533 
L 332.411186 -169.49777 
L 346.967343 -170.123489 
L 364.271655 -159.262162 
L 382.003203 -149.188719 
L 400.000747 -138.587867 
L 401.23541 -138.587867 
L 401.23541 -138.587867 
L 383.458548 -149.188719 
L 365.587728 -159.262162 
L 349.244795 -170.123489 
L 335.029918 -169.49777 
L 319.445607 -177.837533 
L 305.307315 -195.451331 
L 291.199336 -206.247898 
L 276.114676 -218.994827 
L 265.686887 -229.630957 
L 257.090917 -240.905374 
L 248.006609 -249.134818 
L 245.06684 -255.511276 
L 234.312937 -259.906707 
L 231.663756 -263.616108 
L 228.756113 -266.731721 
L 227.541474 -269.258875 
L 226.061515 -271.340968 
L 225.645789 -273.079187 
L 224.994944 -274.671983 
L 223.981573 -275.888106 
L 222.454549 -276.544732 
L 223.514804 -277.313737 
L 232.577566 -279.117743 
z
" id="m1f06aacd91" style="stroke:#1f77b4;stroke-opacity:0.3;"/>
    </defs>
    <g clip-path="url(#p9d2977b260)">
     <use style="fill:#1f77b4;fill-opacity:0.3;stroke:#1f77b4;stroke-opacity:0.3;" x="0" xlink:href="#m1f06aacd91" y="345.6"/>
    </g>
   </g>
   <g id="PolyCollection_12">
    <defs>
     <path d="M 247.8026 -279.117743 
L 234.580728 -279.117743 
L 246.377011 -277.313737 
L 257.346604 -276.689432 
L 265.848884 -276.224652 
L 278.579446 -275.478564 
L 291.961127 -274.60987 
L 306.695953 -273.719237 
L 322.058185 -272.718053 
L 337.889295 -271.61707 
L 354.27395 -270.375682 
L 369.402432 -269.071829 
L 386.200118 -267.664441 
L 404.593808 -266.088204 
L 406.840308 -266.088204 
L 406.840308 -266.088204 
L 387.194736 -267.664441 
L 370.413024 -269.071829 
L 357.384597 -270.375682 
L 339.55425 -271.61707 
L 324.051937 -272.718053 
L 308.894913 -273.719237 
L 301.710052 -274.60987 
L 283.437479 -275.478564 
L 269.550765 -276.224652 
L 262.375541 -276.689432 
L 258.852079 -277.313737 
L 247.8026 -279.117743 
z
" id="ma8fa326a11" style="stroke:#ff7f0e;stroke-opacity:0.3;"/>
    </defs>
    <g clip-path="url(#p9d2977b260)">
     <use style="fill:#ff7f0e;fill-opacity:0.3;stroke:#ff7f0e;stroke-opacity:0.3;" x="0" xlink:href="#ma8fa326a11" y="345.6"/>
    </g>
   </g>
   <g id="PolyCollection_13">
    <defs>
     <path d="M 150.476442 -281.450111 
L 138.902365 -281.450111 
L 139.602645 -278.765004 
L 145.795802 -276.706491 
L 146.637364 -275.113263 
L 148.998923 -272.440025 
L 158.687845 -268.917451 
L 164.466987 -265.165298 
L 174.274216 -260.958034 
L 182.253089 -256.485664 
L 194.210779 -250.354546 
L 208.539167 -242.686109 
L 223.428441 -232.598384 
L 238.676836 -217.443988 
L 254.964781 -205.620372 
L 266.36087 -193.213082 
L 278.819605 -179.363347 
L 293.161858 -162.704801 
L 306.879553 -142.702239 
L 322.083583 -116.422627 
L 338.031692 -78.127188 
L 350.677653 -60.742799 
L 365.717666 -60.388057 
L 381.457734 -60.856979 
L 394.846665 -60.742799 
L 413.69074 -60.388057 
L 413.69074 -60.388057 
L 413.69074 -60.388057 
L 398.832745 -60.742799 
L 386.081672 -60.856979 
L 366.592557 -60.388057 
L 353.12478 -60.742799 
L 340.201514 -78.127188 
L 323.033709 -116.422627 
L 308.215881 -142.702239 
L 295.545549 -162.704801 
L 280.753133 -179.363347 
L 267.706869 -193.213082 
L 256.867987 -205.620372 
L 240.906128 -217.443988 
L 225.864696 -232.598384 
L 211.050673 -242.686109 
L 202.294394 -250.354546 
L 188.119601 -256.485664 
L 179.425654 -260.958034 
L 170.229511 -265.165298 
L 166.063984 -268.917451 
L 168.115797 -272.440025 
L 157.000464 -275.113263 
L 151.666025 -276.706491 
L 145.751815 -278.765004 
L 150.476442 -281.450111 
z
" id="m00bec80946" style="stroke:#2ca02c;stroke-opacity:0.3;"/>
    </defs>
    <g clip-path="url(#p9d2977b260)">
     <use style="fill:#2ca02c;fill-opacity:0.3;stroke:#2ca02c;stroke-opacity:0.3;" x="0" xlink:href="#m00bec80946" y="345.6"/>
    </g>
   </g>
   <g id="PolyCollection_14">
    <defs>
     <path d="M 378.963367 -281.450111 
L 370.411087 -281.450111 
L 406.766441 -278.765004 
L 406.355148 -276.65367 
L 406.410202 -275.290095 
L 406.861421 -275.290095 
L 406.861421 -275.290095 
L 407.522959 -276.65367 
L 411.444684 -278.765004 
L 378.963367 -281.450111 
z
" id="m3ebc246879" style="stroke:#d62728;stroke-opacity:0.3;"/>
    </defs>
    <g clip-path="url(#p9d2977b260)">
     <use style="fill:#d62728;fill-opacity:0.3;stroke:#d62728;stroke-opacity:0.3;" x="0" xlink:href="#m3ebc246879" y="345.6"/>
    </g>
   </g>
   <g id="matplotlib.axis_1">
    <g id="xtick_1">
     <g id="line2d_1">
      <defs>
       <path d="M 0 0 
L 0 3.5 
" id="m9d06b60310" style="stroke:#000000;stroke-width:0.8;"/>
      </defs>
      <g>
       <use style="stroke:#000000;stroke-width:0.8;" x="122.465586" xlink:href="#m9d06b60310" y="296.728"/>
      </g>
     </g>
     <g id="text_1">
      <!-- $\mathdefault{10^{-2}}$ -->
      <g transform="translate(110.715586 311.326437)scale(0.1 -0.1)">
       <defs>
        <path d="M 12.40625 8.296875 
L 28.515625 8.296875 
L 28.515625 63.921875 
L 10.984375 60.40625 
L 10.984375 69.390625 
L 28.421875 72.90625 
L 38.28125 72.90625 
L 38.28125 8.296875 
L 54.390625 8.296875 
L 54.390625 0 
L 12.40625 0 
z
" id="DejaVuSans-49"/>
        <path d="M 31.78125 66.40625 
Q 24.171875 66.40625 20.328125 58.90625 
Q 16.5 51.421875 16.5 36.375 
Q 16.5 21.390625 20.328125 13.890625 
Q 24.171875 6.390625 31.78125 6.390625 
Q 39.453125 6.390625 43.28125 13.890625 
Q 47.125 21.390625 47.125 36.375 
Q 47.125 51.421875 43.28125 58.90625 
Q 39.453125 66.40625 31.78125 66.40625 
z
M 31.78125 74.21875 
Q 44.046875 74.21875 50.515625 64.515625 
Q 56.984375 54.828125 56.984375 36.375 
Q 56.984375 17.96875 50.515625 8.265625 
Q 44.046875 -1.421875 31.78125 -1.421875 
Q 19.53125 -1.421875 13.0625 8.265625 
Q 6.59375 17.96875 6.59375 36.375 
Q 6.59375 54.828125 13.0625 64.515625 
Q 19.53125 74.21875 31.78125 74.21875 
z
" id="DejaVuSans-48"/>
        <path d="M 10.59375 35.5 
L 73.1875 35.5 
L 73.1875 27.203125 
L 10.59375 27.203125 
z
" id="DejaVuSans-8722"/>
        <path d="M 19.1875 8.296875 
L 53.609375 8.296875 
L 53.609375 0 
L 7.328125 0 
L 7.328125 8.296875 
Q 12.9375 14.109375 22.625 23.890625 
Q 32.328125 33.6875 34.8125 36.53125 
Q 39.546875 41.84375 41.421875 45.53125 
Q 43.3125 49.21875 43.3125 52.78125 
Q 43.3125 58.59375 39.234375 62.25 
Q 35.15625 65.921875 28.609375 65.921875 
Q 23.96875 65.921875 18.8125 64.3125 
Q 13.671875 62.703125 7.8125 59.421875 
L 7.8125 69.390625 
Q 13.765625 71.78125 18.9375 73 
Q 24.125 74.21875 28.421875 74.21875 
Q 39.75 74.21875 46.484375 68.546875 
Q 53.21875 62.890625 53.21875 53.421875 
Q 53.21875 48.921875 51.53125 44.890625 
Q 49.859375 40.875 45.40625 35.40625 
Q 44.1875 33.984375 37.640625 27.21875 
Q 31.109375 20.453125 19.1875 8.296875 
z
" id="DejaVuSans-50"/>
       </defs>
       <use transform="translate(0 0.765625)" xlink:href="#DejaVuSans-49"/>
       <use transform="translate(63.623047 0.765625)" xlink:href="#DejaVuSans-48"/>
       <use transform="translate(128.203125 39.046875)scale(0.7)" xlink:href="#DejaVuSans-8722"/>
       <use transform="translate(186.855469 39.046875)scale(0.7)" xlink:href="#DejaVuSans-50"/>
      </g>
     </g>
    </g>
    <g id="xtick_2">
     <g id="line2d_2">
      <g>
       <use style="stroke:#000000;stroke-width:0.8;" x="222.70306" xlink:href="#m9d06b60310" y="296.728"/>
      </g>
     </g>
     <g id="text_2">
      <!-- $\mathdefault{10^{-1}}$ -->
      <g transform="translate(210.95306 311.326437)scale(0.1 -0.1)">
       <use transform="translate(0 0.684375)" xlink:href="#DejaVuSans-49"/>
       <use transform="translate(63.623047 0.684375)" xlink:href="#DejaVuSans-48"/>
       <use transform="translate(128.203125 38.965625)scale(0.7)" xlink:href="#DejaVuSans-8722"/>
       <use transform="translate(186.855469 38.965625)scale(0.7)" xlink:href="#DejaVuSans-49"/>
      </g>
     </g>
    </g>
    <g id="xtick_3">
     <g id="line2d_3">
      <g>
       <use style="stroke:#000000;stroke-width:0.8;" x="322.940534" xlink:href="#m9d06b60310" y="296.728"/>
      </g>
     </g>
     <g id="text_3">
      <!-- $\mathdefault{10^{0}}$ -->
      <g transform="translate(314.140534 311.326437)scale(0.1 -0.1)">
       <use transform="translate(0 0.765625)" xlink:href="#DejaVuSans-49"/>
       <use transform="translate(63.623047 0.765625)" xlink:href="#DejaVuSans-48"/>
       <use transform="translate(128.203125 39.046875)scale(0.7)" xlink:href="#DejaVuSans-48"/>
      </g>
     </g>
    </g>
    <g id="xtick_4">
     <g id="line2d_4">
      <g>
       <use style="stroke:#000000;stroke-width:0.8;" x="423.178008" xlink:href="#m9d06b60310" y="296.728"/>
      </g>
     </g>
     <g id="text_4">
      <!-- $\mathdefault{10^{1}}$ -->
      <g transform="translate(414.378008 311.326437)scale(0.1 -0.1)">
       <use transform="translate(0 0.684375)" xlink:href="#DejaVuSans-49"/>
       <use transform="translate(63.623047 0.684375)" xlink:href="#DejaVuSans-48"/>
       <use transform="translate(128.203125 38.965625)scale(0.7)" xlink:href="#DejaVuSans-49"/>
      </g>
     </g>
    </g>
    <g id="xtick_5">
     <g id="line2d_5">
      <defs>
       <path d="M 0 0 
L 0 2 
" id="m0f82c07e33" style="stroke:#000000;stroke-width:0.6;"/>
      </defs>
      <g>
       <use style="stroke:#000000;stroke-width:0.6;" x="70.053541" xlink:href="#m0f82c07e33" y="296.728"/>
      </g>
     </g>
    </g>
    <g id="xtick_6">
     <g id="line2d_6">
      <g>
       <use style="stroke:#000000;stroke-width:0.6;" x="82.577085" xlink:href="#m0f82c07e33" y="296.728"/>
      </g>
     </g>
    </g>
    <g id="xtick_7">
     <g id="line2d_7">
      <g>
       <use style="stroke:#000000;stroke-width:0.6;" x="92.2911" xlink:href="#m0f82c07e33" y="296.728"/>
      </g>
     </g>
    </g>
    <g id="xtick_8">
     <g id="line2d_8">
      <g>
       <use style="stroke:#000000;stroke-width:0.6;" x="100.228028" xlink:href="#m0f82c07e33" y="296.728"/>
      </g>
     </g>
    </g>
    <g id="xtick_9">
     <g id="line2d_9">
      <g>
       <use style="stroke:#000000;stroke-width:0.6;" x="106.938605" xlink:href="#m0f82c07e33" y="296.728"/>
      </g>
     </g>
    </g>
    <g id="xtick_10">
     <g id="line2d_10">
      <g>
       <use style="stroke:#000000;stroke-width:0.6;" x="112.751571" xlink:href="#m0f82c07e33" y="296.728"/>
      </g>
     </g>
    </g>
    <g id="xtick_11">
     <g id="line2d_11">
      <g>
       <use style="stroke:#000000;stroke-width:0.6;" x="117.878971" xlink:href="#m0f82c07e33" y="296.728"/>
      </g>
     </g>
    </g>
    <g id="xtick_12">
     <g id="line2d_12">
      <g>
       <use style="stroke:#000000;stroke-width:0.6;" x="152.640072" xlink:href="#m0f82c07e33" y="296.728"/>
      </g>
     </g>
    </g>
    <g id="xtick_13">
     <g id="line2d_13">
      <g>
       <use style="stroke:#000000;stroke-width:0.6;" x="170.291015" xlink:href="#m0f82c07e33" y="296.728"/>
      </g>
     </g>
    </g>
    <g id="xtick_14">
     <g id="line2d_14">
      <g>
       <use style="stroke:#000000;stroke-width:0.6;" x="182.814559" xlink:href="#m0f82c07e33" y="296.728"/>
      </g>
     </g>
    </g>
    <g id="xtick_15">
     <g id="line2d_15">
      <g>
       <use style="stroke:#000000;stroke-width:0.6;" x="192.528574" xlink:href="#m0f82c07e33" y="296.728"/>
      </g>
     </g>
    </g>
    <g id="xtick_16">
     <g id="line2d_16">
      <g>
       <use style="stroke:#000000;stroke-width:0.6;" x="200.465502" xlink:href="#m0f82c07e33" y="296.728"/>
      </g>
     </g>
    </g>
    <g id="xtick_17">
     <g id="line2d_17">
      <g>
       <use style="stroke:#000000;stroke-width:0.6;" x="207.176079" xlink:href="#m0f82c07e33" y="296.728"/>
      </g>
     </g>
    </g>
    <g id="xtick_18">
     <g id="line2d_18">
      <g>
       <use style="stroke:#000000;stroke-width:0.6;" x="212.989045" xlink:href="#m0f82c07e33" y="296.728"/>
      </g>
     </g>
    </g>
    <g id="xtick_19">
     <g id="line2d_19">
      <g>
       <use style="stroke:#000000;stroke-width:0.6;" x="218.116445" xlink:href="#m0f82c07e33" y="296.728"/>
      </g>
     </g>
    </g>
    <g id="xtick_20">
     <g id="line2d_20">
      <g>
       <use style="stroke:#000000;stroke-width:0.6;" x="252.877546" xlink:href="#m0f82c07e33" y="296.728"/>
      </g>
     </g>
    </g>
    <g id="xtick_21">
     <g id="line2d_21">
      <g>
       <use style="stroke:#000000;stroke-width:0.6;" x="270.528489" xlink:href="#m0f82c07e33" y="296.728"/>
      </g>
     </g>
    </g>
    <g id="xtick_22">
     <g id="line2d_22">
      <g>
       <use style="stroke:#000000;stroke-width:0.6;" x="283.052033" xlink:href="#m0f82c07e33" y="296.728"/>
      </g>
     </g>
    </g>
    <g id="xtick_23">
     <g id="line2d_23">
      <g>
       <use style="stroke:#000000;stroke-width:0.6;" x="292.766047" xlink:href="#m0f82c07e33" y="296.728"/>
      </g>
     </g>
    </g>
    <g id="xtick_24">
     <g id="line2d_24">
      <g>
       <use style="stroke:#000000;stroke-width:0.6;" x="300.702975" xlink:href="#m0f82c07e33" y="296.728"/>
      </g>
     </g>
    </g>
    <g id="xtick_25">
     <g id="line2d_25">
      <g>
       <use style="stroke:#000000;stroke-width:0.6;" x="307.413553" xlink:href="#m0f82c07e33" y="296.728"/>
      </g>
     </g>
    </g>
    <g id="xtick_26">
     <g id="line2d_26">
      <g>
       <use style="stroke:#000000;stroke-width:0.6;" x="313.226519" xlink:href="#m0f82c07e33" y="296.728"/>
      </g>
     </g>
    </g>
    <g id="xtick_27">
     <g id="line2d_27">
      <g>
       <use style="stroke:#000000;stroke-width:0.6;" x="318.353918" xlink:href="#m0f82c07e33" y="296.728"/>
      </g>
     </g>
    </g>
    <g id="xtick_28">
     <g id="line2d_28">
      <g>
       <use style="stroke:#000000;stroke-width:0.6;" x="353.11502" xlink:href="#m0f82c07e33" y="296.728"/>
      </g>
     </g>
    </g>
    <g id="xtick_29">
     <g id="line2d_29">
      <g>
       <use style="stroke:#000000;stroke-width:0.6;" x="370.765963" xlink:href="#m0f82c07e33" y="296.728"/>
      </g>
     </g>
    </g>
    <g id="xtick_30">
     <g id="line2d_30">
      <g>
       <use style="stroke:#000000;stroke-width:0.6;" x="383.289506" xlink:href="#m0f82c07e33" y="296.728"/>
      </g>
     </g>
    </g>
    <g id="xtick_31">
     <g id="line2d_31">
      <g>
       <use style="stroke:#000000;stroke-width:0.6;" x="393.003521" xlink:href="#m0f82c07e33" y="296.728"/>
      </g>
     </g>
    </g>
    <g id="xtick_32">
     <g id="line2d_32">
      <g>
       <use style="stroke:#000000;stroke-width:0.6;" x="400.940449" xlink:href="#m0f82c07e33" y="296.728"/>
      </g>
     </g>
    </g>
    <g id="xtick_33">
     <g id="line2d_33">
      <g>
       <use style="stroke:#000000;stroke-width:0.6;" x="407.651026" xlink:href="#m0f82c07e33" y="296.728"/>
      </g>
     </g>
    </g>
    <g id="xtick_34">
     <g id="line2d_34">
      <g>
       <use style="stroke:#000000;stroke-width:0.6;" x="413.463993" xlink:href="#m0f82c07e33" y="296.728"/>
      </g>
     </g>
    </g>
    <g id="xtick_35">
     <g id="line2d_35">
      <g>
       <use style="stroke:#000000;stroke-width:0.6;" x="418.591392" xlink:href="#m0f82c07e33" y="296.728"/>
      </g>
     </g>
    </g>
    <g id="text_5">
     <!-- Time [sec] -->
     <g transform="translate(218.879464 328.043937)scale(0.14 -0.14)">
      <defs>
       <path d="M -0.296875 72.90625 
L 61.375 72.90625 
L 61.375 64.59375 
L 35.5 64.59375 
L 35.5 0 
L 25.59375 0 
L 25.59375 64.59375 
L -0.296875 64.59375 
z
" id="DejaVuSans-84"/>
       <path d="M 9.421875 54.6875 
L 18.40625 54.6875 
L 18.40625 0 
L 9.421875 0 
z
M 9.421875 75.984375 
L 18.40625 75.984375 
L 18.40625 64.59375 
L 9.421875 64.59375 
z
" id="DejaVuSans-105"/>
       <path d="M 52 44.1875 
Q 55.375 50.25 60.0625 53.125 
Q 64.75 56 71.09375 56 
Q 79.640625 56 84.28125 50.015625 
Q 88.921875 44.046875 88.921875 33.015625 
L 88.921875 0 
L 79.890625 0 
L 79.890625 32.71875 
Q 79.890625 40.578125 77.09375 44.375 
Q 74.3125 48.1875 68.609375 48.1875 
Q 61.625 48.1875 57.5625 43.546875 
Q 53.515625 38.921875 53.515625 30.90625 
L 53.515625 0 
L 44.484375 0 
L 44.484375 32.71875 
Q 44.484375 40.625 41.703125 44.40625 
Q 38.921875 48.1875 33.109375 48.1875 
Q 26.21875 48.1875 22.15625 43.53125 
Q 18.109375 38.875 18.109375 30.90625 
L 18.109375 0 
L 9.078125 0 
L 9.078125 54.6875 
L 18.109375 54.6875 
L 18.109375 46.1875 
Q 21.1875 51.21875 25.484375 53.609375 
Q 29.78125 56 35.6875 56 
Q 41.65625 56 45.828125 52.96875 
Q 50 49.953125 52 44.1875 
z
" id="DejaVuSans-109"/>
       <path d="M 56.203125 29.59375 
L 56.203125 25.203125 
L 14.890625 25.203125 
Q 15.484375 15.921875 20.484375 11.0625 
Q 25.484375 6.203125 34.421875 6.203125 
Q 39.59375 6.203125 44.453125 7.46875 
Q 49.3125 8.734375 54.109375 11.28125 
L 54.109375 2.78125 
Q 49.265625 0.734375 44.1875 -0.34375 
Q 39.109375 -1.421875 33.890625 -1.421875 
Q 20.796875 -1.421875 13.15625 6.1875 
Q 5.515625 13.8125 5.515625 26.8125 
Q 5.515625 40.234375 12.765625 48.109375 
Q 20.015625 56 32.328125 56 
Q 43.359375 56 49.78125 48.890625 
Q 56.203125 41.796875 56.203125 29.59375 
z
M 47.21875 32.234375 
Q 47.125 39.59375 43.09375 43.984375 
Q 39.0625 48.390625 32.421875 48.390625 
Q 24.90625 48.390625 20.390625 44.140625 
Q 15.875 39.890625 15.1875 32.171875 
z
" id="DejaVuSans-101"/>
       <path id="DejaVuSans-32"/>
       <path d="M 8.59375 75.984375 
L 29.296875 75.984375 
L 29.296875 69 
L 17.578125 69 
L 17.578125 -6.203125 
L 29.296875 -6.203125 
L 29.296875 -13.1875 
L 8.59375 -13.1875 
z
" id="DejaVuSans-91"/>
       <path d="M 44.28125 53.078125 
L 44.28125 44.578125 
Q 40.484375 46.53125 36.375 47.5 
Q 32.28125 48.484375 27.875 48.484375 
Q 21.1875 48.484375 17.84375 46.4375 
Q 14.5 44.390625 14.5 40.28125 
Q 14.5 37.15625 16.890625 35.375 
Q 19.28125 33.59375 26.515625 31.984375 
L 29.59375 31.296875 
Q 39.15625 29.25 43.1875 25.515625 
Q 47.21875 21.78125 47.21875 15.09375 
Q 47.21875 7.46875 41.1875 3.015625 
Q 35.15625 -1.421875 24.609375 -1.421875 
Q 20.21875 -1.421875 15.453125 -0.5625 
Q 10.6875 0.296875 5.421875 2 
L 5.421875 11.28125 
Q 10.40625 8.6875 15.234375 7.390625 
Q 20.0625 6.109375 24.8125 6.109375 
Q 31.15625 6.109375 34.5625 8.28125 
Q 37.984375 10.453125 37.984375 14.40625 
Q 37.984375 18.0625 35.515625 20.015625 
Q 33.0625 21.96875 24.703125 23.78125 
L 21.578125 24.515625 
Q 13.234375 26.265625 9.515625 29.90625 
Q 5.8125 33.546875 5.8125 39.890625 
Q 5.8125 47.609375 11.28125 51.796875 
Q 16.75 56 26.8125 56 
Q 31.78125 56 36.171875 55.265625 
Q 40.578125 54.546875 44.28125 53.078125 
z
" id="DejaVuSans-115"/>
       <path d="M 48.78125 52.59375 
L 48.78125 44.1875 
Q 44.96875 46.296875 41.140625 47.34375 
Q 37.3125 48.390625 33.40625 48.390625 
Q 24.65625 48.390625 19.8125 42.84375 
Q 14.984375 37.3125 14.984375 27.296875 
Q 14.984375 17.28125 19.8125 11.734375 
Q 24.65625 6.203125 33.40625 6.203125 
Q 37.3125 6.203125 41.140625 7.25 
Q 44.96875 8.296875 48.78125 10.40625 
L 48.78125 2.09375 
Q 45.015625 0.34375 40.984375 -0.53125 
Q 36.96875 -1.421875 32.421875 -1.421875 
Q 20.0625 -1.421875 12.78125 6.34375 
Q 5.515625 14.109375 5.515625 27.296875 
Q 5.515625 40.671875 12.859375 48.328125 
Q 20.21875 56 33.015625 56 
Q 37.15625 56 41.109375 55.140625 
Q 45.0625 54.296875 48.78125 52.59375 
z
" id="DejaVuSans-99"/>
       <path d="M 30.421875 75.984375 
L 30.421875 -13.1875 
L 9.71875 -13.1875 
L 9.71875 -6.203125 
L 21.390625 -6.203125 
L 21.390625 69 
L 9.71875 69 
L 9.71875 75.984375 
z
" id="DejaVuSans-93"/>
      </defs>
      <use xlink:href="#DejaVuSans-84"/>
      <use x="57.958984" xlink:href="#DejaVuSans-105"/>
      <use x="85.742188" xlink:href="#DejaVuSans-109"/>
      <use x="183.154297" xlink:href="#DejaVuSans-101"/>
      <use x="244.677734" xlink:href="#DejaVuSans-32"/>
      <use x="276.464844" xlink:href="#DejaVuSans-91"/>
      <use x="315.478516" xlink:href="#DejaVuSans-115"/>
      <use x="367.578125" xlink:href="#DejaVuSans-101"/>
      <use x="429.101562" xlink:href="#DejaVuSans-99"/>
      <use x="484.082031" xlink:href="#DejaVuSans-93"/>
     </g>
    </g>
   </g>
   <g id="matplotlib.axis_2">
    <g id="ytick_1">
     <g id="line2d_36">
      <defs>
       <path d="M 0 0 
L -3.5 0 
" id="m2b6d840e0a" style="stroke:#000000;stroke-width:0.8;"/>
      </defs>
      <g>
       <use style="stroke:#000000;stroke-width:0.8;" x="60.992054" xlink:href="#m2b6d840e0a" y="269.835036"/>
      </g>
     </g>
     <g id="text_6">
      <!-- $\mathdefault{10^{-9}}$ -->
      <g transform="translate(30.492054 273.634255)scale(0.1 -0.1)">
       <defs>
        <path d="M 10.984375 1.515625 
L 10.984375 10.5 
Q 14.703125 8.734375 18.5 7.8125 
Q 22.3125 6.890625 25.984375 6.890625 
Q 35.75 6.890625 40.890625 13.453125 
Q 46.046875 20.015625 46.78125 33.40625 
Q 43.953125 29.203125 39.59375 26.953125 
Q 35.25 24.703125 29.984375 24.703125 
Q 19.046875 24.703125 12.671875 31.3125 
Q 6.296875 37.9375 6.296875 49.421875 
Q 6.296875 60.640625 12.9375 67.421875 
Q 19.578125 74.21875 30.609375 74.21875 
Q 43.265625 74.21875 49.921875 64.515625 
Q 56.59375 54.828125 56.59375 36.375 
Q 56.59375 19.140625 48.40625 8.859375 
Q 40.234375 -1.421875 26.421875 -1.421875 
Q 22.703125 -1.421875 18.890625 -0.6875 
Q 15.09375 0.046875 10.984375 1.515625 
z
M 30.609375 32.421875 
Q 37.25 32.421875 41.125 36.953125 
Q 45.015625 41.5 45.015625 49.421875 
Q 45.015625 57.28125 41.125 61.84375 
Q 37.25 66.40625 30.609375 66.40625 
Q 23.96875 66.40625 20.09375 61.84375 
Q 16.21875 57.28125 16.21875 49.421875 
Q 16.21875 41.5 20.09375 36.953125 
Q 23.96875 32.421875 30.609375 32.421875 
z
" id="DejaVuSans-57"/>
       </defs>
       <use transform="translate(0 0.765625)" xlink:href="#DejaVuSans-49"/>
       <use transform="translate(63.623047 0.765625)" xlink:href="#DejaVuSans-48"/>
       <use transform="translate(128.203125 39.046875)scale(0.7)" xlink:href="#DejaVuSans-8722"/>
       <use transform="translate(186.855469 39.046875)scale(0.7)" xlink:href="#DejaVuSans-57"/>
      </g>
     </g>
    </g>
    <g id="ytick_2">
     <g id="line2d_37">
      <g>
       <use style="stroke:#000000;stroke-width:0.8;" x="60.992054" xlink:href="#m2b6d840e0a" y="239.07529"/>
      </g>
     </g>
     <g id="text_7">
      <!-- $\mathdefault{10^{-7}}$ -->
      <g transform="translate(30.492054 242.874508)scale(0.1 -0.1)">
       <defs>
        <path d="M 8.203125 72.90625 
L 55.078125 72.90625 
L 55.078125 68.703125 
L 28.609375 0 
L 18.3125 0 
L 43.21875 64.59375 
L 8.203125 64.59375 
z
" id="DejaVuSans-55"/>
       </defs>
       <use transform="translate(0 0.684375)" xlink:href="#DejaVuSans-49"/>
       <use transform="translate(63.623047 0.684375)" xlink:href="#DejaVuSans-48"/>
       <use transform="translate(128.203125 38.965625)scale(0.7)" xlink:href="#DejaVuSans-8722"/>
       <use transform="translate(186.855469 38.965625)scale(0.7)" xlink:href="#DejaVuSans-55"/>
      </g>
     </g>
    </g>
    <g id="ytick_3">
     <g id="line2d_38">
      <g>
       <use style="stroke:#000000;stroke-width:0.8;" x="60.992054" xlink:href="#m2b6d840e0a" y="208.315543"/>
      </g>
     </g>
     <g id="text_8">
      <!-- $\mathdefault{10^{-5}}$ -->
      <g transform="translate(30.492054 212.114762)scale(0.1 -0.1)">
       <defs>
        <path d="M 10.796875 72.90625 
L 49.515625 72.90625 
L 49.515625 64.59375 
L 19.828125 64.59375 
L 19.828125 46.734375 
Q 21.96875 47.46875 24.109375 47.828125 
Q 26.265625 48.1875 28.421875 48.1875 
Q 40.625 48.1875 47.75 41.5 
Q 54.890625 34.8125 54.890625 23.390625 
Q 54.890625 11.625 47.5625 5.09375 
Q 40.234375 -1.421875 26.90625 -1.421875 
Q 22.3125 -1.421875 17.546875 -0.640625 
Q 12.796875 0.140625 7.71875 1.703125 
L 7.71875 11.625 
Q 12.109375 9.234375 16.796875 8.0625 
Q 21.484375 6.890625 26.703125 6.890625 
Q 35.15625 6.890625 40.078125 11.328125 
Q 45.015625 15.765625 45.015625 23.390625 
Q 45.015625 31 40.078125 35.4375 
Q 35.15625 39.890625 26.703125 39.890625 
Q 22.75 39.890625 18.8125 39.015625 
Q 14.890625 38.140625 10.796875 36.28125 
z
" id="DejaVuSans-53"/>
       </defs>
       <use transform="translate(0 0.684375)" xlink:href="#DejaVuSans-49"/>
       <use transform="translate(63.623047 0.684375)" xlink:href="#DejaVuSans-48"/>
       <use transform="translate(128.203125 38.965625)scale(0.7)" xlink:href="#DejaVuSans-8722"/>
       <use transform="translate(186.855469 38.965625)scale(0.7)" xlink:href="#DejaVuSans-53"/>
      </g>
     </g>
    </g>
    <g id="ytick_4">
     <g id="line2d_39">
      <g>
       <use style="stroke:#000000;stroke-width:0.8;" x="60.992054" xlink:href="#m2b6d840e0a" y="177.555797"/>
      </g>
     </g>
     <g id="text_9">
      <!-- $\mathdefault{10^{-3}}$ -->
      <g transform="translate(30.492054 181.355016)scale(0.1 -0.1)">
       <defs>
        <path d="M 40.578125 39.3125 
Q 47.65625 37.796875 51.625 33 
Q 55.609375 28.21875 55.609375 21.1875 
Q 55.609375 10.40625 48.1875 4.484375 
Q 40.765625 -1.421875 27.09375 -1.421875 
Q 22.515625 -1.421875 17.65625 -0.515625 
Q 12.796875 0.390625 7.625 2.203125 
L 7.625 11.71875 
Q 11.71875 9.328125 16.59375 8.109375 
Q 21.484375 6.890625 26.8125 6.890625 
Q 36.078125 6.890625 40.9375 10.546875 
Q 45.796875 14.203125 45.796875 21.1875 
Q 45.796875 27.640625 41.28125 31.265625 
Q 36.765625 34.90625 28.71875 34.90625 
L 20.21875 34.90625 
L 20.21875 43.015625 
L 29.109375 43.015625 
Q 36.375 43.015625 40.234375 45.921875 
Q 44.09375 48.828125 44.09375 54.296875 
Q 44.09375 59.90625 40.109375 62.90625 
Q 36.140625 65.921875 28.71875 65.921875 
Q 24.65625 65.921875 20.015625 65.03125 
Q 15.375 64.15625 9.8125 62.3125 
L 9.8125 71.09375 
Q 15.4375 72.65625 20.34375 73.4375 
Q 25.25 74.21875 29.59375 74.21875 
Q 40.828125 74.21875 47.359375 69.109375 
Q 53.90625 64.015625 53.90625 55.328125 
Q 53.90625 49.265625 50.4375 45.09375 
Q 46.96875 40.921875 40.578125 39.3125 
z
" id="DejaVuSans-51"/>
       </defs>
       <use transform="translate(0 0.765625)" xlink:href="#DejaVuSans-49"/>
       <use transform="translate(63.623047 0.765625)" xlink:href="#DejaVuSans-48"/>
       <use transform="translate(128.203125 39.046875)scale(0.7)" xlink:href="#DejaVuSans-8722"/>
       <use transform="translate(186.855469 39.046875)scale(0.7)" xlink:href="#DejaVuSans-51"/>
      </g>
     </g>
    </g>
    <g id="ytick_5">
     <g id="line2d_40">
      <g>
       <use style="stroke:#000000;stroke-width:0.8;" x="60.992054" xlink:href="#m2b6d840e0a" y="146.796051"/>
      </g>
     </g>
     <g id="text_10">
      <!-- $\mathdefault{10^{-1}}$ -->
      <g transform="translate(30.492054 150.59527)scale(0.1 -0.1)">
       <use transform="translate(0 0.684375)" xlink:href="#DejaVuSans-49"/>
       <use transform="translate(63.623047 0.684375)" xlink:href="#DejaVuSans-48"/>
       <use transform="translate(128.203125 38.965625)scale(0.7)" xlink:href="#DejaVuSans-8722"/>
       <use transform="translate(186.855469 38.965625)scale(0.7)" xlink:href="#DejaVuSans-49"/>
      </g>
     </g>
    </g>
    <g id="ytick_6">
     <g id="line2d_41">
      <g>
       <use style="stroke:#000000;stroke-width:0.8;" x="60.992054" xlink:href="#m2b6d840e0a" y="116.036305"/>
      </g>
     </g>
     <g id="text_11">
      <!-- $\mathdefault{10^{1}}$ -->
      <g transform="translate(36.392054 119.835523)scale(0.1 -0.1)">
       <use transform="translate(0 0.684375)" xlink:href="#DejaVuSans-49"/>
       <use transform="translate(63.623047 0.684375)" xlink:href="#DejaVuSans-48"/>
       <use transform="translate(128.203125 38.965625)scale(0.7)" xlink:href="#DejaVuSans-49"/>
      </g>
     </g>
    </g>
    <g id="ytick_7">
     <g id="line2d_42">
      <g>
       <use style="stroke:#000000;stroke-width:0.8;" x="60.992054" xlink:href="#m2b6d840e0a" y="85.276558"/>
      </g>
     </g>
     <g id="text_12">
      <!-- $\mathdefault{10^{3}}$ -->
      <g transform="translate(36.392054 89.075777)scale(0.1 -0.1)">
       <use transform="translate(0 0.765625)" xlink:href="#DejaVuSans-49"/>
       <use transform="translate(63.623047 0.765625)" xlink:href="#DejaVuSans-48"/>
       <use transform="translate(128.203125 39.046875)scale(0.7)" xlink:href="#DejaVuSans-51"/>
      </g>
     </g>
    </g>
    <g id="ytick_8">
     <g id="line2d_43">
      <g>
       <use style="stroke:#000000;stroke-width:0.8;" x="60.992054" xlink:href="#m2b6d840e0a" y="54.516812"/>
      </g>
     </g>
     <g id="text_13">
      <!-- $\mathdefault{10^{5}}$ -->
      <g transform="translate(36.392054 58.316031)scale(0.1 -0.1)">
       <use transform="translate(0 0.684375)" xlink:href="#DejaVuSans-49"/>
       <use transform="translate(63.623047 0.684375)" xlink:href="#DejaVuSans-48"/>
       <use transform="translate(128.203125 38.965625)scale(0.7)" xlink:href="#DejaVuSans-53"/>
      </g>
     </g>
    </g>
    <g id="text_14">
     <!-- $F(x) - F(x*)$ -->
     <g transform="translate(23.580491 212.224)rotate(-90)scale(0.14 -0.14)">
      <defs>
       <path d="M 16.890625 72.90625 
L 58.6875 72.90625 
L 57.078125 64.59375 
L 25.09375 64.59375 
L 20.90625 43.109375 
L 49.8125 43.109375 
L 48.1875 34.8125 
L 19.28125 34.8125 
L 12.5 0 
L 2.6875 0 
z
" id="DejaVuSans-Oblique-70"/>
       <path d="M 31 75.875 
Q 24.46875 64.65625 21.28125 53.65625 
Q 18.109375 42.671875 18.109375 31.390625 
Q 18.109375 20.125 21.3125 9.0625 
Q 24.515625 -2 31 -13.1875 
L 23.1875 -13.1875 
Q 15.875 -1.703125 12.234375 9.375 
Q 8.59375 20.453125 8.59375 31.390625 
Q 8.59375 42.28125 12.203125 53.3125 
Q 15.828125 64.359375 23.1875 75.875 
z
" id="DejaVuSans-40"/>
       <path d="M 60.015625 54.6875 
L 34.90625 27.875 
L 50.296875 0 
L 39.984375 0 
L 28.421875 21.6875 
L 8.296875 0 
L -2.59375 0 
L 24.3125 28.8125 
L 10.015625 54.6875 
L 20.3125 54.6875 
L 30.8125 34.90625 
L 49.125 54.6875 
z
" id="DejaVuSans-Oblique-120"/>
       <path d="M 8.015625 75.875 
L 15.828125 75.875 
Q 23.140625 64.359375 26.78125 53.3125 
Q 30.421875 42.28125 30.421875 31.390625 
Q 30.421875 20.453125 26.78125 9.375 
Q 23.140625 -1.703125 15.828125 -13.1875 
L 8.015625 -13.1875 
Q 14.5 -2 17.703125 9.0625 
Q 20.90625 20.125 20.90625 31.390625 
Q 20.90625 42.671875 17.703125 53.65625 
Q 14.5 64.65625 8.015625 75.875 
z
" id="DejaVuSans-41"/>
       <path d="M 47.015625 60.890625 
L 29.5 51.421875 
L 47.015625 41.890625 
L 44.1875 37.109375 
L 27.78125 47.015625 
L 27.78125 28.609375 
L 22.21875 28.609375 
L 22.21875 47.015625 
L 5.8125 37.109375 
L 2.984375 41.890625 
L 20.515625 51.421875 
L 2.984375 60.890625 
L 5.8125 65.71875 
L 22.21875 55.8125 
L 22.21875 74.21875 
L 27.78125 74.21875 
L 27.78125 55.8125 
L 44.1875 65.71875 
z
" id="DejaVuSans-42"/>
      </defs>
      <use transform="translate(0 0.125)" xlink:href="#DejaVuSans-Oblique-70"/>
      <use transform="translate(57.519531 0.125)" xlink:href="#DejaVuSans-40"/>
      <use transform="translate(96.533203 0.125)" xlink:href="#DejaVuSans-Oblique-120"/>
      <use transform="translate(155.712891 0.125)" xlink:href="#DejaVuSans-41"/>
      <use transform="translate(214.208984 0.125)" xlink:href="#DejaVuSans-8722"/>
      <use transform="translate(317.480469 0.125)" xlink:href="#DejaVuSans-Oblique-70"/>
      <use transform="translate(375 0.125)" xlink:href="#DejaVuSans-40"/>
      <use transform="translate(414.013672 0.125)" xlink:href="#DejaVuSans-Oblique-120"/>
      <use transform="translate(492.675781 0.125)" xlink:href="#DejaVuSans-42"/>
      <use transform="translate(562.158203 0.125)" xlink:href="#DejaVuSans-41"/>
     </g>
    </g>
   </g>
   <g id="LineCollection_1">
    <path clip-path="url(#p9d2977b260)" d="M 60.992054 285.214909 
L 450 285.214909 
" style="fill:none;stroke:#000000;stroke-dasharray:5.55,2.4;stroke-dashoffset:0;stroke-width:1.5;"/>
   </g>
   <g id="line2d_44">
    <path clip-path="url(#p9d2977b260)" d="M 261.786976 281.922498 
L 263.72762 283.140296 
L 264.447024 283.506382 
L 263.436827 283.697235 
L 263.522709 283.506382 
L 262.902397 281.997129 
L 262.741282 281.561362 
L 263.142527 283.320831 
L 263.798934 280.892865 
L 262.05198 279.364342 
L 263.921891 282.964512 
L 260.990264 282.463323 
L 261.940316 283.229954 
L 261.712279 283.229954 
L 262.641236 282.544286 
L 262.760599 283.506382 
L 261.757008 281.922498 
L 262.517944 283.229954 
L 261.601739 283.140296 
L 261.774076 282.793236 
L 263.068047 282.793236 
L 262.151157 283.320831 
L 261.95417 283.506382 
L 263.101773 283.140296 
L 262.696227 282.793236 
L 262.055058 282.964512 
L 260.601635 279.116009 
L 262.163635 282.793236 
L 262.098288 283.506382 
L 261.498863 281.997129 
L 261.96807 283.320831 
L 261.782537 281.632044 
L 262.798669 283.229954 
L 260.369179 278.079415 
L 261.822193 282.793236 
L 261.437678 282.793236 
L 261.380959 277.955336 
L 262.209854 280.704701 
L 261.663011 278.555171 
L 261.96207 274.270336 
L 261.850164 270.617271 
L 260.676299 264.847525 
L 259.338319 259.428444 
L 258.109546 253.491271 
L 257.555378 249.522579 
L 255.786478 243.652761 
L 254.297103 239.266264 
L 253.504463 233.238551 
L 251.947542 226.478818 
L 251.979509 222.454897 
L 249.599468 214.231033 
L 247.855824 211.321831 
L 245.835816 205.326026 
L 243.877991 200.515695 
L 240.59728 195.925935 
L 236.973456 189.658635 
L 233.67 183.635987 
L 232.515224 178.378914 
L 229.424398 173.101612 
L 223.896157 169.030571 
L 213.863929 162.219621 
L 213.827571 157.882118 
L 202.511038 150.769526 
L 198.429116 147.845123 
L 196.347034 143.461941 
L 189.573016 140.095927 
L 183.988999 134.436241 
L 183.849849 133.666677 
L 180.693813 127.508284 
L 170.779051 121.76089 
L 167.326649 120.59333 
L 166.193569 116.989731 
L 161.658585 115.163618 
L 153.755459 103.971614 
L 151.476364 104.068063 
L 135.422886 98.082569 
L 133.747314 97.881856 
L 120.832444 96.587148 
L 112.752317 90.344741 
L 79.37365 79.336483 
L 81.365139 79.346842 
" style="fill:none;stroke:#1f77b4;stroke-linecap:square;stroke-width:3;"/>
   </g>
   <g id="line2d_45">
    <path clip-path="url(#p9d2977b260)" d="M 113.074465 64.149889 
L 110.888087 66.834996 
L 122.31935 68.893509 
L 126.413658 70.486737 
L 133.975726 73.159975 
L 137.948108 76.682549 
L 153.401926 80.434702 
L 164.166474 84.641966 
L 179.792845 89.114336 
L 191.163345 95.245454 
L 206.929448 102.913891 
L 223.626654 113.001616 
L 241.151634 128.156012 
L 256.109165 139.979628 
L 269.487077 152.386918 
L 283.889257 166.236653 
L 297.344511 182.895199 
L 311.506953 202.89776 
L 327.484143 229.17729 
L 344.530378 267.464286 
L 361.976293 284.857201 
L 381.077359 284.857201 
L 408.099452 284.857201 
L 432.317821 284.857201 
" style="fill:none;stroke:#ff7f0e;stroke-linecap:square;stroke-width:3;"/>
   </g>
   <g id="line2d_46">
    <path clip-path="url(#p9d2977b260)" d="M 137.825227 59.922685 
L 138.655397 66.441612 
L 154.780938 73.735193 
L 149.550199 80.767813 
L 158.571151 92.738274 
L 172.970653 123.666801 
L 196.740501 172.560199 
L 212.449386 229.740967 
L 230.337961 284.857201 
L 243.756078 284.857201 
L 244.609335 284.857201 
L 244.558649 284.857201 
L 243.90452 284.857201 
L 243.441821 284.857201 
" style="fill:none;stroke:#2ca02c;stroke-linecap:square;stroke-width:3;"/>
   </g>
   <g id="line2d_47">
    <path clip-path="url(#p9d2977b260)" d="M 289.875886 58.026755 
L 304.414307 58.026755 
L 316.379403 58.026755 
L 338.98526 58.026755 
L 374.387097 79.892279 
L 399.68213 203.361162 
L 399.908355 203.361162 
L 401.816478 203.361162 
" style="fill:none;stroke:#d62728;stroke-linecap:square;stroke-width:3;"/>
   </g>
   <g id="line2d_48">
    <path clip-path="url(#p9d2977b260)" d="M 97.999757 54.953091 
L 95.41391 64.384638 
L 92.060621 68.84977 
L 112.374139 69.453388 
L 101.032603 70.621942 
L 125.895273 72.070017 
L 155.572794 72.437618 
L 177.581965 72.437618 
L 196.217931 77.521017 
L 210.335179 82.464653 
L 225.013787 87.228545 
L 245.917411 96.361108 
L 268.560547 110.023422 
L 293.161736 127.782126 
L 322.296277 156.464657 
L 337.026953 236.087472 
L 367.08987 239.520977 
L 399.71646 243.463786 
L 424.478458 248.189667 
" style="fill:none;stroke:#9467bd;stroke-linecap:square;stroke-width:3;"/>
   </g>
   <g id="line2d_49">
    <path clip-path="url(#p9d2977b260)" d="M 196.914621 54.953091 
L 188.923483 55.009719 
L 191.678492 55.009719 
L 198.067084 55.063376 
L 185.865304 55.063376 
L 194.978459 55.127583 
L 198.801287 55.40188 
L 200.791698 55.813744 
L 208.270077 57.312018 
L 212.385668 59.845688 
L 225.322952 64.272402 
L 238.398413 69.189103 
L 253.67072 74.619392 
L 275.428278 87.338858 
L 296.977886 106.926727 
L 302.705884 222.218562 
L 301.762046 222.218562 
L 299.822834 222.218562 
L 300.023673 222.218562 
L 299.367882 222.218562 
L 298.787988 222.218562 
" style="fill:none;stroke:#8c564b;stroke-linecap:square;stroke-width:3;"/>
   </g>
   <g id="line2d_50">
    <path clip-path="url(#p9d2977b260)" d="M 214.352931 66.482257 
L 212.517753 68.286263 
L 215.44679 68.910568 
L 216.741428 69.375348 
L 217.673047 70.121436 
L 219.733364 70.99013 
L 222.707026 71.880763 
L 230.779088 72.881947 
L 236.276237 73.98293 
L 243.615587 75.224318 
L 252.538477 76.528171 
L 256.313758 77.935559 
L 261.357237 79.511796 
L 268.330977 81.175388 
L 277.262972 82.990672 
L 289.634675 84.985572 
L 300.429599 87.09549 
L 314.958557 89.471823 
L 330.714632 92.534156 
L 349.367911 95.987588 
L 365.210335 100.531528 
L 381.474804 105.021762 
L 394.721886 110.582935 
L 409.391576 117.418182 
" style="fill:none;stroke:#e377c2;stroke-linecap:square;stroke-width:3;"/>
   </g>
   <g id="line2d_51">
    <path clip-path="url(#p9d2977b260)" d="M 180.862361 58.05547 
L 183.093398 68.172282 
L 187.43357 68.597351 
L 190.268208 69.60806 
L 193.946194 71.108197 
L 203.061574 73.063068 
L 216.003159 75.178319 
L 224.454136 77.608806 
L 237.059744 80.726338 
L 249.108621 84.39667 
L 265.518117 89.215284 
L 277.949329 94.966661 
L 291.295263 102.446048 
L 308.824221 109.639841 
L 323.375674 119.384898 
L 340.586697 128.445022 
L 356.899373 143.523209 
L 371.686975 161.792148 
L 383.320441 194.55651 
L 403.64932 249.006591 
" style="fill:none;stroke:#7f7f7f;stroke-linecap:square;stroke-width:3;"/>
   </g>
   <g id="line2d_52">
    <path clip-path="url(#p9d2977b260)" d="M 139.337586 62.30835 
L 159.661462 63.901697 
L 164.715745 65.623897 
L 163.417163 67.035603 
L 169.08027 69.410927 
L 170.307526 72.608199 
L 171.244024 74.449556 
L 173.192586 76.177652 
L 173.181196 77.311884 
L 175.93327 77.398018 
L 182.274069 77.88493 
L 185.318837 78.328327 
L 189.605867 77.659377 
L 195.761226 77.934468 
L 205.344962 77.221471 
L 215.411624 77.338838 
L 225.454416 78.689609 
L 239.986895 78.091271 
L 253.832464 76.915755 
L 265.526423 78.224685 
L 276.660045 78.209799 
L 283.909983 78.586189 
L 298.727166 77.968647 
L 311.033366 78.746487 
L 320.552172 77.627162 
L 334.436462 78.341743 
L 348.551465 79.187325 
L 364.42438 77.330941 
L 381.549008 78.1157 
L 396.874006 78.710759 
L 412.753326 78.697118 
" style="fill:none;stroke:#bcbd22;stroke-linecap:square;stroke-width:3;"/>
   </g>
   <g id="line2d_53">
    <path clip-path="url(#p9d2977b260)" d="M 188.344687 66.482257 
L 191.665827 68.286263 
L 191.903275 68.910568 
L 188.482809 69.375348 
L 191.575579 70.121436 
L 190.249274 70.99013 
L 191.681805 71.880763 
L 193.28217 72.881947 
L 194.532304 73.98293 
L 197.929898 75.224318 
L 202.174368 76.528171 
L 206.640423 77.935559 
L 212.992691 79.511796 
L 220.57824 81.175388 
L 233.1091 82.990672 
L 244.357624 84.985572 
L 257.424079 87.09549 
L 272.337445 89.471823 
L 286.795924 92.534156 
L 306.291599 95.987588 
L 329.941728 100.531528 
L 349.746278 105.021762 
L 368.134435 110.582935 
L 383.868245 117.418182 
L 397.756783 122.90163 
L 430.487247 130.596249 
" style="fill:none;stroke:#17becf;stroke-linecap:square;stroke-width:3;"/>
   </g>
   <g id="line2d_54">
    <path clip-path="url(#p9d2977b260)" d="M 221.668099 66.482257 
L 222.365311 68.286263 
L 221.671487 69.055268 
L 221.828494 69.711894 
L 223.75958 70.928017 
L 225.610423 72.520813 
L 224.338149 74.259032 
L 224.772103 76.341125 
L 227.673742 78.868279 
L 230.107977 81.983892 
L 234.008479 85.693293 
L 240.381031 90.088724 
L 246.470112 96.465182 
L 254.960769 104.694626 
L 264.39227 115.969043 
L 275.817591 126.605173 
L 290.38732 139.352102 
L 304.980068 150.148669 
L 318.656126 167.762467 
L 334.949564 176.10223 
L 348.902795 175.476511 
L 365.353728 186.337838 
L 382.209027 196.411281 
L 400.433666 207.012133 
" style="fill:none;stroke:#1f77b4;stroke-linecap:square;stroke-width:3;"/>
   </g>
   <g id="line2d_55">
    <path clip-path="url(#p9d2977b260)" d="M 242.522334 66.482257 
L 247.613169 68.286263 
L 258.918008 68.910568 
L 267.033984 69.375348 
L 280.833619 70.121436 
L 294.607954 70.99013 
L 306.958782 71.880763 
L 322.820913 72.881947 
L 338.350259 73.98293 
L 355.527988 75.224318 
L 369.623229 76.528171 
L 386.738776 77.935559 
L 405.918802 79.511796 
" style="fill:none;stroke:#ff7f0e;stroke-linecap:square;stroke-width:3;"/>
   </g>
   <g id="line2d_56">
    <path clip-path="url(#p9d2977b260)" d="M 141.771341 64.149889 
L 142.587305 66.834996 
L 150.168412 68.893509 
L 149.216138 70.486737 
L 157.309694 73.159975 
L 159.600811 76.682549 
L 168.582263 80.434702 
L 177.644177 84.641966 
L 182.730303 89.114336 
L 198.826428 95.245454 
L 210.376503 102.913891 
L 224.077392 113.001616 
L 240.00463 128.156012 
L 255.755982 139.979628 
L 266.647311 152.386918 
L 279.558258 166.236653 
L 293.813845 182.895199 
L 307.519082 202.897761 
L 322.960437 229.177373 
L 339.324991 267.472812 
L 351.702809 284.857201 
L 365.879881 285.211943 
L 385.226105 284.743021 
L 396.273183 284.857201 
L 413.69074 285.211943 
" style="fill:none;stroke:#2ca02c;stroke-linecap:square;stroke-width:3;"/>
   </g>
   <g id="line2d_57">
    <path clip-path="url(#p9d2977b260)" d="M 372.6416 64.149889 
L 408.497874 66.834996 
L 406.987155 68.94633 
L 406.636396 70.309905 
" style="fill:none;stroke:#d62728;stroke-linecap:square;stroke-width:3;"/>
   </g>
   <g id="patch_3">
    <path d="M 60.992054 296.728 
L 60.992054 43.44 
" style="fill:none;stroke:#000000;stroke-linecap:square;stroke-linejoin:miter;stroke-width:0.8;"/>
   </g>
   <g id="patch_4">
    <path d="M 450 296.728 
L 450 43.44 
" style="fill:none;stroke:#000000;stroke-linecap:square;stroke-linejoin:miter;stroke-width:0.8;"/>
   </g>
   <g id="patch_5">
    <path d="M 60.992054 296.728 
L 450 296.728 
" style="fill:none;stroke:#000000;stroke-linecap:square;stroke-linejoin:miter;stroke-width:0.8;"/>
   </g>
   <g id="patch_6">
    <path d="M 60.992054 43.44 
L 450 43.44 
" style="fill:none;stroke:#000000;stroke-linecap:square;stroke-linejoin:miter;stroke-width:0.8;"/>
   </g>
   <g id="text_15">
    <!-- Lasso Regression[reg=0.05] -->
    <g transform="translate(156.835402 21.763062)scale(0.14 -0.14)">
     <defs>
      <path d="M 9.8125 72.90625 
L 19.671875 72.90625 
L 19.671875 8.296875 
L 55.171875 8.296875 
L 55.171875 0 
L 9.8125 0 
z
" id="DejaVuSans-76"/>
      <path d="M 34.28125 27.484375 
Q 23.390625 27.484375 19.1875 25 
Q 14.984375 22.515625 14.984375 16.5 
Q 14.984375 11.71875 18.140625 8.90625 
Q 21.296875 6.109375 26.703125 6.109375 
Q 34.1875 6.109375 38.703125 11.40625 
Q 43.21875 16.703125 43.21875 25.484375 
L 43.21875 27.484375 
z
M 52.203125 31.203125 
L 52.203125 0 
L 43.21875 0 
L 43.21875 8.296875 
Q 40.140625 3.328125 35.546875 0.953125 
Q 30.953125 -1.421875 24.3125 -1.421875 
Q 15.921875 -1.421875 10.953125 3.296875 
Q 6 8.015625 6 15.921875 
Q 6 25.140625 12.171875 29.828125 
Q 18.359375 34.515625 30.609375 34.515625 
L 43.21875 34.515625 
L 43.21875 35.40625 
Q 43.21875 41.609375 39.140625 45 
Q 35.0625 48.390625 27.6875 48.390625 
Q 23 48.390625 18.546875 47.265625 
Q 14.109375 46.140625 10.015625 43.890625 
L 10.015625 52.203125 
Q 14.9375 54.109375 19.578125 55.046875 
Q 24.21875 56 28.609375 56 
Q 40.484375 56 46.34375 49.84375 
Q 52.203125 43.703125 52.203125 31.203125 
z
" id="DejaVuSans-97"/>
      <path d="M 30.609375 48.390625 
Q 23.390625 48.390625 19.1875 42.75 
Q 14.984375 37.109375 14.984375 27.296875 
Q 14.984375 17.484375 19.15625 11.84375 
Q 23.34375 6.203125 30.609375 6.203125 
Q 37.796875 6.203125 41.984375 11.859375 
Q 46.1875 17.53125 46.1875 27.296875 
Q 46.1875 37.015625 41.984375 42.703125 
Q 37.796875 48.390625 30.609375 48.390625 
z
M 30.609375 56 
Q 42.328125 56 49.015625 48.375 
Q 55.71875 40.765625 55.71875 27.296875 
Q 55.71875 13.875 49.015625 6.21875 
Q 42.328125 -1.421875 30.609375 -1.421875 
Q 18.84375 -1.421875 12.171875 6.21875 
Q 5.515625 13.875 5.515625 27.296875 
Q 5.515625 40.765625 12.171875 48.375 
Q 18.84375 56 30.609375 56 
z
" id="DejaVuSans-111"/>
      <path d="M 44.390625 34.1875 
Q 47.5625 33.109375 50.5625 29.59375 
Q 53.5625 26.078125 56.59375 19.921875 
L 66.609375 0 
L 56 0 
L 46.6875 18.703125 
Q 43.0625 26.03125 39.671875 28.421875 
Q 36.28125 30.8125 30.421875 30.8125 
L 19.671875 30.8125 
L 19.671875 0 
L 9.8125 0 
L 9.8125 72.90625 
L 32.078125 72.90625 
Q 44.578125 72.90625 50.734375 67.671875 
Q 56.890625 62.453125 56.890625 51.90625 
Q 56.890625 45.015625 53.6875 40.46875 
Q 50.484375 35.9375 44.390625 34.1875 
z
M 19.671875 64.796875 
L 19.671875 38.921875 
L 32.078125 38.921875 
Q 39.203125 38.921875 42.84375 42.21875 
Q 46.484375 45.515625 46.484375 51.90625 
Q 46.484375 58.296875 42.84375 61.546875 
Q 39.203125 64.796875 32.078125 64.796875 
z
" id="DejaVuSans-82"/>
      <path d="M 45.40625 27.984375 
Q 45.40625 37.75 41.375 43.109375 
Q 37.359375 48.484375 30.078125 48.484375 
Q 22.859375 48.484375 18.828125 43.109375 
Q 14.796875 37.75 14.796875 27.984375 
Q 14.796875 18.265625 18.828125 12.890625 
Q 22.859375 7.515625 30.078125 7.515625 
Q 37.359375 7.515625 41.375 12.890625 
Q 45.40625 18.265625 45.40625 27.984375 
z
M 54.390625 6.78125 
Q 54.390625 -7.171875 48.1875 -13.984375 
Q 42 -20.796875 29.203125 -20.796875 
Q 24.46875 -20.796875 20.265625 -20.09375 
Q 16.0625 -19.390625 12.109375 -17.921875 
L 12.109375 -9.1875 
Q 16.0625 -11.328125 19.921875 -12.34375 
Q 23.78125 -13.375 27.78125 -13.375 
Q 36.625 -13.375 41.015625 -8.765625 
Q 45.40625 -4.15625 45.40625 5.171875 
L 45.40625 9.625 
Q 42.625 4.78125 38.28125 2.390625 
Q 33.9375 0 27.875 0 
Q 17.828125 0 11.671875 7.65625 
Q 5.515625 15.328125 5.515625 27.984375 
Q 5.515625 40.671875 11.671875 48.328125 
Q 17.828125 56 27.875 56 
Q 33.9375 56 38.28125 53.609375 
Q 42.625 51.21875 45.40625 46.390625 
L 45.40625 54.6875 
L 54.390625 54.6875 
z
" id="DejaVuSans-103"/>
      <path d="M 41.109375 46.296875 
Q 39.59375 47.171875 37.8125 47.578125 
Q 36.03125 48 33.890625 48 
Q 26.265625 48 22.1875 43.046875 
Q 18.109375 38.09375 18.109375 28.8125 
L 18.109375 0 
L 9.078125 0 
L 9.078125 54.6875 
L 18.109375 54.6875 
L 18.109375 46.1875 
Q 20.953125 51.171875 25.484375 53.578125 
Q 30.03125 56 36.53125 56 
Q 37.453125 56 38.578125 55.875 
Q 39.703125 55.765625 41.0625 55.515625 
z
" id="DejaVuSans-114"/>
      <path d="M 54.890625 33.015625 
L 54.890625 0 
L 45.90625 0 
L 45.90625 32.71875 
Q 45.90625 40.484375 42.875 44.328125 
Q 39.84375 48.1875 33.796875 48.1875 
Q 26.515625 48.1875 22.3125 43.546875 
Q 18.109375 38.921875 18.109375 30.90625 
L 18.109375 0 
L 9.078125 0 
L 9.078125 54.6875 
L 18.109375 54.6875 
L 18.109375 46.1875 
Q 21.34375 51.125 25.703125 53.5625 
Q 30.078125 56 35.796875 56 
Q 45.21875 56 50.046875 50.171875 
Q 54.890625 44.34375 54.890625 33.015625 
z
" id="DejaVuSans-110"/>
      <path d="M 10.59375 45.40625 
L 73.1875 45.40625 
L 73.1875 37.203125 
L 10.59375 37.203125 
z
M 10.59375 25.484375 
L 73.1875 25.484375 
L 73.1875 17.1875 
L 10.59375 17.1875 
z
" id="DejaVuSans-61"/>
      <path d="M 10.6875 12.40625 
L 21 12.40625 
L 21 0 
L 10.6875 0 
z
" id="DejaVuSans-46"/>
     </defs>
     <use xlink:href="#DejaVuSans-76"/>
     <use x="55.712891" xlink:href="#DejaVuSans-97"/>
     <use x="116.992188" xlink:href="#DejaVuSans-115"/>
     <use x="169.091797" xlink:href="#DejaVuSans-115"/>
     <use x="221.191406" xlink:href="#DejaVuSans-111"/>
     <use x="282.373047" xlink:href="#DejaVuSans-32"/>
     <use x="314.160156" xlink:href="#DejaVuSans-82"/>
     <use x="379.142578" xlink:href="#DejaVuSans-101"/>
     <use x="440.666016" xlink:href="#DejaVuSans-103"/>
     <use x="504.142578" xlink:href="#DejaVuSans-114"/>
     <use x="543.005859" xlink:href="#DejaVuSans-101"/>
     <use x="604.529297" xlink:href="#DejaVuSans-115"/>
     <use x="656.628906" xlink:href="#DejaVuSans-115"/>
     <use x="708.728516" xlink:href="#DejaVuSans-105"/>
     <use x="736.511719" xlink:href="#DejaVuSans-111"/>
     <use x="797.693359" xlink:href="#DejaVuSans-110"/>
     <use x="861.072266" xlink:href="#DejaVuSans-91"/>
     <use x="900.085938" xlink:href="#DejaVuSans-114"/>
     <use x="938.949219" xlink:href="#DejaVuSans-101"/>
     <use x="1000.472656" xlink:href="#DejaVuSans-103"/>
     <use x="1063.949219" xlink:href="#DejaVuSans-61"/>
     <use x="1147.738281" xlink:href="#DejaVuSans-48"/>
     <use x="1211.361328" xlink:href="#DejaVuSans-46"/>
     <use x="1243.148438" xlink:href="#DejaVuSans-48"/>
     <use x="1306.771484" xlink:href="#DejaVuSans-53"/>
     <use x="1370.394531" xlink:href="#DejaVuSans-93"/>
    </g>
    <!-- Data: Simulated[n_samples=100,n_features=10000,rho=0] -->
    <g transform="translate(45.874464 37.44)scale(0.14 -0.14)">
     <defs>
      <path d="M 19.671875 64.796875 
L 19.671875 8.109375 
L 31.59375 8.109375 
Q 46.6875 8.109375 53.6875 14.9375 
Q 60.6875 21.78125 60.6875 36.53125 
Q 60.6875 51.171875 53.6875 57.984375 
Q 46.6875 64.796875 31.59375 64.796875 
z
M 9.8125 72.90625 
L 30.078125 72.90625 
Q 51.265625 72.90625 61.171875 64.09375 
Q 71.09375 55.28125 71.09375 36.53125 
Q 71.09375 17.671875 61.125 8.828125 
Q 51.171875 0 30.078125 0 
L 9.8125 0 
z
" id="DejaVuSans-68"/>
      <path d="M 18.3125 70.21875 
L 18.3125 54.6875 
L 36.8125 54.6875 
L 36.8125 47.703125 
L 18.3125 47.703125 
L 18.3125 18.015625 
Q 18.3125 11.328125 20.140625 9.421875 
Q 21.96875 7.515625 27.59375 7.515625 
L 36.8125 7.515625 
L 36.8125 0 
L 27.59375 0 
Q 17.1875 0 13.234375 3.875 
Q 9.28125 7.765625 9.28125 18.015625 
L 9.28125 47.703125 
L 2.6875 47.703125 
L 2.6875 54.6875 
L 9.28125 54.6875 
L 9.28125 70.21875 
z
" id="DejaVuSans-116"/>
      <path d="M 11.71875 12.40625 
L 22.015625 12.40625 
L 22.015625 0 
L 11.71875 0 
z
M 11.71875 51.703125 
L 22.015625 51.703125 
L 22.015625 39.3125 
L 11.71875 39.3125 
z
" id="DejaVuSans-58"/>
      <path d="M 53.515625 70.515625 
L 53.515625 60.890625 
Q 47.90625 63.578125 42.921875 64.890625 
Q 37.9375 66.21875 33.296875 66.21875 
Q 25.25 66.21875 20.875 63.09375 
Q 16.5 59.96875 16.5 54.203125 
Q 16.5 49.359375 19.40625 46.890625 
Q 22.3125 44.4375 30.421875 42.921875 
L 36.375 41.703125 
Q 47.40625 39.59375 52.65625 34.296875 
Q 57.90625 29 57.90625 20.125 
Q 57.90625 9.515625 50.796875 4.046875 
Q 43.703125 -1.421875 29.984375 -1.421875 
Q 24.8125 -1.421875 18.96875 -0.25 
Q 13.140625 0.921875 6.890625 3.21875 
L 6.890625 13.375 
Q 12.890625 10.015625 18.65625 8.296875 
Q 24.421875 6.59375 29.984375 6.59375 
Q 38.421875 6.59375 43.015625 9.90625 
Q 47.609375 13.234375 47.609375 19.390625 
Q 47.609375 24.75 44.3125 27.78125 
Q 41.015625 30.8125 33.5 32.328125 
L 27.484375 33.5 
Q 16.453125 35.6875 11.515625 40.375 
Q 6.59375 45.0625 6.59375 53.421875 
Q 6.59375 63.09375 13.40625 68.65625 
Q 20.21875 74.21875 32.171875 74.21875 
Q 37.3125 74.21875 42.625 73.28125 
Q 47.953125 72.359375 53.515625 70.515625 
z
" id="DejaVuSans-83"/>
      <path d="M 8.5 21.578125 
L 8.5 54.6875 
L 17.484375 54.6875 
L 17.484375 21.921875 
Q 17.484375 14.15625 20.5 10.265625 
Q 23.53125 6.390625 29.59375 6.390625 
Q 36.859375 6.390625 41.078125 11.03125 
Q 45.3125 15.671875 45.3125 23.6875 
L 45.3125 54.6875 
L 54.296875 54.6875 
L 54.296875 0 
L 45.3125 0 
L 45.3125 8.40625 
Q 42.046875 3.421875 37.71875 1 
Q 33.40625 -1.421875 27.6875 -1.421875 
Q 18.265625 -1.421875 13.375 4.4375 
Q 8.5 10.296875 8.5 21.578125 
z
M 31.109375 56 
z
" id="DejaVuSans-117"/>
      <path d="M 9.421875 75.984375 
L 18.40625 75.984375 
L 18.40625 0 
L 9.421875 0 
z
" id="DejaVuSans-108"/>
      <path d="M 45.40625 46.390625 
L 45.40625 75.984375 
L 54.390625 75.984375 
L 54.390625 0 
L 45.40625 0 
L 45.40625 8.203125 
Q 42.578125 3.328125 38.25 0.953125 
Q 33.9375 -1.421875 27.875 -1.421875 
Q 17.96875 -1.421875 11.734375 6.484375 
Q 5.515625 14.40625 5.515625 27.296875 
Q 5.515625 40.1875 11.734375 48.09375 
Q 17.96875 56 27.875 56 
Q 33.9375 56 38.25 53.625 
Q 42.578125 51.265625 45.40625 46.390625 
z
M 14.796875 27.296875 
Q 14.796875 17.390625 18.875 11.75 
Q 22.953125 6.109375 30.078125 6.109375 
Q 37.203125 6.109375 41.296875 11.75 
Q 45.40625 17.390625 45.40625 27.296875 
Q 45.40625 37.203125 41.296875 42.84375 
Q 37.203125 48.484375 30.078125 48.484375 
Q 22.953125 48.484375 18.875 42.84375 
Q 14.796875 37.203125 14.796875 27.296875 
z
" id="DejaVuSans-100"/>
      <path d="M 50.984375 -16.609375 
L 50.984375 -23.578125 
L -0.984375 -23.578125 
L -0.984375 -16.609375 
z
" id="DejaVuSans-95"/>
      <path d="M 18.109375 8.203125 
L 18.109375 -20.796875 
L 9.078125 -20.796875 
L 9.078125 54.6875 
L 18.109375 54.6875 
L 18.109375 46.390625 
Q 20.953125 51.265625 25.265625 53.625 
Q 29.59375 56 35.59375 56 
Q 45.5625 56 51.78125 48.09375 
Q 58.015625 40.1875 58.015625 27.296875 
Q 58.015625 14.40625 51.78125 6.484375 
Q 45.5625 -1.421875 35.59375 -1.421875 
Q 29.59375 -1.421875 25.265625 0.953125 
Q 20.953125 3.328125 18.109375 8.203125 
z
M 48.6875 27.296875 
Q 48.6875 37.203125 44.609375 42.84375 
Q 40.53125 48.484375 33.40625 48.484375 
Q 26.265625 48.484375 22.1875 42.84375 
Q 18.109375 37.203125 18.109375 27.296875 
Q 18.109375 17.390625 22.1875 11.75 
Q 26.265625 6.109375 33.40625 6.109375 
Q 40.53125 6.109375 44.609375 11.75 
Q 48.6875 17.390625 48.6875 27.296875 
z
" id="DejaVuSans-112"/>
      <path d="M 11.71875 12.40625 
L 22.015625 12.40625 
L 22.015625 4 
L 14.015625 -11.625 
L 7.71875 -11.625 
L 11.71875 4 
z
" id="DejaVuSans-44"/>
      <path d="M 37.109375 75.984375 
L 37.109375 68.5 
L 28.515625 68.5 
Q 23.6875 68.5 21.796875 66.546875 
Q 19.921875 64.59375 19.921875 59.515625 
L 19.921875 54.6875 
L 34.71875 54.6875 
L 34.71875 47.703125 
L 19.921875 47.703125 
L 19.921875 0 
L 10.890625 0 
L 10.890625 47.703125 
L 2.296875 47.703125 
L 2.296875 54.6875 
L 10.890625 54.6875 
L 10.890625 58.5 
Q 10.890625 67.625 15.140625 71.796875 
Q 19.390625 75.984375 28.609375 75.984375 
z
" id="DejaVuSans-102"/>
      <path d="M 54.890625 33.015625 
L 54.890625 0 
L 45.90625 0 
L 45.90625 32.71875 
Q 45.90625 40.484375 42.875 44.328125 
Q 39.84375 48.1875 33.796875 48.1875 
Q 26.515625 48.1875 22.3125 43.546875 
Q 18.109375 38.921875 18.109375 30.90625 
L 18.109375 0 
L 9.078125 0 
L 9.078125 75.984375 
L 18.109375 75.984375 
L 18.109375 46.1875 
Q 21.34375 51.125 25.703125 53.5625 
Q 30.078125 56 35.796875 56 
Q 45.21875 56 50.046875 50.171875 
Q 54.890625 44.34375 54.890625 33.015625 
z
" id="DejaVuSans-104"/>
     </defs>
     <use xlink:href="#DejaVuSans-68"/>
     <use x="77.001953" xlink:href="#DejaVuSans-97"/>
     <use x="138.28125" xlink:href="#DejaVuSans-116"/>
     <use x="177.490234" xlink:href="#DejaVuSans-97"/>
     <use x="238.769531" xlink:href="#DejaVuSans-58"/>
     <use x="272.460938" xlink:href="#DejaVuSans-32"/>
     <use x="304.248047" xlink:href="#DejaVuSans-83"/>
     <use x="367.724609" xlink:href="#DejaVuSans-105"/>
     <use x="395.507812" xlink:href="#DejaVuSans-109"/>
     <use x="492.919922" xlink:href="#DejaVuSans-117"/>
     <use x="556.298828" xlink:href="#DejaVuSans-108"/>
     <use x="584.082031" xlink:href="#DejaVuSans-97"/>
     <use x="645.361328" xlink:href="#DejaVuSans-116"/>
     <use x="684.570312" xlink:href="#DejaVuSans-101"/>
     <use x="746.09375" xlink:href="#DejaVuSans-100"/>
     <use x="809.570312" xlink:href="#DejaVuSans-91"/>
     <use x="848.583984" xlink:href="#DejaVuSans-110"/>
     <use x="911.962891" xlink:href="#DejaVuSans-95"/>
     <use x="961.962891" xlink:href="#DejaVuSans-115"/>
     <use x="1014.0625" xlink:href="#DejaVuSans-97"/>
     <use x="1075.341797" xlink:href="#DejaVuSans-109"/>
     <use x="1172.753906" xlink:href="#DejaVuSans-112"/>
     <use x="1236.230469" xlink:href="#DejaVuSans-108"/>
     <use x="1264.013672" xlink:href="#DejaVuSans-101"/>
     <use x="1325.537109" xlink:href="#DejaVuSans-115"/>
     <use x="1377.636719" xlink:href="#DejaVuSans-61"/>
     <use x="1461.425781" xlink:href="#DejaVuSans-49"/>
     <use x="1525.048828" xlink:href="#DejaVuSans-48"/>
     <use x="1588.671875" xlink:href="#DejaVuSans-48"/>
     <use x="1652.294922" xlink:href="#DejaVuSans-44"/>
     <use x="1684.082031" xlink:href="#DejaVuSans-110"/>
     <use x="1747.460938" xlink:href="#DejaVuSans-95"/>
     <use x="1797.460938" xlink:href="#DejaVuSans-102"/>
     <use x="1832.666016" xlink:href="#DejaVuSans-101"/>
     <use x="1894.189453" xlink:href="#DejaVuSans-97"/>
     <use x="1955.46875" xlink:href="#DejaVuSans-116"/>
     <use x="1994.677734" xlink:href="#DejaVuSans-117"/>
     <use x="2058.056641" xlink:href="#DejaVuSans-114"/>
     <use x="2096.919922" xlink:href="#DejaVuSans-101"/>
     <use x="2158.443359" xlink:href="#DejaVuSans-115"/>
     <use x="2210.542969" xlink:href="#DejaVuSans-61"/>
     <use x="2294.332031" xlink:href="#DejaVuSans-49"/>
     <use x="2357.955078" xlink:href="#DejaVuSans-48"/>
     <use x="2421.578125" xlink:href="#DejaVuSans-48"/>
     <use x="2485.201172" xlink:href="#DejaVuSans-48"/>
     <use x="2548.824219" xlink:href="#DejaVuSans-48"/>
     <use x="2612.447266" xlink:href="#DejaVuSans-44"/>
     <use x="2644.234375" xlink:href="#DejaVuSans-114"/>
     <use x="2683.597656" xlink:href="#DejaVuSans-104"/>
     <use x="2746.976562" xlink:href="#DejaVuSans-111"/>
     <use x="2808.158203" xlink:href="#DejaVuSans-61"/>
     <use x="2891.947266" xlink:href="#DejaVuSans-48"/>
     <use x="2955.570312" xlink:href="#DejaVuSans-93"/>
    </g>
   </g>
   <g id="legend_1">
    <g id="patch_7">
     <path d="M 70.792054 343.11 
L 375.071116 343.11 
Q 377.871116 343.11 377.871116 340.31 
L 377.871116 53.24 
Q 377.871116 50.44 375.071116 50.44 
L 70.792054 50.44 
Q 67.992054 50.44 67.992054 53.24 
L 67.992054 340.31 
Q 67.992054 343.11 70.792054 343.11 
z
" style="fill:#ffffff;opacity:0.8;stroke:#cccccc;stroke-linejoin:miter;"/>
    </g>
    <g id="line2d_58">
     <path d="M 73.592054 61.777812 
L 101.592054 61.777812 
" style="fill:none;stroke:#1f77b4;stroke-linecap:square;stroke-width:3;"/>
    </g>
    <g id="line2d_59"/>
    <g id="text_16">
     <!-- Blitz -->
     <g transform="translate(112.792054 66.677812)scale(0.14 -0.14)">
      <defs>
       <path d="M 19.671875 34.8125 
L 19.671875 8.109375 
L 35.5 8.109375 
Q 43.453125 8.109375 47.28125 11.40625 
Q 51.125 14.703125 51.125 21.484375 
Q 51.125 28.328125 47.28125 31.5625 
Q 43.453125 34.8125 35.5 34.8125 
z
M 19.671875 64.796875 
L 19.671875 42.828125 
L 34.28125 42.828125 
Q 41.5 42.828125 45.03125 45.53125 
Q 48.578125 48.25 48.578125 53.8125 
Q 48.578125 59.328125 45.03125 62.0625 
Q 41.5 64.796875 34.28125 64.796875 
z
M 9.8125 72.90625 
L 35.015625 72.90625 
Q 46.296875 72.90625 52.390625 68.21875 
Q 58.5 63.53125 58.5 54.890625 
Q 58.5 48.1875 55.375 44.234375 
Q 52.25 40.28125 46.1875 39.3125 
Q 53.46875 37.75 57.5 32.78125 
Q 61.53125 27.828125 61.53125 20.40625 
Q 61.53125 10.640625 54.890625 5.3125 
Q 48.25 0 35.984375 0 
L 9.8125 0 
z
" id="DejaVuSans-66"/>
       <path d="M 5.515625 54.6875 
L 48.1875 54.6875 
L 48.1875 46.484375 
L 14.40625 7.171875 
L 48.1875 7.171875 
L 48.1875 0 
L 4.296875 0 
L 4.296875 8.203125 
L 38.09375 47.515625 
L 5.515625 47.515625 
z
" id="DejaVuSans-122"/>
      </defs>
      <use xlink:href="#DejaVuSans-66"/>
      <use x="68.603516" xlink:href="#DejaVuSans-108"/>
      <use x="96.386719" xlink:href="#DejaVuSans-105"/>
      <use x="124.169922" xlink:href="#DejaVuSans-116"/>
      <use x="163.378906" xlink:href="#DejaVuSans-122"/>
     </g>
    </g>
    <g id="line2d_60">
     <path d="M 73.592054 82.327187 
L 101.592054 82.327187 
" style="fill:none;stroke:#ff7f0e;stroke-linecap:square;stroke-width:3;"/>
    </g>
    <g id="line2d_61"/>
    <g id="text_17">
     <!-- cd -->
     <g transform="translate(112.792054 87.227187)scale(0.14 -0.14)">
      <use xlink:href="#DejaVuSans-99"/>
      <use x="54.980469" xlink:href="#DejaVuSans-100"/>
     </g>
    </g>
    <g id="line2d_62">
     <path d="M 73.592054 102.876562 
L 101.592054 102.876562 
" style="fill:none;stroke:#2ca02c;stroke-linecap:square;stroke-width:3;"/>
    </g>
    <g id="line2d_63"/>
    <g id="text_18">
     <!-- Celer -->
     <g transform="translate(112.792054 107.776562)scale(0.14 -0.14)">
      <defs>
       <path d="M 64.40625 67.28125 
L 64.40625 56.890625 
Q 59.421875 61.53125 53.78125 63.8125 
Q 48.140625 66.109375 41.796875 66.109375 
Q 29.296875 66.109375 22.65625 58.46875 
Q 16.015625 50.828125 16.015625 36.375 
Q 16.015625 21.96875 22.65625 14.328125 
Q 29.296875 6.6875 41.796875 6.6875 
Q 48.140625 6.6875 53.78125 8.984375 
Q 59.421875 11.28125 64.40625 15.921875 
L 64.40625 5.609375 
Q 59.234375 2.09375 53.4375 0.328125 
Q 47.65625 -1.421875 41.21875 -1.421875 
Q 24.65625 -1.421875 15.125 8.703125 
Q 5.609375 18.84375 5.609375 36.375 
Q 5.609375 53.953125 15.125 64.078125 
Q 24.65625 74.21875 41.21875 74.21875 
Q 47.75 74.21875 53.53125 72.484375 
Q 59.328125 70.75 64.40625 67.28125 
z
" id="DejaVuSans-67"/>
      </defs>
      <use xlink:href="#DejaVuSans-67"/>
      <use x="69.824219" xlink:href="#DejaVuSans-101"/>
      <use x="131.347656" xlink:href="#DejaVuSans-108"/>
      <use x="159.130859" xlink:href="#DejaVuSans-101"/>
      <use x="220.654297" xlink:href="#DejaVuSans-114"/>
     </g>
    </g>
    <g id="line2d_64">
     <path d="M 73.592054 123.425937 
L 101.592054 123.425937 
" style="fill:none;stroke:#d62728;stroke-linecap:square;stroke-width:3;"/>
    </g>
    <g id="line2d_65"/>
    <g id="text_19">
     <!-- cvxpy -->
     <g transform="translate(112.792054 128.325937)scale(0.14 -0.14)">
      <defs>
       <path d="M 2.984375 54.6875 
L 12.5 54.6875 
L 29.59375 8.796875 
L 46.6875 54.6875 
L 56.203125 54.6875 
L 35.6875 0 
L 23.484375 0 
z
" id="DejaVuSans-118"/>
       <path d="M 54.890625 54.6875 
L 35.109375 28.078125 
L 55.90625 0 
L 45.3125 0 
L 29.390625 21.484375 
L 13.484375 0 
L 2.875 0 
L 24.125 28.609375 
L 4.6875 54.6875 
L 15.28125 54.6875 
L 29.78125 35.203125 
L 44.28125 54.6875 
z
" id="DejaVuSans-120"/>
       <path d="M 32.171875 -5.078125 
Q 28.375 -14.84375 24.75 -17.8125 
Q 21.140625 -20.796875 15.09375 -20.796875 
L 7.90625 -20.796875 
L 7.90625 -13.28125 
L 13.1875 -13.28125 
Q 16.890625 -13.28125 18.9375 -11.515625 
Q 21 -9.765625 23.484375 -3.21875 
L 25.09375 0.875 
L 2.984375 54.6875 
L 12.5 54.6875 
L 29.59375 11.921875 
L 46.6875 54.6875 
L 56.203125 54.6875 
z
" id="DejaVuSans-121"/>
      </defs>
      <use xlink:href="#DejaVuSans-99"/>
      <use x="54.980469" xlink:href="#DejaVuSans-118"/>
      <use x="114.160156" xlink:href="#DejaVuSans-120"/>
      <use x="173.339844" xlink:href="#DejaVuSans-112"/>
      <use x="236.816406" xlink:href="#DejaVuSans-121"/>
     </g>
    </g>
    <g id="line2d_66">
     <path d="M 73.592054 143.975312 
L 101.592054 143.975312 
" style="fill:none;stroke:#9467bd;stroke-linecap:square;stroke-width:3;"/>
    </g>
    <g id="line2d_67"/>
    <g id="text_20">
     <!-- Cyanure -->
     <g transform="translate(112.792054 148.875312)scale(0.14 -0.14)">
      <use xlink:href="#DejaVuSans-67"/>
      <use x="69.824219" xlink:href="#DejaVuSans-121"/>
      <use x="129.003906" xlink:href="#DejaVuSans-97"/>
      <use x="190.283203" xlink:href="#DejaVuSans-110"/>
      <use x="253.662109" xlink:href="#DejaVuSans-117"/>
      <use x="317.041016" xlink:href="#DejaVuSans-114"/>
      <use x="355.904297" xlink:href="#DejaVuSans-101"/>
     </g>
    </g>
    <g id="line2d_68">
     <path d="M 73.592054 164.524687 
L 101.592054 164.524687 
" style="fill:none;stroke:#8c564b;stroke-linecap:square;stroke-width:3;"/>
    </g>
    <g id="line2d_69"/>
    <g id="text_21">
     <!-- glmnet -->
     <g transform="translate(112.792054 169.424687)scale(0.14 -0.14)">
      <use xlink:href="#DejaVuSans-103"/>
      <use x="63.476562" xlink:href="#DejaVuSans-108"/>
      <use x="91.259766" xlink:href="#DejaVuSans-109"/>
      <use x="188.671875" xlink:href="#DejaVuSans-110"/>
      <use x="252.050781" xlink:href="#DejaVuSans-101"/>
      <use x="313.574219" xlink:href="#DejaVuSans-116"/>
     </g>
    </g>
    <g id="line2d_70">
     <path d="M 73.592054 185.074062 
L 101.592054 185.074062 
" style="fill:none;stroke:#e377c2;stroke-linecap:square;stroke-width:3;"/>
    </g>
    <g id="line2d_71"/>
    <g id="text_22">
     <!-- Julia-PGD -->
     <g transform="translate(112.792054 189.974062)scale(0.14 -0.14)">
      <defs>
       <path d="M 9.8125 72.90625 
L 19.671875 72.90625 
L 19.671875 5.078125 
Q 19.671875 -8.109375 14.671875 -14.0625 
Q 9.671875 -20.015625 -1.421875 -20.015625 
L -5.171875 -20.015625 
L -5.171875 -11.71875 
L -2.09375 -11.71875 
Q 4.4375 -11.71875 7.125 -8.046875 
Q 9.8125 -4.390625 9.8125 5.078125 
z
" id="DejaVuSans-74"/>
       <path d="M 4.890625 31.390625 
L 31.203125 31.390625 
L 31.203125 23.390625 
L 4.890625 23.390625 
z
" id="DejaVuSans-45"/>
       <path d="M 19.671875 64.796875 
L 19.671875 37.40625 
L 32.078125 37.40625 
Q 38.96875 37.40625 42.71875 40.96875 
Q 46.484375 44.53125 46.484375 51.125 
Q 46.484375 57.671875 42.71875 61.234375 
Q 38.96875 64.796875 32.078125 64.796875 
z
M 9.8125 72.90625 
L 32.078125 72.90625 
Q 44.34375 72.90625 50.609375 67.359375 
Q 56.890625 61.8125 56.890625 51.125 
Q 56.890625 40.328125 50.609375 34.8125 
Q 44.34375 29.296875 32.078125 29.296875 
L 19.671875 29.296875 
L 19.671875 0 
L 9.8125 0 
z
" id="DejaVuSans-80"/>
       <path d="M 59.515625 10.40625 
L 59.515625 29.984375 
L 43.40625 29.984375 
L 43.40625 38.09375 
L 69.28125 38.09375 
L 69.28125 6.78125 
Q 63.578125 2.734375 56.6875 0.65625 
Q 49.8125 -1.421875 42 -1.421875 
Q 24.90625 -1.421875 15.25 8.5625 
Q 5.609375 18.5625 5.609375 36.375 
Q 5.609375 54.25 15.25 64.234375 
Q 24.90625 74.21875 42 74.21875 
Q 49.125 74.21875 55.546875 72.453125 
Q 61.96875 70.703125 67.390625 67.28125 
L 67.390625 56.78125 
Q 61.921875 61.421875 55.765625 63.765625 
Q 49.609375 66.109375 42.828125 66.109375 
Q 29.4375 66.109375 22.71875 58.640625 
Q 16.015625 51.171875 16.015625 36.375 
Q 16.015625 21.625 22.71875 14.15625 
Q 29.4375 6.6875 42.828125 6.6875 
Q 48.046875 6.6875 52.140625 7.59375 
Q 56.25 8.5 59.515625 10.40625 
z
" id="DejaVuSans-71"/>
      </defs>
      <use xlink:href="#DejaVuSans-74"/>
      <use x="29.492188" xlink:href="#DejaVuSans-117"/>
      <use x="92.871094" xlink:href="#DejaVuSans-108"/>
      <use x="120.654297" xlink:href="#DejaVuSans-105"/>
      <use x="148.4375" xlink:href="#DejaVuSans-97"/>
      <use x="209.716797" xlink:href="#DejaVuSans-45"/>
      <use x="245.800781" xlink:href="#DejaVuSans-80"/>
      <use x="306.103516" xlink:href="#DejaVuSans-71"/>
      <use x="383.59375" xlink:href="#DejaVuSans-68"/>
     </g>
    </g>
    <g id="line2d_72">
     <path d="M 73.592054 205.623437 
L 101.592054 205.623437 
" style="fill:none;stroke:#7f7f7f;stroke-linecap:square;stroke-width:3;"/>
    </g>
    <g id="line2d_73"/>
    <g id="text_23">
     <!-- L-BFGS-B -->
     <g transform="translate(112.792054 210.523437)scale(0.14 -0.14)">
      <defs>
       <path d="M 9.8125 72.90625 
L 51.703125 72.90625 
L 51.703125 64.59375 
L 19.671875 64.59375 
L 19.671875 43.109375 
L 48.578125 43.109375 
L 48.578125 34.8125 
L 19.671875 34.8125 
L 19.671875 0 
L 9.8125 0 
z
" id="DejaVuSans-70"/>
      </defs>
      <use xlink:href="#DejaVuSans-76"/>
      <use x="53.962891" xlink:href="#DejaVuSans-45"/>
      <use x="86.421875" xlink:href="#DejaVuSans-66"/>
      <use x="155.025391" xlink:href="#DejaVuSans-70"/>
      <use x="212.544922" xlink:href="#DejaVuSans-71"/>
      <use x="290.035156" xlink:href="#DejaVuSans-83"/>
      <use x="353.511719" xlink:href="#DejaVuSans-45"/>
      <use x="385.970703" xlink:href="#DejaVuSans-66"/>
     </g>
    </g>
    <g id="line2d_74">
     <path d="M 73.592054 226.172812 
L 101.592054 226.172812 
" style="fill:none;stroke:#bcbd22;stroke-linecap:square;stroke-width:3;"/>
    </g>
    <g id="line2d_75"/>
    <g id="text_24">
     <!-- Lightning -->
     <g transform="translate(112.792054 231.072812)scale(0.14 -0.14)">
      <use xlink:href="#DejaVuSans-76"/>
      <use x="55.712891" xlink:href="#DejaVuSans-105"/>
      <use x="83.496094" xlink:href="#DejaVuSans-103"/>
      <use x="146.972656" xlink:href="#DejaVuSans-104"/>
      <use x="210.351562" xlink:href="#DejaVuSans-116"/>
      <use x="249.560547" xlink:href="#DejaVuSans-110"/>
      <use x="312.939453" xlink:href="#DejaVuSans-105"/>
      <use x="340.722656" xlink:href="#DejaVuSans-110"/>
      <use x="404.101562" xlink:href="#DejaVuSans-103"/>
     </g>
    </g>
    <g id="line2d_76">
     <path d="M 73.592054 246.722187 
L 101.592054 246.722187 
" style="fill:none;stroke:#17becf;stroke-linecap:square;stroke-width:3;"/>
    </g>
    <g id="line2d_77"/>
    <g id="text_25">
     <!-- Python-PGD[use_acceleration=False] -->
     <g transform="translate(112.792054 251.622187)scale(0.14 -0.14)">
      <use xlink:href="#DejaVuSans-80"/>
      <use x="60.302734" xlink:href="#DejaVuSans-121"/>
      <use x="119.482422" xlink:href="#DejaVuSans-116"/>
      <use x="158.691406" xlink:href="#DejaVuSans-104"/>
      <use x="222.070312" xlink:href="#DejaVuSans-111"/>
      <use x="283.251953" xlink:href="#DejaVuSans-110"/>
      <use x="346.630859" xlink:href="#DejaVuSans-45"/>
      <use x="382.714844" xlink:href="#DejaVuSans-80"/>
      <use x="443.017578" xlink:href="#DejaVuSans-71"/>
      <use x="520.507812" xlink:href="#DejaVuSans-68"/>
      <use x="597.509766" xlink:href="#DejaVuSans-91"/>
      <use x="636.523438" xlink:href="#DejaVuSans-117"/>
      <use x="699.902344" xlink:href="#DejaVuSans-115"/>
      <use x="752.001953" xlink:href="#DejaVuSans-101"/>
      <use x="813.525391" xlink:href="#DejaVuSans-95"/>
      <use x="863.525391" xlink:href="#DejaVuSans-97"/>
      <use x="924.804688" xlink:href="#DejaVuSans-99"/>
      <use x="979.785156" xlink:href="#DejaVuSans-99"/>
      <use x="1034.765625" xlink:href="#DejaVuSans-101"/>
      <use x="1096.289062" xlink:href="#DejaVuSans-108"/>
      <use x="1124.072266" xlink:href="#DejaVuSans-101"/>
      <use x="1185.595703" xlink:href="#DejaVuSans-114"/>
      <use x="1226.708984" xlink:href="#DejaVuSans-97"/>
      <use x="1287.988281" xlink:href="#DejaVuSans-116"/>
      <use x="1327.197266" xlink:href="#DejaVuSans-105"/>
      <use x="1354.980469" xlink:href="#DejaVuSans-111"/>
      <use x="1416.162109" xlink:href="#DejaVuSans-110"/>
      <use x="1479.541016" xlink:href="#DejaVuSans-61"/>
      <use x="1563.330078" xlink:href="#DejaVuSans-70"/>
      <use x="1611.724609" xlink:href="#DejaVuSans-97"/>
      <use x="1673.003906" xlink:href="#DejaVuSans-108"/>
      <use x="1700.787109" xlink:href="#DejaVuSans-115"/>
      <use x="1752.886719" xlink:href="#DejaVuSans-101"/>
      <use x="1814.410156" xlink:href="#DejaVuSans-93"/>
     </g>
    </g>
    <g id="line2d_78">
     <path d="M 73.592054 267.660937 
L 101.592054 267.660937 
" style="fill:none;stroke:#1f77b4;stroke-linecap:square;stroke-width:3;"/>
    </g>
    <g id="line2d_79"/>
    <g id="text_26">
     <!-- Python-PGD[use_acceleration=True] -->
     <g transform="translate(112.792054 272.560937)scale(0.14 -0.14)">
      <use xlink:href="#DejaVuSans-80"/>
      <use x="60.302734" xlink:href="#DejaVuSans-121"/>
      <use x="119.482422" xlink:href="#DejaVuSans-116"/>
      <use x="158.691406" xlink:href="#DejaVuSans-104"/>
      <use x="222.070312" xlink:href="#DejaVuSans-111"/>
      <use x="283.251953" xlink:href="#DejaVuSans-110"/>
      <use x="346.630859" xlink:href="#DejaVuSans-45"/>
      <use x="382.714844" xlink:href="#DejaVuSans-80"/>
      <use x="443.017578" xlink:href="#DejaVuSans-71"/>
      <use x="520.507812" xlink:href="#DejaVuSans-68"/>
      <use x="597.509766" xlink:href="#DejaVuSans-91"/>
      <use x="636.523438" xlink:href="#DejaVuSans-117"/>
      <use x="699.902344" xlink:href="#DejaVuSans-115"/>
      <use x="752.001953" xlink:href="#DejaVuSans-101"/>
      <use x="813.525391" xlink:href="#DejaVuSans-95"/>
      <use x="863.525391" xlink:href="#DejaVuSans-97"/>
      <use x="924.804688" xlink:href="#DejaVuSans-99"/>
      <use x="979.785156" xlink:href="#DejaVuSans-99"/>
      <use x="1034.765625" xlink:href="#DejaVuSans-101"/>
      <use x="1096.289062" xlink:href="#DejaVuSans-108"/>
      <use x="1124.072266" xlink:href="#DejaVuSans-101"/>
      <use x="1185.595703" xlink:href="#DejaVuSans-114"/>
      <use x="1226.708984" xlink:href="#DejaVuSans-97"/>
      <use x="1287.988281" xlink:href="#DejaVuSans-116"/>
      <use x="1327.197266" xlink:href="#DejaVuSans-105"/>
      <use x="1354.980469" xlink:href="#DejaVuSans-111"/>
      <use x="1416.162109" xlink:href="#DejaVuSans-110"/>
      <use x="1479.541016" xlink:href="#DejaVuSans-61"/>
      <use x="1563.330078" xlink:href="#DejaVuSans-84"/>
      <use x="1609.664062" xlink:href="#DejaVuSans-114"/>
      <use x="1650.777344" xlink:href="#DejaVuSans-117"/>
      <use x="1714.15625" xlink:href="#DejaVuSans-101"/>
      <use x="1775.679688" xlink:href="#DejaVuSans-93"/>
     </g>
    </g>
    <g id="line2d_80">
     <path d="M 73.592054 288.599687 
L 101.592054 288.599687 
" style="fill:none;stroke:#ff7f0e;stroke-linecap:square;stroke-width:3;"/>
    </g>
    <g id="line2d_81"/>
    <g id="text_27">
     <!-- R-PGD -->
     <g transform="translate(112.792054 293.499687)scale(0.14 -0.14)">
      <use xlink:href="#DejaVuSans-82"/>
      <use x="65.482422" xlink:href="#DejaVuSans-45"/>
      <use x="101.566406" xlink:href="#DejaVuSans-80"/>
      <use x="161.869141" xlink:href="#DejaVuSans-71"/>
      <use x="239.359375" xlink:href="#DejaVuSans-68"/>
     </g>
    </g>
    <g id="line2d_82">
     <path d="M 73.592054 309.149062 
L 101.592054 309.149062 
" style="fill:none;stroke:#2ca02c;stroke-linecap:square;stroke-width:3;"/>
    </g>
    <g id="line2d_83"/>
    <g id="text_28">
     <!-- sklearn -->
     <g transform="translate(112.792054 314.049062)scale(0.14 -0.14)">
      <defs>
       <path d="M 9.078125 75.984375 
L 18.109375 75.984375 
L 18.109375 31.109375 
L 44.921875 54.6875 
L 56.390625 54.6875 
L 27.390625 29.109375 
L 57.625 0 
L 45.90625 0 
L 18.109375 26.703125 
L 18.109375 0 
L 9.078125 0 
z
" id="DejaVuSans-107"/>
      </defs>
      <use xlink:href="#DejaVuSans-115"/>
      <use x="52.099609" xlink:href="#DejaVuSans-107"/>
      <use x="110.009766" xlink:href="#DejaVuSans-108"/>
      <use x="137.792969" xlink:href="#DejaVuSans-101"/>
      <use x="199.316406" xlink:href="#DejaVuSans-97"/>
      <use x="260.595703" xlink:href="#DejaVuSans-114"/>
      <use x="299.958984" xlink:href="#DejaVuSans-110"/>
     </g>
    </g>
    <g id="line2d_84">
     <path d="M 73.592054 329.698437 
L 101.592054 329.698437 
" style="fill:none;stroke:#d62728;stroke-linecap:square;stroke-width:3;"/>
    </g>
    <g id="line2d_85"/>
    <g id="text_29">
     <!-- statsmodels -->
     <g transform="translate(112.792054 334.598437)scale(0.14 -0.14)">
      <use xlink:href="#DejaVuSans-115"/>
      <use x="52.099609" xlink:href="#DejaVuSans-116"/>
      <use x="91.308594" xlink:href="#DejaVuSans-97"/>
      <use x="152.587891" xlink:href="#DejaVuSans-116"/>
      <use x="191.796875" xlink:href="#DejaVuSans-115"/>
      <use x="243.896484" xlink:href="#DejaVuSans-109"/>
      <use x="341.308594" xlink:href="#DejaVuSans-111"/>
      <use x="402.490234" xlink:href="#DejaVuSans-100"/>
      <use x="465.966797" xlink:href="#DejaVuSans-101"/>
      <use x="527.490234" xlink:href="#DejaVuSans-108"/>
      <use x="555.273438" xlink:href="#DejaVuSans-115"/>
     </g>
    </g>
   </g>
  </g>
 </g>
 <defs>
  <clipPath id="p9d2977b260">
   <rect height="253.288" width="389.007946" x="60.992054" y="43.44"/>
  </clipPath>
 </defs>
</svg>
