<?xml version="1.0" encoding="utf-8" standalone="no"?>
<!DOCTYPE svg PUBLIC "-//W3C//DTD SVG 1.1//EN"
  "http://www.w3.org/Graphics/SVG/1.1/DTD/svg11.dtd">
<!-- Created with matplotlib (https://matplotlib.org/) -->
<svg height="345.6pt" version="1.1" viewBox="0 0 460.8 345.6" width="460.8pt" xmlns="http://www.w3.org/2000/svg" xmlns:xlink="http://www.w3.org/1999/xlink">
 <metadata>
  <rdf:RDF xmlns:cc="http://creativecommons.org/ns#" xmlns:dc="http://purl.org/dc/elements/1.1/" xmlns:rdf="http://www.w3.org/1999/02/22-rdf-syntax-ns#">
   <cc:Work>
    <dc:type rdf:resource="http://purl.org/dc/dcmitype/StillImage"/>
    <dc:date>2020-12-16T18:00:01.236994</dc:date>
    <dc:format>image/svg+xml</dc:format>
    <dc:creator>
     <cc:Agent>
      <dc:title>Matplotlib v3.3.3, https://matplotlib.org/</dc:title>
     </cc:Agent>
    </dc:creator>
   </cc:Work>
  </rdf:RDF>
 </metadata>
 <defs>
  <style type="text/css">*{stroke-linecap:butt;stroke-linejoin:round;}</style>
 </defs>
 <g id="figure_1">
  <g id="patch_1">
   <path d="M 0 345.6 
L 460.8 345.6 
L 460.8 0 
L 0 0 
z
" style="fill:#ffffff;"/>
  </g>
  <g id="axes_1">
   <g id="patch_2">
    <path d="M 76.881214 296.728 
L 450 296.728 
L 450 43.44 
L 76.881214 43.44 
z
" style="fill:#ffffff;"/>
   </g>
   <g id="PolyCollection_1">
    <defs>
     <path d="M 283.91574 -61.630979 
L 281.629877 -61.630979 
L 280.80722 -61.73374 
L 280.936901 -61.526649 
L 278.949492 -62.458815 
L 278.662757 -62.902703 
L 279.857932 -64.639126 
L 278.6407 -68.729423 
L 278.868126 -72.863099 
L 279.270705 -77.549488 
L 277.469348 -82.57471 
L 273.975803 -87.607922 
L 272.623962 -93.330331 
L 270.285468 -98.963939 
L 270.514068 -103.942255 
L 269.905957 -109.741612 
L 266.797271 -114.784793 
L 266.120025 -120.68991 
L 263.349472 -125.370814 
L 260.208896 -132.153149 
L 260.431024 -136.869563 
L 257.597764 -142.799924 
L 253.506339 -148.956378 
L 248.612737 -152.769223 
L 248.350852 -158.654703 
L 243.577561 -164.220825 
L 235.865181 -171.928631 
L 229.600692 -178.070299 
L 223.155235 -180.606147 
L 223.654708 -182.990272 
L 219.944638 -185.050919 
L 218.124517 -186.88357 
L 217.857681 -188.610994 
L 212.827412 -193.851227 
L 213.118658 -202.355199 
L 204.051226 -213.543611 
L 195.841303 -216.945022 
L 196.684429 -217.809085 
L 190.621297 -224.870284 
L 184.00826 -227.65229 
L 181.645228 -228.788256 
L 181.71287 -232.344748 
L 168.270991 -236.037589 
L 158.636406 -243.522469 
L 157.464589 -246.445255 
L 152.083892 -246.381058 
L 155.510544 -246.561449 
L 137.715533 -252.872491 
L 140.426681 -252.807066 
L 109.382753 -259.944049 
L 128.726488 -259.944049 
L 128.726488 -259.944049 
L 152.981461 -252.807066 
L 146.863054 -252.872491 
L 167.849041 -246.561449 
L 166.64395 -246.381058 
L 168.887405 -246.445255 
L 178.852318 -243.522469 
L 184.884248 -236.037589 
L 189.300393 -232.344748 
L 190.179579 -228.788256 
L 190.979152 -227.65229 
L 198.88088 -224.870284 
L 201.31167 -217.809085 
L 204.239182 -216.945022 
L 206.810188 -213.543611 
L 216.048195 -202.355199 
L 218.742892 -193.851227 
L 220.553363 -188.610994 
L 219.90691 -186.88357 
L 222.279418 -185.050919 
L 224.556563 -182.990272 
L 226.082521 -180.606147 
L 233.055348 -178.070299 
L 239.816264 -171.928631 
L 246.455588 -164.220825 
L 251.797086 -158.654703 
L 254.113762 -152.769223 
L 257.052295 -148.956378 
L 258.1436 -142.799924 
L 262.286975 -136.869563 
L 262.469851 -132.153149 
L 266.757574 -125.370814 
L 267.606017 -120.68991 
L 269.154034 -114.784793 
L 278.550737 -109.741612 
L 274.032747 -103.942255 
L 273.643321 -98.963939 
L 274.937336 -93.330331 
L 276.646875 -87.607922 
L 278.930761 -82.57471 
L 280.111721 -77.549488 
L 279.976503 -72.863099 
L 280.638803 -68.729423 
L 281.248691 -64.639126 
L 280.440635 -62.902703 
L 284.453873 -62.458815 
L 303.381931 -61.526649 
L 288.09398 -61.73374 
L 283.91574 -61.630979 
z
" id="m3565485dca" style="stroke:#1f77b4;stroke-opacity:0.3;"/>
    </defs>
    <g clip-path="url(#p3d4f1a0231)">
     <use style="fill:#1f77b4;fill-opacity:0.3;stroke:#1f77b4;stroke-opacity:0.3;" x="0" xlink:href="#m3565485dca" y="345.6"/>
    </g>
   </g>
   <g id="PolyCollection_2">
    <defs>
     <path d="M 154.191327 -282.004594 
L 128.543078 -282.004594 
L 123.138393 -278.690618 
L 149.727958 -276.142414 
L 159.81532 -274.019171 
L 144.986515 -270.520683 
L 157.91781 -266.68755 
L 164.804928 -262.529422 
L 177.482465 -257.918102 
L 189.483103 -250.576914 
L 201.081184 -237.715326 
L 213.904069 -220.394058 
L 231.155198 -209.786912 
L 243.848328 -202.001076 
L 258.928975 -194.107387 
L 272.147105 -187.239632 
L 283.43024 -180.129803 
L 289.148038 -171.092409 
L 304.000891 -156.006593 
L 316.984278 -132.792071 
L 331.135426 -97.940632 
L 345.224573 -61.092633 
L 359.445378 -60.385091 
L 373.431309 -60.385091 
L 393.808413 -60.385091 
L 421.572443 -60.385091 
L 425.281544 -60.385091 
L 425.281544 -60.385091 
L 396.072655 -60.385091 
L 375.217229 -60.385091 
L 360.206283 -60.385091 
L 346.75849 -61.092633 
L 332.364723 -97.940632 
L 317.943063 -132.792071 
L 304.273295 -156.006593 
L 295.359513 -171.092409 
L 286.314452 -180.129803 
L 272.97344 -187.239632 
L 261.950197 -194.107387 
L 253.848843 -202.001076 
L 239.079897 -209.786912 
L 217.656724 -220.394058 
L 206.035374 -237.715326 
L 201.439243 -250.576914 
L 189.995224 -257.918102 
L 182.345351 -262.529422 
L 171.777706 -266.68755 
L 157.74788 -270.520683 
L 163.671166 -274.019171 
L 165.011973 -276.142414 
L 157.576796 -278.690618 
L 154.191327 -282.004594 
z
" id="m69dad56f6b" style="stroke:#ff7f0e;stroke-opacity:0.3;"/>
    </defs>
    <g clip-path="url(#p3d4f1a0231)">
     <use style="fill:#ff7f0e;fill-opacity:0.3;stroke:#ff7f0e;stroke-opacity:0.3;" x="0" xlink:href="#m69dad56f6b" y="345.6"/>
    </g>
   </g>
   <g id="PolyCollection_3">
    <defs>
     <path d="M 164.64744 -286.377954 
L 150.943052 -286.377954 
L 159.596374 -280.270844 
L 160.374162 -272.25281 
L 166.79185 -264.769687 
L 172.684314 -253.620179 
L 192.46227 -216.038968 
L 212.880144 -164.246867 
L 229.961614 -99.841048 
L 246.736491 -60.385091 
L 246.885486 -60.385091 
L 245.289903 -60.385091 
L 246.569531 -60.385091 
L 246.856633 -60.385091 
L 247.876425 -60.385091 
L 249.309882 -60.385091 
L 249.309882 -60.385091 
L 249.073794 -60.385091 
L 249.410221 -60.385091 
L 293.646888 -60.385091 
L 251.160188 -60.385091 
L 248.346776 -60.385091 
L 230.834941 -99.841048 
L 219.316826 -164.246867 
L 196.764318 -216.038968 
L 183.103027 -253.620179 
L 175.44607 -264.769687 
L 168.686741 -272.25281 
L 171.885206 -280.270844 
L 164.64744 -286.377954 
z
" id="m8a97f1709f" style="stroke:#2ca02c;stroke-opacity:0.3;"/>
    </defs>
    <g clip-path="url(#p3d4f1a0231)">
     <use style="fill:#2ca02c;fill-opacity:0.3;stroke:#2ca02c;stroke-opacity:0.3;" x="0" xlink:href="#m8a97f1709f" y="345.6"/>
    </g>
   </g>
   <g id="PolyCollection_4">
    <defs>
     <path d="M 325.362672 -288.794476 
L 280.74472 -288.794476 
L 290.155645 -288.794476 
L 299.954352 -288.794476 
L 315.445311 -288.794476 
L 345.745 -260.634293 
L 362.933656 -128.241354 
L 363.438615 -128.241354 
L 363.127238 -128.241354 
L 362.892922 -128.241354 
L 362.266947 -128.241354 
L 361.750077 -128.241354 
L 366.386792 -128.241354 
L 366.386792 -128.241354 
L 363.117162 -128.241354 
L 363.364841 -128.241354 
L 367.882677 -128.241354 
L 365.659218 -128.241354 
L 368.721489 -128.241354 
L 346.222482 -260.634293 
L 320.714893 -288.794476 
L 302.933712 -288.794476 
L 294.070436 -288.794476 
L 325.362672 -288.794476 
z
" id="mabbe1c6005" style="stroke:#d62728;stroke-opacity:0.3;"/>
    </defs>
    <g clip-path="url(#p3d4f1a0231)">
     <use style="fill:#d62728;fill-opacity:0.3;stroke:#d62728;stroke-opacity:0.3;" x="0" xlink:href="#mabbe1c6005" y="345.6"/>
    </g>
   </g>
   <g id="PolyCollection_5">
    <defs>
     <path d="M 286.227323 -290.646909 
L 93.841158 -290.646909 
L 107.881455 -281.203817 
L 117.077538 -276.915018 
L 129.678696 -276.159887 
L 129.214663 -274.752095 
L 145.268063 -273.107674 
L 158.006574 -272.496674 
L 177.385581 -272.496674 
L 199.62076 -265.970604 
L 225.038308 -258.83474 
L 238.329319 -251.625026 
L 256.036564 -239.548585 
L 278.18516 -220.071276 
L 293.803862 -202.311843 
L 310.665768 -164.206085 
L 331.901835 -98.668127 
L 352.22626 -95.076982 
L 371.201576 -92.140276 
L 397.296373 -88.905845 
L 429.229662 -84.970606 
L 433.040055 -84.970606 
L 433.040055 -84.970606 
L 404.724861 -88.905845 
L 373.015047 -92.140276 
L 353.192418 -95.076982 
L 333.744085 -98.668127 
L 312.555245 -164.206085 
L 299.233633 -202.311843 
L 284.159706 -220.071276 
L 280.816982 -239.548585 
L 242.8779 -251.625026 
L 232.616966 -258.83474 
L 215.520082 -265.970604 
L 195.634758 -272.496674 
L 204.636817 -272.496674 
L 165.463316 -273.107674 
L 147.669651 -274.752095 
L 158.087425 -276.159887 
L 163.529001 -276.915018 
L 134.523988 -281.203817 
L 286.227323 -290.646909 
z
" id="m0ee024923c" style="stroke:#9467bd;stroke-opacity:0.3;"/>
    </defs>
    <g clip-path="url(#p3d4f1a0231)">
     <use style="fill:#9467bd;fill-opacity:0.3;stroke:#9467bd;stroke-opacity:0.3;" x="0" xlink:href="#m0ee024923c" y="345.6"/>
    </g>
   </g>
   <g id="PolyCollection_6">
    <defs>
     <path d="M 260.760055 -290.646909 
L 219.052212 -290.646909 
L 204.435276 -290.574014 
L 209.67846 -290.574014 
L 203.262075 -290.504796 
L 206.543637 -290.439109 
L 211.139866 -290.317746 
L 212.607493 -290.111192 
L 212.070463 -289.875467 
L 215.341467 -289.464649 
L 220.268764 -288.448532 
L 228.274228 -287.123849 
L 227.280287 -285.168287 
L 237.137731 -281.302469 
L 247.868448 -276.659872 
L 260.625099 -269.26606 
L 274.111792 -261.052339 
L 290.289096 -251.235595 
L 306.002303 -226.764464 
L 309.249612 -123.048896 
L 308.068371 -123.048896 
L 307.725768 -123.048896 
L 308.247572 -123.048896 
L 316.136865 -123.048896 
L 313.671085 -123.048896 
L 328.781439 -123.048896 
L 328.781439 -123.048896 
L 327.936923 -123.048896 
L 320.522268 -123.048896 
L 314.765378 -123.048896 
L 314.053685 -123.048896 
L 314.041952 -123.048896 
L 313.323782 -226.764464 
L 294.401483 -251.235595 
L 288.596251 -261.052339 
L 263.955964 -269.26606 
L 254.637665 -276.659872 
L 265.823358 -281.302469 
L 239.824158 -285.168287 
L 261.420992 -287.123849 
L 227.081313 -288.448532 
L 259.133087 -289.464649 
L 256.97458 -289.875467 
L 228.725773 -290.111192 
L 254.601436 -290.317746 
L 230.341251 -290.439109 
L 213.588626 -290.504796 
L 270.207116 -290.574014 
L 254.281649 -290.574014 
L 260.760055 -290.646909 
z
" id="ma7dfe679ef" style="stroke:#8c564b;stroke-opacity:0.3;"/>
    </defs>
    <g clip-path="url(#p3d4f1a0231)">
     <use style="fill:#8c564b;fill-opacity:0.3;stroke:#8c564b;stroke-opacity:0.3;" x="0" xlink:href="#ma7dfe679ef" y="345.6"/>
    </g>
   </g>
   <g id="PolyCollection_7">
    <defs>
     <path d="M 363.169859 -279.636741 
L 239.783569 -279.636741 
L 236.413243 -277.648794 
L 247.791038 -276.863995 
L 235.425054 -276.299846 
L 230.718524 -275.421879 
L 228.338655 -274.393454 
L 240.239388 -273.320116 
L 233.925878 -272.08234 
L 248.404414 -270.734476 
L 248.72733 -269.196652 
L 257.951087 -267.503821 
L 263.472969 -265.52411 
L 273.567418 -263.39416 
L 277.892974 -261.053924 
L 283.990487 -258.2118 
L 291.312586 -254.824856 
L 298.723375 -251.179161 
L 306.684348 -247.649627 
L 321.078995 -243.846192 
L 330.951099 -239.406421 
L 342.230299 -233.638578 
L 356.810293 -225.046376 
L 372.783785 -219.566334 
L 386.026102 -214.308815 
L 400.673904 -209.032086 
L 405.788447 -209.032086 
L 405.788447 -209.032086 
L 394.344273 -214.308815 
L 381.972017 -219.566334 
L 360.676681 -225.046376 
L 364.272135 -233.638578 
L 340.046426 -239.406421 
L 337.76589 -243.846192 
L 312.780174 -247.649627 
L 308.510329 -251.179161 
L 294.950629 -254.824856 
L 287.549803 -258.2118 
L 282.374212 -261.053924 
L 277.913805 -263.39416 
L 271.24487 -265.52411 
L 263.373199 -267.503821 
L 255.731577 -269.196652 
L 250.743474 -270.734476 
L 246.335856 -272.08234 
L 260.56275 -273.320116 
L 258.686843 -274.393454 
L 244.70041 -275.421879 
L 257.939438 -276.299846 
L 256.240417 -276.863995 
L 248.008851 -277.648794 
L 363.169859 -279.636741 
z
" id="m1999a55506" style="stroke:#e377c2;stroke-opacity:0.3;"/>
    </defs>
    <g clip-path="url(#p3d4f1a0231)">
     <use style="fill:#e377c2;fill-opacity:0.3;stroke:#e377c2;stroke-opacity:0.3;" x="0" xlink:href="#m1999a55506" y="345.6"/>
    </g>
   </g>
   <g id="PolyCollection_8">
    <defs>
     <path d="M 250.049662 -287.301158 
L 195.533129 -287.301158 
L 196.693696 -277.796369 
L 201.459741 -277.240943 
L 204.618195 -276.000964 
L 204.267495 -274.190732 
L 212.039639 -271.812277 
L 218.156368 -269.324098 
L 226.996441 -265.915827 
L 233.051795 -261.613621 
L 243.083496 -255.598253 
L 256.047574 -249.535369 
L 264.876602 -242.806658 
L 274.092674 -235.52206 
L 285.859368 -224.677986 
L 297.490786 -215.083257 
L 310.653197 -204.726843 
L 324.538176 -187.626546 
L 335.869893 -164.777274 
L 351.471595 -124.93476 
L 363.169979 -69.475001 
L 365.152155 -69.475001 
L 363.524386 -69.475001 
L 362.555736 -69.475001 
L 362.63327 -69.475001 
L 363.56281 -69.475001 
L 365.589728 -69.475001 
L 365.589728 -69.475001 
L 363.727084 -69.475001 
L 364.256949 -69.475001 
L 366.181472 -69.475001 
L 369.01388 -69.475001 
L 364.101996 -69.475001 
L 353.380036 -124.93476 
L 339.260036 -164.777274 
L 328.351272 -187.626546 
L 312.923627 -204.726843 
L 303.815792 -215.083257 
L 287.606547 -224.677986 
L 282.923446 -235.52206 
L 267.122794 -242.806658 
L 269.90935 -249.535369 
L 245.638685 -255.598253 
L 238.045768 -261.613621 
L 258.25762 -265.915827 
L 220.143878 -269.324098 
L 252.036717 -271.812277 
L 208.068377 -274.190732 
L 213.022381 -276.000964 
L 243.087414 -277.240943 
L 200.89132 -277.796369 
L 250.049662 -287.301158 
z
" id="mf6fdd7dd32" style="stroke:#7f7f7f;stroke-opacity:0.3;"/>
    </defs>
    <g clip-path="url(#p3d4f1a0231)">
     <use style="fill:#7f7f7f;fill-opacity:0.3;stroke:#7f7f7f;stroke-opacity:0.3;" x="0" xlink:href="#mf6fdd7dd32" y="345.6"/>
    </g>
   </g>
   <g id="PolyCollection_9">
    <defs>
     <path d="M 169.388959 -283.854584 
L 156.652681 -283.854584 
L 172.767216 -282.18128 
L 177.245356 -280.348819 
L 180.656382 -278.508293 
L 180.668589 -275.880556 
L 184.23585 -273.028176 
L 185.361507 -271.680664 
L 188.46583 -269.174864 
L 190.597706 -267.44221 
L 194.33882 -267.02369 
L 198.736579 -267.390859 
L 203.152146 -267.218378 
L 207.890425 -267.16267 
L 216.474187 -266.837523 
L 224.736635 -266.816367 
L 234.527885 -266.308493 
L 246.628018 -268.440009 
L 259.463384 -268.0733 
L 272.030764 -268.111774 
L 278.184563 -267.917698 
L 287.38472 -267.910009 
L 297.024914 -267.591108 
L 307.07213 -266.988156 
L 318.75723 -266.94917 
L 330.860537 -266.536398 
L 346.404484 -267.529835 
L 358.252846 -267.99525 
L 373.665405 -266.848513 
L 389.300871 -267.070039 
L 402.815545 -266.603282 
L 404.566999 -266.603282 
L 404.566999 -266.603282 
L 391.299455 -267.070039 
L 377.989275 -266.848513 
L 364.383112 -267.99525 
L 349.739771 -267.529835 
L 333.732436 -266.536398 
L 321.738212 -266.94917 
L 313.988331 -266.988156 
L 316.899173 -267.591108 
L 295.836102 -267.910009 
L 285.126893 -267.917698 
L 275.814421 -268.111774 
L 261.437097 -268.0733 
L 248.942646 -268.440009 
L 236.829216 -266.308493 
L 226.541149 -266.816367 
L 217.487351 -266.837523 
L 212.647249 -267.16267 
L 206.74718 -267.218378 
L 201.680138 -267.390859 
L 199.122921 -267.02369 
L 196.186036 -267.44221 
L 191.396499 -269.174864 
L 189.915497 -271.680664 
L 187.991658 -273.028176 
L 187.493216 -275.880556 
L 186.694001 -278.508293 
L 186.631211 -280.348819 
L 179.94441 -282.18128 
L 169.388959 -283.854584 
z
" id="m704386d65e" style="stroke:#bcbd22;stroke-opacity:0.3;"/>
    </defs>
    <g clip-path="url(#p3d4f1a0231)">
     <use style="fill:#bcbd22;fill-opacity:0.3;stroke:#bcbd22;stroke-opacity:0.3;" x="0" xlink:href="#m704386d65e" y="345.6"/>
    </g>
   </g>
   <g id="PolyCollection_10">
    <defs>
     <path d="M 228.610828 -279.636741 
L 219.675633 -279.636741 
L 216.744294 -277.648794 
L 221.106583 -276.863995 
L 218.331038 -276.299846 
L 220.207114 -275.421879 
L 220.066406 -274.393454 
L 220.078398 -273.320116 
L 222.832379 -272.08234 
L 223.442552 -270.734476 
L 227.927269 -269.196652 
L 230.205055 -267.503821 
L 235.965671 -265.52411 
L 242.269912 -263.39416 
L 250.193286 -261.053924 
L 259.419638 -258.2118 
L 265.924185 -254.824856 
L 275.147631 -251.179161 
L 287.672099 -247.649627 
L 298.982377 -243.846192 
L 310.274698 -239.406421 
L 323.529862 -233.638578 
L 342.22287 -225.046376 
L 356.174345 -219.566334 
L 370.772925 -214.308815 
L 389.800577 -209.032086 
L 403.781861 -204.180811 
L 407.35548 -204.180811 
L 407.35548 -204.180811 
L 394.140243 -209.032086 
L 377.44459 -214.308815 
L 362.134628 -219.566334 
L 350.64582 -225.046376 
L 342.157175 -233.638578 
L 313.008438 -239.406421 
L 301.679575 -243.846192 
L 291.555268 -247.649627 
L 278.918589 -251.179161 
L 269.273925 -254.824856 
L 261.463736 -258.2118 
L 254.69319 -261.053924 
L 244.063862 -263.39416 
L 240.24109 -265.52411 
L 233.593603 -267.503821 
L 229.406593 -269.196652 
L 228.735791 -270.734476 
L 226.510458 -272.08234 
L 223.637283 -273.320116 
L 222.48309 -274.393454 
L 228.623792 -275.421879 
L 222.318227 -276.299846 
L 221.907584 -276.863995 
L 221.650564 -277.648794 
L 228.610828 -279.636741 
z
" id="m161a0c4e79" style="stroke:#17becf;stroke-opacity:0.3;"/>
    </defs>
    <g clip-path="url(#p3d4f1a0231)">
     <use style="fill:#17becf;fill-opacity:0.3;stroke:#17becf;stroke-opacity:0.3;" x="0" xlink:href="#m161a0c4e79" y="345.6"/>
    </g>
   </g>
   <g id="PolyCollection_11">
    <defs>
     <path d="M 227.074678 -279.636741 
L 222.886755 -279.636741 
L 226.462997 -277.648794 
L 225.581441 -276.682263 
L 228.271982 -275.897029 
L 227.34126 -274.466441 
L 228.429815 -272.529926 
L 229.220846 -270.398581 
L 230.218745 -267.756267 
L 232.170301 -264.253432 
L 235.577839 -259.866981 
L 238.306557 -253.671941 
L 244.536767 -247.041656 
L 251.723612 -239.342278 
L 258.274303 -228.429897 
L 267.214289 -217.789204 
L 274.638039 -205.96212 
L 285.217912 -194.969902 
L 296.922545 -187.313514 
L 310.452228 -174.038698 
L 322.049116 -165.206257 
L 335.153949 -155.188429 
L 350.711405 -143.623541 
L 365.95956 -132.108956 
L 381.737444 -124.46206 
L 394.937371 -110.645605 
L 410.665528 -97.45986 
L 411.863024 -97.45986 
L 411.863024 -97.45986 
L 399.873913 -110.645605 
L 388.131345 -124.46206 
L 367.821808 -132.108956 
L 355.846014 -143.623541 
L 341.91657 -155.188429 
L 328.31207 -165.206257 
L 311.631838 -174.038698 
L 305.583529 -187.313514 
L 286.716369 -194.969902 
L 277.291454 -205.96212 
L 269.142805 -217.789204 
L 260.847327 -228.429897 
L 254.076178 -239.342278 
L 247.741752 -247.041656 
L 241.382187 -253.671941 
L 238.330884 -259.866981 
L 235.125302 -264.253432 
L 231.89921 -267.756267 
L 232.316268 -270.398581 
L 230.903114 -272.529926 
L 230.014854 -274.466441 
L 229.044443 -275.897029 
L 227.033183 -276.682263 
L 229.741666 -277.648794 
L 227.074678 -279.636741 
z
" id="mb89cccfecf" style="stroke:#1f77b4;stroke-opacity:0.3;"/>
    </defs>
    <g clip-path="url(#p3d4f1a0231)">
     <use style="fill:#1f77b4;fill-opacity:0.3;stroke:#1f77b4;stroke-opacity:0.3;" x="0" xlink:href="#mb89cccfecf" y="345.6"/>
    </g>
   </g>
   <g id="PolyCollection_12">
    <defs>
     <path d="M 256.631418 -279.636741 
L 249.479173 -279.636741 
L 255.554949 -277.648794 
L 261.410804 -276.863995 
L 267.018545 -276.299846 
L 272.603482 -275.421879 
L 283.578588 -274.393454 
L 294.45835 -273.320116 
L 304.067 -272.08234 
L 316.514577 -270.734476 
L 331.664969 -269.196652 
L 345.85066 -267.503821 
L 359.765593 -265.52411 
L 373.178562 -263.39416 
L 388.788881 -261.053924 
L 402.95077 -258.2118 
L 417.71241 -254.824856 
L 417.71241 -254.824856 
L 417.71241 -254.824856 
L 404.14094 -258.2118 
L 389.989942 -261.053924 
L 375.037301 -263.39416 
L 361.333396 -265.52411 
L 346.728148 -267.503821 
L 341.756788 -269.196652 
L 318.544692 -270.734476 
L 307.774668 -272.08234 
L 304.336633 -273.320116 
L 287.19895 -274.393454 
L 276.889977 -275.421879 
L 274.100628 -276.299846 
L 267.770755 -276.863995 
L 262.85398 -277.648794 
L 256.631418 -279.636741 
z
" id="m6f172bee63" style="stroke:#ff7f0e;stroke-opacity:0.3;"/>
    </defs>
    <g clip-path="url(#p3d4f1a0231)">
     <use style="fill:#ff7f0e;fill-opacity:0.3;stroke:#ff7f0e;stroke-opacity:0.3;" x="0" xlink:href="#m6f172bee63" y="345.6"/>
    </g>
   </g>
   <g id="PolyCollection_13">
    <defs>
     <path d="M 165.074134 -282.004594 
L 157.03255 -282.004594 
L 161.985125 -278.690618 
L 159.808474 -276.142414 
L 157.958825 -274.019171 
L 167.291455 -270.520683 
L 169.820081 -266.68755 
L 175.65025 -262.529422 
L 184.097851 -257.918102 
L 191.231142 -250.576914 
L 198.705926 -237.715326 
L 212.698729 -220.394058 
L 221.72691 -209.786912 
L 235.764227 -202.001076 
L 252.442689 -194.107387 
L 264.115208 -187.239632 
L 278.647144 -180.129803 
L 289.875096 -171.092409 
L 301.316703 -156.006593 
L 314.401507 -132.792071 
L 326.828843 -97.940632 
L 336.366978 -61.092633 
L 352.035943 -60.385091 
L 366.856153 -60.385091 
L 389.79252 -60.385091 
L 414.377566 -60.385091 
L 419.58841 -60.385091 
L 419.58841 -60.385091 
L 396.508326 -60.385091 
L 370.931147 -60.385091 
L 355.854964 -60.385091 
L 343.682023 -61.092633 
L 330.88304 -97.940632 
L 334.655883 -132.792071 
L 302.503651 -156.006593 
L 291.159687 -171.092409 
L 279.992492 -180.129803 
L 265.975693 -187.239632 
L 254.533735 -194.107387 
L 241.698032 -202.001076 
L 225.613651 -209.786912 
L 214.712865 -220.394058 
L 204.054061 -237.715326 
L 196.314031 -250.576914 
L 187.375979 -257.918102 
L 184.28206 -262.529422 
L 172.69619 -266.68755 
L 180.280865 -270.520683 
L 168.482556 -274.019171 
L 162.321883 -276.142414 
L 167.844827 -278.690618 
L 165.074134 -282.004594 
z
" id="mc03591bd48" style="stroke:#2ca02c;stroke-opacity:0.3;"/>
    </defs>
    <g clip-path="url(#p3d4f1a0231)">
     <use style="fill:#2ca02c;fill-opacity:0.3;stroke:#2ca02c;stroke-opacity:0.3;" x="0" xlink:href="#mc03591bd48" y="345.6"/>
    </g>
   </g>
   <g id="PolyCollection_14">
    <defs>
     <path d="M 356.237322 -282.004594 
L 354.465072 -282.004594 
L 376.24127 -278.690618 
L 378.595769 -276.014489 
L 380.078208 -274.104329 
L 384.764866 -271.541684 
L 386.639824 -269.962721 
L 387.594996 -269.442008 
L 387.594996 -269.442008 
L 387.594996 -269.442008 
L 388.655816 -269.962721 
L 387.236289 -271.541684 
L 382.703675 -274.104329 
L 380.76433 -276.014489 
L 377.40501 -278.690618 
L 356.237322 -282.004594 
z
" id="m6f133b58ce" style="stroke:#d62728;stroke-opacity:0.3;"/>
    </defs>
    <g clip-path="url(#p3d4f1a0231)">
     <use style="fill:#d62728;fill-opacity:0.3;stroke:#d62728;stroke-opacity:0.3;" x="0" xlink:href="#m6f133b58ce" y="345.6"/>
    </g>
   </g>
   <g id="matplotlib.axis_1">
    <g id="xtick_1">
     <g id="line2d_1">
      <defs>
       <path d="M 0 0 
L 0 3.5 
" id="m43c033b9df" style="stroke:#000000;stroke-width:0.8;"/>
      </defs>
      <g>
       <use style="stroke:#000000;stroke-width:0.8;" x="83.796575" xlink:href="#m43c033b9df" y="296.728"/>
      </g>
     </g>
     <g id="text_1">
      <!-- $\mathdefault{10^{-3}}$ -->
      <g transform="translate(72.046575 311.326437)scale(0.1 -0.1)">
       <defs>
        <path d="M 12.40625 8.296875 
L 28.515625 8.296875 
L 28.515625 63.921875 
L 10.984375 60.40625 
L 10.984375 69.390625 
L 28.421875 72.90625 
L 38.28125 72.90625 
L 38.28125 8.296875 
L 54.390625 8.296875 
L 54.390625 0 
L 12.40625 0 
z
" id="DejaVuSans-49"/>
        <path d="M 31.78125 66.40625 
Q 24.171875 66.40625 20.328125 58.90625 
Q 16.5 51.421875 16.5 36.375 
Q 16.5 21.390625 20.328125 13.890625 
Q 24.171875 6.390625 31.78125 6.390625 
Q 39.453125 6.390625 43.28125 13.890625 
Q 47.125 21.390625 47.125 36.375 
Q 47.125 51.421875 43.28125 58.90625 
Q 39.453125 66.40625 31.78125 66.40625 
z
M 31.78125 74.21875 
Q 44.046875 74.21875 50.515625 64.515625 
Q 56.984375 54.828125 56.984375 36.375 
Q 56.984375 17.96875 50.515625 8.265625 
Q 44.046875 -1.421875 31.78125 -1.421875 
Q 19.53125 -1.421875 13.0625 8.265625 
Q 6.59375 17.96875 6.59375 36.375 
Q 6.59375 54.828125 13.0625 64.515625 
Q 19.53125 74.21875 31.78125 74.21875 
z
" id="DejaVuSans-48"/>
        <path d="M 10.59375 35.5 
L 73.1875 35.5 
L 73.1875 27.203125 
L 10.59375 27.203125 
z
" id="DejaVuSans-8722"/>
        <path d="M 40.578125 39.3125 
Q 47.65625 37.796875 51.625 33 
Q 55.609375 28.21875 55.609375 21.1875 
Q 55.609375 10.40625 48.1875 4.484375 
Q 40.765625 -1.421875 27.09375 -1.421875 
Q 22.515625 -1.421875 17.65625 -0.515625 
Q 12.796875 0.390625 7.625 2.203125 
L 7.625 11.71875 
Q 11.71875 9.328125 16.59375 8.109375 
Q 21.484375 6.890625 26.8125 6.890625 
Q 36.078125 6.890625 40.9375 10.546875 
Q 45.796875 14.203125 45.796875 21.1875 
Q 45.796875 27.640625 41.28125 31.265625 
Q 36.765625 34.90625 28.71875 34.90625 
L 20.21875 34.90625 
L 20.21875 43.015625 
L 29.109375 43.015625 
Q 36.375 43.015625 40.234375 45.921875 
Q 44.09375 48.828125 44.09375 54.296875 
Q 44.09375 59.90625 40.109375 62.90625 
Q 36.140625 65.921875 28.71875 65.921875 
Q 24.65625 65.921875 20.015625 65.03125 
Q 15.375 64.15625 9.8125 62.3125 
L 9.8125 71.09375 
Q 15.4375 72.65625 20.34375 73.4375 
Q 25.25 74.21875 29.59375 74.21875 
Q 40.828125 74.21875 47.359375 69.109375 
Q 53.90625 64.015625 53.90625 55.328125 
Q 53.90625 49.265625 50.4375 45.09375 
Q 46.96875 40.921875 40.578125 39.3125 
z
" id="DejaVuSans-51"/>
       </defs>
       <use transform="translate(0 0.765625)" xlink:href="#DejaVuSans-49"/>
       <use transform="translate(63.623047 0.765625)" xlink:href="#DejaVuSans-48"/>
       <use transform="translate(128.203125 39.046875)scale(0.7)" xlink:href="#DejaVuSans-8722"/>
       <use transform="translate(186.855469 39.046875)scale(0.7)" xlink:href="#DejaVuSans-51"/>
      </g>
     </g>
    </g>
    <g id="xtick_2">
     <g id="line2d_2">
      <g>
       <use style="stroke:#000000;stroke-width:0.8;" x="168.059823" xlink:href="#m43c033b9df" y="296.728"/>
      </g>
     </g>
     <g id="text_2">
      <!-- $\mathdefault{10^{-2}}$ -->
      <g transform="translate(156.309823 311.326437)scale(0.1 -0.1)">
       <defs>
        <path d="M 19.1875 8.296875 
L 53.609375 8.296875 
L 53.609375 0 
L 7.328125 0 
L 7.328125 8.296875 
Q 12.9375 14.109375 22.625 23.890625 
Q 32.328125 33.6875 34.8125 36.53125 
Q 39.546875 41.84375 41.421875 45.53125 
Q 43.3125 49.21875 43.3125 52.78125 
Q 43.3125 58.59375 39.234375 62.25 
Q 35.15625 65.921875 28.609375 65.921875 
Q 23.96875 65.921875 18.8125 64.3125 
Q 13.671875 62.703125 7.8125 59.421875 
L 7.8125 69.390625 
Q 13.765625 71.78125 18.9375 73 
Q 24.125 74.21875 28.421875 74.21875 
Q 39.75 74.21875 46.484375 68.546875 
Q 53.21875 62.890625 53.21875 53.421875 
Q 53.21875 48.921875 51.53125 44.890625 
Q 49.859375 40.875 45.40625 35.40625 
Q 44.1875 33.984375 37.640625 27.21875 
Q 31.109375 20.453125 19.1875 8.296875 
z
" id="DejaVuSans-50"/>
       </defs>
       <use transform="translate(0 0.765625)" xlink:href="#DejaVuSans-49"/>
       <use transform="translate(63.623047 0.765625)" xlink:href="#DejaVuSans-48"/>
       <use transform="translate(128.203125 39.046875)scale(0.7)" xlink:href="#DejaVuSans-8722"/>
       <use transform="translate(186.855469 39.046875)scale(0.7)" xlink:href="#DejaVuSans-50"/>
      </g>
     </g>
    </g>
    <g id="xtick_3">
     <g id="line2d_3">
      <g>
       <use style="stroke:#000000;stroke-width:0.8;" x="252.323072" xlink:href="#m43c033b9df" y="296.728"/>
      </g>
     </g>
     <g id="text_3">
      <!-- $\mathdefault{10^{-1}}$ -->
      <g transform="translate(240.573072 311.326437)scale(0.1 -0.1)">
       <use transform="translate(0 0.684375)" xlink:href="#DejaVuSans-49"/>
       <use transform="translate(63.623047 0.684375)" xlink:href="#DejaVuSans-48"/>
       <use transform="translate(128.203125 38.965625)scale(0.7)" xlink:href="#DejaVuSans-8722"/>
       <use transform="translate(186.855469 38.965625)scale(0.7)" xlink:href="#DejaVuSans-49"/>
      </g>
     </g>
    </g>
    <g id="xtick_4">
     <g id="line2d_4">
      <g>
       <use style="stroke:#000000;stroke-width:0.8;" x="336.58632" xlink:href="#m43c033b9df" y="296.728"/>
      </g>
     </g>
     <g id="text_4">
      <!-- $\mathdefault{10^{0}}$ -->
      <g transform="translate(327.78632 311.326437)scale(0.1 -0.1)">
       <use transform="translate(0 0.765625)" xlink:href="#DejaVuSans-49"/>
       <use transform="translate(63.623047 0.765625)" xlink:href="#DejaVuSans-48"/>
       <use transform="translate(128.203125 39.046875)scale(0.7)" xlink:href="#DejaVuSans-48"/>
      </g>
     </g>
    </g>
    <g id="xtick_5">
     <g id="line2d_5">
      <g>
       <use style="stroke:#000000;stroke-width:0.8;" x="420.849569" xlink:href="#m43c033b9df" y="296.728"/>
      </g>
     </g>
     <g id="text_5">
      <!-- $\mathdefault{10^{1}}$ -->
      <g transform="translate(412.049569 311.326437)scale(0.1 -0.1)">
       <use transform="translate(0 0.684375)" xlink:href="#DejaVuSans-49"/>
       <use transform="translate(63.623047 0.684375)" xlink:href="#DejaVuSans-48"/>
       <use transform="translate(128.203125 38.965625)scale(0.7)" xlink:href="#DejaVuSans-49"/>
      </g>
     </g>
    </g>
    <g id="xtick_6">
     <g id="line2d_6">
      <defs>
       <path d="M 0 0 
L 0 2 
" id="mec4b41144c" style="stroke:#000000;stroke-width:0.6;"/>
      </defs>
      <g>
       <use style="stroke:#000000;stroke-width:0.6;" x="79.9409" xlink:href="#mec4b41144c" y="296.728"/>
      </g>
     </g>
    </g>
    <g id="xtick_7">
     <g id="line2d_7">
      <g>
       <use style="stroke:#000000;stroke-width:0.6;" x="109.16234" xlink:href="#mec4b41144c" y="296.728"/>
      </g>
     </g>
    </g>
    <g id="xtick_8">
     <g id="line2d_8">
      <g>
       <use style="stroke:#000000;stroke-width:0.6;" x="124.000362" xlink:href="#mec4b41144c" y="296.728"/>
      </g>
     </g>
    </g>
    <g id="xtick_9">
     <g id="line2d_9">
      <g>
       <use style="stroke:#000000;stroke-width:0.6;" x="134.528105" xlink:href="#mec4b41144c" y="296.728"/>
      </g>
     </g>
    </g>
    <g id="xtick_10">
     <g id="line2d_10">
      <g>
       <use style="stroke:#000000;stroke-width:0.6;" x="142.694058" xlink:href="#mec4b41144c" y="296.728"/>
      </g>
     </g>
    </g>
    <g id="xtick_11">
     <g id="line2d_11">
      <g>
       <use style="stroke:#000000;stroke-width:0.6;" x="149.366127" xlink:href="#mec4b41144c" y="296.728"/>
      </g>
     </g>
    </g>
    <g id="xtick_12">
     <g id="line2d_12">
      <g>
       <use style="stroke:#000000;stroke-width:0.6;" x="155.007281" xlink:href="#mec4b41144c" y="296.728"/>
      </g>
     </g>
    </g>
    <g id="xtick_13">
     <g id="line2d_13">
      <g>
       <use style="stroke:#000000;stroke-width:0.6;" x="159.893871" xlink:href="#mec4b41144c" y="296.728"/>
      </g>
     </g>
    </g>
    <g id="xtick_14">
     <g id="line2d_14">
      <g>
       <use style="stroke:#000000;stroke-width:0.6;" x="164.204148" xlink:href="#mec4b41144c" y="296.728"/>
      </g>
     </g>
    </g>
    <g id="xtick_15">
     <g id="line2d_15">
      <g>
       <use style="stroke:#000000;stroke-width:0.6;" x="193.425589" xlink:href="#mec4b41144c" y="296.728"/>
      </g>
     </g>
    </g>
    <g id="xtick_16">
     <g id="line2d_16">
      <g>
       <use style="stroke:#000000;stroke-width:0.6;" x="208.26361" xlink:href="#mec4b41144c" y="296.728"/>
      </g>
     </g>
    </g>
    <g id="xtick_17">
     <g id="line2d_17">
      <g>
       <use style="stroke:#000000;stroke-width:0.6;" x="218.791354" xlink:href="#mec4b41144c" y="296.728"/>
      </g>
     </g>
    </g>
    <g id="xtick_18">
     <g id="line2d_18">
      <g>
       <use style="stroke:#000000;stroke-width:0.6;" x="226.957306" xlink:href="#mec4b41144c" y="296.728"/>
      </g>
     </g>
    </g>
    <g id="xtick_19">
     <g id="line2d_19">
      <g>
       <use style="stroke:#000000;stroke-width:0.6;" x="233.629375" xlink:href="#mec4b41144c" y="296.728"/>
      </g>
     </g>
    </g>
    <g id="xtick_20">
     <g id="line2d_20">
      <g>
       <use style="stroke:#000000;stroke-width:0.6;" x="239.270529" xlink:href="#mec4b41144c" y="296.728"/>
      </g>
     </g>
    </g>
    <g id="xtick_21">
     <g id="line2d_21">
      <g>
       <use style="stroke:#000000;stroke-width:0.6;" x="244.157119" xlink:href="#mec4b41144c" y="296.728"/>
      </g>
     </g>
    </g>
    <g id="xtick_22">
     <g id="line2d_22">
      <g>
       <use style="stroke:#000000;stroke-width:0.6;" x="248.467397" xlink:href="#mec4b41144c" y="296.728"/>
      </g>
     </g>
    </g>
    <g id="xtick_23">
     <g id="line2d_23">
      <g>
       <use style="stroke:#000000;stroke-width:0.6;" x="277.688837" xlink:href="#mec4b41144c" y="296.728"/>
      </g>
     </g>
    </g>
    <g id="xtick_24">
     <g id="line2d_24">
      <g>
       <use style="stroke:#000000;stroke-width:0.6;" x="292.526859" xlink:href="#mec4b41144c" y="296.728"/>
      </g>
     </g>
    </g>
    <g id="xtick_25">
     <g id="line2d_25">
      <g>
       <use style="stroke:#000000;stroke-width:0.6;" x="303.054602" xlink:href="#mec4b41144c" y="296.728"/>
      </g>
     </g>
    </g>
    <g id="xtick_26">
     <g id="line2d_26">
      <g>
       <use style="stroke:#000000;stroke-width:0.6;" x="311.220555" xlink:href="#mec4b41144c" y="296.728"/>
      </g>
     </g>
    </g>
    <g id="xtick_27">
     <g id="line2d_27">
      <g>
       <use style="stroke:#000000;stroke-width:0.6;" x="317.892624" xlink:href="#mec4b41144c" y="296.728"/>
      </g>
     </g>
    </g>
    <g id="xtick_28">
     <g id="line2d_28">
      <g>
       <use style="stroke:#000000;stroke-width:0.6;" x="323.533778" xlink:href="#mec4b41144c" y="296.728"/>
      </g>
     </g>
    </g>
    <g id="xtick_29">
     <g id="line2d_29">
      <g>
       <use style="stroke:#000000;stroke-width:0.6;" x="328.420368" xlink:href="#mec4b41144c" y="296.728"/>
      </g>
     </g>
    </g>
    <g id="xtick_30">
     <g id="line2d_30">
      <g>
       <use style="stroke:#000000;stroke-width:0.6;" x="332.730645" xlink:href="#mec4b41144c" y="296.728"/>
      </g>
     </g>
    </g>
    <g id="xtick_31">
     <g id="line2d_31">
      <g>
       <use style="stroke:#000000;stroke-width:0.6;" x="361.952086" xlink:href="#mec4b41144c" y="296.728"/>
      </g>
     </g>
    </g>
    <g id="xtick_32">
     <g id="line2d_32">
      <g>
       <use style="stroke:#000000;stroke-width:0.6;" x="376.790107" xlink:href="#mec4b41144c" y="296.728"/>
      </g>
     </g>
    </g>
    <g id="xtick_33">
     <g id="line2d_33">
      <g>
       <use style="stroke:#000000;stroke-width:0.6;" x="387.317851" xlink:href="#mec4b41144c" y="296.728"/>
      </g>
     </g>
    </g>
    <g id="xtick_34">
     <g id="line2d_34">
      <g>
       <use style="stroke:#000000;stroke-width:0.6;" x="395.483803" xlink:href="#mec4b41144c" y="296.728"/>
      </g>
     </g>
    </g>
    <g id="xtick_35">
     <g id="line2d_35">
      <g>
       <use style="stroke:#000000;stroke-width:0.6;" x="402.155873" xlink:href="#mec4b41144c" y="296.728"/>
      </g>
     </g>
    </g>
    <g id="xtick_36">
     <g id="line2d_36">
      <g>
       <use style="stroke:#000000;stroke-width:0.6;" x="407.797026" xlink:href="#mec4b41144c" y="296.728"/>
      </g>
     </g>
    </g>
    <g id="xtick_37">
     <g id="line2d_37">
      <g>
       <use style="stroke:#000000;stroke-width:0.6;" x="412.683616" xlink:href="#mec4b41144c" y="296.728"/>
      </g>
     </g>
    </g>
    <g id="xtick_38">
     <g id="line2d_38">
      <g>
       <use style="stroke:#000000;stroke-width:0.6;" x="416.993894" xlink:href="#mec4b41144c" y="296.728"/>
      </g>
     </g>
    </g>
    <g id="xtick_39">
     <g id="line2d_39">
      <g>
       <use style="stroke:#000000;stroke-width:0.6;" x="446.215334" xlink:href="#mec4b41144c" y="296.728"/>
      </g>
     </g>
    </g>
    <g id="text_6">
     <!-- Time [sec] -->
     <g transform="translate(226.824044 328.043937)scale(0.14 -0.14)">
      <defs>
       <path d="M -0.296875 72.90625 
L 61.375 72.90625 
L 61.375 64.59375 
L 35.5 64.59375 
L 35.5 0 
L 25.59375 0 
L 25.59375 64.59375 
L -0.296875 64.59375 
z
" id="DejaVuSans-84"/>
       <path d="M 9.421875 54.6875 
L 18.40625 54.6875 
L 18.40625 0 
L 9.421875 0 
z
M 9.421875 75.984375 
L 18.40625 75.984375 
L 18.40625 64.59375 
L 9.421875 64.59375 
z
" id="DejaVuSans-105"/>
       <path d="M 52 44.1875 
Q 55.375 50.25 60.0625 53.125 
Q 64.75 56 71.09375 56 
Q 79.640625 56 84.28125 50.015625 
Q 88.921875 44.046875 88.921875 33.015625 
L 88.921875 0 
L 79.890625 0 
L 79.890625 32.71875 
Q 79.890625 40.578125 77.09375 44.375 
Q 74.3125 48.1875 68.609375 48.1875 
Q 61.625 48.1875 57.5625 43.546875 
Q 53.515625 38.921875 53.515625 30.90625 
L 53.515625 0 
L 44.484375 0 
L 44.484375 32.71875 
Q 44.484375 40.625 41.703125 44.40625 
Q 38.921875 48.1875 33.109375 48.1875 
Q 26.21875 48.1875 22.15625 43.53125 
Q 18.109375 38.875 18.109375 30.90625 
L 18.109375 0 
L 9.078125 0 
L 9.078125 54.6875 
L 18.109375 54.6875 
L 18.109375 46.1875 
Q 21.1875 51.21875 25.484375 53.609375 
Q 29.78125 56 35.6875 56 
Q 41.65625 56 45.828125 52.96875 
Q 50 49.953125 52 44.1875 
z
" id="DejaVuSans-109"/>
       <path d="M 56.203125 29.59375 
L 56.203125 25.203125 
L 14.890625 25.203125 
Q 15.484375 15.921875 20.484375 11.0625 
Q 25.484375 6.203125 34.421875 6.203125 
Q 39.59375 6.203125 44.453125 7.46875 
Q 49.3125 8.734375 54.109375 11.28125 
L 54.109375 2.78125 
Q 49.265625 0.734375 44.1875 -0.34375 
Q 39.109375 -1.421875 33.890625 -1.421875 
Q 20.796875 -1.421875 13.15625 6.1875 
Q 5.515625 13.8125 5.515625 26.8125 
Q 5.515625 40.234375 12.765625 48.109375 
Q 20.015625 56 32.328125 56 
Q 43.359375 56 49.78125 48.890625 
Q 56.203125 41.796875 56.203125 29.59375 
z
M 47.21875 32.234375 
Q 47.125 39.59375 43.09375 43.984375 
Q 39.0625 48.390625 32.421875 48.390625 
Q 24.90625 48.390625 20.390625 44.140625 
Q 15.875 39.890625 15.1875 32.171875 
z
" id="DejaVuSans-101"/>
       <path id="DejaVuSans-32"/>
       <path d="M 8.59375 75.984375 
L 29.296875 75.984375 
L 29.296875 69 
L 17.578125 69 
L 17.578125 -6.203125 
L 29.296875 -6.203125 
L 29.296875 -13.1875 
L 8.59375 -13.1875 
z
" id="DejaVuSans-91"/>
       <path d="M 44.28125 53.078125 
L 44.28125 44.578125 
Q 40.484375 46.53125 36.375 47.5 
Q 32.28125 48.484375 27.875 48.484375 
Q 21.1875 48.484375 17.84375 46.4375 
Q 14.5 44.390625 14.5 40.28125 
Q 14.5 37.15625 16.890625 35.375 
Q 19.28125 33.59375 26.515625 31.984375 
L 29.59375 31.296875 
Q 39.15625 29.25 43.1875 25.515625 
Q 47.21875 21.78125 47.21875 15.09375 
Q 47.21875 7.46875 41.1875 3.015625 
Q 35.15625 -1.421875 24.609375 -1.421875 
Q 20.21875 -1.421875 15.453125 -0.5625 
Q 10.6875 0.296875 5.421875 2 
L 5.421875 11.28125 
Q 10.40625 8.6875 15.234375 7.390625 
Q 20.0625 6.109375 24.8125 6.109375 
Q 31.15625 6.109375 34.5625 8.28125 
Q 37.984375 10.453125 37.984375 14.40625 
Q 37.984375 18.0625 35.515625 20.015625 
Q 33.0625 21.96875 24.703125 23.78125 
L 21.578125 24.515625 
Q 13.234375 26.265625 9.515625 29.90625 
Q 5.8125 33.546875 5.8125 39.890625 
Q 5.8125 47.609375 11.28125 51.796875 
Q 16.75 56 26.8125 56 
Q 31.78125 56 36.171875 55.265625 
Q 40.578125 54.546875 44.28125 53.078125 
z
" id="DejaVuSans-115"/>
       <path d="M 48.78125 52.59375 
L 48.78125 44.1875 
Q 44.96875 46.296875 41.140625 47.34375 
Q 37.3125 48.390625 33.40625 48.390625 
Q 24.65625 48.390625 19.8125 42.84375 
Q 14.984375 37.3125 14.984375 27.296875 
Q 14.984375 17.28125 19.8125 11.734375 
Q 24.65625 6.203125 33.40625 6.203125 
Q 37.3125 6.203125 41.140625 7.25 
Q 44.96875 8.296875 48.78125 10.40625 
L 48.78125 2.09375 
Q 45.015625 0.34375 40.984375 -0.53125 
Q 36.96875 -1.421875 32.421875 -1.421875 
Q 20.0625 -1.421875 12.78125 6.34375 
Q 5.515625 14.109375 5.515625 27.296875 
Q 5.515625 40.671875 12.859375 48.328125 
Q 20.21875 56 33.015625 56 
Q 37.15625 56 41.109375 55.140625 
Q 45.0625 54.296875 48.78125 52.59375 
z
" id="DejaVuSans-99"/>
       <path d="M 30.421875 75.984375 
L 30.421875 -13.1875 
L 9.71875 -13.1875 
L 9.71875 -6.203125 
L 21.390625 -6.203125 
L 21.390625 69 
L 9.71875 69 
L 9.71875 75.984375 
z
" id="DejaVuSans-93"/>
      </defs>
      <use xlink:href="#DejaVuSans-84"/>
      <use x="57.958984" xlink:href="#DejaVuSans-105"/>
      <use x="85.742188" xlink:href="#DejaVuSans-109"/>
      <use x="183.154297" xlink:href="#DejaVuSans-101"/>
      <use x="244.677734" xlink:href="#DejaVuSans-32"/>
      <use x="276.464844" xlink:href="#DejaVuSans-91"/>
      <use x="315.478516" xlink:href="#DejaVuSans-115"/>
      <use x="367.578125" xlink:href="#DejaVuSans-101"/>
      <use x="429.101562" xlink:href="#DejaVuSans-99"/>
      <use x="484.082031" xlink:href="#DejaVuSans-93"/>
     </g>
    </g>
   </g>
   <g id="matplotlib.axis_2">
    <g id="ytick_1">
     <g id="line2d_40">
      <defs>
       <path d="M 0 0 
L -3.5 0 
" id="m4257fa86c6" style="stroke:#000000;stroke-width:0.8;"/>
      </defs>
      <g>
       <use style="stroke:#000000;stroke-width:0.8;" x="76.881214" xlink:href="#m4257fa86c6" y="275.238015"/>
      </g>
     </g>
     <g id="text_7">
      <!-- $\mathdefault{10^{-14}}$ -->
      <g transform="translate(41.981214 279.037233)scale(0.1 -0.1)">
       <defs>
        <path d="M 37.796875 64.3125 
L 12.890625 25.390625 
L 37.796875 25.390625 
z
M 35.203125 72.90625 
L 47.609375 72.90625 
L 47.609375 25.390625 
L 58.015625 25.390625 
L 58.015625 17.1875 
L 47.609375 17.1875 
L 47.609375 0 
L 37.796875 0 
L 37.796875 17.1875 
L 4.890625 17.1875 
L 4.890625 26.703125 
z
" id="DejaVuSans-52"/>
       </defs>
       <use transform="translate(0 0.684375)" xlink:href="#DejaVuSans-49"/>
       <use transform="translate(63.623047 0.684375)" xlink:href="#DejaVuSans-48"/>
       <use transform="translate(128.203125 38.965625)scale(0.7)" xlink:href="#DejaVuSans-8722"/>
       <use transform="translate(186.855469 38.965625)scale(0.7)" xlink:href="#DejaVuSans-49"/>
       <use transform="translate(231.391602 38.965625)scale(0.7)" xlink:href="#DejaVuSans-52"/>
      </g>
     </g>
    </g>
    <g id="ytick_2">
     <g id="line2d_41">
      <g>
       <use style="stroke:#000000;stroke-width:0.8;" x="76.881214" xlink:href="#m4257fa86c6" y="243.76874"/>
      </g>
     </g>
     <g id="text_8">
      <!-- $\mathdefault{10^{-12}}$ -->
      <g transform="translate(41.981214 247.567959)scale(0.1 -0.1)">
       <use transform="translate(0 0.765625)" xlink:href="#DejaVuSans-49"/>
       <use transform="translate(63.623047 0.765625)" xlink:href="#DejaVuSans-48"/>
       <use transform="translate(128.203125 39.046875)scale(0.7)" xlink:href="#DejaVuSans-8722"/>
       <use transform="translate(186.855469 39.046875)scale(0.7)" xlink:href="#DejaVuSans-49"/>
       <use transform="translate(231.391602 39.046875)scale(0.7)" xlink:href="#DejaVuSans-50"/>
      </g>
     </g>
    </g>
    <g id="ytick_3">
     <g id="line2d_42">
      <g>
       <use style="stroke:#000000;stroke-width:0.8;" x="76.881214" xlink:href="#m4257fa86c6" y="212.299465"/>
      </g>
     </g>
     <g id="text_9">
      <!-- $\mathdefault{10^{-10}}$ -->
      <g transform="translate(41.981214 216.098684)scale(0.1 -0.1)">
       <use transform="translate(0 0.765625)" xlink:href="#DejaVuSans-49"/>
       <use transform="translate(63.623047 0.765625)" xlink:href="#DejaVuSans-48"/>
       <use transform="translate(128.203125 39.046875)scale(0.7)" xlink:href="#DejaVuSans-8722"/>
       <use transform="translate(186.855469 39.046875)scale(0.7)" xlink:href="#DejaVuSans-49"/>
       <use transform="translate(231.391602 39.046875)scale(0.7)" xlink:href="#DejaVuSans-48"/>
      </g>
     </g>
    </g>
    <g id="ytick_4">
     <g id="line2d_43">
      <g>
       <use style="stroke:#000000;stroke-width:0.8;" x="76.881214" xlink:href="#m4257fa86c6" y="180.83019"/>
      </g>
     </g>
     <g id="text_10">
      <!-- $\mathdefault{10^{-8}}$ -->
      <g transform="translate(46.381214 184.629409)scale(0.1 -0.1)">
       <defs>
        <path d="M 31.78125 34.625 
Q 24.75 34.625 20.71875 30.859375 
Q 16.703125 27.09375 16.703125 20.515625 
Q 16.703125 13.921875 20.71875 10.15625 
Q 24.75 6.390625 31.78125 6.390625 
Q 38.8125 6.390625 42.859375 10.171875 
Q 46.921875 13.96875 46.921875 20.515625 
Q 46.921875 27.09375 42.890625 30.859375 
Q 38.875 34.625 31.78125 34.625 
z
M 21.921875 38.8125 
Q 15.578125 40.375 12.03125 44.71875 
Q 8.5 49.078125 8.5 55.328125 
Q 8.5 64.0625 14.71875 69.140625 
Q 20.953125 74.21875 31.78125 74.21875 
Q 42.671875 74.21875 48.875 69.140625 
Q 55.078125 64.0625 55.078125 55.328125 
Q 55.078125 49.078125 51.53125 44.71875 
Q 48 40.375 41.703125 38.8125 
Q 48.828125 37.15625 52.796875 32.3125 
Q 56.78125 27.484375 56.78125 20.515625 
Q 56.78125 9.90625 50.3125 4.234375 
Q 43.84375 -1.421875 31.78125 -1.421875 
Q 19.734375 -1.421875 13.25 4.234375 
Q 6.78125 9.90625 6.78125 20.515625 
Q 6.78125 27.484375 10.78125 32.3125 
Q 14.796875 37.15625 21.921875 38.8125 
z
M 18.3125 54.390625 
Q 18.3125 48.734375 21.84375 45.5625 
Q 25.390625 42.390625 31.78125 42.390625 
Q 38.140625 42.390625 41.71875 45.5625 
Q 45.3125 48.734375 45.3125 54.390625 
Q 45.3125 60.0625 41.71875 63.234375 
Q 38.140625 66.40625 31.78125 66.40625 
Q 25.390625 66.40625 21.84375 63.234375 
Q 18.3125 60.0625 18.3125 54.390625 
z
" id="DejaVuSans-56"/>
       </defs>
       <use transform="translate(0 0.765625)" xlink:href="#DejaVuSans-49"/>
       <use transform="translate(63.623047 0.765625)" xlink:href="#DejaVuSans-48"/>
       <use transform="translate(128.203125 39.046875)scale(0.7)" xlink:href="#DejaVuSans-8722"/>
       <use transform="translate(186.855469 39.046875)scale(0.7)" xlink:href="#DejaVuSans-56"/>
      </g>
     </g>
    </g>
    <g id="ytick_5">
     <g id="line2d_44">
      <g>
       <use style="stroke:#000000;stroke-width:0.8;" x="76.881214" xlink:href="#m4257fa86c6" y="149.360915"/>
      </g>
     </g>
     <g id="text_11">
      <!-- $\mathdefault{10^{-6}}$ -->
      <g transform="translate(46.381214 153.160134)scale(0.1 -0.1)">
       <defs>
        <path d="M 33.015625 40.375 
Q 26.375 40.375 22.484375 35.828125 
Q 18.609375 31.296875 18.609375 23.390625 
Q 18.609375 15.53125 22.484375 10.953125 
Q 26.375 6.390625 33.015625 6.390625 
Q 39.65625 6.390625 43.53125 10.953125 
Q 47.40625 15.53125 47.40625 23.390625 
Q 47.40625 31.296875 43.53125 35.828125 
Q 39.65625 40.375 33.015625 40.375 
z
M 52.59375 71.296875 
L 52.59375 62.3125 
Q 48.875 64.0625 45.09375 64.984375 
Q 41.3125 65.921875 37.59375 65.921875 
Q 27.828125 65.921875 22.671875 59.328125 
Q 17.53125 52.734375 16.796875 39.40625 
Q 19.671875 43.65625 24.015625 45.921875 
Q 28.375 48.1875 33.59375 48.1875 
Q 44.578125 48.1875 50.953125 41.515625 
Q 57.328125 34.859375 57.328125 23.390625 
Q 57.328125 12.15625 50.6875 5.359375 
Q 44.046875 -1.421875 33.015625 -1.421875 
Q 20.359375 -1.421875 13.671875 8.265625 
Q 6.984375 17.96875 6.984375 36.375 
Q 6.984375 53.65625 15.1875 63.9375 
Q 23.390625 74.21875 37.203125 74.21875 
Q 40.921875 74.21875 44.703125 73.484375 
Q 48.484375 72.75 52.59375 71.296875 
z
" id="DejaVuSans-54"/>
       </defs>
       <use transform="translate(0 0.765625)" xlink:href="#DejaVuSans-49"/>
       <use transform="translate(63.623047 0.765625)" xlink:href="#DejaVuSans-48"/>
       <use transform="translate(128.203125 39.046875)scale(0.7)" xlink:href="#DejaVuSans-8722"/>
       <use transform="translate(186.855469 39.046875)scale(0.7)" xlink:href="#DejaVuSans-54"/>
      </g>
     </g>
    </g>
    <g id="ytick_6">
     <g id="line2d_45">
      <g>
       <use style="stroke:#000000;stroke-width:0.8;" x="76.881214" xlink:href="#m4257fa86c6" y="117.891641"/>
      </g>
     </g>
     <g id="text_12">
      <!-- $\mathdefault{10^{-4}}$ -->
      <g transform="translate(46.381214 121.690859)scale(0.1 -0.1)">
       <use transform="translate(0 0.684375)" xlink:href="#DejaVuSans-49"/>
       <use transform="translate(63.623047 0.684375)" xlink:href="#DejaVuSans-48"/>
       <use transform="translate(128.203125 38.965625)scale(0.7)" xlink:href="#DejaVuSans-8722"/>
       <use transform="translate(186.855469 38.965625)scale(0.7)" xlink:href="#DejaVuSans-52"/>
      </g>
     </g>
    </g>
    <g id="ytick_7">
     <g id="line2d_46">
      <g>
       <use style="stroke:#000000;stroke-width:0.8;" x="76.881214" xlink:href="#m4257fa86c6" y="86.422366"/>
      </g>
     </g>
     <g id="text_13">
      <!-- $\mathdefault{10^{-2}}$ -->
      <g transform="translate(46.381214 90.221584)scale(0.1 -0.1)">
       <use transform="translate(0 0.765625)" xlink:href="#DejaVuSans-49"/>
       <use transform="translate(63.623047 0.765625)" xlink:href="#DejaVuSans-48"/>
       <use transform="translate(128.203125 39.046875)scale(0.7)" xlink:href="#DejaVuSans-8722"/>
       <use transform="translate(186.855469 39.046875)scale(0.7)" xlink:href="#DejaVuSans-50"/>
      </g>
     </g>
    </g>
    <g id="ytick_8">
     <g id="line2d_47">
      <g>
       <use style="stroke:#000000;stroke-width:0.8;" x="76.881214" xlink:href="#m4257fa86c6" y="54.953091"/>
      </g>
     </g>
     <g id="text_14">
      <!-- $\mathdefault{10^{0}}$ -->
      <g transform="translate(52.281214 58.75231)scale(0.1 -0.1)">
       <use transform="translate(0 0.765625)" xlink:href="#DejaVuSans-49"/>
       <use transform="translate(63.623047 0.765625)" xlink:href="#DejaVuSans-48"/>
       <use transform="translate(128.203125 39.046875)scale(0.7)" xlink:href="#DejaVuSans-48"/>
      </g>
     </g>
    </g>
    <g id="text_15">
     <!-- $\frac{F(x) - F(x*)}{F(x^0) - F(x*)}$ -->
     <g transform="translate(29.581214 202.984)rotate(-90)scale(0.14 -0.14)">
      <defs>
       <path d="M 16.890625 72.90625 
L 58.6875 72.90625 
L 57.078125 64.59375 
L 25.09375 64.59375 
L 20.90625 43.109375 
L 49.8125 43.109375 
L 48.1875 34.8125 
L 19.28125 34.8125 
L 12.5 0 
L 2.6875 0 
z
" id="DejaVuSans-Oblique-70"/>
       <path d="M 31 75.875 
Q 24.46875 64.65625 21.28125 53.65625 
Q 18.109375 42.671875 18.109375 31.390625 
Q 18.109375 20.125 21.3125 9.0625 
Q 24.515625 -2 31 -13.1875 
L 23.1875 -13.1875 
Q 15.875 -1.703125 12.234375 9.375 
Q 8.59375 20.453125 8.59375 31.390625 
Q 8.59375 42.28125 12.203125 53.3125 
Q 15.828125 64.359375 23.1875 75.875 
z
" id="DejaVuSans-40"/>
       <path d="M 60.015625 54.6875 
L 34.90625 27.875 
L 50.296875 0 
L 39.984375 0 
L 28.421875 21.6875 
L 8.296875 0 
L -2.59375 0 
L 24.3125 28.8125 
L 10.015625 54.6875 
L 20.3125 54.6875 
L 30.8125 34.90625 
L 49.125 54.6875 
z
" id="DejaVuSans-Oblique-120"/>
       <path d="M 8.015625 75.875 
L 15.828125 75.875 
Q 23.140625 64.359375 26.78125 53.3125 
Q 30.421875 42.28125 30.421875 31.390625 
Q 30.421875 20.453125 26.78125 9.375 
Q 23.140625 -1.703125 15.828125 -13.1875 
L 8.015625 -13.1875 
Q 14.5 -2 17.703125 9.0625 
Q 20.90625 20.125 20.90625 31.390625 
Q 20.90625 42.671875 17.703125 53.65625 
Q 14.5 64.65625 8.015625 75.875 
z
" id="DejaVuSans-41"/>
       <path d="M 47.015625 60.890625 
L 29.5 51.421875 
L 47.015625 41.890625 
L 44.1875 37.109375 
L 27.78125 47.015625 
L 27.78125 28.609375 
L 22.21875 28.609375 
L 22.21875 47.015625 
L 5.8125 37.109375 
L 2.984375 41.890625 
L 20.515625 51.421875 
L 2.984375 60.890625 
L 5.8125 65.71875 
L 22.21875 55.8125 
L 22.21875 74.21875 
L 27.78125 74.21875 
L 27.78125 55.8125 
L 44.1875 65.71875 
z
" id="DejaVuSans-42"/>
      </defs>
      <use transform="translate(18 53.8875)scale(0.7)" xlink:href="#DejaVuSans-Oblique-70"/>
      <use transform="translate(58.263672 53.8875)scale(0.7)" xlink:href="#DejaVuSans-40"/>
      <use transform="translate(85.573242 53.8875)scale(0.7)" xlink:href="#DejaVuSans-Oblique-120"/>
      <use transform="translate(126.999023 53.8875)scale(0.7)" xlink:href="#DejaVuSans-41"/>
      <use transform="translate(167.946289 53.8875)scale(0.7)" xlink:href="#DejaVuSans-8722"/>
      <use transform="translate(240.236328 53.8875)scale(0.7)" xlink:href="#DejaVuSans-Oblique-70"/>
      <use transform="translate(280.5 53.8875)scale(0.7)" xlink:href="#DejaVuSans-40"/>
      <use transform="translate(307.80957 53.8875)scale(0.7)" xlink:href="#DejaVuSans-Oblique-120"/>
      <use transform="translate(362.873047 53.8875)scale(0.7)" xlink:href="#DejaVuSans-42"/>
      <use transform="translate(411.510742 53.8875)scale(0.7)" xlink:href="#DejaVuSans-41"/>
      <use transform="translate(0 -49.757812)scale(0.7)" xlink:href="#DejaVuSans-Oblique-70"/>
      <use transform="translate(40.263672 -49.757812)scale(0.7)" xlink:href="#DejaVuSans-40"/>
      <use transform="translate(67.573242 -49.757812)scale(0.7)" xlink:href="#DejaVuSans-Oblique-120"/>
      <use transform="translate(112.125326 -22.960938)scale(0.49)" xlink:href="#DejaVuSans-48"/>
      <use transform="translate(145.214681 -49.757812)scale(0.7)" xlink:href="#DejaVuSans-41"/>
      <use transform="translate(186.161947 -49.757812)scale(0.7)" xlink:href="#DejaVuSans-8722"/>
      <use transform="translate(258.451986 -49.757812)scale(0.7)" xlink:href="#DejaVuSans-Oblique-70"/>
      <use transform="translate(298.715658 -49.757812)scale(0.7)" xlink:href="#DejaVuSans-40"/>
      <use transform="translate(326.025228 -49.757812)scale(0.7)" xlink:href="#DejaVuSans-Oblique-120"/>
      <use transform="translate(381.088704 -49.757812)scale(0.7)" xlink:href="#DejaVuSans-42"/>
      <use transform="translate(429.7264 -49.757812)scale(0.7)" xlink:href="#DejaVuSans-41"/>
      <path d="M 0 19.65625 
L 0 25.90625 
L 457.03597 25.90625 
L 457.03597 19.65625 
L 0 19.65625 
z
"/>
     </g>
    </g>
   </g>
   <g id="LineCollection_1">
    <path clip-path="url(#p3d4f1a0231)" d="M 76.881214 212.299465 
L 450 212.299465 
" style="fill:none;stroke:#000000;stroke-dasharray:5.55,2.4;stroke-dashoffset:0;stroke-width:1.5;"/>
   </g>
   <g id="line2d_48">
    <path clip-path="url(#p3d4f1a0231)" d="M 282.485735 283.969021 
L 282.792231 283.86626 
L 282.491373 284.073351 
L 282.688158 283.141185 
L 280.230187 282.697297 
L 280.850904 280.960874 
L 279.866392 276.870577 
L 279.280379 272.736901 
L 279.657569 268.050512 
L 278.303086 263.02529 
L 274.518079 257.992078 
L 272.87443 252.269669 
L 272.814761 246.636061 
L 272.458569 241.657745 
L 270.888226 235.858388 
L 267.720316 230.815207 
L 267.018174 224.91009 
L 265.816149 220.229186 
L 261.80975 213.446851 
L 260.844114 208.730437 
L 257.819119 202.800076 
L 255.168475 196.643622 
L 252.972572 192.830777 
L 250.102033 186.945297 
L 245.110611 181.379175 
L 237.876211 173.671369 
L 231.014524 167.529701 
L 225.660154 164.993853 
L 224.098343 162.609728 
L 219.996751 160.549081 
L 218.96443 158.71643 
L 218.310041 156.989006 
L 214.866079 151.748773 
L 214.088107 143.244801 
L 206.241028 132.056389 
L 201.748146 128.654978 
L 200.799037 127.790915 
L 197.026569 120.729716 
L 188.51607 117.94771 
L 185.136747 116.811744 
L 187.773242 113.255252 
L 180.200442 109.562411 
L 171.571095 102.077531 
L 163.297358 99.154745 
L 159.144085 99.218942 
L 159.257833 99.038551 
L 142.674987 92.727509 
L 144.357021 92.792934 
L 117.697367 85.655951 
" style="fill:none;stroke:#1f77b4;stroke-linecap:square;stroke-width:3;"/>
   </g>
   <g id="line2d_49">
    <path clip-path="url(#p3d4f1a0231)" d="M 145.673236 63.595406 
L 143.377533 66.909382 
L 164.019525 69.457586 
L 162.023713 71.580829 
L 153.058281 75.079317 
L 168.188324 78.91245 
L 171.310066 83.070578 
L 186.574319 87.681898 
L 199.385908 95.023086 
L 203.089944 107.884674 
L 215.205197 125.205942 
L 233.341628 135.813088 
L 247.231242 143.598924 
L 260.734442 151.492613 
L 272.650703 158.360368 
L 284.29076 165.470197 
L 292.694884 174.507591 
L 304.213144 189.593407 
L 317.70372 212.807929 
L 331.341346 247.659368 
L 346.028789 284.507367 
L 359.798681 285.214909 
L 373.685424 285.214909 
L 394.832114 285.214909 
L 423.435349 285.214909 
" style="fill:none;stroke:#ff7f0e;stroke-linecap:square;stroke-width:3;"/>
   </g>
   <g id="line2d_50">
    <path clip-path="url(#p3d4f1a0231)" d="M 158.802635 59.222046 
L 164.473095 65.329156 
L 165.671037 73.34719 
L 171.495757 80.830313 
L 177.732545 91.979821 
L 194.37872 129.561032 
L 214.315226 181.353133 
L 230.63585 245.758952 
L 247.046095 285.214909 
L 247.378395 285.214909 
L 248.094985 285.214909 
L 248.638522 285.214909 
L 247.829215 285.214909 
L 248.39388 285.214909 
" style="fill:none;stroke:#2ca02c;stroke-linecap:square;stroke-width:3;"/>
   </g>
   <g id="line2d_51">
    <path clip-path="url(#p3d4f1a0231)" d="M 282.127882 56.805524 
L 291.819594 56.805524 
L 302.074815 56.805524 
L 316.710955 56.805524 
L 346.027001 84.965707 
L 367.772988 217.358646 
L 363.882961 217.358646 
L 365.900756 217.358646 
L 363.074685 217.358646 
L 362.412243 217.358646 
L 362.704775 217.358646 
" style="fill:none;stroke:#d62728;stroke-linecap:square;stroke-width:3;"/>
   </g>
   <g id="line2d_52">
    <path clip-path="url(#p3d4f1a0231)" d="M 104.095804 54.953091 
L 125.974105 64.396183 
L 151.136024 68.684982 
L 146.922466 69.440113 
L 135.468319 70.847905 
L 155.313157 72.492326 
L 169.243158 73.103326 
L 184.163939 73.103326 
L 205.722467 79.629396 
L 225.987238 86.76526 
L 238.76854 93.974974 
L 268.325001 106.051415 
L 278.808344 125.528724 
L 294.900358 143.288157 
L 311.585622 181.393915 
L 332.788939 246.931873 
L 352.706808 250.523018 
L 372.293533 253.459724 
L 402.101755 256.694155 
L 433.012591 260.629394 
" style="fill:none;stroke:#9467bd;stroke-linecap:square;stroke-width:3;"/>
   </g>
   <g id="line2d_53">
    <path clip-path="url(#p3d4f1a0231)" d="M 235.256651 54.953091 
L 213.955164 55.025986 
L 223.658634 55.025986 
L 203.844919 55.095204 
L 213.054406 55.160891 
L 221.331875 55.282254 
L 221.44238 55.488808 
L 224.129124 55.724533 
L 228.112666 56.135351 
L 221.650698 57.151468 
L 232.677312 58.476151 
L 235.332398 60.431713 
L 241.49067 64.297531 
L 251.218092 68.940128 
L 262.686618 76.33394 
L 276.894536 84.547661 
L 292.159096 94.364405 
L 307.180995 118.835536 
L 309.629533 222.551104 
L 308.294019 222.551104 
L 309.296516 222.551104 
L 316.242344 222.551104 
L 322.095044 222.551104 
L 315.826474 222.551104 
" style="fill:none;stroke:#8c564b;stroke-linecap:square;stroke-width:3;"/>
   </g>
   <g id="line2d_54">
    <path clip-path="url(#p3d4f1a0231)" d="M 253.445417 65.963259 
L 240.323183 67.951206 
L 251.739422 68.736005 
L 245.180676 69.300154 
L 233.622889 70.178121 
L 238.424615 71.206546 
L 243.355918 72.279884 
L 235.730837 73.51766 
L 248.706775 74.865524 
L 250.252754 76.403348 
L 260.665074 78.096179 
L 267.815804 80.07589 
L 275.392558 82.20584 
L 280.040728 84.546076 
L 285.364336 87.3882 
L 292.613593 90.775144 
L 301.543937 94.420839 
L 311.122849 97.950373 
L 331.204549 101.753808 
L 332.965798 106.193579 
L 347.541131 111.961422 
L 359.424416 120.553624 
L 373.581112 126.033666 
L 389.320629 131.291185 
L 402.088845 136.567914 
" style="fill:none;stroke:#e377c2;stroke-linecap:square;stroke-width:3;"/>
   </g>
   <g id="line2d_55">
    <path clip-path="url(#p3d4f1a0231)" d="M 198.614125 58.298842 
L 199.165572 67.803631 
L 202.60755 68.359057 
L 206.881729 69.599036 
L 205.787563 71.409268 
L 215.338024 73.787723 
L 219.195664 76.275902 
L 231.713896 79.684173 
L 234.136228 83.986379 
L 243.640091 90.001747 
L 256.480847 96.064631 
L 265.574066 102.793342 
L 274.722051 110.07794 
L 287.499788 120.922014 
L 298.823644 130.516743 
L 311.504594 140.873157 
L 325.500964 157.973454 
L 337.21255 180.822726 
L 351.565982 220.66524 
L 363.371152 276.124999 
L 365.772386 276.124999 
L 365.88993 276.124999 
L 364.056476 276.124999 
L 363.362808 276.124999 
L 364.207946 276.124999 
" style="fill:none;stroke:#7f7f7f;stroke-linecap:square;stroke-width:3;"/>
   </g>
   <g id="line2d_56">
    <path clip-path="url(#p3d4f1a0231)" d="M 158.103628 61.745416 
L 174.341205 63.41872 
L 179.71069 65.251181 
L 181.731738 67.091707 
L 181.275457 69.719444 
L 184.466002 72.571824 
L 185.961377 73.919336 
L 189.450929 76.425136 
L 191.895508 78.15779 
L 194.994849 78.57631 
L 200.377837 78.209141 
L 203.311985 78.381622 
L 208.485729 78.43733 
L 216.714674 78.762477 
L 225.655807 78.783633 
L 235.955572 79.291507 
L 247.718293 77.159991 
L 260.653249 77.5267 
L 274.341005 77.488226 
L 282.788857 77.682302 
L 287.928115 77.689991 
L 299.706688 78.008892 
L 308.386045 78.611844 
L 320.752156 78.65083 
L 331.898889 79.063602 
L 348.145614 78.070165 
L 362.742397 77.60475 
L 374.780369 78.751487 
L 389.433238 78.529961 
L 403.194402 78.996718 
" style="fill:none;stroke:#bcbd22;stroke-linecap:square;stroke-width:3;"/>
   </g>
   <g id="line2d_57">
    <path clip-path="url(#p3d4f1a0231)" d="M 220.864779 65.963259 
L 220.693195 67.951206 
L 221.73373 68.736005 
L 220.205723 69.300154 
L 221.272746 70.178121 
L 221.587458 71.206546 
L 221.539587 72.279884 
L 223.749954 73.51766 
L 225.687803 74.865524 
L 228.3398 76.403348 
L 232.020275 78.096179 
L 236.524298 80.07589 
L 243.088615 82.20584 
L 252.141494 84.546076 
L 260.451483 87.3882 
L 266.502594 90.775144 
L 276.481057 94.420839 
L 289.56904 97.950373 
L 300.52256 101.753808 
L 310.480905 106.193579 
L 326.207158 111.961422 
L 343.437823 120.553624 
L 358.086442 126.033666 
L 373.398051 131.291185 
L 392.475609 136.567914 
L 404.376271 141.419189 
" style="fill:none;stroke:#17becf;stroke-linecap:square;stroke-width:3;"/>
   </g>
   <g id="line2d_58">
    <path clip-path="url(#p3d4f1a0231)" d="M 226.318351 65.963259 
L 227.187937 67.951206 
L 226.382845 68.917737 
L 228.572296 69.702971 
L 229.671114 71.133559 
L 228.817363 73.070074 
L 230.432027 75.201419 
L 231.05386 77.843733 
L 233.687672 81.346568 
L 237.615061 85.733019 
L 240.154165 91.928059 
L 246.639457 98.558344 
L 252.313547 106.257722 
L 258.964351 117.170103 
L 267.868428 127.810796 
L 276.573064 139.63788 
L 285.302525 150.630098 
L 300.566473 158.286486 
L 310.975183 171.561302 
L 323.083451 180.393743 
L 337.471783 190.411571 
L 351.306898 201.976459 
L 366.503783 213.491044 
L 384.009987 221.13794 
L 397.242149 234.954395 
L 411.269174 248.14014 
" style="fill:none;stroke:#1f77b4;stroke-linecap:square;stroke-width:3;"/>
   </g>
   <g id="line2d_59">
    <path clip-path="url(#p3d4f1a0231)" d="M 254.208365 65.963259 
L 257.037716 67.951206 
L 265.244946 68.736005 
L 268.621523 69.300154 
L 276.151578 70.178121 
L 285.313292 71.206546 
L 295.379094 72.279884 
L 305.80222 73.51766 
L 317.764815 74.865524 
L 333.391404 76.403348 
L 346.175012 78.096179 
L 360.57537 80.07589 
L 374.460462 82.20584 
L 389.714903 84.546076 
L 403.605379 87.3882 
L 417.71241 90.775144 
" style="fill:none;stroke:#ff7f0e;stroke-linecap:square;stroke-width:3;"/>
   </g>
   <g id="line2d_60">
    <path clip-path="url(#p3d4f1a0231)" d="M 161.868254 63.595406 
L 163.138048 66.909382 
L 160.9823 69.457586 
L 165.401245 71.580829 
L 172.13859 75.079317 
L 171.832459 78.91245 
L 177.258294 83.070578 
L 186.611799 87.681898 
L 191.776164 95.023086 
L 201.487553 107.884674 
L 213.226556 125.205942 
L 223.126292 135.813088 
L 240.20122 143.598924 
L 253.108785 151.492613 
L 265.711354 158.360368 
L 279.464673 165.470197 
L 290.381181 174.507591 
L 301.930575 189.593407 
L 316.902829 212.807929 
L 327.645962 247.659368 
L 337.373592 284.507367 
L 352.356932 285.214909 
L 370.012823 285.214909 
L 392.007335 285.214909 
L 415.827896 285.214909 
" style="fill:none;stroke:#2ca02c;stroke-linecap:square;stroke-width:3;"/>
   </g>
   <g id="line2d_61">
    <path clip-path="url(#p3d4f1a0231)" d="M 355.689901 63.595406 
L 376.47996 66.909382 
L 378.754961 69.585511 
L 381.665668 71.495671 
L 385.580832 74.058316 
L 388.02741 75.637279 
L 387.594996 76.157992 
" style="fill:none;stroke:#d62728;stroke-linecap:square;stroke-width:3;"/>
   </g>
   <g id="patch_3">
    <path d="M 76.881214 296.728 
L 76.881214 43.44 
" style="fill:none;stroke:#000000;stroke-linecap:square;stroke-linejoin:miter;stroke-width:0.8;"/>
   </g>
   <g id="patch_4">
    <path d="M 450 296.728 
L 450 43.44 
" style="fill:none;stroke:#000000;stroke-linecap:square;stroke-linejoin:miter;stroke-width:0.8;"/>
   </g>
   <g id="patch_5">
    <path d="M 76.881214 296.728 
L 450 296.728 
" style="fill:none;stroke:#000000;stroke-linecap:square;stroke-linejoin:miter;stroke-width:0.8;"/>
   </g>
   <g id="patch_6">
    <path d="M 76.881214 43.44 
L 450 43.44 
" style="fill:none;stroke:#000000;stroke-linecap:square;stroke-linejoin:miter;stroke-width:0.8;"/>
   </g>
   <g id="text_16">
    <!-- Lasso Regression[reg=0.05] -->
    <g transform="translate(164.779982 21.763062)scale(0.14 -0.14)">
     <defs>
      <path d="M 9.8125 72.90625 
L 19.671875 72.90625 
L 19.671875 8.296875 
L 55.171875 8.296875 
L 55.171875 0 
L 9.8125 0 
z
" id="DejaVuSans-76"/>
      <path d="M 34.28125 27.484375 
Q 23.390625 27.484375 19.1875 25 
Q 14.984375 22.515625 14.984375 16.5 
Q 14.984375 11.71875 18.140625 8.90625 
Q 21.296875 6.109375 26.703125 6.109375 
Q 34.1875 6.109375 38.703125 11.40625 
Q 43.21875 16.703125 43.21875 25.484375 
L 43.21875 27.484375 
z
M 52.203125 31.203125 
L 52.203125 0 
L 43.21875 0 
L 43.21875 8.296875 
Q 40.140625 3.328125 35.546875 0.953125 
Q 30.953125 -1.421875 24.3125 -1.421875 
Q 15.921875 -1.421875 10.953125 3.296875 
Q 6 8.015625 6 15.921875 
Q 6 25.140625 12.171875 29.828125 
Q 18.359375 34.515625 30.609375 34.515625 
L 43.21875 34.515625 
L 43.21875 35.40625 
Q 43.21875 41.609375 39.140625 45 
Q 35.0625 48.390625 27.6875 48.390625 
Q 23 48.390625 18.546875 47.265625 
Q 14.109375 46.140625 10.015625 43.890625 
L 10.015625 52.203125 
Q 14.9375 54.109375 19.578125 55.046875 
Q 24.21875 56 28.609375 56 
Q 40.484375 56 46.34375 49.84375 
Q 52.203125 43.703125 52.203125 31.203125 
z
" id="DejaVuSans-97"/>
      <path d="M 30.609375 48.390625 
Q 23.390625 48.390625 19.1875 42.75 
Q 14.984375 37.109375 14.984375 27.296875 
Q 14.984375 17.484375 19.15625 11.84375 
Q 23.34375 6.203125 30.609375 6.203125 
Q 37.796875 6.203125 41.984375 11.859375 
Q 46.1875 17.53125 46.1875 27.296875 
Q 46.1875 37.015625 41.984375 42.703125 
Q 37.796875 48.390625 30.609375 48.390625 
z
M 30.609375 56 
Q 42.328125 56 49.015625 48.375 
Q 55.71875 40.765625 55.71875 27.296875 
Q 55.71875 13.875 49.015625 6.21875 
Q 42.328125 -1.421875 30.609375 -1.421875 
Q 18.84375 -1.421875 12.171875 6.21875 
Q 5.515625 13.875 5.515625 27.296875 
Q 5.515625 40.765625 12.171875 48.375 
Q 18.84375 56 30.609375 56 
z
" id="DejaVuSans-111"/>
      <path d="M 44.390625 34.1875 
Q 47.5625 33.109375 50.5625 29.59375 
Q 53.5625 26.078125 56.59375 19.921875 
L 66.609375 0 
L 56 0 
L 46.6875 18.703125 
Q 43.0625 26.03125 39.671875 28.421875 
Q 36.28125 30.8125 30.421875 30.8125 
L 19.671875 30.8125 
L 19.671875 0 
L 9.8125 0 
L 9.8125 72.90625 
L 32.078125 72.90625 
Q 44.578125 72.90625 50.734375 67.671875 
Q 56.890625 62.453125 56.890625 51.90625 
Q 56.890625 45.015625 53.6875 40.46875 
Q 50.484375 35.9375 44.390625 34.1875 
z
M 19.671875 64.796875 
L 19.671875 38.921875 
L 32.078125 38.921875 
Q 39.203125 38.921875 42.84375 42.21875 
Q 46.484375 45.515625 46.484375 51.90625 
Q 46.484375 58.296875 42.84375 61.546875 
Q 39.203125 64.796875 32.078125 64.796875 
z
" id="DejaVuSans-82"/>
      <path d="M 45.40625 27.984375 
Q 45.40625 37.75 41.375 43.109375 
Q 37.359375 48.484375 30.078125 48.484375 
Q 22.859375 48.484375 18.828125 43.109375 
Q 14.796875 37.75 14.796875 27.984375 
Q 14.796875 18.265625 18.828125 12.890625 
Q 22.859375 7.515625 30.078125 7.515625 
Q 37.359375 7.515625 41.375 12.890625 
Q 45.40625 18.265625 45.40625 27.984375 
z
M 54.390625 6.78125 
Q 54.390625 -7.171875 48.1875 -13.984375 
Q 42 -20.796875 29.203125 -20.796875 
Q 24.46875 -20.796875 20.265625 -20.09375 
Q 16.0625 -19.390625 12.109375 -17.921875 
L 12.109375 -9.1875 
Q 16.0625 -11.328125 19.921875 -12.34375 
Q 23.78125 -13.375 27.78125 -13.375 
Q 36.625 -13.375 41.015625 -8.765625 
Q 45.40625 -4.15625 45.40625 5.171875 
L 45.40625 9.625 
Q 42.625 4.78125 38.28125 2.390625 
Q 33.9375 0 27.875 0 
Q 17.828125 0 11.671875 7.65625 
Q 5.515625 15.328125 5.515625 27.984375 
Q 5.515625 40.671875 11.671875 48.328125 
Q 17.828125 56 27.875 56 
Q 33.9375 56 38.28125 53.609375 
Q 42.625 51.21875 45.40625 46.390625 
L 45.40625 54.6875 
L 54.390625 54.6875 
z
" id="DejaVuSans-103"/>
      <path d="M 41.109375 46.296875 
Q 39.59375 47.171875 37.8125 47.578125 
Q 36.03125 48 33.890625 48 
Q 26.265625 48 22.1875 43.046875 
Q 18.109375 38.09375 18.109375 28.8125 
L 18.109375 0 
L 9.078125 0 
L 9.078125 54.6875 
L 18.109375 54.6875 
L 18.109375 46.1875 
Q 20.953125 51.171875 25.484375 53.578125 
Q 30.03125 56 36.53125 56 
Q 37.453125 56 38.578125 55.875 
Q 39.703125 55.765625 41.0625 55.515625 
z
" id="DejaVuSans-114"/>
      <path d="M 54.890625 33.015625 
L 54.890625 0 
L 45.90625 0 
L 45.90625 32.71875 
Q 45.90625 40.484375 42.875 44.328125 
Q 39.84375 48.1875 33.796875 48.1875 
Q 26.515625 48.1875 22.3125 43.546875 
Q 18.109375 38.921875 18.109375 30.90625 
L 18.109375 0 
L 9.078125 0 
L 9.078125 54.6875 
L 18.109375 54.6875 
L 18.109375 46.1875 
Q 21.34375 51.125 25.703125 53.5625 
Q 30.078125 56 35.796875 56 
Q 45.21875 56 50.046875 50.171875 
Q 54.890625 44.34375 54.890625 33.015625 
z
" id="DejaVuSans-110"/>
      <path d="M 10.59375 45.40625 
L 73.1875 45.40625 
L 73.1875 37.203125 
L 10.59375 37.203125 
z
M 10.59375 25.484375 
L 73.1875 25.484375 
L 73.1875 17.1875 
L 10.59375 17.1875 
z
" id="DejaVuSans-61"/>
      <path d="M 10.6875 12.40625 
L 21 12.40625 
L 21 0 
L 10.6875 0 
z
" id="DejaVuSans-46"/>
      <path d="M 10.796875 72.90625 
L 49.515625 72.90625 
L 49.515625 64.59375 
L 19.828125 64.59375 
L 19.828125 46.734375 
Q 21.96875 47.46875 24.109375 47.828125 
Q 26.265625 48.1875 28.421875 48.1875 
Q 40.625 48.1875 47.75 41.5 
Q 54.890625 34.8125 54.890625 23.390625 
Q 54.890625 11.625 47.5625 5.09375 
Q 40.234375 -1.421875 26.90625 -1.421875 
Q 22.3125 -1.421875 17.546875 -0.640625 
Q 12.796875 0.140625 7.71875 1.703125 
L 7.71875 11.625 
Q 12.109375 9.234375 16.796875 8.0625 
Q 21.484375 6.890625 26.703125 6.890625 
Q 35.15625 6.890625 40.078125 11.328125 
Q 45.015625 15.765625 45.015625 23.390625 
Q 45.015625 31 40.078125 35.4375 
Q 35.15625 39.890625 26.703125 39.890625 
Q 22.75 39.890625 18.8125 39.015625 
Q 14.890625 38.140625 10.796875 36.28125 
z
" id="DejaVuSans-53"/>
     </defs>
     <use xlink:href="#DejaVuSans-76"/>
     <use x="55.712891" xlink:href="#DejaVuSans-97"/>
     <use x="116.992188" xlink:href="#DejaVuSans-115"/>
     <use x="169.091797" xlink:href="#DejaVuSans-115"/>
     <use x="221.191406" xlink:href="#DejaVuSans-111"/>
     <use x="282.373047" xlink:href="#DejaVuSans-32"/>
     <use x="314.160156" xlink:href="#DejaVuSans-82"/>
     <use x="379.142578" xlink:href="#DejaVuSans-101"/>
     <use x="440.666016" xlink:href="#DejaVuSans-103"/>
     <use x="504.142578" xlink:href="#DejaVuSans-114"/>
     <use x="543.005859" xlink:href="#DejaVuSans-101"/>
     <use x="604.529297" xlink:href="#DejaVuSans-115"/>
     <use x="656.628906" xlink:href="#DejaVuSans-115"/>
     <use x="708.728516" xlink:href="#DejaVuSans-105"/>
     <use x="736.511719" xlink:href="#DejaVuSans-111"/>
     <use x="797.693359" xlink:href="#DejaVuSans-110"/>
     <use x="861.072266" xlink:href="#DejaVuSans-91"/>
     <use x="900.085938" xlink:href="#DejaVuSans-114"/>
     <use x="938.949219" xlink:href="#DejaVuSans-101"/>
     <use x="1000.472656" xlink:href="#DejaVuSans-103"/>
     <use x="1063.949219" xlink:href="#DejaVuSans-61"/>
     <use x="1147.738281" xlink:href="#DejaVuSans-48"/>
     <use x="1211.361328" xlink:href="#DejaVuSans-46"/>
     <use x="1243.148438" xlink:href="#DejaVuSans-48"/>
     <use x="1306.771484" xlink:href="#DejaVuSans-53"/>
     <use x="1370.394531" xlink:href="#DejaVuSans-93"/>
    </g>
    <!-- Data: Simulated[n_samples=100,n_features=5000,rho=0] -->
    <g transform="translate(58.272794 37.44)scale(0.14 -0.14)">
     <defs>
      <path d="M 19.671875 64.796875 
L 19.671875 8.109375 
L 31.59375 8.109375 
Q 46.6875 8.109375 53.6875 14.9375 
Q 60.6875 21.78125 60.6875 36.53125 
Q 60.6875 51.171875 53.6875 57.984375 
Q 46.6875 64.796875 31.59375 64.796875 
z
M 9.8125 72.90625 
L 30.078125 72.90625 
Q 51.265625 72.90625 61.171875 64.09375 
Q 71.09375 55.28125 71.09375 36.53125 
Q 71.09375 17.671875 61.125 8.828125 
Q 51.171875 0 30.078125 0 
L 9.8125 0 
z
" id="DejaVuSans-68"/>
      <path d="M 18.3125 70.21875 
L 18.3125 54.6875 
L 36.8125 54.6875 
L 36.8125 47.703125 
L 18.3125 47.703125 
L 18.3125 18.015625 
Q 18.3125 11.328125 20.140625 9.421875 
Q 21.96875 7.515625 27.59375 7.515625 
L 36.8125 7.515625 
L 36.8125 0 
L 27.59375 0 
Q 17.1875 0 13.234375 3.875 
Q 9.28125 7.765625 9.28125 18.015625 
L 9.28125 47.703125 
L 2.6875 47.703125 
L 2.6875 54.6875 
L 9.28125 54.6875 
L 9.28125 70.21875 
z
" id="DejaVuSans-116"/>
      <path d="M 11.71875 12.40625 
L 22.015625 12.40625 
L 22.015625 0 
L 11.71875 0 
z
M 11.71875 51.703125 
L 22.015625 51.703125 
L 22.015625 39.3125 
L 11.71875 39.3125 
z
" id="DejaVuSans-58"/>
      <path d="M 53.515625 70.515625 
L 53.515625 60.890625 
Q 47.90625 63.578125 42.921875 64.890625 
Q 37.9375 66.21875 33.296875 66.21875 
Q 25.25 66.21875 20.875 63.09375 
Q 16.5 59.96875 16.5 54.203125 
Q 16.5 49.359375 19.40625 46.890625 
Q 22.3125 44.4375 30.421875 42.921875 
L 36.375 41.703125 
Q 47.40625 39.59375 52.65625 34.296875 
Q 57.90625 29 57.90625 20.125 
Q 57.90625 9.515625 50.796875 4.046875 
Q 43.703125 -1.421875 29.984375 -1.421875 
Q 24.8125 -1.421875 18.96875 -0.25 
Q 13.140625 0.921875 6.890625 3.21875 
L 6.890625 13.375 
Q 12.890625 10.015625 18.65625 8.296875 
Q 24.421875 6.59375 29.984375 6.59375 
Q 38.421875 6.59375 43.015625 9.90625 
Q 47.609375 13.234375 47.609375 19.390625 
Q 47.609375 24.75 44.3125 27.78125 
Q 41.015625 30.8125 33.5 32.328125 
L 27.484375 33.5 
Q 16.453125 35.6875 11.515625 40.375 
Q 6.59375 45.0625 6.59375 53.421875 
Q 6.59375 63.09375 13.40625 68.65625 
Q 20.21875 74.21875 32.171875 74.21875 
Q 37.3125 74.21875 42.625 73.28125 
Q 47.953125 72.359375 53.515625 70.515625 
z
" id="DejaVuSans-83"/>
      <path d="M 8.5 21.578125 
L 8.5 54.6875 
L 17.484375 54.6875 
L 17.484375 21.921875 
Q 17.484375 14.15625 20.5 10.265625 
Q 23.53125 6.390625 29.59375 6.390625 
Q 36.859375 6.390625 41.078125 11.03125 
Q 45.3125 15.671875 45.3125 23.6875 
L 45.3125 54.6875 
L 54.296875 54.6875 
L 54.296875 0 
L 45.3125 0 
L 45.3125 8.40625 
Q 42.046875 3.421875 37.71875 1 
Q 33.40625 -1.421875 27.6875 -1.421875 
Q 18.265625 -1.421875 13.375 4.4375 
Q 8.5 10.296875 8.5 21.578125 
z
M 31.109375 56 
z
" id="DejaVuSans-117"/>
      <path d="M 9.421875 75.984375 
L 18.40625 75.984375 
L 18.40625 0 
L 9.421875 0 
z
" id="DejaVuSans-108"/>
      <path d="M 45.40625 46.390625 
L 45.40625 75.984375 
L 54.390625 75.984375 
L 54.390625 0 
L 45.40625 0 
L 45.40625 8.203125 
Q 42.578125 3.328125 38.25 0.953125 
Q 33.9375 -1.421875 27.875 -1.421875 
Q 17.96875 -1.421875 11.734375 6.484375 
Q 5.515625 14.40625 5.515625 27.296875 
Q 5.515625 40.1875 11.734375 48.09375 
Q 17.96875 56 27.875 56 
Q 33.9375 56 38.25 53.625 
Q 42.578125 51.265625 45.40625 46.390625 
z
M 14.796875 27.296875 
Q 14.796875 17.390625 18.875 11.75 
Q 22.953125 6.109375 30.078125 6.109375 
Q 37.203125 6.109375 41.296875 11.75 
Q 45.40625 17.390625 45.40625 27.296875 
Q 45.40625 37.203125 41.296875 42.84375 
Q 37.203125 48.484375 30.078125 48.484375 
Q 22.953125 48.484375 18.875 42.84375 
Q 14.796875 37.203125 14.796875 27.296875 
z
" id="DejaVuSans-100"/>
      <path d="M 50.984375 -16.609375 
L 50.984375 -23.578125 
L -0.984375 -23.578125 
L -0.984375 -16.609375 
z
" id="DejaVuSans-95"/>
      <path d="M 18.109375 8.203125 
L 18.109375 -20.796875 
L 9.078125 -20.796875 
L 9.078125 54.6875 
L 18.109375 54.6875 
L 18.109375 46.390625 
Q 20.953125 51.265625 25.265625 53.625 
Q 29.59375 56 35.59375 56 
Q 45.5625 56 51.78125 48.09375 
Q 58.015625 40.1875 58.015625 27.296875 
Q 58.015625 14.40625 51.78125 6.484375 
Q 45.5625 -1.421875 35.59375 -1.421875 
Q 29.59375 -1.421875 25.265625 0.953125 
Q 20.953125 3.328125 18.109375 8.203125 
z
M 48.6875 27.296875 
Q 48.6875 37.203125 44.609375 42.84375 
Q 40.53125 48.484375 33.40625 48.484375 
Q 26.265625 48.484375 22.1875 42.84375 
Q 18.109375 37.203125 18.109375 27.296875 
Q 18.109375 17.390625 22.1875 11.75 
Q 26.265625 6.109375 33.40625 6.109375 
Q 40.53125 6.109375 44.609375 11.75 
Q 48.6875 17.390625 48.6875 27.296875 
z
" id="DejaVuSans-112"/>
      <path d="M 11.71875 12.40625 
L 22.015625 12.40625 
L 22.015625 4 
L 14.015625 -11.625 
L 7.71875 -11.625 
L 11.71875 4 
z
" id="DejaVuSans-44"/>
      <path d="M 37.109375 75.984375 
L 37.109375 68.5 
L 28.515625 68.5 
Q 23.6875 68.5 21.796875 66.546875 
Q 19.921875 64.59375 19.921875 59.515625 
L 19.921875 54.6875 
L 34.71875 54.6875 
L 34.71875 47.703125 
L 19.921875 47.703125 
L 19.921875 0 
L 10.890625 0 
L 10.890625 47.703125 
L 2.296875 47.703125 
L 2.296875 54.6875 
L 10.890625 54.6875 
L 10.890625 58.5 
Q 10.890625 67.625 15.140625 71.796875 
Q 19.390625 75.984375 28.609375 75.984375 
z
" id="DejaVuSans-102"/>
      <path d="M 54.890625 33.015625 
L 54.890625 0 
L 45.90625 0 
L 45.90625 32.71875 
Q 45.90625 40.484375 42.875 44.328125 
Q 39.84375 48.1875 33.796875 48.1875 
Q 26.515625 48.1875 22.3125 43.546875 
Q 18.109375 38.921875 18.109375 30.90625 
L 18.109375 0 
L 9.078125 0 
L 9.078125 75.984375 
L 18.109375 75.984375 
L 18.109375 46.1875 
Q 21.34375 51.125 25.703125 53.5625 
Q 30.078125 56 35.796875 56 
Q 45.21875 56 50.046875 50.171875 
Q 54.890625 44.34375 54.890625 33.015625 
z
" id="DejaVuSans-104"/>
     </defs>
     <use xlink:href="#DejaVuSans-68"/>
     <use x="77.001953" xlink:href="#DejaVuSans-97"/>
     <use x="138.28125" xlink:href="#DejaVuSans-116"/>
     <use x="177.490234" xlink:href="#DejaVuSans-97"/>
     <use x="238.769531" xlink:href="#DejaVuSans-58"/>
     <use x="272.460938" xlink:href="#DejaVuSans-32"/>
     <use x="304.248047" xlink:href="#DejaVuSans-83"/>
     <use x="367.724609" xlink:href="#DejaVuSans-105"/>
     <use x="395.507812" xlink:href="#DejaVuSans-109"/>
     <use x="492.919922" xlink:href="#DejaVuSans-117"/>
     <use x="556.298828" xlink:href="#DejaVuSans-108"/>
     <use x="584.082031" xlink:href="#DejaVuSans-97"/>
     <use x="645.361328" xlink:href="#DejaVuSans-116"/>
     <use x="684.570312" xlink:href="#DejaVuSans-101"/>
     <use x="746.09375" xlink:href="#DejaVuSans-100"/>
     <use x="809.570312" xlink:href="#DejaVuSans-91"/>
     <use x="848.583984" xlink:href="#DejaVuSans-110"/>
     <use x="911.962891" xlink:href="#DejaVuSans-95"/>
     <use x="961.962891" xlink:href="#DejaVuSans-115"/>
     <use x="1014.0625" xlink:href="#DejaVuSans-97"/>
     <use x="1075.341797" xlink:href="#DejaVuSans-109"/>
     <use x="1172.753906" xlink:href="#DejaVuSans-112"/>
     <use x="1236.230469" xlink:href="#DejaVuSans-108"/>
     <use x="1264.013672" xlink:href="#DejaVuSans-101"/>
     <use x="1325.537109" xlink:href="#DejaVuSans-115"/>
     <use x="1377.636719" xlink:href="#DejaVuSans-61"/>
     <use x="1461.425781" xlink:href="#DejaVuSans-49"/>
     <use x="1525.048828" xlink:href="#DejaVuSans-48"/>
     <use x="1588.671875" xlink:href="#DejaVuSans-48"/>
     <use x="1652.294922" xlink:href="#DejaVuSans-44"/>
     <use x="1684.082031" xlink:href="#DejaVuSans-110"/>
     <use x="1747.460938" xlink:href="#DejaVuSans-95"/>
     <use x="1797.460938" xlink:href="#DejaVuSans-102"/>
     <use x="1832.666016" xlink:href="#DejaVuSans-101"/>
     <use x="1894.189453" xlink:href="#DejaVuSans-97"/>
     <use x="1955.46875" xlink:href="#DejaVuSans-116"/>
     <use x="1994.677734" xlink:href="#DejaVuSans-117"/>
     <use x="2058.056641" xlink:href="#DejaVuSans-114"/>
     <use x="2096.919922" xlink:href="#DejaVuSans-101"/>
     <use x="2158.443359" xlink:href="#DejaVuSans-115"/>
     <use x="2210.542969" xlink:href="#DejaVuSans-61"/>
     <use x="2294.332031" xlink:href="#DejaVuSans-53"/>
     <use x="2357.955078" xlink:href="#DejaVuSans-48"/>
     <use x="2421.578125" xlink:href="#DejaVuSans-48"/>
     <use x="2485.201172" xlink:href="#DejaVuSans-48"/>
     <use x="2548.824219" xlink:href="#DejaVuSans-44"/>
     <use x="2580.611328" xlink:href="#DejaVuSans-114"/>
     <use x="2619.974609" xlink:href="#DejaVuSans-104"/>
     <use x="2683.353516" xlink:href="#DejaVuSans-111"/>
     <use x="2744.535156" xlink:href="#DejaVuSans-61"/>
     <use x="2828.324219" xlink:href="#DejaVuSans-48"/>
     <use x="2891.947266" xlink:href="#DejaVuSans-93"/>
    </g>
   </g>
   <g id="legend_1">
    <g id="patch_7">
     <path d="M 86.681214 343.11 
L 390.960276 343.11 
Q 393.760276 343.11 393.760276 340.31 
L 393.760276 53.24 
Q 393.760276 50.44 390.960276 50.44 
L 86.681214 50.44 
Q 83.881214 50.44 83.881214 53.24 
L 83.881214 340.31 
Q 83.881214 343.11 86.681214 343.11 
z
" style="fill:#ffffff;opacity:0.8;stroke:#cccccc;stroke-linejoin:miter;"/>
    </g>
    <g id="line2d_62">
     <path d="M 89.481214 61.777812 
L 117.481214 61.777812 
" style="fill:none;stroke:#1f77b4;stroke-linecap:square;stroke-width:3;"/>
    </g>
    <g id="line2d_63"/>
    <g id="text_17">
     <!-- Blitz -->
     <g transform="translate(128.681214 66.677812)scale(0.14 -0.14)">
      <defs>
       <path d="M 19.671875 34.8125 
L 19.671875 8.109375 
L 35.5 8.109375 
Q 43.453125 8.109375 47.28125 11.40625 
Q 51.125 14.703125 51.125 21.484375 
Q 51.125 28.328125 47.28125 31.5625 
Q 43.453125 34.8125 35.5 34.8125 
z
M 19.671875 64.796875 
L 19.671875 42.828125 
L 34.28125 42.828125 
Q 41.5 42.828125 45.03125 45.53125 
Q 48.578125 48.25 48.578125 53.8125 
Q 48.578125 59.328125 45.03125 62.0625 
Q 41.5 64.796875 34.28125 64.796875 
z
M 9.8125 72.90625 
L 35.015625 72.90625 
Q 46.296875 72.90625 52.390625 68.21875 
Q 58.5 63.53125 58.5 54.890625 
Q 58.5 48.1875 55.375 44.234375 
Q 52.25 40.28125 46.1875 39.3125 
Q 53.46875 37.75 57.5 32.78125 
Q 61.53125 27.828125 61.53125 20.40625 
Q 61.53125 10.640625 54.890625 5.3125 
Q 48.25 0 35.984375 0 
L 9.8125 0 
z
" id="DejaVuSans-66"/>
       <path d="M 5.515625 54.6875 
L 48.1875 54.6875 
L 48.1875 46.484375 
L 14.40625 7.171875 
L 48.1875 7.171875 
L 48.1875 0 
L 4.296875 0 
L 4.296875 8.203125 
L 38.09375 47.515625 
L 5.515625 47.515625 
z
" id="DejaVuSans-122"/>
      </defs>
      <use xlink:href="#DejaVuSans-66"/>
      <use x="68.603516" xlink:href="#DejaVuSans-108"/>
      <use x="96.386719" xlink:href="#DejaVuSans-105"/>
      <use x="124.169922" xlink:href="#DejaVuSans-116"/>
      <use x="163.378906" xlink:href="#DejaVuSans-122"/>
     </g>
    </g>
    <g id="line2d_64">
     <path d="M 89.481214 82.327187 
L 117.481214 82.327187 
" style="fill:none;stroke:#ff7f0e;stroke-linecap:square;stroke-width:3;"/>
    </g>
    <g id="line2d_65"/>
    <g id="text_18">
     <!-- cd -->
     <g transform="translate(128.681214 87.227187)scale(0.14 -0.14)">
      <use xlink:href="#DejaVuSans-99"/>
      <use x="54.980469" xlink:href="#DejaVuSans-100"/>
     </g>
    </g>
    <g id="line2d_66">
     <path d="M 89.481214 102.876562 
L 117.481214 102.876562 
" style="fill:none;stroke:#2ca02c;stroke-linecap:square;stroke-width:3;"/>
    </g>
    <g id="line2d_67"/>
    <g id="text_19">
     <!-- Celer -->
     <g transform="translate(128.681214 107.776562)scale(0.14 -0.14)">
      <defs>
       <path d="M 64.40625 67.28125 
L 64.40625 56.890625 
Q 59.421875 61.53125 53.78125 63.8125 
Q 48.140625 66.109375 41.796875 66.109375 
Q 29.296875 66.109375 22.65625 58.46875 
Q 16.015625 50.828125 16.015625 36.375 
Q 16.015625 21.96875 22.65625 14.328125 
Q 29.296875 6.6875 41.796875 6.6875 
Q 48.140625 6.6875 53.78125 8.984375 
Q 59.421875 11.28125 64.40625 15.921875 
L 64.40625 5.609375 
Q 59.234375 2.09375 53.4375 0.328125 
Q 47.65625 -1.421875 41.21875 -1.421875 
Q 24.65625 -1.421875 15.125 8.703125 
Q 5.609375 18.84375 5.609375 36.375 
Q 5.609375 53.953125 15.125 64.078125 
Q 24.65625 74.21875 41.21875 74.21875 
Q 47.75 74.21875 53.53125 72.484375 
Q 59.328125 70.75 64.40625 67.28125 
z
" id="DejaVuSans-67"/>
      </defs>
      <use xlink:href="#DejaVuSans-67"/>
      <use x="69.824219" xlink:href="#DejaVuSans-101"/>
      <use x="131.347656" xlink:href="#DejaVuSans-108"/>
      <use x="159.130859" xlink:href="#DejaVuSans-101"/>
      <use x="220.654297" xlink:href="#DejaVuSans-114"/>
     </g>
    </g>
    <g id="line2d_68">
     <path d="M 89.481214 123.425937 
L 117.481214 123.425937 
" style="fill:none;stroke:#d62728;stroke-linecap:square;stroke-width:3;"/>
    </g>
    <g id="line2d_69"/>
    <g id="text_20">
     <!-- cvxpy -->
     <g transform="translate(128.681214 128.325937)scale(0.14 -0.14)">
      <defs>
       <path d="M 2.984375 54.6875 
L 12.5 54.6875 
L 29.59375 8.796875 
L 46.6875 54.6875 
L 56.203125 54.6875 
L 35.6875 0 
L 23.484375 0 
z
" id="DejaVuSans-118"/>
       <path d="M 54.890625 54.6875 
L 35.109375 28.078125 
L 55.90625 0 
L 45.3125 0 
L 29.390625 21.484375 
L 13.484375 0 
L 2.875 0 
L 24.125 28.609375 
L 4.6875 54.6875 
L 15.28125 54.6875 
L 29.78125 35.203125 
L 44.28125 54.6875 
z
" id="DejaVuSans-120"/>
       <path d="M 32.171875 -5.078125 
Q 28.375 -14.84375 24.75 -17.8125 
Q 21.140625 -20.796875 15.09375 -20.796875 
L 7.90625 -20.796875 
L 7.90625 -13.28125 
L 13.1875 -13.28125 
Q 16.890625 -13.28125 18.9375 -11.515625 
Q 21 -9.765625 23.484375 -3.21875 
L 25.09375 0.875 
L 2.984375 54.6875 
L 12.5 54.6875 
L 29.59375 11.921875 
L 46.6875 54.6875 
L 56.203125 54.6875 
z
" id="DejaVuSans-121"/>
      </defs>
      <use xlink:href="#DejaVuSans-99"/>
      <use x="54.980469" xlink:href="#DejaVuSans-118"/>
      <use x="114.160156" xlink:href="#DejaVuSans-120"/>
      <use x="173.339844" xlink:href="#DejaVuSans-112"/>
      <use x="236.816406" xlink:href="#DejaVuSans-121"/>
     </g>
    </g>
    <g id="line2d_70">
     <path d="M 89.481214 143.975312 
L 117.481214 143.975312 
" style="fill:none;stroke:#9467bd;stroke-linecap:square;stroke-width:3;"/>
    </g>
    <g id="line2d_71"/>
    <g id="text_21">
     <!-- Cyanure -->
     <g transform="translate(128.681214 148.875312)scale(0.14 -0.14)">
      <use xlink:href="#DejaVuSans-67"/>
      <use x="69.824219" xlink:href="#DejaVuSans-121"/>
      <use x="129.003906" xlink:href="#DejaVuSans-97"/>
      <use x="190.283203" xlink:href="#DejaVuSans-110"/>
      <use x="253.662109" xlink:href="#DejaVuSans-117"/>
      <use x="317.041016" xlink:href="#DejaVuSans-114"/>
      <use x="355.904297" xlink:href="#DejaVuSans-101"/>
     </g>
    </g>
    <g id="line2d_72">
     <path d="M 89.481214 164.524687 
L 117.481214 164.524687 
" style="fill:none;stroke:#8c564b;stroke-linecap:square;stroke-width:3;"/>
    </g>
    <g id="line2d_73"/>
    <g id="text_22">
     <!-- glmnet -->
     <g transform="translate(128.681214 169.424687)scale(0.14 -0.14)">
      <use xlink:href="#DejaVuSans-103"/>
      <use x="63.476562" xlink:href="#DejaVuSans-108"/>
      <use x="91.259766" xlink:href="#DejaVuSans-109"/>
      <use x="188.671875" xlink:href="#DejaVuSans-110"/>
      <use x="252.050781" xlink:href="#DejaVuSans-101"/>
      <use x="313.574219" xlink:href="#DejaVuSans-116"/>
     </g>
    </g>
    <g id="line2d_74">
     <path d="M 89.481214 185.074062 
L 117.481214 185.074062 
" style="fill:none;stroke:#e377c2;stroke-linecap:square;stroke-width:3;"/>
    </g>
    <g id="line2d_75"/>
    <g id="text_23">
     <!-- Julia-PGD -->
     <g transform="translate(128.681214 189.974062)scale(0.14 -0.14)">
      <defs>
       <path d="M 9.8125 72.90625 
L 19.671875 72.90625 
L 19.671875 5.078125 
Q 19.671875 -8.109375 14.671875 -14.0625 
Q 9.671875 -20.015625 -1.421875 -20.015625 
L -5.171875 -20.015625 
L -5.171875 -11.71875 
L -2.09375 -11.71875 
Q 4.4375 -11.71875 7.125 -8.046875 
Q 9.8125 -4.390625 9.8125 5.078125 
z
" id="DejaVuSans-74"/>
       <path d="M 4.890625 31.390625 
L 31.203125 31.390625 
L 31.203125 23.390625 
L 4.890625 23.390625 
z
" id="DejaVuSans-45"/>
       <path d="M 19.671875 64.796875 
L 19.671875 37.40625 
L 32.078125 37.40625 
Q 38.96875 37.40625 42.71875 40.96875 
Q 46.484375 44.53125 46.484375 51.125 
Q 46.484375 57.671875 42.71875 61.234375 
Q 38.96875 64.796875 32.078125 64.796875 
z
M 9.8125 72.90625 
L 32.078125 72.90625 
Q 44.34375 72.90625 50.609375 67.359375 
Q 56.890625 61.8125 56.890625 51.125 
Q 56.890625 40.328125 50.609375 34.8125 
Q 44.34375 29.296875 32.078125 29.296875 
L 19.671875 29.296875 
L 19.671875 0 
L 9.8125 0 
z
" id="DejaVuSans-80"/>
       <path d="M 59.515625 10.40625 
L 59.515625 29.984375 
L 43.40625 29.984375 
L 43.40625 38.09375 
L 69.28125 38.09375 
L 69.28125 6.78125 
Q 63.578125 2.734375 56.6875 0.65625 
Q 49.8125 -1.421875 42 -1.421875 
Q 24.90625 -1.421875 15.25 8.5625 
Q 5.609375 18.5625 5.609375 36.375 
Q 5.609375 54.25 15.25 64.234375 
Q 24.90625 74.21875 42 74.21875 
Q 49.125 74.21875 55.546875 72.453125 
Q 61.96875 70.703125 67.390625 67.28125 
L 67.390625 56.78125 
Q 61.921875 61.421875 55.765625 63.765625 
Q 49.609375 66.109375 42.828125 66.109375 
Q 29.4375 66.109375 22.71875 58.640625 
Q 16.015625 51.171875 16.015625 36.375 
Q 16.015625 21.625 22.71875 14.15625 
Q 29.4375 6.6875 42.828125 6.6875 
Q 48.046875 6.6875 52.140625 7.59375 
Q 56.25 8.5 59.515625 10.40625 
z
" id="DejaVuSans-71"/>
      </defs>
      <use xlink:href="#DejaVuSans-74"/>
      <use x="29.492188" xlink:href="#DejaVuSans-117"/>
      <use x="92.871094" xlink:href="#DejaVuSans-108"/>
      <use x="120.654297" xlink:href="#DejaVuSans-105"/>
      <use x="148.4375" xlink:href="#DejaVuSans-97"/>
      <use x="209.716797" xlink:href="#DejaVuSans-45"/>
      <use x="245.800781" xlink:href="#DejaVuSans-80"/>
      <use x="306.103516" xlink:href="#DejaVuSans-71"/>
      <use x="383.59375" xlink:href="#DejaVuSans-68"/>
     </g>
    </g>
    <g id="line2d_76">
     <path d="M 89.481214 205.623437 
L 117.481214 205.623437 
" style="fill:none;stroke:#7f7f7f;stroke-linecap:square;stroke-width:3;"/>
    </g>
    <g id="line2d_77"/>
    <g id="text_24">
     <!-- L-BFGS-B -->
     <g transform="translate(128.681214 210.523437)scale(0.14 -0.14)">
      <defs>
       <path d="M 9.8125 72.90625 
L 51.703125 72.90625 
L 51.703125 64.59375 
L 19.671875 64.59375 
L 19.671875 43.109375 
L 48.578125 43.109375 
L 48.578125 34.8125 
L 19.671875 34.8125 
L 19.671875 0 
L 9.8125 0 
z
" id="DejaVuSans-70"/>
      </defs>
      <use xlink:href="#DejaVuSans-76"/>
      <use x="53.962891" xlink:href="#DejaVuSans-45"/>
      <use x="86.421875" xlink:href="#DejaVuSans-66"/>
      <use x="155.025391" xlink:href="#DejaVuSans-70"/>
      <use x="212.544922" xlink:href="#DejaVuSans-71"/>
      <use x="290.035156" xlink:href="#DejaVuSans-83"/>
      <use x="353.511719" xlink:href="#DejaVuSans-45"/>
      <use x="385.970703" xlink:href="#DejaVuSans-66"/>
     </g>
    </g>
    <g id="line2d_78">
     <path d="M 89.481214 226.172812 
L 117.481214 226.172812 
" style="fill:none;stroke:#bcbd22;stroke-linecap:square;stroke-width:3;"/>
    </g>
    <g id="line2d_79"/>
    <g id="text_25">
     <!-- Lightning -->
     <g transform="translate(128.681214 231.072812)scale(0.14 -0.14)">
      <use xlink:href="#DejaVuSans-76"/>
      <use x="55.712891" xlink:href="#DejaVuSans-105"/>
      <use x="83.496094" xlink:href="#DejaVuSans-103"/>
      <use x="146.972656" xlink:href="#DejaVuSans-104"/>
      <use x="210.351562" xlink:href="#DejaVuSans-116"/>
      <use x="249.560547" xlink:href="#DejaVuSans-110"/>
      <use x="312.939453" xlink:href="#DejaVuSans-105"/>
      <use x="340.722656" xlink:href="#DejaVuSans-110"/>
      <use x="404.101562" xlink:href="#DejaVuSans-103"/>
     </g>
    </g>
    <g id="line2d_80">
     <path d="M 89.481214 246.722187 
L 117.481214 246.722187 
" style="fill:none;stroke:#17becf;stroke-linecap:square;stroke-width:3;"/>
    </g>
    <g id="line2d_81"/>
    <g id="text_26">
     <!-- Python-PGD[use_acceleration=False] -->
     <g transform="translate(128.681214 251.622187)scale(0.14 -0.14)">
      <use xlink:href="#DejaVuSans-80"/>
      <use x="60.302734" xlink:href="#DejaVuSans-121"/>
      <use x="119.482422" xlink:href="#DejaVuSans-116"/>
      <use x="158.691406" xlink:href="#DejaVuSans-104"/>
      <use x="222.070312" xlink:href="#DejaVuSans-111"/>
      <use x="283.251953" xlink:href="#DejaVuSans-110"/>
      <use x="346.630859" xlink:href="#DejaVuSans-45"/>
      <use x="382.714844" xlink:href="#DejaVuSans-80"/>
      <use x="443.017578" xlink:href="#DejaVuSans-71"/>
      <use x="520.507812" xlink:href="#DejaVuSans-68"/>
      <use x="597.509766" xlink:href="#DejaVuSans-91"/>
      <use x="636.523438" xlink:href="#DejaVuSans-117"/>
      <use x="699.902344" xlink:href="#DejaVuSans-115"/>
      <use x="752.001953" xlink:href="#DejaVuSans-101"/>
      <use x="813.525391" xlink:href="#DejaVuSans-95"/>
      <use x="863.525391" xlink:href="#DejaVuSans-97"/>
      <use x="924.804688" xlink:href="#DejaVuSans-99"/>
      <use x="979.785156" xlink:href="#DejaVuSans-99"/>
      <use x="1034.765625" xlink:href="#DejaVuSans-101"/>
      <use x="1096.289062" xlink:href="#DejaVuSans-108"/>
      <use x="1124.072266" xlink:href="#DejaVuSans-101"/>
      <use x="1185.595703" xlink:href="#DejaVuSans-114"/>
      <use x="1226.708984" xlink:href="#DejaVuSans-97"/>
      <use x="1287.988281" xlink:href="#DejaVuSans-116"/>
      <use x="1327.197266" xlink:href="#DejaVuSans-105"/>
      <use x="1354.980469" xlink:href="#DejaVuSans-111"/>
      <use x="1416.162109" xlink:href="#DejaVuSans-110"/>
      <use x="1479.541016" xlink:href="#DejaVuSans-61"/>
      <use x="1563.330078" xlink:href="#DejaVuSans-70"/>
      <use x="1611.724609" xlink:href="#DejaVuSans-97"/>
      <use x="1673.003906" xlink:href="#DejaVuSans-108"/>
      <use x="1700.787109" xlink:href="#DejaVuSans-115"/>
      <use x="1752.886719" xlink:href="#DejaVuSans-101"/>
      <use x="1814.410156" xlink:href="#DejaVuSans-93"/>
     </g>
    </g>
    <g id="line2d_82">
     <path d="M 89.481214 267.660937 
L 117.481214 267.660937 
" style="fill:none;stroke:#1f77b4;stroke-linecap:square;stroke-width:3;"/>
    </g>
    <g id="line2d_83"/>
    <g id="text_27">
     <!-- Python-PGD[use_acceleration=True] -->
     <g transform="translate(128.681214 272.560937)scale(0.14 -0.14)">
      <use xlink:href="#DejaVuSans-80"/>
      <use x="60.302734" xlink:href="#DejaVuSans-121"/>
      <use x="119.482422" xlink:href="#DejaVuSans-116"/>
      <use x="158.691406" xlink:href="#DejaVuSans-104"/>
      <use x="222.070312" xlink:href="#DejaVuSans-111"/>
      <use x="283.251953" xlink:href="#DejaVuSans-110"/>
      <use x="346.630859" xlink:href="#DejaVuSans-45"/>
      <use x="382.714844" xlink:href="#DejaVuSans-80"/>
      <use x="443.017578" xlink:href="#DejaVuSans-71"/>
      <use x="520.507812" xlink:href="#DejaVuSans-68"/>
      <use x="597.509766" xlink:href="#DejaVuSans-91"/>
      <use x="636.523438" xlink:href="#DejaVuSans-117"/>
      <use x="699.902344" xlink:href="#DejaVuSans-115"/>
      <use x="752.001953" xlink:href="#DejaVuSans-101"/>
      <use x="813.525391" xlink:href="#DejaVuSans-95"/>
      <use x="863.525391" xlink:href="#DejaVuSans-97"/>
      <use x="924.804688" xlink:href="#DejaVuSans-99"/>
      <use x="979.785156" xlink:href="#DejaVuSans-99"/>
      <use x="1034.765625" xlink:href="#DejaVuSans-101"/>
      <use x="1096.289062" xlink:href="#DejaVuSans-108"/>
      <use x="1124.072266" xlink:href="#DejaVuSans-101"/>
      <use x="1185.595703" xlink:href="#DejaVuSans-114"/>
      <use x="1226.708984" xlink:href="#DejaVuSans-97"/>
      <use x="1287.988281" xlink:href="#DejaVuSans-116"/>
      <use x="1327.197266" xlink:href="#DejaVuSans-105"/>
      <use x="1354.980469" xlink:href="#DejaVuSans-111"/>
      <use x="1416.162109" xlink:href="#DejaVuSans-110"/>
      <use x="1479.541016" xlink:href="#DejaVuSans-61"/>
      <use x="1563.330078" xlink:href="#DejaVuSans-84"/>
      <use x="1609.664062" xlink:href="#DejaVuSans-114"/>
      <use x="1650.777344" xlink:href="#DejaVuSans-117"/>
      <use x="1714.15625" xlink:href="#DejaVuSans-101"/>
      <use x="1775.679688" xlink:href="#DejaVuSans-93"/>
     </g>
    </g>
    <g id="line2d_84">
     <path d="M 89.481214 288.599687 
L 117.481214 288.599687 
" style="fill:none;stroke:#ff7f0e;stroke-linecap:square;stroke-width:3;"/>
    </g>
    <g id="line2d_85"/>
    <g id="text_28">
     <!-- R-PGD -->
     <g transform="translate(128.681214 293.499687)scale(0.14 -0.14)">
      <use xlink:href="#DejaVuSans-82"/>
      <use x="65.482422" xlink:href="#DejaVuSans-45"/>
      <use x="101.566406" xlink:href="#DejaVuSans-80"/>
      <use x="161.869141" xlink:href="#DejaVuSans-71"/>
      <use x="239.359375" xlink:href="#DejaVuSans-68"/>
     </g>
    </g>
    <g id="line2d_86">
     <path d="M 89.481214 309.149062 
L 117.481214 309.149062 
" style="fill:none;stroke:#2ca02c;stroke-linecap:square;stroke-width:3;"/>
    </g>
    <g id="line2d_87"/>
    <g id="text_29">
     <!-- sklearn -->
     <g transform="translate(128.681214 314.049062)scale(0.14 -0.14)">
      <defs>
       <path d="M 9.078125 75.984375 
L 18.109375 75.984375 
L 18.109375 31.109375 
L 44.921875 54.6875 
L 56.390625 54.6875 
L 27.390625 29.109375 
L 57.625 0 
L 45.90625 0 
L 18.109375 26.703125 
L 18.109375 0 
L 9.078125 0 
z
" id="DejaVuSans-107"/>
      </defs>
      <use xlink:href="#DejaVuSans-115"/>
      <use x="52.099609" xlink:href="#DejaVuSans-107"/>
      <use x="110.009766" xlink:href="#DejaVuSans-108"/>
      <use x="137.792969" xlink:href="#DejaVuSans-101"/>
      <use x="199.316406" xlink:href="#DejaVuSans-97"/>
      <use x="260.595703" xlink:href="#DejaVuSans-114"/>
      <use x="299.958984" xlink:href="#DejaVuSans-110"/>
     </g>
    </g>
    <g id="line2d_88">
     <path d="M 89.481214 329.698437 
L 117.481214 329.698437 
" style="fill:none;stroke:#d62728;stroke-linecap:square;stroke-width:3;"/>
    </g>
    <g id="line2d_89"/>
    <g id="text_30">
     <!-- statsmodels -->
     <g transform="translate(128.681214 334.598437)scale(0.14 -0.14)">
      <use xlink:href="#DejaVuSans-115"/>
      <use x="52.099609" xlink:href="#DejaVuSans-116"/>
      <use x="91.308594" xlink:href="#DejaVuSans-97"/>
      <use x="152.587891" xlink:href="#DejaVuSans-116"/>
      <use x="191.796875" xlink:href="#DejaVuSans-115"/>
      <use x="243.896484" xlink:href="#DejaVuSans-109"/>
      <use x="341.308594" xlink:href="#DejaVuSans-111"/>
      <use x="402.490234" xlink:href="#DejaVuSans-100"/>
      <use x="465.966797" xlink:href="#DejaVuSans-101"/>
      <use x="527.490234" xlink:href="#DejaVuSans-108"/>
      <use x="555.273438" xlink:href="#DejaVuSans-115"/>
     </g>
    </g>
   </g>
  </g>
 </g>
 <defs>
  <clipPath id="p3d4f1a0231">
   <rect height="253.288" width="373.118786" x="76.881214" y="43.44"/>
  </clipPath>
 </defs>
</svg>
