<?xml version="1.0" encoding="utf-8" standalone="no"?>
<!DOCTYPE svg PUBLIC "-//W3C//DTD SVG 1.1//EN"
  "http://www.w3.org/Graphics/SVG/1.1/DTD/svg11.dtd">
<!-- Created with matplotlib (https://matplotlib.org/) -->
<svg height="345.6pt" version="1.1" viewBox="0 0 460.8 345.6" width="460.8pt" xmlns="http://www.w3.org/2000/svg" xmlns:xlink="http://www.w3.org/1999/xlink">
 <metadata>
  <rdf:RDF xmlns:cc="http://creativecommons.org/ns#" xmlns:dc="http://purl.org/dc/elements/1.1/" xmlns:rdf="http://www.w3.org/1999/02/22-rdf-syntax-ns#">
   <cc:Work>
    <dc:type rdf:resource="http://purl.org/dc/dcmitype/StillImage"/>
    <dc:date>2020-12-16T15:44:58.911488</dc:date>
    <dc:format>image/svg+xml</dc:format>
    <dc:creator>
     <cc:Agent>
      <dc:title>Matplotlib v3.3.3, https://matplotlib.org/</dc:title>
     </cc:Agent>
    </dc:creator>
   </cc:Work>
  </rdf:RDF>
 </metadata>
 <defs>
  <style type="text/css">*{stroke-linecap:butt;stroke-linejoin:round;}</style>
 </defs>
 <g id="figure_1">
  <g id="patch_1">
   <path d="M 0 345.6 
L 460.8 345.6 
L 460.8 0 
L 0 0 
z
" style="fill:#ffffff;"/>
  </g>
  <g id="axes_1">
   <g id="patch_2">
    <path d="M 60.992054 296.728 
L 450 296.728 
L 450 46.848 
L 60.992054 46.848 
z
" style="fill:#ffffff;"/>
   </g>
   <g id="PolyCollection_1">
    <defs>
     <path d="M 128.63152 -60.356331 
L 123.70978 -60.356331 
L 122.018082 -60.356331 
L 125.771483 -61.268707 
L 118.566797 -60.356331 
L 117.941356 -60.356331 
L 118.159542 -60.356331 
L 121.724118 -61.268707 
L 120.208204 -60.356331 
L 116.939759 -60.356331 
L 116.584399 -61.268707 
L 116.385009 -133.048604 
L 119.479985 -146.100681 
L 118.557893 -61.268707 
L 116.83977 -148.533266 
L 118.158212 -152.216392 
L 117.840607 -163.233245 
L 116.04259 -163.744554 
L 118.049477 -163.155435 
L 115.425739 -168.236488 
L 116.597119 -181.149963 
L 116.485219 -179.56115 
L 117.707866 -182.426293 
L 117.301698 -177.991822 
L 116.223488 -199.798209 
L 116.889543 -200.828698 
L 116.055031 -200.601099 
L 113.600795 -197.42167 
L 117.825066 -198.10854 
L 112.286681 -199.421041 
L 108.871551 -232.832668 
L 109.223559 -200.025059 
L 80.596618 -251.716118 
L 78.709933 -257.379713 
L 78.688174 -257.994117 
L 78.674233 -257.026068 
L 80.595202 -256.384206 
L 138.107916 -256.384206 
L 138.107916 -256.384206 
L 84.351861 -257.026068 
L 82.842601 -257.994117 
L 80.106192 -257.379713 
L 107.857175 -251.716118 
L 139.01367 -200.025059 
L 116.256482 -232.832668 
L 119.301911 -199.421041 
L 120.49976 -198.10854 
L 114.75984 -197.42167 
L 118.482334 -200.601099 
L 122.397365 -200.828698 
L 122.425263 -199.798209 
L 121.882305 -177.991822 
L 122.735231 -182.426293 
L 119.678539 -179.56115 
L 119.483638 -181.149963 
L 121.870585 -168.236488 
L 136.306432 -163.155435 
L 119.088271 -163.744554 
L 128.320443 -163.233245 
L 129.316856 -152.216392 
L 119.436457 -148.533266 
L 126.991305 -61.268707 
L 122.436305 -146.100681 
L 119.047386 -133.048604 
L 120.906712 -61.268707 
L 120.387212 -60.356331 
L 121.925202 -60.356331 
L 122.668128 -61.268707 
L 121.475202 -60.356331 
L 120.297096 -60.356331 
L 121.837902 -60.356331 
L 137.829767 -61.268707 
L 139.557479 -60.356331 
L 128.63152 -60.356331 
z
" id="m809cbedba1" style="stroke:#1f77b4;stroke-opacity:0.3;"/>
    </defs>
    <g clip-path="url(#p9720ecc3a8)">
     <use style="fill:#1f77b4;fill-opacity:0.3;stroke:#1f77b4;stroke-opacity:0.3;" x="0" xlink:href="#m809cbedba1" y="345.6"/>
    </g>
   </g>
   <g id="PolyCollection_2">
    <defs>
     <path d="M 125.076021 -270.467129 
L 98.290768 -270.467129 
L 109.593179 -252.73328 
L 110.639444 -235.824205 
L 114.939495 -218.946185 
L 125.097961 -191.200974 
L 133.228667 -151.923436 
L 140.997653 -102.742143 
L 154.043283 -61.268707 
L 170.458669 -61.268707 
L 181.348808 -61.268707 
L 194.26876 -60.356331 
L 209.34372 -60.356331 
L 229.420537 -61.268707 
L 231.126125 -61.268707 
L 231.126125 -61.268707 
L 211.189932 -60.356331 
L 197.929806 -60.356331 
L 186.307128 -61.268707 
L 178.841376 -61.268707 
L 160.396081 -61.268707 
L 152.021999 -102.742143 
L 140.008374 -151.923436 
L 142.678915 -191.200974 
L 137.353831 -218.946185 
L 124.644635 -235.824205 
L 130.835419 -252.73328 
L 125.076021 -270.467129 
z
" id="m9f5a0d87c9" style="stroke:#ff7f0e;stroke-opacity:0.3;"/>
    </defs>
    <g clip-path="url(#p9720ecc3a8)">
     <use style="fill:#ff7f0e;fill-opacity:0.3;stroke:#ff7f0e;stroke-opacity:0.3;" x="0" xlink:href="#m9f5a0d87c9" y="345.6"/>
    </g>
   </g>
   <g id="PolyCollection_3">
    <defs>
     <path d="M 136.498094 -264.073497 
L 117.673259 -264.073497 
L 120.404239 -252.644799 
L 133.085011 -146.33385 
L 138.641536 -61.268707 
L 139.860348 -60.356331 
L 143.469322 -60.356331 
L 142.757828 -60.356331 
L 140.744641 -60.356331 
L 141.532159 -60.356331 
L 151.089553 -60.356331 
L 151.089553 -60.356331 
L 149.706742 -60.356331 
L 147.450947 -60.356331 
L 156.216129 -60.356331 
L 150.268241 -60.356331 
L 147.756079 -61.268707 
L 148.207526 -146.33385 
L 143.652314 -252.644799 
L 136.498094 -264.073497 
z
" id="md0ad7fd326" style="stroke:#2ca02c;stroke-opacity:0.3;"/>
    </defs>
    <g clip-path="url(#p9720ecc3a8)">
     <use style="fill:#2ca02c;fill-opacity:0.3;stroke:#2ca02c;stroke-opacity:0.3;" x="0" xlink:href="#md0ad7fd326" y="345.6"/>
    </g>
   </g>
   <g id="PolyCollection_4">
    <defs>
     <path d="M 318.459144 -281.916482 
L 267.347309 -281.916482 
L 276.088293 -281.916482 
L 284.312934 -281.916482 
L 302.741554 -281.916482 
L 326.441208 -286.735347 
L 347.173567 -146.138038 
L 350.108326 -146.138038 
L 350.752474 -146.138038 
L 350.955275 -146.138038 
L 347.844002 -146.138038 
L 347.957054 -146.138038 
L 348.924441 -146.138038 
L 348.924441 -146.138038 
L 349.3329 -146.138038 
L 352.549659 -146.138038 
L 351.412075 -146.138038 
L 353.102247 -146.138038 
L 348.88091 -146.138038 
L 333.464899 -286.735347 
L 306.868803 -281.916482 
L 285.900644 -281.916482 
L 279.656367 -281.916482 
L 318.459144 -281.916482 
z
" id="m8462ffe94b" style="stroke:#d62728;stroke-opacity:0.3;"/>
    </defs>
    <g clip-path="url(#p9720ecc3a8)">
     <use style="fill:#d62728;fill-opacity:0.3;stroke:#d62728;stroke-opacity:0.3;" x="0" xlink:href="#m8462ffe94b" y="345.6"/>
    </g>
   </g>
   <g id="PolyCollection_5">
    <defs>
     <path d="M 155.24696 -275.767878 
L 112.479627 -275.767878 
L 116.695516 -274.020993 
L 138.145235 -267.596417 
L 128.030059 -266.964478 
L 141.667754 -265.325625 
L 142.276043 -262.113697 
L 153.299375 -261.502486 
L 159.618572 -261.502486 
L 175.989859 -244.898923 
L 202.408875 -205.568206 
L 220.874181 -134.780506 
L 240.15894 -65.092377 
L 261.050158 -61.268707 
L 282.132916 -60.356331 
L 302.157964 -61.268707 
L 320.282769 -61.268707 
L 320.770126 -61.268707 
L 321.421137 -61.268707 
L 321.421137 -61.268707 
L 320.607824 -61.268707 
L 302.772791 -61.268707 
L 283.447334 -60.356331 
L 262.246039 -61.268707 
L 240.84815 -65.092377 
L 223.030512 -134.780506 
L 211.151429 -205.568206 
L 184.695274 -244.898923 
L 175.060137 -261.502486 
L 162.946257 -261.502486 
L 159.303765 -262.113697 
L 157.961394 -265.325625 
L 150.904345 -266.964478 
L 161.158949 -267.596417 
L 143.456841 -274.020993 
L 155.24696 -275.767878 
z
" id="mdf9f9b8af1" style="stroke:#9467bd;stroke-opacity:0.3;"/>
    </defs>
    <g clip-path="url(#p9720ecc3a8)">
     <use style="fill:#9467bd;fill-opacity:0.3;stroke:#9467bd;stroke-opacity:0.3;" x="0" xlink:href="#mdf9f9b8af1" y="345.6"/>
    </g>
   </g>
   <g id="PolyCollection_6">
    <defs>
     <path d="M 195.746166 -275.767878 
L 173.768623 -275.767878 
L 174.492184 -275.710523 
L 174.48831 -275.710523 
L 183.99148 -275.653896 
L 178.21458 -275.597999 
L 183.087311 -275.488403 
L 186.226043 -275.27805 
L 195.027746 -274.892931 
L 201.13604 -274.515074 
L 208.399051 -273.242702 
L 217.510162 -271.165493 
L 223.828885 -266.752564 
L 234.027979 -249.705426 
L 238.391581 -65.563783 
L 236.843586 -65.563783 
L 237.307169 -65.563783 
L 235.993256 -65.563783 
L 237.500274 -65.563783 
L 236.412107 -65.563783 
L 242.465077 -65.563783 
L 242.465077 -65.563783 
L 246.159225 -65.563783 
L 241.911552 -65.563783 
L 259.044459 -65.563783 
L 256.489253 -65.563783 
L 256.521988 -65.563783 
L 255.275292 -249.705426 
L 232.6958 -266.752564 
L 244.746128 -271.165493 
L 219.012153 -273.242702 
L 241.398955 -274.515074 
L 212.162398 -274.892931 
L 237.326253 -275.27805 
L 194.761301 -275.488403 
L 197.926772 -275.597999 
L 228.76476 -275.653896 
L 203.383575 -275.710523 
L 190.802415 -275.710523 
L 195.746166 -275.767878 
z
" id="m1255423447" style="stroke:#8c564b;stroke-opacity:0.3;"/>
    </defs>
    <g clip-path="url(#p9720ecc3a8)">
     <use style="fill:#8c564b;fill-opacity:0.3;stroke:#8c564b;stroke-opacity:0.3;" x="0" xlink:href="#m1255423447" y="345.6"/>
    </g>
   </g>
   <g id="PolyCollection_7">
    <defs>
     <path d="M 249.400922 -274.729657 
L 202.467113 -274.729657 
L 201.777623 -273.842639 
L 202.265664 -273.0723 
L 202.93283 -272.394282 
L 204.88918 -271.232952 
L 207.149649 -269.791887 
L 209.534833 -268.211441 
L 212.475709 -266.208154 
L 219.232189 -263.87021 
L 229.840901 -261.118577 
L 238.595703 -257.977133 
L 248.009569 -253.886407 
L 259.589616 -248.366987 
L 267.416404 -241.412842 
L 271.891098 -231.38866 
L 277.614966 -215.224403 
L 284.875901 -193.684137 
L 294.375154 -163.049282 
L 301.538168 -119.517146 
L 313.958762 -67.52942 
L 323.652123 -61.268707 
L 337.138396 -61.268707 
L 356.527313 -60.356331 
L 374.09895 -60.356331 
L 419.518974 -60.356331 
L 419.518974 -60.356331 
L 419.518974 -60.356331 
L 378.324497 -60.356331 
L 358.277343 -60.356331 
L 341.328697 -61.268707 
L 325.660794 -61.268707 
L 316.7139 -67.52942 
L 305.703506 -119.517146 
L 300.017377 -163.049282 
L 286.655684 -193.684137 
L 283.114389 -215.224403 
L 273.039823 -231.38866 
L 267.97314 -241.412842 
L 260.453603 -248.366987 
L 249.439043 -253.886407 
L 241.991604 -257.977133 
L 233.730007 -261.118577 
L 222.403898 -263.87021 
L 221.173167 -266.208154 
L 218.833536 -268.211441 
L 211.135209 -269.791887 
L 212.206462 -271.232952 
L 214.267059 -272.394282 
L 213.135846 -273.0723 
L 210.743129 -273.842639 
L 249.400922 -274.729657 
z
" id="m199f389d72" style="stroke:#e377c2;stroke-opacity:0.3;"/>
    </defs>
    <g clip-path="url(#p9720ecc3a8)">
     <use style="fill:#e377c2;fill-opacity:0.3;stroke:#e377c2;stroke-opacity:0.3;" x="0" xlink:href="#m199f389d72" y="345.6"/>
    </g>
   </g>
   <g id="PolyCollection_8">
    <defs>
     <path d="M 192.48615 -272.67082 
L 178.929713 -272.67082 
L 180.048535 -270.203602 
L 182.023257 -269.802176 
L 183.833581 -267.828825 
L 188.741074 -265.252921 
L 193.273577 -262.306488 
L 199.786154 -258.878333 
L 208.587556 -250.257451 
L 266.754011 -235.58169 
L 275.106004 -216.487904 
L 290.00793 -196.400364 
L 298.392509 -159.967534 
L 310.289365 -102.78936 
L 317.815809 -69.054087 
L 287.410228 -69.054087 
L 268.155285 -69.054087 
L 263.627191 -69.054087 
L 260.087375 -69.054087 
L 260.037181 -69.054087 
L 263.017539 -69.054087 
L 263.017539 -69.054087 
L 269.245405 -69.054087 
L 267.063367 -69.054087 
L 283.382433 -69.054087 
L 351.265515 -69.054087 
L 330.577984 -69.054087 
L 318.16872 -102.78936 
L 307.891501 -159.967534 
L 293.933623 -196.400364 
L 282.325275 -216.487904 
L 286.803438 -235.58169 
L 215.547693 -250.257451 
L 232.390458 -258.878333 
L 194.461935 -262.306488 
L 228.09391 -265.252921 
L 186.89509 -267.828825 
L 187.945007 -269.802176 
L 224.145254 -270.203602 
L 192.48615 -272.67082 
z
" id="mfa5c157291" style="stroke:#7f7f7f;stroke-opacity:0.3;"/>
    </defs>
    <g clip-path="url(#p9720ecc3a8)">
     <use style="fill:#7f7f7f;fill-opacity:0.3;stroke:#7f7f7f;stroke-opacity:0.3;" x="0" xlink:href="#mfa5c157291" y="345.6"/>
    </g>
   </g>
   <g id="PolyCollection_9">
    <defs>
     <path d="M 137.776126 -287.393818 
L 120.146994 -287.393818 
L 144.535049 -280.256577 
L 144.242186 -278.224381 
L 145.579762 -277.306401 
L 146.359952 -276.823354 
L 146.017318 -276.719191 
L 146.547015 -276.607263 
L 148.896575 -276.774837 
L 150.973294 -276.60208 
L 153.563668 -276.661743 
L 157.162556 -276.608025 
L 163.573377 -276.489254 
L 168.040229 -276.664232 
L 175.156474 -276.616289 
L 181.56288 -276.708054 
L 190.208963 -276.680216 
L 201.005283 -276.618174 
L 210.667324 -276.890486 
L 223.109525 -276.701086 
L 233.678389 -276.597806 
L 251.289603 -276.686483 
L 263.411869 -276.58125 
L 273.84691 -276.74985 
L 284.850692 -276.659931 
L 297.613867 -276.656261 
L 309.496415 -276.839852 
L 324.185233 -276.792829 
L 336.68118 -276.824624 
L 350.615181 -277.322452 
L 364.108351 -276.700847 
L 382.284386 -276.535522 
L 402.008453 -276.460156 
L 405.007895 -276.460156 
L 405.007895 -276.460156 
L 387.458543 -276.535522 
L 376.920689 -276.700847 
L 358.573795 -277.322452 
L 338.134516 -276.824624 
L 327.463151 -276.792829 
L 313.25229 -276.839852 
L 299.898197 -276.656261 
L 289.227437 -276.659931 
L 279.126186 -276.74985 
L 266.280486 -276.58125 
L 253.852021 -276.686483 
L 239.095958 -276.597806 
L 224.988128 -276.701086 
L 214.963883 -276.890486 
L 203.463601 -276.618174 
L 196.066757 -276.680216 
L 185.939232 -276.708054 
L 178.872846 -276.616289 
L 171.799278 -276.664232 
L 165.13118 -276.489254 
L 161.846658 -276.608025 
L 155.725404 -276.661743 
L 152.920958 -276.60208 
L 151.171061 -276.774837 
L 149.198133 -276.607263 
L 151.381478 -276.719191 
L 149.912732 -276.823354 
L 147.207121 -277.306401 
L 148.130704 -278.224381 
L 146.87975 -280.256577 
L 137.776126 -287.393818 
z
" id="m305bc41520" style="stroke:#bcbd22;stroke-opacity:0.3;"/>
    </defs>
    <g clip-path="url(#p9720ecc3a8)">
     <use style="fill:#bcbd22;fill-opacity:0.3;stroke:#bcbd22;stroke-opacity:0.3;" x="0" xlink:href="#m305bc41520" y="345.6"/>
    </g>
   </g>
   <g id="PolyCollection_10">
    <defs>
     <path d="M 206.516479 -274.729657 
L 201.862611 -274.729657 
L 204.243786 -273.842639 
L 206.358838 -273.0723 
L 207.307327 -272.394282 
L 210.047682 -271.232952 
L 208.754994 -269.791887 
L 210.26684 -268.211441 
L 212.439428 -266.208154 
L 215.816962 -263.87021 
L 218.336712 -261.118577 
L 224.393054 -257.977133 
L 231.982161 -253.886407 
L 239.358693 -248.366987 
L 250.925224 -241.412842 
L 258.314672 -231.38866 
L 272.366049 -215.224403 
L 288.529368 -193.684137 
L 299.003915 -163.049282 
L 309.583194 -119.517146 
L 323.165816 -67.52942 
L 337.556665 -60.356331 
L 350.268544 -60.356331 
L 370.665625 -60.356331 
L 397.715103 -60.356331 
L 432.317821 -60.356331 
L 432.317821 -60.356331 
L 432.317821 -60.356331 
L 399.408949 -60.356331 
L 371.617395 -60.356331 
L 353.254873 -60.356331 
L 339.958435 -60.356331 
L 325.842059 -67.52942 
L 312.680151 -119.517146 
L 302.050533 -163.049282 
L 290.01976 -193.684137 
L 276.844426 -215.224403 
L 263.338657 -231.38866 
L 263.072237 -241.412842 
L 240.877512 -248.366987 
L 237.407606 -253.886407 
L 230.296872 -257.977133 
L 221.878586 -261.118577 
L 225.042501 -263.87021 
L 219.566317 -266.208154 
L 214.473655 -268.211441 
L 211.722735 -269.791887 
L 217.761974 -271.232952 
L 212.266712 -272.394282 
L 214.151902 -273.0723 
L 224.361864 -273.842639 
L 206.516479 -274.729657 
z
" id="meacec25a79" style="stroke:#17becf;stroke-opacity:0.3;"/>
    </defs>
    <g clip-path="url(#p9720ecc3a8)">
     <use style="fill:#17becf;fill-opacity:0.3;stroke:#17becf;stroke-opacity:0.3;" x="0" xlink:href="#meacec25a79" y="345.6"/>
    </g>
   </g>
   <g id="PolyCollection_11">
    <defs>
     <path d="M 218.494284 -274.729657 
L 214.239353 -274.729657 
L 216.337918 -273.842639 
L 216.403241 -272.857714 
L 214.022917 -271.835949 
L 214.259203 -269.77952 
L 215.613083 -266.764914 
L 217.543995 -262.977224 
L 220.293118 -258.248862 
L 220.925691 -249.899855 
L 223.772526 -234.315598 
L 228.637233 -222.637538 
L 235.311093 -207.676969 
L 241.497933 -200.135506 
L 245.500192 -187.468486 
L 257.040115 -179.206173 
L 269.029398 -164.909489 
L 283.423609 -146.979206 
L 296.085353 -124.21657 
L 309.495841 -96.083099 
L 323.559729 -66.004754 
L 337.797488 -60.356331 
L 353.528319 -61.268707 
L 366.494547 -60.356331 
L 379.179753 -61.268707 
L 394.42888 -60.356331 
L 395.565982 -60.356331 
L 395.565982 -60.356331 
L 384.891782 -61.268707 
L 370.679403 -60.356331 
L 358.100738 -61.268707 
L 338.785499 -60.356331 
L 326.165459 -66.004754 
L 311.581224 -96.083099 
L 297.335688 -124.21657 
L 284.298552 -146.979206 
L 272.826777 -164.909489 
L 257.31536 -179.206173 
L 250.170526 -187.468486 
L 247.079691 -200.135506 
L 237.219837 -207.676969 
L 232.116456 -222.637538 
L 227.316507 -234.315598 
L 223.484679 -249.899855 
L 222.647062 -258.248862 
L 221.454273 -262.977224 
L 217.497512 -266.764914 
L 217.849723 -269.77952 
L 217.735152 -271.835949 
L 218.574054 -272.857714 
L 218.445559 -273.842639 
L 218.494284 -274.729657 
z
" id="m8b2e58c5c1" style="stroke:#1f77b4;stroke-opacity:0.3;"/>
    </defs>
    <g clip-path="url(#p9720ecc3a8)">
     <use style="fill:#1f77b4;fill-opacity:0.3;stroke:#1f77b4;stroke-opacity:0.3;" x="0" xlink:href="#m8b2e58c5c1" y="345.6"/>
    </g>
   </g>
   <g id="PolyCollection_12">
    <defs>
     <path d="M 239.960994 -274.729657 
L 224.334195 -274.729657 
L 233.108599 -273.842639 
L 237.904314 -273.0723 
L 245.82909 -272.394282 
L 254.875081 -271.232952 
L 267.336807 -269.791887 
L 277.571698 -268.211441 
L 289.02531 -266.208154 
L 303.496254 -263.87021 
L 317.212699 -261.118577 
L 331.458011 -257.977133 
L 345.102556 -253.886407 
L 359.775294 -248.366987 
L 375.919738 -241.412842 
L 390.806175 -231.38866 
L 405.618999 -215.224403 
L 405.80266 -215.224403 
L 405.80266 -215.224403 
L 391.764663 -231.38866 
L 376.809184 -241.412842 
L 360.370483 -248.366987 
L 348.093312 -253.886407 
L 332.134121 -257.977133 
L 319.871507 -261.118577 
L 307.822393 -263.87021 
L 292.640259 -266.208154 
L 281.626432 -268.211441 
L 269.27477 -269.791887 
L 271.580872 -271.232952 
L 248.405649 -272.394282 
L 244.390354 -273.0723 
L 239.288765 -273.842639 
L 239.960994 -274.729657 
z
" id="m96673f30ee" style="stroke:#ff7f0e;stroke-opacity:0.3;"/>
    </defs>
    <g clip-path="url(#p9720ecc3a8)">
     <use style="fill:#ff7f0e;fill-opacity:0.3;stroke:#ff7f0e;stroke-opacity:0.3;" x="0" xlink:href="#m96673f30ee" y="345.6"/>
    </g>
   </g>
   <g id="PolyCollection_13">
    <defs>
     <path d="M 167.419983 -270.467129 
L 132.735993 -270.467129 
L 143.906693 -252.73328 
L 133.642274 -235.824205 
L 146.139403 -218.946185 
L 144.181417 -191.200974 
L 151.667319 -151.923435 
L 155.072258 -102.742143 
L 163.984404 -61.268707 
L 174.488471 -61.268707 
L 180.936882 -61.268707 
L 199.504399 -61.268707 
L 222.3694 -60.356331 
L 249.996751 -61.268707 
L 250.804089 -61.268707 
L 250.804089 -61.268707 
L 225.376346 -60.356331 
L 204.702049 -61.268707 
L 185.98486 -61.268707 
L 182.793681 -61.268707 
L 167.825922 -61.268707 
L 168.556462 -102.742143 
L 162.377244 -151.923435 
L 158.953069 -191.200974 
L 161.916758 -218.946185 
L 163.108821 -235.824205 
L 149.440244 -252.73328 
L 167.419983 -270.467129 
z
" id="ma62b8611b8" style="stroke:#2ca02c;stroke-opacity:0.3;"/>
    </defs>
    <g clip-path="url(#p9720ecc3a8)">
     <use style="fill:#2ca02c;fill-opacity:0.3;stroke:#2ca02c;stroke-opacity:0.3;" x="0" xlink:href="#ma62b8611b8" y="345.6"/>
    </g>
   </g>
   <g id="PolyCollection_14">
    <defs>
     <path d="M 356.048961 -270.467129 
L 352.994445 -270.467129 
L 376.55946 -252.73328 
L 375.396384 -236.598195 
L 376.495666 -228.65613 
L 383.03637 -227.545996 
L 385.021881 -227.53239 
L 385.021881 -227.53239 
L 385.021881 -227.53239 
L 386.669013 -227.545996 
L 381.681974 -228.65613 
L 376.685498 -236.598195 
L 380.179759 -252.73328 
L 356.048961 -270.467129 
z
" id="mbdea1b18d3" style="stroke:#d62728;stroke-opacity:0.3;"/>
    </defs>
    <g clip-path="url(#p9720ecc3a8)">
     <use style="fill:#d62728;fill-opacity:0.3;stroke:#d62728;stroke-opacity:0.3;" x="0" xlink:href="#mbdea1b18d3" y="345.6"/>
    </g>
   </g>
   <g id="matplotlib.axis_1">
    <g id="xtick_1">
     <g id="line2d_1">
      <defs>
       <path d="M 0 0 
L 0 3.5 
" id="mb1bf632ff3" style="stroke:#000000;stroke-width:0.8;"/>
      </defs>
      <g>
       <use style="stroke:#000000;stroke-width:0.8;" x="72.683661" xlink:href="#mb1bf632ff3" y="296.728"/>
      </g>
     </g>
     <g id="text_1">
      <!-- $\mathdefault{10^{-3}}$ -->
      <g transform="translate(60.933661 311.326437)scale(0.1 -0.1)">
       <defs>
        <path d="M 12.40625 8.296875 
L 28.515625 8.296875 
L 28.515625 63.921875 
L 10.984375 60.40625 
L 10.984375 69.390625 
L 28.421875 72.90625 
L 38.28125 72.90625 
L 38.28125 8.296875 
L 54.390625 8.296875 
L 54.390625 0 
L 12.40625 0 
z
" id="DejaVuSans-49"/>
        <path d="M 31.78125 66.40625 
Q 24.171875 66.40625 20.328125 58.90625 
Q 16.5 51.421875 16.5 36.375 
Q 16.5 21.390625 20.328125 13.890625 
Q 24.171875 6.390625 31.78125 6.390625 
Q 39.453125 6.390625 43.28125 13.890625 
Q 47.125 21.390625 47.125 36.375 
Q 47.125 51.421875 43.28125 58.90625 
Q 39.453125 66.40625 31.78125 66.40625 
z
M 31.78125 74.21875 
Q 44.046875 74.21875 50.515625 64.515625 
Q 56.984375 54.828125 56.984375 36.375 
Q 56.984375 17.96875 50.515625 8.265625 
Q 44.046875 -1.421875 31.78125 -1.421875 
Q 19.53125 -1.421875 13.0625 8.265625 
Q 6.59375 17.96875 6.59375 36.375 
Q 6.59375 54.828125 13.0625 64.515625 
Q 19.53125 74.21875 31.78125 74.21875 
z
" id="DejaVuSans-48"/>
        <path d="M 10.59375 35.5 
L 73.1875 35.5 
L 73.1875 27.203125 
L 10.59375 27.203125 
z
" id="DejaVuSans-8722"/>
        <path d="M 40.578125 39.3125 
Q 47.65625 37.796875 51.625 33 
Q 55.609375 28.21875 55.609375 21.1875 
Q 55.609375 10.40625 48.1875 4.484375 
Q 40.765625 -1.421875 27.09375 -1.421875 
Q 22.515625 -1.421875 17.65625 -0.515625 
Q 12.796875 0.390625 7.625 2.203125 
L 7.625 11.71875 
Q 11.71875 9.328125 16.59375 8.109375 
Q 21.484375 6.890625 26.8125 6.890625 
Q 36.078125 6.890625 40.9375 10.546875 
Q 45.796875 14.203125 45.796875 21.1875 
Q 45.796875 27.640625 41.28125 31.265625 
Q 36.765625 34.90625 28.71875 34.90625 
L 20.21875 34.90625 
L 20.21875 43.015625 
L 29.109375 43.015625 
Q 36.375 43.015625 40.234375 45.921875 
Q 44.09375 48.828125 44.09375 54.296875 
Q 44.09375 59.90625 40.109375 62.90625 
Q 36.140625 65.921875 28.71875 65.921875 
Q 24.65625 65.921875 20.015625 65.03125 
Q 15.375 64.15625 9.8125 62.3125 
L 9.8125 71.09375 
Q 15.4375 72.65625 20.34375 73.4375 
Q 25.25 74.21875 29.59375 74.21875 
Q 40.828125 74.21875 47.359375 69.109375 
Q 53.90625 64.015625 53.90625 55.328125 
Q 53.90625 49.265625 50.4375 45.09375 
Q 46.96875 40.921875 40.578125 39.3125 
z
" id="DejaVuSans-51"/>
       </defs>
       <use transform="translate(0 0.765625)" xlink:href="#DejaVuSans-49"/>
       <use transform="translate(63.623047 0.765625)" xlink:href="#DejaVuSans-48"/>
       <use transform="translate(128.203125 39.046875)scale(0.7)" xlink:href="#DejaVuSans-8722"/>
       <use transform="translate(186.855469 39.046875)scale(0.7)" xlink:href="#DejaVuSans-51"/>
      </g>
     </g>
    </g>
    <g id="xtick_2">
     <g id="line2d_2">
      <g>
       <use style="stroke:#000000;stroke-width:0.8;" x="157.301111" xlink:href="#mb1bf632ff3" y="296.728"/>
      </g>
     </g>
     <g id="text_2">
      <!-- $\mathdefault{10^{-2}}$ -->
      <g transform="translate(145.551111 311.326437)scale(0.1 -0.1)">
       <defs>
        <path d="M 19.1875 8.296875 
L 53.609375 8.296875 
L 53.609375 0 
L 7.328125 0 
L 7.328125 8.296875 
Q 12.9375 14.109375 22.625 23.890625 
Q 32.328125 33.6875 34.8125 36.53125 
Q 39.546875 41.84375 41.421875 45.53125 
Q 43.3125 49.21875 43.3125 52.78125 
Q 43.3125 58.59375 39.234375 62.25 
Q 35.15625 65.921875 28.609375 65.921875 
Q 23.96875 65.921875 18.8125 64.3125 
Q 13.671875 62.703125 7.8125 59.421875 
L 7.8125 69.390625 
Q 13.765625 71.78125 18.9375 73 
Q 24.125 74.21875 28.421875 74.21875 
Q 39.75 74.21875 46.484375 68.546875 
Q 53.21875 62.890625 53.21875 53.421875 
Q 53.21875 48.921875 51.53125 44.890625 
Q 49.859375 40.875 45.40625 35.40625 
Q 44.1875 33.984375 37.640625 27.21875 
Q 31.109375 20.453125 19.1875 8.296875 
z
" id="DejaVuSans-50"/>
       </defs>
       <use transform="translate(0 0.765625)" xlink:href="#DejaVuSans-49"/>
       <use transform="translate(63.623047 0.765625)" xlink:href="#DejaVuSans-48"/>
       <use transform="translate(128.203125 39.046875)scale(0.7)" xlink:href="#DejaVuSans-8722"/>
       <use transform="translate(186.855469 39.046875)scale(0.7)" xlink:href="#DejaVuSans-50"/>
      </g>
     </g>
    </g>
    <g id="xtick_3">
     <g id="line2d_3">
      <g>
       <use style="stroke:#000000;stroke-width:0.8;" x="241.918562" xlink:href="#mb1bf632ff3" y="296.728"/>
      </g>
     </g>
     <g id="text_3">
      <!-- $\mathdefault{10^{-1}}$ -->
      <g transform="translate(230.168562 311.326437)scale(0.1 -0.1)">
       <use transform="translate(0 0.684375)" xlink:href="#DejaVuSans-49"/>
       <use transform="translate(63.623047 0.684375)" xlink:href="#DejaVuSans-48"/>
       <use transform="translate(128.203125 38.965625)scale(0.7)" xlink:href="#DejaVuSans-8722"/>
       <use transform="translate(186.855469 38.965625)scale(0.7)" xlink:href="#DejaVuSans-49"/>
      </g>
     </g>
    </g>
    <g id="xtick_4">
     <g id="line2d_4">
      <g>
       <use style="stroke:#000000;stroke-width:0.8;" x="326.536012" xlink:href="#mb1bf632ff3" y="296.728"/>
      </g>
     </g>
     <g id="text_4">
      <!-- $\mathdefault{10^{0}}$ -->
      <g transform="translate(317.736012 311.326437)scale(0.1 -0.1)">
       <use transform="translate(0 0.765625)" xlink:href="#DejaVuSans-49"/>
       <use transform="translate(63.623047 0.765625)" xlink:href="#DejaVuSans-48"/>
       <use transform="translate(128.203125 39.046875)scale(0.7)" xlink:href="#DejaVuSans-48"/>
      </g>
     </g>
    </g>
    <g id="xtick_5">
     <g id="line2d_5">
      <g>
       <use style="stroke:#000000;stroke-width:0.8;" x="411.153463" xlink:href="#mb1bf632ff3" y="296.728"/>
      </g>
     </g>
     <g id="text_5">
      <!-- $\mathdefault{10^{1}}$ -->
      <g transform="translate(402.353463 311.326437)scale(0.1 -0.1)">
       <use transform="translate(0 0.684375)" xlink:href="#DejaVuSans-49"/>
       <use transform="translate(63.623047 0.684375)" xlink:href="#DejaVuSans-48"/>
       <use transform="translate(128.203125 38.965625)scale(0.7)" xlink:href="#DejaVuSans-49"/>
      </g>
     </g>
    </g>
    <g id="xtick_6">
     <g id="line2d_6">
      <defs>
       <path d="M 0 0 
L 0 2 
" id="m6e9fc46f83" style="stroke:#000000;stroke-width:0.6;"/>
      </defs>
      <g>
       <use style="stroke:#000000;stroke-width:0.6;" x="64.483383" xlink:href="#m6e9fc46f83" y="296.728"/>
      </g>
     </g>
    </g>
    <g id="xtick_7">
     <g id="line2d_7">
      <g>
       <use style="stroke:#000000;stroke-width:0.6;" x="68.811779" xlink:href="#m6e9fc46f83" y="296.728"/>
      </g>
     </g>
    </g>
    <g id="xtick_8">
     <g id="line2d_8">
      <g>
       <use style="stroke:#000000;stroke-width:0.6;" x="98.156052" xlink:href="#m6e9fc46f83" y="296.728"/>
      </g>
     </g>
    </g>
    <g id="xtick_9">
     <g id="line2d_9">
      <g>
       <use style="stroke:#000000;stroke-width:0.6;" x="113.056445" xlink:href="#m6e9fc46f83" y="296.728"/>
      </g>
     </g>
    </g>
    <g id="xtick_10">
     <g id="line2d_10">
      <g>
       <use style="stroke:#000000;stroke-width:0.6;" x="123.628442" xlink:href="#m6e9fc46f83" y="296.728"/>
      </g>
     </g>
    </g>
    <g id="xtick_11">
     <g id="line2d_11">
      <g>
       <use style="stroke:#000000;stroke-width:0.6;" x="131.828721" xlink:href="#m6e9fc46f83" y="296.728"/>
      </g>
     </g>
    </g>
    <g id="xtick_12">
     <g id="line2d_12">
      <g>
       <use style="stroke:#000000;stroke-width:0.6;" x="138.528836" xlink:href="#m6e9fc46f83" y="296.728"/>
      </g>
     </g>
    </g>
    <g id="xtick_13">
     <g id="line2d_13">
      <g>
       <use style="stroke:#000000;stroke-width:0.6;" x="144.193702" xlink:href="#m6e9fc46f83" y="296.728"/>
      </g>
     </g>
    </g>
    <g id="xtick_14">
     <g id="line2d_14">
      <g>
       <use style="stroke:#000000;stroke-width:0.6;" x="149.100833" xlink:href="#m6e9fc46f83" y="296.728"/>
      </g>
     </g>
    </g>
    <g id="xtick_15">
     <g id="line2d_15">
      <g>
       <use style="stroke:#000000;stroke-width:0.6;" x="153.429229" xlink:href="#m6e9fc46f83" y="296.728"/>
      </g>
     </g>
    </g>
    <g id="xtick_16">
     <g id="line2d_16">
      <g>
       <use style="stroke:#000000;stroke-width:0.6;" x="182.773502" xlink:href="#m6e9fc46f83" y="296.728"/>
      </g>
     </g>
    </g>
    <g id="xtick_17">
     <g id="line2d_17">
      <g>
       <use style="stroke:#000000;stroke-width:0.6;" x="197.673895" xlink:href="#m6e9fc46f83" y="296.728"/>
      </g>
     </g>
    </g>
    <g id="xtick_18">
     <g id="line2d_18">
      <g>
       <use style="stroke:#000000;stroke-width:0.6;" x="208.245893" xlink:href="#m6e9fc46f83" y="296.728"/>
      </g>
     </g>
    </g>
    <g id="xtick_19">
     <g id="line2d_19">
      <g>
       <use style="stroke:#000000;stroke-width:0.6;" x="216.446171" xlink:href="#m6e9fc46f83" y="296.728"/>
      </g>
     </g>
    </g>
    <g id="xtick_20">
     <g id="line2d_20">
      <g>
       <use style="stroke:#000000;stroke-width:0.6;" x="223.146286" xlink:href="#m6e9fc46f83" y="296.728"/>
      </g>
     </g>
    </g>
    <g id="xtick_21">
     <g id="line2d_21">
      <g>
       <use style="stroke:#000000;stroke-width:0.6;" x="228.811153" xlink:href="#m6e9fc46f83" y="296.728"/>
      </g>
     </g>
    </g>
    <g id="xtick_22">
     <g id="line2d_22">
      <g>
       <use style="stroke:#000000;stroke-width:0.6;" x="233.718284" xlink:href="#m6e9fc46f83" y="296.728"/>
      </g>
     </g>
    </g>
    <g id="xtick_23">
     <g id="line2d_23">
      <g>
       <use style="stroke:#000000;stroke-width:0.6;" x="238.04668" xlink:href="#m6e9fc46f83" y="296.728"/>
      </g>
     </g>
    </g>
    <g id="xtick_24">
     <g id="line2d_24">
      <g>
       <use style="stroke:#000000;stroke-width:0.6;" x="267.390952" xlink:href="#m6e9fc46f83" y="296.728"/>
      </g>
     </g>
    </g>
    <g id="xtick_25">
     <g id="line2d_25">
      <g>
       <use style="stroke:#000000;stroke-width:0.6;" x="282.291346" xlink:href="#m6e9fc46f83" y="296.728"/>
      </g>
     </g>
    </g>
    <g id="xtick_26">
     <g id="line2d_26">
      <g>
       <use style="stroke:#000000;stroke-width:0.6;" x="292.863343" xlink:href="#m6e9fc46f83" y="296.728"/>
      </g>
     </g>
    </g>
    <g id="xtick_27">
     <g id="line2d_27">
      <g>
       <use style="stroke:#000000;stroke-width:0.6;" x="301.063621" xlink:href="#m6e9fc46f83" y="296.728"/>
      </g>
     </g>
    </g>
    <g id="xtick_28">
     <g id="line2d_28">
      <g>
       <use style="stroke:#000000;stroke-width:0.6;" x="307.763737" xlink:href="#m6e9fc46f83" y="296.728"/>
      </g>
     </g>
    </g>
    <g id="xtick_29">
     <g id="line2d_29">
      <g>
       <use style="stroke:#000000;stroke-width:0.6;" x="313.428603" xlink:href="#m6e9fc46f83" y="296.728"/>
      </g>
     </g>
    </g>
    <g id="xtick_30">
     <g id="line2d_30">
      <g>
       <use style="stroke:#000000;stroke-width:0.6;" x="318.335734" xlink:href="#m6e9fc46f83" y="296.728"/>
      </g>
     </g>
    </g>
    <g id="xtick_31">
     <g id="line2d_31">
      <g>
       <use style="stroke:#000000;stroke-width:0.6;" x="322.66413" xlink:href="#m6e9fc46f83" y="296.728"/>
      </g>
     </g>
    </g>
    <g id="xtick_32">
     <g id="line2d_32">
      <g>
       <use style="stroke:#000000;stroke-width:0.6;" x="352.008403" xlink:href="#m6e9fc46f83" y="296.728"/>
      </g>
     </g>
    </g>
    <g id="xtick_33">
     <g id="line2d_33">
      <g>
       <use style="stroke:#000000;stroke-width:0.6;" x="366.908796" xlink:href="#m6e9fc46f83" y="296.728"/>
      </g>
     </g>
    </g>
    <g id="xtick_34">
     <g id="line2d_34">
      <g>
       <use style="stroke:#000000;stroke-width:0.6;" x="377.480794" xlink:href="#m6e9fc46f83" y="296.728"/>
      </g>
     </g>
    </g>
    <g id="xtick_35">
     <g id="line2d_35">
      <g>
       <use style="stroke:#000000;stroke-width:0.6;" x="385.681072" xlink:href="#m6e9fc46f83" y="296.728"/>
      </g>
     </g>
    </g>
    <g id="xtick_36">
     <g id="line2d_36">
      <g>
       <use style="stroke:#000000;stroke-width:0.6;" x="392.381187" xlink:href="#m6e9fc46f83" y="296.728"/>
      </g>
     </g>
    </g>
    <g id="xtick_37">
     <g id="line2d_37">
      <g>
       <use style="stroke:#000000;stroke-width:0.6;" x="398.046054" xlink:href="#m6e9fc46f83" y="296.728"/>
      </g>
     </g>
    </g>
    <g id="xtick_38">
     <g id="line2d_38">
      <g>
       <use style="stroke:#000000;stroke-width:0.6;" x="402.953184" xlink:href="#m6e9fc46f83" y="296.728"/>
      </g>
     </g>
    </g>
    <g id="xtick_39">
     <g id="line2d_39">
      <g>
       <use style="stroke:#000000;stroke-width:0.6;" x="407.28158" xlink:href="#m6e9fc46f83" y="296.728"/>
      </g>
     </g>
    </g>
    <g id="xtick_40">
     <g id="line2d_40">
      <g>
       <use style="stroke:#000000;stroke-width:0.6;" x="436.625853" xlink:href="#m6e9fc46f83" y="296.728"/>
      </g>
     </g>
    </g>
    <g id="text_6">
     <!-- Time [sec] -->
     <g transform="translate(218.879464 328.043937)scale(0.14 -0.14)">
      <defs>
       <path d="M -0.296875 72.90625 
L 61.375 72.90625 
L 61.375 64.59375 
L 35.5 64.59375 
L 35.5 0 
L 25.59375 0 
L 25.59375 64.59375 
L -0.296875 64.59375 
z
" id="DejaVuSans-84"/>
       <path d="M 9.421875 54.6875 
L 18.40625 54.6875 
L 18.40625 0 
L 9.421875 0 
z
M 9.421875 75.984375 
L 18.40625 75.984375 
L 18.40625 64.59375 
L 9.421875 64.59375 
z
" id="DejaVuSans-105"/>
       <path d="M 52 44.1875 
Q 55.375 50.25 60.0625 53.125 
Q 64.75 56 71.09375 56 
Q 79.640625 56 84.28125 50.015625 
Q 88.921875 44.046875 88.921875 33.015625 
L 88.921875 0 
L 79.890625 0 
L 79.890625 32.71875 
Q 79.890625 40.578125 77.09375 44.375 
Q 74.3125 48.1875 68.609375 48.1875 
Q 61.625 48.1875 57.5625 43.546875 
Q 53.515625 38.921875 53.515625 30.90625 
L 53.515625 0 
L 44.484375 0 
L 44.484375 32.71875 
Q 44.484375 40.625 41.703125 44.40625 
Q 38.921875 48.1875 33.109375 48.1875 
Q 26.21875 48.1875 22.15625 43.53125 
Q 18.109375 38.875 18.109375 30.90625 
L 18.109375 0 
L 9.078125 0 
L 9.078125 54.6875 
L 18.109375 54.6875 
L 18.109375 46.1875 
Q 21.1875 51.21875 25.484375 53.609375 
Q 29.78125 56 35.6875 56 
Q 41.65625 56 45.828125 52.96875 
Q 50 49.953125 52 44.1875 
z
" id="DejaVuSans-109"/>
       <path d="M 56.203125 29.59375 
L 56.203125 25.203125 
L 14.890625 25.203125 
Q 15.484375 15.921875 20.484375 11.0625 
Q 25.484375 6.203125 34.421875 6.203125 
Q 39.59375 6.203125 44.453125 7.46875 
Q 49.3125 8.734375 54.109375 11.28125 
L 54.109375 2.78125 
Q 49.265625 0.734375 44.1875 -0.34375 
Q 39.109375 -1.421875 33.890625 -1.421875 
Q 20.796875 -1.421875 13.15625 6.1875 
Q 5.515625 13.8125 5.515625 26.8125 
Q 5.515625 40.234375 12.765625 48.109375 
Q 20.015625 56 32.328125 56 
Q 43.359375 56 49.78125 48.890625 
Q 56.203125 41.796875 56.203125 29.59375 
z
M 47.21875 32.234375 
Q 47.125 39.59375 43.09375 43.984375 
Q 39.0625 48.390625 32.421875 48.390625 
Q 24.90625 48.390625 20.390625 44.140625 
Q 15.875 39.890625 15.1875 32.171875 
z
" id="DejaVuSans-101"/>
       <path id="DejaVuSans-32"/>
       <path d="M 8.59375 75.984375 
L 29.296875 75.984375 
L 29.296875 69 
L 17.578125 69 
L 17.578125 -6.203125 
L 29.296875 -6.203125 
L 29.296875 -13.1875 
L 8.59375 -13.1875 
z
" id="DejaVuSans-91"/>
       <path d="M 44.28125 53.078125 
L 44.28125 44.578125 
Q 40.484375 46.53125 36.375 47.5 
Q 32.28125 48.484375 27.875 48.484375 
Q 21.1875 48.484375 17.84375 46.4375 
Q 14.5 44.390625 14.5 40.28125 
Q 14.5 37.15625 16.890625 35.375 
Q 19.28125 33.59375 26.515625 31.984375 
L 29.59375 31.296875 
Q 39.15625 29.25 43.1875 25.515625 
Q 47.21875 21.78125 47.21875 15.09375 
Q 47.21875 7.46875 41.1875 3.015625 
Q 35.15625 -1.421875 24.609375 -1.421875 
Q 20.21875 -1.421875 15.453125 -0.5625 
Q 10.6875 0.296875 5.421875 2 
L 5.421875 11.28125 
Q 10.40625 8.6875 15.234375 7.390625 
Q 20.0625 6.109375 24.8125 6.109375 
Q 31.15625 6.109375 34.5625 8.28125 
Q 37.984375 10.453125 37.984375 14.40625 
Q 37.984375 18.0625 35.515625 20.015625 
Q 33.0625 21.96875 24.703125 23.78125 
L 21.578125 24.515625 
Q 13.234375 26.265625 9.515625 29.90625 
Q 5.8125 33.546875 5.8125 39.890625 
Q 5.8125 47.609375 11.28125 51.796875 
Q 16.75 56 26.8125 56 
Q 31.78125 56 36.171875 55.265625 
Q 40.578125 54.546875 44.28125 53.078125 
z
" id="DejaVuSans-115"/>
       <path d="M 48.78125 52.59375 
L 48.78125 44.1875 
Q 44.96875 46.296875 41.140625 47.34375 
Q 37.3125 48.390625 33.40625 48.390625 
Q 24.65625 48.390625 19.8125 42.84375 
Q 14.984375 37.3125 14.984375 27.296875 
Q 14.984375 17.28125 19.8125 11.734375 
Q 24.65625 6.203125 33.40625 6.203125 
Q 37.3125 6.203125 41.140625 7.25 
Q 44.96875 8.296875 48.78125 10.40625 
L 48.78125 2.09375 
Q 45.015625 0.34375 40.984375 -0.53125 
Q 36.96875 -1.421875 32.421875 -1.421875 
Q 20.0625 -1.421875 12.78125 6.34375 
Q 5.515625 14.109375 5.515625 27.296875 
Q 5.515625 40.671875 12.859375 48.328125 
Q 20.21875 56 33.015625 56 
Q 37.15625 56 41.109375 55.140625 
Q 45.0625 54.296875 48.78125 52.59375 
z
" id="DejaVuSans-99"/>
       <path d="M 30.421875 75.984375 
L 30.421875 -13.1875 
L 9.71875 -13.1875 
L 9.71875 -6.203125 
L 21.390625 -6.203125 
L 21.390625 69 
L 9.71875 69 
L 9.71875 75.984375 
z
" id="DejaVuSans-93"/>
      </defs>
      <use xlink:href="#DejaVuSans-84"/>
      <use x="57.958984" xlink:href="#DejaVuSans-105"/>
      <use x="85.742188" xlink:href="#DejaVuSans-109"/>
      <use x="183.154297" xlink:href="#DejaVuSans-101"/>
      <use x="244.677734" xlink:href="#DejaVuSans-32"/>
      <use x="276.464844" xlink:href="#DejaVuSans-91"/>
      <use x="315.478516" xlink:href="#DejaVuSans-115"/>
      <use x="367.578125" xlink:href="#DejaVuSans-101"/>
      <use x="429.101562" xlink:href="#DejaVuSans-99"/>
      <use x="484.082031" xlink:href="#DejaVuSans-93"/>
     </g>
    </g>
   </g>
   <g id="matplotlib.axis_2">
    <g id="ytick_1">
     <g id="line2d_41">
      <defs>
       <path d="M 0 0 
L -3.5 0 
" id="m22d802a1bd" style="stroke:#000000;stroke-width:0.8;"/>
      </defs>
      <g>
       <use style="stroke:#000000;stroke-width:0.8;" x="60.992054" xlink:href="#m22d802a1bd" y="269.637011"/>
      </g>
     </g>
     <g id="text_7">
      <!-- $\mathdefault{10^{-9}}$ -->
      <g transform="translate(30.492054 273.43623)scale(0.1 -0.1)">
       <defs>
        <path d="M 10.984375 1.515625 
L 10.984375 10.5 
Q 14.703125 8.734375 18.5 7.8125 
Q 22.3125 6.890625 25.984375 6.890625 
Q 35.75 6.890625 40.890625 13.453125 
Q 46.046875 20.015625 46.78125 33.40625 
Q 43.953125 29.203125 39.59375 26.953125 
Q 35.25 24.703125 29.984375 24.703125 
Q 19.046875 24.703125 12.671875 31.3125 
Q 6.296875 37.9375 6.296875 49.421875 
Q 6.296875 60.640625 12.9375 67.421875 
Q 19.578125 74.21875 30.609375 74.21875 
Q 43.265625 74.21875 49.921875 64.515625 
Q 56.59375 54.828125 56.59375 36.375 
Q 56.59375 19.140625 48.40625 8.859375 
Q 40.234375 -1.421875 26.421875 -1.421875 
Q 22.703125 -1.421875 18.890625 -0.6875 
Q 15.09375 0.046875 10.984375 1.515625 
z
M 30.609375 32.421875 
Q 37.25 32.421875 41.125 36.953125 
Q 45.015625 41.5 45.015625 49.421875 
Q 45.015625 57.28125 41.125 61.84375 
Q 37.25 66.40625 30.609375 66.40625 
Q 23.96875 66.40625 20.09375 61.84375 
Q 16.21875 57.28125 16.21875 49.421875 
Q 16.21875 41.5 20.09375 36.953125 
Q 23.96875 32.421875 30.609375 32.421875 
z
" id="DejaVuSans-57"/>
       </defs>
       <use transform="translate(0 0.765625)" xlink:href="#DejaVuSans-49"/>
       <use transform="translate(63.623047 0.765625)" xlink:href="#DejaVuSans-48"/>
       <use transform="translate(128.203125 39.046875)scale(0.7)" xlink:href="#DejaVuSans-8722"/>
       <use transform="translate(186.855469 39.046875)scale(0.7)" xlink:href="#DejaVuSans-57"/>
      </g>
     </g>
    </g>
    <g id="ytick_2">
     <g id="line2d_42">
      <g>
       <use style="stroke:#000000;stroke-width:0.8;" x="60.992054" xlink:href="#m22d802a1bd" y="238.171396"/>
      </g>
     </g>
     <g id="text_8">
      <!-- $\mathdefault{10^{-7}}$ -->
      <g transform="translate(30.492054 241.970615)scale(0.1 -0.1)">
       <defs>
        <path d="M 8.203125 72.90625 
L 55.078125 72.90625 
L 55.078125 68.703125 
L 28.609375 0 
L 18.3125 0 
L 43.21875 64.59375 
L 8.203125 64.59375 
z
" id="DejaVuSans-55"/>
       </defs>
       <use transform="translate(0 0.684375)" xlink:href="#DejaVuSans-49"/>
       <use transform="translate(63.623047 0.684375)" xlink:href="#DejaVuSans-48"/>
       <use transform="translate(128.203125 38.965625)scale(0.7)" xlink:href="#DejaVuSans-8722"/>
       <use transform="translate(186.855469 38.965625)scale(0.7)" xlink:href="#DejaVuSans-55"/>
      </g>
     </g>
    </g>
    <g id="ytick_3">
     <g id="line2d_43">
      <g>
       <use style="stroke:#000000;stroke-width:0.8;" x="60.992054" xlink:href="#m22d802a1bd" y="206.705782"/>
      </g>
     </g>
     <g id="text_9">
      <!-- $\mathdefault{10^{-5}}$ -->
      <g transform="translate(30.492054 210.505001)scale(0.1 -0.1)">
       <defs>
        <path d="M 10.796875 72.90625 
L 49.515625 72.90625 
L 49.515625 64.59375 
L 19.828125 64.59375 
L 19.828125 46.734375 
Q 21.96875 47.46875 24.109375 47.828125 
Q 26.265625 48.1875 28.421875 48.1875 
Q 40.625 48.1875 47.75 41.5 
Q 54.890625 34.8125 54.890625 23.390625 
Q 54.890625 11.625 47.5625 5.09375 
Q 40.234375 -1.421875 26.90625 -1.421875 
Q 22.3125 -1.421875 17.546875 -0.640625 
Q 12.796875 0.140625 7.71875 1.703125 
L 7.71875 11.625 
Q 12.109375 9.234375 16.796875 8.0625 
Q 21.484375 6.890625 26.703125 6.890625 
Q 35.15625 6.890625 40.078125 11.328125 
Q 45.015625 15.765625 45.015625 23.390625 
Q 45.015625 31 40.078125 35.4375 
Q 35.15625 39.890625 26.703125 39.890625 
Q 22.75 39.890625 18.8125 39.015625 
Q 14.890625 38.140625 10.796875 36.28125 
z
" id="DejaVuSans-53"/>
       </defs>
       <use transform="translate(0 0.684375)" xlink:href="#DejaVuSans-49"/>
       <use transform="translate(63.623047 0.684375)" xlink:href="#DejaVuSans-48"/>
       <use transform="translate(128.203125 38.965625)scale(0.7)" xlink:href="#DejaVuSans-8722"/>
       <use transform="translate(186.855469 38.965625)scale(0.7)" xlink:href="#DejaVuSans-53"/>
      </g>
     </g>
    </g>
    <g id="ytick_4">
     <g id="line2d_44">
      <g>
       <use style="stroke:#000000;stroke-width:0.8;" x="60.992054" xlink:href="#m22d802a1bd" y="175.240167"/>
      </g>
     </g>
     <g id="text_10">
      <!-- $\mathdefault{10^{-3}}$ -->
      <g transform="translate(30.492054 179.039386)scale(0.1 -0.1)">
       <use transform="translate(0 0.765625)" xlink:href="#DejaVuSans-49"/>
       <use transform="translate(63.623047 0.765625)" xlink:href="#DejaVuSans-48"/>
       <use transform="translate(128.203125 39.046875)scale(0.7)" xlink:href="#DejaVuSans-8722"/>
       <use transform="translate(186.855469 39.046875)scale(0.7)" xlink:href="#DejaVuSans-51"/>
      </g>
     </g>
    </g>
    <g id="ytick_5">
     <g id="line2d_45">
      <g>
       <use style="stroke:#000000;stroke-width:0.8;" x="60.992054" xlink:href="#m22d802a1bd" y="143.774553"/>
      </g>
     </g>
     <g id="text_11">
      <!-- $\mathdefault{10^{-1}}$ -->
      <g transform="translate(30.492054 147.573772)scale(0.1 -0.1)">
       <use transform="translate(0 0.684375)" xlink:href="#DejaVuSans-49"/>
       <use transform="translate(63.623047 0.684375)" xlink:href="#DejaVuSans-48"/>
       <use transform="translate(128.203125 38.965625)scale(0.7)" xlink:href="#DejaVuSans-8722"/>
       <use transform="translate(186.855469 38.965625)scale(0.7)" xlink:href="#DejaVuSans-49"/>
      </g>
     </g>
    </g>
    <g id="ytick_6">
     <g id="line2d_46">
      <g>
       <use style="stroke:#000000;stroke-width:0.8;" x="60.992054" xlink:href="#m22d802a1bd" y="112.308938"/>
      </g>
     </g>
     <g id="text_12">
      <!-- $\mathdefault{10^{1}}$ -->
      <g transform="translate(36.392054 116.108157)scale(0.1 -0.1)">
       <use transform="translate(0 0.684375)" xlink:href="#DejaVuSans-49"/>
       <use transform="translate(63.623047 0.684375)" xlink:href="#DejaVuSans-48"/>
       <use transform="translate(128.203125 38.965625)scale(0.7)" xlink:href="#DejaVuSans-49"/>
      </g>
     </g>
    </g>
    <g id="ytick_7">
     <g id="line2d_47">
      <g>
       <use style="stroke:#000000;stroke-width:0.8;" x="60.992054" xlink:href="#m22d802a1bd" y="80.843324"/>
      </g>
     </g>
     <g id="text_13">
      <!-- $\mathdefault{10^{3}}$ -->
      <g transform="translate(36.392054 84.642543)scale(0.1 -0.1)">
       <use transform="translate(0 0.765625)" xlink:href="#DejaVuSans-49"/>
       <use transform="translate(63.623047 0.765625)" xlink:href="#DejaVuSans-48"/>
       <use transform="translate(128.203125 39.046875)scale(0.7)" xlink:href="#DejaVuSans-51"/>
      </g>
     </g>
    </g>
    <g id="ytick_8">
     <g id="line2d_48">
      <g>
       <use style="stroke:#000000;stroke-width:0.8;" x="60.992054" xlink:href="#m22d802a1bd" y="49.377709"/>
      </g>
     </g>
     <g id="text_14">
      <!-- $\mathdefault{10^{5}}$ -->
      <g transform="translate(36.392054 53.176928)scale(0.1 -0.1)">
       <use transform="translate(0 0.684375)" xlink:href="#DejaVuSans-49"/>
       <use transform="translate(63.623047 0.684375)" xlink:href="#DejaVuSans-48"/>
       <use transform="translate(128.203125 38.965625)scale(0.7)" xlink:href="#DejaVuSans-53"/>
      </g>
     </g>
    </g>
    <g id="text_15">
     <!-- $F(x) - F(x*)$ -->
     <g transform="translate(23.580491 213.928)rotate(-90)scale(0.14 -0.14)">
      <defs>
       <path d="M 16.890625 72.90625 
L 58.6875 72.90625 
L 57.078125 64.59375 
L 25.09375 64.59375 
L 20.90625 43.109375 
L 49.8125 43.109375 
L 48.1875 34.8125 
L 19.28125 34.8125 
L 12.5 0 
L 2.6875 0 
z
" id="DejaVuSans-Oblique-70"/>
       <path d="M 31 75.875 
Q 24.46875 64.65625 21.28125 53.65625 
Q 18.109375 42.671875 18.109375 31.390625 
Q 18.109375 20.125 21.3125 9.0625 
Q 24.515625 -2 31 -13.1875 
L 23.1875 -13.1875 
Q 15.875 -1.703125 12.234375 9.375 
Q 8.59375 20.453125 8.59375 31.390625 
Q 8.59375 42.28125 12.203125 53.3125 
Q 15.828125 64.359375 23.1875 75.875 
z
" id="DejaVuSans-40"/>
       <path d="M 60.015625 54.6875 
L 34.90625 27.875 
L 50.296875 0 
L 39.984375 0 
L 28.421875 21.6875 
L 8.296875 0 
L -2.59375 0 
L 24.3125 28.8125 
L 10.015625 54.6875 
L 20.3125 54.6875 
L 30.8125 34.90625 
L 49.125 54.6875 
z
" id="DejaVuSans-Oblique-120"/>
       <path d="M 8.015625 75.875 
L 15.828125 75.875 
Q 23.140625 64.359375 26.78125 53.3125 
Q 30.421875 42.28125 30.421875 31.390625 
Q 30.421875 20.453125 26.78125 9.375 
Q 23.140625 -1.703125 15.828125 -13.1875 
L 8.015625 -13.1875 
Q 14.5 -2 17.703125 9.0625 
Q 20.90625 20.125 20.90625 31.390625 
Q 20.90625 42.671875 17.703125 53.65625 
Q 14.5 64.65625 8.015625 75.875 
z
" id="DejaVuSans-41"/>
       <path d="M 47.015625 60.890625 
L 29.5 51.421875 
L 47.015625 41.890625 
L 44.1875 37.109375 
L 27.78125 47.015625 
L 27.78125 28.609375 
L 22.21875 28.609375 
L 22.21875 47.015625 
L 5.8125 37.109375 
L 2.984375 41.890625 
L 20.515625 51.421875 
L 2.984375 60.890625 
L 5.8125 65.71875 
L 22.21875 55.8125 
L 22.21875 74.21875 
L 27.78125 74.21875 
L 27.78125 55.8125 
L 44.1875 65.71875 
z
" id="DejaVuSans-42"/>
      </defs>
      <use transform="translate(0 0.125)" xlink:href="#DejaVuSans-Oblique-70"/>
      <use transform="translate(57.519531 0.125)" xlink:href="#DejaVuSans-40"/>
      <use transform="translate(96.533203 0.125)" xlink:href="#DejaVuSans-Oblique-120"/>
      <use transform="translate(155.712891 0.125)" xlink:href="#DejaVuSans-41"/>
      <use transform="translate(214.208984 0.125)" xlink:href="#DejaVuSans-8722"/>
      <use transform="translate(317.480469 0.125)" xlink:href="#DejaVuSans-Oblique-70"/>
      <use transform="translate(375 0.125)" xlink:href="#DejaVuSans-40"/>
      <use transform="translate(414.013672 0.125)" xlink:href="#DejaVuSans-Oblique-120"/>
      <use transform="translate(492.675781 0.125)" xlink:href="#DejaVuSans-42"/>
      <use transform="translate(562.158203 0.125)" xlink:href="#DejaVuSans-41"/>
     </g>
    </g>
   </g>
   <g id="LineCollection_1">
    <path clip-path="url(#p9720ecc3a8)" d="M 60.992054 285.369818 
L 450 285.369818 
" style="fill:none;stroke:#000000;stroke-dasharray:5.55,2.4;stroke-dashoffset:0;stroke-width:1.5;"/>
   </g>
   <g id="line2d_49">
    <path clip-path="url(#p9720ecc3a8)" d="M 125.9648 285.243669 
L 127.229574 285.243669 
L 126.867355 284.331293 
L 119.587525 285.243669 
L 118.748307 285.243669 
L 118.863297 285.243669 
L 122.193527 284.331293 
L 120.945385 285.243669 
L 119.425147 285.243669 
L 118.707008 284.331293 
L 116.572861 212.551396 
L 121.28286 199.499319 
L 122.764327 284.331293 
L 117.307407 197.066734 
L 121.092171 193.383608 
L 118.5961 182.366755 
L 117.261485 181.855446 
L 118.61527 182.444565 
L 116.891317 177.363512 
L 117.254612 164.450037 
L 118.957956 166.03885 
L 120.931803 163.173707 
L 117.522389 167.608178 
L 117.467751 145.801791 
L 117.993795 144.771302 
L 116.133037 144.998901 
L 114.612988 148.17833 
L 118.241039 147.49146 
L 118.284065 146.178959 
L 114.588392 112.767332 
L 114.040194 145.574941 
L 107.480026 93.883882 
L 79.64371 88.220287 
L 80.335513 87.605883 
L 80.172428 88.573932 
L 82.958938 89.215794 
" style="fill:none;stroke:#1f77b4;stroke-linecap:square;stroke-width:3;"/>
   </g>
   <g id="line2d_50">
    <path clip-path="url(#p9720ecc3a8)" d="M 111.10493 75.132871 
L 116.464847 92.86672 
L 112.621209 109.775795 
L 128.053728 126.653815 
L 129.398195 154.399026 
L 135.164454 193.676564 
L 150.588385 242.857857 
L 159.155677 284.331293 
L 174.01704 284.331293 
L 183.774985 284.331293 
L 194.583961 285.243669 
L 210.477249 285.243669 
L 229.529662 284.331293 
" style="fill:none;stroke:#ff7f0e;stroke-linecap:square;stroke-width:3;"/>
   </g>
   <g id="line2d_51">
    <path clip-path="url(#p9720ecc3a8)" d="M 127.431529 81.526503 
L 127.956348 92.955201 
L 136.171513 199.26615 
L 144.036074 284.331293 
L 143.176066 285.243669 
L 151.794627 285.243669 
L 145.438677 285.243669 
L 146.475285 285.243669 
L 149.108963 285.243669 
" style="fill:none;stroke:#2ca02c;stroke-linecap:square;stroke-width:3;"/>
   </g>
   <g id="line2d_52">
    <path clip-path="url(#p9720ecc3a8)" d="M 268.932376 63.683518 
L 277.243572 63.683518 
L 284.519994 63.683518 
L 304.909549 63.683518 
L 328.969976 58.864653 
L 348.531806 199.461962 
L 351.501246 199.461962 
L 351.205039 199.461962 
L 351.332766 199.461962 
L 348.946551 199.461962 
L 348.453083 199.461962 
" style="fill:none;stroke:#d62728;stroke-linecap:square;stroke-width:3;"/>
   </g>
   <g id="line2d_53">
    <path clip-path="url(#p9720ecc3a8)" d="M 119.224254 69.832122 
L 118.283173 71.579007 
L 143.48746 78.003583 
L 138.513606 78.635522 
L 145.780923 80.274375 
L 147.189446 83.486303 
L 160.055084 84.097514 
L 169.149597 84.097514 
L 179.078639 100.701077 
L 206.198924 140.031794 
L 222.282546 210.819494 
L 240.468722 280.507623 
L 261.28957 284.331293 
L 283.246623 285.243669 
L 302.344423 284.331293 
L 320.385259 284.331293 
L 320.886575 284.331293 
" style="fill:none;stroke:#9467bd;stroke-linecap:square;stroke-width:3;"/>
   </g>
   <g id="line2d_54">
    <path clip-path="url(#p9720ecc3a8)" d="M 175.683303 69.832122 
L 175.807541 69.889477 
L 174.89323 69.889477 
L 192.242149 69.946104 
L 189.410484 70.002001 
L 188.167625 70.111597 
L 187.74382 70.32195 
L 195.974715 70.707069 
L 201.469867 71.084926 
L 209.592754 72.357298 
L 221.569555 74.434507 
L 227.617353 78.847436 
L 238.296949 95.894574 
L 241.298283 280.036217 
L 239.883117 280.036217 
L 239.633444 280.036217 
L 236.734011 280.036217 
L 241.400888 280.036217 
L 237.335666 280.036217 
" style="fill:none;stroke:#8c564b;stroke-linecap:square;stroke-width:3;"/>
   </g>
   <g id="line2d_55">
    <path clip-path="url(#p9720ecc3a8)" d="M 207.297765 70.870343 
L 202.292843 71.757361 
L 203.257329 72.5277 
L 203.329132 73.205718 
L 205.18886 74.367048 
L 207.920176 75.808113 
L 209.999502 77.388559 
L 213.511506 79.391846 
L 219.93366 81.72979 
L 230.448207 84.481423 
L 239.935862 87.622867 
L 249.069716 91.713593 
L 259.928375 97.233013 
L 267.842314 104.187158 
L 272.659832 114.21134 
L 278.546561 130.375597 
L 285.274982 151.915863 
L 295.603108 182.550718 
L 302.061693 226.082854 
L 314.881024 278.07058 
L 323.98826 284.331293 
L 337.817996 284.331293 
L 357.547875 285.243669 
L 375.209564 285.243669 
L 419.518974 285.243669 
" style="fill:none;stroke:#e377c2;stroke-linecap:square;stroke-width:3;"/>
   </g>
   <g id="line2d_56">
    <path clip-path="url(#p9720ecc3a8)" d="M 181.047907 72.92918 
L 181.888649 75.396398 
L 183.593281 75.797824 
L 184.487048 77.771175 
L 192.589831 80.347079 
L 194.234117 83.293512 
L 200.465282 86.721667 
L 210.171636 95.342549 
L 272.645851 110.01831 
L 277.874956 129.112096 
L 292.172501 149.199636 
L 301.357313 185.632466 
L 311.125606 242.81064 
L 318.982257 276.545913 
L 298.746115 276.545913 
L 271.867888 276.545913 
L 266.355619 276.545913 
L 262.170538 276.545913 
L 261.257335 276.545913 
" style="fill:none;stroke:#7f7f7f;stroke-linecap:square;stroke-width:3;"/>
   </g>
   <g id="line2d_57">
    <path clip-path="url(#p9720ecc3a8)" d="M 125.189388 58.206182 
L 145.631093 65.343423 
L 146.267989 67.375619 
L 146.380156 68.293599 
L 147.133335 68.776646 
L 148.219054 68.880809 
L 146.71374 68.992737 
L 149.312356 68.825163 
L 152.336793 68.99792 
L 154.163943 68.938257 
L 159.115687 68.991975 
L 164.36884 69.110746 
L 170.056592 68.935768 
L 176.08128 68.983711 
L 183.364239 68.891946 
L 192.443237 68.919784 
L 203.096316 68.981826 
L 213.574094 68.709514 
L 223.92721 68.898914 
L 236.442714 69.002194 
L 251.775138 68.913517 
L 265.812107 69.01875 
L 275.917248 68.85015 
L 287.105319 68.940069 
L 298.751067 68.943739 
L 311.585814 68.760148 
L 324.765638 68.807171 
L 337.749577 68.775376 
L 353.136873 68.277548 
L 367.476084 68.899153 
L 386.64236 69.064478 
L 403.148563 69.139844 
" style="fill:none;stroke:#bcbd22;stroke-linecap:square;stroke-width:3;"/>
   </g>
   <g id="line2d_58">
    <path clip-path="url(#p9720ecc3a8)" d="M 203.83423 70.870343 
L 205.474017 71.757361 
L 209.812054 72.5277 
L 210.290435 73.205718 
L 212.769026 74.367048 
L 211.249096 75.808113 
L 212.417692 77.388559 
L 214.099742 79.391846 
L 220.170474 81.72979 
L 220.3332 84.481423 
L 226.455198 87.622867 
L 233.831037 91.713593 
L 239.613527 97.233013 
L 253.846407 104.187158 
L 258.923929 114.21134 
L 273.070912 130.375597 
L 289.112153 151.915863 
L 300.315663 182.550718 
L 310.256403 226.082854 
L 323.89171 278.07058 
L 338.770848 285.243669 
L 352.271768 285.243669 
L 371.374721 285.243669 
L 398.393262 285.243669 
L 432.317821 285.243669 
" style="fill:none;stroke:#17becf;stroke-linecap:square;stroke-width:3;"/>
   </g>
   <g id="line2d_59">
    <path clip-path="url(#p9720ecc3a8)" d="M 216.324496 70.870343 
L 217.116598 71.757361 
L 217.446167 72.742286 
L 215.475846 73.764051 
L 216.152708 75.82048 
L 216.293885 78.835086 
L 219.114516 82.622776 
L 220.79386 87.351138 
L 221.577418 95.700145 
L 225.57899 111.284402 
L 229.838535 122.962462 
L 235.9887 137.923031 
L 244.008526 145.464494 
L 247.654719 158.131514 
L 257.251626 166.393827 
L 270.491539 180.690511 
L 283.71152 198.620794 
L 296.350722 221.38343 
L 310.187495 249.516901 
L 323.68143 279.595246 
L 337.80744 285.243669 
L 354.404679 284.331293 
L 369.872242 285.243669 
L 380.701511 284.331293 
L 394.47641 285.243669 
" style="fill:none;stroke:#1f77b4;stroke-linecap:square;stroke-width:3;"/>
   </g>
   <g id="line2d_60">
    <path clip-path="url(#p9720ecc3a8)" d="M 226.926097 70.870343 
L 233.851341 71.757361 
L 243.405171 72.5277 
L 246.84428 73.205718 
L 258.317837 74.367048 
L 267.857913 75.808113 
L 278.515786 77.388559 
L 290.349077 79.391846 
L 304.341783 81.72979 
L 317.669658 84.481423 
L 331.700144 87.622867 
L 345.787694 91.713593 
L 360.125112 97.233013 
L 376.691435 104.187158 
L 391.329174 114.21134 
L 405.710944 130.375597 
" style="fill:none;stroke:#ff7f0e;stroke-linecap:square;stroke-width:3;"/>
   </g>
   <g id="line2d_61">
    <path clip-path="url(#p9720ecc3a8)" d="M 139.392819 75.132871 
L 145.658924 92.86672 
L 151.901085 109.775795 
L 152.86904 126.653815 
L 153.315782 154.399026 
L 159.709075 193.676565 
L 156.950235 242.857857 
L 164.515199 284.331293 
L 176.969184 284.331293 
L 183.118553 284.331293 
L 201.918597 284.331293 
L 224.514354 285.243669 
L 250.483782 284.331293 
" style="fill:none;stroke:#2ca02c;stroke-linecap:square;stroke-width:3;"/>
   </g>
   <g id="line2d_62">
    <path clip-path="url(#p9720ecc3a8)" d="M 353.649225 75.132871 
L 377.353227 92.86672 
L 375.695781 109.001805 
L 376.597073 116.94387 
L 384.225473 118.054004 
L 385.021881 118.06761 
" style="fill:none;stroke:#d62728;stroke-linecap:square;stroke-width:3;"/>
   </g>
   <g id="patch_3">
    <path d="M 60.992054 296.728 
L 60.992054 46.848 
" style="fill:none;stroke:#000000;stroke-linecap:square;stroke-linejoin:miter;stroke-width:0.8;"/>
   </g>
   <g id="patch_4">
    <path d="M 450 296.728 
L 450 46.848 
" style="fill:none;stroke:#000000;stroke-linecap:square;stroke-linejoin:miter;stroke-width:0.8;"/>
   </g>
   <g id="patch_5">
    <path d="M 60.992054 296.728 
L 450 296.728 
" style="fill:none;stroke:#000000;stroke-linecap:square;stroke-linejoin:miter;stroke-width:0.8;"/>
   </g>
   <g id="patch_6">
    <path d="M 60.992054 46.848 
L 450 46.848 
" style="fill:none;stroke:#000000;stroke-linecap:square;stroke-linejoin:miter;stroke-width:0.8;"/>
   </g>
   <g id="text_16">
    <!-- Lasso Regression[reg=0.5] -->
    <g transform="translate(161.289152 25.171063)scale(0.14 -0.14)">
     <defs>
      <path d="M 9.8125 72.90625 
L 19.671875 72.90625 
L 19.671875 8.296875 
L 55.171875 8.296875 
L 55.171875 0 
L 9.8125 0 
z
" id="DejaVuSans-76"/>
      <path d="M 34.28125 27.484375 
Q 23.390625 27.484375 19.1875 25 
Q 14.984375 22.515625 14.984375 16.5 
Q 14.984375 11.71875 18.140625 8.90625 
Q 21.296875 6.109375 26.703125 6.109375 
Q 34.1875 6.109375 38.703125 11.40625 
Q 43.21875 16.703125 43.21875 25.484375 
L 43.21875 27.484375 
z
M 52.203125 31.203125 
L 52.203125 0 
L 43.21875 0 
L 43.21875 8.296875 
Q 40.140625 3.328125 35.546875 0.953125 
Q 30.953125 -1.421875 24.3125 -1.421875 
Q 15.921875 -1.421875 10.953125 3.296875 
Q 6 8.015625 6 15.921875 
Q 6 25.140625 12.171875 29.828125 
Q 18.359375 34.515625 30.609375 34.515625 
L 43.21875 34.515625 
L 43.21875 35.40625 
Q 43.21875 41.609375 39.140625 45 
Q 35.0625 48.390625 27.6875 48.390625 
Q 23 48.390625 18.546875 47.265625 
Q 14.109375 46.140625 10.015625 43.890625 
L 10.015625 52.203125 
Q 14.9375 54.109375 19.578125 55.046875 
Q 24.21875 56 28.609375 56 
Q 40.484375 56 46.34375 49.84375 
Q 52.203125 43.703125 52.203125 31.203125 
z
" id="DejaVuSans-97"/>
      <path d="M 30.609375 48.390625 
Q 23.390625 48.390625 19.1875 42.75 
Q 14.984375 37.109375 14.984375 27.296875 
Q 14.984375 17.484375 19.15625 11.84375 
Q 23.34375 6.203125 30.609375 6.203125 
Q 37.796875 6.203125 41.984375 11.859375 
Q 46.1875 17.53125 46.1875 27.296875 
Q 46.1875 37.015625 41.984375 42.703125 
Q 37.796875 48.390625 30.609375 48.390625 
z
M 30.609375 56 
Q 42.328125 56 49.015625 48.375 
Q 55.71875 40.765625 55.71875 27.296875 
Q 55.71875 13.875 49.015625 6.21875 
Q 42.328125 -1.421875 30.609375 -1.421875 
Q 18.84375 -1.421875 12.171875 6.21875 
Q 5.515625 13.875 5.515625 27.296875 
Q 5.515625 40.765625 12.171875 48.375 
Q 18.84375 56 30.609375 56 
z
" id="DejaVuSans-111"/>
      <path d="M 44.390625 34.1875 
Q 47.5625 33.109375 50.5625 29.59375 
Q 53.5625 26.078125 56.59375 19.921875 
L 66.609375 0 
L 56 0 
L 46.6875 18.703125 
Q 43.0625 26.03125 39.671875 28.421875 
Q 36.28125 30.8125 30.421875 30.8125 
L 19.671875 30.8125 
L 19.671875 0 
L 9.8125 0 
L 9.8125 72.90625 
L 32.078125 72.90625 
Q 44.578125 72.90625 50.734375 67.671875 
Q 56.890625 62.453125 56.890625 51.90625 
Q 56.890625 45.015625 53.6875 40.46875 
Q 50.484375 35.9375 44.390625 34.1875 
z
M 19.671875 64.796875 
L 19.671875 38.921875 
L 32.078125 38.921875 
Q 39.203125 38.921875 42.84375 42.21875 
Q 46.484375 45.515625 46.484375 51.90625 
Q 46.484375 58.296875 42.84375 61.546875 
Q 39.203125 64.796875 32.078125 64.796875 
z
" id="DejaVuSans-82"/>
      <path d="M 45.40625 27.984375 
Q 45.40625 37.75 41.375 43.109375 
Q 37.359375 48.484375 30.078125 48.484375 
Q 22.859375 48.484375 18.828125 43.109375 
Q 14.796875 37.75 14.796875 27.984375 
Q 14.796875 18.265625 18.828125 12.890625 
Q 22.859375 7.515625 30.078125 7.515625 
Q 37.359375 7.515625 41.375 12.890625 
Q 45.40625 18.265625 45.40625 27.984375 
z
M 54.390625 6.78125 
Q 54.390625 -7.171875 48.1875 -13.984375 
Q 42 -20.796875 29.203125 -20.796875 
Q 24.46875 -20.796875 20.265625 -20.09375 
Q 16.0625 -19.390625 12.109375 -17.921875 
L 12.109375 -9.1875 
Q 16.0625 -11.328125 19.921875 -12.34375 
Q 23.78125 -13.375 27.78125 -13.375 
Q 36.625 -13.375 41.015625 -8.765625 
Q 45.40625 -4.15625 45.40625 5.171875 
L 45.40625 9.625 
Q 42.625 4.78125 38.28125 2.390625 
Q 33.9375 0 27.875 0 
Q 17.828125 0 11.671875 7.65625 
Q 5.515625 15.328125 5.515625 27.984375 
Q 5.515625 40.671875 11.671875 48.328125 
Q 17.828125 56 27.875 56 
Q 33.9375 56 38.28125 53.609375 
Q 42.625 51.21875 45.40625 46.390625 
L 45.40625 54.6875 
L 54.390625 54.6875 
z
" id="DejaVuSans-103"/>
      <path d="M 41.109375 46.296875 
Q 39.59375 47.171875 37.8125 47.578125 
Q 36.03125 48 33.890625 48 
Q 26.265625 48 22.1875 43.046875 
Q 18.109375 38.09375 18.109375 28.8125 
L 18.109375 0 
L 9.078125 0 
L 9.078125 54.6875 
L 18.109375 54.6875 
L 18.109375 46.1875 
Q 20.953125 51.171875 25.484375 53.578125 
Q 30.03125 56 36.53125 56 
Q 37.453125 56 38.578125 55.875 
Q 39.703125 55.765625 41.0625 55.515625 
z
" id="DejaVuSans-114"/>
      <path d="M 54.890625 33.015625 
L 54.890625 0 
L 45.90625 0 
L 45.90625 32.71875 
Q 45.90625 40.484375 42.875 44.328125 
Q 39.84375 48.1875 33.796875 48.1875 
Q 26.515625 48.1875 22.3125 43.546875 
Q 18.109375 38.921875 18.109375 30.90625 
L 18.109375 0 
L 9.078125 0 
L 9.078125 54.6875 
L 18.109375 54.6875 
L 18.109375 46.1875 
Q 21.34375 51.125 25.703125 53.5625 
Q 30.078125 56 35.796875 56 
Q 45.21875 56 50.046875 50.171875 
Q 54.890625 44.34375 54.890625 33.015625 
z
" id="DejaVuSans-110"/>
      <path d="M 10.59375 45.40625 
L 73.1875 45.40625 
L 73.1875 37.203125 
L 10.59375 37.203125 
z
M 10.59375 25.484375 
L 73.1875 25.484375 
L 73.1875 17.1875 
L 10.59375 17.1875 
z
" id="DejaVuSans-61"/>
      <path d="M 10.6875 12.40625 
L 21 12.40625 
L 21 0 
L 10.6875 0 
z
" id="DejaVuSans-46"/>
     </defs>
     <use xlink:href="#DejaVuSans-76"/>
     <use x="55.712891" xlink:href="#DejaVuSans-97"/>
     <use x="116.992188" xlink:href="#DejaVuSans-115"/>
     <use x="169.091797" xlink:href="#DejaVuSans-115"/>
     <use x="221.191406" xlink:href="#DejaVuSans-111"/>
     <use x="282.373047" xlink:href="#DejaVuSans-32"/>
     <use x="314.160156" xlink:href="#DejaVuSans-82"/>
     <use x="379.142578" xlink:href="#DejaVuSans-101"/>
     <use x="440.666016" xlink:href="#DejaVuSans-103"/>
     <use x="504.142578" xlink:href="#DejaVuSans-114"/>
     <use x="543.005859" xlink:href="#DejaVuSans-101"/>
     <use x="604.529297" xlink:href="#DejaVuSans-115"/>
     <use x="656.628906" xlink:href="#DejaVuSans-115"/>
     <use x="708.728516" xlink:href="#DejaVuSans-105"/>
     <use x="736.511719" xlink:href="#DejaVuSans-111"/>
     <use x="797.693359" xlink:href="#DejaVuSans-110"/>
     <use x="861.072266" xlink:href="#DejaVuSans-91"/>
     <use x="900.085938" xlink:href="#DejaVuSans-114"/>
     <use x="938.949219" xlink:href="#DejaVuSans-101"/>
     <use x="1000.472656" xlink:href="#DejaVuSans-103"/>
     <use x="1063.949219" xlink:href="#DejaVuSans-61"/>
     <use x="1147.738281" xlink:href="#DejaVuSans-48"/>
     <use x="1211.361328" xlink:href="#DejaVuSans-46"/>
     <use x="1243.148438" xlink:href="#DejaVuSans-53"/>
     <use x="1306.771484" xlink:href="#DejaVuSans-93"/>
    </g>
    <!-- Data: Simulated[n_samples=100,n_features=5000,rho=0.6] -->
    <g transform="translate(43.649777 40.848)scale(0.14 -0.14)">
     <defs>
      <path d="M 19.671875 64.796875 
L 19.671875 8.109375 
L 31.59375 8.109375 
Q 46.6875 8.109375 53.6875 14.9375 
Q 60.6875 21.78125 60.6875 36.53125 
Q 60.6875 51.171875 53.6875 57.984375 
Q 46.6875 64.796875 31.59375 64.796875 
z
M 9.8125 72.90625 
L 30.078125 72.90625 
Q 51.265625 72.90625 61.171875 64.09375 
Q 71.09375 55.28125 71.09375 36.53125 
Q 71.09375 17.671875 61.125 8.828125 
Q 51.171875 0 30.078125 0 
L 9.8125 0 
z
" id="DejaVuSans-68"/>
      <path d="M 18.3125 70.21875 
L 18.3125 54.6875 
L 36.8125 54.6875 
L 36.8125 47.703125 
L 18.3125 47.703125 
L 18.3125 18.015625 
Q 18.3125 11.328125 20.140625 9.421875 
Q 21.96875 7.515625 27.59375 7.515625 
L 36.8125 7.515625 
L 36.8125 0 
L 27.59375 0 
Q 17.1875 0 13.234375 3.875 
Q 9.28125 7.765625 9.28125 18.015625 
L 9.28125 47.703125 
L 2.6875 47.703125 
L 2.6875 54.6875 
L 9.28125 54.6875 
L 9.28125 70.21875 
z
" id="DejaVuSans-116"/>
      <path d="M 11.71875 12.40625 
L 22.015625 12.40625 
L 22.015625 0 
L 11.71875 0 
z
M 11.71875 51.703125 
L 22.015625 51.703125 
L 22.015625 39.3125 
L 11.71875 39.3125 
z
" id="DejaVuSans-58"/>
      <path d="M 53.515625 70.515625 
L 53.515625 60.890625 
Q 47.90625 63.578125 42.921875 64.890625 
Q 37.9375 66.21875 33.296875 66.21875 
Q 25.25 66.21875 20.875 63.09375 
Q 16.5 59.96875 16.5 54.203125 
Q 16.5 49.359375 19.40625 46.890625 
Q 22.3125 44.4375 30.421875 42.921875 
L 36.375 41.703125 
Q 47.40625 39.59375 52.65625 34.296875 
Q 57.90625 29 57.90625 20.125 
Q 57.90625 9.515625 50.796875 4.046875 
Q 43.703125 -1.421875 29.984375 -1.421875 
Q 24.8125 -1.421875 18.96875 -0.25 
Q 13.140625 0.921875 6.890625 3.21875 
L 6.890625 13.375 
Q 12.890625 10.015625 18.65625 8.296875 
Q 24.421875 6.59375 29.984375 6.59375 
Q 38.421875 6.59375 43.015625 9.90625 
Q 47.609375 13.234375 47.609375 19.390625 
Q 47.609375 24.75 44.3125 27.78125 
Q 41.015625 30.8125 33.5 32.328125 
L 27.484375 33.5 
Q 16.453125 35.6875 11.515625 40.375 
Q 6.59375 45.0625 6.59375 53.421875 
Q 6.59375 63.09375 13.40625 68.65625 
Q 20.21875 74.21875 32.171875 74.21875 
Q 37.3125 74.21875 42.625 73.28125 
Q 47.953125 72.359375 53.515625 70.515625 
z
" id="DejaVuSans-83"/>
      <path d="M 8.5 21.578125 
L 8.5 54.6875 
L 17.484375 54.6875 
L 17.484375 21.921875 
Q 17.484375 14.15625 20.5 10.265625 
Q 23.53125 6.390625 29.59375 6.390625 
Q 36.859375 6.390625 41.078125 11.03125 
Q 45.3125 15.671875 45.3125 23.6875 
L 45.3125 54.6875 
L 54.296875 54.6875 
L 54.296875 0 
L 45.3125 0 
L 45.3125 8.40625 
Q 42.046875 3.421875 37.71875 1 
Q 33.40625 -1.421875 27.6875 -1.421875 
Q 18.265625 -1.421875 13.375 4.4375 
Q 8.5 10.296875 8.5 21.578125 
z
M 31.109375 56 
z
" id="DejaVuSans-117"/>
      <path d="M 9.421875 75.984375 
L 18.40625 75.984375 
L 18.40625 0 
L 9.421875 0 
z
" id="DejaVuSans-108"/>
      <path d="M 45.40625 46.390625 
L 45.40625 75.984375 
L 54.390625 75.984375 
L 54.390625 0 
L 45.40625 0 
L 45.40625 8.203125 
Q 42.578125 3.328125 38.25 0.953125 
Q 33.9375 -1.421875 27.875 -1.421875 
Q 17.96875 -1.421875 11.734375 6.484375 
Q 5.515625 14.40625 5.515625 27.296875 
Q 5.515625 40.1875 11.734375 48.09375 
Q 17.96875 56 27.875 56 
Q 33.9375 56 38.25 53.625 
Q 42.578125 51.265625 45.40625 46.390625 
z
M 14.796875 27.296875 
Q 14.796875 17.390625 18.875 11.75 
Q 22.953125 6.109375 30.078125 6.109375 
Q 37.203125 6.109375 41.296875 11.75 
Q 45.40625 17.390625 45.40625 27.296875 
Q 45.40625 37.203125 41.296875 42.84375 
Q 37.203125 48.484375 30.078125 48.484375 
Q 22.953125 48.484375 18.875 42.84375 
Q 14.796875 37.203125 14.796875 27.296875 
z
" id="DejaVuSans-100"/>
      <path d="M 50.984375 -16.609375 
L 50.984375 -23.578125 
L -0.984375 -23.578125 
L -0.984375 -16.609375 
z
" id="DejaVuSans-95"/>
      <path d="M 18.109375 8.203125 
L 18.109375 -20.796875 
L 9.078125 -20.796875 
L 9.078125 54.6875 
L 18.109375 54.6875 
L 18.109375 46.390625 
Q 20.953125 51.265625 25.265625 53.625 
Q 29.59375 56 35.59375 56 
Q 45.5625 56 51.78125 48.09375 
Q 58.015625 40.1875 58.015625 27.296875 
Q 58.015625 14.40625 51.78125 6.484375 
Q 45.5625 -1.421875 35.59375 -1.421875 
Q 29.59375 -1.421875 25.265625 0.953125 
Q 20.953125 3.328125 18.109375 8.203125 
z
M 48.6875 27.296875 
Q 48.6875 37.203125 44.609375 42.84375 
Q 40.53125 48.484375 33.40625 48.484375 
Q 26.265625 48.484375 22.1875 42.84375 
Q 18.109375 37.203125 18.109375 27.296875 
Q 18.109375 17.390625 22.1875 11.75 
Q 26.265625 6.109375 33.40625 6.109375 
Q 40.53125 6.109375 44.609375 11.75 
Q 48.6875 17.390625 48.6875 27.296875 
z
" id="DejaVuSans-112"/>
      <path d="M 11.71875 12.40625 
L 22.015625 12.40625 
L 22.015625 4 
L 14.015625 -11.625 
L 7.71875 -11.625 
L 11.71875 4 
z
" id="DejaVuSans-44"/>
      <path d="M 37.109375 75.984375 
L 37.109375 68.5 
L 28.515625 68.5 
Q 23.6875 68.5 21.796875 66.546875 
Q 19.921875 64.59375 19.921875 59.515625 
L 19.921875 54.6875 
L 34.71875 54.6875 
L 34.71875 47.703125 
L 19.921875 47.703125 
L 19.921875 0 
L 10.890625 0 
L 10.890625 47.703125 
L 2.296875 47.703125 
L 2.296875 54.6875 
L 10.890625 54.6875 
L 10.890625 58.5 
Q 10.890625 67.625 15.140625 71.796875 
Q 19.390625 75.984375 28.609375 75.984375 
z
" id="DejaVuSans-102"/>
      <path d="M 54.890625 33.015625 
L 54.890625 0 
L 45.90625 0 
L 45.90625 32.71875 
Q 45.90625 40.484375 42.875 44.328125 
Q 39.84375 48.1875 33.796875 48.1875 
Q 26.515625 48.1875 22.3125 43.546875 
Q 18.109375 38.921875 18.109375 30.90625 
L 18.109375 0 
L 9.078125 0 
L 9.078125 75.984375 
L 18.109375 75.984375 
L 18.109375 46.1875 
Q 21.34375 51.125 25.703125 53.5625 
Q 30.078125 56 35.796875 56 
Q 45.21875 56 50.046875 50.171875 
Q 54.890625 44.34375 54.890625 33.015625 
z
" id="DejaVuSans-104"/>
      <path d="M 33.015625 40.375 
Q 26.375 40.375 22.484375 35.828125 
Q 18.609375 31.296875 18.609375 23.390625 
Q 18.609375 15.53125 22.484375 10.953125 
Q 26.375 6.390625 33.015625 6.390625 
Q 39.65625 6.390625 43.53125 10.953125 
Q 47.40625 15.53125 47.40625 23.390625 
Q 47.40625 31.296875 43.53125 35.828125 
Q 39.65625 40.375 33.015625 40.375 
z
M 52.59375 71.296875 
L 52.59375 62.3125 
Q 48.875 64.0625 45.09375 64.984375 
Q 41.3125 65.921875 37.59375 65.921875 
Q 27.828125 65.921875 22.671875 59.328125 
Q 17.53125 52.734375 16.796875 39.40625 
Q 19.671875 43.65625 24.015625 45.921875 
Q 28.375 48.1875 33.59375 48.1875 
Q 44.578125 48.1875 50.953125 41.515625 
Q 57.328125 34.859375 57.328125 23.390625 
Q 57.328125 12.15625 50.6875 5.359375 
Q 44.046875 -1.421875 33.015625 -1.421875 
Q 20.359375 -1.421875 13.671875 8.265625 
Q 6.984375 17.96875 6.984375 36.375 
Q 6.984375 53.65625 15.1875 63.9375 
Q 23.390625 74.21875 37.203125 74.21875 
Q 40.921875 74.21875 44.703125 73.484375 
Q 48.484375 72.75 52.59375 71.296875 
z
" id="DejaVuSans-54"/>
     </defs>
     <use xlink:href="#DejaVuSans-68"/>
     <use x="77.001953" xlink:href="#DejaVuSans-97"/>
     <use x="138.28125" xlink:href="#DejaVuSans-116"/>
     <use x="177.490234" xlink:href="#DejaVuSans-97"/>
     <use x="238.769531" xlink:href="#DejaVuSans-58"/>
     <use x="272.460938" xlink:href="#DejaVuSans-32"/>
     <use x="304.248047" xlink:href="#DejaVuSans-83"/>
     <use x="367.724609" xlink:href="#DejaVuSans-105"/>
     <use x="395.507812" xlink:href="#DejaVuSans-109"/>
     <use x="492.919922" xlink:href="#DejaVuSans-117"/>
     <use x="556.298828" xlink:href="#DejaVuSans-108"/>
     <use x="584.082031" xlink:href="#DejaVuSans-97"/>
     <use x="645.361328" xlink:href="#DejaVuSans-116"/>
     <use x="684.570312" xlink:href="#DejaVuSans-101"/>
     <use x="746.09375" xlink:href="#DejaVuSans-100"/>
     <use x="809.570312" xlink:href="#DejaVuSans-91"/>
     <use x="848.583984" xlink:href="#DejaVuSans-110"/>
     <use x="911.962891" xlink:href="#DejaVuSans-95"/>
     <use x="961.962891" xlink:href="#DejaVuSans-115"/>
     <use x="1014.0625" xlink:href="#DejaVuSans-97"/>
     <use x="1075.341797" xlink:href="#DejaVuSans-109"/>
     <use x="1172.753906" xlink:href="#DejaVuSans-112"/>
     <use x="1236.230469" xlink:href="#DejaVuSans-108"/>
     <use x="1264.013672" xlink:href="#DejaVuSans-101"/>
     <use x="1325.537109" xlink:href="#DejaVuSans-115"/>
     <use x="1377.636719" xlink:href="#DejaVuSans-61"/>
     <use x="1461.425781" xlink:href="#DejaVuSans-49"/>
     <use x="1525.048828" xlink:href="#DejaVuSans-48"/>
     <use x="1588.671875" xlink:href="#DejaVuSans-48"/>
     <use x="1652.294922" xlink:href="#DejaVuSans-44"/>
     <use x="1684.082031" xlink:href="#DejaVuSans-110"/>
     <use x="1747.460938" xlink:href="#DejaVuSans-95"/>
     <use x="1797.460938" xlink:href="#DejaVuSans-102"/>
     <use x="1832.666016" xlink:href="#DejaVuSans-101"/>
     <use x="1894.189453" xlink:href="#DejaVuSans-97"/>
     <use x="1955.46875" xlink:href="#DejaVuSans-116"/>
     <use x="1994.677734" xlink:href="#DejaVuSans-117"/>
     <use x="2058.056641" xlink:href="#DejaVuSans-114"/>
     <use x="2096.919922" xlink:href="#DejaVuSans-101"/>
     <use x="2158.443359" xlink:href="#DejaVuSans-115"/>
     <use x="2210.542969" xlink:href="#DejaVuSans-61"/>
     <use x="2294.332031" xlink:href="#DejaVuSans-53"/>
     <use x="2357.955078" xlink:href="#DejaVuSans-48"/>
     <use x="2421.578125" xlink:href="#DejaVuSans-48"/>
     <use x="2485.201172" xlink:href="#DejaVuSans-48"/>
     <use x="2548.824219" xlink:href="#DejaVuSans-44"/>
     <use x="2580.611328" xlink:href="#DejaVuSans-114"/>
     <use x="2619.974609" xlink:href="#DejaVuSans-104"/>
     <use x="2683.353516" xlink:href="#DejaVuSans-111"/>
     <use x="2744.535156" xlink:href="#DejaVuSans-61"/>
     <use x="2828.324219" xlink:href="#DejaVuSans-48"/>
     <use x="2891.947266" xlink:href="#DejaVuSans-46"/>
     <use x="2923.734375" xlink:href="#DejaVuSans-54"/>
     <use x="2987.357422" xlink:href="#DejaVuSans-93"/>
    </g>
   </g>
   <g id="legend_1">
    <g id="patch_7">
     <path d="M 135.920938 346.518 
L 440.2 346.518 
Q 443 346.518 443 343.718 
L 443 56.648 
Q 443 53.848 440.2 53.848 
L 135.920938 53.848 
Q 133.120938 53.848 133.120938 56.648 
L 133.120938 343.718 
Q 133.120938 346.518 135.920938 346.518 
z
" style="fill:#ffffff;opacity:0.8;stroke:#cccccc;stroke-linejoin:miter;"/>
    </g>
    <g id="line2d_63">
     <path d="M 138.720938 65.185812 
L 166.720938 65.185812 
" style="fill:none;stroke:#1f77b4;stroke-linecap:square;stroke-width:3;"/>
    </g>
    <g id="line2d_64"/>
    <g id="text_17">
     <!-- Blitz -->
     <g transform="translate(177.920938 70.085812)scale(0.14 -0.14)">
      <defs>
       <path d="M 19.671875 34.8125 
L 19.671875 8.109375 
L 35.5 8.109375 
Q 43.453125 8.109375 47.28125 11.40625 
Q 51.125 14.703125 51.125 21.484375 
Q 51.125 28.328125 47.28125 31.5625 
Q 43.453125 34.8125 35.5 34.8125 
z
M 19.671875 64.796875 
L 19.671875 42.828125 
L 34.28125 42.828125 
Q 41.5 42.828125 45.03125 45.53125 
Q 48.578125 48.25 48.578125 53.8125 
Q 48.578125 59.328125 45.03125 62.0625 
Q 41.5 64.796875 34.28125 64.796875 
z
M 9.8125 72.90625 
L 35.015625 72.90625 
Q 46.296875 72.90625 52.390625 68.21875 
Q 58.5 63.53125 58.5 54.890625 
Q 58.5 48.1875 55.375 44.234375 
Q 52.25 40.28125 46.1875 39.3125 
Q 53.46875 37.75 57.5 32.78125 
Q 61.53125 27.828125 61.53125 20.40625 
Q 61.53125 10.640625 54.890625 5.3125 
Q 48.25 0 35.984375 0 
L 9.8125 0 
z
" id="DejaVuSans-66"/>
       <path d="M 5.515625 54.6875 
L 48.1875 54.6875 
L 48.1875 46.484375 
L 14.40625 7.171875 
L 48.1875 7.171875 
L 48.1875 0 
L 4.296875 0 
L 4.296875 8.203125 
L 38.09375 47.515625 
L 5.515625 47.515625 
z
" id="DejaVuSans-122"/>
      </defs>
      <use xlink:href="#DejaVuSans-66"/>
      <use x="68.603516" xlink:href="#DejaVuSans-108"/>
      <use x="96.386719" xlink:href="#DejaVuSans-105"/>
      <use x="124.169922" xlink:href="#DejaVuSans-116"/>
      <use x="163.378906" xlink:href="#DejaVuSans-122"/>
     </g>
    </g>
    <g id="line2d_65">
     <path d="M 138.720938 85.735187 
L 166.720938 85.735187 
" style="fill:none;stroke:#ff7f0e;stroke-linecap:square;stroke-width:3;"/>
    </g>
    <g id="line2d_66"/>
    <g id="text_18">
     <!-- cd -->
     <g transform="translate(177.920938 90.635187)scale(0.14 -0.14)">
      <use xlink:href="#DejaVuSans-99"/>
      <use x="54.980469" xlink:href="#DejaVuSans-100"/>
     </g>
    </g>
    <g id="line2d_67">
     <path d="M 138.720938 106.284562 
L 166.720938 106.284562 
" style="fill:none;stroke:#2ca02c;stroke-linecap:square;stroke-width:3;"/>
    </g>
    <g id="line2d_68"/>
    <g id="text_19">
     <!-- Celer -->
     <g transform="translate(177.920938 111.184562)scale(0.14 -0.14)">
      <defs>
       <path d="M 64.40625 67.28125 
L 64.40625 56.890625 
Q 59.421875 61.53125 53.78125 63.8125 
Q 48.140625 66.109375 41.796875 66.109375 
Q 29.296875 66.109375 22.65625 58.46875 
Q 16.015625 50.828125 16.015625 36.375 
Q 16.015625 21.96875 22.65625 14.328125 
Q 29.296875 6.6875 41.796875 6.6875 
Q 48.140625 6.6875 53.78125 8.984375 
Q 59.421875 11.28125 64.40625 15.921875 
L 64.40625 5.609375 
Q 59.234375 2.09375 53.4375 0.328125 
Q 47.65625 -1.421875 41.21875 -1.421875 
Q 24.65625 -1.421875 15.125 8.703125 
Q 5.609375 18.84375 5.609375 36.375 
Q 5.609375 53.953125 15.125 64.078125 
Q 24.65625 74.21875 41.21875 74.21875 
Q 47.75 74.21875 53.53125 72.484375 
Q 59.328125 70.75 64.40625 67.28125 
z
" id="DejaVuSans-67"/>
      </defs>
      <use xlink:href="#DejaVuSans-67"/>
      <use x="69.824219" xlink:href="#DejaVuSans-101"/>
      <use x="131.347656" xlink:href="#DejaVuSans-108"/>
      <use x="159.130859" xlink:href="#DejaVuSans-101"/>
      <use x="220.654297" xlink:href="#DejaVuSans-114"/>
     </g>
    </g>
    <g id="line2d_69">
     <path d="M 138.720938 126.833937 
L 166.720938 126.833937 
" style="fill:none;stroke:#d62728;stroke-linecap:square;stroke-width:3;"/>
    </g>
    <g id="line2d_70"/>
    <g id="text_20">
     <!-- cvxpy -->
     <g transform="translate(177.920938 131.733937)scale(0.14 -0.14)">
      <defs>
       <path d="M 2.984375 54.6875 
L 12.5 54.6875 
L 29.59375 8.796875 
L 46.6875 54.6875 
L 56.203125 54.6875 
L 35.6875 0 
L 23.484375 0 
z
" id="DejaVuSans-118"/>
       <path d="M 54.890625 54.6875 
L 35.109375 28.078125 
L 55.90625 0 
L 45.3125 0 
L 29.390625 21.484375 
L 13.484375 0 
L 2.875 0 
L 24.125 28.609375 
L 4.6875 54.6875 
L 15.28125 54.6875 
L 29.78125 35.203125 
L 44.28125 54.6875 
z
" id="DejaVuSans-120"/>
       <path d="M 32.171875 -5.078125 
Q 28.375 -14.84375 24.75 -17.8125 
Q 21.140625 -20.796875 15.09375 -20.796875 
L 7.90625 -20.796875 
L 7.90625 -13.28125 
L 13.1875 -13.28125 
Q 16.890625 -13.28125 18.9375 -11.515625 
Q 21 -9.765625 23.484375 -3.21875 
L 25.09375 0.875 
L 2.984375 54.6875 
L 12.5 54.6875 
L 29.59375 11.921875 
L 46.6875 54.6875 
L 56.203125 54.6875 
z
" id="DejaVuSans-121"/>
      </defs>
      <use xlink:href="#DejaVuSans-99"/>
      <use x="54.980469" xlink:href="#DejaVuSans-118"/>
      <use x="114.160156" xlink:href="#DejaVuSans-120"/>
      <use x="173.339844" xlink:href="#DejaVuSans-112"/>
      <use x="236.816406" xlink:href="#DejaVuSans-121"/>
     </g>
    </g>
    <g id="line2d_71">
     <path d="M 138.720938 147.383312 
L 166.720938 147.383312 
" style="fill:none;stroke:#9467bd;stroke-linecap:square;stroke-width:3;"/>
    </g>
    <g id="line2d_72"/>
    <g id="text_21">
     <!-- Cyanure -->
     <g transform="translate(177.920938 152.283312)scale(0.14 -0.14)">
      <use xlink:href="#DejaVuSans-67"/>
      <use x="69.824219" xlink:href="#DejaVuSans-121"/>
      <use x="129.003906" xlink:href="#DejaVuSans-97"/>
      <use x="190.283203" xlink:href="#DejaVuSans-110"/>
      <use x="253.662109" xlink:href="#DejaVuSans-117"/>
      <use x="317.041016" xlink:href="#DejaVuSans-114"/>
      <use x="355.904297" xlink:href="#DejaVuSans-101"/>
     </g>
    </g>
    <g id="line2d_73">
     <path d="M 138.720938 167.932687 
L 166.720938 167.932687 
" style="fill:none;stroke:#8c564b;stroke-linecap:square;stroke-width:3;"/>
    </g>
    <g id="line2d_74"/>
    <g id="text_22">
     <!-- glmnet -->
     <g transform="translate(177.920938 172.832687)scale(0.14 -0.14)">
      <use xlink:href="#DejaVuSans-103"/>
      <use x="63.476562" xlink:href="#DejaVuSans-108"/>
      <use x="91.259766" xlink:href="#DejaVuSans-109"/>
      <use x="188.671875" xlink:href="#DejaVuSans-110"/>
      <use x="252.050781" xlink:href="#DejaVuSans-101"/>
      <use x="313.574219" xlink:href="#DejaVuSans-116"/>
     </g>
    </g>
    <g id="line2d_75">
     <path d="M 138.720938 188.482062 
L 166.720938 188.482062 
" style="fill:none;stroke:#e377c2;stroke-linecap:square;stroke-width:3;"/>
    </g>
    <g id="line2d_76"/>
    <g id="text_23">
     <!-- Julia-PGD -->
     <g transform="translate(177.920938 193.382062)scale(0.14 -0.14)">
      <defs>
       <path d="M 9.8125 72.90625 
L 19.671875 72.90625 
L 19.671875 5.078125 
Q 19.671875 -8.109375 14.671875 -14.0625 
Q 9.671875 -20.015625 -1.421875 -20.015625 
L -5.171875 -20.015625 
L -5.171875 -11.71875 
L -2.09375 -11.71875 
Q 4.4375 -11.71875 7.125 -8.046875 
Q 9.8125 -4.390625 9.8125 5.078125 
z
" id="DejaVuSans-74"/>
       <path d="M 4.890625 31.390625 
L 31.203125 31.390625 
L 31.203125 23.390625 
L 4.890625 23.390625 
z
" id="DejaVuSans-45"/>
       <path d="M 19.671875 64.796875 
L 19.671875 37.40625 
L 32.078125 37.40625 
Q 38.96875 37.40625 42.71875 40.96875 
Q 46.484375 44.53125 46.484375 51.125 
Q 46.484375 57.671875 42.71875 61.234375 
Q 38.96875 64.796875 32.078125 64.796875 
z
M 9.8125 72.90625 
L 32.078125 72.90625 
Q 44.34375 72.90625 50.609375 67.359375 
Q 56.890625 61.8125 56.890625 51.125 
Q 56.890625 40.328125 50.609375 34.8125 
Q 44.34375 29.296875 32.078125 29.296875 
L 19.671875 29.296875 
L 19.671875 0 
L 9.8125 0 
z
" id="DejaVuSans-80"/>
       <path d="M 59.515625 10.40625 
L 59.515625 29.984375 
L 43.40625 29.984375 
L 43.40625 38.09375 
L 69.28125 38.09375 
L 69.28125 6.78125 
Q 63.578125 2.734375 56.6875 0.65625 
Q 49.8125 -1.421875 42 -1.421875 
Q 24.90625 -1.421875 15.25 8.5625 
Q 5.609375 18.5625 5.609375 36.375 
Q 5.609375 54.25 15.25 64.234375 
Q 24.90625 74.21875 42 74.21875 
Q 49.125 74.21875 55.546875 72.453125 
Q 61.96875 70.703125 67.390625 67.28125 
L 67.390625 56.78125 
Q 61.921875 61.421875 55.765625 63.765625 
Q 49.609375 66.109375 42.828125 66.109375 
Q 29.4375 66.109375 22.71875 58.640625 
Q 16.015625 51.171875 16.015625 36.375 
Q 16.015625 21.625 22.71875 14.15625 
Q 29.4375 6.6875 42.828125 6.6875 
Q 48.046875 6.6875 52.140625 7.59375 
Q 56.25 8.5 59.515625 10.40625 
z
" id="DejaVuSans-71"/>
      </defs>
      <use xlink:href="#DejaVuSans-74"/>
      <use x="29.492188" xlink:href="#DejaVuSans-117"/>
      <use x="92.871094" xlink:href="#DejaVuSans-108"/>
      <use x="120.654297" xlink:href="#DejaVuSans-105"/>
      <use x="148.4375" xlink:href="#DejaVuSans-97"/>
      <use x="209.716797" xlink:href="#DejaVuSans-45"/>
      <use x="245.800781" xlink:href="#DejaVuSans-80"/>
      <use x="306.103516" xlink:href="#DejaVuSans-71"/>
      <use x="383.59375" xlink:href="#DejaVuSans-68"/>
     </g>
    </g>
    <g id="line2d_77">
     <path d="M 138.720938 209.031437 
L 166.720938 209.031437 
" style="fill:none;stroke:#7f7f7f;stroke-linecap:square;stroke-width:3;"/>
    </g>
    <g id="line2d_78"/>
    <g id="text_24">
     <!-- L-BFGS-B -->
     <g transform="translate(177.920938 213.931437)scale(0.14 -0.14)">
      <defs>
       <path d="M 9.8125 72.90625 
L 51.703125 72.90625 
L 51.703125 64.59375 
L 19.671875 64.59375 
L 19.671875 43.109375 
L 48.578125 43.109375 
L 48.578125 34.8125 
L 19.671875 34.8125 
L 19.671875 0 
L 9.8125 0 
z
" id="DejaVuSans-70"/>
      </defs>
      <use xlink:href="#DejaVuSans-76"/>
      <use x="53.962891" xlink:href="#DejaVuSans-45"/>
      <use x="86.421875" xlink:href="#DejaVuSans-66"/>
      <use x="155.025391" xlink:href="#DejaVuSans-70"/>
      <use x="212.544922" xlink:href="#DejaVuSans-71"/>
      <use x="290.035156" xlink:href="#DejaVuSans-83"/>
      <use x="353.511719" xlink:href="#DejaVuSans-45"/>
      <use x="385.970703" xlink:href="#DejaVuSans-66"/>
     </g>
    </g>
    <g id="line2d_79">
     <path d="M 138.720938 229.580812 
L 166.720938 229.580812 
" style="fill:none;stroke:#bcbd22;stroke-linecap:square;stroke-width:3;"/>
    </g>
    <g id="line2d_80"/>
    <g id="text_25">
     <!-- Lightning -->
     <g transform="translate(177.920938 234.480812)scale(0.14 -0.14)">
      <use xlink:href="#DejaVuSans-76"/>
      <use x="55.712891" xlink:href="#DejaVuSans-105"/>
      <use x="83.496094" xlink:href="#DejaVuSans-103"/>
      <use x="146.972656" xlink:href="#DejaVuSans-104"/>
      <use x="210.351562" xlink:href="#DejaVuSans-116"/>
      <use x="249.560547" xlink:href="#DejaVuSans-110"/>
      <use x="312.939453" xlink:href="#DejaVuSans-105"/>
      <use x="340.722656" xlink:href="#DejaVuSans-110"/>
      <use x="404.101562" xlink:href="#DejaVuSans-103"/>
     </g>
    </g>
    <g id="line2d_81">
     <path d="M 138.720938 250.130187 
L 166.720938 250.130187 
" style="fill:none;stroke:#17becf;stroke-linecap:square;stroke-width:3;"/>
    </g>
    <g id="line2d_82"/>
    <g id="text_26">
     <!-- Python-PGD[use_acceleration=False] -->
     <g transform="translate(177.920938 255.030187)scale(0.14 -0.14)">
      <use xlink:href="#DejaVuSans-80"/>
      <use x="60.302734" xlink:href="#DejaVuSans-121"/>
      <use x="119.482422" xlink:href="#DejaVuSans-116"/>
      <use x="158.691406" xlink:href="#DejaVuSans-104"/>
      <use x="222.070312" xlink:href="#DejaVuSans-111"/>
      <use x="283.251953" xlink:href="#DejaVuSans-110"/>
      <use x="346.630859" xlink:href="#DejaVuSans-45"/>
      <use x="382.714844" xlink:href="#DejaVuSans-80"/>
      <use x="443.017578" xlink:href="#DejaVuSans-71"/>
      <use x="520.507812" xlink:href="#DejaVuSans-68"/>
      <use x="597.509766" xlink:href="#DejaVuSans-91"/>
      <use x="636.523438" xlink:href="#DejaVuSans-117"/>
      <use x="699.902344" xlink:href="#DejaVuSans-115"/>
      <use x="752.001953" xlink:href="#DejaVuSans-101"/>
      <use x="813.525391" xlink:href="#DejaVuSans-95"/>
      <use x="863.525391" xlink:href="#DejaVuSans-97"/>
      <use x="924.804688" xlink:href="#DejaVuSans-99"/>
      <use x="979.785156" xlink:href="#DejaVuSans-99"/>
      <use x="1034.765625" xlink:href="#DejaVuSans-101"/>
      <use x="1096.289062" xlink:href="#DejaVuSans-108"/>
      <use x="1124.072266" xlink:href="#DejaVuSans-101"/>
      <use x="1185.595703" xlink:href="#DejaVuSans-114"/>
      <use x="1226.708984" xlink:href="#DejaVuSans-97"/>
      <use x="1287.988281" xlink:href="#DejaVuSans-116"/>
      <use x="1327.197266" xlink:href="#DejaVuSans-105"/>
      <use x="1354.980469" xlink:href="#DejaVuSans-111"/>
      <use x="1416.162109" xlink:href="#DejaVuSans-110"/>
      <use x="1479.541016" xlink:href="#DejaVuSans-61"/>
      <use x="1563.330078" xlink:href="#DejaVuSans-70"/>
      <use x="1611.724609" xlink:href="#DejaVuSans-97"/>
      <use x="1673.003906" xlink:href="#DejaVuSans-108"/>
      <use x="1700.787109" xlink:href="#DejaVuSans-115"/>
      <use x="1752.886719" xlink:href="#DejaVuSans-101"/>
      <use x="1814.410156" xlink:href="#DejaVuSans-93"/>
     </g>
    </g>
    <g id="line2d_83">
     <path d="M 138.720938 271.068938 
L 166.720938 271.068938 
" style="fill:none;stroke:#1f77b4;stroke-linecap:square;stroke-width:3;"/>
    </g>
    <g id="line2d_84"/>
    <g id="text_27">
     <!-- Python-PGD[use_acceleration=True] -->
     <g transform="translate(177.920938 275.968937)scale(0.14 -0.14)">
      <use xlink:href="#DejaVuSans-80"/>
      <use x="60.302734" xlink:href="#DejaVuSans-121"/>
      <use x="119.482422" xlink:href="#DejaVuSans-116"/>
      <use x="158.691406" xlink:href="#DejaVuSans-104"/>
      <use x="222.070312" xlink:href="#DejaVuSans-111"/>
      <use x="283.251953" xlink:href="#DejaVuSans-110"/>
      <use x="346.630859" xlink:href="#DejaVuSans-45"/>
      <use x="382.714844" xlink:href="#DejaVuSans-80"/>
      <use x="443.017578" xlink:href="#DejaVuSans-71"/>
      <use x="520.507812" xlink:href="#DejaVuSans-68"/>
      <use x="597.509766" xlink:href="#DejaVuSans-91"/>
      <use x="636.523438" xlink:href="#DejaVuSans-117"/>
      <use x="699.902344" xlink:href="#DejaVuSans-115"/>
      <use x="752.001953" xlink:href="#DejaVuSans-101"/>
      <use x="813.525391" xlink:href="#DejaVuSans-95"/>
      <use x="863.525391" xlink:href="#DejaVuSans-97"/>
      <use x="924.804688" xlink:href="#DejaVuSans-99"/>
      <use x="979.785156" xlink:href="#DejaVuSans-99"/>
      <use x="1034.765625" xlink:href="#DejaVuSans-101"/>
      <use x="1096.289062" xlink:href="#DejaVuSans-108"/>
      <use x="1124.072266" xlink:href="#DejaVuSans-101"/>
      <use x="1185.595703" xlink:href="#DejaVuSans-114"/>
      <use x="1226.708984" xlink:href="#DejaVuSans-97"/>
      <use x="1287.988281" xlink:href="#DejaVuSans-116"/>
      <use x="1327.197266" xlink:href="#DejaVuSans-105"/>
      <use x="1354.980469" xlink:href="#DejaVuSans-111"/>
      <use x="1416.162109" xlink:href="#DejaVuSans-110"/>
      <use x="1479.541016" xlink:href="#DejaVuSans-61"/>
      <use x="1563.330078" xlink:href="#DejaVuSans-84"/>
      <use x="1609.664062" xlink:href="#DejaVuSans-114"/>
      <use x="1650.777344" xlink:href="#DejaVuSans-117"/>
      <use x="1714.15625" xlink:href="#DejaVuSans-101"/>
      <use x="1775.679688" xlink:href="#DejaVuSans-93"/>
     </g>
    </g>
    <g id="line2d_85">
     <path d="M 138.720938 292.007687 
L 166.720938 292.007687 
" style="fill:none;stroke:#ff7f0e;stroke-linecap:square;stroke-width:3;"/>
    </g>
    <g id="line2d_86"/>
    <g id="text_28">
     <!-- R-PGD -->
     <g transform="translate(177.920938 296.907687)scale(0.14 -0.14)">
      <use xlink:href="#DejaVuSans-82"/>
      <use x="65.482422" xlink:href="#DejaVuSans-45"/>
      <use x="101.566406" xlink:href="#DejaVuSans-80"/>
      <use x="161.869141" xlink:href="#DejaVuSans-71"/>
      <use x="239.359375" xlink:href="#DejaVuSans-68"/>
     </g>
    </g>
    <g id="line2d_87">
     <path d="M 138.720938 312.557063 
L 166.720938 312.557063 
" style="fill:none;stroke:#2ca02c;stroke-linecap:square;stroke-width:3;"/>
    </g>
    <g id="line2d_88"/>
    <g id="text_29">
     <!-- sklearn -->
     <g transform="translate(177.920938 317.457063)scale(0.14 -0.14)">
      <defs>
       <path d="M 9.078125 75.984375 
L 18.109375 75.984375 
L 18.109375 31.109375 
L 44.921875 54.6875 
L 56.390625 54.6875 
L 27.390625 29.109375 
L 57.625 0 
L 45.90625 0 
L 18.109375 26.703125 
L 18.109375 0 
L 9.078125 0 
z
" id="DejaVuSans-107"/>
      </defs>
      <use xlink:href="#DejaVuSans-115"/>
      <use x="52.099609" xlink:href="#DejaVuSans-107"/>
      <use x="110.009766" xlink:href="#DejaVuSans-108"/>
      <use x="137.792969" xlink:href="#DejaVuSans-101"/>
      <use x="199.316406" xlink:href="#DejaVuSans-97"/>
      <use x="260.595703" xlink:href="#DejaVuSans-114"/>
      <use x="299.958984" xlink:href="#DejaVuSans-110"/>
     </g>
    </g>
    <g id="line2d_89">
     <path d="M 138.720938 333.106438 
L 166.720938 333.106438 
" style="fill:none;stroke:#d62728;stroke-linecap:square;stroke-width:3;"/>
    </g>
    <g id="line2d_90"/>
    <g id="text_30">
     <!-- statsmodels -->
     <g transform="translate(177.920938 338.006438)scale(0.14 -0.14)">
      <use xlink:href="#DejaVuSans-115"/>
      <use x="52.099609" xlink:href="#DejaVuSans-116"/>
      <use x="91.308594" xlink:href="#DejaVuSans-97"/>
      <use x="152.587891" xlink:href="#DejaVuSans-116"/>
      <use x="191.796875" xlink:href="#DejaVuSans-115"/>
      <use x="243.896484" xlink:href="#DejaVuSans-109"/>
      <use x="341.308594" xlink:href="#DejaVuSans-111"/>
      <use x="402.490234" xlink:href="#DejaVuSans-100"/>
      <use x="465.966797" xlink:href="#DejaVuSans-101"/>
      <use x="527.490234" xlink:href="#DejaVuSans-108"/>
      <use x="555.273438" xlink:href="#DejaVuSans-115"/>
     </g>
    </g>
   </g>
  </g>
 </g>
 <defs>
  <clipPath id="p9720ecc3a8">
   <rect height="249.88" width="389.007946" x="60.992054" y="46.848"/>
  </clipPath>
 </defs>
</svg>
