<?xml version="1.0" encoding="utf-8" standalone="no"?>
<!DOCTYPE svg PUBLIC "-//W3C//DTD SVG 1.1//EN"
  "http://www.w3.org/Graphics/SVG/1.1/DTD/svg11.dtd">
<!-- Created with matplotlib (https://matplotlib.org/) -->
<svg height="345.6pt" version="1.1" viewBox="0 0 460.8 345.6" width="460.8pt" xmlns="http://www.w3.org/2000/svg" xmlns:xlink="http://www.w3.org/1999/xlink">
 <metadata>
  <rdf:RDF xmlns:cc="http://creativecommons.org/ns#" xmlns:dc="http://purl.org/dc/elements/1.1/" xmlns:rdf="http://www.w3.org/1999/02/22-rdf-syntax-ns#">
   <cc:Work>
    <dc:type rdf:resource="http://purl.org/dc/dcmitype/StillImage"/>
    <dc:date>2020-12-16T18:00:11.650734</dc:date>
    <dc:format>image/svg+xml</dc:format>
    <dc:creator>
     <cc:Agent>
      <dc:title>Matplotlib v3.3.3, https://matplotlib.org/</dc:title>
     </cc:Agent>
    </dc:creator>
   </cc:Work>
  </rdf:RDF>
 </metadata>
 <defs>
  <style type="text/css">*{stroke-linecap:butt;stroke-linejoin:round;}</style>
 </defs>
 <g id="figure_1">
  <g id="patch_1">
   <path d="M 0 345.6 
L 460.8 345.6 
L 460.8 0 
L 0 0 
z
" style="fill:#ffffff;"/>
  </g>
  <g id="axes_1">
   <g id="patch_2">
    <path d="M 76.881214 296.728 
L 450 296.728 
L 450 43.44 
L 76.881214 43.44 
z
" style="fill:#ffffff;"/>
   </g>
   <g id="PolyCollection_1">
    <defs>
     <path d="M 155.133918 -61.279252 
L 147.553949 -61.279252 
L 147.403946 -61.279252 
L 147.294397 -61.279252 
L 146.894193 -61.279252 
L 144.813871 -61.279252 
L 146.204587 -61.279252 
L 146.015608 -65.488578 
L 145.820111 -61.279252 
L 146.331044 -65.026584 
L 144.834698 -65.488578 
L 144.855797 -66.326703 
L 145.662314 -65.488578 
L 144.107356 -68.350854 
L 144.343959 -68.350854 
L 142.834906 -95.367749 
L 143.067292 -102.182772 
L 143.00404 -100.624009 
L 142.419395 -106.399665 
L 143.37181 -107.054815 
L 142.473103 -112.378451 
L 142.128758 -110.247677 
L 141.30013 -111.32466 
L 142.826107 -115.21947 
L 140.963199 -143.454644 
L 140.994388 -148.972758 
L 140.570957 -153.524932 
L 140.584988 -158.588713 
L 140.434167 -156.639603 
L 139.740559 -154.687679 
L 141.296515 -157.469032 
L 141.853854 -151.055702 
L 144.022256 -159.426006 
L 142.187515 -157.578171 
L 140.843134 -152.201533 
L 138.758835 -159.165977 
L 140.08408 -199.709837 
L 136.733557 -204.523862 
L 136.173267 -213.161707 
L 136.33711 -213.721128 
L 136.448903 -212.643963 
L 131.396929 -224.198907 
L 130.816861 -224.499821 
L 131.295157 -224.19825 
L 130.268356 -224.14003 
L 130.891608 -224.538427 
L 128.95755 -243.223995 
L 96.216281 -262.676176 
L 94.307798 -259.806775 
L 93.919065 -270.97102 
L 94.552489 -263.237138 
L 93.841158 -270.88751 
L 104.525358 -270.88751 
L 104.525358 -270.88751 
L 97.029611 -263.237138 
L 95.773435 -270.97102 
L 96.578065 -259.806775 
L 130.098059 -262.676176 
L 135.38916 -243.223995 
L 141.625572 -224.538427 
L 133.036214 -224.14003 
L 134.742861 -224.19825 
L 133.705928 -224.499821 
L 134.800413 -224.198907 
L 139.109742 -212.643963 
L 138.242442 -213.721128 
L 141.156094 -213.161707 
L 141.562966 -204.523862 
L 144.408426 -199.709837 
L 142.560935 -159.165977 
L 142.209967 -152.201533 
L 145.23989 -157.578171 
L 150.367947 -159.426006 
L 144.46888 -151.055702 
L 141.887693 -157.469032 
L 142.153142 -154.687679 
L 146.675904 -156.639603 
L 144.470003 -158.588713 
L 143.065061 -153.524932 
L 143.973993 -148.972758 
L 143.044679 -143.454644 
L 149.000017 -115.21947 
L 144.861652 -111.32466 
L 146.540704 -110.247677 
L 145.680765 -112.378451 
L 151.403823 -107.054815 
L 146.636685 -106.399665 
L 146.197434 -100.624009 
L 145.904544 -102.182772 
L 147.315396 -95.367749 
L 148.322788 -68.350854 
L 145.692396 -68.350854 
L 161.066936 -65.488578 
L 146.828999 -66.326703 
L 149.12928 -65.488578 
L 147.834085 -65.026584 
L 148.996362 -61.279252 
L 150.324835 -65.488578 
L 147.467819 -61.279252 
L 149.250211 -61.279252 
L 148.94496 -61.279252 
L 150.527617 -61.279252 
L 148.704028 -61.279252 
L 155.133918 -61.279252 
z
" id="md8fa375903" style="stroke:#1f77b4;stroke-opacity:0.3;"/>
    </defs>
    <g clip-path="url(#p38aa19b849)">
     <use style="fill:#1f77b4;fill-opacity:0.3;stroke:#1f77b4;stroke-opacity:0.3;" x="0" xlink:href="#md8fa375903" y="345.6"/>
    </g>
   </g>
   <g id="PolyCollection_2">
    <defs>
     <path d="M 141.159759 -275.286139 
L 121.033557 -275.286139 
L 124.927208 -263.111184 
L 133.166025 -256.081398 
L 137.760702 -249.757805 
L 148.297085 -233.743222 
L 164.539247 -213.515051 
L 169.008021 -186.863946 
L 180.430783 -160.900762 
L 193.794 -133.280721 
L 208.609309 -94.101394 
L 224.630001 -61.279252 
L 239.507927 -60.385091 
L 254.275959 -60.385091 
L 274.281649 -60.385091 
L 296.967585 -60.385091 
L 327.596027 -61.279252 
L 329.968568 -61.279252 
L 329.968568 -61.279252 
L 299.182507 -60.385091 
L 274.96792 -60.385091 
L 255.74912 -60.385091 
L 242.090948 -60.385091 
L 226.293842 -61.279252 
L 212.230121 -94.101394 
L 200.351916 -133.280721 
L 188.745879 -160.900762 
L 175.905212 -186.863946 
L 170.394337 -213.515051 
L 160.722312 -233.743222 
L 155.661044 -249.757805 
L 144.421821 -256.081398 
L 141.561464 -263.111184 
L 141.159759 -275.286139 
z
" id="m523d278a77" style="stroke:#ff7f0e;stroke-opacity:0.3;"/>
    </defs>
    <g clip-path="url(#p38aa19b849)">
     <use style="fill:#ff7f0e;fill-opacity:0.3;stroke:#ff7f0e;stroke-opacity:0.3;" x="0" xlink:href="#m523d278a77" y="345.6"/>
    </g>
   </g>
   <g id="PolyCollection_3">
    <defs>
     <path d="M 142.792786 -270.810375 
L 124.172976 -270.810375 
L 136.103672 -256.918399 
L 146.625588 -224.604408 
L 153.549265 -185.357414 
L 158.489496 -104.200688 
L 157.743024 -60.385091 
L 161.218845 -61.279252 
L 161.225921 -61.279252 
L 161.664571 -61.279252 
L 160.675745 -61.279252 
L 162.825274 -61.279252 
L 164.495648 -61.279252 
L 164.495648 -61.279252 
L 170.208226 -61.279252 
L 167.755081 -61.279252 
L 166.227011 -61.279252 
L 169.628959 -61.279252 
L 167.79562 -60.385091 
L 166.25369 -104.200688 
L 159.809145 -185.357414 
L 159.543151 -224.604408 
L 160.059636 -256.918399 
L 142.792786 -270.810375 
z
" id="m70b234d91a" style="stroke:#2ca02c;stroke-opacity:0.3;"/>
    </defs>
    <g clip-path="url(#p38aa19b849)">
     <use style="fill:#2ca02c;fill-opacity:0.3;stroke:#2ca02c;stroke-opacity:0.3;" x="0" xlink:href="#m70b234d91a" y="345.6"/>
    </g>
   </g>
   <g id="PolyCollection_4">
    <defs>
     <path d="M 338.709489 -287.336978 
L 295.323083 -287.336978 
L 308.810469 -287.336978 
L 319.383775 -287.336978 
L 340.507368 -287.336978 
L 373.033609 -290.646909 
L 388.723757 -211.270145 
L 388.300799 -211.270145 
L 388.327134 -211.270145 
L 388.07254 -211.270145 
L 388.84172 -211.270145 
L 388.84172 -211.270145 
L 388.930101 -211.270145 
L 389.198315 -211.270145 
L 390.723791 -211.270145 
L 373.836909 -290.646909 
L 342.80698 -287.336978 
L 320.688278 -287.336978 
L 309.201771 -287.336978 
L 338.709489 -287.336978 
z
" id="md43b353835" style="stroke:#d62728;stroke-opacity:0.3;"/>
    </defs>
    <g clip-path="url(#p38aa19b849)">
     <use style="fill:#d62728;fill-opacity:0.3;stroke:#d62728;stroke-opacity:0.3;" x="0" xlink:href="#md43b353835" y="345.6"/>
    </g>
   </g>
   <g id="PolyCollection_5">
    <defs>
     <path d="M 131.210727 -279.857735 
L 125.125406 -279.857735 
L 129.24899 -278.279429 
L 138.636942 -273.89019 
L 141.255876 -273.363845 
L 145.146583 -272.300439 
L 154.422326 -269.925934 
L 162.706695 -269.257218 
L 176.703541 -269.257218 
L 195.584856 -254.799004 
L 216.420069 -238.914219 
L 237.868753 -209.597342 
L 257.36319 -139.133026 
L 276.788395 -80.201762 
L 297.317038 -71.162304 
L 318.999184 -63.4117 
L 342.291512 -61.279252 
L 368.275952 -61.279252 
L 394.388418 -60.385091 
L 397.717458 -60.385091 
L 406.619071 -60.385091 
L 412.814417 -60.385091 
L 412.814417 -60.385091 
L 408.521846 -60.385091 
L 396.105005 -60.385091 
L 368.998474 -61.279252 
L 344.265376 -61.279252 
L 320.582929 -63.4117 
L 298.083101 -71.162304 
L 279.284706 -80.201762 
L 260.232845 -139.133026 
L 246.389902 -209.597342 
L 221.719507 -238.914219 
L 200.445074 -254.799004 
L 194.369122 -269.257218 
L 181.204868 -269.257218 
L 165.037518 -269.925934 
L 161.716586 -272.300439 
L 159.170182 -273.363845 
L 156.050235 -273.89019 
L 152.414482 -278.279429 
L 131.210727 -279.857735 
z
" id="m73f1f3583c" style="stroke:#9467bd;stroke-opacity:0.3;"/>
    </defs>
    <g clip-path="url(#p38aa19b849)">
     <use style="fill:#9467bd;fill-opacity:0.3;stroke:#9467bd;stroke-opacity:0.3;" x="0" xlink:href="#m73f1f3583c" y="345.6"/>
    </g>
   </g>
   <g id="PolyCollection_6">
    <defs>
     <path d="M 211.13749 -279.857735 
L 193.006856 -279.857735 
L 201.660934 -279.811533 
L 197.499052 -279.811533 
L 197.776079 -279.765984 
L 199.958341 -279.721089 
L 208.899965 -279.633257 
L 209.04696 -279.465403 
L 217.948114 -279.196486 
L 222.570476 -278.827807 
L 229.034428 -277.911681 
L 233.931438 -276.485725 
L 241.283353 -273.72055 
L 252.252502 -267.938421 
L 262.794453 -246.459187 
L 264.629362 -83.502267 
L 264.081133 -83.502267 
L 264.568072 -83.502267 
L 264.619594 -83.502267 
L 262.182982 -83.502267 
L 262.502471 -83.502267 
L 274.804234 -83.502267 
L 274.804234 -83.502267 
L 267.933308 -83.502267 
L 281.658498 -83.502267 
L 276.762764 -83.502267 
L 278.681206 -83.502267 
L 278.528995 -83.502267 
L 278.270357 -246.459187 
L 260.197189 -267.938421 
L 253.375186 -273.72055 
L 245.240604 -276.485725 
L 260.979336 -277.911681 
L 230.766862 -278.827807 
L 236.709021 -279.196486 
L 252.908325 -279.465403 
L 219.651555 -279.633257 
L 220.845166 -279.721089 
L 247.630343 -279.765984 
L 222.194453 -279.811533 
L 232.021174 -279.811533 
L 211.13749 -279.857735 
z
" id="mc17c03c813" style="stroke:#8c564b;stroke-opacity:0.3;"/>
    </defs>
    <g clip-path="url(#p38aa19b849)">
     <use style="fill:#8c564b;fill-opacity:0.3;stroke:#8c564b;stroke-opacity:0.3;" x="0" xlink:href="#mc17c03c813" y="345.6"/>
    </g>
   </g>
   <g id="PolyCollection_7">
    <defs>
     <path d="M 258.492051 -278.803929 
L 230.738448 -278.803929 
L 231.772818 -277.972456 
L 232.636829 -277.289542 
L 233.108149 -276.709083 
L 234.941663 -275.756004 
L 237.088932 -274.66234 
L 239.827297 -273.523056 
L 244.536591 -272.144663 
L 249.031605 -270.492458 
L 255.579602 -268.421017 
L 264.021032 -265.931271 
L 269.208328 -262.614965 
L 272.205537 -258.077171 
L 277.152743 -252.517046 
L 284.367046 -246.418237 
L 291.153754 -239.6497 
L 300.722811 -232.011556 
L 311.65431 -220.140495 
L 326.193963 -208.081017 
L 338.804743 -195.08037 
L 352.971061 -178.65285 
L 368.615561 -155.090428 
L 391.727568 -120.072144 
L 400.070984 -69.903057 
L 403.187574 -69.903057 
L 403.187574 -69.903057 
L 404.951863 -120.072144 
L 370.802238 -155.090428 
L 356.582181 -178.65285 
L 342.985079 -195.08037 
L 330.266669 -208.081017 
L 319.964522 -220.140495 
L 308.421841 -232.011556 
L 301.15617 -239.6497 
L 289.010607 -246.418237 
L 278.022552 -252.517046 
L 273.071009 -258.077171 
L 270.075241 -262.614965 
L 265.263064 -265.931271 
L 258.1826 -268.421017 
L 251.936909 -270.492458 
L 249.709813 -272.144663 
L 260.945373 -273.523056 
L 243.645864 -274.66234 
L 240.249347 -275.756004 
L 239.568765 -276.709083 
L 238.544004 -277.289542 
L 239.034708 -277.972456 
L 258.492051 -278.803929 
z
" id="m57a8930608" style="stroke:#e377c2;stroke-opacity:0.3;"/>
    </defs>
    <g clip-path="url(#p38aa19b849)">
     <use style="fill:#e377c2;fill-opacity:0.3;stroke:#e377c2;stroke-opacity:0.3;" x="0" xlink:href="#m57a8930608" y="345.6"/>
    </g>
   </g>
   <g id="PolyCollection_8">
    <defs>
     <path d="M 232.905902 -277.691137 
L 197.222083 -277.691137 
L 199.421627 -275.588305 
L 202.703504 -275.251959 
L 203.89679 -274.16151 
L 210.047877 -272.535911 
L 216.208509 -270.040385 
L 223.935893 -267.003428 
L 234.430723 -260.795677 
L 245.575117 -248.961146 
L 253.947605 -237.167872 
L 264.930485 -224.866603 
L 278.493585 -204.11755 
L 289.277974 -178.904452 
L 304.8766 -128.598944 
L 316.877033 -75.20373 
L 319.516788 -75.20373 
L 316.368161 -75.20373 
L 316.360246 -75.20373 
L 316.100614 -75.20373 
L 316.034382 -75.20373 
L 321.802308 -75.20373 
L 321.802308 -75.20373 
L 324.644618 -75.20373 
L 320.759779 -75.20373 
L 320.643462 -75.20373 
L 321.579244 -75.20373 
L 324.514927 -75.20373 
L 309.203515 -128.598944 
L 295.47348 -178.904452 
L 281.30893 -204.11755 
L 274.042024 -224.866603 
L 275.456809 -237.167872 
L 255.462525 -248.961146 
L 252.825126 -260.795677 
L 245.822254 -267.003428 
L 240.629404 -270.040385 
L 248.896773 -272.535911 
L 236.520515 -274.16151 
L 233.627217 -275.251959 
L 233.266452 -275.588305 
L 232.905902 -277.691137 
z
" id="m5b3f431395" style="stroke:#7f7f7f;stroke-opacity:0.3;"/>
    </defs>
    <g clip-path="url(#p38aa19b849)">
     <use style="fill:#7f7f7f;fill-opacity:0.3;stroke:#7f7f7f;stroke-opacity:0.3;" x="0" xlink:href="#m5b3f431395" y="345.6"/>
    </g>
   </g>
   <g id="PolyCollection_9">
    <defs>
     <path d="M 142.386775 -290.076005 
L 139.33884 -290.076005 
L 167.969393 -283.410049 
L 169.306714 -280.573481 
L 169.258247 -278.843458 
L 169.599406 -278.900796 
L 169.616087 -278.572419 
L 168.928764 -278.570568 
L 170.751701 -278.56156 
L 171.470001 -278.49393 
L 173.092062 -278.588962 
L 176.603438 -278.742755 
L 178.723058 -278.514737 
L 184.292536 -278.682509 
L 191.156802 -278.512058 
L 197.38782 -278.573196 
L 202.242035 -278.575974 
L 210.156629 -278.704735 
L 220.368736 -278.432617 
L 233.820891 -278.405783 
L 244.959814 -278.73145 
L 257.612684 -278.549027 
L 272.032179 -278.445243 
L 283.786825 -278.717322 
L 293.911886 -278.680125 
L 307.716942 -278.475554 
L 322.551881 -278.744928 
L 336.707739 -278.5341 
L 348.596507 -278.416858 
L 362.171042 -278.565524 
L 379.512762 -278.520675 
L 393.972045 -278.589822 
L 410.892341 -278.46624 
L 411.67069 -278.46624 
L 411.67069 -278.46624 
L 401.300129 -278.589822 
L 383.563137 -278.520675 
L 367.007055 -278.565524 
L 352.30289 -278.416858 
L 340.870466 -278.5341 
L 324.251605 -278.744928 
L 312.175495 -278.475554 
L 298.389876 -278.680125 
L 287.229473 -278.717322 
L 274.134197 -278.445243 
L 262.049416 -278.549027 
L 251.661495 -278.73145 
L 237.169332 -278.405783 
L 225.122596 -278.432617 
L 213.450616 -278.704735 
L 209.531087 -278.575974 
L 200.866459 -278.573196 
L 193.749752 -278.512058 
L 186.863487 -278.682509 
L 184.230516 -278.514737 
L 178.265479 -278.742755 
L 179.276377 -278.588962 
L 173.769204 -278.49393 
L 171.897935 -278.56156 
L 171.231664 -278.570568 
L 172.161761 -278.572419 
L 172.13213 -278.900796 
L 170.914127 -278.843458 
L 170.432976 -280.573481 
L 169.026662 -283.410049 
L 142.386775 -290.076005 
z
" id="m68e2cb3828" style="stroke:#bcbd22;stroke-opacity:0.3;"/>
    </defs>
    <g clip-path="url(#p38aa19b849)">
     <use style="fill:#bcbd22;fill-opacity:0.3;stroke:#bcbd22;stroke-opacity:0.3;" x="0" xlink:href="#m68e2cb3828" y="345.6"/>
    </g>
   </g>
   <g id="PolyCollection_10">
    <defs>
     <path d="M 215.454362 -278.803929 
L 205.278452 -278.803929 
L 215.026523 -277.972456 
L 215.786873 -277.289542 
L 215.304816 -276.709083 
L 216.792063 -275.756004 
L 217.264882 -274.66234 
L 218.565689 -273.523056 
L 220.8239 -272.144663 
L 223.572072 -270.492458 
L 226.180114 -268.421017 
L 232.818565 -265.931271 
L 239.483503 -262.614965 
L 246.004931 -258.077171 
L 254.969937 -252.517046 
L 265.722585 -246.418237 
L 277.57842 -239.6497 
L 294.595134 -232.011556 
L 309.055435 -220.140495 
L 322.086216 -208.081017 
L 337.280307 -195.08037 
L 353.457463 -178.65285 
L 377.892903 -155.090428 
L 391.215992 -120.072144 
L 405.019639 -69.903057 
L 405.824962 -69.903057 
L 405.824962 -69.903057 
L 400.54655 -120.072144 
L 383.456152 -155.090428 
L 357.418692 -178.65285 
L 338.10718 -195.08037 
L 323.853872 -208.081017 
L 310.02604 -220.140495 
L 296.472149 -232.011556 
L 278.656565 -239.6497 
L 266.581574 -246.418237 
L 256.904138 -252.517046 
L 248.242287 -258.077171 
L 240.856591 -262.614965 
L 233.757529 -265.931271 
L 228.327338 -268.421017 
L 225.516284 -270.492458 
L 222.283884 -272.144663 
L 220.436595 -273.523056 
L 220.147374 -274.66234 
L 221.469511 -275.756004 
L 217.628469 -276.709083 
L 217.462774 -277.289542 
L 217.598627 -277.972456 
L 215.454362 -278.803929 
z
" id="mc49abc6d3d" style="stroke:#17becf;stroke-opacity:0.3;"/>
    </defs>
    <g clip-path="url(#p38aa19b849)">
     <use style="fill:#17becf;fill-opacity:0.3;stroke:#17becf;stroke-opacity:0.3;" x="0" xlink:href="#mc49abc6d3d" y="345.6"/>
    </g>
   </g>
   <g id="PolyCollection_11">
    <defs>
     <path d="M 230.267384 -278.803929 
L 228.843036 -278.803929 
L 229.275892 -277.972456 
L 230.454714 -277.103069 
L 229.826657 -276.243052 
L 230.69952 -274.658198 
L 232.792375 -272.559741 
L 232.930949 -269.949301 
L 234.74095 -266.175206 
L 238.653508 -259.412617 
L 241.603383 -248.31155 
L 247.03859 -237.099795 
L 252.421892 -225.170599 
L 259.830235 -214.915002 
L 267.212288 -207.006905 
L 277.999984 -195.130371 
L 289.350112 -187.044594 
L 302.260477 -167.843176 
L 315.099874 -159.791109 
L 328.781639 -138.888875 
L 347.861369 -126.3471 
L 364.760724 -111.122481 
L 377.778121 -91.164858 
L 393.058949 -63.4117 
L 408.889882 -61.279252 
L 417.866693 -61.279252 
L 417.866693 -61.279252 
L 393.992354 -63.4117 
L 380.576198 -91.164858 
L 366.346146 -111.122481 
L 353.988553 -126.3471 
L 329.94435 -138.888875 
L 316.086337 -159.791109 
L 305.238174 -167.843176 
L 291.381407 -187.044594 
L 280.917392 -195.130371 
L 269.286587 -207.006905 
L 261.13796 -214.915002 
L 254.790168 -225.170599 
L 249.753377 -237.099795 
L 243.441484 -248.31155 
L 240.080606 -259.412617 
L 243.643958 -266.175206 
L 235.307981 -269.949301 
L 234.443281 -272.559741 
L 233.423047 -274.658198 
L 231.778813 -276.243052 
L 233.289934 -277.103069 
L 232.487739 -277.972456 
L 230.267384 -278.803929 
z
" id="mac0a9a10ae" style="stroke:#1f77b4;stroke-opacity:0.3;"/>
    </defs>
    <g clip-path="url(#p38aa19b849)">
     <use style="fill:#1f77b4;fill-opacity:0.3;stroke:#1f77b4;stroke-opacity:0.3;" x="0" xlink:href="#mac0a9a10ae" y="345.6"/>
    </g>
   </g>
   <g id="PolyCollection_12">
    <defs>
     <path d="M 257.060016 -278.803929 
L 248.712699 -278.803929 
L 262.035412 -277.972456 
L 270.90193 -277.289542 
L 278.023553 -276.709083 
L 290.307183 -275.756004 
L 300.237012 -274.66234 
L 309.962663 -273.523056 
L 322.639236 -272.144663 
L 337.06211 -270.492458 
L 350.684918 -268.421017 
L 365.957519 -265.931271 
L 380.612683 -262.614965 
L 396.560972 -258.077171 
L 412.843649 -252.517046 
L 413.617117 -252.517046 
L 413.617117 -252.517046 
L 398.311126 -258.077171 
L 382.844513 -262.614965 
L 367.677136 -265.931271 
L 354.917063 -268.421017 
L 338.429446 -270.492458 
L 326.937804 -272.144663 
L 316.219471 -273.523056 
L 302.502169 -274.66234 
L 292.772574 -275.756004 
L 293.187933 -276.709083 
L 277.095844 -277.289542 
L 270.92117 -277.972456 
L 257.060016 -278.803929 
z
" id="m59b01d511d" style="stroke:#ff7f0e;stroke-opacity:0.3;"/>
    </defs>
    <g clip-path="url(#p38aa19b849)">
     <use style="fill:#ff7f0e;fill-opacity:0.3;stroke:#ff7f0e;stroke-opacity:0.3;" x="0" xlink:href="#m59b01d511d" y="345.6"/>
    </g>
   </g>
   <g id="PolyCollection_13">
    <defs>
     <path d="M 163.298621 -275.286139 
L 143.954761 -275.286139 
L 144.891531 -263.111184 
L 152.830373 -256.081398 
L 153.031635 -249.757805 
L 158.180111 -233.743222 
L 165.644405 -213.515051 
L 169.577781 -186.863946 
L 178.909517 -160.900762 
L 190.064359 -133.280721 
L 205.174689 -94.107615 
L 216.575721 -61.279252 
L 229.486045 -60.385091 
L 242.716647 -61.279252 
L 257.178562 -60.385091 
L 271.893086 -61.279252 
L 283.787732 -61.279252 
L 284.429312 -61.279252 
L 284.429312 -61.279252 
L 273.550852 -61.279252 
L 258.033005 -60.385091 
L 244.617657 -61.279252 
L 231.868213 -60.385091 
L 219.367323 -61.279252 
L 210.236092 -94.107615 
L 197.674574 -133.280721 
L 186.596872 -160.900762 
L 182.717077 -186.863946 
L 181.017827 -213.515051 
L 172.821467 -233.743222 
L 166.12269 -249.757805 
L 170.32623 -256.081398 
L 166.259913 -263.111184 
L 163.298621 -275.286139 
z
" id="m5363738ccb" style="stroke:#2ca02c;stroke-opacity:0.3;"/>
    </defs>
    <g clip-path="url(#p38aa19b849)">
     <use style="fill:#2ca02c;fill-opacity:0.3;stroke:#2ca02c;stroke-opacity:0.3;" x="0" xlink:href="#m5363738ccb" y="345.6"/>
    </g>
   </g>
   <g id="PolyCollection_14">
    <defs>
     <path d="M 403.442037 -275.286139 
L 401.322933 -275.286139 
L 429.408798 -263.111184 
L 429.391208 -256.181447 
L 429.897391 -256.181447 
L 429.897391 -256.181447 
L 433.040055 -263.111184 
L 403.442037 -275.286139 
z
" id="m0f258dea72" style="stroke:#d62728;stroke-opacity:0.3;"/>
    </defs>
    <g clip-path="url(#p38aa19b849)">
     <use style="fill:#d62728;fill-opacity:0.3;stroke:#d62728;stroke-opacity:0.3;" x="0" xlink:href="#m0f258dea72" y="345.6"/>
    </g>
   </g>
   <g id="matplotlib.axis_1">
    <g id="xtick_1">
     <g id="line2d_1">
      <defs>
       <path d="M 0 0 
L 0 3.5 
" id="m239710f35b" style="stroke:#000000;stroke-width:0.8;"/>
      </defs>
      <g>
       <use style="stroke:#000000;stroke-width:0.8;" x="150.078939" xlink:href="#m239710f35b" y="296.728"/>
      </g>
     </g>
     <g id="text_1">
      <!-- $\mathdefault{10^{-2}}$ -->
      <g transform="translate(138.328939 311.326437)scale(0.1 -0.1)">
       <defs>
        <path d="M 12.40625 8.296875 
L 28.515625 8.296875 
L 28.515625 63.921875 
L 10.984375 60.40625 
L 10.984375 69.390625 
L 28.421875 72.90625 
L 38.28125 72.90625 
L 38.28125 8.296875 
L 54.390625 8.296875 
L 54.390625 0 
L 12.40625 0 
z
" id="DejaVuSans-49"/>
        <path d="M 31.78125 66.40625 
Q 24.171875 66.40625 20.328125 58.90625 
Q 16.5 51.421875 16.5 36.375 
Q 16.5 21.390625 20.328125 13.890625 
Q 24.171875 6.390625 31.78125 6.390625 
Q 39.453125 6.390625 43.28125 13.890625 
Q 47.125 21.390625 47.125 36.375 
Q 47.125 51.421875 43.28125 58.90625 
Q 39.453125 66.40625 31.78125 66.40625 
z
M 31.78125 74.21875 
Q 44.046875 74.21875 50.515625 64.515625 
Q 56.984375 54.828125 56.984375 36.375 
Q 56.984375 17.96875 50.515625 8.265625 
Q 44.046875 -1.421875 31.78125 -1.421875 
Q 19.53125 -1.421875 13.0625 8.265625 
Q 6.59375 17.96875 6.59375 36.375 
Q 6.59375 54.828125 13.0625 64.515625 
Q 19.53125 74.21875 31.78125 74.21875 
z
" id="DejaVuSans-48"/>
        <path d="M 10.59375 35.5 
L 73.1875 35.5 
L 73.1875 27.203125 
L 10.59375 27.203125 
z
" id="DejaVuSans-8722"/>
        <path d="M 19.1875 8.296875 
L 53.609375 8.296875 
L 53.609375 0 
L 7.328125 0 
L 7.328125 8.296875 
Q 12.9375 14.109375 22.625 23.890625 
Q 32.328125 33.6875 34.8125 36.53125 
Q 39.546875 41.84375 41.421875 45.53125 
Q 43.3125 49.21875 43.3125 52.78125 
Q 43.3125 58.59375 39.234375 62.25 
Q 35.15625 65.921875 28.609375 65.921875 
Q 23.96875 65.921875 18.8125 64.3125 
Q 13.671875 62.703125 7.8125 59.421875 
L 7.8125 69.390625 
Q 13.765625 71.78125 18.9375 73 
Q 24.125 74.21875 28.421875 74.21875 
Q 39.75 74.21875 46.484375 68.546875 
Q 53.21875 62.890625 53.21875 53.421875 
Q 53.21875 48.921875 51.53125 44.890625 
Q 49.859375 40.875 45.40625 35.40625 
Q 44.1875 33.984375 37.640625 27.21875 
Q 31.109375 20.453125 19.1875 8.296875 
z
" id="DejaVuSans-50"/>
       </defs>
       <use transform="translate(0 0.765625)" xlink:href="#DejaVuSans-49"/>
       <use transform="translate(63.623047 0.765625)" xlink:href="#DejaVuSans-48"/>
       <use transform="translate(128.203125 39.046875)scale(0.7)" xlink:href="#DejaVuSans-8722"/>
       <use transform="translate(186.855469 39.046875)scale(0.7)" xlink:href="#DejaVuSans-50"/>
      </g>
     </g>
    </g>
    <g id="xtick_2">
     <g id="line2d_2">
      <g>
       <use style="stroke:#000000;stroke-width:0.8;" x="241.540626" xlink:href="#m239710f35b" y="296.728"/>
      </g>
     </g>
     <g id="text_2">
      <!-- $\mathdefault{10^{-1}}$ -->
      <g transform="translate(229.790626 311.326437)scale(0.1 -0.1)">
       <use transform="translate(0 0.684375)" xlink:href="#DejaVuSans-49"/>
       <use transform="translate(63.623047 0.684375)" xlink:href="#DejaVuSans-48"/>
       <use transform="translate(128.203125 38.965625)scale(0.7)" xlink:href="#DejaVuSans-8722"/>
       <use transform="translate(186.855469 38.965625)scale(0.7)" xlink:href="#DejaVuSans-49"/>
      </g>
     </g>
    </g>
    <g id="xtick_3">
     <g id="line2d_3">
      <g>
       <use style="stroke:#000000;stroke-width:0.8;" x="333.002313" xlink:href="#m239710f35b" y="296.728"/>
      </g>
     </g>
     <g id="text_3">
      <!-- $\mathdefault{10^{0}}$ -->
      <g transform="translate(324.202313 311.326437)scale(0.1 -0.1)">
       <use transform="translate(0 0.765625)" xlink:href="#DejaVuSans-49"/>
       <use transform="translate(63.623047 0.765625)" xlink:href="#DejaVuSans-48"/>
       <use transform="translate(128.203125 39.046875)scale(0.7)" xlink:href="#DejaVuSans-48"/>
      </g>
     </g>
    </g>
    <g id="xtick_4">
     <g id="line2d_4">
      <g>
       <use style="stroke:#000000;stroke-width:0.8;" x="424.464" xlink:href="#m239710f35b" y="296.728"/>
      </g>
     </g>
     <g id="text_4">
      <!-- $\mathdefault{10^{1}}$ -->
      <g transform="translate(415.664 311.326437)scale(0.1 -0.1)">
       <use transform="translate(0 0.684375)" xlink:href="#DejaVuSans-49"/>
       <use transform="translate(63.623047 0.684375)" xlink:href="#DejaVuSans-48"/>
       <use transform="translate(128.203125 38.965625)scale(0.7)" xlink:href="#DejaVuSans-49"/>
      </g>
     </g>
    </g>
    <g id="xtick_5">
     <g id="line2d_5">
      <defs>
       <path d="M 0 0 
L 0 2 
" id="m4441ee218c" style="stroke:#000000;stroke-width:0.6;"/>
      </defs>
      <g>
       <use style="stroke:#000000;stroke-width:0.6;" x="86.149963" xlink:href="#m4441ee218c" y="296.728"/>
      </g>
     </g>
    </g>
    <g id="xtick_6">
     <g id="line2d_6">
      <g>
       <use style="stroke:#000000;stroke-width:0.6;" x="102.255566" xlink:href="#m4441ee218c" y="296.728"/>
      </g>
     </g>
    </g>
    <g id="xtick_7">
     <g id="line2d_7">
      <g>
       <use style="stroke:#000000;stroke-width:0.6;" x="113.682674" xlink:href="#m4441ee218c" y="296.728"/>
      </g>
     </g>
    </g>
    <g id="xtick_8">
     <g id="line2d_8">
      <g>
       <use style="stroke:#000000;stroke-width:0.6;" x="122.546227" xlink:href="#m4441ee218c" y="296.728"/>
      </g>
     </g>
    </g>
    <g id="xtick_9">
     <g id="line2d_9">
      <g>
       <use style="stroke:#000000;stroke-width:0.6;" x="129.788278" xlink:href="#m4441ee218c" y="296.728"/>
      </g>
     </g>
    </g>
    <g id="xtick_10">
     <g id="line2d_10">
      <g>
       <use style="stroke:#000000;stroke-width:0.6;" x="135.911344" xlink:href="#m4441ee218c" y="296.728"/>
      </g>
     </g>
    </g>
    <g id="xtick_11">
     <g id="line2d_11">
      <g>
       <use style="stroke:#000000;stroke-width:0.6;" x="141.215385" xlink:href="#m4441ee218c" y="296.728"/>
      </g>
     </g>
    </g>
    <g id="xtick_12">
     <g id="line2d_12">
      <g>
       <use style="stroke:#000000;stroke-width:0.6;" x="145.893881" xlink:href="#m4441ee218c" y="296.728"/>
      </g>
     </g>
    </g>
    <g id="xtick_13">
     <g id="line2d_13">
      <g>
       <use style="stroke:#000000;stroke-width:0.6;" x="177.61165" xlink:href="#m4441ee218c" y="296.728"/>
      </g>
     </g>
    </g>
    <g id="xtick_14">
     <g id="line2d_14">
      <g>
       <use style="stroke:#000000;stroke-width:0.6;" x="193.717254" xlink:href="#m4441ee218c" y="296.728"/>
      </g>
     </g>
    </g>
    <g id="xtick_15">
     <g id="line2d_15">
      <g>
       <use style="stroke:#000000;stroke-width:0.6;" x="205.144361" xlink:href="#m4441ee218c" y="296.728"/>
      </g>
     </g>
    </g>
    <g id="xtick_16">
     <g id="line2d_16">
      <g>
       <use style="stroke:#000000;stroke-width:0.6;" x="214.007915" xlink:href="#m4441ee218c" y="296.728"/>
      </g>
     </g>
    </g>
    <g id="xtick_17">
     <g id="line2d_17">
      <g>
       <use style="stroke:#000000;stroke-width:0.6;" x="221.249965" xlink:href="#m4441ee218c" y="296.728"/>
      </g>
     </g>
    </g>
    <g id="xtick_18">
     <g id="line2d_18">
      <g>
       <use style="stroke:#000000;stroke-width:0.6;" x="227.373031" xlink:href="#m4441ee218c" y="296.728"/>
      </g>
     </g>
    </g>
    <g id="xtick_19">
     <g id="line2d_19">
      <g>
       <use style="stroke:#000000;stroke-width:0.6;" x="232.677073" xlink:href="#m4441ee218c" y="296.728"/>
      </g>
     </g>
    </g>
    <g id="xtick_20">
     <g id="line2d_20">
      <g>
       <use style="stroke:#000000;stroke-width:0.6;" x="237.355569" xlink:href="#m4441ee218c" y="296.728"/>
      </g>
     </g>
    </g>
    <g id="xtick_21">
     <g id="line2d_21">
      <g>
       <use style="stroke:#000000;stroke-width:0.6;" x="269.073337" xlink:href="#m4441ee218c" y="296.728"/>
      </g>
     </g>
    </g>
    <g id="xtick_22">
     <g id="line2d_22">
      <g>
       <use style="stroke:#000000;stroke-width:0.6;" x="285.178941" xlink:href="#m4441ee218c" y="296.728"/>
      </g>
     </g>
    </g>
    <g id="xtick_23">
     <g id="line2d_23">
      <g>
       <use style="stroke:#000000;stroke-width:0.6;" x="296.606048" xlink:href="#m4441ee218c" y="296.728"/>
      </g>
     </g>
    </g>
    <g id="xtick_24">
     <g id="line2d_24">
      <g>
       <use style="stroke:#000000;stroke-width:0.6;" x="305.469602" xlink:href="#m4441ee218c" y="296.728"/>
      </g>
     </g>
    </g>
    <g id="xtick_25">
     <g id="line2d_25">
      <g>
       <use style="stroke:#000000;stroke-width:0.6;" x="312.711652" xlink:href="#m4441ee218c" y="296.728"/>
      </g>
     </g>
    </g>
    <g id="xtick_26">
     <g id="line2d_26">
      <g>
       <use style="stroke:#000000;stroke-width:0.6;" x="318.834718" xlink:href="#m4441ee218c" y="296.728"/>
      </g>
     </g>
    </g>
    <g id="xtick_27">
     <g id="line2d_27">
      <g>
       <use style="stroke:#000000;stroke-width:0.6;" x="324.13876" xlink:href="#m4441ee218c" y="296.728"/>
      </g>
     </g>
    </g>
    <g id="xtick_28">
     <g id="line2d_28">
      <g>
       <use style="stroke:#000000;stroke-width:0.6;" x="328.817256" xlink:href="#m4441ee218c" y="296.728"/>
      </g>
     </g>
    </g>
    <g id="xtick_29">
     <g id="line2d_29">
      <g>
       <use style="stroke:#000000;stroke-width:0.6;" x="360.535024" xlink:href="#m4441ee218c" y="296.728"/>
      </g>
     </g>
    </g>
    <g id="xtick_30">
     <g id="line2d_30">
      <g>
       <use style="stroke:#000000;stroke-width:0.6;" x="376.640628" xlink:href="#m4441ee218c" y="296.728"/>
      </g>
     </g>
    </g>
    <g id="xtick_31">
     <g id="line2d_31">
      <g>
       <use style="stroke:#000000;stroke-width:0.6;" x="388.067736" xlink:href="#m4441ee218c" y="296.728"/>
      </g>
     </g>
    </g>
    <g id="xtick_32">
     <g id="line2d_32">
      <g>
       <use style="stroke:#000000;stroke-width:0.6;" x="396.931289" xlink:href="#m4441ee218c" y="296.728"/>
      </g>
     </g>
    </g>
    <g id="xtick_33">
     <g id="line2d_33">
      <g>
       <use style="stroke:#000000;stroke-width:0.6;" x="404.173339" xlink:href="#m4441ee218c" y="296.728"/>
      </g>
     </g>
    </g>
    <g id="xtick_34">
     <g id="line2d_34">
      <g>
       <use style="stroke:#000000;stroke-width:0.6;" x="410.296406" xlink:href="#m4441ee218c" y="296.728"/>
      </g>
     </g>
    </g>
    <g id="xtick_35">
     <g id="line2d_35">
      <g>
       <use style="stroke:#000000;stroke-width:0.6;" x="415.600447" xlink:href="#m4441ee218c" y="296.728"/>
      </g>
     </g>
    </g>
    <g id="xtick_36">
     <g id="line2d_36">
      <g>
       <use style="stroke:#000000;stroke-width:0.6;" x="420.278943" xlink:href="#m4441ee218c" y="296.728"/>
      </g>
     </g>
    </g>
    <g id="text_5">
     <!-- Time [sec] -->
     <g transform="translate(226.824044 328.043937)scale(0.14 -0.14)">
      <defs>
       <path d="M -0.296875 72.90625 
L 61.375 72.90625 
L 61.375 64.59375 
L 35.5 64.59375 
L 35.5 0 
L 25.59375 0 
L 25.59375 64.59375 
L -0.296875 64.59375 
z
" id="DejaVuSans-84"/>
       <path d="M 9.421875 54.6875 
L 18.40625 54.6875 
L 18.40625 0 
L 9.421875 0 
z
M 9.421875 75.984375 
L 18.40625 75.984375 
L 18.40625 64.59375 
L 9.421875 64.59375 
z
" id="DejaVuSans-105"/>
       <path d="M 52 44.1875 
Q 55.375 50.25 60.0625 53.125 
Q 64.75 56 71.09375 56 
Q 79.640625 56 84.28125 50.015625 
Q 88.921875 44.046875 88.921875 33.015625 
L 88.921875 0 
L 79.890625 0 
L 79.890625 32.71875 
Q 79.890625 40.578125 77.09375 44.375 
Q 74.3125 48.1875 68.609375 48.1875 
Q 61.625 48.1875 57.5625 43.546875 
Q 53.515625 38.921875 53.515625 30.90625 
L 53.515625 0 
L 44.484375 0 
L 44.484375 32.71875 
Q 44.484375 40.625 41.703125 44.40625 
Q 38.921875 48.1875 33.109375 48.1875 
Q 26.21875 48.1875 22.15625 43.53125 
Q 18.109375 38.875 18.109375 30.90625 
L 18.109375 0 
L 9.078125 0 
L 9.078125 54.6875 
L 18.109375 54.6875 
L 18.109375 46.1875 
Q 21.1875 51.21875 25.484375 53.609375 
Q 29.78125 56 35.6875 56 
Q 41.65625 56 45.828125 52.96875 
Q 50 49.953125 52 44.1875 
z
" id="DejaVuSans-109"/>
       <path d="M 56.203125 29.59375 
L 56.203125 25.203125 
L 14.890625 25.203125 
Q 15.484375 15.921875 20.484375 11.0625 
Q 25.484375 6.203125 34.421875 6.203125 
Q 39.59375 6.203125 44.453125 7.46875 
Q 49.3125 8.734375 54.109375 11.28125 
L 54.109375 2.78125 
Q 49.265625 0.734375 44.1875 -0.34375 
Q 39.109375 -1.421875 33.890625 -1.421875 
Q 20.796875 -1.421875 13.15625 6.1875 
Q 5.515625 13.8125 5.515625 26.8125 
Q 5.515625 40.234375 12.765625 48.109375 
Q 20.015625 56 32.328125 56 
Q 43.359375 56 49.78125 48.890625 
Q 56.203125 41.796875 56.203125 29.59375 
z
M 47.21875 32.234375 
Q 47.125 39.59375 43.09375 43.984375 
Q 39.0625 48.390625 32.421875 48.390625 
Q 24.90625 48.390625 20.390625 44.140625 
Q 15.875 39.890625 15.1875 32.171875 
z
" id="DejaVuSans-101"/>
       <path id="DejaVuSans-32"/>
       <path d="M 8.59375 75.984375 
L 29.296875 75.984375 
L 29.296875 69 
L 17.578125 69 
L 17.578125 -6.203125 
L 29.296875 -6.203125 
L 29.296875 -13.1875 
L 8.59375 -13.1875 
z
" id="DejaVuSans-91"/>
       <path d="M 44.28125 53.078125 
L 44.28125 44.578125 
Q 40.484375 46.53125 36.375 47.5 
Q 32.28125 48.484375 27.875 48.484375 
Q 21.1875 48.484375 17.84375 46.4375 
Q 14.5 44.390625 14.5 40.28125 
Q 14.5 37.15625 16.890625 35.375 
Q 19.28125 33.59375 26.515625 31.984375 
L 29.59375 31.296875 
Q 39.15625 29.25 43.1875 25.515625 
Q 47.21875 21.78125 47.21875 15.09375 
Q 47.21875 7.46875 41.1875 3.015625 
Q 35.15625 -1.421875 24.609375 -1.421875 
Q 20.21875 -1.421875 15.453125 -0.5625 
Q 10.6875 0.296875 5.421875 2 
L 5.421875 11.28125 
Q 10.40625 8.6875 15.234375 7.390625 
Q 20.0625 6.109375 24.8125 6.109375 
Q 31.15625 6.109375 34.5625 8.28125 
Q 37.984375 10.453125 37.984375 14.40625 
Q 37.984375 18.0625 35.515625 20.015625 
Q 33.0625 21.96875 24.703125 23.78125 
L 21.578125 24.515625 
Q 13.234375 26.265625 9.515625 29.90625 
Q 5.8125 33.546875 5.8125 39.890625 
Q 5.8125 47.609375 11.28125 51.796875 
Q 16.75 56 26.8125 56 
Q 31.78125 56 36.171875 55.265625 
Q 40.578125 54.546875 44.28125 53.078125 
z
" id="DejaVuSans-115"/>
       <path d="M 48.78125 52.59375 
L 48.78125 44.1875 
Q 44.96875 46.296875 41.140625 47.34375 
Q 37.3125 48.390625 33.40625 48.390625 
Q 24.65625 48.390625 19.8125 42.84375 
Q 14.984375 37.3125 14.984375 27.296875 
Q 14.984375 17.28125 19.8125 11.734375 
Q 24.65625 6.203125 33.40625 6.203125 
Q 37.3125 6.203125 41.140625 7.25 
Q 44.96875 8.296875 48.78125 10.40625 
L 48.78125 2.09375 
Q 45.015625 0.34375 40.984375 -0.53125 
Q 36.96875 -1.421875 32.421875 -1.421875 
Q 20.0625 -1.421875 12.78125 6.34375 
Q 5.515625 14.109375 5.515625 27.296875 
Q 5.515625 40.671875 12.859375 48.328125 
Q 20.21875 56 33.015625 56 
Q 37.15625 56 41.109375 55.140625 
Q 45.0625 54.296875 48.78125 52.59375 
z
" id="DejaVuSans-99"/>
       <path d="M 30.421875 75.984375 
L 30.421875 -13.1875 
L 9.71875 -13.1875 
L 9.71875 -6.203125 
L 21.390625 -6.203125 
L 21.390625 69 
L 9.71875 69 
L 9.71875 75.984375 
z
" id="DejaVuSans-93"/>
      </defs>
      <use xlink:href="#DejaVuSans-84"/>
      <use x="57.958984" xlink:href="#DejaVuSans-105"/>
      <use x="85.742188" xlink:href="#DejaVuSans-109"/>
      <use x="183.154297" xlink:href="#DejaVuSans-101"/>
      <use x="244.677734" xlink:href="#DejaVuSans-32"/>
      <use x="276.464844" xlink:href="#DejaVuSans-91"/>
      <use x="315.478516" xlink:href="#DejaVuSans-115"/>
      <use x="367.578125" xlink:href="#DejaVuSans-101"/>
      <use x="429.101562" xlink:href="#DejaVuSans-99"/>
      <use x="484.082031" xlink:href="#DejaVuSans-93"/>
     </g>
    </g>
   </g>
   <g id="matplotlib.axis_2">
    <g id="ytick_1">
     <g id="line2d_37">
      <defs>
       <path d="M 0 0 
L -3.5 0 
" id="md6f7e0238f" style="stroke:#000000;stroke-width:0.8;"/>
      </defs>
      <g>
       <use style="stroke:#000000;stroke-width:0.8;" x="76.881214" xlink:href="#md6f7e0238f" y="271.138986"/>
      </g>
     </g>
     <g id="text_6">
      <!-- $\mathdefault{10^{-14}}$ -->
      <g transform="translate(41.981214 274.938204)scale(0.1 -0.1)">
       <defs>
        <path d="M 37.796875 64.3125 
L 12.890625 25.390625 
L 37.796875 25.390625 
z
M 35.203125 72.90625 
L 47.609375 72.90625 
L 47.609375 25.390625 
L 58.015625 25.390625 
L 58.015625 17.1875 
L 47.609375 17.1875 
L 47.609375 0 
L 37.796875 0 
L 37.796875 17.1875 
L 4.890625 17.1875 
L 4.890625 26.703125 
z
" id="DejaVuSans-52"/>
       </defs>
       <use transform="translate(0 0.684375)" xlink:href="#DejaVuSans-49"/>
       <use transform="translate(63.623047 0.684375)" xlink:href="#DejaVuSans-48"/>
       <use transform="translate(128.203125 38.965625)scale(0.7)" xlink:href="#DejaVuSans-8722"/>
       <use transform="translate(186.855469 38.965625)scale(0.7)" xlink:href="#DejaVuSans-49"/>
       <use transform="translate(231.391602 38.965625)scale(0.7)" xlink:href="#DejaVuSans-52"/>
      </g>
     </g>
    </g>
    <g id="ytick_2">
     <g id="line2d_38">
      <g>
       <use style="stroke:#000000;stroke-width:0.8;" x="76.881214" xlink:href="#md6f7e0238f" y="240.301574"/>
      </g>
     </g>
     <g id="text_7">
      <!-- $\mathdefault{10^{-12}}$ -->
      <g transform="translate(41.981214 244.100793)scale(0.1 -0.1)">
       <use transform="translate(0 0.765625)" xlink:href="#DejaVuSans-49"/>
       <use transform="translate(63.623047 0.765625)" xlink:href="#DejaVuSans-48"/>
       <use transform="translate(128.203125 39.046875)scale(0.7)" xlink:href="#DejaVuSans-8722"/>
       <use transform="translate(186.855469 39.046875)scale(0.7)" xlink:href="#DejaVuSans-49"/>
       <use transform="translate(231.391602 39.046875)scale(0.7)" xlink:href="#DejaVuSans-50"/>
      </g>
     </g>
    </g>
    <g id="ytick_3">
     <g id="line2d_39">
      <g>
       <use style="stroke:#000000;stroke-width:0.8;" x="76.881214" xlink:href="#md6f7e0238f" y="209.464163"/>
      </g>
     </g>
     <g id="text_8">
      <!-- $\mathdefault{10^{-10}}$ -->
      <g transform="translate(41.981214 213.263382)scale(0.1 -0.1)">
       <use transform="translate(0 0.765625)" xlink:href="#DejaVuSans-49"/>
       <use transform="translate(63.623047 0.765625)" xlink:href="#DejaVuSans-48"/>
       <use transform="translate(128.203125 39.046875)scale(0.7)" xlink:href="#DejaVuSans-8722"/>
       <use transform="translate(186.855469 39.046875)scale(0.7)" xlink:href="#DejaVuSans-49"/>
       <use transform="translate(231.391602 39.046875)scale(0.7)" xlink:href="#DejaVuSans-48"/>
      </g>
     </g>
    </g>
    <g id="ytick_4">
     <g id="line2d_40">
      <g>
       <use style="stroke:#000000;stroke-width:0.8;" x="76.881214" xlink:href="#md6f7e0238f" y="178.626751"/>
      </g>
     </g>
     <g id="text_9">
      <!-- $\mathdefault{10^{-8}}$ -->
      <g transform="translate(46.381214 182.42597)scale(0.1 -0.1)">
       <defs>
        <path d="M 31.78125 34.625 
Q 24.75 34.625 20.71875 30.859375 
Q 16.703125 27.09375 16.703125 20.515625 
Q 16.703125 13.921875 20.71875 10.15625 
Q 24.75 6.390625 31.78125 6.390625 
Q 38.8125 6.390625 42.859375 10.171875 
Q 46.921875 13.96875 46.921875 20.515625 
Q 46.921875 27.09375 42.890625 30.859375 
Q 38.875 34.625 31.78125 34.625 
z
M 21.921875 38.8125 
Q 15.578125 40.375 12.03125 44.71875 
Q 8.5 49.078125 8.5 55.328125 
Q 8.5 64.0625 14.71875 69.140625 
Q 20.953125 74.21875 31.78125 74.21875 
Q 42.671875 74.21875 48.875 69.140625 
Q 55.078125 64.0625 55.078125 55.328125 
Q 55.078125 49.078125 51.53125 44.71875 
Q 48 40.375 41.703125 38.8125 
Q 48.828125 37.15625 52.796875 32.3125 
Q 56.78125 27.484375 56.78125 20.515625 
Q 56.78125 9.90625 50.3125 4.234375 
Q 43.84375 -1.421875 31.78125 -1.421875 
Q 19.734375 -1.421875 13.25 4.234375 
Q 6.78125 9.90625 6.78125 20.515625 
Q 6.78125 27.484375 10.78125 32.3125 
Q 14.796875 37.15625 21.921875 38.8125 
z
M 18.3125 54.390625 
Q 18.3125 48.734375 21.84375 45.5625 
Q 25.390625 42.390625 31.78125 42.390625 
Q 38.140625 42.390625 41.71875 45.5625 
Q 45.3125 48.734375 45.3125 54.390625 
Q 45.3125 60.0625 41.71875 63.234375 
Q 38.140625 66.40625 31.78125 66.40625 
Q 25.390625 66.40625 21.84375 63.234375 
Q 18.3125 60.0625 18.3125 54.390625 
z
" id="DejaVuSans-56"/>
       </defs>
       <use transform="translate(0 0.765625)" xlink:href="#DejaVuSans-49"/>
       <use transform="translate(63.623047 0.765625)" xlink:href="#DejaVuSans-48"/>
       <use transform="translate(128.203125 39.046875)scale(0.7)" xlink:href="#DejaVuSans-8722"/>
       <use transform="translate(186.855469 39.046875)scale(0.7)" xlink:href="#DejaVuSans-56"/>
      </g>
     </g>
    </g>
    <g id="ytick_5">
     <g id="line2d_41">
      <g>
       <use style="stroke:#000000;stroke-width:0.8;" x="76.881214" xlink:href="#md6f7e0238f" y="147.78934"/>
      </g>
     </g>
     <g id="text_10">
      <!-- $\mathdefault{10^{-6}}$ -->
      <g transform="translate(46.381214 151.588559)scale(0.1 -0.1)">
       <defs>
        <path d="M 33.015625 40.375 
Q 26.375 40.375 22.484375 35.828125 
Q 18.609375 31.296875 18.609375 23.390625 
Q 18.609375 15.53125 22.484375 10.953125 
Q 26.375 6.390625 33.015625 6.390625 
Q 39.65625 6.390625 43.53125 10.953125 
Q 47.40625 15.53125 47.40625 23.390625 
Q 47.40625 31.296875 43.53125 35.828125 
Q 39.65625 40.375 33.015625 40.375 
z
M 52.59375 71.296875 
L 52.59375 62.3125 
Q 48.875 64.0625 45.09375 64.984375 
Q 41.3125 65.921875 37.59375 65.921875 
Q 27.828125 65.921875 22.671875 59.328125 
Q 17.53125 52.734375 16.796875 39.40625 
Q 19.671875 43.65625 24.015625 45.921875 
Q 28.375 48.1875 33.59375 48.1875 
Q 44.578125 48.1875 50.953125 41.515625 
Q 57.328125 34.859375 57.328125 23.390625 
Q 57.328125 12.15625 50.6875 5.359375 
Q 44.046875 -1.421875 33.015625 -1.421875 
Q 20.359375 -1.421875 13.671875 8.265625 
Q 6.984375 17.96875 6.984375 36.375 
Q 6.984375 53.65625 15.1875 63.9375 
Q 23.390625 74.21875 37.203125 74.21875 
Q 40.921875 74.21875 44.703125 73.484375 
Q 48.484375 72.75 52.59375 71.296875 
z
" id="DejaVuSans-54"/>
       </defs>
       <use transform="translate(0 0.765625)" xlink:href="#DejaVuSans-49"/>
       <use transform="translate(63.623047 0.765625)" xlink:href="#DejaVuSans-48"/>
       <use transform="translate(128.203125 39.046875)scale(0.7)" xlink:href="#DejaVuSans-8722"/>
       <use transform="translate(186.855469 39.046875)scale(0.7)" xlink:href="#DejaVuSans-54"/>
      </g>
     </g>
    </g>
    <g id="ytick_6">
     <g id="line2d_42">
      <g>
       <use style="stroke:#000000;stroke-width:0.8;" x="76.881214" xlink:href="#md6f7e0238f" y="116.951929"/>
      </g>
     </g>
     <g id="text_11">
      <!-- $\mathdefault{10^{-4}}$ -->
      <g transform="translate(46.381214 120.751147)scale(0.1 -0.1)">
       <use transform="translate(0 0.684375)" xlink:href="#DejaVuSans-49"/>
       <use transform="translate(63.623047 0.684375)" xlink:href="#DejaVuSans-48"/>
       <use transform="translate(128.203125 38.965625)scale(0.7)" xlink:href="#DejaVuSans-8722"/>
       <use transform="translate(186.855469 38.965625)scale(0.7)" xlink:href="#DejaVuSans-52"/>
      </g>
     </g>
    </g>
    <g id="ytick_7">
     <g id="line2d_43">
      <g>
       <use style="stroke:#000000;stroke-width:0.8;" x="76.881214" xlink:href="#md6f7e0238f" y="86.114517"/>
      </g>
     </g>
     <g id="text_12">
      <!-- $\mathdefault{10^{-2}}$ -->
      <g transform="translate(46.381214 89.913736)scale(0.1 -0.1)">
       <use transform="translate(0 0.765625)" xlink:href="#DejaVuSans-49"/>
       <use transform="translate(63.623047 0.765625)" xlink:href="#DejaVuSans-48"/>
       <use transform="translate(128.203125 39.046875)scale(0.7)" xlink:href="#DejaVuSans-8722"/>
       <use transform="translate(186.855469 39.046875)scale(0.7)" xlink:href="#DejaVuSans-50"/>
      </g>
     </g>
    </g>
    <g id="ytick_8">
     <g id="line2d_44">
      <g>
       <use style="stroke:#000000;stroke-width:0.8;" x="76.881214" xlink:href="#md6f7e0238f" y="55.277106"/>
      </g>
     </g>
     <g id="text_13">
      <!-- $\mathdefault{10^{0}}$ -->
      <g transform="translate(52.281214 59.076325)scale(0.1 -0.1)">
       <use transform="translate(0 0.765625)" xlink:href="#DejaVuSans-49"/>
       <use transform="translate(63.623047 0.765625)" xlink:href="#DejaVuSans-48"/>
       <use transform="translate(128.203125 39.046875)scale(0.7)" xlink:href="#DejaVuSans-48"/>
      </g>
     </g>
    </g>
    <g id="text_14">
     <!-- $\frac{F(x) - F(x*)}{F(x^0) - F(x*)}$ -->
     <g transform="translate(29.581214 202.984)rotate(-90)scale(0.14 -0.14)">
      <defs>
       <path d="M 16.890625 72.90625 
L 58.6875 72.90625 
L 57.078125 64.59375 
L 25.09375 64.59375 
L 20.90625 43.109375 
L 49.8125 43.109375 
L 48.1875 34.8125 
L 19.28125 34.8125 
L 12.5 0 
L 2.6875 0 
z
" id="DejaVuSans-Oblique-70"/>
       <path d="M 31 75.875 
Q 24.46875 64.65625 21.28125 53.65625 
Q 18.109375 42.671875 18.109375 31.390625 
Q 18.109375 20.125 21.3125 9.0625 
Q 24.515625 -2 31 -13.1875 
L 23.1875 -13.1875 
Q 15.875 -1.703125 12.234375 9.375 
Q 8.59375 20.453125 8.59375 31.390625 
Q 8.59375 42.28125 12.203125 53.3125 
Q 15.828125 64.359375 23.1875 75.875 
z
" id="DejaVuSans-40"/>
       <path d="M 60.015625 54.6875 
L 34.90625 27.875 
L 50.296875 0 
L 39.984375 0 
L 28.421875 21.6875 
L 8.296875 0 
L -2.59375 0 
L 24.3125 28.8125 
L 10.015625 54.6875 
L 20.3125 54.6875 
L 30.8125 34.90625 
L 49.125 54.6875 
z
" id="DejaVuSans-Oblique-120"/>
       <path d="M 8.015625 75.875 
L 15.828125 75.875 
Q 23.140625 64.359375 26.78125 53.3125 
Q 30.421875 42.28125 30.421875 31.390625 
Q 30.421875 20.453125 26.78125 9.375 
Q 23.140625 -1.703125 15.828125 -13.1875 
L 8.015625 -13.1875 
Q 14.5 -2 17.703125 9.0625 
Q 20.90625 20.125 20.90625 31.390625 
Q 20.90625 42.671875 17.703125 53.65625 
Q 14.5 64.65625 8.015625 75.875 
z
" id="DejaVuSans-41"/>
       <path d="M 47.015625 60.890625 
L 29.5 51.421875 
L 47.015625 41.890625 
L 44.1875 37.109375 
L 27.78125 47.015625 
L 27.78125 28.609375 
L 22.21875 28.609375 
L 22.21875 47.015625 
L 5.8125 37.109375 
L 2.984375 41.890625 
L 20.515625 51.421875 
L 2.984375 60.890625 
L 5.8125 65.71875 
L 22.21875 55.8125 
L 22.21875 74.21875 
L 27.78125 74.21875 
L 27.78125 55.8125 
L 44.1875 65.71875 
z
" id="DejaVuSans-42"/>
      </defs>
      <use transform="translate(18 53.8875)scale(0.7)" xlink:href="#DejaVuSans-Oblique-70"/>
      <use transform="translate(58.263672 53.8875)scale(0.7)" xlink:href="#DejaVuSans-40"/>
      <use transform="translate(85.573242 53.8875)scale(0.7)" xlink:href="#DejaVuSans-Oblique-120"/>
      <use transform="translate(126.999023 53.8875)scale(0.7)" xlink:href="#DejaVuSans-41"/>
      <use transform="translate(167.946289 53.8875)scale(0.7)" xlink:href="#DejaVuSans-8722"/>
      <use transform="translate(240.236328 53.8875)scale(0.7)" xlink:href="#DejaVuSans-Oblique-70"/>
      <use transform="translate(280.5 53.8875)scale(0.7)" xlink:href="#DejaVuSans-40"/>
      <use transform="translate(307.80957 53.8875)scale(0.7)" xlink:href="#DejaVuSans-Oblique-120"/>
      <use transform="translate(362.873047 53.8875)scale(0.7)" xlink:href="#DejaVuSans-42"/>
      <use transform="translate(411.510742 53.8875)scale(0.7)" xlink:href="#DejaVuSans-41"/>
      <use transform="translate(0 -49.757812)scale(0.7)" xlink:href="#DejaVuSans-Oblique-70"/>
      <use transform="translate(40.263672 -49.757812)scale(0.7)" xlink:href="#DejaVuSans-40"/>
      <use transform="translate(67.573242 -49.757812)scale(0.7)" xlink:href="#DejaVuSans-Oblique-120"/>
      <use transform="translate(112.125326 -22.960938)scale(0.49)" xlink:href="#DejaVuSans-48"/>
      <use transform="translate(145.214681 -49.757812)scale(0.7)" xlink:href="#DejaVuSans-41"/>
      <use transform="translate(186.161947 -49.757812)scale(0.7)" xlink:href="#DejaVuSans-8722"/>
      <use transform="translate(258.451986 -49.757812)scale(0.7)" xlink:href="#DejaVuSans-Oblique-70"/>
      <use transform="translate(298.715658 -49.757812)scale(0.7)" xlink:href="#DejaVuSans-40"/>
      <use transform="translate(326.025228 -49.757812)scale(0.7)" xlink:href="#DejaVuSans-Oblique-120"/>
      <use transform="translate(381.088704 -49.757812)scale(0.7)" xlink:href="#DejaVuSans-42"/>
      <use transform="translate(429.7264 -49.757812)scale(0.7)" xlink:href="#DejaVuSans-41"/>
      <path d="M 0 19.65625 
L 0 25.90625 
L 457.03597 25.90625 
L 457.03597 19.65625 
L 0 19.65625 
z
"/>
     </g>
    </g>
   </g>
   <g id="LineCollection_1">
    <path clip-path="url(#p38aa19b849)" d="M 76.881214 209.464163 
L 450 209.464163 
" style="fill:none;stroke:#000000;stroke-dasharray:5.55,2.4;stroke-dashoffset:0;stroke-width:1.5;"/>
   </g>
   <g id="line2d_45">
    <path clip-path="url(#p38aa19b849)" d="M 148.551972 284.320748 
L 147.914261 284.320748 
L 149.464662 284.320748 
L 148.083672 284.320748 
L 146.903547 284.320748 
L 147.051615 284.320748 
L 147.82474 280.111422 
L 148.242563 284.320748 
L 146.923954 280.573416 
L 146.023563 280.111422 
L 145.389386 279.273297 
L 146.640129 280.111422 
L 145.008041 277.249146 
L 145.562129 277.249146 
L 145.884956 250.232251 
L 144.069984 243.417228 
L 144.548884 244.975991 
L 144.073084 239.200335 
L 144.504332 238.545185 
L 144.040973 233.221549 
L 144.402551 235.352323 
L 143.757371 234.27534 
L 143.914372 230.38053 
L 141.832048 202.145356 
L 143.133746 196.627242 
L 142.067152 192.075068 
L 142.818469 187.011287 
L 141.364947 188.960397 
L 141.273029 190.912321 
L 141.436473 188.130968 
L 143.327253 194.544298 
L 145.637249 186.173994 
L 143.312198 188.021829 
L 141.343954 193.398467 
L 140.26054 186.434023 
L 140.847406 145.890163 
L 138.890121 141.076138 
L 138.586969 132.438293 
L 137.264407 131.878872 
L 137.134774 132.956037 
L 132.457196 121.401093 
L 131.089201 121.100179 
L 132.759575 121.40175 
L 132.229582 121.45997 
L 134.858372 121.061573 
L 132.061672 102.376005 
L 126.171933 82.923824 
L 94.522671 85.793225 
L 95.198156 74.62898 
L 95.126418 82.362862 
L 94.620482 74.71249 
" style="fill:none;stroke:#1f77b4;stroke-linecap:square;stroke-width:3;"/>
   </g>
   <g id="line2d_46">
    <path clip-path="url(#p38aa19b849)" d="M 134.5355 70.313861 
L 125.639828 82.488816 
L 139.651912 89.518602 
L 147.444085 95.842195 
L 150.142962 111.856778 
L 168.883793 132.084949 
L 172.95264 158.736054 
L 182.129983 184.699238 
L 195.524209 212.319279 
L 210.153214 251.498606 
L 225.264502 284.320748 
L 240.525674 285.214909 
L 254.738411 285.214909 
L 274.566872 285.214909 
L 298.425713 285.214909 
L 328.047852 284.320748 
" style="fill:none;stroke:#ff7f0e;stroke-linecap:square;stroke-width:3;"/>
   </g>
   <g id="line2d_47">
    <path clip-path="url(#p38aa19b849)" d="M 125.86658 74.789625 
L 140.616952 88.681601 
L 149.015263 120.995592 
L 156.937157 160.242586 
L 160.866741 241.399312 
L 165.972714 285.214909 
L 168.135578 284.320748 
L 163.375906 284.320748 
L 164.23164 284.320748 
L 165.77148 284.320748 
L 163.709783 284.320748 
" style="fill:none;stroke:#2ca02c;stroke-linecap:square;stroke-width:3;"/>
   </g>
   <g id="line2d_48">
    <path clip-path="url(#p38aa19b849)" d="M 295.555228 58.263022 
L 309.078269 58.263022 
L 320.391994 58.263022 
L 341.059253 58.263022 
L 373.336347 54.953091 
L 389.944375 134.329855 
L 388.672261 134.329855 
L 388.530859 134.329855 
L 388.516066 134.329855 
" style="fill:none;stroke:#d62728;stroke-linecap:square;stroke-width:3;"/>
   </g>
   <g id="line2d_49">
    <path clip-path="url(#p38aa19b849)" d="M 126.406433 65.742265 
L 131.798419 67.320571 
L 142.231685 71.70981 
L 141.730077 72.236155 
L 149.140308 73.299561 
L 156.73174 75.674066 
L 171.625109 76.342782 
L 181.86143 76.342782 
L 199.312935 90.800996 
L 217.685336 106.685781 
L 241.582227 136.002658 
L 259.092267 206.466974 
L 277.603786 265.398238 
L 297.467151 274.437696 
L 319.767619 282.1883 
L 343.578402 284.320748 
L 368.39956 284.320748 
L 395.006705 285.214909 
L 404.83218 285.214909 
L 408.907411 285.214909 
" style="fill:none;stroke:#9467bd;stroke-linecap:square;stroke-width:3;"/>
   </g>
   <g id="line2d_50">
    <path clip-path="url(#p38aa19b849)" d="M 194.521415 65.742265 
L 217.110777 65.788467 
L 206.216336 65.788467 
L 203.221209 65.834016 
L 204.111074 65.878911 
L 216.091828 65.966743 
L 211.708016 66.134597 
L 225.116899 66.403514 
L 223.307237 66.772193 
L 234.738431 67.688319 
L 234.690722 69.114275 
L 246.115095 71.87945 
L 256.603936 77.661579 
L 266.346066 99.140813 
L 267.578988 262.097733 
L 265.88953 262.097733 
L 266.005438 262.097733 
L 265.410172 262.097733 
L 265.779825 262.097733 
L 264.27703 262.097733 
" style="fill:none;stroke:#8c564b;stroke-linecap:square;stroke-width:3;"/>
   </g>
   <g id="line2d_51">
    <path clip-path="url(#p38aa19b849)" d="M 235.548929 66.796071 
L 232.038667 67.627544 
L 232.838822 68.310458 
L 233.431269 68.890917 
L 236.373569 69.843996 
L 237.12961 70.93766 
L 241.075595 72.076944 
L 246.658004 73.455337 
L 251.061462 75.107542 
L 256.592216 77.178983 
L 264.757108 79.668729 
L 269.513015 82.985035 
L 272.489351 87.522829 
L 277.345067 93.082954 
L 285.033639 99.181763 
L 291.422595 105.9503 
L 301.520098 113.588444 
L 313.793568 125.459505 
L 326.477633 137.518983 
L 339.317655 150.51963 
L 353.883806 166.94715 
L 369.357838 190.509572 
L 398.79934 225.527856 
L 401.036653 275.696943 
" style="fill:none;stroke:#e377c2;stroke-linecap:square;stroke-width:3;"/>
   </g>
   <g id="line2d_52">
    <path clip-path="url(#p38aa19b849)" d="M 200.623843 67.908863 
L 202.772271 70.011695 
L 203.416421 70.348041 
L 204.734886 71.43849 
L 210.194523 73.064089 
L 217.175725 75.559615 
L 225.38499 78.596572 
L 236.16162 84.804323 
L 247.758021 96.638854 
L 266.536977 108.432128 
L 266.674564 120.733397 
L 279.435496 141.48245 
L 291.255975 166.695548 
L 305.032959 217.001056 
L 322.106927 270.39627 
L 320.682943 270.39627 
L 319.89206 270.39627 
L 318.223802 270.39627 
L 318.706344 270.39627 
L 318.246061 270.39627 
" style="fill:none;stroke:#7f7f7f;stroke-linecap:square;stroke-width:3;"/>
   </g>
   <g id="line2d_53">
    <path clip-path="url(#p38aa19b849)" d="M 141.687879 55.523995 
L 168.125979 62.189951 
L 169.354419 65.026519 
L 170.147558 66.756542 
L 171.504841 66.699204 
L 171.082858 67.027581 
L 169.814569 67.029432 
L 171.392717 67.03844 
L 172.36279 67.10607 
L 175.324941 67.011038 
L 176.789404 66.857245 
L 180.873023 67.085263 
L 185.132732 66.917491 
L 192.783182 67.087942 
L 199.97166 67.026804 
L 204.952925 67.024026 
L 212.122169 66.895265 
L 223.616558 67.167383 
L 235.5966 67.194217 
L 247.826966 66.86855 
L 259.795771 67.050973 
L 273.842256 67.154757 
L 284.918632 66.882678 
L 295.609353 66.919875 
L 310.849816 67.124446 
L 323.038613 66.855072 
L 338.817589 67.0659 
L 351.356254 67.183142 
L 365.05837 67.034476 
L 383.129709 67.079325 
L 396.599098 67.010178 
L 411.597985 67.13376 
" style="fill:none;stroke:#bcbd22;stroke-linecap:square;stroke-width:3;"/>
   </g>
   <g id="line2d_54">
    <path clip-path="url(#p38aa19b849)" d="M 214.129665 66.796071 
L 215.969707 67.627544 
L 216.180627 68.310458 
L 215.915252 68.890917 
L 218.515897 69.843996 
L 217.90826 70.93766 
L 219.373914 72.076944 
L 221.369916 73.455337 
L 224.422987 75.107542 
L 227.493651 77.178983 
L 233.050086 79.668729 
L 240.741069 82.985035 
L 247.545937 87.522829 
L 255.957391 93.082954 
L 266.513037 99.181763 
L 278.577686 105.9503 
L 296.238946 113.588444 
L 309.648414 125.459505 
L 323.133763 137.518983 
L 337.879216 150.51963 
L 353.695398 166.94715 
L 379.875041 190.509572 
L 393.62635 225.527856 
L 405.292446 275.696943 
" style="fill:none;stroke:#17becf;stroke-linecap:square;stroke-width:3;"/>
   </g>
   <g id="line2d_55">
    <path clip-path="url(#p38aa19b849)" d="M 229.396395 66.796071 
L 231.98199 67.627544 
L 231.633962 68.496931 
L 230.338922 69.356948 
L 232.094316 70.941802 
L 233.574321 73.040259 
L 234.242162 75.650699 
L 235.133649 79.424794 
L 239.259216 86.187383 
L 242.749126 97.28845 
L 248.298799 108.500205 
L 253.773889 120.429401 
L 260.87864 130.684998 
L 268.445735 138.593095 
L 278.202065 150.469629 
L 290.140682 158.555406 
L 303.465559 177.756824 
L 315.544577 185.808891 
L 328.848895 206.711125 
L 349.990712 219.2529 
L 365.944091 234.477519 
L 379.98813 254.435142 
L 393.169009 282.1883 
L 411.859539 284.320748 
" style="fill:none;stroke:#1f77b4;stroke-linecap:square;stroke-width:3;"/>
   </g>
   <g id="line2d_56">
    <path clip-path="url(#p38aa19b849)" d="M 252.227745 66.796071 
L 264.307522 67.627544 
L 272.939069 68.310458 
L 281.109624 68.890917 
L 292.436361 69.843996 
L 301.252589 70.93766 
L 310.859625 72.076944 
L 323.9206 73.455337 
L 337.69569 75.107542 
L 353.408528 77.178983 
L 367.299368 79.668729 
L 381.789525 82.985035 
L 397.794081 87.522829 
L 413.488724 93.082954 
" style="fill:none;stroke:#ff7f0e;stroke-linecap:square;stroke-width:3;"/>
   </g>
   <g id="line2d_57">
    <path clip-path="url(#p38aa19b849)" d="M 150.798164 70.313861 
L 158.425269 82.488816 
L 159.325381 89.518602 
L 154.997781 95.842195 
L 165.94113 111.856778 
L 172.432643 132.084949 
L 176.710319 158.736054 
L 179.323741 184.699238 
L 191.85005 212.319279 
L 207.921977 251.492385 
L 216.727305 284.320748 
L 229.735303 285.214909 
L 243.141755 284.320748 
L 257.534317 285.214909 
L 273.190148 284.320748 
L 284.067996 284.320748 
" style="fill:none;stroke:#2ca02c;stroke-linecap:square;stroke-width:3;"/>
   </g>
   <g id="line2d_58">
    <path clip-path="url(#p38aa19b849)" d="M 402.755928 70.313861 
L 430.674437 82.488816 
L 429.645106 89.418553 
" style="fill:none;stroke:#d62728;stroke-linecap:square;stroke-width:3;"/>
   </g>
   <g id="patch_3">
    <path d="M 76.881214 296.728 
L 76.881214 43.44 
" style="fill:none;stroke:#000000;stroke-linecap:square;stroke-linejoin:miter;stroke-width:0.8;"/>
   </g>
   <g id="patch_4">
    <path d="M 450 296.728 
L 450 43.44 
" style="fill:none;stroke:#000000;stroke-linecap:square;stroke-linejoin:miter;stroke-width:0.8;"/>
   </g>
   <g id="patch_5">
    <path d="M 76.881214 296.728 
L 450 296.728 
" style="fill:none;stroke:#000000;stroke-linecap:square;stroke-linejoin:miter;stroke-width:0.8;"/>
   </g>
   <g id="patch_6">
    <path d="M 76.881214 43.44 
L 450 43.44 
" style="fill:none;stroke:#000000;stroke-linecap:square;stroke-linejoin:miter;stroke-width:0.8;"/>
   </g>
   <g id="text_15">
    <!-- Lasso Regression[reg=0.5] -->
    <g transform="translate(169.233732 21.763062)scale(0.14 -0.14)">
     <defs>
      <path d="M 9.8125 72.90625 
L 19.671875 72.90625 
L 19.671875 8.296875 
L 55.171875 8.296875 
L 55.171875 0 
L 9.8125 0 
z
" id="DejaVuSans-76"/>
      <path d="M 34.28125 27.484375 
Q 23.390625 27.484375 19.1875 25 
Q 14.984375 22.515625 14.984375 16.5 
Q 14.984375 11.71875 18.140625 8.90625 
Q 21.296875 6.109375 26.703125 6.109375 
Q 34.1875 6.109375 38.703125 11.40625 
Q 43.21875 16.703125 43.21875 25.484375 
L 43.21875 27.484375 
z
M 52.203125 31.203125 
L 52.203125 0 
L 43.21875 0 
L 43.21875 8.296875 
Q 40.140625 3.328125 35.546875 0.953125 
Q 30.953125 -1.421875 24.3125 -1.421875 
Q 15.921875 -1.421875 10.953125 3.296875 
Q 6 8.015625 6 15.921875 
Q 6 25.140625 12.171875 29.828125 
Q 18.359375 34.515625 30.609375 34.515625 
L 43.21875 34.515625 
L 43.21875 35.40625 
Q 43.21875 41.609375 39.140625 45 
Q 35.0625 48.390625 27.6875 48.390625 
Q 23 48.390625 18.546875 47.265625 
Q 14.109375 46.140625 10.015625 43.890625 
L 10.015625 52.203125 
Q 14.9375 54.109375 19.578125 55.046875 
Q 24.21875 56 28.609375 56 
Q 40.484375 56 46.34375 49.84375 
Q 52.203125 43.703125 52.203125 31.203125 
z
" id="DejaVuSans-97"/>
      <path d="M 30.609375 48.390625 
Q 23.390625 48.390625 19.1875 42.75 
Q 14.984375 37.109375 14.984375 27.296875 
Q 14.984375 17.484375 19.15625 11.84375 
Q 23.34375 6.203125 30.609375 6.203125 
Q 37.796875 6.203125 41.984375 11.859375 
Q 46.1875 17.53125 46.1875 27.296875 
Q 46.1875 37.015625 41.984375 42.703125 
Q 37.796875 48.390625 30.609375 48.390625 
z
M 30.609375 56 
Q 42.328125 56 49.015625 48.375 
Q 55.71875 40.765625 55.71875 27.296875 
Q 55.71875 13.875 49.015625 6.21875 
Q 42.328125 -1.421875 30.609375 -1.421875 
Q 18.84375 -1.421875 12.171875 6.21875 
Q 5.515625 13.875 5.515625 27.296875 
Q 5.515625 40.765625 12.171875 48.375 
Q 18.84375 56 30.609375 56 
z
" id="DejaVuSans-111"/>
      <path d="M 44.390625 34.1875 
Q 47.5625 33.109375 50.5625 29.59375 
Q 53.5625 26.078125 56.59375 19.921875 
L 66.609375 0 
L 56 0 
L 46.6875 18.703125 
Q 43.0625 26.03125 39.671875 28.421875 
Q 36.28125 30.8125 30.421875 30.8125 
L 19.671875 30.8125 
L 19.671875 0 
L 9.8125 0 
L 9.8125 72.90625 
L 32.078125 72.90625 
Q 44.578125 72.90625 50.734375 67.671875 
Q 56.890625 62.453125 56.890625 51.90625 
Q 56.890625 45.015625 53.6875 40.46875 
Q 50.484375 35.9375 44.390625 34.1875 
z
M 19.671875 64.796875 
L 19.671875 38.921875 
L 32.078125 38.921875 
Q 39.203125 38.921875 42.84375 42.21875 
Q 46.484375 45.515625 46.484375 51.90625 
Q 46.484375 58.296875 42.84375 61.546875 
Q 39.203125 64.796875 32.078125 64.796875 
z
" id="DejaVuSans-82"/>
      <path d="M 45.40625 27.984375 
Q 45.40625 37.75 41.375 43.109375 
Q 37.359375 48.484375 30.078125 48.484375 
Q 22.859375 48.484375 18.828125 43.109375 
Q 14.796875 37.75 14.796875 27.984375 
Q 14.796875 18.265625 18.828125 12.890625 
Q 22.859375 7.515625 30.078125 7.515625 
Q 37.359375 7.515625 41.375 12.890625 
Q 45.40625 18.265625 45.40625 27.984375 
z
M 54.390625 6.78125 
Q 54.390625 -7.171875 48.1875 -13.984375 
Q 42 -20.796875 29.203125 -20.796875 
Q 24.46875 -20.796875 20.265625 -20.09375 
Q 16.0625 -19.390625 12.109375 -17.921875 
L 12.109375 -9.1875 
Q 16.0625 -11.328125 19.921875 -12.34375 
Q 23.78125 -13.375 27.78125 -13.375 
Q 36.625 -13.375 41.015625 -8.765625 
Q 45.40625 -4.15625 45.40625 5.171875 
L 45.40625 9.625 
Q 42.625 4.78125 38.28125 2.390625 
Q 33.9375 0 27.875 0 
Q 17.828125 0 11.671875 7.65625 
Q 5.515625 15.328125 5.515625 27.984375 
Q 5.515625 40.671875 11.671875 48.328125 
Q 17.828125 56 27.875 56 
Q 33.9375 56 38.28125 53.609375 
Q 42.625 51.21875 45.40625 46.390625 
L 45.40625 54.6875 
L 54.390625 54.6875 
z
" id="DejaVuSans-103"/>
      <path d="M 41.109375 46.296875 
Q 39.59375 47.171875 37.8125 47.578125 
Q 36.03125 48 33.890625 48 
Q 26.265625 48 22.1875 43.046875 
Q 18.109375 38.09375 18.109375 28.8125 
L 18.109375 0 
L 9.078125 0 
L 9.078125 54.6875 
L 18.109375 54.6875 
L 18.109375 46.1875 
Q 20.953125 51.171875 25.484375 53.578125 
Q 30.03125 56 36.53125 56 
Q 37.453125 56 38.578125 55.875 
Q 39.703125 55.765625 41.0625 55.515625 
z
" id="DejaVuSans-114"/>
      <path d="M 54.890625 33.015625 
L 54.890625 0 
L 45.90625 0 
L 45.90625 32.71875 
Q 45.90625 40.484375 42.875 44.328125 
Q 39.84375 48.1875 33.796875 48.1875 
Q 26.515625 48.1875 22.3125 43.546875 
Q 18.109375 38.921875 18.109375 30.90625 
L 18.109375 0 
L 9.078125 0 
L 9.078125 54.6875 
L 18.109375 54.6875 
L 18.109375 46.1875 
Q 21.34375 51.125 25.703125 53.5625 
Q 30.078125 56 35.796875 56 
Q 45.21875 56 50.046875 50.171875 
Q 54.890625 44.34375 54.890625 33.015625 
z
" id="DejaVuSans-110"/>
      <path d="M 10.59375 45.40625 
L 73.1875 45.40625 
L 73.1875 37.203125 
L 10.59375 37.203125 
z
M 10.59375 25.484375 
L 73.1875 25.484375 
L 73.1875 17.1875 
L 10.59375 17.1875 
z
" id="DejaVuSans-61"/>
      <path d="M 10.6875 12.40625 
L 21 12.40625 
L 21 0 
L 10.6875 0 
z
" id="DejaVuSans-46"/>
      <path d="M 10.796875 72.90625 
L 49.515625 72.90625 
L 49.515625 64.59375 
L 19.828125 64.59375 
L 19.828125 46.734375 
Q 21.96875 47.46875 24.109375 47.828125 
Q 26.265625 48.1875 28.421875 48.1875 
Q 40.625 48.1875 47.75 41.5 
Q 54.890625 34.8125 54.890625 23.390625 
Q 54.890625 11.625 47.5625 5.09375 
Q 40.234375 -1.421875 26.90625 -1.421875 
Q 22.3125 -1.421875 17.546875 -0.640625 
Q 12.796875 0.140625 7.71875 1.703125 
L 7.71875 11.625 
Q 12.109375 9.234375 16.796875 8.0625 
Q 21.484375 6.890625 26.703125 6.890625 
Q 35.15625 6.890625 40.078125 11.328125 
Q 45.015625 15.765625 45.015625 23.390625 
Q 45.015625 31 40.078125 35.4375 
Q 35.15625 39.890625 26.703125 39.890625 
Q 22.75 39.890625 18.8125 39.015625 
Q 14.890625 38.140625 10.796875 36.28125 
z
" id="DejaVuSans-53"/>
     </defs>
     <use xlink:href="#DejaVuSans-76"/>
     <use x="55.712891" xlink:href="#DejaVuSans-97"/>
     <use x="116.992188" xlink:href="#DejaVuSans-115"/>
     <use x="169.091797" xlink:href="#DejaVuSans-115"/>
     <use x="221.191406" xlink:href="#DejaVuSans-111"/>
     <use x="282.373047" xlink:href="#DejaVuSans-32"/>
     <use x="314.160156" xlink:href="#DejaVuSans-82"/>
     <use x="379.142578" xlink:href="#DejaVuSans-101"/>
     <use x="440.666016" xlink:href="#DejaVuSans-103"/>
     <use x="504.142578" xlink:href="#DejaVuSans-114"/>
     <use x="543.005859" xlink:href="#DejaVuSans-101"/>
     <use x="604.529297" xlink:href="#DejaVuSans-115"/>
     <use x="656.628906" xlink:href="#DejaVuSans-115"/>
     <use x="708.728516" xlink:href="#DejaVuSans-105"/>
     <use x="736.511719" xlink:href="#DejaVuSans-111"/>
     <use x="797.693359" xlink:href="#DejaVuSans-110"/>
     <use x="861.072266" xlink:href="#DejaVuSans-91"/>
     <use x="900.085938" xlink:href="#DejaVuSans-114"/>
     <use x="938.949219" xlink:href="#DejaVuSans-101"/>
     <use x="1000.472656" xlink:href="#DejaVuSans-103"/>
     <use x="1063.949219" xlink:href="#DejaVuSans-61"/>
     <use x="1147.738281" xlink:href="#DejaVuSans-48"/>
     <use x="1211.361328" xlink:href="#DejaVuSans-46"/>
     <use x="1243.148438" xlink:href="#DejaVuSans-53"/>
     <use x="1306.771484" xlink:href="#DejaVuSans-93"/>
    </g>
    <!-- Data: Simulated[n_samples=100,n_features=10000,rho=0.6] -->
    <g transform="translate(47.140607 37.44)scale(0.14 -0.14)">
     <defs>
      <path d="M 19.671875 64.796875 
L 19.671875 8.109375 
L 31.59375 8.109375 
Q 46.6875 8.109375 53.6875 14.9375 
Q 60.6875 21.78125 60.6875 36.53125 
Q 60.6875 51.171875 53.6875 57.984375 
Q 46.6875 64.796875 31.59375 64.796875 
z
M 9.8125 72.90625 
L 30.078125 72.90625 
Q 51.265625 72.90625 61.171875 64.09375 
Q 71.09375 55.28125 71.09375 36.53125 
Q 71.09375 17.671875 61.125 8.828125 
Q 51.171875 0 30.078125 0 
L 9.8125 0 
z
" id="DejaVuSans-68"/>
      <path d="M 18.3125 70.21875 
L 18.3125 54.6875 
L 36.8125 54.6875 
L 36.8125 47.703125 
L 18.3125 47.703125 
L 18.3125 18.015625 
Q 18.3125 11.328125 20.140625 9.421875 
Q 21.96875 7.515625 27.59375 7.515625 
L 36.8125 7.515625 
L 36.8125 0 
L 27.59375 0 
Q 17.1875 0 13.234375 3.875 
Q 9.28125 7.765625 9.28125 18.015625 
L 9.28125 47.703125 
L 2.6875 47.703125 
L 2.6875 54.6875 
L 9.28125 54.6875 
L 9.28125 70.21875 
z
" id="DejaVuSans-116"/>
      <path d="M 11.71875 12.40625 
L 22.015625 12.40625 
L 22.015625 0 
L 11.71875 0 
z
M 11.71875 51.703125 
L 22.015625 51.703125 
L 22.015625 39.3125 
L 11.71875 39.3125 
z
" id="DejaVuSans-58"/>
      <path d="M 53.515625 70.515625 
L 53.515625 60.890625 
Q 47.90625 63.578125 42.921875 64.890625 
Q 37.9375 66.21875 33.296875 66.21875 
Q 25.25 66.21875 20.875 63.09375 
Q 16.5 59.96875 16.5 54.203125 
Q 16.5 49.359375 19.40625 46.890625 
Q 22.3125 44.4375 30.421875 42.921875 
L 36.375 41.703125 
Q 47.40625 39.59375 52.65625 34.296875 
Q 57.90625 29 57.90625 20.125 
Q 57.90625 9.515625 50.796875 4.046875 
Q 43.703125 -1.421875 29.984375 -1.421875 
Q 24.8125 -1.421875 18.96875 -0.25 
Q 13.140625 0.921875 6.890625 3.21875 
L 6.890625 13.375 
Q 12.890625 10.015625 18.65625 8.296875 
Q 24.421875 6.59375 29.984375 6.59375 
Q 38.421875 6.59375 43.015625 9.90625 
Q 47.609375 13.234375 47.609375 19.390625 
Q 47.609375 24.75 44.3125 27.78125 
Q 41.015625 30.8125 33.5 32.328125 
L 27.484375 33.5 
Q 16.453125 35.6875 11.515625 40.375 
Q 6.59375 45.0625 6.59375 53.421875 
Q 6.59375 63.09375 13.40625 68.65625 
Q 20.21875 74.21875 32.171875 74.21875 
Q 37.3125 74.21875 42.625 73.28125 
Q 47.953125 72.359375 53.515625 70.515625 
z
" id="DejaVuSans-83"/>
      <path d="M 8.5 21.578125 
L 8.5 54.6875 
L 17.484375 54.6875 
L 17.484375 21.921875 
Q 17.484375 14.15625 20.5 10.265625 
Q 23.53125 6.390625 29.59375 6.390625 
Q 36.859375 6.390625 41.078125 11.03125 
Q 45.3125 15.671875 45.3125 23.6875 
L 45.3125 54.6875 
L 54.296875 54.6875 
L 54.296875 0 
L 45.3125 0 
L 45.3125 8.40625 
Q 42.046875 3.421875 37.71875 1 
Q 33.40625 -1.421875 27.6875 -1.421875 
Q 18.265625 -1.421875 13.375 4.4375 
Q 8.5 10.296875 8.5 21.578125 
z
M 31.109375 56 
z
" id="DejaVuSans-117"/>
      <path d="M 9.421875 75.984375 
L 18.40625 75.984375 
L 18.40625 0 
L 9.421875 0 
z
" id="DejaVuSans-108"/>
      <path d="M 45.40625 46.390625 
L 45.40625 75.984375 
L 54.390625 75.984375 
L 54.390625 0 
L 45.40625 0 
L 45.40625 8.203125 
Q 42.578125 3.328125 38.25 0.953125 
Q 33.9375 -1.421875 27.875 -1.421875 
Q 17.96875 -1.421875 11.734375 6.484375 
Q 5.515625 14.40625 5.515625 27.296875 
Q 5.515625 40.1875 11.734375 48.09375 
Q 17.96875 56 27.875 56 
Q 33.9375 56 38.25 53.625 
Q 42.578125 51.265625 45.40625 46.390625 
z
M 14.796875 27.296875 
Q 14.796875 17.390625 18.875 11.75 
Q 22.953125 6.109375 30.078125 6.109375 
Q 37.203125 6.109375 41.296875 11.75 
Q 45.40625 17.390625 45.40625 27.296875 
Q 45.40625 37.203125 41.296875 42.84375 
Q 37.203125 48.484375 30.078125 48.484375 
Q 22.953125 48.484375 18.875 42.84375 
Q 14.796875 37.203125 14.796875 27.296875 
z
" id="DejaVuSans-100"/>
      <path d="M 50.984375 -16.609375 
L 50.984375 -23.578125 
L -0.984375 -23.578125 
L -0.984375 -16.609375 
z
" id="DejaVuSans-95"/>
      <path d="M 18.109375 8.203125 
L 18.109375 -20.796875 
L 9.078125 -20.796875 
L 9.078125 54.6875 
L 18.109375 54.6875 
L 18.109375 46.390625 
Q 20.953125 51.265625 25.265625 53.625 
Q 29.59375 56 35.59375 56 
Q 45.5625 56 51.78125 48.09375 
Q 58.015625 40.1875 58.015625 27.296875 
Q 58.015625 14.40625 51.78125 6.484375 
Q 45.5625 -1.421875 35.59375 -1.421875 
Q 29.59375 -1.421875 25.265625 0.953125 
Q 20.953125 3.328125 18.109375 8.203125 
z
M 48.6875 27.296875 
Q 48.6875 37.203125 44.609375 42.84375 
Q 40.53125 48.484375 33.40625 48.484375 
Q 26.265625 48.484375 22.1875 42.84375 
Q 18.109375 37.203125 18.109375 27.296875 
Q 18.109375 17.390625 22.1875 11.75 
Q 26.265625 6.109375 33.40625 6.109375 
Q 40.53125 6.109375 44.609375 11.75 
Q 48.6875 17.390625 48.6875 27.296875 
z
" id="DejaVuSans-112"/>
      <path d="M 11.71875 12.40625 
L 22.015625 12.40625 
L 22.015625 4 
L 14.015625 -11.625 
L 7.71875 -11.625 
L 11.71875 4 
z
" id="DejaVuSans-44"/>
      <path d="M 37.109375 75.984375 
L 37.109375 68.5 
L 28.515625 68.5 
Q 23.6875 68.5 21.796875 66.546875 
Q 19.921875 64.59375 19.921875 59.515625 
L 19.921875 54.6875 
L 34.71875 54.6875 
L 34.71875 47.703125 
L 19.921875 47.703125 
L 19.921875 0 
L 10.890625 0 
L 10.890625 47.703125 
L 2.296875 47.703125 
L 2.296875 54.6875 
L 10.890625 54.6875 
L 10.890625 58.5 
Q 10.890625 67.625 15.140625 71.796875 
Q 19.390625 75.984375 28.609375 75.984375 
z
" id="DejaVuSans-102"/>
      <path d="M 54.890625 33.015625 
L 54.890625 0 
L 45.90625 0 
L 45.90625 32.71875 
Q 45.90625 40.484375 42.875 44.328125 
Q 39.84375 48.1875 33.796875 48.1875 
Q 26.515625 48.1875 22.3125 43.546875 
Q 18.109375 38.921875 18.109375 30.90625 
L 18.109375 0 
L 9.078125 0 
L 9.078125 75.984375 
L 18.109375 75.984375 
L 18.109375 46.1875 
Q 21.34375 51.125 25.703125 53.5625 
Q 30.078125 56 35.796875 56 
Q 45.21875 56 50.046875 50.171875 
Q 54.890625 44.34375 54.890625 33.015625 
z
" id="DejaVuSans-104"/>
     </defs>
     <use xlink:href="#DejaVuSans-68"/>
     <use x="77.001953" xlink:href="#DejaVuSans-97"/>
     <use x="138.28125" xlink:href="#DejaVuSans-116"/>
     <use x="177.490234" xlink:href="#DejaVuSans-97"/>
     <use x="238.769531" xlink:href="#DejaVuSans-58"/>
     <use x="272.460938" xlink:href="#DejaVuSans-32"/>
     <use x="304.248047" xlink:href="#DejaVuSans-83"/>
     <use x="367.724609" xlink:href="#DejaVuSans-105"/>
     <use x="395.507812" xlink:href="#DejaVuSans-109"/>
     <use x="492.919922" xlink:href="#DejaVuSans-117"/>
     <use x="556.298828" xlink:href="#DejaVuSans-108"/>
     <use x="584.082031" xlink:href="#DejaVuSans-97"/>
     <use x="645.361328" xlink:href="#DejaVuSans-116"/>
     <use x="684.570312" xlink:href="#DejaVuSans-101"/>
     <use x="746.09375" xlink:href="#DejaVuSans-100"/>
     <use x="809.570312" xlink:href="#DejaVuSans-91"/>
     <use x="848.583984" xlink:href="#DejaVuSans-110"/>
     <use x="911.962891" xlink:href="#DejaVuSans-95"/>
     <use x="961.962891" xlink:href="#DejaVuSans-115"/>
     <use x="1014.0625" xlink:href="#DejaVuSans-97"/>
     <use x="1075.341797" xlink:href="#DejaVuSans-109"/>
     <use x="1172.753906" xlink:href="#DejaVuSans-112"/>
     <use x="1236.230469" xlink:href="#DejaVuSans-108"/>
     <use x="1264.013672" xlink:href="#DejaVuSans-101"/>
     <use x="1325.537109" xlink:href="#DejaVuSans-115"/>
     <use x="1377.636719" xlink:href="#DejaVuSans-61"/>
     <use x="1461.425781" xlink:href="#DejaVuSans-49"/>
     <use x="1525.048828" xlink:href="#DejaVuSans-48"/>
     <use x="1588.671875" xlink:href="#DejaVuSans-48"/>
     <use x="1652.294922" xlink:href="#DejaVuSans-44"/>
     <use x="1684.082031" xlink:href="#DejaVuSans-110"/>
     <use x="1747.460938" xlink:href="#DejaVuSans-95"/>
     <use x="1797.460938" xlink:href="#DejaVuSans-102"/>
     <use x="1832.666016" xlink:href="#DejaVuSans-101"/>
     <use x="1894.189453" xlink:href="#DejaVuSans-97"/>
     <use x="1955.46875" xlink:href="#DejaVuSans-116"/>
     <use x="1994.677734" xlink:href="#DejaVuSans-117"/>
     <use x="2058.056641" xlink:href="#DejaVuSans-114"/>
     <use x="2096.919922" xlink:href="#DejaVuSans-101"/>
     <use x="2158.443359" xlink:href="#DejaVuSans-115"/>
     <use x="2210.542969" xlink:href="#DejaVuSans-61"/>
     <use x="2294.332031" xlink:href="#DejaVuSans-49"/>
     <use x="2357.955078" xlink:href="#DejaVuSans-48"/>
     <use x="2421.578125" xlink:href="#DejaVuSans-48"/>
     <use x="2485.201172" xlink:href="#DejaVuSans-48"/>
     <use x="2548.824219" xlink:href="#DejaVuSans-48"/>
     <use x="2612.447266" xlink:href="#DejaVuSans-44"/>
     <use x="2644.234375" xlink:href="#DejaVuSans-114"/>
     <use x="2683.597656" xlink:href="#DejaVuSans-104"/>
     <use x="2746.976562" xlink:href="#DejaVuSans-111"/>
     <use x="2808.158203" xlink:href="#DejaVuSans-61"/>
     <use x="2891.947266" xlink:href="#DejaVuSans-48"/>
     <use x="2955.570312" xlink:href="#DejaVuSans-46"/>
     <use x="2987.357422" xlink:href="#DejaVuSans-54"/>
     <use x="3050.980469" xlink:href="#DejaVuSans-93"/>
    </g>
   </g>
   <g id="legend_1">
    <g id="patch_7">
     <path d="M 86.681214 343.11 
L 390.960276 343.11 
Q 393.760276 343.11 393.760276 340.31 
L 393.760276 53.24 
Q 393.760276 50.44 390.960276 50.44 
L 86.681214 50.44 
Q 83.881214 50.44 83.881214 53.24 
L 83.881214 340.31 
Q 83.881214 343.11 86.681214 343.11 
z
" style="fill:#ffffff;opacity:0.8;stroke:#cccccc;stroke-linejoin:miter;"/>
    </g>
    <g id="line2d_59">
     <path d="M 89.481214 61.777812 
L 117.481214 61.777812 
" style="fill:none;stroke:#1f77b4;stroke-linecap:square;stroke-width:3;"/>
    </g>
    <g id="line2d_60"/>
    <g id="text_16">
     <!-- Blitz -->
     <g transform="translate(128.681214 66.677812)scale(0.14 -0.14)">
      <defs>
       <path d="M 19.671875 34.8125 
L 19.671875 8.109375 
L 35.5 8.109375 
Q 43.453125 8.109375 47.28125 11.40625 
Q 51.125 14.703125 51.125 21.484375 
Q 51.125 28.328125 47.28125 31.5625 
Q 43.453125 34.8125 35.5 34.8125 
z
M 19.671875 64.796875 
L 19.671875 42.828125 
L 34.28125 42.828125 
Q 41.5 42.828125 45.03125 45.53125 
Q 48.578125 48.25 48.578125 53.8125 
Q 48.578125 59.328125 45.03125 62.0625 
Q 41.5 64.796875 34.28125 64.796875 
z
M 9.8125 72.90625 
L 35.015625 72.90625 
Q 46.296875 72.90625 52.390625 68.21875 
Q 58.5 63.53125 58.5 54.890625 
Q 58.5 48.1875 55.375 44.234375 
Q 52.25 40.28125 46.1875 39.3125 
Q 53.46875 37.75 57.5 32.78125 
Q 61.53125 27.828125 61.53125 20.40625 
Q 61.53125 10.640625 54.890625 5.3125 
Q 48.25 0 35.984375 0 
L 9.8125 0 
z
" id="DejaVuSans-66"/>
       <path d="M 5.515625 54.6875 
L 48.1875 54.6875 
L 48.1875 46.484375 
L 14.40625 7.171875 
L 48.1875 7.171875 
L 48.1875 0 
L 4.296875 0 
L 4.296875 8.203125 
L 38.09375 47.515625 
L 5.515625 47.515625 
z
" id="DejaVuSans-122"/>
      </defs>
      <use xlink:href="#DejaVuSans-66"/>
      <use x="68.603516" xlink:href="#DejaVuSans-108"/>
      <use x="96.386719" xlink:href="#DejaVuSans-105"/>
      <use x="124.169922" xlink:href="#DejaVuSans-116"/>
      <use x="163.378906" xlink:href="#DejaVuSans-122"/>
     </g>
    </g>
    <g id="line2d_61">
     <path d="M 89.481214 82.327187 
L 117.481214 82.327187 
" style="fill:none;stroke:#ff7f0e;stroke-linecap:square;stroke-width:3;"/>
    </g>
    <g id="line2d_62"/>
    <g id="text_17">
     <!-- cd -->
     <g transform="translate(128.681214 87.227187)scale(0.14 -0.14)">
      <use xlink:href="#DejaVuSans-99"/>
      <use x="54.980469" xlink:href="#DejaVuSans-100"/>
     </g>
    </g>
    <g id="line2d_63">
     <path d="M 89.481214 102.876562 
L 117.481214 102.876562 
" style="fill:none;stroke:#2ca02c;stroke-linecap:square;stroke-width:3;"/>
    </g>
    <g id="line2d_64"/>
    <g id="text_18">
     <!-- Celer -->
     <g transform="translate(128.681214 107.776562)scale(0.14 -0.14)">
      <defs>
       <path d="M 64.40625 67.28125 
L 64.40625 56.890625 
Q 59.421875 61.53125 53.78125 63.8125 
Q 48.140625 66.109375 41.796875 66.109375 
Q 29.296875 66.109375 22.65625 58.46875 
Q 16.015625 50.828125 16.015625 36.375 
Q 16.015625 21.96875 22.65625 14.328125 
Q 29.296875 6.6875 41.796875 6.6875 
Q 48.140625 6.6875 53.78125 8.984375 
Q 59.421875 11.28125 64.40625 15.921875 
L 64.40625 5.609375 
Q 59.234375 2.09375 53.4375 0.328125 
Q 47.65625 -1.421875 41.21875 -1.421875 
Q 24.65625 -1.421875 15.125 8.703125 
Q 5.609375 18.84375 5.609375 36.375 
Q 5.609375 53.953125 15.125 64.078125 
Q 24.65625 74.21875 41.21875 74.21875 
Q 47.75 74.21875 53.53125 72.484375 
Q 59.328125 70.75 64.40625 67.28125 
z
" id="DejaVuSans-67"/>
      </defs>
      <use xlink:href="#DejaVuSans-67"/>
      <use x="69.824219" xlink:href="#DejaVuSans-101"/>
      <use x="131.347656" xlink:href="#DejaVuSans-108"/>
      <use x="159.130859" xlink:href="#DejaVuSans-101"/>
      <use x="220.654297" xlink:href="#DejaVuSans-114"/>
     </g>
    </g>
    <g id="line2d_65">
     <path d="M 89.481214 123.425937 
L 117.481214 123.425937 
" style="fill:none;stroke:#d62728;stroke-linecap:square;stroke-width:3;"/>
    </g>
    <g id="line2d_66"/>
    <g id="text_19">
     <!-- cvxpy -->
     <g transform="translate(128.681214 128.325937)scale(0.14 -0.14)">
      <defs>
       <path d="M 2.984375 54.6875 
L 12.5 54.6875 
L 29.59375 8.796875 
L 46.6875 54.6875 
L 56.203125 54.6875 
L 35.6875 0 
L 23.484375 0 
z
" id="DejaVuSans-118"/>
       <path d="M 54.890625 54.6875 
L 35.109375 28.078125 
L 55.90625 0 
L 45.3125 0 
L 29.390625 21.484375 
L 13.484375 0 
L 2.875 0 
L 24.125 28.609375 
L 4.6875 54.6875 
L 15.28125 54.6875 
L 29.78125 35.203125 
L 44.28125 54.6875 
z
" id="DejaVuSans-120"/>
       <path d="M 32.171875 -5.078125 
Q 28.375 -14.84375 24.75 -17.8125 
Q 21.140625 -20.796875 15.09375 -20.796875 
L 7.90625 -20.796875 
L 7.90625 -13.28125 
L 13.1875 -13.28125 
Q 16.890625 -13.28125 18.9375 -11.515625 
Q 21 -9.765625 23.484375 -3.21875 
L 25.09375 0.875 
L 2.984375 54.6875 
L 12.5 54.6875 
L 29.59375 11.921875 
L 46.6875 54.6875 
L 56.203125 54.6875 
z
" id="DejaVuSans-121"/>
      </defs>
      <use xlink:href="#DejaVuSans-99"/>
      <use x="54.980469" xlink:href="#DejaVuSans-118"/>
      <use x="114.160156" xlink:href="#DejaVuSans-120"/>
      <use x="173.339844" xlink:href="#DejaVuSans-112"/>
      <use x="236.816406" xlink:href="#DejaVuSans-121"/>
     </g>
    </g>
    <g id="line2d_67">
     <path d="M 89.481214 143.975312 
L 117.481214 143.975312 
" style="fill:none;stroke:#9467bd;stroke-linecap:square;stroke-width:3;"/>
    </g>
    <g id="line2d_68"/>
    <g id="text_20">
     <!-- Cyanure -->
     <g transform="translate(128.681214 148.875312)scale(0.14 -0.14)">
      <use xlink:href="#DejaVuSans-67"/>
      <use x="69.824219" xlink:href="#DejaVuSans-121"/>
      <use x="129.003906" xlink:href="#DejaVuSans-97"/>
      <use x="190.283203" xlink:href="#DejaVuSans-110"/>
      <use x="253.662109" xlink:href="#DejaVuSans-117"/>
      <use x="317.041016" xlink:href="#DejaVuSans-114"/>
      <use x="355.904297" xlink:href="#DejaVuSans-101"/>
     </g>
    </g>
    <g id="line2d_69">
     <path d="M 89.481214 164.524687 
L 117.481214 164.524687 
" style="fill:none;stroke:#8c564b;stroke-linecap:square;stroke-width:3;"/>
    </g>
    <g id="line2d_70"/>
    <g id="text_21">
     <!-- glmnet -->
     <g transform="translate(128.681214 169.424687)scale(0.14 -0.14)">
      <use xlink:href="#DejaVuSans-103"/>
      <use x="63.476562" xlink:href="#DejaVuSans-108"/>
      <use x="91.259766" xlink:href="#DejaVuSans-109"/>
      <use x="188.671875" xlink:href="#DejaVuSans-110"/>
      <use x="252.050781" xlink:href="#DejaVuSans-101"/>
      <use x="313.574219" xlink:href="#DejaVuSans-116"/>
     </g>
    </g>
    <g id="line2d_71">
     <path d="M 89.481214 185.074062 
L 117.481214 185.074062 
" style="fill:none;stroke:#e377c2;stroke-linecap:square;stroke-width:3;"/>
    </g>
    <g id="line2d_72"/>
    <g id="text_22">
     <!-- Julia-PGD -->
     <g transform="translate(128.681214 189.974062)scale(0.14 -0.14)">
      <defs>
       <path d="M 9.8125 72.90625 
L 19.671875 72.90625 
L 19.671875 5.078125 
Q 19.671875 -8.109375 14.671875 -14.0625 
Q 9.671875 -20.015625 -1.421875 -20.015625 
L -5.171875 -20.015625 
L -5.171875 -11.71875 
L -2.09375 -11.71875 
Q 4.4375 -11.71875 7.125 -8.046875 
Q 9.8125 -4.390625 9.8125 5.078125 
z
" id="DejaVuSans-74"/>
       <path d="M 4.890625 31.390625 
L 31.203125 31.390625 
L 31.203125 23.390625 
L 4.890625 23.390625 
z
" id="DejaVuSans-45"/>
       <path d="M 19.671875 64.796875 
L 19.671875 37.40625 
L 32.078125 37.40625 
Q 38.96875 37.40625 42.71875 40.96875 
Q 46.484375 44.53125 46.484375 51.125 
Q 46.484375 57.671875 42.71875 61.234375 
Q 38.96875 64.796875 32.078125 64.796875 
z
M 9.8125 72.90625 
L 32.078125 72.90625 
Q 44.34375 72.90625 50.609375 67.359375 
Q 56.890625 61.8125 56.890625 51.125 
Q 56.890625 40.328125 50.609375 34.8125 
Q 44.34375 29.296875 32.078125 29.296875 
L 19.671875 29.296875 
L 19.671875 0 
L 9.8125 0 
z
" id="DejaVuSans-80"/>
       <path d="M 59.515625 10.40625 
L 59.515625 29.984375 
L 43.40625 29.984375 
L 43.40625 38.09375 
L 69.28125 38.09375 
L 69.28125 6.78125 
Q 63.578125 2.734375 56.6875 0.65625 
Q 49.8125 -1.421875 42 -1.421875 
Q 24.90625 -1.421875 15.25 8.5625 
Q 5.609375 18.5625 5.609375 36.375 
Q 5.609375 54.25 15.25 64.234375 
Q 24.90625 74.21875 42 74.21875 
Q 49.125 74.21875 55.546875 72.453125 
Q 61.96875 70.703125 67.390625 67.28125 
L 67.390625 56.78125 
Q 61.921875 61.421875 55.765625 63.765625 
Q 49.609375 66.109375 42.828125 66.109375 
Q 29.4375 66.109375 22.71875 58.640625 
Q 16.015625 51.171875 16.015625 36.375 
Q 16.015625 21.625 22.71875 14.15625 
Q 29.4375 6.6875 42.828125 6.6875 
Q 48.046875 6.6875 52.140625 7.59375 
Q 56.25 8.5 59.515625 10.40625 
z
" id="DejaVuSans-71"/>
      </defs>
      <use xlink:href="#DejaVuSans-74"/>
      <use x="29.492188" xlink:href="#DejaVuSans-117"/>
      <use x="92.871094" xlink:href="#DejaVuSans-108"/>
      <use x="120.654297" xlink:href="#DejaVuSans-105"/>
      <use x="148.4375" xlink:href="#DejaVuSans-97"/>
      <use x="209.716797" xlink:href="#DejaVuSans-45"/>
      <use x="245.800781" xlink:href="#DejaVuSans-80"/>
      <use x="306.103516" xlink:href="#DejaVuSans-71"/>
      <use x="383.59375" xlink:href="#DejaVuSans-68"/>
     </g>
    </g>
    <g id="line2d_73">
     <path d="M 89.481214 205.623437 
L 117.481214 205.623437 
" style="fill:none;stroke:#7f7f7f;stroke-linecap:square;stroke-width:3;"/>
    </g>
    <g id="line2d_74"/>
    <g id="text_23">
     <!-- L-BFGS-B -->
     <g transform="translate(128.681214 210.523437)scale(0.14 -0.14)">
      <defs>
       <path d="M 9.8125 72.90625 
L 51.703125 72.90625 
L 51.703125 64.59375 
L 19.671875 64.59375 
L 19.671875 43.109375 
L 48.578125 43.109375 
L 48.578125 34.8125 
L 19.671875 34.8125 
L 19.671875 0 
L 9.8125 0 
z
" id="DejaVuSans-70"/>
      </defs>
      <use xlink:href="#DejaVuSans-76"/>
      <use x="53.962891" xlink:href="#DejaVuSans-45"/>
      <use x="86.421875" xlink:href="#DejaVuSans-66"/>
      <use x="155.025391" xlink:href="#DejaVuSans-70"/>
      <use x="212.544922" xlink:href="#DejaVuSans-71"/>
      <use x="290.035156" xlink:href="#DejaVuSans-83"/>
      <use x="353.511719" xlink:href="#DejaVuSans-45"/>
      <use x="385.970703" xlink:href="#DejaVuSans-66"/>
     </g>
    </g>
    <g id="line2d_75">
     <path d="M 89.481214 226.172812 
L 117.481214 226.172812 
" style="fill:none;stroke:#bcbd22;stroke-linecap:square;stroke-width:3;"/>
    </g>
    <g id="line2d_76"/>
    <g id="text_24">
     <!-- Lightning -->
     <g transform="translate(128.681214 231.072812)scale(0.14 -0.14)">
      <use xlink:href="#DejaVuSans-76"/>
      <use x="55.712891" xlink:href="#DejaVuSans-105"/>
      <use x="83.496094" xlink:href="#DejaVuSans-103"/>
      <use x="146.972656" xlink:href="#DejaVuSans-104"/>
      <use x="210.351562" xlink:href="#DejaVuSans-116"/>
      <use x="249.560547" xlink:href="#DejaVuSans-110"/>
      <use x="312.939453" xlink:href="#DejaVuSans-105"/>
      <use x="340.722656" xlink:href="#DejaVuSans-110"/>
      <use x="404.101562" xlink:href="#DejaVuSans-103"/>
     </g>
    </g>
    <g id="line2d_77">
     <path d="M 89.481214 246.722187 
L 117.481214 246.722187 
" style="fill:none;stroke:#17becf;stroke-linecap:square;stroke-width:3;"/>
    </g>
    <g id="line2d_78"/>
    <g id="text_25">
     <!-- Python-PGD[use_acceleration=False] -->
     <g transform="translate(128.681214 251.622187)scale(0.14 -0.14)">
      <use xlink:href="#DejaVuSans-80"/>
      <use x="60.302734" xlink:href="#DejaVuSans-121"/>
      <use x="119.482422" xlink:href="#DejaVuSans-116"/>
      <use x="158.691406" xlink:href="#DejaVuSans-104"/>
      <use x="222.070312" xlink:href="#DejaVuSans-111"/>
      <use x="283.251953" xlink:href="#DejaVuSans-110"/>
      <use x="346.630859" xlink:href="#DejaVuSans-45"/>
      <use x="382.714844" xlink:href="#DejaVuSans-80"/>
      <use x="443.017578" xlink:href="#DejaVuSans-71"/>
      <use x="520.507812" xlink:href="#DejaVuSans-68"/>
      <use x="597.509766" xlink:href="#DejaVuSans-91"/>
      <use x="636.523438" xlink:href="#DejaVuSans-117"/>
      <use x="699.902344" xlink:href="#DejaVuSans-115"/>
      <use x="752.001953" xlink:href="#DejaVuSans-101"/>
      <use x="813.525391" xlink:href="#DejaVuSans-95"/>
      <use x="863.525391" xlink:href="#DejaVuSans-97"/>
      <use x="924.804688" xlink:href="#DejaVuSans-99"/>
      <use x="979.785156" xlink:href="#DejaVuSans-99"/>
      <use x="1034.765625" xlink:href="#DejaVuSans-101"/>
      <use x="1096.289062" xlink:href="#DejaVuSans-108"/>
      <use x="1124.072266" xlink:href="#DejaVuSans-101"/>
      <use x="1185.595703" xlink:href="#DejaVuSans-114"/>
      <use x="1226.708984" xlink:href="#DejaVuSans-97"/>
      <use x="1287.988281" xlink:href="#DejaVuSans-116"/>
      <use x="1327.197266" xlink:href="#DejaVuSans-105"/>
      <use x="1354.980469" xlink:href="#DejaVuSans-111"/>
      <use x="1416.162109" xlink:href="#DejaVuSans-110"/>
      <use x="1479.541016" xlink:href="#DejaVuSans-61"/>
      <use x="1563.330078" xlink:href="#DejaVuSans-70"/>
      <use x="1611.724609" xlink:href="#DejaVuSans-97"/>
      <use x="1673.003906" xlink:href="#DejaVuSans-108"/>
      <use x="1700.787109" xlink:href="#DejaVuSans-115"/>
      <use x="1752.886719" xlink:href="#DejaVuSans-101"/>
      <use x="1814.410156" xlink:href="#DejaVuSans-93"/>
     </g>
    </g>
    <g id="line2d_79">
     <path d="M 89.481214 267.660937 
L 117.481214 267.660937 
" style="fill:none;stroke:#1f77b4;stroke-linecap:square;stroke-width:3;"/>
    </g>
    <g id="line2d_80"/>
    <g id="text_26">
     <!-- Python-PGD[use_acceleration=True] -->
     <g transform="translate(128.681214 272.560937)scale(0.14 -0.14)">
      <use xlink:href="#DejaVuSans-80"/>
      <use x="60.302734" xlink:href="#DejaVuSans-121"/>
      <use x="119.482422" xlink:href="#DejaVuSans-116"/>
      <use x="158.691406" xlink:href="#DejaVuSans-104"/>
      <use x="222.070312" xlink:href="#DejaVuSans-111"/>
      <use x="283.251953" xlink:href="#DejaVuSans-110"/>
      <use x="346.630859" xlink:href="#DejaVuSans-45"/>
      <use x="382.714844" xlink:href="#DejaVuSans-80"/>
      <use x="443.017578" xlink:href="#DejaVuSans-71"/>
      <use x="520.507812" xlink:href="#DejaVuSans-68"/>
      <use x="597.509766" xlink:href="#DejaVuSans-91"/>
      <use x="636.523438" xlink:href="#DejaVuSans-117"/>
      <use x="699.902344" xlink:href="#DejaVuSans-115"/>
      <use x="752.001953" xlink:href="#DejaVuSans-101"/>
      <use x="813.525391" xlink:href="#DejaVuSans-95"/>
      <use x="863.525391" xlink:href="#DejaVuSans-97"/>
      <use x="924.804688" xlink:href="#DejaVuSans-99"/>
      <use x="979.785156" xlink:href="#DejaVuSans-99"/>
      <use x="1034.765625" xlink:href="#DejaVuSans-101"/>
      <use x="1096.289062" xlink:href="#DejaVuSans-108"/>
      <use x="1124.072266" xlink:href="#DejaVuSans-101"/>
      <use x="1185.595703" xlink:href="#DejaVuSans-114"/>
      <use x="1226.708984" xlink:href="#DejaVuSans-97"/>
      <use x="1287.988281" xlink:href="#DejaVuSans-116"/>
      <use x="1327.197266" xlink:href="#DejaVuSans-105"/>
      <use x="1354.980469" xlink:href="#DejaVuSans-111"/>
      <use x="1416.162109" xlink:href="#DejaVuSans-110"/>
      <use x="1479.541016" xlink:href="#DejaVuSans-61"/>
      <use x="1563.330078" xlink:href="#DejaVuSans-84"/>
      <use x="1609.664062" xlink:href="#DejaVuSans-114"/>
      <use x="1650.777344" xlink:href="#DejaVuSans-117"/>
      <use x="1714.15625" xlink:href="#DejaVuSans-101"/>
      <use x="1775.679688" xlink:href="#DejaVuSans-93"/>
     </g>
    </g>
    <g id="line2d_81">
     <path d="M 89.481214 288.599687 
L 117.481214 288.599687 
" style="fill:none;stroke:#ff7f0e;stroke-linecap:square;stroke-width:3;"/>
    </g>
    <g id="line2d_82"/>
    <g id="text_27">
     <!-- R-PGD -->
     <g transform="translate(128.681214 293.499687)scale(0.14 -0.14)">
      <use xlink:href="#DejaVuSans-82"/>
      <use x="65.482422" xlink:href="#DejaVuSans-45"/>
      <use x="101.566406" xlink:href="#DejaVuSans-80"/>
      <use x="161.869141" xlink:href="#DejaVuSans-71"/>
      <use x="239.359375" xlink:href="#DejaVuSans-68"/>
     </g>
    </g>
    <g id="line2d_83">
     <path d="M 89.481214 309.149062 
L 117.481214 309.149062 
" style="fill:none;stroke:#2ca02c;stroke-linecap:square;stroke-width:3;"/>
    </g>
    <g id="line2d_84"/>
    <g id="text_28">
     <!-- sklearn -->
     <g transform="translate(128.681214 314.049062)scale(0.14 -0.14)">
      <defs>
       <path d="M 9.078125 75.984375 
L 18.109375 75.984375 
L 18.109375 31.109375 
L 44.921875 54.6875 
L 56.390625 54.6875 
L 27.390625 29.109375 
L 57.625 0 
L 45.90625 0 
L 18.109375 26.703125 
L 18.109375 0 
L 9.078125 0 
z
" id="DejaVuSans-107"/>
      </defs>
      <use xlink:href="#DejaVuSans-115"/>
      <use x="52.099609" xlink:href="#DejaVuSans-107"/>
      <use x="110.009766" xlink:href="#DejaVuSans-108"/>
      <use x="137.792969" xlink:href="#DejaVuSans-101"/>
      <use x="199.316406" xlink:href="#DejaVuSans-97"/>
      <use x="260.595703" xlink:href="#DejaVuSans-114"/>
      <use x="299.958984" xlink:href="#DejaVuSans-110"/>
     </g>
    </g>
    <g id="line2d_85">
     <path d="M 89.481214 329.698437 
L 117.481214 329.698437 
" style="fill:none;stroke:#d62728;stroke-linecap:square;stroke-width:3;"/>
    </g>
    <g id="line2d_86"/>
    <g id="text_29">
     <!-- statsmodels -->
     <g transform="translate(128.681214 334.598437)scale(0.14 -0.14)">
      <use xlink:href="#DejaVuSans-115"/>
      <use x="52.099609" xlink:href="#DejaVuSans-116"/>
      <use x="91.308594" xlink:href="#DejaVuSans-97"/>
      <use x="152.587891" xlink:href="#DejaVuSans-116"/>
      <use x="191.796875" xlink:href="#DejaVuSans-115"/>
      <use x="243.896484" xlink:href="#DejaVuSans-109"/>
      <use x="341.308594" xlink:href="#DejaVuSans-111"/>
      <use x="402.490234" xlink:href="#DejaVuSans-100"/>
      <use x="465.966797" xlink:href="#DejaVuSans-101"/>
      <use x="527.490234" xlink:href="#DejaVuSans-108"/>
      <use x="555.273438" xlink:href="#DejaVuSans-115"/>
     </g>
    </g>
   </g>
  </g>
 </g>
 <defs>
  <clipPath id="p38aa19b849">
   <rect height="253.288" width="373.118786" x="76.881214" y="43.44"/>
  </clipPath>
 </defs>
</svg>
