<?xml version="1.0" encoding="utf-8" standalone="no"?>
<!DOCTYPE svg PUBLIC "-//W3C//DTD SVG 1.1//EN"
  "http://www.w3.org/Graphics/SVG/1.1/DTD/svg11.dtd">
<!-- Created with matplotlib (https://matplotlib.org/) -->
<svg height="345.6pt" version="1.1" viewBox="0 0 460.8 345.6" width="460.8pt" xmlns="http://www.w3.org/2000/svg" xmlns:xlink="http://www.w3.org/1999/xlink">
 <metadata>
  <rdf:RDF xmlns:cc="http://creativecommons.org/ns#" xmlns:dc="http://purl.org/dc/elements/1.1/" xmlns:rdf="http://www.w3.org/1999/02/22-rdf-syntax-ns#">
   <cc:Work>
    <dc:type rdf:resource="http://purl.org/dc/dcmitype/StillImage"/>
    <dc:date>2020-12-16T15:44:53.865164</dc:date>
    <dc:format>image/svg+xml</dc:format>
    <dc:creator>
     <cc:Agent>
      <dc:title>Matplotlib v3.3.3, https://matplotlib.org/</dc:title>
     </cc:Agent>
    </dc:creator>
   </cc:Work>
  </rdf:RDF>
 </metadata>
 <defs>
  <style type="text/css">*{stroke-linecap:butt;stroke-linejoin:round;}</style>
 </defs>
 <g id="figure_1">
  <g id="patch_1">
   <path d="M 0 345.6 
L 460.8 345.6 
L 460.8 0 
L 0 0 
z
" style="fill:#ffffff;"/>
  </g>
  <g id="axes_1">
   <g id="patch_2">
    <path d="M 72.196742 296.728 
L 450 296.728 
L 450 43.44 
L 72.196742 43.44 
z
" style="fill:#ffffff;"/>
   </g>
   <g id="PolyCollection_1">
    <defs>
     <path d="M 281.830568 -60.385091 
L 279.516006 -60.385091 
L 278.68302 -60.385091 
L 278.814329 -60.385091 
L 276.801969 -60.385091 
L 276.511634 -60.385091 
L 277.721815 -60.385091 
L 276.4893 -60.385091 
L 276.719581 -60.385091 
L 277.127215 -60.385091 
L 275.303242 -60.385091 
L 271.765836 -60.385091 
L 270.397022 -60.385091 
L 268.029169 -60.385091 
L 268.260639 -60.385091 
L 267.644893 -60.385091 
L 264.497178 -60.385091 
L 263.81143 -60.385091 
L 261.006093 -60.385091 
L 257.826087 -60.385091 
L 258.051003 -60.385091 
L 255.182172 -60.385091 
L 251.039379 -60.385092 
L 246.084339 -60.385092 
L 245.819166 -60.385094 
L 240.985947 -60.385097 
L 233.176738 -60.38511 
L 226.833599 -60.385138 
L 220.30722 -60.385159 
L 220.812964 -60.385188 
L 217.056315 -60.385222 
L 215.213343 -60.385262 
L 214.943156 -60.385311 
L 209.849732 -60.385566 
L 210.144635 -60.386739 
L 200.963362 -60.393562 
L 192.650365 -60.399026 
L 193.504076 -60.400904 
L 187.364822 -60.429527 
L 180.668758 -60.45185 
L 178.276059 -60.463919 
L 178.34455 -60.517714 
L 164.73391 -60.612677 
L 154.978364 -61.064366 
L 153.791834 -61.425407 
L 148.343584 -61.41572 
L 151.813256 -61.443171 
L 133.794831 -63.032432 
L 136.540017 -63.007473 
L 105.106336 -67.69618 
L 124.692929 -67.69618 
L 124.692929 -67.69618 
L 149.252422 -63.007473 
L 143.057198 -63.032432 
L 164.306662 -61.443171 
L 163.086441 -61.41572 
L 165.358063 -61.425407 
L 175.448085 -61.064366 
L 181.555745 -60.612677 
L 186.027334 -60.517714 
L 186.917558 -60.463919 
L 187.727169 -60.45185 
L 195.728103 -60.429527 
L 198.189411 -60.400904 
L 201.153678 -60.399026 
L 203.756962 -60.393562 
L 213.110952 -60.386739 
L 215.83948 -60.385566 
L 217.672682 -60.385311 
L 217.018113 -60.385262 
L 219.420408 -60.385222 
L 221.726142 -60.385188 
L 223.271258 -60.385159 
L 230.331629 -60.385138 
L 237.177427 -60.38511 
L 243.900107 -60.385097 
L 249.308667 -60.385094 
L 251.654429 -60.385092 
L 254.629855 -60.385092 
L 255.734861 -60.385091 
L 259.930255 -60.385091 
L 260.115428 -60.385091 
L 264.456983 -60.385091 
L 265.316078 -60.385091 
L 266.88353 -60.385091 
L 276.398208 -60.385091 
L 271.823495 -60.385091 
L 271.42918 -60.385091 
L 272.739441 -60.385091 
L 274.470443 -60.385091 
L 276.783003 -60.385091 
L 277.97879 -60.385091 
L 277.841874 -60.385091 
L 278.512489 -60.385091 
L 279.130034 -60.385091 
L 278.311834 -60.385091 
L 282.375457 -60.385091 
L 301.541155 -60.385091 
L 286.061266 -60.385091 
L 281.830568 -60.385091 
z
" id="mdc581d87ee" style="stroke:#1f77b4;stroke-opacity:0.3;"/>
    </defs>
    <g clip-path="url(#p259bb5c57a)">
     <use style="fill:#1f77b4;fill-opacity:0.3;stroke:#1f77b4;stroke-opacity:0.3;" x="0" xlink:href="#mdc581d87ee" y="345.6"/>
    </g>
   </g>
   <g id="PolyCollection_2">
    <defs>
     <path d="M 150.477477 -175.469512 
L 124.507216 -175.469512 
L 119.034676 -142.71677 
L 145.958071 -122.433469 
L 156.172079 -108.667244 
L 141.157099 -91.517061 
L 154.250746 -79.098837 
L 161.22433 -70.918288 
L 174.061033 -65.861282 
L 186.212337 -62.282839 
L 197.956032 -60.675936 
L 210.939906 -60.408174 
L 228.407622 -60.38998 
L 241.260114 -60.386655 
L 256.530096 -60.385584 
L 269.914179 -60.385271 
L 281.338972 -60.385155 
L 287.128556 -60.385108 
L 302.167886 -60.385093 
L 315.314278 -60.385091 
L 329.643092 -60.385091 
L 343.909127 -60.385091 
L 358.308473 -60.385091 
L 372.469996 -60.385091 
L 393.102933 -60.385091 
L 421.215537 -60.385091 
L 424.971206 -60.385091 
L 424.971206 -60.385091 
L 395.395602 -60.385091 
L 374.278338 -60.385091 
L 359.078932 -60.385091 
L 345.462303 -60.385091 
L 330.887823 -60.385091 
L 316.285101 -60.385091 
L 302.44371 -60.385093 
L 293.418016 -60.385108 
L 284.259395 -60.385155 
L 270.750888 -60.385271 
L 259.589249 -60.385584 
L 251.386184 -60.386655 
L 236.431815 -60.38998 
L 214.739676 -60.408174 
L 202.972421 -60.675936 
L 198.318586 -62.282839 
L 186.730889 -65.861282 
L 178.984972 -70.918288 
L 168.284652 -79.098837 
L 154.078682 -91.517061 
L 160.076335 -108.667244 
L 161.433975 -122.433469 
L 153.90545 -142.71677 
L 150.477477 -175.469512 
z
" id="m70bbbe0aca" style="stroke:#ff7f0e;stroke-opacity:0.3;"/>
    </defs>
    <g clip-path="url(#p259bb5c57a)">
     <use style="fill:#ff7f0e;fill-opacity:0.3;stroke:#ff7f0e;stroke-opacity:0.3;" x="0" xlink:href="#m70bbbe0aca" y="345.6"/>
    </g>
   </g>
   <g id="PolyCollection_3">
    <defs>
     <path d="M 161.064865 -229.072223 
L 147.18842 -229.072223 
L 155.950384 -157.438452 
L 156.737936 -99.211376 
L 163.236198 -74.774558 
L 169.202642 -63.334906 
L 189.228908 -60.397296 
L 209.903127 -60.385097 
L 227.199053 -60.385091 
L 244.184536 -60.385091 
L 244.335403 -60.385091 
L 242.719787 -60.385091 
L 244.01548 -60.385091 
L 244.306187 -60.385091 
L 245.338783 -60.385091 
L 246.790237 -60.385091 
L 246.790237 -60.385091 
L 246.551184 -60.385091 
L 246.891836 -60.385091 
L 291.68389 -60.385091 
L 248.663773 -60.385091 
L 245.815039 -60.385091 
L 228.083345 -60.385091 
L 216.420621 -60.385097 
L 193.584968 -60.397296 
L 179.752161 -63.334906 
L 171.999071 -74.774558 
L 165.154879 -99.211376 
L 168.393501 -157.438452 
L 161.064865 -229.072223 
z
" id="m1c1c0da4c2" style="stroke:#2ca02c;stroke-opacity:0.3;"/>
    </defs>
    <g clip-path="url(#p259bb5c57a)">
     <use style="fill:#2ca02c;fill-opacity:0.3;stroke:#2ca02c;stroke-opacity:0.3;" x="0" xlink:href="#m1c1c0da4c2" y="345.6"/>
    </g>
   </g>
   <g id="PolyCollection_4">
    <defs>
     <path d="M 323.797863 -262.986338 
L 278.619736 -262.986338 
L 288.148814 -262.986338 
L 298.070543 -262.986338 
L 313.75599 -262.986338 
L 344.436089 -68.448407 
L 361.840547 -60.385091 
L 362.351845 -60.385091 
L 362.036559 -60.385091 
L 361.799301 -60.385091 
L 361.165467 -60.385091 
L 360.642107 -60.385091 
L 365.337036 -60.385091 
L 365.337036 -60.385091 
L 362.026356 -60.385091 
L 362.277145 -60.385091 
L 366.851701 -60.385091 
L 364.600327 -60.385091 
L 367.701045 -60.385091 
L 344.919565 -68.448407 
L 319.09173 -262.986338 
L 301.087309 -262.986338 
L 292.112755 -262.986338 
L 323.797863 -262.986338 
z
" id="m1b5721ebea" style="stroke:#d62728;stroke-opacity:0.3;"/>
    </defs>
    <g clip-path="url(#p259bb5c57a)">
     <use style="fill:#d62728;fill-opacity:0.3;stroke:#d62728;stroke-opacity:0.3;" x="0" xlink:href="#m1b5721ebea" y="345.6"/>
    </g>
   </g>
   <g id="PolyCollection_5">
    <defs>
     <path d="M 284.171173 -290.646909 
L 89.369618 -290.646909 
L 103.586189 -166.90028 
L 112.897728 -128.138196 
L 125.657092 -122.558284 
L 125.187233 -113.110969 
L 141.442182 -103.573198 
L 154.340624 -100.415898 
L 173.962933 -100.415898 
L 196.477272 -77.357041 
L 222.213936 -66.627846 
L 235.671814 -62.594625 
L 253.601371 -60.765294 
L 276.028041 -60.407109 
L 291.842834 -60.386728 
L 308.91644 -60.385097 
L 330.419124 -60.385091 
L 350.99872 -60.385091 
L 370.21227 -60.385091 
L 396.634684 -60.385091 
L 428.968892 -60.385091 
L 432.827125 -60.385091 
L 432.827125 -60.385091 
L 404.156436 -60.385091 
L 372.048508 -60.385091 
L 351.977008 -60.385091 
L 332.284503 -60.385091 
L 310.829639 -60.385097 
L 297.340776 -60.386728 
L 282.077597 -60.407109 
L 278.692905 -60.765294 
L 240.277502 -62.594625 
L 229.887742 -66.627846 
L 212.576209 -77.357041 
L 192.441227 -100.415898 
L 201.556305 -100.415898 
L 161.890985 -103.573198 
L 143.873922 -113.110969 
L 154.42249 -122.558284 
L 159.932384 -128.138196 
L 130.563217 -166.90028 
L 284.171173 -290.646909 
z
" id="m3cf6535e97" style="stroke:#9467bd;stroke-opacity:0.3;"/>
    </defs>
    <g clip-path="url(#p259bb5c57a)">
     <use style="fill:#9467bd;fill-opacity:0.3;stroke:#9467bd;stroke-opacity:0.3;" x="0" xlink:href="#m3cf6535e97" y="345.6"/>
    </g>
   </g>
   <g id="PolyCollection_6">
    <defs>
     <path d="M 258.384165 -290.646909 
L 216.152684 -290.646909 
L 201.352234 -289.534482 
L 206.661245 -289.534482 
L 200.164304 -288.479892 
L 203.487065 -287.480642 
L 208.141 -285.638478 
L 209.627053 -282.515353 
L 209.08328 -278.97022 
L 212.395352 -272.84177 
L 217.38451 -257.970925 
L 225.490481 -239.25117 
L 224.484062 -213.165453 
L 234.465265 -167.933787 
L 245.330705 -126.21202 
L 258.247515 -86.812898 
L 271.903532 -68.939865 
L 288.283941 -62.473256 
L 304.194426 -60.443718 
L 307.482505 -60.385091 
L 306.286433 -60.385091 
L 305.939529 -60.385091 
L 306.467883 -60.385091 
L 314.456226 -60.385091 
L 311.959488 -60.385091 
L 327.259551 -60.385091 
L 327.259551 -60.385091 
L 326.404432 -60.385091 
L 318.896688 -60.385091 
L 313.06752 -60.385091 
L 312.346892 -60.385091 
L 312.335012 -60.385091 
L 311.607825 -60.443718 
L 292.447959 -62.473256 
L 286.569842 -68.939865 
L 261.620198 -86.812898 
L 252.184909 -126.21202 
L 263.511038 -167.933787 
L 237.18542 -213.165453 
L 259.053401 -239.25117 
L 224.28259 -257.970925 
L 256.736771 -272.84177 
L 254.551164 -278.97022 
L 225.947696 -282.515353 
L 252.148225 -285.638478 
L 227.583456 -287.480642 
L 210.620503 -288.479892 
L 267.949833 -289.534482 
L 251.824423 -289.534482 
L 258.384165 -290.646909 
z
" id="ma17c24810e" style="stroke:#8c564b;stroke-opacity:0.3;"/>
    </defs>
    <g clip-path="url(#p259bb5c57a)">
     <use style="fill:#8c564b;fill-opacity:0.3;stroke:#8c564b;stroke-opacity:0.3;" x="0" xlink:href="#ma17c24810e" y="345.6"/>
    </g>
   </g>
   <g id="PolyCollection_7">
    <defs>
     <path d="M 362.079715 -151.333017 
L 237.144321 -151.333017 
L 233.731681 -133.912575 
L 245.252323 -127.749655 
L 232.731086 -123.565031 
L 227.965466 -117.453244 
L 225.555718 -110.896946 
L 237.605863 -104.718711 
L 231.213088 -98.387802 
L 245.873401 -92.388537 
L 246.200371 -86.572233 
L 255.539931 -81.282683 
L 261.13114 -76.349949 
L 271.352323 -72.272863 
L 275.732186 -68.941782 
L 281.906253 -66.096298 
L 289.32028 -63.895574 
L 296.824111 -62.456225 
L 304.885033 -61.624906 
L 319.460404 -61.097225 
L 329.456451 -60.757478 
L 340.877261 -60.545341 
L 355.640305 -60.430687 
L 371.814343 -60.405541 
L 385.222915 -60.394566 
L 400.05462 -60.389468 
L 405.233375 -60.389468 
L 405.233375 -60.389468 
L 393.645521 -60.394566 
L 381.117932 -60.405541 
L 359.555235 -60.430687 
L 363.195829 -60.545341 
L 338.665969 -60.757478 
L 336.356802 -61.097225 
L 311.057392 -61.624906 
L 306.73394 -62.456225 
L 293.003998 -63.895574 
L 285.510256 -66.096298 
L 280.269686 -68.941782 
L 275.753279 -72.272863 
L 269.000616 -76.349949 
L 261.030117 -81.282683 
L 253.292555 -86.572233 
L 248.241827 -92.388537 
L 243.778872 -98.387802 
L 258.184383 -104.718711 
L 256.284924 -110.896946 
L 242.122893 -117.453244 
L 255.528136 -123.565031 
L 253.807783 -127.749655 
L 245.472871 -133.912575 
L 362.079715 -151.333017 
z
" id="m4113fecafb" style="stroke:#e377c2;stroke-opacity:0.3;"/>
    </defs>
    <g clip-path="url(#p259bb5c57a)">
     <use style="fill:#e377c2;fill-opacity:0.3;stroke:#e377c2;stroke-opacity:0.3;" x="0" xlink:href="#m4113fecafb" y="345.6"/>
    </g>
   </g>
   <g id="PolyCollection_8">
    <defs>
     <path d="M 247.539304 -241.71032 
L 192.338321 -241.71032 
L 193.51346 -135.116315 
L 198.339341 -130.659831 
L 201.537449 -121.430142 
L 201.182347 -109.67912 
L 209.052069 -97.113639 
L 215.245593 -87.015663 
L 224.196653 -77.230369 
L 230.328031 -69.645391 
L 240.485679 -64.309623 
L 253.61252 -62.016316 
L 262.552395 -60.996979 
L 271.884174 -60.596153 
L 283.798597 -60.428295 
L 295.576047 -60.395703 
L 308.903711 -60.387422 
L 322.963015 -60.385282 
L 334.437 -60.385098 
L 350.23458 -60.385091 
L 362.079836 -60.385091 
L 364.086899 -60.385091 
L 362.438693 -60.385091 
L 361.457882 -60.385091 
L 361.536389 -60.385091 
L 362.477599 -60.385091 
L 364.529965 -60.385091 
L 364.529965 -60.385091 
L 362.643936 -60.385091 
L 363.180453 -60.385091 
L 365.129138 -60.385091 
L 367.997107 -60.385091 
L 363.023554 -60.385091 
L 352.166982 -60.385091 
L 337.869706 -60.385098 
L 326.823984 -60.385282 
L 311.202646 -60.387422 
L 301.980463 -60.395703 
L 285.567712 -60.428295 
L 280.825815 -60.596153 
L 264.826788 -60.996979 
L 267.648329 -62.016316 
L 243.072948 -64.309623 
L 235.384703 -69.645391 
L 255.850313 -77.230369 
L 217.258056 -87.015663 
L 249.551306 -97.113639 
L 205.030948 -109.67912 
L 210.04715 -121.430142 
L 240.489646 -130.659831 
L 197.763784 -135.116315 
L 247.539304 -241.71032 
z
" id="m8b45ab7d32" style="stroke:#7f7f7f;stroke-opacity:0.3;"/>
    </defs>
    <g clip-path="url(#p259bb5c57a)">
     <use style="fill:#7f7f7f;fill-opacity:0.3;stroke:#7f7f7f;stroke-opacity:0.3;" x="0" xlink:href="#m8b45ab7d32" y="345.6"/>
    </g>
   </g>
   <g id="PolyCollection_9">
    <defs>
     <path d="M 165.865914 -196.795153 
L 152.969733 -196.795153 
L 169.286585 -177.415123 
L 173.820947 -158.207489 
L 177.274798 -141.124347 
L 177.287158 -120.585993 
L 180.899206 -103.150937 
L 182.038995 -96.506088 
L 185.182293 -86.497091 
L 187.340935 -81.110003 
L 191.129018 -79.971299 
L 195.58199 -80.967083 
L 200.052994 -80.493639 
L 204.850762 -80.342879 
L 213.542292 -79.483559 
L 221.908475 -79.428849 
L 231.822653 -78.158241 
L 244.074701 -84.073751 
L 257.071214 -82.94232 
L 269.796377 -83.058673 
L 276.027436 -82.47728 
L 285.3431 -82.454532 
L 295.104327 -81.529587 
L 305.277684 -79.877324 
L 317.10949 -79.774699 
L 329.364753 -78.718364 
L 345.103852 -81.355988 
L 357.100969 -82.707953 
L 372.707031 -79.512038 
L 388.538799 -80.094505 
L 402.223149 -78.88583 
L 403.996592 -78.88583 
L 403.996592 -78.88583 
L 390.562475 -80.094505 
L 377.085187 -79.512038 
L 363.3082 -82.707953 
L 348.481013 -81.355988 
L 332.272708 -78.718364 
L 320.127898 -79.774699 
L 312.280717 -79.877324 
L 315.228104 -81.529587 
L 293.900589 -82.454532 
L 283.056926 -82.47728 
L 273.627537 -83.058673 
L 259.069707 -82.94232 
L 246.41839 -84.073751 
L 234.152877 -78.158241 
L 223.735645 -79.428849 
L 214.568177 -79.483559 
L 209.667308 -80.342879 
L 203.693164 -80.493639 
L 198.562505 -80.967083 
L 195.973183 -79.971299 
L 192.999425 -81.110003 
L 188.149756 -86.497091 
L 186.65016 -96.506088 
L 184.702168 -103.150937 
L 184.197469 -120.585993 
L 183.388219 -141.124347 
L 183.324641 -158.207489 
L 176.553887 -177.415123 
L 165.865914 -196.795153 
z
" id="mfc5ffa0ca0" style="stroke:#bcbd22;stroke-opacity:0.3;"/>
    </defs>
    <g clip-path="url(#p259bb5c57a)">
     <use style="fill:#bcbd22;fill-opacity:0.3;stroke:#bcbd22;stroke-opacity:0.3;" x="0" xlink:href="#mfc5ffa0ca0" y="345.6"/>
    </g>
   </g>
   <g id="PolyCollection_10">
    <defs>
     <path d="M 225.831308 -151.333017 
L 216.783933 -151.333017 
L 213.815791 -133.912575 
L 218.232848 -127.749655 
L 215.422456 -123.565031 
L 217.322086 -117.453244 
L 217.179612 -110.896946 
L 217.191754 -104.718711 
L 219.980311 -98.387802 
L 220.598145 -92.388537 
L 225.139167 -86.572233 
L 227.44555 -81.282683 
L 233.27849 -76.349949 
L 239.66188 -72.272863 
L 247.684732 -68.941782 
L 257.026919 -66.096298 
L 263.61313 -63.895574 
L 272.952376 -62.456225 
L 285.634088 -61.624906 
L 297.086365 -61.097225 
L 308.52046 -60.757478 
L 321.942041 -60.545341 
L 340.869738 -60.430687 
L 354.996373 -60.405541 
L 369.778236 -60.394566 
L 389.044779 -60.389468 
L 403.201597 -60.387243 
L 406.820082 -60.387243 
L 406.820082 -60.387243 
L 393.438929 -60.389468 
L 376.533664 -60.394566 
L 361.031486 -60.405541 
L 349.398438 -60.430687 
L 340.803219 -60.545341 
L 311.288522 -60.757478 
L 299.817427 -61.097225 
L 289.566009 -61.624906 
L 276.770678 -62.456225 
L 267.004926 -63.895574 
L 259.096681 -66.096298 
L 252.241132 -68.941782 
L 241.478353 -72.272863 
L 237.607586 -76.349949 
L 230.876641 -81.282683 
L 226.637063 -86.572233 
L 225.95784 -92.388537 
L 223.704568 -98.387802 
L 220.795321 -104.718711 
L 219.626637 -110.896946 
L 225.844435 -117.453244 
L 219.459704 -123.565031 
L 219.043905 -127.749655 
L 218.783659 -133.912575 
L 225.831308 -151.333017 
z
" id="m817754f31c" style="stroke:#17becf;stroke-opacity:0.3;"/>
    </defs>
    <g clip-path="url(#p259bb5c57a)">
     <use style="fill:#17becf;fill-opacity:0.3;stroke:#17becf;stroke-opacity:0.3;" x="0" xlink:href="#m817754f31c" y="345.6"/>
    </g>
   </g>
   <g id="PolyCollection_11">
    <defs>
     <path d="M 224.275871 -151.333017 
L 220.035369 -151.333017 
L 223.656511 -133.912575 
L 222.763887 -126.379386 
L 225.488207 -120.700946 
L 224.545801 -111.341333 
L 225.648022 -100.582568 
L 226.448984 -91.028757 
L 227.459412 -82.004091 
L 229.435469 -73.782224 
L 232.885789 -67.616542 
L 235.648766 -63.357068 
L 241.957196 -61.519848 
L 249.234271 -60.754004 
L 255.867204 -60.459893 
L 264.919432 -60.400858 
L 272.436386 -60.387884 
L 283.149088 -60.38565 
L 295.000672 -60.385273 
L 308.700219 -60.385117 
L 320.442705 -60.385098 
L 333.712068 -60.385093 
L 349.464846 -60.385091 
L 364.90444 -60.385091 
L 380.880415 -60.385091 
L 394.246065 -60.385091 
L 410.171688 -60.385091 
L 411.384217 -60.385091 
L 411.384217 -60.385091 
L 399.244585 -60.385091 
L 387.354589 -60.385091 
L 366.790069 -60.385091 
L 354.66392 -60.385091 
L 340.559592 -60.385093 
L 326.78429 -60.385098 
L 309.894639 -60.385117 
L 303.770394 -60.385273 
L 284.666359 -60.38565 
L 275.123114 -60.387884 
L 266.87216 -60.400858 
L 258.472533 -60.459893 
L 251.616373 -60.754004 
L 245.202418 -61.519848 
L 238.76301 -63.357068 
L 235.673398 -67.616542 
L 232.427571 -73.782224 
L 229.160975 -82.004091 
L 229.583269 -91.028757 
L 228.152373 -100.582568 
L 227.252962 -111.341333 
L 226.270367 -120.700946 
L 224.233855 -126.379386 
L 226.976343 -133.912575 
L 224.275871 -151.333017 
z
" id="m819de7e5fa" style="stroke:#1f77b4;stroke-opacity:0.3;"/>
    </defs>
    <g clip-path="url(#p259bb5c57a)">
     <use style="fill:#1f77b4;fill-opacity:0.3;stroke:#1f77b4;stroke-opacity:0.3;" x="0" xlink:href="#m819de7e5fa" y="345.6"/>
    </g>
   </g>
   <g id="PolyCollection_12">
    <defs>
     <path d="M 254.203694 -151.333017 
L 246.961653 -151.333017 
L 253.11371 -133.912575 
L 259.043085 -127.749655 
L 264.721231 -123.565031 
L 270.376285 -117.453244 
L 281.489182 -110.896946 
L 292.505539 -104.718711 
L 302.234824 -98.387802 
L 314.83868 -92.388537 
L 330.179284 -86.572233 
L 344.543075 -81.282683 
L 358.632709 -76.349949 
L 372.214076 -72.272863 
L 388.020381 -68.941782 
L 402.360072 -66.096298 
L 417.307042 -63.895574 
L 417.307042 -63.895574 
L 417.307042 -63.895574 
L 403.565184 -66.096298 
L 389.236522 -68.941782 
L 374.096151 -72.272863 
L 360.220195 -76.349949 
L 345.43158 -81.282683 
L 340.397805 -86.572233 
L 316.894282 -92.388537 
L 305.989042 -98.387802 
L 302.507844 -104.718711 
L 285.154998 -110.896946 
L 274.716597 -117.453244 
L 271.892228 -123.565031 
L 265.482884 -127.749655 
L 260.504379 -133.912575 
L 254.203694 -151.333017 
z
" id="m230be7ada2" style="stroke:#ff7f0e;stroke-opacity:0.3;"/>
    </defs>
    <g clip-path="url(#p259bb5c57a)">
     <use style="fill:#ff7f0e;fill-opacity:0.3;stroke:#ff7f0e;stroke-opacity:0.3;" x="0" xlink:href="#m230be7ada2" y="345.6"/>
    </g>
   </g>
   <g id="PolyCollection_13">
    <defs>
     <path d="M 161.496916 -175.469512 
L 153.354371 -175.469512 
L 158.369125 -142.71677 
L 156.165147 -122.433469 
L 154.292276 -108.667244 
L 163.742076 -91.517061 
L 166.302448 -79.098837 
L 172.205814 -70.918288 
L 180.759475 -65.861282 
L 187.982324 -62.282839 
L 195.550952 -60.675936 
L 209.719434 -60.408174 
L 218.860963 -60.38998 
L 233.074517 -60.386655 
L 249.962375 -60.385584 
L 261.781442 -60.385271 
L 276.495825 -60.385155 
L 287.864743 -60.385108 
L 299.449998 -60.385093 
L 312.699081 -60.385091 
L 325.28244 -60.385091 
L 334.940326 -60.385091 
L 350.806013 -60.385091 
L 365.81229 -60.385091 
L 389.036621 -60.385091 
L 413.930329 -60.385091 
L 419.206595 -60.385091 
L 419.206595 -60.385091 
L 395.836743 -60.385091 
L 369.938445 -60.385091 
L 354.672982 -60.385091 
L 342.347211 -60.385091 
L 329.387538 -60.385091 
L 333.207749 -60.385091 
L 300.651848 -60.385093 
L 289.165462 -60.385108 
L 277.858063 -60.385155 
L 263.665285 -60.385271 
L 252.079674 -60.385584 
L 239.082821 -60.386655 
L 222.796502 -60.38998 
L 211.758857 -60.408174 
L 200.966233 -60.675936 
L 193.129028 -62.282839 
L 184.078759 -65.861282 
L 180.945996 -70.918288 
L 169.214667 -79.098837 
L 176.894567 -91.517061 
L 164.948131 -108.667244 
L 158.710112 -122.433469 
L 164.302395 -142.71677 
L 161.496916 -175.469512 
z
" id="ma88e79736d" style="stroke:#2ca02c;stroke-opacity:0.3;"/>
    </defs>
    <g clip-path="url(#p259bb5c57a)">
     <use style="fill:#2ca02c;fill-opacity:0.3;stroke:#2ca02c;stroke-opacity:0.3;" x="0" xlink:href="#ma88e79736d" y="345.6"/>
    </g>
   </g>
   <g id="PolyCollection_14">
    <defs>
     <path d="M 355.06014 -175.469512 
L 353.26564 -175.469512 
L 375.315236 -142.71677 
L 377.699296 -121.525531 
L 379.200347 -109.167366 
L 383.945845 -95.873942 
L 385.844343 -89.340356 
L 386.811507 -87.431893 
L 386.811507 -87.431893 
L 386.811507 -87.431893 
L 387.885646 -89.340356 
L 386.448297 -95.873942 
L 381.858776 -109.167366 
L 379.895082 -121.525531 
L 376.493587 -142.71677 
L 355.06014 -175.469512 
z
" id="m14c54dc386" style="stroke:#d62728;stroke-opacity:0.3;"/>
    </defs>
    <g clip-path="url(#p259bb5c57a)">
     <use style="fill:#d62728;fill-opacity:0.3;stroke:#d62728;stroke-opacity:0.3;" x="0" xlink:href="#m14c54dc386" y="345.6"/>
    </g>
   </g>
   <g id="matplotlib.axis_1">
    <g id="xtick_1">
     <g id="line2d_1">
      <defs>
       <path d="M 0 0 
L 0 3.5 
" id="m5dc7a43853" style="stroke:#000000;stroke-width:0.8;"/>
      </defs>
      <g>
       <use style="stroke:#000000;stroke-width:0.8;" x="79.198925" xlink:href="#m5dc7a43853" y="296.728"/>
      </g>
     </g>
     <g id="text_1">
      <!-- $\mathdefault{10^{-3}}$ -->
      <g transform="translate(67.448925 311.326437)scale(0.1 -0.1)">
       <defs>
        <path d="M 12.40625 8.296875 
L 28.515625 8.296875 
L 28.515625 63.921875 
L 10.984375 60.40625 
L 10.984375 69.390625 
L 28.421875 72.90625 
L 38.28125 72.90625 
L 38.28125 8.296875 
L 54.390625 8.296875 
L 54.390625 0 
L 12.40625 0 
z
" id="DejaVuSans-49"/>
        <path d="M 31.78125 66.40625 
Q 24.171875 66.40625 20.328125 58.90625 
Q 16.5 51.421875 16.5 36.375 
Q 16.5 21.390625 20.328125 13.890625 
Q 24.171875 6.390625 31.78125 6.390625 
Q 39.453125 6.390625 43.28125 13.890625 
Q 47.125 21.390625 47.125 36.375 
Q 47.125 51.421875 43.28125 58.90625 
Q 39.453125 66.40625 31.78125 66.40625 
z
M 31.78125 74.21875 
Q 44.046875 74.21875 50.515625 64.515625 
Q 56.984375 54.828125 56.984375 36.375 
Q 56.984375 17.96875 50.515625 8.265625 
Q 44.046875 -1.421875 31.78125 -1.421875 
Q 19.53125 -1.421875 13.0625 8.265625 
Q 6.59375 17.96875 6.59375 36.375 
Q 6.59375 54.828125 13.0625 64.515625 
Q 19.53125 74.21875 31.78125 74.21875 
z
" id="DejaVuSans-48"/>
        <path d="M 10.59375 35.5 
L 73.1875 35.5 
L 73.1875 27.203125 
L 10.59375 27.203125 
z
" id="DejaVuSans-8722"/>
        <path d="M 40.578125 39.3125 
Q 47.65625 37.796875 51.625 33 
Q 55.609375 28.21875 55.609375 21.1875 
Q 55.609375 10.40625 48.1875 4.484375 
Q 40.765625 -1.421875 27.09375 -1.421875 
Q 22.515625 -1.421875 17.65625 -0.515625 
Q 12.796875 0.390625 7.625 2.203125 
L 7.625 11.71875 
Q 11.71875 9.328125 16.59375 8.109375 
Q 21.484375 6.890625 26.8125 6.890625 
Q 36.078125 6.890625 40.9375 10.546875 
Q 45.796875 14.203125 45.796875 21.1875 
Q 45.796875 27.640625 41.28125 31.265625 
Q 36.765625 34.90625 28.71875 34.90625 
L 20.21875 34.90625 
L 20.21875 43.015625 
L 29.109375 43.015625 
Q 36.375 43.015625 40.234375 45.921875 
Q 44.09375 48.828125 44.09375 54.296875 
Q 44.09375 59.90625 40.109375 62.90625 
Q 36.140625 65.921875 28.71875 65.921875 
Q 24.65625 65.921875 20.015625 65.03125 
Q 15.375 64.15625 9.8125 62.3125 
L 9.8125 71.09375 
Q 15.4375 72.65625 20.34375 73.4375 
Q 25.25 74.21875 29.59375 74.21875 
Q 40.828125 74.21875 47.359375 69.109375 
Q 53.90625 64.015625 53.90625 55.328125 
Q 53.90625 49.265625 50.4375 45.09375 
Q 46.96875 40.921875 40.578125 39.3125 
z
" id="DejaVuSans-51"/>
       </defs>
       <use transform="translate(0 0.765625)" xlink:href="#DejaVuSans-49"/>
       <use transform="translate(63.623047 0.765625)" xlink:href="#DejaVuSans-48"/>
       <use transform="translate(128.203125 39.046875)scale(0.7)" xlink:href="#DejaVuSans-8722"/>
       <use transform="translate(186.855469 39.046875)scale(0.7)" xlink:href="#DejaVuSans-51"/>
      </g>
     </g>
    </g>
    <g id="xtick_2">
     <g id="line2d_2">
      <g>
       <use style="stroke:#000000;stroke-width:0.8;" x="164.520091" xlink:href="#m5dc7a43853" y="296.728"/>
      </g>
     </g>
     <g id="text_2">
      <!-- $\mathdefault{10^{-2}}$ -->
      <g transform="translate(152.770091 311.326437)scale(0.1 -0.1)">
       <defs>
        <path d="M 19.1875 8.296875 
L 53.609375 8.296875 
L 53.609375 0 
L 7.328125 0 
L 7.328125 8.296875 
Q 12.9375 14.109375 22.625 23.890625 
Q 32.328125 33.6875 34.8125 36.53125 
Q 39.546875 41.84375 41.421875 45.53125 
Q 43.3125 49.21875 43.3125 52.78125 
Q 43.3125 58.59375 39.234375 62.25 
Q 35.15625 65.921875 28.609375 65.921875 
Q 23.96875 65.921875 18.8125 64.3125 
Q 13.671875 62.703125 7.8125 59.421875 
L 7.8125 69.390625 
Q 13.765625 71.78125 18.9375 73 
Q 24.125 74.21875 28.421875 74.21875 
Q 39.75 74.21875 46.484375 68.546875 
Q 53.21875 62.890625 53.21875 53.421875 
Q 53.21875 48.921875 51.53125 44.890625 
Q 49.859375 40.875 45.40625 35.40625 
Q 44.1875 33.984375 37.640625 27.21875 
Q 31.109375 20.453125 19.1875 8.296875 
z
" id="DejaVuSans-50"/>
       </defs>
       <use transform="translate(0 0.765625)" xlink:href="#DejaVuSans-49"/>
       <use transform="translate(63.623047 0.765625)" xlink:href="#DejaVuSans-48"/>
       <use transform="translate(128.203125 39.046875)scale(0.7)" xlink:href="#DejaVuSans-8722"/>
       <use transform="translate(186.855469 39.046875)scale(0.7)" xlink:href="#DejaVuSans-50"/>
      </g>
     </g>
    </g>
    <g id="xtick_3">
     <g id="line2d_3">
      <g>
       <use style="stroke:#000000;stroke-width:0.8;" x="249.841257" xlink:href="#m5dc7a43853" y="296.728"/>
      </g>
     </g>
     <g id="text_3">
      <!-- $\mathdefault{10^{-1}}$ -->
      <g transform="translate(238.091257 311.326437)scale(0.1 -0.1)">
       <use transform="translate(0 0.684375)" xlink:href="#DejaVuSans-49"/>
       <use transform="translate(63.623047 0.684375)" xlink:href="#DejaVuSans-48"/>
       <use transform="translate(128.203125 38.965625)scale(0.7)" xlink:href="#DejaVuSans-8722"/>
       <use transform="translate(186.855469 38.965625)scale(0.7)" xlink:href="#DejaVuSans-49"/>
      </g>
     </g>
    </g>
    <g id="xtick_4">
     <g id="line2d_4">
      <g>
       <use style="stroke:#000000;stroke-width:0.8;" x="335.162422" xlink:href="#m5dc7a43853" y="296.728"/>
      </g>
     </g>
     <g id="text_4">
      <!-- $\mathdefault{10^{0}}$ -->
      <g transform="translate(326.362422 311.326437)scale(0.1 -0.1)">
       <use transform="translate(0 0.765625)" xlink:href="#DejaVuSans-49"/>
       <use transform="translate(63.623047 0.765625)" xlink:href="#DejaVuSans-48"/>
       <use transform="translate(128.203125 39.046875)scale(0.7)" xlink:href="#DejaVuSans-48"/>
      </g>
     </g>
    </g>
    <g id="xtick_5">
     <g id="line2d_5">
      <g>
       <use style="stroke:#000000;stroke-width:0.8;" x="420.483588" xlink:href="#m5dc7a43853" y="296.728"/>
      </g>
     </g>
     <g id="text_5">
      <!-- $\mathdefault{10^{1}}$ -->
      <g transform="translate(411.683588 311.326437)scale(0.1 -0.1)">
       <use transform="translate(0 0.684375)" xlink:href="#DejaVuSans-49"/>
       <use transform="translate(63.623047 0.684375)" xlink:href="#DejaVuSans-48"/>
       <use transform="translate(128.203125 38.965625)scale(0.7)" xlink:href="#DejaVuSans-49"/>
      </g>
     </g>
    </g>
    <g id="xtick_6">
     <g id="line2d_6">
      <defs>
       <path d="M 0 0 
L 0 2 
" id="m2fab6f9ec7" style="stroke:#000000;stroke-width:0.6;"/>
      </defs>
      <g>
       <use style="stroke:#000000;stroke-width:0.6;" x="75.294843" xlink:href="#m2fab6f9ec7" y="296.728"/>
      </g>
     </g>
    </g>
    <g id="xtick_7">
     <g id="line2d_7">
      <g>
       <use style="stroke:#000000;stroke-width:0.6;" x="104.883155" xlink:href="#m2fab6f9ec7" y="296.728"/>
      </g>
     </g>
    </g>
    <g id="xtick_8">
     <g id="line2d_8">
      <g>
       <use style="stroke:#000000;stroke-width:0.6;" x="119.907467" xlink:href="#m2fab6f9ec7" y="296.728"/>
      </g>
     </g>
    </g>
    <g id="xtick_9">
     <g id="line2d_9">
      <g>
       <use style="stroke:#000000;stroke-width:0.6;" x="130.567385" xlink:href="#m2fab6f9ec7" y="296.728"/>
      </g>
     </g>
    </g>
    <g id="xtick_10">
     <g id="line2d_10">
      <g>
       <use style="stroke:#000000;stroke-width:0.6;" x="138.835861" xlink:href="#m2fab6f9ec7" y="296.728"/>
      </g>
     </g>
    </g>
    <g id="xtick_11">
     <g id="line2d_11">
      <g>
       <use style="stroke:#000000;stroke-width:0.6;" x="145.591697" xlink:href="#m2fab6f9ec7" y="296.728"/>
      </g>
     </g>
    </g>
    <g id="xtick_12">
     <g id="line2d_12">
      <g>
       <use style="stroke:#000000;stroke-width:0.6;" x="151.303675" xlink:href="#m2fab6f9ec7" y="296.728"/>
      </g>
     </g>
    </g>
    <g id="xtick_13">
     <g id="line2d_13">
      <g>
       <use style="stroke:#000000;stroke-width:0.6;" x="156.251616" xlink:href="#m2fab6f9ec7" y="296.728"/>
      </g>
     </g>
    </g>
    <g id="xtick_14">
     <g id="line2d_14">
      <g>
       <use style="stroke:#000000;stroke-width:0.6;" x="160.616008" xlink:href="#m2fab6f9ec7" y="296.728"/>
      </g>
     </g>
    </g>
    <g id="xtick_15">
     <g id="line2d_15">
      <g>
       <use style="stroke:#000000;stroke-width:0.6;" x="190.204321" xlink:href="#m2fab6f9ec7" y="296.728"/>
      </g>
     </g>
    </g>
    <g id="xtick_16">
     <g id="line2d_16">
      <g>
       <use style="stroke:#000000;stroke-width:0.6;" x="205.228632" xlink:href="#m2fab6f9ec7" y="296.728"/>
      </g>
     </g>
    </g>
    <g id="xtick_17">
     <g id="line2d_17">
      <g>
       <use style="stroke:#000000;stroke-width:0.6;" x="215.888551" xlink:href="#m2fab6f9ec7" y="296.728"/>
      </g>
     </g>
    </g>
    <g id="xtick_18">
     <g id="line2d_18">
      <g>
       <use style="stroke:#000000;stroke-width:0.6;" x="224.157026" xlink:href="#m2fab6f9ec7" y="296.728"/>
      </g>
     </g>
    </g>
    <g id="xtick_19">
     <g id="line2d_19">
      <g>
       <use style="stroke:#000000;stroke-width:0.6;" x="230.912863" xlink:href="#m2fab6f9ec7" y="296.728"/>
      </g>
     </g>
    </g>
    <g id="xtick_20">
     <g id="line2d_20">
      <g>
       <use style="stroke:#000000;stroke-width:0.6;" x="236.624841" xlink:href="#m2fab6f9ec7" y="296.728"/>
      </g>
     </g>
    </g>
    <g id="xtick_21">
     <g id="line2d_21">
      <g>
       <use style="stroke:#000000;stroke-width:0.6;" x="241.572781" xlink:href="#m2fab6f9ec7" y="296.728"/>
      </g>
     </g>
    </g>
    <g id="xtick_22">
     <g id="line2d_22">
      <g>
       <use style="stroke:#000000;stroke-width:0.6;" x="245.937174" xlink:href="#m2fab6f9ec7" y="296.728"/>
      </g>
     </g>
    </g>
    <g id="xtick_23">
     <g id="line2d_23">
      <g>
       <use style="stroke:#000000;stroke-width:0.6;" x="275.525487" xlink:href="#m2fab6f9ec7" y="296.728"/>
      </g>
     </g>
    </g>
    <g id="xtick_24">
     <g id="line2d_24">
      <g>
       <use style="stroke:#000000;stroke-width:0.6;" x="290.549798" xlink:href="#m2fab6f9ec7" y="296.728"/>
      </g>
     </g>
    </g>
    <g id="xtick_25">
     <g id="line2d_25">
      <g>
       <use style="stroke:#000000;stroke-width:0.6;" x="301.209717" xlink:href="#m2fab6f9ec7" y="296.728"/>
      </g>
     </g>
    </g>
    <g id="xtick_26">
     <g id="line2d_26">
      <g>
       <use style="stroke:#000000;stroke-width:0.6;" x="309.478192" xlink:href="#m2fab6f9ec7" y="296.728"/>
      </g>
     </g>
    </g>
    <g id="xtick_27">
     <g id="line2d_27">
      <g>
       <use style="stroke:#000000;stroke-width:0.6;" x="316.234028" xlink:href="#m2fab6f9ec7" y="296.728"/>
      </g>
     </g>
    </g>
    <g id="xtick_28">
     <g id="line2d_28">
      <g>
       <use style="stroke:#000000;stroke-width:0.6;" x="321.946006" xlink:href="#m2fab6f9ec7" y="296.728"/>
      </g>
     </g>
    </g>
    <g id="xtick_29">
     <g id="line2d_29">
      <g>
       <use style="stroke:#000000;stroke-width:0.6;" x="326.893947" xlink:href="#m2fab6f9ec7" y="296.728"/>
      </g>
     </g>
    </g>
    <g id="xtick_30">
     <g id="line2d_30">
      <g>
       <use style="stroke:#000000;stroke-width:0.6;" x="331.25834" xlink:href="#m2fab6f9ec7" y="296.728"/>
      </g>
     </g>
    </g>
    <g id="xtick_31">
     <g id="line2d_31">
      <g>
       <use style="stroke:#000000;stroke-width:0.6;" x="360.846652" xlink:href="#m2fab6f9ec7" y="296.728"/>
      </g>
     </g>
    </g>
    <g id="xtick_32">
     <g id="line2d_32">
      <g>
       <use style="stroke:#000000;stroke-width:0.6;" x="375.870964" xlink:href="#m2fab6f9ec7" y="296.728"/>
      </g>
     </g>
    </g>
    <g id="xtick_33">
     <g id="line2d_33">
      <g>
       <use style="stroke:#000000;stroke-width:0.6;" x="386.530883" xlink:href="#m2fab6f9ec7" y="296.728"/>
      </g>
     </g>
    </g>
    <g id="xtick_34">
     <g id="line2d_34">
      <g>
       <use style="stroke:#000000;stroke-width:0.6;" x="394.799358" xlink:href="#m2fab6f9ec7" y="296.728"/>
      </g>
     </g>
    </g>
    <g id="xtick_35">
     <g id="line2d_35">
      <g>
       <use style="stroke:#000000;stroke-width:0.6;" x="401.555194" xlink:href="#m2fab6f9ec7" y="296.728"/>
      </g>
     </g>
    </g>
    <g id="xtick_36">
     <g id="line2d_36">
      <g>
       <use style="stroke:#000000;stroke-width:0.6;" x="407.267172" xlink:href="#m2fab6f9ec7" y="296.728"/>
      </g>
     </g>
    </g>
    <g id="xtick_37">
     <g id="line2d_37">
      <g>
       <use style="stroke:#000000;stroke-width:0.6;" x="412.215113" xlink:href="#m2fab6f9ec7" y="296.728"/>
      </g>
     </g>
    </g>
    <g id="xtick_38">
     <g id="line2d_38">
      <g>
       <use style="stroke:#000000;stroke-width:0.6;" x="416.579505" xlink:href="#m2fab6f9ec7" y="296.728"/>
      </g>
     </g>
    </g>
    <g id="xtick_39">
     <g id="line2d_39">
      <g>
       <use style="stroke:#000000;stroke-width:0.6;" x="446.167818" xlink:href="#m2fab6f9ec7" y="296.728"/>
      </g>
     </g>
    </g>
    <g id="text_6">
     <!-- Time [sec] -->
     <g transform="translate(224.481809 328.043937)scale(0.14 -0.14)">
      <defs>
       <path d="M -0.296875 72.90625 
L 61.375 72.90625 
L 61.375 64.59375 
L 35.5 64.59375 
L 35.5 0 
L 25.59375 0 
L 25.59375 64.59375 
L -0.296875 64.59375 
z
" id="DejaVuSans-84"/>
       <path d="M 9.421875 54.6875 
L 18.40625 54.6875 
L 18.40625 0 
L 9.421875 0 
z
M 9.421875 75.984375 
L 18.40625 75.984375 
L 18.40625 64.59375 
L 9.421875 64.59375 
z
" id="DejaVuSans-105"/>
       <path d="M 52 44.1875 
Q 55.375 50.25 60.0625 53.125 
Q 64.75 56 71.09375 56 
Q 79.640625 56 84.28125 50.015625 
Q 88.921875 44.046875 88.921875 33.015625 
L 88.921875 0 
L 79.890625 0 
L 79.890625 32.71875 
Q 79.890625 40.578125 77.09375 44.375 
Q 74.3125 48.1875 68.609375 48.1875 
Q 61.625 48.1875 57.5625 43.546875 
Q 53.515625 38.921875 53.515625 30.90625 
L 53.515625 0 
L 44.484375 0 
L 44.484375 32.71875 
Q 44.484375 40.625 41.703125 44.40625 
Q 38.921875 48.1875 33.109375 48.1875 
Q 26.21875 48.1875 22.15625 43.53125 
Q 18.109375 38.875 18.109375 30.90625 
L 18.109375 0 
L 9.078125 0 
L 9.078125 54.6875 
L 18.109375 54.6875 
L 18.109375 46.1875 
Q 21.1875 51.21875 25.484375 53.609375 
Q 29.78125 56 35.6875 56 
Q 41.65625 56 45.828125 52.96875 
Q 50 49.953125 52 44.1875 
z
" id="DejaVuSans-109"/>
       <path d="M 56.203125 29.59375 
L 56.203125 25.203125 
L 14.890625 25.203125 
Q 15.484375 15.921875 20.484375 11.0625 
Q 25.484375 6.203125 34.421875 6.203125 
Q 39.59375 6.203125 44.453125 7.46875 
Q 49.3125 8.734375 54.109375 11.28125 
L 54.109375 2.78125 
Q 49.265625 0.734375 44.1875 -0.34375 
Q 39.109375 -1.421875 33.890625 -1.421875 
Q 20.796875 -1.421875 13.15625 6.1875 
Q 5.515625 13.8125 5.515625 26.8125 
Q 5.515625 40.234375 12.765625 48.109375 
Q 20.015625 56 32.328125 56 
Q 43.359375 56 49.78125 48.890625 
Q 56.203125 41.796875 56.203125 29.59375 
z
M 47.21875 32.234375 
Q 47.125 39.59375 43.09375 43.984375 
Q 39.0625 48.390625 32.421875 48.390625 
Q 24.90625 48.390625 20.390625 44.140625 
Q 15.875 39.890625 15.1875 32.171875 
z
" id="DejaVuSans-101"/>
       <path id="DejaVuSans-32"/>
       <path d="M 8.59375 75.984375 
L 29.296875 75.984375 
L 29.296875 69 
L 17.578125 69 
L 17.578125 -6.203125 
L 29.296875 -6.203125 
L 29.296875 -13.1875 
L 8.59375 -13.1875 
z
" id="DejaVuSans-91"/>
       <path d="M 44.28125 53.078125 
L 44.28125 44.578125 
Q 40.484375 46.53125 36.375 47.5 
Q 32.28125 48.484375 27.875 48.484375 
Q 21.1875 48.484375 17.84375 46.4375 
Q 14.5 44.390625 14.5 40.28125 
Q 14.5 37.15625 16.890625 35.375 
Q 19.28125 33.59375 26.515625 31.984375 
L 29.59375 31.296875 
Q 39.15625 29.25 43.1875 25.515625 
Q 47.21875 21.78125 47.21875 15.09375 
Q 47.21875 7.46875 41.1875 3.015625 
Q 35.15625 -1.421875 24.609375 -1.421875 
Q 20.21875 -1.421875 15.453125 -0.5625 
Q 10.6875 0.296875 5.421875 2 
L 5.421875 11.28125 
Q 10.40625 8.6875 15.234375 7.390625 
Q 20.0625 6.109375 24.8125 6.109375 
Q 31.15625 6.109375 34.5625 8.28125 
Q 37.984375 10.453125 37.984375 14.40625 
Q 37.984375 18.0625 35.515625 20.015625 
Q 33.0625 21.96875 24.703125 23.78125 
L 21.578125 24.515625 
Q 13.234375 26.265625 9.515625 29.90625 
Q 5.8125 33.546875 5.8125 39.890625 
Q 5.8125 47.609375 11.28125 51.796875 
Q 16.75 56 26.8125 56 
Q 31.78125 56 36.171875 55.265625 
Q 40.578125 54.546875 44.28125 53.078125 
z
" id="DejaVuSans-115"/>
       <path d="M 48.78125 52.59375 
L 48.78125 44.1875 
Q 44.96875 46.296875 41.140625 47.34375 
Q 37.3125 48.390625 33.40625 48.390625 
Q 24.65625 48.390625 19.8125 42.84375 
Q 14.984375 37.3125 14.984375 27.296875 
Q 14.984375 17.28125 19.8125 11.734375 
Q 24.65625 6.203125 33.40625 6.203125 
Q 37.3125 6.203125 41.140625 7.25 
Q 44.96875 8.296875 48.78125 10.40625 
L 48.78125 2.09375 
Q 45.015625 0.34375 40.984375 -0.53125 
Q 36.96875 -1.421875 32.421875 -1.421875 
Q 20.0625 -1.421875 12.78125 6.34375 
Q 5.515625 14.109375 5.515625 27.296875 
Q 5.515625 40.671875 12.859375 48.328125 
Q 20.21875 56 33.015625 56 
Q 37.15625 56 41.109375 55.140625 
Q 45.0625 54.296875 48.78125 52.59375 
z
" id="DejaVuSans-99"/>
       <path d="M 30.421875 75.984375 
L 30.421875 -13.1875 
L 9.71875 -13.1875 
L 9.71875 -6.203125 
L 21.390625 -6.203125 
L 21.390625 69 
L 9.71875 69 
L 9.71875 75.984375 
z
" id="DejaVuSans-93"/>
      </defs>
      <use xlink:href="#DejaVuSans-84"/>
      <use x="57.958984" xlink:href="#DejaVuSans-105"/>
      <use x="85.742188" xlink:href="#DejaVuSans-109"/>
      <use x="183.154297" xlink:href="#DejaVuSans-101"/>
      <use x="244.677734" xlink:href="#DejaVuSans-32"/>
      <use x="276.464844" xlink:href="#DejaVuSans-91"/>
      <use x="315.478516" xlink:href="#DejaVuSans-115"/>
      <use x="367.578125" xlink:href="#DejaVuSans-101"/>
      <use x="429.101562" xlink:href="#DejaVuSans-99"/>
      <use x="484.082031" xlink:href="#DejaVuSans-93"/>
     </g>
    </g>
   </g>
   <g id="matplotlib.axis_2">
    <g id="ytick_1">
     <g id="line2d_40">
      <defs>
       <path d="M 0 0 
L -3.5 0 
" id="m7005ff5720" style="stroke:#000000;stroke-width:0.8;"/>
      </defs>
      <g>
       <use style="stroke:#000000;stroke-width:0.8;" x="72.196742" xlink:href="#m7005ff5720" y="256.149077"/>
      </g>
     </g>
     <g id="text_7">
      <!-- $\mathdefault{10^{4}}$ -->
      <g transform="translate(47.596742 259.948295)scale(0.1 -0.1)">
       <defs>
        <path d="M 37.796875 64.3125 
L 12.890625 25.390625 
L 37.796875 25.390625 
z
M 35.203125 72.90625 
L 47.609375 72.90625 
L 47.609375 25.390625 
L 58.015625 25.390625 
L 58.015625 17.1875 
L 47.609375 17.1875 
L 47.609375 0 
L 37.796875 0 
L 37.796875 17.1875 
L 4.890625 17.1875 
L 4.890625 26.703125 
z
" id="DejaVuSans-52"/>
       </defs>
       <use transform="translate(0 0.684375)" xlink:href="#DejaVuSans-49"/>
       <use transform="translate(63.623047 0.684375)" xlink:href="#DejaVuSans-48"/>
       <use transform="translate(128.203125 38.965625)scale(0.7)" xlink:href="#DejaVuSans-52"/>
      </g>
     </g>
    </g>
    <g id="ytick_2">
     <g id="line2d_41">
      <defs>
       <path d="M 0 0 
L -2 0 
" id="md90483e23f" style="stroke:#000000;stroke-width:0.6;"/>
      </defs>
      <g>
       <use style="stroke:#000000;stroke-width:0.6;" x="72.196742" xlink:href="#md90483e23f" y="283.71115"/>
      </g>
     </g>
    </g>
    <g id="ytick_3">
     <g id="line2d_42">
      <g>
       <use style="stroke:#000000;stroke-width:0.6;" x="72.196742" xlink:href="#md90483e23f" y="269.162916"/>
      </g>
     </g>
    </g>
    <g id="ytick_4">
     <g id="line2d_43">
      <g>
       <use style="stroke:#000000;stroke-width:0.6;" x="72.196742" xlink:href="#md90483e23f" y="170.533457"/>
      </g>
     </g>
     <g id="text_8">
      <!-- $\mathdefault{2\times10^{4}}$ -->
      <g transform="translate(30.596742 174.332676)scale(0.1 -0.1)">
       <defs>
        <path d="M 70.125 53.71875 
L 47.796875 31.296875 
L 70.125 8.984375 
L 64.3125 3.078125 
L 41.890625 25.484375 
L 19.484375 3.078125 
L 13.71875 8.984375 
L 35.984375 31.296875 
L 13.71875 53.71875 
L 19.484375 59.625 
L 41.890625 37.203125 
L 64.3125 59.625 
z
" id="DejaVuSans-215"/>
       </defs>
       <use transform="translate(0 0.684375)" xlink:href="#DejaVuSans-50"/>
       <use transform="translate(83.105469 0.684375)" xlink:href="#DejaVuSans-215"/>
       <use transform="translate(186.376953 0.684375)" xlink:href="#DejaVuSans-49"/>
       <use transform="translate(250 0.684375)" xlink:href="#DejaVuSans-48"/>
       <use transform="translate(314.580078 38.965625)scale(0.7)" xlink:href="#DejaVuSans-52"/>
      </g>
     </g>
    </g>
    <g id="ytick_5">
     <g id="line2d_44">
      <g>
       <use style="stroke:#000000;stroke-width:0.6;" x="72.196742" xlink:href="#md90483e23f" y="120.451531"/>
      </g>
     </g>
     <g id="text_9">
      <!-- $\mathdefault{3\times10^{4}}$ -->
      <g transform="translate(30.596742 124.25075)scale(0.1 -0.1)">
       <use transform="translate(0 0.684375)" xlink:href="#DejaVuSans-51"/>
       <use transform="translate(83.105469 0.684375)" xlink:href="#DejaVuSans-215"/>
       <use transform="translate(186.376953 0.684375)" xlink:href="#DejaVuSans-49"/>
       <use transform="translate(250 0.684375)" xlink:href="#DejaVuSans-48"/>
       <use transform="translate(314.580078 38.965625)scale(0.7)" xlink:href="#DejaVuSans-52"/>
      </g>
     </g>
    </g>
    <g id="ytick_6">
     <g id="line2d_45">
      <g>
       <use style="stroke:#000000;stroke-width:0.6;" x="72.196742" xlink:href="#md90483e23f" y="84.917838"/>
      </g>
     </g>
     <g id="text_10">
      <!-- $\mathdefault{4\times10^{4}}$ -->
      <g transform="translate(30.596742 88.717057)scale(0.1 -0.1)">
       <use transform="translate(0 0.684375)" xlink:href="#DejaVuSans-52"/>
       <use transform="translate(83.105469 0.684375)" xlink:href="#DejaVuSans-215"/>
       <use transform="translate(186.376953 0.684375)" xlink:href="#DejaVuSans-49"/>
       <use transform="translate(250 0.684375)" xlink:href="#DejaVuSans-48"/>
       <use transform="translate(314.580078 38.965625)scale(0.7)" xlink:href="#DejaVuSans-52"/>
      </g>
     </g>
    </g>
    <g id="ytick_7">
     <g id="line2d_46">
      <g>
       <use style="stroke:#000000;stroke-width:0.6;" x="72.196742" xlink:href="#md90483e23f" y="57.355765"/>
      </g>
     </g>
    </g>
    <g id="text_11">
     <!-- $F(x)$ -->
     <g transform="translate(23.68518 183.734)rotate(-90)scale(0.14 -0.14)">
      <defs>
       <path d="M 16.890625 72.90625 
L 58.6875 72.90625 
L 57.078125 64.59375 
L 25.09375 64.59375 
L 20.90625 43.109375 
L 49.8125 43.109375 
L 48.1875 34.8125 
L 19.28125 34.8125 
L 12.5 0 
L 2.6875 0 
z
" id="DejaVuSans-Oblique-70"/>
       <path d="M 31 75.875 
Q 24.46875 64.65625 21.28125 53.65625 
Q 18.109375 42.671875 18.109375 31.390625 
Q 18.109375 20.125 21.3125 9.0625 
Q 24.515625 -2 31 -13.1875 
L 23.1875 -13.1875 
Q 15.875 -1.703125 12.234375 9.375 
Q 8.59375 20.453125 8.59375 31.390625 
Q 8.59375 42.28125 12.203125 53.3125 
Q 15.828125 64.359375 23.1875 75.875 
z
" id="DejaVuSans-40"/>
       <path d="M 60.015625 54.6875 
L 34.90625 27.875 
L 50.296875 0 
L 39.984375 0 
L 28.421875 21.6875 
L 8.296875 0 
L -2.59375 0 
L 24.3125 28.8125 
L 10.015625 54.6875 
L 20.3125 54.6875 
L 30.8125 34.90625 
L 49.125 54.6875 
z
" id="DejaVuSans-Oblique-120"/>
       <path d="M 8.015625 75.875 
L 15.828125 75.875 
Q 23.140625 64.359375 26.78125 53.3125 
Q 30.421875 42.28125 30.421875 31.390625 
Q 30.421875 20.453125 26.78125 9.375 
Q 23.140625 -1.703125 15.828125 -13.1875 
L 8.015625 -13.1875 
Q 14.5 -2 17.703125 9.0625 
Q 20.90625 20.125 20.90625 31.390625 
Q 20.90625 42.671875 17.703125 53.65625 
Q 14.5 64.65625 8.015625 75.875 
z
" id="DejaVuSans-41"/>
      </defs>
      <use transform="translate(0 0.125)" xlink:href="#DejaVuSans-Oblique-70"/>
      <use transform="translate(57.519531 0.125)" xlink:href="#DejaVuSans-40"/>
      <use transform="translate(96.533203 0.125)" xlink:href="#DejaVuSans-Oblique-120"/>
      <use transform="translate(155.712891 0.125)" xlink:href="#DejaVuSans-41"/>
     </g>
    </g>
   </g>
   <g id="line2d_47">
    <path clip-path="url(#p259bb5c57a)" d="M 280.382609 285.214909 
L 280.692953 285.214909 
L 280.388318 285.214909 
L 280.587574 285.214909 
L 278.098743 285.214909 
L 278.727253 285.214909 
L 277.73038 285.214909 
L 277.13701 285.214909 
L 277.518936 285.214909 
L 276.147447 285.214909 
L 272.31492 285.214909 
L 270.650635 285.214909 
L 270.590217 285.214909 
L 270.229553 285.214909 
L 268.639495 285.214909 
L 265.431812 285.214909 
L 264.720855 285.214909 
L 263.503738 285.214909 
L 259.44704 285.214909 
L 258.46928 285.214909 
L 255.406306 285.214909 
L 252.722384 285.214908 
L 250.498911 285.214908 
L 247.592333 285.214906 
L 242.538244 285.214903 
L 235.213017 285.21489 
L 228.265182 285.214862 
L 222.843588 285.214841 
L 221.262169 285.214812 
L 217.109082 285.214778 
L 216.0638 285.214738 
L 215.401196 285.214689 
L 211.913995 285.214434 
L 211.126256 285.213261 
L 203.180657 285.206438 
L 198.631367 285.200974 
L 197.670342 285.199096 
L 193.850512 285.170473 
L 185.233164 285.14815 
L 181.811414 285.136081 
L 184.48101 285.082286 
L 176.813134 284.987323 
L 168.075447 284.535634 
L 159.697833 284.174593 
L 155.492416 284.18428 
L 155.607593 284.156829 
L 138.81655 282.567568 
L 140.519702 282.592527 
L 113.525339 277.90382 
" style="fill:none;stroke:#1f77b4;stroke-linecap:square;stroke-width:3;"/>
   </g>
   <g id="line2d_48">
    <path clip-path="url(#p259bb5c57a)" d="M 141.852442 170.130488 
L 139.527917 202.88323 
L 160.429067 223.166531 
L 158.408198 236.932756 
L 149.330206 254.082939 
L 164.650205 266.501163 
L 167.81114 274.681712 
L 183.267034 279.738718 
L 196.239472 283.317161 
L 199.990012 284.924064 
L 212.25737 285.191826 
L 230.621503 285.21002 
L 244.685499 285.213345 
L 258.35823 285.214416 
L 270.4241 285.214729 
L 282.210296 285.214845 
L 290.719933 285.214892 
L 302.382804 285.214907 
L 316.042752 285.214909 
L 329.851598 285.214909 
L 344.723441 285.214909 
L 358.666212 285.214909 
L 372.727301 285.214909 
L 394.139486 285.214909 
L 423.101833 285.214909 
" style="fill:none;stroke:#ff7f0e;stroke-linecap:square;stroke-width:3;"/>
   </g>
   <g id="line2d_49">
    <path clip-path="url(#p259bb5c57a)" d="M 155.146679 116.527777 
L 160.888332 188.161548 
L 162.101314 246.388624 
L 167.999162 270.825442 
L 174.314253 282.265094 
L 191.169419 285.202704 
L 211.356226 285.214903 
L 227.881754 285.214909 
L 244.498028 285.214909 
L 244.8345 285.214909 
L 245.560086 285.214909 
L 246.110448 285.214909 
L 245.29098 285.214909 
L 245.862734 285.214909 
" style="fill:none;stroke:#2ca02c;stroke-linecap:square;stroke-width:3;"/>
   </g>
   <g id="line2d_50">
    <path clip-path="url(#p259bb5c57a)" d="M 280.020264 82.613662 
L 289.833654 82.613662 
L 300.217628 82.613662 
L 315.037524 82.613662 
L 344.72163 277.151593 
L 366.740635 285.214909 
L 362.80177 285.214909 
L 364.844898 285.214909 
L 361.983346 285.214909 
L 361.312587 285.214909 
L 361.608791 285.214909 
" style="fill:none;stroke:#d62728;stroke-linecap:square;stroke-width:3;"/>
   </g>
   <g id="line2d_51">
    <path clip-path="url(#p259bb5c57a)" d="M 99.75301 54.953091 
L 121.90599 178.69972 
L 147.383815 217.461804 
L 143.117356 223.041716 
L 131.519403 232.489031 
L 151.613391 242.026802 
L 165.718282 245.184102 
L 180.826393 245.184102 
L 202.655585 268.242959 
L 223.174779 278.972154 
L 236.116549 283.005375 
L 266.044088 284.834706 
L 276.659049 285.192891 
L 292.953097 285.213272 
L 309.847842 285.214903 
L 331.317365 285.214909 
L 351.485301 285.214909 
L 371.317936 285.214909 
L 401.500397 285.214909 
L 432.799315 285.214909 
" style="fill:none;stroke:#9467bd;stroke-linecap:square;stroke-width:3;"/>
   </g>
   <g id="line2d_52">
    <path clip-path="url(#p259bb5c57a)" d="M 232.560568 54.953091 
L 210.991643 56.065518 
L 220.81694 56.065518 
L 200.754465 57.120108 
L 210.079577 58.119358 
L 218.460968 59.961522 
L 218.57286 63.084647 
L 221.293336 66.62978 
L 225.326891 72.75823 
L 218.783794 87.629075 
L 229.948846 106.34883 
L 232.637267 132.434547 
L 238.872855 177.666213 
L 248.722404 219.38798 
L 260.334916 258.787102 
L 274.721213 276.660135 
L 290.177418 283.126744 
L 305.387916 285.156282 
L 307.867195 285.214909 
L 306.514914 285.214909 
L 307.529997 285.214909 
L 314.563029 285.214909 
L 320.489209 285.214909 
L 314.141938 285.214909 
" style="fill:none;stroke:#8c564b;stroke-linecap:square;stroke-width:3;"/>
   </g>
   <g id="line2d_53">
    <path clip-path="url(#p259bb5c57a)" d="M 250.977693 194.266983 
L 237.69071 211.687425 
L 249.250279 217.850345 
L 242.609189 222.034969 
L 230.906295 228.146756 
L 235.768306 234.703054 
L 240.761521 240.881289 
L 233.040707 247.212198 
L 246.179558 253.211463 
L 247.744946 259.027767 
L 258.287992 264.317317 
L 265.528499 269.250051 
L 273.200378 273.327137 
L 277.906906 276.658218 
L 283.297351 279.503702 
L 290.637622 281.704426 
L 299.680085 283.143775 
L 309.379259 283.975094 
L 329.713084 284.502775 
L 331.496444 284.842522 
L 346.254769 285.054659 
L 358.287248 285.169313 
L 372.62168 285.194459 
L 388.558806 285.205434 
L 401.487325 285.210532 
" style="fill:none;stroke:#e377c2;stroke-linecap:square;stroke-width:3;"/>
   </g>
   <g id="line2d_54">
    <path clip-path="url(#p259bb5c57a)" d="M 195.457999 103.88968 
L 196.016369 210.483685 
L 199.501561 214.940169 
L 203.829402 224.169858 
L 202.721499 235.92088 
L 212.391865 248.486361 
L 216.297937 258.584337 
L 228.973334 268.369631 
L 231.426078 275.954609 
L 241.049262 281.290377 
L 254.051233 283.583684 
L 263.258615 284.603021 
L 272.521453 285.003847 
L 285.459613 285.171705 
L 296.925639 285.204297 
L 309.765797 285.212578 
L 323.93789 285.214718 
L 335.796514 285.214902 
L 350.330152 285.214909 
L 362.283535 285.214909 
L 364.714916 285.214909 
L 364.833936 285.214909 
L 362.977463 285.214909 
L 362.275086 285.214909 
L 363.130835 285.214909 
" style="fill:none;stroke:#7f7f7f;stroke-linecap:square;stroke-width:3;"/>
   </g>
   <g id="line2d_55">
    <path clip-path="url(#p259bb5c57a)" d="M 154.438897 148.804847 
L 170.880335 168.184877 
L 176.317233 187.392511 
L 178.363655 204.475653 
L 177.901646 225.014007 
L 181.132248 242.449063 
L 182.646397 249.093912 
L 186.17976 259.102909 
L 188.65503 264.489997 
L 191.793283 265.628701 
L 197.243854 264.632917 
L 200.21484 265.106361 
L 205.45354 265.257121 
L 213.785799 266.116441 
L 222.839186 266.171151 
L 233.268265 267.441759 
L 245.178665 261.526249 
L 258.276018 262.65768 
L 272.135623 262.541327 
L 280.689537 263.12272 
L 285.893318 263.145468 
L 297.819769 264.070413 
L 306.608095 265.722676 
L 319.129461 265.825301 
L 330.416141 266.881636 
L 346.866842 264.244012 
L 361.646886 262.892047 
L 373.835994 266.087962 
L 388.672829 265.505495 
L 402.606762 266.71417 
" style="fill:none;stroke:#bcbd22;stroke-linecap:square;stroke-width:3;"/>
   </g>
   <g id="line2d_56">
    <path clip-path="url(#p259bb5c57a)" d="M 217.988008 194.266983 
L 217.81427 211.687425 
L 218.867868 217.850345 
L 217.320678 222.034969 
L 218.401097 228.146756 
L 218.71976 234.703054 
L 218.671288 240.881289 
L 220.909406 247.212198 
L 222.871585 253.211463 
L 225.556877 259.027767 
L 229.28356 264.317317 
L 233.84413 269.250051 
L 240.490862 273.327137 
L 249.657399 276.658218 
L 258.071719 279.503702 
L 264.198802 281.704426 
L 274.302543 283.143775 
L 287.554845 283.975094 
L 298.645885 284.502775 
L 308.729256 284.842522 
L 324.65295 285.054659 
L 342.099945 285.169313 
L 356.932476 285.194459 
L 372.436321 285.205434 
L 391.753396 285.210532 
L 403.803469 285.212757 
" style="fill:none;stroke:#17becf;stroke-linecap:square;stroke-width:3;"/>
   </g>
   <g id="line2d_57">
    <path clip-path="url(#p259bb5c57a)" d="M 223.510049 194.266983 
L 224.390553 211.687425 
L 223.575353 219.220614 
L 225.792292 224.899054 
L 226.904905 234.258667 
L 226.040436 245.017432 
L 227.675371 254.571243 
L 228.305011 263.595909 
L 230.971892 271.817776 
L 234.948588 277.983458 
L 237.519571 282.242932 
L 244.086285 284.080152 
L 249.831613 284.845996 
L 256.565917 285.140107 
L 265.581784 285.199142 
L 274.395705 285.212116 
L 283.234764 285.21435 
L 298.69035 285.214727 
L 309.229739 285.214883 
L 321.490026 285.214902 
L 336.059002 285.214907 
L 350.067816 285.214909 
L 365.455495 285.214909 
L 383.181489 285.214909 
L 396.579779 285.214909 
L 410.782912 285.214909 
" style="fill:none;stroke:#1f77b4;stroke-linecap:square;stroke-width:3;"/>
   </g>
   <g id="line2d_58">
    <path clip-path="url(#p259bb5c57a)" d="M 251.750219 194.266983 
L 254.615093 211.687425 
L 262.925364 217.850345 
L 266.344333 222.034969 
L 273.968927 228.146756 
L 283.245666 234.703054 
L 293.437843 240.881289 
L 303.99183 247.212198 
L 316.104615 253.211463 
L 331.927394 259.027767 
L 344.871499 264.317317 
L 359.452652 269.250051 
L 373.512071 273.327137 
L 388.95803 276.658218 
L 403.022899 279.503702 
L 417.307042 281.704426 
" style="fill:none;stroke:#ff7f0e;stroke-linecap:square;stroke-width:3;"/>
   </g>
   <g id="line2d_59">
    <path clip-path="url(#p259bb5c57a)" d="M 158.250787 170.130488 
L 159.536523 202.88323 
L 157.35371 223.166531 
L 161.828135 236.932756 
L 168.650067 254.082939 
L 168.340091 266.501163 
L 173.834047 274.681712 
L 183.304985 279.738718 
L 188.534188 283.317161 
L 198.367502 284.924064 
L 210.253888 285.191826 
L 220.277914 285.21002 
L 237.567216 285.213345 
L 250.636834 285.214416 
L 263.397627 285.214729 
L 277.323618 285.214845 
L 288.377182 285.214892 
L 300.071577 285.214907 
L 315.231806 285.214909 
L 326.109818 285.214909 
L 335.959578 285.214909 
L 351.131032 285.214909 
L 369.008591 285.214909 
L 391.279242 285.214909 
L 415.398868 285.214909 
" style="fill:none;stroke:#2ca02c;stroke-linecap:square;stroke-width:3;"/>
   </g>
   <g id="line2d_60">
    <path clip-path="url(#p259bb5c57a)" d="M 354.505846 170.130488 
L 375.556922 202.88323 
L 377.860486 224.074469 
L 380.807737 236.432634 
L 384.772056 249.726058 
L 387.24935 256.259644 
L 386.811507 258.168107 
" style="fill:none;stroke:#d62728;stroke-linecap:square;stroke-width:3;"/>
   </g>
   <g id="patch_3">
    <path d="M 72.196742 296.728 
L 72.196742 43.44 
" style="fill:none;stroke:#000000;stroke-linecap:square;stroke-linejoin:miter;stroke-width:0.8;"/>
   </g>
   <g id="patch_4">
    <path d="M 450 296.728 
L 450 43.44 
" style="fill:none;stroke:#000000;stroke-linecap:square;stroke-linejoin:miter;stroke-width:0.8;"/>
   </g>
   <g id="patch_5">
    <path d="M 72.196742 296.728 
L 450 296.728 
" style="fill:none;stroke:#000000;stroke-linecap:square;stroke-linejoin:miter;stroke-width:0.8;"/>
   </g>
   <g id="patch_6">
    <path d="M 72.196742 43.44 
L 450 43.44 
" style="fill:none;stroke:#000000;stroke-linecap:square;stroke-linejoin:miter;stroke-width:0.8;"/>
   </g>
   <g id="text_12">
    <!-- Lasso Regression[reg=0.05] -->
    <g transform="translate(162.437746 21.763062)scale(0.14 -0.14)">
     <defs>
      <path d="M 9.8125 72.90625 
L 19.671875 72.90625 
L 19.671875 8.296875 
L 55.171875 8.296875 
L 55.171875 0 
L 9.8125 0 
z
" id="DejaVuSans-76"/>
      <path d="M 34.28125 27.484375 
Q 23.390625 27.484375 19.1875 25 
Q 14.984375 22.515625 14.984375 16.5 
Q 14.984375 11.71875 18.140625 8.90625 
Q 21.296875 6.109375 26.703125 6.109375 
Q 34.1875 6.109375 38.703125 11.40625 
Q 43.21875 16.703125 43.21875 25.484375 
L 43.21875 27.484375 
z
M 52.203125 31.203125 
L 52.203125 0 
L 43.21875 0 
L 43.21875 8.296875 
Q 40.140625 3.328125 35.546875 0.953125 
Q 30.953125 -1.421875 24.3125 -1.421875 
Q 15.921875 -1.421875 10.953125 3.296875 
Q 6 8.015625 6 15.921875 
Q 6 25.140625 12.171875 29.828125 
Q 18.359375 34.515625 30.609375 34.515625 
L 43.21875 34.515625 
L 43.21875 35.40625 
Q 43.21875 41.609375 39.140625 45 
Q 35.0625 48.390625 27.6875 48.390625 
Q 23 48.390625 18.546875 47.265625 
Q 14.109375 46.140625 10.015625 43.890625 
L 10.015625 52.203125 
Q 14.9375 54.109375 19.578125 55.046875 
Q 24.21875 56 28.609375 56 
Q 40.484375 56 46.34375 49.84375 
Q 52.203125 43.703125 52.203125 31.203125 
z
" id="DejaVuSans-97"/>
      <path d="M 30.609375 48.390625 
Q 23.390625 48.390625 19.1875 42.75 
Q 14.984375 37.109375 14.984375 27.296875 
Q 14.984375 17.484375 19.15625 11.84375 
Q 23.34375 6.203125 30.609375 6.203125 
Q 37.796875 6.203125 41.984375 11.859375 
Q 46.1875 17.53125 46.1875 27.296875 
Q 46.1875 37.015625 41.984375 42.703125 
Q 37.796875 48.390625 30.609375 48.390625 
z
M 30.609375 56 
Q 42.328125 56 49.015625 48.375 
Q 55.71875 40.765625 55.71875 27.296875 
Q 55.71875 13.875 49.015625 6.21875 
Q 42.328125 -1.421875 30.609375 -1.421875 
Q 18.84375 -1.421875 12.171875 6.21875 
Q 5.515625 13.875 5.515625 27.296875 
Q 5.515625 40.765625 12.171875 48.375 
Q 18.84375 56 30.609375 56 
z
" id="DejaVuSans-111"/>
      <path d="M 44.390625 34.1875 
Q 47.5625 33.109375 50.5625 29.59375 
Q 53.5625 26.078125 56.59375 19.921875 
L 66.609375 0 
L 56 0 
L 46.6875 18.703125 
Q 43.0625 26.03125 39.671875 28.421875 
Q 36.28125 30.8125 30.421875 30.8125 
L 19.671875 30.8125 
L 19.671875 0 
L 9.8125 0 
L 9.8125 72.90625 
L 32.078125 72.90625 
Q 44.578125 72.90625 50.734375 67.671875 
Q 56.890625 62.453125 56.890625 51.90625 
Q 56.890625 45.015625 53.6875 40.46875 
Q 50.484375 35.9375 44.390625 34.1875 
z
M 19.671875 64.796875 
L 19.671875 38.921875 
L 32.078125 38.921875 
Q 39.203125 38.921875 42.84375 42.21875 
Q 46.484375 45.515625 46.484375 51.90625 
Q 46.484375 58.296875 42.84375 61.546875 
Q 39.203125 64.796875 32.078125 64.796875 
z
" id="DejaVuSans-82"/>
      <path d="M 45.40625 27.984375 
Q 45.40625 37.75 41.375 43.109375 
Q 37.359375 48.484375 30.078125 48.484375 
Q 22.859375 48.484375 18.828125 43.109375 
Q 14.796875 37.75 14.796875 27.984375 
Q 14.796875 18.265625 18.828125 12.890625 
Q 22.859375 7.515625 30.078125 7.515625 
Q 37.359375 7.515625 41.375 12.890625 
Q 45.40625 18.265625 45.40625 27.984375 
z
M 54.390625 6.78125 
Q 54.390625 -7.171875 48.1875 -13.984375 
Q 42 -20.796875 29.203125 -20.796875 
Q 24.46875 -20.796875 20.265625 -20.09375 
Q 16.0625 -19.390625 12.109375 -17.921875 
L 12.109375 -9.1875 
Q 16.0625 -11.328125 19.921875 -12.34375 
Q 23.78125 -13.375 27.78125 -13.375 
Q 36.625 -13.375 41.015625 -8.765625 
Q 45.40625 -4.15625 45.40625 5.171875 
L 45.40625 9.625 
Q 42.625 4.78125 38.28125 2.390625 
Q 33.9375 0 27.875 0 
Q 17.828125 0 11.671875 7.65625 
Q 5.515625 15.328125 5.515625 27.984375 
Q 5.515625 40.671875 11.671875 48.328125 
Q 17.828125 56 27.875 56 
Q 33.9375 56 38.28125 53.609375 
Q 42.625 51.21875 45.40625 46.390625 
L 45.40625 54.6875 
L 54.390625 54.6875 
z
" id="DejaVuSans-103"/>
      <path d="M 41.109375 46.296875 
Q 39.59375 47.171875 37.8125 47.578125 
Q 36.03125 48 33.890625 48 
Q 26.265625 48 22.1875 43.046875 
Q 18.109375 38.09375 18.109375 28.8125 
L 18.109375 0 
L 9.078125 0 
L 9.078125 54.6875 
L 18.109375 54.6875 
L 18.109375 46.1875 
Q 20.953125 51.171875 25.484375 53.578125 
Q 30.03125 56 36.53125 56 
Q 37.453125 56 38.578125 55.875 
Q 39.703125 55.765625 41.0625 55.515625 
z
" id="DejaVuSans-114"/>
      <path d="M 54.890625 33.015625 
L 54.890625 0 
L 45.90625 0 
L 45.90625 32.71875 
Q 45.90625 40.484375 42.875 44.328125 
Q 39.84375 48.1875 33.796875 48.1875 
Q 26.515625 48.1875 22.3125 43.546875 
Q 18.109375 38.921875 18.109375 30.90625 
L 18.109375 0 
L 9.078125 0 
L 9.078125 54.6875 
L 18.109375 54.6875 
L 18.109375 46.1875 
Q 21.34375 51.125 25.703125 53.5625 
Q 30.078125 56 35.796875 56 
Q 45.21875 56 50.046875 50.171875 
Q 54.890625 44.34375 54.890625 33.015625 
z
" id="DejaVuSans-110"/>
      <path d="M 10.59375 45.40625 
L 73.1875 45.40625 
L 73.1875 37.203125 
L 10.59375 37.203125 
z
M 10.59375 25.484375 
L 73.1875 25.484375 
L 73.1875 17.1875 
L 10.59375 17.1875 
z
" id="DejaVuSans-61"/>
      <path d="M 10.6875 12.40625 
L 21 12.40625 
L 21 0 
L 10.6875 0 
z
" id="DejaVuSans-46"/>
      <path d="M 10.796875 72.90625 
L 49.515625 72.90625 
L 49.515625 64.59375 
L 19.828125 64.59375 
L 19.828125 46.734375 
Q 21.96875 47.46875 24.109375 47.828125 
Q 26.265625 48.1875 28.421875 48.1875 
Q 40.625 48.1875 47.75 41.5 
Q 54.890625 34.8125 54.890625 23.390625 
Q 54.890625 11.625 47.5625 5.09375 
Q 40.234375 -1.421875 26.90625 -1.421875 
Q 22.3125 -1.421875 17.546875 -0.640625 
Q 12.796875 0.140625 7.71875 1.703125 
L 7.71875 11.625 
Q 12.109375 9.234375 16.796875 8.0625 
Q 21.484375 6.890625 26.703125 6.890625 
Q 35.15625 6.890625 40.078125 11.328125 
Q 45.015625 15.765625 45.015625 23.390625 
Q 45.015625 31 40.078125 35.4375 
Q 35.15625 39.890625 26.703125 39.890625 
Q 22.75 39.890625 18.8125 39.015625 
Q 14.890625 38.140625 10.796875 36.28125 
z
" id="DejaVuSans-53"/>
     </defs>
     <use xlink:href="#DejaVuSans-76"/>
     <use x="55.712891" xlink:href="#DejaVuSans-97"/>
     <use x="116.992188" xlink:href="#DejaVuSans-115"/>
     <use x="169.091797" xlink:href="#DejaVuSans-115"/>
     <use x="221.191406" xlink:href="#DejaVuSans-111"/>
     <use x="282.373047" xlink:href="#DejaVuSans-32"/>
     <use x="314.160156" xlink:href="#DejaVuSans-82"/>
     <use x="379.142578" xlink:href="#DejaVuSans-101"/>
     <use x="440.666016" xlink:href="#DejaVuSans-103"/>
     <use x="504.142578" xlink:href="#DejaVuSans-114"/>
     <use x="543.005859" xlink:href="#DejaVuSans-101"/>
     <use x="604.529297" xlink:href="#DejaVuSans-115"/>
     <use x="656.628906" xlink:href="#DejaVuSans-115"/>
     <use x="708.728516" xlink:href="#DejaVuSans-105"/>
     <use x="736.511719" xlink:href="#DejaVuSans-111"/>
     <use x="797.693359" xlink:href="#DejaVuSans-110"/>
     <use x="861.072266" xlink:href="#DejaVuSans-91"/>
     <use x="900.085938" xlink:href="#DejaVuSans-114"/>
     <use x="938.949219" xlink:href="#DejaVuSans-101"/>
     <use x="1000.472656" xlink:href="#DejaVuSans-103"/>
     <use x="1063.949219" xlink:href="#DejaVuSans-61"/>
     <use x="1147.738281" xlink:href="#DejaVuSans-48"/>
     <use x="1211.361328" xlink:href="#DejaVuSans-46"/>
     <use x="1243.148438" xlink:href="#DejaVuSans-48"/>
     <use x="1306.771484" xlink:href="#DejaVuSans-53"/>
     <use x="1370.394531" xlink:href="#DejaVuSans-93"/>
    </g>
    <!-- Data: Simulated[n_samples=100,n_features=5000,rho=0] -->
    <g transform="translate(55.930559 37.44)scale(0.14 -0.14)">
     <defs>
      <path d="M 19.671875 64.796875 
L 19.671875 8.109375 
L 31.59375 8.109375 
Q 46.6875 8.109375 53.6875 14.9375 
Q 60.6875 21.78125 60.6875 36.53125 
Q 60.6875 51.171875 53.6875 57.984375 
Q 46.6875 64.796875 31.59375 64.796875 
z
M 9.8125 72.90625 
L 30.078125 72.90625 
Q 51.265625 72.90625 61.171875 64.09375 
Q 71.09375 55.28125 71.09375 36.53125 
Q 71.09375 17.671875 61.125 8.828125 
Q 51.171875 0 30.078125 0 
L 9.8125 0 
z
" id="DejaVuSans-68"/>
      <path d="M 18.3125 70.21875 
L 18.3125 54.6875 
L 36.8125 54.6875 
L 36.8125 47.703125 
L 18.3125 47.703125 
L 18.3125 18.015625 
Q 18.3125 11.328125 20.140625 9.421875 
Q 21.96875 7.515625 27.59375 7.515625 
L 36.8125 7.515625 
L 36.8125 0 
L 27.59375 0 
Q 17.1875 0 13.234375 3.875 
Q 9.28125 7.765625 9.28125 18.015625 
L 9.28125 47.703125 
L 2.6875 47.703125 
L 2.6875 54.6875 
L 9.28125 54.6875 
L 9.28125 70.21875 
z
" id="DejaVuSans-116"/>
      <path d="M 11.71875 12.40625 
L 22.015625 12.40625 
L 22.015625 0 
L 11.71875 0 
z
M 11.71875 51.703125 
L 22.015625 51.703125 
L 22.015625 39.3125 
L 11.71875 39.3125 
z
" id="DejaVuSans-58"/>
      <path d="M 53.515625 70.515625 
L 53.515625 60.890625 
Q 47.90625 63.578125 42.921875 64.890625 
Q 37.9375 66.21875 33.296875 66.21875 
Q 25.25 66.21875 20.875 63.09375 
Q 16.5 59.96875 16.5 54.203125 
Q 16.5 49.359375 19.40625 46.890625 
Q 22.3125 44.4375 30.421875 42.921875 
L 36.375 41.703125 
Q 47.40625 39.59375 52.65625 34.296875 
Q 57.90625 29 57.90625 20.125 
Q 57.90625 9.515625 50.796875 4.046875 
Q 43.703125 -1.421875 29.984375 -1.421875 
Q 24.8125 -1.421875 18.96875 -0.25 
Q 13.140625 0.921875 6.890625 3.21875 
L 6.890625 13.375 
Q 12.890625 10.015625 18.65625 8.296875 
Q 24.421875 6.59375 29.984375 6.59375 
Q 38.421875 6.59375 43.015625 9.90625 
Q 47.609375 13.234375 47.609375 19.390625 
Q 47.609375 24.75 44.3125 27.78125 
Q 41.015625 30.8125 33.5 32.328125 
L 27.484375 33.5 
Q 16.453125 35.6875 11.515625 40.375 
Q 6.59375 45.0625 6.59375 53.421875 
Q 6.59375 63.09375 13.40625 68.65625 
Q 20.21875 74.21875 32.171875 74.21875 
Q 37.3125 74.21875 42.625 73.28125 
Q 47.953125 72.359375 53.515625 70.515625 
z
" id="DejaVuSans-83"/>
      <path d="M 8.5 21.578125 
L 8.5 54.6875 
L 17.484375 54.6875 
L 17.484375 21.921875 
Q 17.484375 14.15625 20.5 10.265625 
Q 23.53125 6.390625 29.59375 6.390625 
Q 36.859375 6.390625 41.078125 11.03125 
Q 45.3125 15.671875 45.3125 23.6875 
L 45.3125 54.6875 
L 54.296875 54.6875 
L 54.296875 0 
L 45.3125 0 
L 45.3125 8.40625 
Q 42.046875 3.421875 37.71875 1 
Q 33.40625 -1.421875 27.6875 -1.421875 
Q 18.265625 -1.421875 13.375 4.4375 
Q 8.5 10.296875 8.5 21.578125 
z
M 31.109375 56 
z
" id="DejaVuSans-117"/>
      <path d="M 9.421875 75.984375 
L 18.40625 75.984375 
L 18.40625 0 
L 9.421875 0 
z
" id="DejaVuSans-108"/>
      <path d="M 45.40625 46.390625 
L 45.40625 75.984375 
L 54.390625 75.984375 
L 54.390625 0 
L 45.40625 0 
L 45.40625 8.203125 
Q 42.578125 3.328125 38.25 0.953125 
Q 33.9375 -1.421875 27.875 -1.421875 
Q 17.96875 -1.421875 11.734375 6.484375 
Q 5.515625 14.40625 5.515625 27.296875 
Q 5.515625 40.1875 11.734375 48.09375 
Q 17.96875 56 27.875 56 
Q 33.9375 56 38.25 53.625 
Q 42.578125 51.265625 45.40625 46.390625 
z
M 14.796875 27.296875 
Q 14.796875 17.390625 18.875 11.75 
Q 22.953125 6.109375 30.078125 6.109375 
Q 37.203125 6.109375 41.296875 11.75 
Q 45.40625 17.390625 45.40625 27.296875 
Q 45.40625 37.203125 41.296875 42.84375 
Q 37.203125 48.484375 30.078125 48.484375 
Q 22.953125 48.484375 18.875 42.84375 
Q 14.796875 37.203125 14.796875 27.296875 
z
" id="DejaVuSans-100"/>
      <path d="M 50.984375 -16.609375 
L 50.984375 -23.578125 
L -0.984375 -23.578125 
L -0.984375 -16.609375 
z
" id="DejaVuSans-95"/>
      <path d="M 18.109375 8.203125 
L 18.109375 -20.796875 
L 9.078125 -20.796875 
L 9.078125 54.6875 
L 18.109375 54.6875 
L 18.109375 46.390625 
Q 20.953125 51.265625 25.265625 53.625 
Q 29.59375 56 35.59375 56 
Q 45.5625 56 51.78125 48.09375 
Q 58.015625 40.1875 58.015625 27.296875 
Q 58.015625 14.40625 51.78125 6.484375 
Q 45.5625 -1.421875 35.59375 -1.421875 
Q 29.59375 -1.421875 25.265625 0.953125 
Q 20.953125 3.328125 18.109375 8.203125 
z
M 48.6875 27.296875 
Q 48.6875 37.203125 44.609375 42.84375 
Q 40.53125 48.484375 33.40625 48.484375 
Q 26.265625 48.484375 22.1875 42.84375 
Q 18.109375 37.203125 18.109375 27.296875 
Q 18.109375 17.390625 22.1875 11.75 
Q 26.265625 6.109375 33.40625 6.109375 
Q 40.53125 6.109375 44.609375 11.75 
Q 48.6875 17.390625 48.6875 27.296875 
z
" id="DejaVuSans-112"/>
      <path d="M 11.71875 12.40625 
L 22.015625 12.40625 
L 22.015625 4 
L 14.015625 -11.625 
L 7.71875 -11.625 
L 11.71875 4 
z
" id="DejaVuSans-44"/>
      <path d="M 37.109375 75.984375 
L 37.109375 68.5 
L 28.515625 68.5 
Q 23.6875 68.5 21.796875 66.546875 
Q 19.921875 64.59375 19.921875 59.515625 
L 19.921875 54.6875 
L 34.71875 54.6875 
L 34.71875 47.703125 
L 19.921875 47.703125 
L 19.921875 0 
L 10.890625 0 
L 10.890625 47.703125 
L 2.296875 47.703125 
L 2.296875 54.6875 
L 10.890625 54.6875 
L 10.890625 58.5 
Q 10.890625 67.625 15.140625 71.796875 
Q 19.390625 75.984375 28.609375 75.984375 
z
" id="DejaVuSans-102"/>
      <path d="M 54.890625 33.015625 
L 54.890625 0 
L 45.90625 0 
L 45.90625 32.71875 
Q 45.90625 40.484375 42.875 44.328125 
Q 39.84375 48.1875 33.796875 48.1875 
Q 26.515625 48.1875 22.3125 43.546875 
Q 18.109375 38.921875 18.109375 30.90625 
L 18.109375 0 
L 9.078125 0 
L 9.078125 75.984375 
L 18.109375 75.984375 
L 18.109375 46.1875 
Q 21.34375 51.125 25.703125 53.5625 
Q 30.078125 56 35.796875 56 
Q 45.21875 56 50.046875 50.171875 
Q 54.890625 44.34375 54.890625 33.015625 
z
" id="DejaVuSans-104"/>
     </defs>
     <use xlink:href="#DejaVuSans-68"/>
     <use x="77.001953" xlink:href="#DejaVuSans-97"/>
     <use x="138.28125" xlink:href="#DejaVuSans-116"/>
     <use x="177.490234" xlink:href="#DejaVuSans-97"/>
     <use x="238.769531" xlink:href="#DejaVuSans-58"/>
     <use x="272.460938" xlink:href="#DejaVuSans-32"/>
     <use x="304.248047" xlink:href="#DejaVuSans-83"/>
     <use x="367.724609" xlink:href="#DejaVuSans-105"/>
     <use x="395.507812" xlink:href="#DejaVuSans-109"/>
     <use x="492.919922" xlink:href="#DejaVuSans-117"/>
     <use x="556.298828" xlink:href="#DejaVuSans-108"/>
     <use x="584.082031" xlink:href="#DejaVuSans-97"/>
     <use x="645.361328" xlink:href="#DejaVuSans-116"/>
     <use x="684.570312" xlink:href="#DejaVuSans-101"/>
     <use x="746.09375" xlink:href="#DejaVuSans-100"/>
     <use x="809.570312" xlink:href="#DejaVuSans-91"/>
     <use x="848.583984" xlink:href="#DejaVuSans-110"/>
     <use x="911.962891" xlink:href="#DejaVuSans-95"/>
     <use x="961.962891" xlink:href="#DejaVuSans-115"/>
     <use x="1014.0625" xlink:href="#DejaVuSans-97"/>
     <use x="1075.341797" xlink:href="#DejaVuSans-109"/>
     <use x="1172.753906" xlink:href="#DejaVuSans-112"/>
     <use x="1236.230469" xlink:href="#DejaVuSans-108"/>
     <use x="1264.013672" xlink:href="#DejaVuSans-101"/>
     <use x="1325.537109" xlink:href="#DejaVuSans-115"/>
     <use x="1377.636719" xlink:href="#DejaVuSans-61"/>
     <use x="1461.425781" xlink:href="#DejaVuSans-49"/>
     <use x="1525.048828" xlink:href="#DejaVuSans-48"/>
     <use x="1588.671875" xlink:href="#DejaVuSans-48"/>
     <use x="1652.294922" xlink:href="#DejaVuSans-44"/>
     <use x="1684.082031" xlink:href="#DejaVuSans-110"/>
     <use x="1747.460938" xlink:href="#DejaVuSans-95"/>
     <use x="1797.460938" xlink:href="#DejaVuSans-102"/>
     <use x="1832.666016" xlink:href="#DejaVuSans-101"/>
     <use x="1894.189453" xlink:href="#DejaVuSans-97"/>
     <use x="1955.46875" xlink:href="#DejaVuSans-116"/>
     <use x="1994.677734" xlink:href="#DejaVuSans-117"/>
     <use x="2058.056641" xlink:href="#DejaVuSans-114"/>
     <use x="2096.919922" xlink:href="#DejaVuSans-101"/>
     <use x="2158.443359" xlink:href="#DejaVuSans-115"/>
     <use x="2210.542969" xlink:href="#DejaVuSans-61"/>
     <use x="2294.332031" xlink:href="#DejaVuSans-53"/>
     <use x="2357.955078" xlink:href="#DejaVuSans-48"/>
     <use x="2421.578125" xlink:href="#DejaVuSans-48"/>
     <use x="2485.201172" xlink:href="#DejaVuSans-48"/>
     <use x="2548.824219" xlink:href="#DejaVuSans-44"/>
     <use x="2580.611328" xlink:href="#DejaVuSans-114"/>
     <use x="2619.974609" xlink:href="#DejaVuSans-104"/>
     <use x="2683.353516" xlink:href="#DejaVuSans-111"/>
     <use x="2744.535156" xlink:href="#DejaVuSans-61"/>
     <use x="2828.324219" xlink:href="#DejaVuSans-48"/>
     <use x="2891.947266" xlink:href="#DejaVuSans-93"/>
    </g>
   </g>
   <g id="legend_1">
    <g id="patch_7">
     <path d="M 81.996742 343.11 
L 386.275805 343.11 
Q 389.075805 343.11 389.075805 340.31 
L 389.075805 53.24 
Q 389.075805 50.44 386.275805 50.44 
L 81.996742 50.44 
Q 79.196742 50.44 79.196742 53.24 
L 79.196742 340.31 
Q 79.196742 343.11 81.996742 343.11 
z
" style="fill:#ffffff;opacity:0.8;stroke:#cccccc;stroke-linejoin:miter;"/>
    </g>
    <g id="line2d_61">
     <path d="M 84.796742 61.777812 
L 112.796742 61.777812 
" style="fill:none;stroke:#1f77b4;stroke-linecap:square;stroke-width:3;"/>
    </g>
    <g id="line2d_62"/>
    <g id="text_13">
     <!-- Blitz -->
     <g transform="translate(123.996742 66.677812)scale(0.14 -0.14)">
      <defs>
       <path d="M 19.671875 34.8125 
L 19.671875 8.109375 
L 35.5 8.109375 
Q 43.453125 8.109375 47.28125 11.40625 
Q 51.125 14.703125 51.125 21.484375 
Q 51.125 28.328125 47.28125 31.5625 
Q 43.453125 34.8125 35.5 34.8125 
z
M 19.671875 64.796875 
L 19.671875 42.828125 
L 34.28125 42.828125 
Q 41.5 42.828125 45.03125 45.53125 
Q 48.578125 48.25 48.578125 53.8125 
Q 48.578125 59.328125 45.03125 62.0625 
Q 41.5 64.796875 34.28125 64.796875 
z
M 9.8125 72.90625 
L 35.015625 72.90625 
Q 46.296875 72.90625 52.390625 68.21875 
Q 58.5 63.53125 58.5 54.890625 
Q 58.5 48.1875 55.375 44.234375 
Q 52.25 40.28125 46.1875 39.3125 
Q 53.46875 37.75 57.5 32.78125 
Q 61.53125 27.828125 61.53125 20.40625 
Q 61.53125 10.640625 54.890625 5.3125 
Q 48.25 0 35.984375 0 
L 9.8125 0 
z
" id="DejaVuSans-66"/>
       <path d="M 5.515625 54.6875 
L 48.1875 54.6875 
L 48.1875 46.484375 
L 14.40625 7.171875 
L 48.1875 7.171875 
L 48.1875 0 
L 4.296875 0 
L 4.296875 8.203125 
L 38.09375 47.515625 
L 5.515625 47.515625 
z
" id="DejaVuSans-122"/>
      </defs>
      <use xlink:href="#DejaVuSans-66"/>
      <use x="68.603516" xlink:href="#DejaVuSans-108"/>
      <use x="96.386719" xlink:href="#DejaVuSans-105"/>
      <use x="124.169922" xlink:href="#DejaVuSans-116"/>
      <use x="163.378906" xlink:href="#DejaVuSans-122"/>
     </g>
    </g>
    <g id="line2d_63">
     <path d="M 84.796742 82.327187 
L 112.796742 82.327187 
" style="fill:none;stroke:#ff7f0e;stroke-linecap:square;stroke-width:3;"/>
    </g>
    <g id="line2d_64"/>
    <g id="text_14">
     <!-- cd -->
     <g transform="translate(123.996742 87.227187)scale(0.14 -0.14)">
      <use xlink:href="#DejaVuSans-99"/>
      <use x="54.980469" xlink:href="#DejaVuSans-100"/>
     </g>
    </g>
    <g id="line2d_65">
     <path d="M 84.796742 102.876562 
L 112.796742 102.876562 
" style="fill:none;stroke:#2ca02c;stroke-linecap:square;stroke-width:3;"/>
    </g>
    <g id="line2d_66"/>
    <g id="text_15">
     <!-- Celer -->
     <g transform="translate(123.996742 107.776562)scale(0.14 -0.14)">
      <defs>
       <path d="M 64.40625 67.28125 
L 64.40625 56.890625 
Q 59.421875 61.53125 53.78125 63.8125 
Q 48.140625 66.109375 41.796875 66.109375 
Q 29.296875 66.109375 22.65625 58.46875 
Q 16.015625 50.828125 16.015625 36.375 
Q 16.015625 21.96875 22.65625 14.328125 
Q 29.296875 6.6875 41.796875 6.6875 
Q 48.140625 6.6875 53.78125 8.984375 
Q 59.421875 11.28125 64.40625 15.921875 
L 64.40625 5.609375 
Q 59.234375 2.09375 53.4375 0.328125 
Q 47.65625 -1.421875 41.21875 -1.421875 
Q 24.65625 -1.421875 15.125 8.703125 
Q 5.609375 18.84375 5.609375 36.375 
Q 5.609375 53.953125 15.125 64.078125 
Q 24.65625 74.21875 41.21875 74.21875 
Q 47.75 74.21875 53.53125 72.484375 
Q 59.328125 70.75 64.40625 67.28125 
z
" id="DejaVuSans-67"/>
      </defs>
      <use xlink:href="#DejaVuSans-67"/>
      <use x="69.824219" xlink:href="#DejaVuSans-101"/>
      <use x="131.347656" xlink:href="#DejaVuSans-108"/>
      <use x="159.130859" xlink:href="#DejaVuSans-101"/>
      <use x="220.654297" xlink:href="#DejaVuSans-114"/>
     </g>
    </g>
    <g id="line2d_67">
     <path d="M 84.796742 123.425937 
L 112.796742 123.425937 
" style="fill:none;stroke:#d62728;stroke-linecap:square;stroke-width:3;"/>
    </g>
    <g id="line2d_68"/>
    <g id="text_16">
     <!-- cvxpy -->
     <g transform="translate(123.996742 128.325937)scale(0.14 -0.14)">
      <defs>
       <path d="M 2.984375 54.6875 
L 12.5 54.6875 
L 29.59375 8.796875 
L 46.6875 54.6875 
L 56.203125 54.6875 
L 35.6875 0 
L 23.484375 0 
z
" id="DejaVuSans-118"/>
       <path d="M 54.890625 54.6875 
L 35.109375 28.078125 
L 55.90625 0 
L 45.3125 0 
L 29.390625 21.484375 
L 13.484375 0 
L 2.875 0 
L 24.125 28.609375 
L 4.6875 54.6875 
L 15.28125 54.6875 
L 29.78125 35.203125 
L 44.28125 54.6875 
z
" id="DejaVuSans-120"/>
       <path d="M 32.171875 -5.078125 
Q 28.375 -14.84375 24.75 -17.8125 
Q 21.140625 -20.796875 15.09375 -20.796875 
L 7.90625 -20.796875 
L 7.90625 -13.28125 
L 13.1875 -13.28125 
Q 16.890625 -13.28125 18.9375 -11.515625 
Q 21 -9.765625 23.484375 -3.21875 
L 25.09375 0.875 
L 2.984375 54.6875 
L 12.5 54.6875 
L 29.59375 11.921875 
L 46.6875 54.6875 
L 56.203125 54.6875 
z
" id="DejaVuSans-121"/>
      </defs>
      <use xlink:href="#DejaVuSans-99"/>
      <use x="54.980469" xlink:href="#DejaVuSans-118"/>
      <use x="114.160156" xlink:href="#DejaVuSans-120"/>
      <use x="173.339844" xlink:href="#DejaVuSans-112"/>
      <use x="236.816406" xlink:href="#DejaVuSans-121"/>
     </g>
    </g>
    <g id="line2d_69">
     <path d="M 84.796742 143.975312 
L 112.796742 143.975312 
" style="fill:none;stroke:#9467bd;stroke-linecap:square;stroke-width:3;"/>
    </g>
    <g id="line2d_70"/>
    <g id="text_17">
     <!-- Cyanure -->
     <g transform="translate(123.996742 148.875312)scale(0.14 -0.14)">
      <use xlink:href="#DejaVuSans-67"/>
      <use x="69.824219" xlink:href="#DejaVuSans-121"/>
      <use x="129.003906" xlink:href="#DejaVuSans-97"/>
      <use x="190.283203" xlink:href="#DejaVuSans-110"/>
      <use x="253.662109" xlink:href="#DejaVuSans-117"/>
      <use x="317.041016" xlink:href="#DejaVuSans-114"/>
      <use x="355.904297" xlink:href="#DejaVuSans-101"/>
     </g>
    </g>
    <g id="line2d_71">
     <path d="M 84.796742 164.524687 
L 112.796742 164.524687 
" style="fill:none;stroke:#8c564b;stroke-linecap:square;stroke-width:3;"/>
    </g>
    <g id="line2d_72"/>
    <g id="text_18">
     <!-- glmnet -->
     <g transform="translate(123.996742 169.424687)scale(0.14 -0.14)">
      <use xlink:href="#DejaVuSans-103"/>
      <use x="63.476562" xlink:href="#DejaVuSans-108"/>
      <use x="91.259766" xlink:href="#DejaVuSans-109"/>
      <use x="188.671875" xlink:href="#DejaVuSans-110"/>
      <use x="252.050781" xlink:href="#DejaVuSans-101"/>
      <use x="313.574219" xlink:href="#DejaVuSans-116"/>
     </g>
    </g>
    <g id="line2d_73">
     <path d="M 84.796742 185.074062 
L 112.796742 185.074062 
" style="fill:none;stroke:#e377c2;stroke-linecap:square;stroke-width:3;"/>
    </g>
    <g id="line2d_74"/>
    <g id="text_19">
     <!-- Julia-PGD -->
     <g transform="translate(123.996742 189.974062)scale(0.14 -0.14)">
      <defs>
       <path d="M 9.8125 72.90625 
L 19.671875 72.90625 
L 19.671875 5.078125 
Q 19.671875 -8.109375 14.671875 -14.0625 
Q 9.671875 -20.015625 -1.421875 -20.015625 
L -5.171875 -20.015625 
L -5.171875 -11.71875 
L -2.09375 -11.71875 
Q 4.4375 -11.71875 7.125 -8.046875 
Q 9.8125 -4.390625 9.8125 5.078125 
z
" id="DejaVuSans-74"/>
       <path d="M 4.890625 31.390625 
L 31.203125 31.390625 
L 31.203125 23.390625 
L 4.890625 23.390625 
z
" id="DejaVuSans-45"/>
       <path d="M 19.671875 64.796875 
L 19.671875 37.40625 
L 32.078125 37.40625 
Q 38.96875 37.40625 42.71875 40.96875 
Q 46.484375 44.53125 46.484375 51.125 
Q 46.484375 57.671875 42.71875 61.234375 
Q 38.96875 64.796875 32.078125 64.796875 
z
M 9.8125 72.90625 
L 32.078125 72.90625 
Q 44.34375 72.90625 50.609375 67.359375 
Q 56.890625 61.8125 56.890625 51.125 
Q 56.890625 40.328125 50.609375 34.8125 
Q 44.34375 29.296875 32.078125 29.296875 
L 19.671875 29.296875 
L 19.671875 0 
L 9.8125 0 
z
" id="DejaVuSans-80"/>
       <path d="M 59.515625 10.40625 
L 59.515625 29.984375 
L 43.40625 29.984375 
L 43.40625 38.09375 
L 69.28125 38.09375 
L 69.28125 6.78125 
Q 63.578125 2.734375 56.6875 0.65625 
Q 49.8125 -1.421875 42 -1.421875 
Q 24.90625 -1.421875 15.25 8.5625 
Q 5.609375 18.5625 5.609375 36.375 
Q 5.609375 54.25 15.25 64.234375 
Q 24.90625 74.21875 42 74.21875 
Q 49.125 74.21875 55.546875 72.453125 
Q 61.96875 70.703125 67.390625 67.28125 
L 67.390625 56.78125 
Q 61.921875 61.421875 55.765625 63.765625 
Q 49.609375 66.109375 42.828125 66.109375 
Q 29.4375 66.109375 22.71875 58.640625 
Q 16.015625 51.171875 16.015625 36.375 
Q 16.015625 21.625 22.71875 14.15625 
Q 29.4375 6.6875 42.828125 6.6875 
Q 48.046875 6.6875 52.140625 7.59375 
Q 56.25 8.5 59.515625 10.40625 
z
" id="DejaVuSans-71"/>
      </defs>
      <use xlink:href="#DejaVuSans-74"/>
      <use x="29.492188" xlink:href="#DejaVuSans-117"/>
      <use x="92.871094" xlink:href="#DejaVuSans-108"/>
      <use x="120.654297" xlink:href="#DejaVuSans-105"/>
      <use x="148.4375" xlink:href="#DejaVuSans-97"/>
      <use x="209.716797" xlink:href="#DejaVuSans-45"/>
      <use x="245.800781" xlink:href="#DejaVuSans-80"/>
      <use x="306.103516" xlink:href="#DejaVuSans-71"/>
      <use x="383.59375" xlink:href="#DejaVuSans-68"/>
     </g>
    </g>
    <g id="line2d_75">
     <path d="M 84.796742 205.623437 
L 112.796742 205.623437 
" style="fill:none;stroke:#7f7f7f;stroke-linecap:square;stroke-width:3;"/>
    </g>
    <g id="line2d_76"/>
    <g id="text_20">
     <!-- L-BFGS-B -->
     <g transform="translate(123.996742 210.523437)scale(0.14 -0.14)">
      <defs>
       <path d="M 9.8125 72.90625 
L 51.703125 72.90625 
L 51.703125 64.59375 
L 19.671875 64.59375 
L 19.671875 43.109375 
L 48.578125 43.109375 
L 48.578125 34.8125 
L 19.671875 34.8125 
L 19.671875 0 
L 9.8125 0 
z
" id="DejaVuSans-70"/>
      </defs>
      <use xlink:href="#DejaVuSans-76"/>
      <use x="53.962891" xlink:href="#DejaVuSans-45"/>
      <use x="86.421875" xlink:href="#DejaVuSans-66"/>
      <use x="155.025391" xlink:href="#DejaVuSans-70"/>
      <use x="212.544922" xlink:href="#DejaVuSans-71"/>
      <use x="290.035156" xlink:href="#DejaVuSans-83"/>
      <use x="353.511719" xlink:href="#DejaVuSans-45"/>
      <use x="385.970703" xlink:href="#DejaVuSans-66"/>
     </g>
    </g>
    <g id="line2d_77">
     <path d="M 84.796742 226.172812 
L 112.796742 226.172812 
" style="fill:none;stroke:#bcbd22;stroke-linecap:square;stroke-width:3;"/>
    </g>
    <g id="line2d_78"/>
    <g id="text_21">
     <!-- Lightning -->
     <g transform="translate(123.996742 231.072812)scale(0.14 -0.14)">
      <use xlink:href="#DejaVuSans-76"/>
      <use x="55.712891" xlink:href="#DejaVuSans-105"/>
      <use x="83.496094" xlink:href="#DejaVuSans-103"/>
      <use x="146.972656" xlink:href="#DejaVuSans-104"/>
      <use x="210.351562" xlink:href="#DejaVuSans-116"/>
      <use x="249.560547" xlink:href="#DejaVuSans-110"/>
      <use x="312.939453" xlink:href="#DejaVuSans-105"/>
      <use x="340.722656" xlink:href="#DejaVuSans-110"/>
      <use x="404.101562" xlink:href="#DejaVuSans-103"/>
     </g>
    </g>
    <g id="line2d_79">
     <path d="M 84.796742 246.722187 
L 112.796742 246.722187 
" style="fill:none;stroke:#17becf;stroke-linecap:square;stroke-width:3;"/>
    </g>
    <g id="line2d_80"/>
    <g id="text_22">
     <!-- Python-PGD[use_acceleration=False] -->
     <g transform="translate(123.996742 251.622187)scale(0.14 -0.14)">
      <use xlink:href="#DejaVuSans-80"/>
      <use x="60.302734" xlink:href="#DejaVuSans-121"/>
      <use x="119.482422" xlink:href="#DejaVuSans-116"/>
      <use x="158.691406" xlink:href="#DejaVuSans-104"/>
      <use x="222.070312" xlink:href="#DejaVuSans-111"/>
      <use x="283.251953" xlink:href="#DejaVuSans-110"/>
      <use x="346.630859" xlink:href="#DejaVuSans-45"/>
      <use x="382.714844" xlink:href="#DejaVuSans-80"/>
      <use x="443.017578" xlink:href="#DejaVuSans-71"/>
      <use x="520.507812" xlink:href="#DejaVuSans-68"/>
      <use x="597.509766" xlink:href="#DejaVuSans-91"/>
      <use x="636.523438" xlink:href="#DejaVuSans-117"/>
      <use x="699.902344" xlink:href="#DejaVuSans-115"/>
      <use x="752.001953" xlink:href="#DejaVuSans-101"/>
      <use x="813.525391" xlink:href="#DejaVuSans-95"/>
      <use x="863.525391" xlink:href="#DejaVuSans-97"/>
      <use x="924.804688" xlink:href="#DejaVuSans-99"/>
      <use x="979.785156" xlink:href="#DejaVuSans-99"/>
      <use x="1034.765625" xlink:href="#DejaVuSans-101"/>
      <use x="1096.289062" xlink:href="#DejaVuSans-108"/>
      <use x="1124.072266" xlink:href="#DejaVuSans-101"/>
      <use x="1185.595703" xlink:href="#DejaVuSans-114"/>
      <use x="1226.708984" xlink:href="#DejaVuSans-97"/>
      <use x="1287.988281" xlink:href="#DejaVuSans-116"/>
      <use x="1327.197266" xlink:href="#DejaVuSans-105"/>
      <use x="1354.980469" xlink:href="#DejaVuSans-111"/>
      <use x="1416.162109" xlink:href="#DejaVuSans-110"/>
      <use x="1479.541016" xlink:href="#DejaVuSans-61"/>
      <use x="1563.330078" xlink:href="#DejaVuSans-70"/>
      <use x="1611.724609" xlink:href="#DejaVuSans-97"/>
      <use x="1673.003906" xlink:href="#DejaVuSans-108"/>
      <use x="1700.787109" xlink:href="#DejaVuSans-115"/>
      <use x="1752.886719" xlink:href="#DejaVuSans-101"/>
      <use x="1814.410156" xlink:href="#DejaVuSans-93"/>
     </g>
    </g>
    <g id="line2d_81">
     <path d="M 84.796742 267.660937 
L 112.796742 267.660937 
" style="fill:none;stroke:#1f77b4;stroke-linecap:square;stroke-width:3;"/>
    </g>
    <g id="line2d_82"/>
    <g id="text_23">
     <!-- Python-PGD[use_acceleration=True] -->
     <g transform="translate(123.996742 272.560937)scale(0.14 -0.14)">
      <use xlink:href="#DejaVuSans-80"/>
      <use x="60.302734" xlink:href="#DejaVuSans-121"/>
      <use x="119.482422" xlink:href="#DejaVuSans-116"/>
      <use x="158.691406" xlink:href="#DejaVuSans-104"/>
      <use x="222.070312" xlink:href="#DejaVuSans-111"/>
      <use x="283.251953" xlink:href="#DejaVuSans-110"/>
      <use x="346.630859" xlink:href="#DejaVuSans-45"/>
      <use x="382.714844" xlink:href="#DejaVuSans-80"/>
      <use x="443.017578" xlink:href="#DejaVuSans-71"/>
      <use x="520.507812" xlink:href="#DejaVuSans-68"/>
      <use x="597.509766" xlink:href="#DejaVuSans-91"/>
      <use x="636.523438" xlink:href="#DejaVuSans-117"/>
      <use x="699.902344" xlink:href="#DejaVuSans-115"/>
      <use x="752.001953" xlink:href="#DejaVuSans-101"/>
      <use x="813.525391" xlink:href="#DejaVuSans-95"/>
      <use x="863.525391" xlink:href="#DejaVuSans-97"/>
      <use x="924.804688" xlink:href="#DejaVuSans-99"/>
      <use x="979.785156" xlink:href="#DejaVuSans-99"/>
      <use x="1034.765625" xlink:href="#DejaVuSans-101"/>
      <use x="1096.289062" xlink:href="#DejaVuSans-108"/>
      <use x="1124.072266" xlink:href="#DejaVuSans-101"/>
      <use x="1185.595703" xlink:href="#DejaVuSans-114"/>
      <use x="1226.708984" xlink:href="#DejaVuSans-97"/>
      <use x="1287.988281" xlink:href="#DejaVuSans-116"/>
      <use x="1327.197266" xlink:href="#DejaVuSans-105"/>
      <use x="1354.980469" xlink:href="#DejaVuSans-111"/>
      <use x="1416.162109" xlink:href="#DejaVuSans-110"/>
      <use x="1479.541016" xlink:href="#DejaVuSans-61"/>
      <use x="1563.330078" xlink:href="#DejaVuSans-84"/>
      <use x="1609.664062" xlink:href="#DejaVuSans-114"/>
      <use x="1650.777344" xlink:href="#DejaVuSans-117"/>
      <use x="1714.15625" xlink:href="#DejaVuSans-101"/>
      <use x="1775.679688" xlink:href="#DejaVuSans-93"/>
     </g>
    </g>
    <g id="line2d_83">
     <path d="M 84.796742 288.599687 
L 112.796742 288.599687 
" style="fill:none;stroke:#ff7f0e;stroke-linecap:square;stroke-width:3;"/>
    </g>
    <g id="line2d_84"/>
    <g id="text_24">
     <!-- R-PGD -->
     <g transform="translate(123.996742 293.499687)scale(0.14 -0.14)">
      <use xlink:href="#DejaVuSans-82"/>
      <use x="65.482422" xlink:href="#DejaVuSans-45"/>
      <use x="101.566406" xlink:href="#DejaVuSans-80"/>
      <use x="161.869141" xlink:href="#DejaVuSans-71"/>
      <use x="239.359375" xlink:href="#DejaVuSans-68"/>
     </g>
    </g>
    <g id="line2d_85">
     <path d="M 84.796742 309.149062 
L 112.796742 309.149062 
" style="fill:none;stroke:#2ca02c;stroke-linecap:square;stroke-width:3;"/>
    </g>
    <g id="line2d_86"/>
    <g id="text_25">
     <!-- sklearn -->
     <g transform="translate(123.996742 314.049062)scale(0.14 -0.14)">
      <defs>
       <path d="M 9.078125 75.984375 
L 18.109375 75.984375 
L 18.109375 31.109375 
L 44.921875 54.6875 
L 56.390625 54.6875 
L 27.390625 29.109375 
L 57.625 0 
L 45.90625 0 
L 18.109375 26.703125 
L 18.109375 0 
L 9.078125 0 
z
" id="DejaVuSans-107"/>
      </defs>
      <use xlink:href="#DejaVuSans-115"/>
      <use x="52.099609" xlink:href="#DejaVuSans-107"/>
      <use x="110.009766" xlink:href="#DejaVuSans-108"/>
      <use x="137.792969" xlink:href="#DejaVuSans-101"/>
      <use x="199.316406" xlink:href="#DejaVuSans-97"/>
      <use x="260.595703" xlink:href="#DejaVuSans-114"/>
      <use x="299.958984" xlink:href="#DejaVuSans-110"/>
     </g>
    </g>
    <g id="line2d_87">
     <path d="M 84.796742 329.698437 
L 112.796742 329.698437 
" style="fill:none;stroke:#d62728;stroke-linecap:square;stroke-width:3;"/>
    </g>
    <g id="line2d_88"/>
    <g id="text_26">
     <!-- statsmodels -->
     <g transform="translate(123.996742 334.598437)scale(0.14 -0.14)">
      <use xlink:href="#DejaVuSans-115"/>
      <use x="52.099609" xlink:href="#DejaVuSans-116"/>
      <use x="91.308594" xlink:href="#DejaVuSans-97"/>
      <use x="152.587891" xlink:href="#DejaVuSans-116"/>
      <use x="191.796875" xlink:href="#DejaVuSans-115"/>
      <use x="243.896484" xlink:href="#DejaVuSans-109"/>
      <use x="341.308594" xlink:href="#DejaVuSans-111"/>
      <use x="402.490234" xlink:href="#DejaVuSans-100"/>
      <use x="465.966797" xlink:href="#DejaVuSans-101"/>
      <use x="527.490234" xlink:href="#DejaVuSans-108"/>
      <use x="555.273438" xlink:href="#DejaVuSans-115"/>
     </g>
    </g>
   </g>
  </g>
 </g>
 <defs>
  <clipPath id="p259bb5c57a">
   <rect height="253.288" width="377.803258" x="72.196742" y="43.44"/>
  </clipPath>
 </defs>
</svg>
