<?xml version="1.0" encoding="utf-8" standalone="no"?>
<!DOCTYPE svg PUBLIC "-//W3C//DTD SVG 1.1//EN"
  "http://www.w3.org/Graphics/SVG/1.1/DTD/svg11.dtd">
<!-- Created with matplotlib (https://matplotlib.org/) -->
<svg height="345.6pt" version="1.1" viewBox="0 0 460.8 345.6" width="460.8pt" xmlns="http://www.w3.org/2000/svg" xmlns:xlink="http://www.w3.org/1999/xlink">
 <metadata>
  <rdf:RDF xmlns:cc="http://creativecommons.org/ns#" xmlns:dc="http://purl.org/dc/elements/1.1/" xmlns:rdf="http://www.w3.org/1999/02/22-rdf-syntax-ns#">
   <cc:Work>
    <dc:type rdf:resource="http://purl.org/dc/dcmitype/StillImage"/>
    <dc:date>2020-12-16T15:45:01.269405</dc:date>
    <dc:format>image/svg+xml</dc:format>
    <dc:creator>
     <cc:Agent>
      <dc:title>Matplotlib v3.3.3, https://matplotlib.org/</dc:title>
     </cc:Agent>
    </dc:creator>
   </cc:Work>
  </rdf:RDF>
 </metadata>
 <defs>
  <style type="text/css">*{stroke-linecap:butt;stroke-linejoin:round;}</style>
 </defs>
 <g id="figure_1">
  <g id="patch_1">
   <path d="M 0 345.6 
L 460.8 345.6 
L 460.8 0 
L 0 0 
z
" style="fill:#ffffff;"/>
  </g>
  <g id="axes_1">
   <g id="patch_2">
    <path d="M 60.992054 296.728 
L 450 296.728 
L 450 43.44 
L 60.992054 43.44 
z
" style="fill:#ffffff;"/>
   </g>
   <g id="PolyCollection_1">
    <defs>
     <path d="M 225.393153 -60.86413 
L 222.190487 -60.86413 
L 220.727632 -62.676072 
L 221.964826 -61.730325 
L 220.895297 -64.778735 
L 221.399787 -61.730325 
L 222.742259 -61.311208 
L 222.159587 -61.311208 
L 222.489192 -61.730325 
L 220.018189 -61.730325 
L 221.401462 -61.730325 
L 219.476923 -61.93045 
L 220.563927 -61.311208 
L 221.327999 -61.730325 
L 220.637548 -61.311208 
L 220.293176 -61.730325 
L 222.089146 -61.311208 
L 223.241058 -61.311208 
L 220.507128 -61.730325 
L 223.614845 -61.311208 
L 222.410502 -61.311208 
L 221.536955 -61.311208 
L 221.943284 -61.311208 
L 221.638267 -61.311208 
L 222.604173 -61.311208 
L 221.890136 -61.311208 
L 222.452347 -61.311208 
L 219.053469 -62.676072 
L 221.175037 -63.809507 
L 220.515108 -65.394184 
L 218.858029 -70.384682 
L 217.786578 -73.908907 
L 218.273215 -78.023095 
L 215.3567 -82.992555 
L 215.571669 -87.285025 
L 214.081214 -92.169851 
L 213.510074 -97.79174 
L 212.425074 -101.955909 
L 211.972446 -109.608641 
L 209.11565 -116.893371 
L 207.31654 -121.064997 
L 206.745852 -124.963602 
L 204.073332 -132.613745 
L 199.787812 -137.236528 
L 198.042403 -143.26664 
L 198.303535 -146.785567 
L 198.556198 -151.07123 
L 197.494744 -155.638832 
L 195.725556 -161.291092 
L 191.608097 -169.93451 
L 186.539034 -176.125766 
L 182.643629 -180.379719 
L 179.284341 -186.551686 
L 175.990028 -190.633101 
L 171.407408 -193.500352 
L 168.978355 -197.101786 
L 164.784338 -201.840417 
L 163.104645 -203.387675 
L 160.366484 -206.880559 
L 158.811672 -212.583046 
L 154.197187 -218.707262 
L 148.156431 -227.583164 
L 145.198006 -228.946716 
L 141.482502 -229.537899 
L 141.501447 -238.360118 
L 130.58455 -239.59729 
L 131.683026 -240.009519 
L 131.74172 -239.812625 
L 110.033903 -242.244348 
L 110.575871 -255.339372 
L 79.488202 -265.221454 
L 78.674233 -265.233562 
L 78.920236 -265.213497 
L 87.9824 -265.213497 
L 87.9824 -265.213497 
L 80.944818 -265.233562 
L 81.390183 -265.221454 
L 111.366023 -255.339372 
L 117.135874 -242.244348 
L 133.060691 -239.812625 
L 133.565123 -240.009519 
L 139.907162 -239.59729 
L 144.498253 -238.360118 
L 155.231653 -229.537899 
L 148.805293 -228.946716 
L 153.372158 -227.583164 
L 160.30485 -218.707262 
L 162.87095 -212.583046 
L 163.113428 -206.880559 
L 166.311847 -203.387675 
L 171.489982 -201.840417 
L 173.884273 -197.101786 
L 178.142205 -193.500352 
L 180.515425 -190.633101 
L 182.998926 -186.551686 
L 188.544109 -180.379719 
L 192.408043 -176.125766 
L 196.387095 -169.93451 
L 197.917912 -161.291092 
L 200.67569 -155.638832 
L 200.557172 -151.07123 
L 200.649213 -146.785567 
L 202.297543 -143.26664 
L 204.602818 -137.236528 
L 206.165406 -132.613745 
L 210.077981 -124.963602 
L 211.275373 -121.064997 
L 211.129436 -116.893371 
L 215.373491 -109.608641 
L 214.06742 -101.955909 
L 215.557847 -97.79174 
L 216.412939 -92.169851 
L 217.075811 -87.285025 
L 218.284674 -82.992555 
L 219.602363 -78.023095 
L 219.728811 -73.908907 
L 221.105256 -70.384682 
L 221.167454 -65.394184 
L 222.919333 -63.809507 
L 221.98997 -62.676072 
L 223.351206 -61.311208 
L 224.74242 -61.311208 
L 224.650686 -61.311208 
L 224.417012 -61.311208 
L 224.929493 -61.311208 
L 224.286549 -61.311208 
L 224.272949 -61.311208 
L 224.19308 -61.311208 
L 223.862922 -61.730325 
L 224.51585 -61.311208 
L 223.782366 -61.311208 
L 223.347509 -61.730325 
L 223.371597 -61.311208 
L 224.471953 -61.730325 
L 224.327648 -61.311208 
L 224.401287 -61.93045 
L 224.267421 -61.730325 
L 224.172361 -61.730325 
L 224.449509 -61.730325 
L 225.47813 -61.311208 
L 225.213196 -61.311208 
L 224.855041 -61.730325 
L 222.845683 -64.778735 
L 223.802591 -61.730325 
L 224.542244 -62.676072 
L 225.393153 -60.86413 
z
" id="m48dd1579b5" style="stroke:#1f77b4;stroke-opacity:0.3;"/>
    </defs>
    <g clip-path="url(#p995305abf6)">
     <use style="fill:#1f77b4;fill-opacity:0.3;stroke:#1f77b4;stroke-opacity:0.3;" x="0" xlink:href="#m48dd1579b5" y="345.6"/>
    </g>
   </g>
   <g id="PolyCollection_2">
    <defs>
     <path d="M 121.744596 -283.962958 
L 96.834192 -283.962958 
L 101.883783 -280.154807 
L 115.076343 -277.331299 
L 117.421964 -274.71641 
L 134.623368 -270.586321 
L 141.884308 -266.101704 
L 150.97463 -261.803905 
L 165.888081 -255.787472 
L 180.660641 -248.318469 
L 194.342797 -237.267294 
L 212.064737 -224.864093 
L 227.671543 -215.565157 
L 242.830803 -204.711212 
L 257.35582 -188.488055 
L 270.555247 -173.340122 
L 284.266642 -148.192411 
L 298.031885 -111.381256 
L 309.028217 -63.347 
L 322.593857 -60.385091 
L 338.47305 -60.86413 
L 354.558481 -60.385091 
L 367.796316 -60.86413 
L 385.872778 -60.86413 
L 387.723586 -60.86413 
L 387.723586 -60.86413 
L 371.461339 -60.86413 
L 356.1282 -60.385091 
L 340.902429 -60.86413 
L 325.363681 -60.385091 
L 312.227447 -63.347 
L 302.649597 -111.381256 
L 288.006084 -148.192411 
L 272.589585 -173.340122 
L 261.280417 -188.488055 
L 243.692467 -204.711212 
L 229.333222 -215.565157 
L 212.81552 -224.864093 
L 196.456565 -237.267294 
L 183.810778 -248.318469 
L 171.132097 -255.787472 
L 159.558574 -261.803905 
L 143.355583 -266.101704 
L 140.291095 -270.586321 
L 133.323888 -274.71641 
L 129.052124 -277.331299 
L 116.317347 -280.154807 
L 121.744596 -283.962958 
z
" id="m833e2099ac" style="stroke:#ff7f0e;stroke-opacity:0.3;"/>
    </defs>
    <g clip-path="url(#p995305abf6)">
     <use style="fill:#ff7f0e;fill-opacity:0.3;stroke:#ff7f0e;stroke-opacity:0.3;" x="0" xlink:href="#m833e2099ac" y="345.6"/>
    </g>
   </g>
   <g id="PolyCollection_3">
    <defs>
     <path d="M 127.787287 -285.479816 
L 121.946655 -285.479816 
L 126.913347 -278.634989 
L 133.179745 -270.388527 
L 137.24331 -262.633404 
L 145.747007 -248.695137 
L 159.594806 -204.10567 
L 174.609502 -164.315111 
L 183.434796 -77.366265 
L 192.432212 -60.385091 
L 191.862529 -60.385091 
L 189.387939 -60.385091 
L 189.274443 -60.385091 
L 191.798229 -60.385091 
L 190.499267 -60.385091 
L 193.70449 -60.385091 
L 193.70449 -60.385091 
L 193.202607 -60.385091 
L 193.325798 -60.385091 
L 192.63086 -60.385091 
L 194.69054 -60.385091 
L 195.654871 -60.385091 
L 188.205769 -77.366265 
L 177.459662 -164.315111 
L 166.273292 -204.10567 
L 154.880203 -248.695137 
L 142.955933 -262.633404 
L 139.395827 -270.388527 
L 135.094572 -278.634989 
L 127.787287 -285.479816 
z
" id="m6a9ee234d2" style="stroke:#2ca02c;stroke-opacity:0.3;"/>
    </defs>
    <g clip-path="url(#p995305abf6)">
     <use style="fill:#2ca02c;fill-opacity:0.3;stroke:#2ca02c;stroke-opacity:0.3;" x="0" xlink:href="#m6a9ee234d2" y="345.6"/>
    </g>
   </g>
   <g id="PolyCollection_4">
    <defs>
     <path d="M 323.390564 -287.83419 
L 275.743166 -287.83419 
L 291.163924 -287.83419 
L 302.665545 -287.83419 
L 325.809925 -287.83419 
L 360.301605 -274.761467 
L 386.165576 -127.574192 
L 385.805536 -127.574192 
L 385.985335 -127.574192 
L 390.850531 -127.574192 
L 390.850531 -127.574192 
L 397.407806 -127.574192 
L 387.933059 -127.574192 
L 362.305182 -274.761467 
L 327.07034 -287.83419 
L 305.7816 -287.83419 
L 293.114344 -287.83419 
L 323.390564 -287.83419 
z
" id="mc7b5f697c7" style="stroke:#d62728;stroke-opacity:0.3;"/>
    </defs>
    <g clip-path="url(#p995305abf6)">
     <use style="fill:#d62728;fill-opacity:0.3;stroke:#d62728;stroke-opacity:0.3;" x="0" xlink:href="#mc7b5f697c7" y="345.6"/>
    </g>
   </g>
   <g id="PolyCollection_5">
    <defs>
     <path d="M 141.275548 -290.646909 
L 98.780753 -290.646909 
L 89.644924 -283.586118 
L 81.020079 -280.086332 
L 81.291561 -279.345527 
L 96.464351 -277.964367 
L 104.763577 -276.631555 
L 122.725139 -276.206989 
L 133.263357 -276.206989 
L 160.444052 -270.199364 
L 191.123144 -264.760423 
L 212.960096 -258.522905 
L 239.024176 -246.037298 
L 263.741233 -224.523153 
L 287.756371 -193.542918 
L 310.304728 -128.704299 
L 332.204945 -105.914119 
L 354.104136 -100.899509 
L 394.545669 -92.837477 
L 414.960941 -82.57069 
L 417.689343 -82.57069 
L 417.689343 -82.57069 
L 398.870871 -92.837477 
L 370.651425 -100.899509 
L 345.451927 -105.914119 
L 323.121412 -128.704299 
L 302.855807 -193.542918 
L 265.983453 -224.523153 
L 240.719655 -246.037298 
L 215.900809 -258.522905 
L 201.140145 -264.760423 
L 286.656767 -270.199364 
L 142.3367 -276.206989 
L 221.778057 -276.206989 
L 115.444509 -276.631555 
L 283.471963 -277.964367 
L 104.543895 -279.345527 
L 97.943959 -280.086332 
L 114.041362 -283.586118 
L 141.275548 -290.646909 
z
" id="m9984781bfd" style="stroke:#9467bd;stroke-opacity:0.3;"/>
    </defs>
    <g clip-path="url(#p995305abf6)">
     <use style="fill:#9467bd;fill-opacity:0.3;stroke:#9467bd;stroke-opacity:0.3;" x="0" xlink:href="#m9984781bfd" y="345.6"/>
    </g>
   </g>
   <g id="PolyCollection_6">
    <defs>
     <path d="M 235.765382 -290.646909 
L 177.525486 -290.646909 
L 177.27052 -290.598893 
L 182.288499 -290.598893 
L 182.269706 -290.552858 
L 182.477121 -290.50874 
L 186.665542 -290.50874 
L 185.267913 -290.345472 
L 194.663597 -289.905863 
L 199.064648 -289.061835 
L 204.19476 -286.731318 
L 215.788553 -283.112085 
L 232.62548 -276.926877 
L 247.851007 -269.855055 
L 265.877878 -257.100572 
L 280.309417 -117.004501 
L 278.753507 -117.004501 
L 279.252173 -117.004501 
L 277.881776 -117.004501 
L 276.003305 -117.004501 
L 275.191221 -117.004501 
L 279.157993 -117.004501 
L 279.157993 -117.004501 
L 284.894349 -117.004501 
L 284.961389 -117.004501 
L 286.52705 -117.004501 
L 283.942949 -117.004501 
L 287.772201 -117.004501 
L 270.453633 -257.100572 
L 266.654174 -269.855055 
L 242.884034 -276.926877 
L 243.776806 -283.112085 
L 239.102653 -286.731318 
L 231.798174 -289.061835 
L 228.089937 -289.905863 
L 230.669085 -290.345472 
L 198.584157 -290.50874 
L 203.821685 -290.50874 
L 204.011237 -290.552858 
L 226.742961 -290.598893 
L 203.859155 -290.598893 
L 235.765382 -290.646909 
z
" id="m0f4ccbb678" style="stroke:#8c564b;stroke-opacity:0.3;"/>
    </defs>
    <g clip-path="url(#p995305abf6)">
     <use style="fill:#8c564b;fill-opacity:0.3;stroke:#8c564b;stroke-opacity:0.3;" x="0" xlink:href="#m0f4ccbb678" y="345.6"/>
    </g>
   </g>
   <g id="PolyCollection_7">
    <defs>
     <path d="M 242.525522 -282.448474 
L 206.90564 -282.448474 
L 214.613421 -280.898587 
L 215.718186 -280.094679 
L 216.495909 -279.482931 
L 220.894574 -278.533109 
L 220.572663 -277.495745 
L 220.214191 -276.487289 
L 227.670492 -275.365141 
L 234.957909 -274.153106 
L 238.425339 -272.770613 
L 251.909851 -271.241909 
L 256.061107 -269.621994 
L 258.502035 -267.835416 
L 266.711109 -265.884228 
L 275.075839 -263.817178 
L 284.724828 -261.469274 
L 308.843403 -258.51866 
L 312.1729 -255.003703 
L 324.239603 -250.597164 
L 342.428239 -245.466822 
L 359.350157 -239.610154 
L 369.090361 -232.694876 
L 418.244374 -224.656541 
L 432.317821 -224.656541 
L 432.317821 -224.656541 
L 379.599213 -232.694876 
L 379.401514 -239.610154 
L 347.632537 -245.466822 
L 330.833693 -250.597164 
L 319.759884 -255.003703 
L 318.683486 -258.51866 
L 295.020748 -261.469274 
L 277.84945 -263.817178 
L 268.680126 -265.884228 
L 260.285481 -267.835416 
L 258.563819 -269.621994 
L 261.844407 -271.241909 
L 244.333283 -272.770613 
L 237.348572 -274.153106 
L 231.030679 -275.365141 
L 226.136148 -276.487289 
L 224.349427 -277.495745 
L 225.249339 -278.533109 
L 225.73124 -279.482931 
L 241.324279 -280.094679 
L 222.826139 -280.898587 
L 242.525522 -282.448474 
z
" id="m4df121c9a5" style="stroke:#e377c2;stroke-opacity:0.3;"/>
    </defs>
    <g clip-path="url(#p995305abf6)">
     <use style="fill:#e377c2;fill-opacity:0.3;stroke:#e377c2;stroke-opacity:0.3;" x="0" xlink:href="#m4df121c9a5" y="345.6"/>
    </g>
   </g>
   <g id="PolyCollection_8">
    <defs>
     <path d="M 219.958002 -287.673009 
L 186.742808 -287.673009 
L 188.602198 -281.001717 
L 193.078564 -280.441207 
L 196.863361 -279.186969 
L 202.310221 -277.444578 
L 207.788047 -275.296016 
L 219.590526 -273.096941 
L 228.078827 -270.181549 
L 255.198372 -266.818694 
L 255.351817 -262.028263 
L 269.828641 -255.841198 
L 283.159283 -248.297436 
L 299.927127 -240.523828 
L 313.608382 -228.304234 
L 329.609261 -214.552349 
L 343.57099 -198.200156 
L 352.938204 -172.017437 
L 370.55573 -127.262258 
L 377.491967 -81.02701 
L 378.063468 -81.02701 
L 386.792297 -81.02701 
L 386.792297 -81.02701 
L 387.885697 -81.02701 
L 373.622278 -127.262258 
L 353.696251 -172.017437 
L 347.997217 -198.200156 
L 332.620345 -214.552349 
L 316.509396 -228.304234 
L 304.112877 -240.523828 
L 291.165149 -248.297436 
L 281.678003 -255.841198 
L 273.172652 -262.028263 
L 284.913426 -266.818694 
L 248.22496 -270.181549 
L 239.526251 -273.096941 
L 243.646392 -275.296016 
L 229.668551 -277.444578 
L 227.274361 -279.186969 
L 227.273994 -280.441207 
L 222.547567 -281.001717 
L 219.958002 -287.673009 
z
" id="m30943edc5c" style="stroke:#7f7f7f;stroke-opacity:0.3;"/>
    </defs>
    <g clip-path="url(#p995305abf6)">
     <use style="fill:#7f7f7f;fill-opacity:0.3;stroke:#7f7f7f;stroke-opacity:0.3;" x="0" xlink:href="#m30943edc5c" y="345.6"/>
    </g>
   </g>
   <g id="PolyCollection_9">
    <defs>
     <path d="M 140.934354 -287.18561 
L 137.074453 -287.18561 
L 159.182102 -284.366213 
L 162.003372 -281.74625 
L 164.348345 -279.613311 
L 165.118325 -276.171848 
L 165.723704 -274.113113 
L 167.018501 -272.526089 
L 168.61164 -271.157137 
L 171.451445 -270.820567 
L 171.10174 -270.974434 
L 173.156346 -270.306747 
L 177.711321 -270.382471 
L 183.148435 -271.586296 
L 190.060668 -270.014947 
L 199.180692 -269.909961 
L 208.605884 -269.718064 
L 220.357507 -270.009537 
L 235.197544 -271.828484 
L 245.297858 -270.446571 
L 253.981846 -271.06823 
L 263.287112 -270.595416 
L 273.597738 -270.164452 
L 284.203924 -270.02597 
L 298.495037 -269.987362 
L 311.396326 -270.486448 
L 324.874672 -270.42231 
L 344.030067 -269.594036 
L 359.576666 -270.84146 
L 373.191776 -271.418069 
L 389.819045 -269.326569 
L 412.652806 -270.935285 
L 412.652806 -270.935285 
L 412.652806 -270.935285 
L 393.655636 -269.326569 
L 376.121887 -271.418069 
L 363.349298 -270.84146 
L 346.822451 -269.594036 
L 329.886945 -270.42231 
L 313.821853 -270.486448 
L 302.339815 -269.987362 
L 288.709943 -270.02597 
L 278.560421 -270.164452 
L 273.247615 -270.595416 
L 264.21331 -271.06823 
L 248.845409 -270.446571 
L 236.798852 -271.828484 
L 222.884936 -270.009537 
L 211.650148 -269.718064 
L 202.531819 -269.909961 
L 192.94744 -270.014947 
L 187.033103 -271.586296 
L 181.671017 -270.382471 
L 177.819981 -270.306747 
L 171.923073 -270.974434 
L 174.717261 -270.820567 
L 170.827095 -271.157137 
L 170.152007 -272.526089 
L 170.958175 -274.113113 
L 169.065342 -276.171848 
L 169.345334 -279.613311 
L 169.798606 -281.74625 
L 165.945853 -284.366213 
L 140.934354 -287.18561 
z
" id="m1ddc47f0b5" style="stroke:#bcbd22;stroke-opacity:0.3;"/>
    </defs>
    <g clip-path="url(#p995305abf6)">
     <use style="fill:#bcbd22;fill-opacity:0.3;stroke:#bcbd22;stroke-opacity:0.3;" x="0" xlink:href="#m1ddc47f0b5" y="345.6"/>
    </g>
   </g>
   <g id="PolyCollection_10">
    <defs>
     <path d="M 212.657255 -282.448474 
L 198.206704 -282.448474 
L 199.313893 -280.898587 
L 199.202447 -280.094679 
L 201.665639 -279.482931 
L 198.100358 -278.533109 
L 198.004317 -277.495745 
L 199.393418 -276.487289 
L 201.872727 -275.365141 
L 203.45042 -274.153106 
L 205.903242 -272.770613 
L 210.005965 -271.241909 
L 214.827322 -269.621994 
L 221.043629 -267.835416 
L 230.34176 -265.884228 
L 240.926093 -263.817178 
L 253.830238 -261.469274 
L 268.801016 -258.51866 
L 286.705361 -255.003703 
L 300.992993 -250.597164 
L 316.040464 -245.466822 
L 332.951489 -239.610154 
L 349.230706 -232.694876 
L 364.136415 -224.656541 
L 382.054789 -213.899791 
L 393.022581 -206.212962 
L 396.197089 -206.212962 
L 396.197089 -206.212962 
L 384.43239 -213.899791 
L 367.652972 -224.656541 
L 351.052879 -232.694876 
L 334.655065 -239.610154 
L 317.717607 -245.466822 
L 304.314002 -250.597164 
L 292.106198 -255.003703 
L 271.151915 -258.51866 
L 255.238294 -261.469274 
L 242.696773 -263.817178 
L 230.691564 -265.884228 
L 222.330471 -267.835416 
L 216.744461 -269.621994 
L 214.31195 -271.241909 
L 208.351812 -272.770613 
L 209.345286 -274.153106 
L 205.709635 -275.365141 
L 202.64453 -276.487289 
L 205.297613 -277.495745 
L 202.015168 -278.533109 
L 211.161901 -279.482931 
L 212.89316 -280.094679 
L 205.974189 -280.898587 
L 212.657255 -282.448474 
z
" id="m435c2d889a" style="stroke:#17becf;stroke-opacity:0.3;"/>
    </defs>
    <g clip-path="url(#p995305abf6)">
     <use style="fill:#17becf;fill-opacity:0.3;stroke:#17becf;stroke-opacity:0.3;" x="0" xlink:href="#m435c2d889a" y="345.6"/>
    </g>
   </g>
   <g id="PolyCollection_11">
    <defs>
     <path d="M 214.760869 -282.448474 
L 213.389466 -282.448474 
L 213.271723 -280.898587 
L 214.971948 -279.902761 
L 214.605087 -279.047037 
L 214.832466 -277.567566 
L 215.446698 -275.773814 
L 216.43066 -273.851794 
L 219.02794 -271.462051 
L 220.160552 -268.57356 
L 223.652748 -264.967231 
L 227.219067 -260.559047 
L 231.810902 -254.219624 
L 238.222462 -244.858964 
L 245.9508 -233.573529 
L 255.87435 -221.658305 
L 267.59183 -211.521702 
L 280.486253 -199.630152 
L 293.325495 -190.947611 
L 306.574739 -181.696076 
L 321.304169 -171.361519 
L 338.226577 -152.680003 
L 355.462908 -140.034173 
L 371.149651 -132.502757 
L 386.803994 -126.619632 
L 408.860475 -93.864688 
L 409.64527 -93.864688 
L 409.64527 -93.864688 
L 401.462308 -126.619632 
L 375.344732 -132.502757 
L 357.551426 -140.034173 
L 343.572806 -152.680003 
L 325.940941 -171.361519 
L 308.617052 -181.696076 
L 295.995517 -190.947611 
L 282.148098 -199.630152 
L 270.577142 -211.521702 
L 257.235379 -221.658305 
L 248.155084 -233.573529 
L 239.158041 -244.858964 
L 234.447405 -254.219624 
L 228.585164 -260.559047 
L 225.182301 -264.967231 
L 222.14523 -268.57356 
L 220.235528 -271.462051 
L 218.338374 -273.851794 
L 216.524998 -275.773814 
L 215.948023 -277.567566 
L 216.983727 -279.047037 
L 217.280336 -279.902761 
L 217.413437 -280.898587 
L 214.760869 -282.448474 
z
" id="mf64a97e573" style="stroke:#1f77b4;stroke-opacity:0.3;"/>
    </defs>
    <g clip-path="url(#p995305abf6)">
     <use style="fill:#1f77b4;fill-opacity:0.3;stroke:#1f77b4;stroke-opacity:0.3;" x="0" xlink:href="#mf64a97e573" y="345.6"/>
    </g>
   </g>
   <g id="PolyCollection_12">
    <defs>
     <path d="M 241.340537 -282.448474 
L 233.739209 -282.448474 
L 248.247421 -280.898587 
L 255.354492 -280.094679 
L 262.798607 -279.482931 
L 276.465772 -278.533109 
L 289.849477 -277.495745 
L 301.673515 -276.487289 
L 316.254786 -275.365141 
L 330.638179 -274.153106 
L 341.422723 -272.770613 
L 358.851884 -271.241909 
L 375.326997 -269.621994 
L 393.134186 -267.835416 
L 413.0673 -265.884228 
L 413.0673 -265.884228 
L 413.0673 -265.884228 
L 396.04712 -267.835416 
L 377.042073 -269.621994 
L 360.348069 -271.241909 
L 344.757989 -272.770613 
L 333.233341 -274.153106 
L 318.282952 -275.365141 
L 309.217086 -276.487289 
L 291.594782 -277.495745 
L 279.674974 -278.533109 
L 266.990663 -279.482931 
L 263.177383 -280.094679 
L 253.10586 -280.898587 
L 241.340537 -282.448474 
z
" id="m56db6e9449" style="stroke:#ff7f0e;stroke-opacity:0.3;"/>
    </defs>
    <g clip-path="url(#p995305abf6)">
     <use style="fill:#ff7f0e;fill-opacity:0.3;stroke:#ff7f0e;stroke-opacity:0.3;" x="0" xlink:href="#m56db6e9449" y="345.6"/>
    </g>
   </g>
   <g id="PolyCollection_13">
    <defs>
     <path d="M 145.694342 -283.962958 
L 138.113743 -283.962958 
L 140.776664 -280.154807 
L 147.707553 -277.331299 
L 146.911358 -274.71641 
L 148.816038 -270.586321 
L 155.984813 -266.101704 
L 161.554795 -261.803905 
L 176.014209 -255.787472 
L 181.711689 -248.318469 
L 195.49671 -237.267294 
L 208.64949 -224.864093 
L 222.27332 -215.565157 
L 239.203979 -204.711212 
L 254.91499 -188.488055 
L 269.504706 -173.340122 
L 282.244252 -148.192411 
L 293.582688 -111.381133 
L 307.640456 -63.019926 
L 316.033595 -60.86413 
L 330.11464 -60.86413 
L 352.559228 -60.86413 
L 384.635259 -60.86413 
L 423.190897 -60.86413 
L 425.248708 -60.86413 
L 425.248708 -60.86413 
L 386.986376 -60.86413 
L 355.343329 -60.86413 
L 331.689204 -60.86413 
L 319.125 -60.86413 
L 309.55517 -63.019926 
L 297.818562 -111.381133 
L 290.149388 -148.192411 
L 273.418957 -173.340122 
L 256.973049 -188.488055 
L 240.477204 -204.711212 
L 223.556403 -215.565157 
L 209.814733 -224.864093 
L 198.575227 -237.267294 
L 188.032521 -248.318469 
L 192.032743 -255.787472 
L 168.92911 -261.803905 
L 163.590225 -266.101704 
L 154.568088 -270.586321 
L 152.936002 -274.71641 
L 155.639096 -277.331299 
L 148.640414 -280.154807 
L 145.694342 -283.962958 
z
" id="m4f40dc810c" style="stroke:#2ca02c;stroke-opacity:0.3;"/>
    </defs>
    <g clip-path="url(#p995305abf6)">
     <use style="fill:#2ca02c;fill-opacity:0.3;stroke:#2ca02c;stroke-opacity:0.3;" x="0" xlink:href="#m4f40dc810c" y="345.6"/>
    </g>
   </g>
   <g id="PolyCollection_14">
    <defs>
     <path d="M 366.790384 -283.962958 
L 364.447154 -283.962958 
L 393.829118 -280.154807 
L 407.720107 -277.208313 
L 404.356775 -274.777085 
L 406.89034 -274.777085 
L 406.89034 -274.777085 
L 417.532067 -277.208313 
L 404.283519 -280.154807 
L 366.790384 -283.962958 
z
" id="me505ea0d4d" style="stroke:#d62728;stroke-opacity:0.3;"/>
    </defs>
    <g clip-path="url(#p995305abf6)">
     <use style="fill:#d62728;fill-opacity:0.3;stroke:#d62728;stroke-opacity:0.3;" x="0" xlink:href="#me505ea0d4d" y="345.6"/>
    </g>
   </g>
   <g id="matplotlib.axis_1">
    <g id="xtick_1">
     <g id="line2d_1">
      <defs>
       <path d="M 0 0 
L 0 3.5 
" id="me03dac00b2" style="stroke:#000000;stroke-width:0.8;"/>
      </defs>
      <g>
       <use style="stroke:#000000;stroke-width:0.8;" x="122.816929" xlink:href="#me03dac00b2" y="296.728"/>
      </g>
     </g>
     <g id="text_1">
      <!-- $\mathdefault{10^{-2}}$ -->
      <g transform="translate(111.066929 311.326437)scale(0.1 -0.1)">
       <defs>
        <path d="M 12.40625 8.296875 
L 28.515625 8.296875 
L 28.515625 63.921875 
L 10.984375 60.40625 
L 10.984375 69.390625 
L 28.421875 72.90625 
L 38.28125 72.90625 
L 38.28125 8.296875 
L 54.390625 8.296875 
L 54.390625 0 
L 12.40625 0 
z
" id="DejaVuSans-49"/>
        <path d="M 31.78125 66.40625 
Q 24.171875 66.40625 20.328125 58.90625 
Q 16.5 51.421875 16.5 36.375 
Q 16.5 21.390625 20.328125 13.890625 
Q 24.171875 6.390625 31.78125 6.390625 
Q 39.453125 6.390625 43.28125 13.890625 
Q 47.125 21.390625 47.125 36.375 
Q 47.125 51.421875 43.28125 58.90625 
Q 39.453125 66.40625 31.78125 66.40625 
z
M 31.78125 74.21875 
Q 44.046875 74.21875 50.515625 64.515625 
Q 56.984375 54.828125 56.984375 36.375 
Q 56.984375 17.96875 50.515625 8.265625 
Q 44.046875 -1.421875 31.78125 -1.421875 
Q 19.53125 -1.421875 13.0625 8.265625 
Q 6.59375 17.96875 6.59375 36.375 
Q 6.59375 54.828125 13.0625 64.515625 
Q 19.53125 74.21875 31.78125 74.21875 
z
" id="DejaVuSans-48"/>
        <path d="M 10.59375 35.5 
L 73.1875 35.5 
L 73.1875 27.203125 
L 10.59375 27.203125 
z
" id="DejaVuSans-8722"/>
        <path d="M 19.1875 8.296875 
L 53.609375 8.296875 
L 53.609375 0 
L 7.328125 0 
L 7.328125 8.296875 
Q 12.9375 14.109375 22.625 23.890625 
Q 32.328125 33.6875 34.8125 36.53125 
Q 39.546875 41.84375 41.421875 45.53125 
Q 43.3125 49.21875 43.3125 52.78125 
Q 43.3125 58.59375 39.234375 62.25 
Q 35.15625 65.921875 28.609375 65.921875 
Q 23.96875 65.921875 18.8125 64.3125 
Q 13.671875 62.703125 7.8125 59.421875 
L 7.8125 69.390625 
Q 13.765625 71.78125 18.9375 73 
Q 24.125 74.21875 28.421875 74.21875 
Q 39.75 74.21875 46.484375 68.546875 
Q 53.21875 62.890625 53.21875 53.421875 
Q 53.21875 48.921875 51.53125 44.890625 
Q 49.859375 40.875 45.40625 35.40625 
Q 44.1875 33.984375 37.640625 27.21875 
Q 31.109375 20.453125 19.1875 8.296875 
z
" id="DejaVuSans-50"/>
       </defs>
       <use transform="translate(0 0.765625)" xlink:href="#DejaVuSans-49"/>
       <use transform="translate(63.623047 0.765625)" xlink:href="#DejaVuSans-48"/>
       <use transform="translate(128.203125 39.046875)scale(0.7)" xlink:href="#DejaVuSans-8722"/>
       <use transform="translate(186.855469 39.046875)scale(0.7)" xlink:href="#DejaVuSans-50"/>
      </g>
     </g>
    </g>
    <g id="xtick_2">
     <g id="line2d_2">
      <g>
       <use style="stroke:#000000;stroke-width:0.8;" x="221.286522" xlink:href="#me03dac00b2" y="296.728"/>
      </g>
     </g>
     <g id="text_2">
      <!-- $\mathdefault{10^{-1}}$ -->
      <g transform="translate(209.536522 311.326437)scale(0.1 -0.1)">
       <use transform="translate(0 0.684375)" xlink:href="#DejaVuSans-49"/>
       <use transform="translate(63.623047 0.684375)" xlink:href="#DejaVuSans-48"/>
       <use transform="translate(128.203125 38.965625)scale(0.7)" xlink:href="#DejaVuSans-8722"/>
       <use transform="translate(186.855469 38.965625)scale(0.7)" xlink:href="#DejaVuSans-49"/>
      </g>
     </g>
    </g>
    <g id="xtick_3">
     <g id="line2d_3">
      <g>
       <use style="stroke:#000000;stroke-width:0.8;" x="319.756115" xlink:href="#me03dac00b2" y="296.728"/>
      </g>
     </g>
     <g id="text_3">
      <!-- $\mathdefault{10^{0}}$ -->
      <g transform="translate(310.956115 311.326437)scale(0.1 -0.1)">
       <use transform="translate(0 0.765625)" xlink:href="#DejaVuSans-49"/>
       <use transform="translate(63.623047 0.765625)" xlink:href="#DejaVuSans-48"/>
       <use transform="translate(128.203125 39.046875)scale(0.7)" xlink:href="#DejaVuSans-48"/>
      </g>
     </g>
    </g>
    <g id="xtick_4">
     <g id="line2d_4">
      <g>
       <use style="stroke:#000000;stroke-width:0.8;" x="418.225708" xlink:href="#me03dac00b2" y="296.728"/>
      </g>
     </g>
     <g id="text_4">
      <!-- $\mathdefault{10^{1}}$ -->
      <g transform="translate(409.425708 311.326437)scale(0.1 -0.1)">
       <use transform="translate(0 0.684375)" xlink:href="#DejaVuSans-49"/>
       <use transform="translate(63.623047 0.684375)" xlink:href="#DejaVuSans-48"/>
       <use transform="translate(128.203125 38.965625)scale(0.7)" xlink:href="#DejaVuSans-49"/>
      </g>
     </g>
    </g>
    <g id="xtick_5">
     <g id="line2d_5">
      <defs>
       <path d="M 0 0 
L 0 2 
" id="m6b1113f41d" style="stroke:#000000;stroke-width:0.6;"/>
      </defs>
      <g>
       <use style="stroke:#000000;stroke-width:0.6;" x="71.329271" xlink:href="#m6b1113f41d" y="296.728"/>
      </g>
     </g>
    </g>
    <g id="xtick_6">
     <g id="line2d_6">
      <g>
       <use style="stroke:#000000;stroke-width:0.6;" x="83.631938" xlink:href="#m6b1113f41d" y="296.728"/>
      </g>
     </g>
    </g>
    <g id="xtick_7">
     <g id="line2d_7">
      <g>
       <use style="stroke:#000000;stroke-width:0.6;" x="93.174627" xlink:href="#m6b1113f41d" y="296.728"/>
      </g>
     </g>
    </g>
    <g id="xtick_8">
     <g id="line2d_8">
      <g>
       <use style="stroke:#000000;stroke-width:0.6;" x="100.971573" xlink:href="#m6b1113f41d" y="296.728"/>
      </g>
     </g>
    </g>
    <g id="xtick_9">
     <g id="line2d_9">
      <g>
       <use style="stroke:#000000;stroke-width:0.6;" x="107.563796" xlink:href="#m6b1113f41d" y="296.728"/>
      </g>
     </g>
    </g>
    <g id="xtick_10">
     <g id="line2d_10">
      <g>
       <use style="stroke:#000000;stroke-width:0.6;" x="113.274239" xlink:href="#m6b1113f41d" y="296.728"/>
      </g>
     </g>
    </g>
    <g id="xtick_11">
     <g id="line2d_11">
      <g>
       <use style="stroke:#000000;stroke-width:0.6;" x="118.311207" xlink:href="#m6b1113f41d" y="296.728"/>
      </g>
     </g>
    </g>
    <g id="xtick_12">
     <g id="line2d_12">
      <g>
       <use style="stroke:#000000;stroke-width:0.6;" x="152.45923" xlink:href="#m6b1113f41d" y="296.728"/>
      </g>
     </g>
    </g>
    <g id="xtick_13">
     <g id="line2d_13">
      <g>
       <use style="stroke:#000000;stroke-width:0.6;" x="169.798864" xlink:href="#m6b1113f41d" y="296.728"/>
      </g>
     </g>
    </g>
    <g id="xtick_14">
     <g id="line2d_14">
      <g>
       <use style="stroke:#000000;stroke-width:0.6;" x="182.101531" xlink:href="#m6b1113f41d" y="296.728"/>
      </g>
     </g>
    </g>
    <g id="xtick_15">
     <g id="line2d_15">
      <g>
       <use style="stroke:#000000;stroke-width:0.6;" x="191.644221" xlink:href="#m6b1113f41d" y="296.728"/>
      </g>
     </g>
    </g>
    <g id="xtick_16">
     <g id="line2d_16">
      <g>
       <use style="stroke:#000000;stroke-width:0.6;" x="199.441166" xlink:href="#m6b1113f41d" y="296.728"/>
      </g>
     </g>
    </g>
    <g id="xtick_17">
     <g id="line2d_17">
      <g>
       <use style="stroke:#000000;stroke-width:0.6;" x="206.033389" xlink:href="#m6b1113f41d" y="296.728"/>
      </g>
     </g>
    </g>
    <g id="xtick_18">
     <g id="line2d_18">
      <g>
       <use style="stroke:#000000;stroke-width:0.6;" x="211.743832" xlink:href="#m6b1113f41d" y="296.728"/>
      </g>
     </g>
    </g>
    <g id="xtick_19">
     <g id="line2d_19">
      <g>
       <use style="stroke:#000000;stroke-width:0.6;" x="216.7808" xlink:href="#m6b1113f41d" y="296.728"/>
      </g>
     </g>
    </g>
    <g id="xtick_20">
     <g id="line2d_20">
      <g>
       <use style="stroke:#000000;stroke-width:0.6;" x="250.928823" xlink:href="#m6b1113f41d" y="296.728"/>
      </g>
     </g>
    </g>
    <g id="xtick_21">
     <g id="line2d_21">
      <g>
       <use style="stroke:#000000;stroke-width:0.6;" x="268.268458" xlink:href="#m6b1113f41d" y="296.728"/>
      </g>
     </g>
    </g>
    <g id="xtick_22">
     <g id="line2d_22">
      <g>
       <use style="stroke:#000000;stroke-width:0.6;" x="280.571124" xlink:href="#m6b1113f41d" y="296.728"/>
      </g>
     </g>
    </g>
    <g id="xtick_23">
     <g id="line2d_23">
      <g>
       <use style="stroke:#000000;stroke-width:0.6;" x="290.113814" xlink:href="#m6b1113f41d" y="296.728"/>
      </g>
     </g>
    </g>
    <g id="xtick_24">
     <g id="line2d_24">
      <g>
       <use style="stroke:#000000;stroke-width:0.6;" x="297.910759" xlink:href="#m6b1113f41d" y="296.728"/>
      </g>
     </g>
    </g>
    <g id="xtick_25">
     <g id="line2d_25">
      <g>
       <use style="stroke:#000000;stroke-width:0.6;" x="304.502982" xlink:href="#m6b1113f41d" y="296.728"/>
      </g>
     </g>
    </g>
    <g id="xtick_26">
     <g id="line2d_26">
      <g>
       <use style="stroke:#000000;stroke-width:0.6;" x="310.213425" xlink:href="#m6b1113f41d" y="296.728"/>
      </g>
     </g>
    </g>
    <g id="xtick_27">
     <g id="line2d_27">
      <g>
       <use style="stroke:#000000;stroke-width:0.6;" x="315.250394" xlink:href="#m6b1113f41d" y="296.728"/>
      </g>
     </g>
    </g>
    <g id="xtick_28">
     <g id="line2d_28">
      <g>
       <use style="stroke:#000000;stroke-width:0.6;" x="349.398416" xlink:href="#m6b1113f41d" y="296.728"/>
      </g>
     </g>
    </g>
    <g id="xtick_29">
     <g id="line2d_29">
      <g>
       <use style="stroke:#000000;stroke-width:0.6;" x="366.738051" xlink:href="#m6b1113f41d" y="296.728"/>
      </g>
     </g>
    </g>
    <g id="xtick_30">
     <g id="line2d_30">
      <g>
       <use style="stroke:#000000;stroke-width:0.6;" x="379.040717" xlink:href="#m6b1113f41d" y="296.728"/>
      </g>
     </g>
    </g>
    <g id="xtick_31">
     <g id="line2d_31">
      <g>
       <use style="stroke:#000000;stroke-width:0.6;" x="388.583407" xlink:href="#m6b1113f41d" y="296.728"/>
      </g>
     </g>
    </g>
    <g id="xtick_32">
     <g id="line2d_32">
      <g>
       <use style="stroke:#000000;stroke-width:0.6;" x="396.380352" xlink:href="#m6b1113f41d" y="296.728"/>
      </g>
     </g>
    </g>
    <g id="xtick_33">
     <g id="line2d_33">
      <g>
       <use style="stroke:#000000;stroke-width:0.6;" x="402.972575" xlink:href="#m6b1113f41d" y="296.728"/>
      </g>
     </g>
    </g>
    <g id="xtick_34">
     <g id="line2d_34">
      <g>
       <use style="stroke:#000000;stroke-width:0.6;" x="408.683019" xlink:href="#m6b1113f41d" y="296.728"/>
      </g>
     </g>
    </g>
    <g id="xtick_35">
     <g id="line2d_35">
      <g>
       <use style="stroke:#000000;stroke-width:0.6;" x="413.719987" xlink:href="#m6b1113f41d" y="296.728"/>
      </g>
     </g>
    </g>
    <g id="xtick_36">
     <g id="line2d_36">
      <g>
       <use style="stroke:#000000;stroke-width:0.6;" x="447.868009" xlink:href="#m6b1113f41d" y="296.728"/>
      </g>
     </g>
    </g>
    <g id="text_5">
     <!-- Time [sec] -->
     <g transform="translate(218.879464 328.043937)scale(0.14 -0.14)">
      <defs>
       <path d="M -0.296875 72.90625 
L 61.375 72.90625 
L 61.375 64.59375 
L 35.5 64.59375 
L 35.5 0 
L 25.59375 0 
L 25.59375 64.59375 
L -0.296875 64.59375 
z
" id="DejaVuSans-84"/>
       <path d="M 9.421875 54.6875 
L 18.40625 54.6875 
L 18.40625 0 
L 9.421875 0 
z
M 9.421875 75.984375 
L 18.40625 75.984375 
L 18.40625 64.59375 
L 9.421875 64.59375 
z
" id="DejaVuSans-105"/>
       <path d="M 52 44.1875 
Q 55.375 50.25 60.0625 53.125 
Q 64.75 56 71.09375 56 
Q 79.640625 56 84.28125 50.015625 
Q 88.921875 44.046875 88.921875 33.015625 
L 88.921875 0 
L 79.890625 0 
L 79.890625 32.71875 
Q 79.890625 40.578125 77.09375 44.375 
Q 74.3125 48.1875 68.609375 48.1875 
Q 61.625 48.1875 57.5625 43.546875 
Q 53.515625 38.921875 53.515625 30.90625 
L 53.515625 0 
L 44.484375 0 
L 44.484375 32.71875 
Q 44.484375 40.625 41.703125 44.40625 
Q 38.921875 48.1875 33.109375 48.1875 
Q 26.21875 48.1875 22.15625 43.53125 
Q 18.109375 38.875 18.109375 30.90625 
L 18.109375 0 
L 9.078125 0 
L 9.078125 54.6875 
L 18.109375 54.6875 
L 18.109375 46.1875 
Q 21.1875 51.21875 25.484375 53.609375 
Q 29.78125 56 35.6875 56 
Q 41.65625 56 45.828125 52.96875 
Q 50 49.953125 52 44.1875 
z
" id="DejaVuSans-109"/>
       <path d="M 56.203125 29.59375 
L 56.203125 25.203125 
L 14.890625 25.203125 
Q 15.484375 15.921875 20.484375 11.0625 
Q 25.484375 6.203125 34.421875 6.203125 
Q 39.59375 6.203125 44.453125 7.46875 
Q 49.3125 8.734375 54.109375 11.28125 
L 54.109375 2.78125 
Q 49.265625 0.734375 44.1875 -0.34375 
Q 39.109375 -1.421875 33.890625 -1.421875 
Q 20.796875 -1.421875 13.15625 6.1875 
Q 5.515625 13.8125 5.515625 26.8125 
Q 5.515625 40.234375 12.765625 48.109375 
Q 20.015625 56 32.328125 56 
Q 43.359375 56 49.78125 48.890625 
Q 56.203125 41.796875 56.203125 29.59375 
z
M 47.21875 32.234375 
Q 47.125 39.59375 43.09375 43.984375 
Q 39.0625 48.390625 32.421875 48.390625 
Q 24.90625 48.390625 20.390625 44.140625 
Q 15.875 39.890625 15.1875 32.171875 
z
" id="DejaVuSans-101"/>
       <path id="DejaVuSans-32"/>
       <path d="M 8.59375 75.984375 
L 29.296875 75.984375 
L 29.296875 69 
L 17.578125 69 
L 17.578125 -6.203125 
L 29.296875 -6.203125 
L 29.296875 -13.1875 
L 8.59375 -13.1875 
z
" id="DejaVuSans-91"/>
       <path d="M 44.28125 53.078125 
L 44.28125 44.578125 
Q 40.484375 46.53125 36.375 47.5 
Q 32.28125 48.484375 27.875 48.484375 
Q 21.1875 48.484375 17.84375 46.4375 
Q 14.5 44.390625 14.5 40.28125 
Q 14.5 37.15625 16.890625 35.375 
Q 19.28125 33.59375 26.515625 31.984375 
L 29.59375 31.296875 
Q 39.15625 29.25 43.1875 25.515625 
Q 47.21875 21.78125 47.21875 15.09375 
Q 47.21875 7.46875 41.1875 3.015625 
Q 35.15625 -1.421875 24.609375 -1.421875 
Q 20.21875 -1.421875 15.453125 -0.5625 
Q 10.6875 0.296875 5.421875 2 
L 5.421875 11.28125 
Q 10.40625 8.6875 15.234375 7.390625 
Q 20.0625 6.109375 24.8125 6.109375 
Q 31.15625 6.109375 34.5625 8.28125 
Q 37.984375 10.453125 37.984375 14.40625 
Q 37.984375 18.0625 35.515625 20.015625 
Q 33.0625 21.96875 24.703125 23.78125 
L 21.578125 24.515625 
Q 13.234375 26.265625 9.515625 29.90625 
Q 5.8125 33.546875 5.8125 39.890625 
Q 5.8125 47.609375 11.28125 51.796875 
Q 16.75 56 26.8125 56 
Q 31.78125 56 36.171875 55.265625 
Q 40.578125 54.546875 44.28125 53.078125 
z
" id="DejaVuSans-115"/>
       <path d="M 48.78125 52.59375 
L 48.78125 44.1875 
Q 44.96875 46.296875 41.140625 47.34375 
Q 37.3125 48.390625 33.40625 48.390625 
Q 24.65625 48.390625 19.8125 42.84375 
Q 14.984375 37.3125 14.984375 27.296875 
Q 14.984375 17.28125 19.8125 11.734375 
Q 24.65625 6.203125 33.40625 6.203125 
Q 37.3125 6.203125 41.140625 7.25 
Q 44.96875 8.296875 48.78125 10.40625 
L 48.78125 2.09375 
Q 45.015625 0.34375 40.984375 -0.53125 
Q 36.96875 -1.421875 32.421875 -1.421875 
Q 20.0625 -1.421875 12.78125 6.34375 
Q 5.515625 14.109375 5.515625 27.296875 
Q 5.515625 40.671875 12.859375 48.328125 
Q 20.21875 56 33.015625 56 
Q 37.15625 56 41.109375 55.140625 
Q 45.0625 54.296875 48.78125 52.59375 
z
" id="DejaVuSans-99"/>
       <path d="M 30.421875 75.984375 
L 30.421875 -13.1875 
L 9.71875 -13.1875 
L 9.71875 -6.203125 
L 21.390625 -6.203125 
L 21.390625 69 
L 9.71875 69 
L 9.71875 75.984375 
z
" id="DejaVuSans-93"/>
      </defs>
      <use xlink:href="#DejaVuSans-84"/>
      <use x="57.958984" xlink:href="#DejaVuSans-105"/>
      <use x="85.742188" xlink:href="#DejaVuSans-109"/>
      <use x="183.154297" xlink:href="#DejaVuSans-101"/>
      <use x="244.677734" xlink:href="#DejaVuSans-32"/>
      <use x="276.464844" xlink:href="#DejaVuSans-91"/>
      <use x="315.478516" xlink:href="#DejaVuSans-115"/>
      <use x="367.578125" xlink:href="#DejaVuSans-101"/>
      <use x="429.101562" xlink:href="#DejaVuSans-99"/>
      <use x="484.082031" xlink:href="#DejaVuSans-93"/>
     </g>
    </g>
   </g>
   <g id="matplotlib.axis_2">
    <g id="ytick_1">
     <g id="line2d_37">
      <defs>
       <path d="M 0 0 
L -3.5 0 
" id="me63602eed4" style="stroke:#000000;stroke-width:0.8;"/>
      </defs>
      <g>
       <use style="stroke:#000000;stroke-width:0.8;" x="60.992054" xlink:href="#me63602eed4" y="269.659064"/>
      </g>
     </g>
     <g id="text_6">
      <!-- $\mathdefault{10^{-9}}$ -->
      <g transform="translate(30.492054 273.458283)scale(0.1 -0.1)">
       <defs>
        <path d="M 10.984375 1.515625 
L 10.984375 10.5 
Q 14.703125 8.734375 18.5 7.8125 
Q 22.3125 6.890625 25.984375 6.890625 
Q 35.75 6.890625 40.890625 13.453125 
Q 46.046875 20.015625 46.78125 33.40625 
Q 43.953125 29.203125 39.59375 26.953125 
Q 35.25 24.703125 29.984375 24.703125 
Q 19.046875 24.703125 12.671875 31.3125 
Q 6.296875 37.9375 6.296875 49.421875 
Q 6.296875 60.640625 12.9375 67.421875 
Q 19.578125 74.21875 30.609375 74.21875 
Q 43.265625 74.21875 49.921875 64.515625 
Q 56.59375 54.828125 56.59375 36.375 
Q 56.59375 19.140625 48.40625 8.859375 
Q 40.234375 -1.421875 26.421875 -1.421875 
Q 22.703125 -1.421875 18.890625 -0.6875 
Q 15.09375 0.046875 10.984375 1.515625 
z
M 30.609375 32.421875 
Q 37.25 32.421875 41.125 36.953125 
Q 45.015625 41.5 45.015625 49.421875 
Q 45.015625 57.28125 41.125 61.84375 
Q 37.25 66.40625 30.609375 66.40625 
Q 23.96875 66.40625 20.09375 61.84375 
Q 16.21875 57.28125 16.21875 49.421875 
Q 16.21875 41.5 20.09375 36.953125 
Q 23.96875 32.421875 30.609375 32.421875 
z
" id="DejaVuSans-57"/>
       </defs>
       <use transform="translate(0 0.765625)" xlink:href="#DejaVuSans-49"/>
       <use transform="translate(63.623047 0.765625)" xlink:href="#DejaVuSans-48"/>
       <use transform="translate(128.203125 39.046875)scale(0.7)" xlink:href="#DejaVuSans-8722"/>
       <use transform="translate(186.855469 39.046875)scale(0.7)" xlink:href="#DejaVuSans-57"/>
      </g>
     </g>
    </g>
    <g id="ytick_2">
     <g id="line2d_38">
      <g>
       <use style="stroke:#000000;stroke-width:0.8;" x="60.992054" xlink:href="#me63602eed4" y="238.787433"/>
      </g>
     </g>
     <g id="text_7">
      <!-- $\mathdefault{10^{-7}}$ -->
      <g transform="translate(30.492054 242.586652)scale(0.1 -0.1)">
       <defs>
        <path d="M 8.203125 72.90625 
L 55.078125 72.90625 
L 55.078125 68.703125 
L 28.609375 0 
L 18.3125 0 
L 43.21875 64.59375 
L 8.203125 64.59375 
z
" id="DejaVuSans-55"/>
       </defs>
       <use transform="translate(0 0.684375)" xlink:href="#DejaVuSans-49"/>
       <use transform="translate(63.623047 0.684375)" xlink:href="#DejaVuSans-48"/>
       <use transform="translate(128.203125 38.965625)scale(0.7)" xlink:href="#DejaVuSans-8722"/>
       <use transform="translate(186.855469 38.965625)scale(0.7)" xlink:href="#DejaVuSans-55"/>
      </g>
     </g>
    </g>
    <g id="ytick_3">
     <g id="line2d_39">
      <g>
       <use style="stroke:#000000;stroke-width:0.8;" x="60.992054" xlink:href="#me63602eed4" y="207.915803"/>
      </g>
     </g>
     <g id="text_8">
      <!-- $\mathdefault{10^{-5}}$ -->
      <g transform="translate(30.492054 211.715022)scale(0.1 -0.1)">
       <defs>
        <path d="M 10.796875 72.90625 
L 49.515625 72.90625 
L 49.515625 64.59375 
L 19.828125 64.59375 
L 19.828125 46.734375 
Q 21.96875 47.46875 24.109375 47.828125 
Q 26.265625 48.1875 28.421875 48.1875 
Q 40.625 48.1875 47.75 41.5 
Q 54.890625 34.8125 54.890625 23.390625 
Q 54.890625 11.625 47.5625 5.09375 
Q 40.234375 -1.421875 26.90625 -1.421875 
Q 22.3125 -1.421875 17.546875 -0.640625 
Q 12.796875 0.140625 7.71875 1.703125 
L 7.71875 11.625 
Q 12.109375 9.234375 16.796875 8.0625 
Q 21.484375 6.890625 26.703125 6.890625 
Q 35.15625 6.890625 40.078125 11.328125 
Q 45.015625 15.765625 45.015625 23.390625 
Q 45.015625 31 40.078125 35.4375 
Q 35.15625 39.890625 26.703125 39.890625 
Q 22.75 39.890625 18.8125 39.015625 
Q 14.890625 38.140625 10.796875 36.28125 
z
" id="DejaVuSans-53"/>
       </defs>
       <use transform="translate(0 0.684375)" xlink:href="#DejaVuSans-49"/>
       <use transform="translate(63.623047 0.684375)" xlink:href="#DejaVuSans-48"/>
       <use transform="translate(128.203125 38.965625)scale(0.7)" xlink:href="#DejaVuSans-8722"/>
       <use transform="translate(186.855469 38.965625)scale(0.7)" xlink:href="#DejaVuSans-53"/>
      </g>
     </g>
    </g>
    <g id="ytick_4">
     <g id="line2d_40">
      <g>
       <use style="stroke:#000000;stroke-width:0.8;" x="60.992054" xlink:href="#me63602eed4" y="177.044173"/>
      </g>
     </g>
     <g id="text_9">
      <!-- $\mathdefault{10^{-3}}$ -->
      <g transform="translate(30.492054 180.843391)scale(0.1 -0.1)">
       <defs>
        <path d="M 40.578125 39.3125 
Q 47.65625 37.796875 51.625 33 
Q 55.609375 28.21875 55.609375 21.1875 
Q 55.609375 10.40625 48.1875 4.484375 
Q 40.765625 -1.421875 27.09375 -1.421875 
Q 22.515625 -1.421875 17.65625 -0.515625 
Q 12.796875 0.390625 7.625 2.203125 
L 7.625 11.71875 
Q 11.71875 9.328125 16.59375 8.109375 
Q 21.484375 6.890625 26.8125 6.890625 
Q 36.078125 6.890625 40.9375 10.546875 
Q 45.796875 14.203125 45.796875 21.1875 
Q 45.796875 27.640625 41.28125 31.265625 
Q 36.765625 34.90625 28.71875 34.90625 
L 20.21875 34.90625 
L 20.21875 43.015625 
L 29.109375 43.015625 
Q 36.375 43.015625 40.234375 45.921875 
Q 44.09375 48.828125 44.09375 54.296875 
Q 44.09375 59.90625 40.109375 62.90625 
Q 36.140625 65.921875 28.71875 65.921875 
Q 24.65625 65.921875 20.015625 65.03125 
Q 15.375 64.15625 9.8125 62.3125 
L 9.8125 71.09375 
Q 15.4375 72.65625 20.34375 73.4375 
Q 25.25 74.21875 29.59375 74.21875 
Q 40.828125 74.21875 47.359375 69.109375 
Q 53.90625 64.015625 53.90625 55.328125 
Q 53.90625 49.265625 50.4375 45.09375 
Q 46.96875 40.921875 40.578125 39.3125 
z
" id="DejaVuSans-51"/>
       </defs>
       <use transform="translate(0 0.765625)" xlink:href="#DejaVuSans-49"/>
       <use transform="translate(63.623047 0.765625)" xlink:href="#DejaVuSans-48"/>
       <use transform="translate(128.203125 39.046875)scale(0.7)" xlink:href="#DejaVuSans-8722"/>
       <use transform="translate(186.855469 39.046875)scale(0.7)" xlink:href="#DejaVuSans-51"/>
      </g>
     </g>
    </g>
    <g id="ytick_5">
     <g id="line2d_41">
      <g>
       <use style="stroke:#000000;stroke-width:0.8;" x="60.992054" xlink:href="#me63602eed4" y="146.172542"/>
      </g>
     </g>
     <g id="text_10">
      <!-- $\mathdefault{10^{-1}}$ -->
      <g transform="translate(30.492054 149.971761)scale(0.1 -0.1)">
       <use transform="translate(0 0.684375)" xlink:href="#DejaVuSans-49"/>
       <use transform="translate(63.623047 0.684375)" xlink:href="#DejaVuSans-48"/>
       <use transform="translate(128.203125 38.965625)scale(0.7)" xlink:href="#DejaVuSans-8722"/>
       <use transform="translate(186.855469 38.965625)scale(0.7)" xlink:href="#DejaVuSans-49"/>
      </g>
     </g>
    </g>
    <g id="ytick_6">
     <g id="line2d_42">
      <g>
       <use style="stroke:#000000;stroke-width:0.8;" x="60.992054" xlink:href="#me63602eed4" y="115.300912"/>
      </g>
     </g>
     <g id="text_11">
      <!-- $\mathdefault{10^{1}}$ -->
      <g transform="translate(36.392054 119.10013)scale(0.1 -0.1)">
       <use transform="translate(0 0.684375)" xlink:href="#DejaVuSans-49"/>
       <use transform="translate(63.623047 0.684375)" xlink:href="#DejaVuSans-48"/>
       <use transform="translate(128.203125 38.965625)scale(0.7)" xlink:href="#DejaVuSans-49"/>
      </g>
     </g>
    </g>
    <g id="ytick_7">
     <g id="line2d_43">
      <g>
       <use style="stroke:#000000;stroke-width:0.8;" x="60.992054" xlink:href="#me63602eed4" y="84.429281"/>
      </g>
     </g>
     <g id="text_12">
      <!-- $\mathdefault{10^{3}}$ -->
      <g transform="translate(36.392054 88.2285)scale(0.1 -0.1)">
       <use transform="translate(0 0.765625)" xlink:href="#DejaVuSans-49"/>
       <use transform="translate(63.623047 0.765625)" xlink:href="#DejaVuSans-48"/>
       <use transform="translate(128.203125 39.046875)scale(0.7)" xlink:href="#DejaVuSans-51"/>
      </g>
     </g>
    </g>
    <g id="ytick_8">
     <g id="line2d_44">
      <g>
       <use style="stroke:#000000;stroke-width:0.8;" x="60.992054" xlink:href="#me63602eed4" y="53.557651"/>
      </g>
     </g>
     <g id="text_13">
      <!-- $\mathdefault{10^{5}}$ -->
      <g transform="translate(36.392054 57.35687)scale(0.1 -0.1)">
       <use transform="translate(0 0.684375)" xlink:href="#DejaVuSans-49"/>
       <use transform="translate(63.623047 0.684375)" xlink:href="#DejaVuSans-48"/>
       <use transform="translate(128.203125 38.965625)scale(0.7)" xlink:href="#DejaVuSans-53"/>
      </g>
     </g>
    </g>
    <g id="text_14">
     <!-- $F(x) - F(x*)$ -->
     <g transform="translate(23.580491 212.224)rotate(-90)scale(0.14 -0.14)">
      <defs>
       <path d="M 16.890625 72.90625 
L 58.6875 72.90625 
L 57.078125 64.59375 
L 25.09375 64.59375 
L 20.90625 43.109375 
L 49.8125 43.109375 
L 48.1875 34.8125 
L 19.28125 34.8125 
L 12.5 0 
L 2.6875 0 
z
" id="DejaVuSans-Oblique-70"/>
       <path d="M 31 75.875 
Q 24.46875 64.65625 21.28125 53.65625 
Q 18.109375 42.671875 18.109375 31.390625 
Q 18.109375 20.125 21.3125 9.0625 
Q 24.515625 -2 31 -13.1875 
L 23.1875 -13.1875 
Q 15.875 -1.703125 12.234375 9.375 
Q 8.59375 20.453125 8.59375 31.390625 
Q 8.59375 42.28125 12.203125 53.3125 
Q 15.828125 64.359375 23.1875 75.875 
z
" id="DejaVuSans-40"/>
       <path d="M 60.015625 54.6875 
L 34.90625 27.875 
L 50.296875 0 
L 39.984375 0 
L 28.421875 21.6875 
L 8.296875 0 
L -2.59375 0 
L 24.3125 28.8125 
L 10.015625 54.6875 
L 20.3125 54.6875 
L 30.8125 34.90625 
L 49.125 54.6875 
z
" id="DejaVuSans-Oblique-120"/>
       <path d="M 8.015625 75.875 
L 15.828125 75.875 
Q 23.140625 64.359375 26.78125 53.3125 
Q 30.421875 42.28125 30.421875 31.390625 
Q 30.421875 20.453125 26.78125 9.375 
Q 23.140625 -1.703125 15.828125 -13.1875 
L 8.015625 -13.1875 
Q 14.5 -2 17.703125 9.0625 
Q 20.90625 20.125 20.90625 31.390625 
Q 20.90625 42.671875 17.703125 53.65625 
Q 14.5 64.65625 8.015625 75.875 
z
" id="DejaVuSans-41"/>
       <path d="M 47.015625 60.890625 
L 29.5 51.421875 
L 47.015625 41.890625 
L 44.1875 37.109375 
L 27.78125 47.015625 
L 27.78125 28.609375 
L 22.21875 28.609375 
L 22.21875 47.015625 
L 5.8125 37.109375 
L 2.984375 41.890625 
L 20.515625 51.421875 
L 2.984375 60.890625 
L 5.8125 65.71875 
L 22.21875 55.8125 
L 22.21875 74.21875 
L 27.78125 74.21875 
L 27.78125 55.8125 
L 44.1875 65.71875 
z
" id="DejaVuSans-42"/>
      </defs>
      <use transform="translate(0 0.125)" xlink:href="#DejaVuSans-Oblique-70"/>
      <use transform="translate(57.519531 0.125)" xlink:href="#DejaVuSans-40"/>
      <use transform="translate(96.533203 0.125)" xlink:href="#DejaVuSans-Oblique-120"/>
      <use transform="translate(155.712891 0.125)" xlink:href="#DejaVuSans-41"/>
      <use transform="translate(214.208984 0.125)" xlink:href="#DejaVuSans-8722"/>
      <use transform="translate(317.480469 0.125)" xlink:href="#DejaVuSans-Oblique-70"/>
      <use transform="translate(375 0.125)" xlink:href="#DejaVuSans-40"/>
      <use transform="translate(414.013672 0.125)" xlink:href="#DejaVuSans-Oblique-120"/>
      <use transform="translate(492.675781 0.125)" xlink:href="#DejaVuSans-42"/>
      <use transform="translate(562.158203 0.125)" xlink:href="#DejaVuSans-41"/>
     </g>
    </g>
   </g>
   <g id="LineCollection_1">
    <path clip-path="url(#p995305abf6)" d="M 60.992054 285.094879 
L 450 285.094879 
" style="fill:none;stroke:#000000;stroke-dasharray:5.55,2.4;stroke-dashoffset:0;stroke-width:1.5;"/>
   </g>
   <g id="line2d_45">
    <path clip-path="url(#p995305abf6)" d="M 223.989897 284.73587 
L 223.333731 282.923928 
L 223.093881 283.869675 
L 221.619431 280.821265 
L 223.711912 283.869675 
L 223.719043 284.288792 
L 224.462497 284.288792 
L 223.718232 283.869675 
L 223.385683 283.869675 
L 223.54136 283.869675 
L 222.83062 283.66955 
L 223.068847 284.288792 
L 224.198363 283.869675 
L 222.516997 284.288792 
L 221.862633 283.869675 
L 222.46164 284.288792 
L 223.860743 284.288792 
L 221.196934 283.869675 
L 223.887083 284.288792 
L 224.066557 284.288792 
L 223.226684 284.288792 
L 223.972305 284.288792 
L 223.369344 284.288792 
L 223.539787 284.288792 
L 223.869465 284.288792 
L 222.77013 284.288792 
L 220.67301 282.923928 
L 222.016664 281.790493 
L 220.740939 280.205816 
L 220.272998 275.215318 
L 218.427183 271.691093 
L 219.028564 267.576905 
L 217.124628 262.607445 
L 217.023815 258.314975 
L 215.944144 253.430149 
L 214.69888 247.80826 
L 212.763441 243.644091 
L 212.410921 235.991359 
L 209.702951 228.706629 
L 208.74311 224.535003 
L 208.646595 220.636398 
L 204.281236 212.986255 
L 203.387274 208.363472 
L 201.002305 202.33336 
L 199.789468 198.814433 
L 199.959171 194.52877 
L 198.409091 189.961168 
L 196.872707 184.308908 
L 193.672119 175.66549 
L 188.475859 169.474234 
L 183.826926 165.220281 
L 180.415137 159.048314 
L 179.789242 154.966899 
L 173.337241 152.099648 
L 170.637743 148.498214 
L 168.720341 143.759583 
L 165.222315 142.212325 
L 161.86102 138.719441 
L 159.692276 133.016954 
L 158.68215 126.892738 
L 150.492893 118.016836 
L 146.386832 116.653284 
L 147.944263 116.062101 
L 142.569745 107.239882 
L 132.162591 106.00271 
L 132.539355 105.590481 
L 132.194567 105.787375 
L 116.508321 103.355652 
L 110.988738 90.260628 
L 80.845005 80.378546 
L 79.45791 80.366438 
L 80.65446 80.386503 
" style="fill:none;stroke:#1f77b4;stroke-linecap:square;stroke-width:3;"/>
   </g>
   <g id="line2d_46">
    <path clip-path="url(#p995305abf6)" d="M 101.759334 61.637042 
L 112.385044 65.445193 
L 123.145181 68.268701 
L 123.081418 70.88359 
L 138.416547 75.013679 
L 142.79944 79.498296 
L 153.357278 83.796095 
L 166.638626 89.812528 
L 182.86062 97.281531 
L 196.168951 108.332706 
L 212.544639 120.735907 
L 228.956379 130.034843 
L 243.107176 140.888788 
L 258.99679 157.111945 
L 271.654722 172.259878 
L 284.919126 197.407589 
L 301.867221 234.218744 
L 310.424169 282.253 
L 324.215083 285.214909 
L 338.984013 284.73587 
L 354.998114 285.214909 
L 368.088348 284.73587 
L 386.477471 284.73587 
" style="fill:none;stroke:#ff7f0e;stroke-linecap:square;stroke-width:3;"/>
   </g>
   <g id="line2d_47">
    <path clip-path="url(#p995305abf6)" d="M 124.036332 60.120184 
L 131.527759 66.965011 
L 136.58577 75.211473 
L 141.716768 82.966596 
L 149.048623 96.904863 
L 164.299128 141.49433 
L 176.584746 181.284889 
L 185.057618 268.233735 
L 192.665523 285.214909 
L 193.933916 285.214909 
L 191.804238 285.214909 
L 192.08124 285.214909 
L 192.054897 285.214909 
L 191.31776 285.214909 
" style="fill:none;stroke:#2ca02c;stroke-linecap:square;stroke-width:3;"/>
   </g>
   <g id="line2d_48">
    <path clip-path="url(#p995305abf6)" d="M 278.347707 57.76581 
L 291.785898 57.76581 
L 303.335916 57.76581 
L 326.814917 57.76581 
L 361.185528 70.838533 
L 386.682603 218.025808 
L 385.944418 218.025808 
L 386.952949 218.025808 
" style="fill:none;stroke:#d62728;stroke-linecap:square;stroke-width:3;"/>
   </g>
   <g id="line2d_49">
    <path clip-path="url(#p995305abf6)" d="M 109.713171 54.953091 
L 109.021452 62.013882 
L 90.063173 65.513668 
L 84.989631 66.254473 
L 117.309033 67.635633 
L 109.794645 68.968445 
L 126.171018 69.393011 
L 137.294108 69.393011 
L 169.131979 75.400636 
L 193.01288 80.839577 
L 214.426629 87.077095 
L 239.525962 99.562702 
L 264.942384 121.076847 
L 289.321677 152.057082 
L 319.726304 216.895701 
L 336.769086 239.685881 
L 361.484008 244.700491 
L 396.980941 252.762523 
L 416.466819 263.02931 
" style="fill:none;stroke:#9467bd;stroke-linecap:square;stroke-width:3;"/>
   </g>
   <g id="line2d_50">
    <path clip-path="url(#p995305abf6)" d="M 184.414681 54.953091 
L 180.619106 55.001107 
L 188.876751 55.001107 
L 195.062448 55.047142 
L 184.103056 55.09126 
L 194.636704 55.09126 
L 195.273877 55.254528 
L 201.495823 55.694137 
L 206.139237 56.538165 
L 217.377195 58.868682 
L 216.128014 62.487915 
L 236.949367 68.673123 
L 252.665421 75.744945 
L 266.74156 88.499428 
L 281.373538 228.595499 
L 281.691331 228.595499 
L 280.339728 228.595499 
L 280.19279 228.595499 
L 277.728347 228.595499 
L 278.258074 228.595499 
" style="fill:none;stroke:#8c564b;stroke-linecap:square;stroke-width:3;"/>
   </g>
   <g id="line2d_51">
    <path clip-path="url(#p995305abf6)" d="M 216.268092 63.151526 
L 215.582978 64.701413 
L 217.072523 65.505321 
L 216.953813 66.117069 
L 223.030218 67.066891 
L 222.718459 68.104255 
L 224.198121 69.112711 
L 229.252953 70.234859 
L 235.399473 71.446894 
L 241.818201 72.829387 
L 252.591392 74.358091 
L 257.371458 75.978006 
L 259.246745 77.764584 
L 267.901595 79.715772 
L 275.889992 81.782822 
L 287.867317 84.130726 
L 315.636807 87.08134 
L 315.223252 90.596297 
L 328.122277 95.002836 
L 344.742091 100.133178 
L 368.429738 105.989846 
L 375.742834 112.905124 
L 419.237003 120.943459 
" style="fill:none;stroke:#e377c2;stroke-linecap:square;stroke-width:3;"/>
   </g>
   <g id="line2d_52">
    <path clip-path="url(#p995305abf6)" d="M 188.71058 57.926991 
L 191.563452 64.598283 
L 196.005787 65.158793 
L 199.572245 66.413031 
L 205.560206 68.155422 
L 217.100202 70.303984 
L 221.676916 72.503059 
L 231.412063 75.418451 
L 256.750227 78.781306 
L 256.097782 83.571737 
L 273.668354 89.758802 
L 289.080094 97.302564 
L 302.830674 105.076172 
L 314.624469 117.295766 
L 330.586611 131.047651 
L 347.327843 147.399844 
L 353.227432 173.582563 
L 373.313507 218.337742 
L 380.48282 264.57299 
L 380.420132 264.57299 
" style="fill:none;stroke:#7f7f7f;stroke-linecap:square;stroke-width:3;"/>
   </g>
   <g id="line2d_53">
    <path clip-path="url(#p995305abf6)" d="M 138.37039 58.41439 
L 160.519027 61.233787 
L 162.85292 63.85375 
L 165.721566 65.986689 
L 168.466278 69.428152 
L 165.784236 71.486887 
L 167.698789 73.073911 
L 169.70672 74.442863 
L 173.161662 74.779433 
L 171.841146 74.625566 
L 176.158963 75.293253 
L 178.807102 75.217529 
L 183.616517 74.013704 
L 192.127383 75.585053 
L 199.786973 75.690039 
L 208.797401 75.881936 
L 221.129449 75.590463 
L 236.002603 73.771516 
L 245.554173 75.153429 
L 257.843972 74.53177 
L 265.457552 75.004584 
L 277.046441 75.435548 
L 287.915966 75.57403 
L 301.597336 75.612638 
L 312.863805 75.113552 
L 329.071311 75.17769 
L 344.601511 76.005964 
L 361.086095 74.75854 
L 375.389873 74.181931 
L 392.887005 76.273431 
L 412.652806 74.664715 
" style="fill:none;stroke:#bcbd22;stroke-linecap:square;stroke-width:3;"/>
   </g>
   <g id="line2d_54">
    <path clip-path="url(#p995305abf6)" d="M 200.957685 63.151526 
L 201.832692 64.701413 
L 201.606984 65.505321 
L 204.077806 66.117069 
L 198.943441 67.066891 
L 201.110756 68.104255 
L 199.691152 69.112711 
L 203.135116 70.234859 
L 204.661983 71.446894 
L 206.438449 72.829387 
L 212.82463 74.358091 
L 215.657904 75.978006 
L 221.764485 77.764584 
L 230.579286 79.715772 
L 241.094473 81.782822 
L 254.729646 84.130726 
L 269.483908 87.08134 
L 287.79212 90.596297 
L 301.808616 95.002836 
L 316.717871 100.133178 
L 334.202101 105.989846 
L 349.522177 112.905124 
L 365.797351 120.943459 
L 382.918109 131.700209 
L 395.19503 139.387038 
" style="fill:none;stroke:#17becf;stroke-linecap:square;stroke-width:3;"/>
   </g>
   <g id="line2d_55">
    <path clip-path="url(#p995305abf6)" d="M 214.237932 63.151526 
L 216.059129 64.701413 
L 216.50576 65.697239 
L 216.009429 66.552963 
L 215.336406 68.032434 
L 215.846714 69.826186 
L 216.677891 71.748206 
L 219.393158 74.137949 
L 220.855677 77.02644 
L 223.97939 80.632769 
L 228.047659 85.040953 
L 232.098435 91.380376 
L 238.389865 100.741036 
L 246.707846 112.026471 
L 256.181116 123.941695 
L 268.29785 134.078298 
L 281.120228 145.969848 
L 294.131254 154.652389 
L 307.721657 163.903924 
L 324.115874 174.238481 
L 341.236068 192.919997 
L 356.073091 205.565827 
L 371.93569 213.097243 
L 392.769748 218.980368 
L 409.254673 251.735312 
" style="fill:none;stroke:#1f77b4;stroke-linecap:square;stroke-width:3;"/>
   </g>
   <g id="line2d_56">
    <path clip-path="url(#p995305abf6)" d="M 234.443705 63.151526 
L 251.230409 64.701413 
L 261.256132 65.505321 
L 266.069933 66.117069 
L 277.375804 67.066891 
L 291.052315 68.104255 
L 303.57773 69.112711 
L 317.127351 70.234859 
L 331.729606 71.446894 
L 343.135301 72.829387 
L 359.160125 74.358091 
L 376.779343 75.978006 
L 393.370462 77.764584 
L 413.0673 79.715772 
" style="fill:none;stroke:#ff7f0e;stroke-linecap:square;stroke-width:3;"/>
   </g>
   <g id="line2d_57">
    <path clip-path="url(#p995305abf6)" d="M 143.202345 61.637042 
L 147.167876 65.445193 
L 149.816045 68.268701 
L 151.769288 70.88359 
L 150.581227 75.013679 
L 159.277096 79.498296 
L 164.87021 83.796095 
L 177.443958 89.812528 
L 185.726691 97.281531 
L 196.313849 108.332706 
L 209.412946 120.735907 
L 223.334635 130.034843 
L 239.44742 140.888788 
L 255.483653 157.111945 
L 270.560879 172.259878 
L 283.51159 197.407589 
L 294.541318 234.218867 
L 308.482925 282.580074 
L 317.778658 284.73587 
L 330.854884 284.73587 
L 354.429762 284.73587 
L 385.396603 284.73587 
L 424.143979 284.73587 
" style="fill:none;stroke:#2ca02c;stroke-linecap:square;stroke-width:3;"/>
   </g>
   <g id="line2d_58">
    <path clip-path="url(#p995305abf6)" d="M 364.891788 61.637042 
L 395.364412 65.445193 
L 414.42234 68.391687 
L 405.642317 70.822915 
" style="fill:none;stroke:#d62728;stroke-linecap:square;stroke-width:3;"/>
   </g>
   <g id="patch_3">
    <path d="M 60.992054 296.728 
L 60.992054 43.44 
" style="fill:none;stroke:#000000;stroke-linecap:square;stroke-linejoin:miter;stroke-width:0.8;"/>
   </g>
   <g id="patch_4">
    <path d="M 450 296.728 
L 450 43.44 
" style="fill:none;stroke:#000000;stroke-linecap:square;stroke-linejoin:miter;stroke-width:0.8;"/>
   </g>
   <g id="patch_5">
    <path d="M 60.992054 296.728 
L 450 296.728 
" style="fill:none;stroke:#000000;stroke-linecap:square;stroke-linejoin:miter;stroke-width:0.8;"/>
   </g>
   <g id="patch_6">
    <path d="M 60.992054 43.44 
L 450 43.44 
" style="fill:none;stroke:#000000;stroke-linecap:square;stroke-linejoin:miter;stroke-width:0.8;"/>
   </g>
   <g id="text_15">
    <!-- Lasso Regression[reg=0.1] -->
    <g transform="translate(161.289152 21.763062)scale(0.14 -0.14)">
     <defs>
      <path d="M 9.8125 72.90625 
L 19.671875 72.90625 
L 19.671875 8.296875 
L 55.171875 8.296875 
L 55.171875 0 
L 9.8125 0 
z
" id="DejaVuSans-76"/>
      <path d="M 34.28125 27.484375 
Q 23.390625 27.484375 19.1875 25 
Q 14.984375 22.515625 14.984375 16.5 
Q 14.984375 11.71875 18.140625 8.90625 
Q 21.296875 6.109375 26.703125 6.109375 
Q 34.1875 6.109375 38.703125 11.40625 
Q 43.21875 16.703125 43.21875 25.484375 
L 43.21875 27.484375 
z
M 52.203125 31.203125 
L 52.203125 0 
L 43.21875 0 
L 43.21875 8.296875 
Q 40.140625 3.328125 35.546875 0.953125 
Q 30.953125 -1.421875 24.3125 -1.421875 
Q 15.921875 -1.421875 10.953125 3.296875 
Q 6 8.015625 6 15.921875 
Q 6 25.140625 12.171875 29.828125 
Q 18.359375 34.515625 30.609375 34.515625 
L 43.21875 34.515625 
L 43.21875 35.40625 
Q 43.21875 41.609375 39.140625 45 
Q 35.0625 48.390625 27.6875 48.390625 
Q 23 48.390625 18.546875 47.265625 
Q 14.109375 46.140625 10.015625 43.890625 
L 10.015625 52.203125 
Q 14.9375 54.109375 19.578125 55.046875 
Q 24.21875 56 28.609375 56 
Q 40.484375 56 46.34375 49.84375 
Q 52.203125 43.703125 52.203125 31.203125 
z
" id="DejaVuSans-97"/>
      <path d="M 30.609375 48.390625 
Q 23.390625 48.390625 19.1875 42.75 
Q 14.984375 37.109375 14.984375 27.296875 
Q 14.984375 17.484375 19.15625 11.84375 
Q 23.34375 6.203125 30.609375 6.203125 
Q 37.796875 6.203125 41.984375 11.859375 
Q 46.1875 17.53125 46.1875 27.296875 
Q 46.1875 37.015625 41.984375 42.703125 
Q 37.796875 48.390625 30.609375 48.390625 
z
M 30.609375 56 
Q 42.328125 56 49.015625 48.375 
Q 55.71875 40.765625 55.71875 27.296875 
Q 55.71875 13.875 49.015625 6.21875 
Q 42.328125 -1.421875 30.609375 -1.421875 
Q 18.84375 -1.421875 12.171875 6.21875 
Q 5.515625 13.875 5.515625 27.296875 
Q 5.515625 40.765625 12.171875 48.375 
Q 18.84375 56 30.609375 56 
z
" id="DejaVuSans-111"/>
      <path d="M 44.390625 34.1875 
Q 47.5625 33.109375 50.5625 29.59375 
Q 53.5625 26.078125 56.59375 19.921875 
L 66.609375 0 
L 56 0 
L 46.6875 18.703125 
Q 43.0625 26.03125 39.671875 28.421875 
Q 36.28125 30.8125 30.421875 30.8125 
L 19.671875 30.8125 
L 19.671875 0 
L 9.8125 0 
L 9.8125 72.90625 
L 32.078125 72.90625 
Q 44.578125 72.90625 50.734375 67.671875 
Q 56.890625 62.453125 56.890625 51.90625 
Q 56.890625 45.015625 53.6875 40.46875 
Q 50.484375 35.9375 44.390625 34.1875 
z
M 19.671875 64.796875 
L 19.671875 38.921875 
L 32.078125 38.921875 
Q 39.203125 38.921875 42.84375 42.21875 
Q 46.484375 45.515625 46.484375 51.90625 
Q 46.484375 58.296875 42.84375 61.546875 
Q 39.203125 64.796875 32.078125 64.796875 
z
" id="DejaVuSans-82"/>
      <path d="M 45.40625 27.984375 
Q 45.40625 37.75 41.375 43.109375 
Q 37.359375 48.484375 30.078125 48.484375 
Q 22.859375 48.484375 18.828125 43.109375 
Q 14.796875 37.75 14.796875 27.984375 
Q 14.796875 18.265625 18.828125 12.890625 
Q 22.859375 7.515625 30.078125 7.515625 
Q 37.359375 7.515625 41.375 12.890625 
Q 45.40625 18.265625 45.40625 27.984375 
z
M 54.390625 6.78125 
Q 54.390625 -7.171875 48.1875 -13.984375 
Q 42 -20.796875 29.203125 -20.796875 
Q 24.46875 -20.796875 20.265625 -20.09375 
Q 16.0625 -19.390625 12.109375 -17.921875 
L 12.109375 -9.1875 
Q 16.0625 -11.328125 19.921875 -12.34375 
Q 23.78125 -13.375 27.78125 -13.375 
Q 36.625 -13.375 41.015625 -8.765625 
Q 45.40625 -4.15625 45.40625 5.171875 
L 45.40625 9.625 
Q 42.625 4.78125 38.28125 2.390625 
Q 33.9375 0 27.875 0 
Q 17.828125 0 11.671875 7.65625 
Q 5.515625 15.328125 5.515625 27.984375 
Q 5.515625 40.671875 11.671875 48.328125 
Q 17.828125 56 27.875 56 
Q 33.9375 56 38.28125 53.609375 
Q 42.625 51.21875 45.40625 46.390625 
L 45.40625 54.6875 
L 54.390625 54.6875 
z
" id="DejaVuSans-103"/>
      <path d="M 41.109375 46.296875 
Q 39.59375 47.171875 37.8125 47.578125 
Q 36.03125 48 33.890625 48 
Q 26.265625 48 22.1875 43.046875 
Q 18.109375 38.09375 18.109375 28.8125 
L 18.109375 0 
L 9.078125 0 
L 9.078125 54.6875 
L 18.109375 54.6875 
L 18.109375 46.1875 
Q 20.953125 51.171875 25.484375 53.578125 
Q 30.03125 56 36.53125 56 
Q 37.453125 56 38.578125 55.875 
Q 39.703125 55.765625 41.0625 55.515625 
z
" id="DejaVuSans-114"/>
      <path d="M 54.890625 33.015625 
L 54.890625 0 
L 45.90625 0 
L 45.90625 32.71875 
Q 45.90625 40.484375 42.875 44.328125 
Q 39.84375 48.1875 33.796875 48.1875 
Q 26.515625 48.1875 22.3125 43.546875 
Q 18.109375 38.921875 18.109375 30.90625 
L 18.109375 0 
L 9.078125 0 
L 9.078125 54.6875 
L 18.109375 54.6875 
L 18.109375 46.1875 
Q 21.34375 51.125 25.703125 53.5625 
Q 30.078125 56 35.796875 56 
Q 45.21875 56 50.046875 50.171875 
Q 54.890625 44.34375 54.890625 33.015625 
z
" id="DejaVuSans-110"/>
      <path d="M 10.59375 45.40625 
L 73.1875 45.40625 
L 73.1875 37.203125 
L 10.59375 37.203125 
z
M 10.59375 25.484375 
L 73.1875 25.484375 
L 73.1875 17.1875 
L 10.59375 17.1875 
z
" id="DejaVuSans-61"/>
      <path d="M 10.6875 12.40625 
L 21 12.40625 
L 21 0 
L 10.6875 0 
z
" id="DejaVuSans-46"/>
     </defs>
     <use xlink:href="#DejaVuSans-76"/>
     <use x="55.712891" xlink:href="#DejaVuSans-97"/>
     <use x="116.992188" xlink:href="#DejaVuSans-115"/>
     <use x="169.091797" xlink:href="#DejaVuSans-115"/>
     <use x="221.191406" xlink:href="#DejaVuSans-111"/>
     <use x="282.373047" xlink:href="#DejaVuSans-32"/>
     <use x="314.160156" xlink:href="#DejaVuSans-82"/>
     <use x="379.142578" xlink:href="#DejaVuSans-101"/>
     <use x="440.666016" xlink:href="#DejaVuSans-103"/>
     <use x="504.142578" xlink:href="#DejaVuSans-114"/>
     <use x="543.005859" xlink:href="#DejaVuSans-101"/>
     <use x="604.529297" xlink:href="#DejaVuSans-115"/>
     <use x="656.628906" xlink:href="#DejaVuSans-115"/>
     <use x="708.728516" xlink:href="#DejaVuSans-105"/>
     <use x="736.511719" xlink:href="#DejaVuSans-111"/>
     <use x="797.693359" xlink:href="#DejaVuSans-110"/>
     <use x="861.072266" xlink:href="#DejaVuSans-91"/>
     <use x="900.085938" xlink:href="#DejaVuSans-114"/>
     <use x="938.949219" xlink:href="#DejaVuSans-101"/>
     <use x="1000.472656" xlink:href="#DejaVuSans-103"/>
     <use x="1063.949219" xlink:href="#DejaVuSans-61"/>
     <use x="1147.738281" xlink:href="#DejaVuSans-48"/>
     <use x="1211.361328" xlink:href="#DejaVuSans-46"/>
     <use x="1243.148438" xlink:href="#DejaVuSans-49"/>
     <use x="1306.771484" xlink:href="#DejaVuSans-93"/>
    </g>
    <!-- Data: Simulated[n_samples=100,n_features=10000,rho=0] -->
    <g transform="translate(45.874464 37.44)scale(0.14 -0.14)">
     <defs>
      <path d="M 19.671875 64.796875 
L 19.671875 8.109375 
L 31.59375 8.109375 
Q 46.6875 8.109375 53.6875 14.9375 
Q 60.6875 21.78125 60.6875 36.53125 
Q 60.6875 51.171875 53.6875 57.984375 
Q 46.6875 64.796875 31.59375 64.796875 
z
M 9.8125 72.90625 
L 30.078125 72.90625 
Q 51.265625 72.90625 61.171875 64.09375 
Q 71.09375 55.28125 71.09375 36.53125 
Q 71.09375 17.671875 61.125 8.828125 
Q 51.171875 0 30.078125 0 
L 9.8125 0 
z
" id="DejaVuSans-68"/>
      <path d="M 18.3125 70.21875 
L 18.3125 54.6875 
L 36.8125 54.6875 
L 36.8125 47.703125 
L 18.3125 47.703125 
L 18.3125 18.015625 
Q 18.3125 11.328125 20.140625 9.421875 
Q 21.96875 7.515625 27.59375 7.515625 
L 36.8125 7.515625 
L 36.8125 0 
L 27.59375 0 
Q 17.1875 0 13.234375 3.875 
Q 9.28125 7.765625 9.28125 18.015625 
L 9.28125 47.703125 
L 2.6875 47.703125 
L 2.6875 54.6875 
L 9.28125 54.6875 
L 9.28125 70.21875 
z
" id="DejaVuSans-116"/>
      <path d="M 11.71875 12.40625 
L 22.015625 12.40625 
L 22.015625 0 
L 11.71875 0 
z
M 11.71875 51.703125 
L 22.015625 51.703125 
L 22.015625 39.3125 
L 11.71875 39.3125 
z
" id="DejaVuSans-58"/>
      <path d="M 53.515625 70.515625 
L 53.515625 60.890625 
Q 47.90625 63.578125 42.921875 64.890625 
Q 37.9375 66.21875 33.296875 66.21875 
Q 25.25 66.21875 20.875 63.09375 
Q 16.5 59.96875 16.5 54.203125 
Q 16.5 49.359375 19.40625 46.890625 
Q 22.3125 44.4375 30.421875 42.921875 
L 36.375 41.703125 
Q 47.40625 39.59375 52.65625 34.296875 
Q 57.90625 29 57.90625 20.125 
Q 57.90625 9.515625 50.796875 4.046875 
Q 43.703125 -1.421875 29.984375 -1.421875 
Q 24.8125 -1.421875 18.96875 -0.25 
Q 13.140625 0.921875 6.890625 3.21875 
L 6.890625 13.375 
Q 12.890625 10.015625 18.65625 8.296875 
Q 24.421875 6.59375 29.984375 6.59375 
Q 38.421875 6.59375 43.015625 9.90625 
Q 47.609375 13.234375 47.609375 19.390625 
Q 47.609375 24.75 44.3125 27.78125 
Q 41.015625 30.8125 33.5 32.328125 
L 27.484375 33.5 
Q 16.453125 35.6875 11.515625 40.375 
Q 6.59375 45.0625 6.59375 53.421875 
Q 6.59375 63.09375 13.40625 68.65625 
Q 20.21875 74.21875 32.171875 74.21875 
Q 37.3125 74.21875 42.625 73.28125 
Q 47.953125 72.359375 53.515625 70.515625 
z
" id="DejaVuSans-83"/>
      <path d="M 8.5 21.578125 
L 8.5 54.6875 
L 17.484375 54.6875 
L 17.484375 21.921875 
Q 17.484375 14.15625 20.5 10.265625 
Q 23.53125 6.390625 29.59375 6.390625 
Q 36.859375 6.390625 41.078125 11.03125 
Q 45.3125 15.671875 45.3125 23.6875 
L 45.3125 54.6875 
L 54.296875 54.6875 
L 54.296875 0 
L 45.3125 0 
L 45.3125 8.40625 
Q 42.046875 3.421875 37.71875 1 
Q 33.40625 -1.421875 27.6875 -1.421875 
Q 18.265625 -1.421875 13.375 4.4375 
Q 8.5 10.296875 8.5 21.578125 
z
M 31.109375 56 
z
" id="DejaVuSans-117"/>
      <path d="M 9.421875 75.984375 
L 18.40625 75.984375 
L 18.40625 0 
L 9.421875 0 
z
" id="DejaVuSans-108"/>
      <path d="M 45.40625 46.390625 
L 45.40625 75.984375 
L 54.390625 75.984375 
L 54.390625 0 
L 45.40625 0 
L 45.40625 8.203125 
Q 42.578125 3.328125 38.25 0.953125 
Q 33.9375 -1.421875 27.875 -1.421875 
Q 17.96875 -1.421875 11.734375 6.484375 
Q 5.515625 14.40625 5.515625 27.296875 
Q 5.515625 40.1875 11.734375 48.09375 
Q 17.96875 56 27.875 56 
Q 33.9375 56 38.25 53.625 
Q 42.578125 51.265625 45.40625 46.390625 
z
M 14.796875 27.296875 
Q 14.796875 17.390625 18.875 11.75 
Q 22.953125 6.109375 30.078125 6.109375 
Q 37.203125 6.109375 41.296875 11.75 
Q 45.40625 17.390625 45.40625 27.296875 
Q 45.40625 37.203125 41.296875 42.84375 
Q 37.203125 48.484375 30.078125 48.484375 
Q 22.953125 48.484375 18.875 42.84375 
Q 14.796875 37.203125 14.796875 27.296875 
z
" id="DejaVuSans-100"/>
      <path d="M 50.984375 -16.609375 
L 50.984375 -23.578125 
L -0.984375 -23.578125 
L -0.984375 -16.609375 
z
" id="DejaVuSans-95"/>
      <path d="M 18.109375 8.203125 
L 18.109375 -20.796875 
L 9.078125 -20.796875 
L 9.078125 54.6875 
L 18.109375 54.6875 
L 18.109375 46.390625 
Q 20.953125 51.265625 25.265625 53.625 
Q 29.59375 56 35.59375 56 
Q 45.5625 56 51.78125 48.09375 
Q 58.015625 40.1875 58.015625 27.296875 
Q 58.015625 14.40625 51.78125 6.484375 
Q 45.5625 -1.421875 35.59375 -1.421875 
Q 29.59375 -1.421875 25.265625 0.953125 
Q 20.953125 3.328125 18.109375 8.203125 
z
M 48.6875 27.296875 
Q 48.6875 37.203125 44.609375 42.84375 
Q 40.53125 48.484375 33.40625 48.484375 
Q 26.265625 48.484375 22.1875 42.84375 
Q 18.109375 37.203125 18.109375 27.296875 
Q 18.109375 17.390625 22.1875 11.75 
Q 26.265625 6.109375 33.40625 6.109375 
Q 40.53125 6.109375 44.609375 11.75 
Q 48.6875 17.390625 48.6875 27.296875 
z
" id="DejaVuSans-112"/>
      <path d="M 11.71875 12.40625 
L 22.015625 12.40625 
L 22.015625 4 
L 14.015625 -11.625 
L 7.71875 -11.625 
L 11.71875 4 
z
" id="DejaVuSans-44"/>
      <path d="M 37.109375 75.984375 
L 37.109375 68.5 
L 28.515625 68.5 
Q 23.6875 68.5 21.796875 66.546875 
Q 19.921875 64.59375 19.921875 59.515625 
L 19.921875 54.6875 
L 34.71875 54.6875 
L 34.71875 47.703125 
L 19.921875 47.703125 
L 19.921875 0 
L 10.890625 0 
L 10.890625 47.703125 
L 2.296875 47.703125 
L 2.296875 54.6875 
L 10.890625 54.6875 
L 10.890625 58.5 
Q 10.890625 67.625 15.140625 71.796875 
Q 19.390625 75.984375 28.609375 75.984375 
z
" id="DejaVuSans-102"/>
      <path d="M 54.890625 33.015625 
L 54.890625 0 
L 45.90625 0 
L 45.90625 32.71875 
Q 45.90625 40.484375 42.875 44.328125 
Q 39.84375 48.1875 33.796875 48.1875 
Q 26.515625 48.1875 22.3125 43.546875 
Q 18.109375 38.921875 18.109375 30.90625 
L 18.109375 0 
L 9.078125 0 
L 9.078125 75.984375 
L 18.109375 75.984375 
L 18.109375 46.1875 
Q 21.34375 51.125 25.703125 53.5625 
Q 30.078125 56 35.796875 56 
Q 45.21875 56 50.046875 50.171875 
Q 54.890625 44.34375 54.890625 33.015625 
z
" id="DejaVuSans-104"/>
     </defs>
     <use xlink:href="#DejaVuSans-68"/>
     <use x="77.001953" xlink:href="#DejaVuSans-97"/>
     <use x="138.28125" xlink:href="#DejaVuSans-116"/>
     <use x="177.490234" xlink:href="#DejaVuSans-97"/>
     <use x="238.769531" xlink:href="#DejaVuSans-58"/>
     <use x="272.460938" xlink:href="#DejaVuSans-32"/>
     <use x="304.248047" xlink:href="#DejaVuSans-83"/>
     <use x="367.724609" xlink:href="#DejaVuSans-105"/>
     <use x="395.507812" xlink:href="#DejaVuSans-109"/>
     <use x="492.919922" xlink:href="#DejaVuSans-117"/>
     <use x="556.298828" xlink:href="#DejaVuSans-108"/>
     <use x="584.082031" xlink:href="#DejaVuSans-97"/>
     <use x="645.361328" xlink:href="#DejaVuSans-116"/>
     <use x="684.570312" xlink:href="#DejaVuSans-101"/>
     <use x="746.09375" xlink:href="#DejaVuSans-100"/>
     <use x="809.570312" xlink:href="#DejaVuSans-91"/>
     <use x="848.583984" xlink:href="#DejaVuSans-110"/>
     <use x="911.962891" xlink:href="#DejaVuSans-95"/>
     <use x="961.962891" xlink:href="#DejaVuSans-115"/>
     <use x="1014.0625" xlink:href="#DejaVuSans-97"/>
     <use x="1075.341797" xlink:href="#DejaVuSans-109"/>
     <use x="1172.753906" xlink:href="#DejaVuSans-112"/>
     <use x="1236.230469" xlink:href="#DejaVuSans-108"/>
     <use x="1264.013672" xlink:href="#DejaVuSans-101"/>
     <use x="1325.537109" xlink:href="#DejaVuSans-115"/>
     <use x="1377.636719" xlink:href="#DejaVuSans-61"/>
     <use x="1461.425781" xlink:href="#DejaVuSans-49"/>
     <use x="1525.048828" xlink:href="#DejaVuSans-48"/>
     <use x="1588.671875" xlink:href="#DejaVuSans-48"/>
     <use x="1652.294922" xlink:href="#DejaVuSans-44"/>
     <use x="1684.082031" xlink:href="#DejaVuSans-110"/>
     <use x="1747.460938" xlink:href="#DejaVuSans-95"/>
     <use x="1797.460938" xlink:href="#DejaVuSans-102"/>
     <use x="1832.666016" xlink:href="#DejaVuSans-101"/>
     <use x="1894.189453" xlink:href="#DejaVuSans-97"/>
     <use x="1955.46875" xlink:href="#DejaVuSans-116"/>
     <use x="1994.677734" xlink:href="#DejaVuSans-117"/>
     <use x="2058.056641" xlink:href="#DejaVuSans-114"/>
     <use x="2096.919922" xlink:href="#DejaVuSans-101"/>
     <use x="2158.443359" xlink:href="#DejaVuSans-115"/>
     <use x="2210.542969" xlink:href="#DejaVuSans-61"/>
     <use x="2294.332031" xlink:href="#DejaVuSans-49"/>
     <use x="2357.955078" xlink:href="#DejaVuSans-48"/>
     <use x="2421.578125" xlink:href="#DejaVuSans-48"/>
     <use x="2485.201172" xlink:href="#DejaVuSans-48"/>
     <use x="2548.824219" xlink:href="#DejaVuSans-48"/>
     <use x="2612.447266" xlink:href="#DejaVuSans-44"/>
     <use x="2644.234375" xlink:href="#DejaVuSans-114"/>
     <use x="2683.597656" xlink:href="#DejaVuSans-104"/>
     <use x="2746.976562" xlink:href="#DejaVuSans-111"/>
     <use x="2808.158203" xlink:href="#DejaVuSans-61"/>
     <use x="2891.947266" xlink:href="#DejaVuSans-48"/>
     <use x="2955.570312" xlink:href="#DejaVuSans-93"/>
    </g>
   </g>
   <g id="legend_1">
    <g id="patch_7">
     <path d="M 70.792054 343.11 
L 375.071116 343.11 
Q 377.871116 343.11 377.871116 340.31 
L 377.871116 53.24 
Q 377.871116 50.44 375.071116 50.44 
L 70.792054 50.44 
Q 67.992054 50.44 67.992054 53.24 
L 67.992054 340.31 
Q 67.992054 343.11 70.792054 343.11 
z
" style="fill:#ffffff;opacity:0.8;stroke:#cccccc;stroke-linejoin:miter;"/>
    </g>
    <g id="line2d_59">
     <path d="M 73.592054 61.777812 
L 101.592054 61.777812 
" style="fill:none;stroke:#1f77b4;stroke-linecap:square;stroke-width:3;"/>
    </g>
    <g id="line2d_60"/>
    <g id="text_16">
     <!-- Blitz -->
     <g transform="translate(112.792054 66.677812)scale(0.14 -0.14)">
      <defs>
       <path d="M 19.671875 34.8125 
L 19.671875 8.109375 
L 35.5 8.109375 
Q 43.453125 8.109375 47.28125 11.40625 
Q 51.125 14.703125 51.125 21.484375 
Q 51.125 28.328125 47.28125 31.5625 
Q 43.453125 34.8125 35.5 34.8125 
z
M 19.671875 64.796875 
L 19.671875 42.828125 
L 34.28125 42.828125 
Q 41.5 42.828125 45.03125 45.53125 
Q 48.578125 48.25 48.578125 53.8125 
Q 48.578125 59.328125 45.03125 62.0625 
Q 41.5 64.796875 34.28125 64.796875 
z
M 9.8125 72.90625 
L 35.015625 72.90625 
Q 46.296875 72.90625 52.390625 68.21875 
Q 58.5 63.53125 58.5 54.890625 
Q 58.5 48.1875 55.375 44.234375 
Q 52.25 40.28125 46.1875 39.3125 
Q 53.46875 37.75 57.5 32.78125 
Q 61.53125 27.828125 61.53125 20.40625 
Q 61.53125 10.640625 54.890625 5.3125 
Q 48.25 0 35.984375 0 
L 9.8125 0 
z
" id="DejaVuSans-66"/>
       <path d="M 5.515625 54.6875 
L 48.1875 54.6875 
L 48.1875 46.484375 
L 14.40625 7.171875 
L 48.1875 7.171875 
L 48.1875 0 
L 4.296875 0 
L 4.296875 8.203125 
L 38.09375 47.515625 
L 5.515625 47.515625 
z
" id="DejaVuSans-122"/>
      </defs>
      <use xlink:href="#DejaVuSans-66"/>
      <use x="68.603516" xlink:href="#DejaVuSans-108"/>
      <use x="96.386719" xlink:href="#DejaVuSans-105"/>
      <use x="124.169922" xlink:href="#DejaVuSans-116"/>
      <use x="163.378906" xlink:href="#DejaVuSans-122"/>
     </g>
    </g>
    <g id="line2d_61">
     <path d="M 73.592054 82.327187 
L 101.592054 82.327187 
" style="fill:none;stroke:#ff7f0e;stroke-linecap:square;stroke-width:3;"/>
    </g>
    <g id="line2d_62"/>
    <g id="text_17">
     <!-- cd -->
     <g transform="translate(112.792054 87.227187)scale(0.14 -0.14)">
      <use xlink:href="#DejaVuSans-99"/>
      <use x="54.980469" xlink:href="#DejaVuSans-100"/>
     </g>
    </g>
    <g id="line2d_63">
     <path d="M 73.592054 102.876562 
L 101.592054 102.876562 
" style="fill:none;stroke:#2ca02c;stroke-linecap:square;stroke-width:3;"/>
    </g>
    <g id="line2d_64"/>
    <g id="text_18">
     <!-- Celer -->
     <g transform="translate(112.792054 107.776562)scale(0.14 -0.14)">
      <defs>
       <path d="M 64.40625 67.28125 
L 64.40625 56.890625 
Q 59.421875 61.53125 53.78125 63.8125 
Q 48.140625 66.109375 41.796875 66.109375 
Q 29.296875 66.109375 22.65625 58.46875 
Q 16.015625 50.828125 16.015625 36.375 
Q 16.015625 21.96875 22.65625 14.328125 
Q 29.296875 6.6875 41.796875 6.6875 
Q 48.140625 6.6875 53.78125 8.984375 
Q 59.421875 11.28125 64.40625 15.921875 
L 64.40625 5.609375 
Q 59.234375 2.09375 53.4375 0.328125 
Q 47.65625 -1.421875 41.21875 -1.421875 
Q 24.65625 -1.421875 15.125 8.703125 
Q 5.609375 18.84375 5.609375 36.375 
Q 5.609375 53.953125 15.125 64.078125 
Q 24.65625 74.21875 41.21875 74.21875 
Q 47.75 74.21875 53.53125 72.484375 
Q 59.328125 70.75 64.40625 67.28125 
z
" id="DejaVuSans-67"/>
      </defs>
      <use xlink:href="#DejaVuSans-67"/>
      <use x="69.824219" xlink:href="#DejaVuSans-101"/>
      <use x="131.347656" xlink:href="#DejaVuSans-108"/>
      <use x="159.130859" xlink:href="#DejaVuSans-101"/>
      <use x="220.654297" xlink:href="#DejaVuSans-114"/>
     </g>
    </g>
    <g id="line2d_65">
     <path d="M 73.592054 123.425937 
L 101.592054 123.425937 
" style="fill:none;stroke:#d62728;stroke-linecap:square;stroke-width:3;"/>
    </g>
    <g id="line2d_66"/>
    <g id="text_19">
     <!-- cvxpy -->
     <g transform="translate(112.792054 128.325937)scale(0.14 -0.14)">
      <defs>
       <path d="M 2.984375 54.6875 
L 12.5 54.6875 
L 29.59375 8.796875 
L 46.6875 54.6875 
L 56.203125 54.6875 
L 35.6875 0 
L 23.484375 0 
z
" id="DejaVuSans-118"/>
       <path d="M 54.890625 54.6875 
L 35.109375 28.078125 
L 55.90625 0 
L 45.3125 0 
L 29.390625 21.484375 
L 13.484375 0 
L 2.875 0 
L 24.125 28.609375 
L 4.6875 54.6875 
L 15.28125 54.6875 
L 29.78125 35.203125 
L 44.28125 54.6875 
z
" id="DejaVuSans-120"/>
       <path d="M 32.171875 -5.078125 
Q 28.375 -14.84375 24.75 -17.8125 
Q 21.140625 -20.796875 15.09375 -20.796875 
L 7.90625 -20.796875 
L 7.90625 -13.28125 
L 13.1875 -13.28125 
Q 16.890625 -13.28125 18.9375 -11.515625 
Q 21 -9.765625 23.484375 -3.21875 
L 25.09375 0.875 
L 2.984375 54.6875 
L 12.5 54.6875 
L 29.59375 11.921875 
L 46.6875 54.6875 
L 56.203125 54.6875 
z
" id="DejaVuSans-121"/>
      </defs>
      <use xlink:href="#DejaVuSans-99"/>
      <use x="54.980469" xlink:href="#DejaVuSans-118"/>
      <use x="114.160156" xlink:href="#DejaVuSans-120"/>
      <use x="173.339844" xlink:href="#DejaVuSans-112"/>
      <use x="236.816406" xlink:href="#DejaVuSans-121"/>
     </g>
    </g>
    <g id="line2d_67">
     <path d="M 73.592054 143.975312 
L 101.592054 143.975312 
" style="fill:none;stroke:#9467bd;stroke-linecap:square;stroke-width:3;"/>
    </g>
    <g id="line2d_68"/>
    <g id="text_20">
     <!-- Cyanure -->
     <g transform="translate(112.792054 148.875312)scale(0.14 -0.14)">
      <use xlink:href="#DejaVuSans-67"/>
      <use x="69.824219" xlink:href="#DejaVuSans-121"/>
      <use x="129.003906" xlink:href="#DejaVuSans-97"/>
      <use x="190.283203" xlink:href="#DejaVuSans-110"/>
      <use x="253.662109" xlink:href="#DejaVuSans-117"/>
      <use x="317.041016" xlink:href="#DejaVuSans-114"/>
      <use x="355.904297" xlink:href="#DejaVuSans-101"/>
     </g>
    </g>
    <g id="line2d_69">
     <path d="M 73.592054 164.524687 
L 101.592054 164.524687 
" style="fill:none;stroke:#8c564b;stroke-linecap:square;stroke-width:3;"/>
    </g>
    <g id="line2d_70"/>
    <g id="text_21">
     <!-- glmnet -->
     <g transform="translate(112.792054 169.424687)scale(0.14 -0.14)">
      <use xlink:href="#DejaVuSans-103"/>
      <use x="63.476562" xlink:href="#DejaVuSans-108"/>
      <use x="91.259766" xlink:href="#DejaVuSans-109"/>
      <use x="188.671875" xlink:href="#DejaVuSans-110"/>
      <use x="252.050781" xlink:href="#DejaVuSans-101"/>
      <use x="313.574219" xlink:href="#DejaVuSans-116"/>
     </g>
    </g>
    <g id="line2d_71">
     <path d="M 73.592054 185.074062 
L 101.592054 185.074062 
" style="fill:none;stroke:#e377c2;stroke-linecap:square;stroke-width:3;"/>
    </g>
    <g id="line2d_72"/>
    <g id="text_22">
     <!-- Julia-PGD -->
     <g transform="translate(112.792054 189.974062)scale(0.14 -0.14)">
      <defs>
       <path d="M 9.8125 72.90625 
L 19.671875 72.90625 
L 19.671875 5.078125 
Q 19.671875 -8.109375 14.671875 -14.0625 
Q 9.671875 -20.015625 -1.421875 -20.015625 
L -5.171875 -20.015625 
L -5.171875 -11.71875 
L -2.09375 -11.71875 
Q 4.4375 -11.71875 7.125 -8.046875 
Q 9.8125 -4.390625 9.8125 5.078125 
z
" id="DejaVuSans-74"/>
       <path d="M 4.890625 31.390625 
L 31.203125 31.390625 
L 31.203125 23.390625 
L 4.890625 23.390625 
z
" id="DejaVuSans-45"/>
       <path d="M 19.671875 64.796875 
L 19.671875 37.40625 
L 32.078125 37.40625 
Q 38.96875 37.40625 42.71875 40.96875 
Q 46.484375 44.53125 46.484375 51.125 
Q 46.484375 57.671875 42.71875 61.234375 
Q 38.96875 64.796875 32.078125 64.796875 
z
M 9.8125 72.90625 
L 32.078125 72.90625 
Q 44.34375 72.90625 50.609375 67.359375 
Q 56.890625 61.8125 56.890625 51.125 
Q 56.890625 40.328125 50.609375 34.8125 
Q 44.34375 29.296875 32.078125 29.296875 
L 19.671875 29.296875 
L 19.671875 0 
L 9.8125 0 
z
" id="DejaVuSans-80"/>
       <path d="M 59.515625 10.40625 
L 59.515625 29.984375 
L 43.40625 29.984375 
L 43.40625 38.09375 
L 69.28125 38.09375 
L 69.28125 6.78125 
Q 63.578125 2.734375 56.6875 0.65625 
Q 49.8125 -1.421875 42 -1.421875 
Q 24.90625 -1.421875 15.25 8.5625 
Q 5.609375 18.5625 5.609375 36.375 
Q 5.609375 54.25 15.25 64.234375 
Q 24.90625 74.21875 42 74.21875 
Q 49.125 74.21875 55.546875 72.453125 
Q 61.96875 70.703125 67.390625 67.28125 
L 67.390625 56.78125 
Q 61.921875 61.421875 55.765625 63.765625 
Q 49.609375 66.109375 42.828125 66.109375 
Q 29.4375 66.109375 22.71875 58.640625 
Q 16.015625 51.171875 16.015625 36.375 
Q 16.015625 21.625 22.71875 14.15625 
Q 29.4375 6.6875 42.828125 6.6875 
Q 48.046875 6.6875 52.140625 7.59375 
Q 56.25 8.5 59.515625 10.40625 
z
" id="DejaVuSans-71"/>
      </defs>
      <use xlink:href="#DejaVuSans-74"/>
      <use x="29.492188" xlink:href="#DejaVuSans-117"/>
      <use x="92.871094" xlink:href="#DejaVuSans-108"/>
      <use x="120.654297" xlink:href="#DejaVuSans-105"/>
      <use x="148.4375" xlink:href="#DejaVuSans-97"/>
      <use x="209.716797" xlink:href="#DejaVuSans-45"/>
      <use x="245.800781" xlink:href="#DejaVuSans-80"/>
      <use x="306.103516" xlink:href="#DejaVuSans-71"/>
      <use x="383.59375" xlink:href="#DejaVuSans-68"/>
     </g>
    </g>
    <g id="line2d_73">
     <path d="M 73.592054 205.623437 
L 101.592054 205.623437 
" style="fill:none;stroke:#7f7f7f;stroke-linecap:square;stroke-width:3;"/>
    </g>
    <g id="line2d_74"/>
    <g id="text_23">
     <!-- L-BFGS-B -->
     <g transform="translate(112.792054 210.523437)scale(0.14 -0.14)">
      <defs>
       <path d="M 9.8125 72.90625 
L 51.703125 72.90625 
L 51.703125 64.59375 
L 19.671875 64.59375 
L 19.671875 43.109375 
L 48.578125 43.109375 
L 48.578125 34.8125 
L 19.671875 34.8125 
L 19.671875 0 
L 9.8125 0 
z
" id="DejaVuSans-70"/>
      </defs>
      <use xlink:href="#DejaVuSans-76"/>
      <use x="53.962891" xlink:href="#DejaVuSans-45"/>
      <use x="86.421875" xlink:href="#DejaVuSans-66"/>
      <use x="155.025391" xlink:href="#DejaVuSans-70"/>
      <use x="212.544922" xlink:href="#DejaVuSans-71"/>
      <use x="290.035156" xlink:href="#DejaVuSans-83"/>
      <use x="353.511719" xlink:href="#DejaVuSans-45"/>
      <use x="385.970703" xlink:href="#DejaVuSans-66"/>
     </g>
    </g>
    <g id="line2d_75">
     <path d="M 73.592054 226.172812 
L 101.592054 226.172812 
" style="fill:none;stroke:#bcbd22;stroke-linecap:square;stroke-width:3;"/>
    </g>
    <g id="line2d_76"/>
    <g id="text_24">
     <!-- Lightning -->
     <g transform="translate(112.792054 231.072812)scale(0.14 -0.14)">
      <use xlink:href="#DejaVuSans-76"/>
      <use x="55.712891" xlink:href="#DejaVuSans-105"/>
      <use x="83.496094" xlink:href="#DejaVuSans-103"/>
      <use x="146.972656" xlink:href="#DejaVuSans-104"/>
      <use x="210.351562" xlink:href="#DejaVuSans-116"/>
      <use x="249.560547" xlink:href="#DejaVuSans-110"/>
      <use x="312.939453" xlink:href="#DejaVuSans-105"/>
      <use x="340.722656" xlink:href="#DejaVuSans-110"/>
      <use x="404.101562" xlink:href="#DejaVuSans-103"/>
     </g>
    </g>
    <g id="line2d_77">
     <path d="M 73.592054 246.722187 
L 101.592054 246.722187 
" style="fill:none;stroke:#17becf;stroke-linecap:square;stroke-width:3;"/>
    </g>
    <g id="line2d_78"/>
    <g id="text_25">
     <!-- Python-PGD[use_acceleration=False] -->
     <g transform="translate(112.792054 251.622187)scale(0.14 -0.14)">
      <use xlink:href="#DejaVuSans-80"/>
      <use x="60.302734" xlink:href="#DejaVuSans-121"/>
      <use x="119.482422" xlink:href="#DejaVuSans-116"/>
      <use x="158.691406" xlink:href="#DejaVuSans-104"/>
      <use x="222.070312" xlink:href="#DejaVuSans-111"/>
      <use x="283.251953" xlink:href="#DejaVuSans-110"/>
      <use x="346.630859" xlink:href="#DejaVuSans-45"/>
      <use x="382.714844" xlink:href="#DejaVuSans-80"/>
      <use x="443.017578" xlink:href="#DejaVuSans-71"/>
      <use x="520.507812" xlink:href="#DejaVuSans-68"/>
      <use x="597.509766" xlink:href="#DejaVuSans-91"/>
      <use x="636.523438" xlink:href="#DejaVuSans-117"/>
      <use x="699.902344" xlink:href="#DejaVuSans-115"/>
      <use x="752.001953" xlink:href="#DejaVuSans-101"/>
      <use x="813.525391" xlink:href="#DejaVuSans-95"/>
      <use x="863.525391" xlink:href="#DejaVuSans-97"/>
      <use x="924.804688" xlink:href="#DejaVuSans-99"/>
      <use x="979.785156" xlink:href="#DejaVuSans-99"/>
      <use x="1034.765625" xlink:href="#DejaVuSans-101"/>
      <use x="1096.289062" xlink:href="#DejaVuSans-108"/>
      <use x="1124.072266" xlink:href="#DejaVuSans-101"/>
      <use x="1185.595703" xlink:href="#DejaVuSans-114"/>
      <use x="1226.708984" xlink:href="#DejaVuSans-97"/>
      <use x="1287.988281" xlink:href="#DejaVuSans-116"/>
      <use x="1327.197266" xlink:href="#DejaVuSans-105"/>
      <use x="1354.980469" xlink:href="#DejaVuSans-111"/>
      <use x="1416.162109" xlink:href="#DejaVuSans-110"/>
      <use x="1479.541016" xlink:href="#DejaVuSans-61"/>
      <use x="1563.330078" xlink:href="#DejaVuSans-70"/>
      <use x="1611.724609" xlink:href="#DejaVuSans-97"/>
      <use x="1673.003906" xlink:href="#DejaVuSans-108"/>
      <use x="1700.787109" xlink:href="#DejaVuSans-115"/>
      <use x="1752.886719" xlink:href="#DejaVuSans-101"/>
      <use x="1814.410156" xlink:href="#DejaVuSans-93"/>
     </g>
    </g>
    <g id="line2d_79">
     <path d="M 73.592054 267.660937 
L 101.592054 267.660937 
" style="fill:none;stroke:#1f77b4;stroke-linecap:square;stroke-width:3;"/>
    </g>
    <g id="line2d_80"/>
    <g id="text_26">
     <!-- Python-PGD[use_acceleration=True] -->
     <g transform="translate(112.792054 272.560937)scale(0.14 -0.14)">
      <use xlink:href="#DejaVuSans-80"/>
      <use x="60.302734" xlink:href="#DejaVuSans-121"/>
      <use x="119.482422" xlink:href="#DejaVuSans-116"/>
      <use x="158.691406" xlink:href="#DejaVuSans-104"/>
      <use x="222.070312" xlink:href="#DejaVuSans-111"/>
      <use x="283.251953" xlink:href="#DejaVuSans-110"/>
      <use x="346.630859" xlink:href="#DejaVuSans-45"/>
      <use x="382.714844" xlink:href="#DejaVuSans-80"/>
      <use x="443.017578" xlink:href="#DejaVuSans-71"/>
      <use x="520.507812" xlink:href="#DejaVuSans-68"/>
      <use x="597.509766" xlink:href="#DejaVuSans-91"/>
      <use x="636.523438" xlink:href="#DejaVuSans-117"/>
      <use x="699.902344" xlink:href="#DejaVuSans-115"/>
      <use x="752.001953" xlink:href="#DejaVuSans-101"/>
      <use x="813.525391" xlink:href="#DejaVuSans-95"/>
      <use x="863.525391" xlink:href="#DejaVuSans-97"/>
      <use x="924.804688" xlink:href="#DejaVuSans-99"/>
      <use x="979.785156" xlink:href="#DejaVuSans-99"/>
      <use x="1034.765625" xlink:href="#DejaVuSans-101"/>
      <use x="1096.289062" xlink:href="#DejaVuSans-108"/>
      <use x="1124.072266" xlink:href="#DejaVuSans-101"/>
      <use x="1185.595703" xlink:href="#DejaVuSans-114"/>
      <use x="1226.708984" xlink:href="#DejaVuSans-97"/>
      <use x="1287.988281" xlink:href="#DejaVuSans-116"/>
      <use x="1327.197266" xlink:href="#DejaVuSans-105"/>
      <use x="1354.980469" xlink:href="#DejaVuSans-111"/>
      <use x="1416.162109" xlink:href="#DejaVuSans-110"/>
      <use x="1479.541016" xlink:href="#DejaVuSans-61"/>
      <use x="1563.330078" xlink:href="#DejaVuSans-84"/>
      <use x="1609.664062" xlink:href="#DejaVuSans-114"/>
      <use x="1650.777344" xlink:href="#DejaVuSans-117"/>
      <use x="1714.15625" xlink:href="#DejaVuSans-101"/>
      <use x="1775.679688" xlink:href="#DejaVuSans-93"/>
     </g>
    </g>
    <g id="line2d_81">
     <path d="M 73.592054 288.599687 
L 101.592054 288.599687 
" style="fill:none;stroke:#ff7f0e;stroke-linecap:square;stroke-width:3;"/>
    </g>
    <g id="line2d_82"/>
    <g id="text_27">
     <!-- R-PGD -->
     <g transform="translate(112.792054 293.499687)scale(0.14 -0.14)">
      <use xlink:href="#DejaVuSans-82"/>
      <use x="65.482422" xlink:href="#DejaVuSans-45"/>
      <use x="101.566406" xlink:href="#DejaVuSans-80"/>
      <use x="161.869141" xlink:href="#DejaVuSans-71"/>
      <use x="239.359375" xlink:href="#DejaVuSans-68"/>
     </g>
    </g>
    <g id="line2d_83">
     <path d="M 73.592054 309.149062 
L 101.592054 309.149062 
" style="fill:none;stroke:#2ca02c;stroke-linecap:square;stroke-width:3;"/>
    </g>
    <g id="line2d_84"/>
    <g id="text_28">
     <!-- sklearn -->
     <g transform="translate(112.792054 314.049062)scale(0.14 -0.14)">
      <defs>
       <path d="M 9.078125 75.984375 
L 18.109375 75.984375 
L 18.109375 31.109375 
L 44.921875 54.6875 
L 56.390625 54.6875 
L 27.390625 29.109375 
L 57.625 0 
L 45.90625 0 
L 18.109375 26.703125 
L 18.109375 0 
L 9.078125 0 
z
" id="DejaVuSans-107"/>
      </defs>
      <use xlink:href="#DejaVuSans-115"/>
      <use x="52.099609" xlink:href="#DejaVuSans-107"/>
      <use x="110.009766" xlink:href="#DejaVuSans-108"/>
      <use x="137.792969" xlink:href="#DejaVuSans-101"/>
      <use x="199.316406" xlink:href="#DejaVuSans-97"/>
      <use x="260.595703" xlink:href="#DejaVuSans-114"/>
      <use x="299.958984" xlink:href="#DejaVuSans-110"/>
     </g>
    </g>
    <g id="line2d_85">
     <path d="M 73.592054 329.698437 
L 101.592054 329.698437 
" style="fill:none;stroke:#d62728;stroke-linecap:square;stroke-width:3;"/>
    </g>
    <g id="line2d_86"/>
    <g id="text_29">
     <!-- statsmodels -->
     <g transform="translate(112.792054 334.598437)scale(0.14 -0.14)">
      <use xlink:href="#DejaVuSans-115"/>
      <use x="52.099609" xlink:href="#DejaVuSans-116"/>
      <use x="91.308594" xlink:href="#DejaVuSans-97"/>
      <use x="152.587891" xlink:href="#DejaVuSans-116"/>
      <use x="191.796875" xlink:href="#DejaVuSans-115"/>
      <use x="243.896484" xlink:href="#DejaVuSans-109"/>
      <use x="341.308594" xlink:href="#DejaVuSans-111"/>
      <use x="402.490234" xlink:href="#DejaVuSans-100"/>
      <use x="465.966797" xlink:href="#DejaVuSans-101"/>
      <use x="527.490234" xlink:href="#DejaVuSans-108"/>
      <use x="555.273438" xlink:href="#DejaVuSans-115"/>
     </g>
    </g>
   </g>
  </g>
 </g>
 <defs>
  <clipPath id="p995305abf6">
   <rect height="253.288" width="389.007946" x="60.992054" y="43.44"/>
  </clipPath>
 </defs>
</svg>
