<?xml version="1.0" encoding="utf-8" standalone="no"?>
<!DOCTYPE svg PUBLIC "-//W3C//DTD SVG 1.1//EN"
  "http://www.w3.org/Graphics/SVG/1.1/DTD/svg11.dtd">
<!-- Created with matplotlib (https://matplotlib.org/) -->
<svg height="345.6pt" version="1.1" viewBox="0 0 460.8 345.6" width="460.8pt" xmlns="http://www.w3.org/2000/svg" xmlns:xlink="http://www.w3.org/1999/xlink">
 <metadata>
  <rdf:RDF xmlns:cc="http://creativecommons.org/ns#" xmlns:dc="http://purl.org/dc/elements/1.1/" xmlns:rdf="http://www.w3.org/1999/02/22-rdf-syntax-ns#">
   <cc:Work>
    <dc:type rdf:resource="http://purl.org/dc/dcmitype/StillImage"/>
    <dc:date>2020-12-16T18:00:08.228788</dc:date>
    <dc:format>image/svg+xml</dc:format>
    <dc:creator>
     <cc:Agent>
      <dc:title>Matplotlib v3.3.3, https://matplotlib.org/</dc:title>
     </cc:Agent>
    </dc:creator>
   </cc:Work>
  </rdf:RDF>
 </metadata>
 <defs>
  <style type="text/css">*{stroke-linecap:butt;stroke-linejoin:round;}</style>
 </defs>
 <g id="figure_1">
  <g id="patch_1">
   <path d="M 0 345.6 
L 460.8 345.6 
L 460.8 0 
L 0 0 
z
" style="fill:#ffffff;"/>
  </g>
  <g id="axes_1">
   <g id="patch_2">
    <path d="M 72.196742 296.728 
L 450 296.728 
L 450 43.44 
L 72.196742 43.44 
z
" style="fill:#ffffff;"/>
   </g>
   <g id="PolyCollection_1">
    <defs>
     <path d="M 231.862557 -60.385091 
L 228.752138 -60.385091 
L 227.331419 -60.385091 
L 228.532977 -60.385091 
L 227.494254 -60.385091 
L 227.984214 -60.385091 
L 229.288018 -60.385091 
L 228.722129 -60.385091 
L 229.04224 -60.385091 
L 226.64241 -60.385091 
L 227.98584 -60.385091 
L 226.116734 -60.385091 
L 227.172429 -60.385091 
L 227.914493 -60.385091 
L 227.243929 -60.385091 
L 226.909477 -60.385091 
L 228.653717 -60.385091 
L 229.77245 -60.385091 
L 227.117266 -60.385091 
L 230.135471 -60.385091 
L 228.965817 -60.385091 
L 228.117431 -60.385091 
L 228.512056 -60.385091 
L 228.215825 -60.385091 
L 229.153909 -60.385091 
L 228.460439 -60.385091 
L 229.006456 -60.385091 
L 225.705477 -60.385091 
L 227.765937 -60.385091 
L 227.125016 -60.385091 
L 225.515667 -60.385091 
L 224.475077 -60.385091 
L 224.947696 -60.385091 
L 222.115186 -60.385091 
L 222.323964 -60.385091 
L 220.876439 -60.385091 
L 220.32175 -60.385091 
L 219.268001 -60.385091 
L 218.828411 -60.385091 
L 216.053899 -60.385091 
L 214.306609 -60.385091 
L 213.752359 -60.385091 
L 211.156816 -60.385091 
L 206.994733 -60.385091 
L 205.299598 -60.385091 
L 205.553209 -60.385091 
L 205.798594 -60.385091 
L 204.767713 -60.385092 
L 203.049483 -60.385093 
L 199.05062 -60.385099 
L 194.127563 -60.38511 
L 190.344358 -60.385127 
L 187.081828 -60.385183 
L 183.882402 -60.385259 
L 179.431777 -60.385349 
L 177.072689 -60.385533 
L 172.999472 -60.385987 
L 171.36816 -60.38622 
L 168.708867 -60.386992 
L 167.198839 -60.389541 
L 162.717266 -60.396185 
L 156.850503 -60.426785 
L 153.97729 -60.436189 
L 150.368805 -60.440899 
L 150.387204 -60.593077 
L 139.784749 -60.635199 
L 140.851586 -60.651049 
L 140.908589 -60.643357 
L 119.826027 -60.75616 
L 120.352385 -62.984206 
L 90.160142 -71.442364 
L 89.369618 -71.461688 
L 89.608535 -71.429684 
L 98.409679 -71.429684 
L 98.409679 -71.429684 
L 91.574802 -71.461688 
L 92.007339 -71.442364 
L 121.119778 -62.984206 
L 126.723438 -60.75616 
L 142.189569 -60.643357 
L 142.679472 -60.651049 
L 148.83884 -60.635199 
L 153.297693 -60.593077 
L 163.721936 -60.440899 
L 157.480676 -60.436189 
L 161.916 -60.426785 
L 168.649008 -60.396185 
L 171.141196 -60.389541 
L 171.37669 -60.386992 
L 174.482984 -60.38622 
L 179.511972 -60.385987 
L 181.8373 -60.385533 
L 185.97259 -60.385349 
L 188.277453 -60.385259 
L 190.689421 -60.385183 
L 196.074885 -60.385127 
L 199.827526 -60.38511 
L 203.691967 -60.385099 
L 205.178693 -60.385093 
L 207.857037 -60.385092 
L 207.741933 -60.385091 
L 207.831323 -60.385091 
L 209.432176 -60.385091 
L 211.671051 -60.385091 
L 213.188632 -60.385091 
L 216.988512 -60.385091 
L 218.151415 -60.385091 
L 218.009682 -60.385091 
L 222.131494 -60.385091 
L 220.863042 -60.385091 
L 222.31054 -60.385091 
L 223.141003 -60.385091 
L 223.784782 -60.385091 
L 224.958826 -60.385091 
L 226.238561 -60.385091 
L 226.361367 -60.385091 
L 227.698166 -60.385091 
L 227.758573 -60.385091 
L 229.459991 -60.385091 
L 228.557398 -60.385091 
L 229.879425 -60.385091 
L 231.230568 -60.385091 
L 231.141476 -60.385091 
L 230.914532 -60.385091 
L 231.412253 -60.385091 
L 230.787827 -60.385091 
L 230.774619 -60.385091 
L 230.69705 -60.385091 
L 230.376402 -60.385091 
L 231.010524 -60.385091 
L 230.298167 -60.385091 
L 229.875834 -60.385091 
L 229.899229 -60.385091 
L 230.967891 -60.385091 
L 230.827742 -60.385091 
L 230.89926 -60.385091 
L 230.76925 -60.385091 
L 230.676928 -60.385091 
L 230.946093 -60.385091 
L 231.945087 -60.385091 
L 231.687784 -60.385091 
L 231.339945 -60.385091 
L 229.388463 -60.385091 
L 230.317809 -60.385091 
L 231.036158 -60.385091 
L 231.862557 -60.385091 
z
" id="m552632dafb" style="stroke:#1f77b4;stroke-opacity:0.3;"/>
    </defs>
    <g clip-path="url(#p5852e857ca)">
     <use style="fill:#1f77b4;fill-opacity:0.3;stroke:#1f77b4;stroke-opacity:0.3;" x="0" xlink:href="#m552632dafb" y="345.6"/>
    </g>
   </g>
   <g id="PolyCollection_2">
    <defs>
     <path d="M 131.199414 -184.994939 
L 107.00651 -184.994939 
L 111.910657 -142.083524 
L 124.723229 -118.362374 
L 127.001288 -101.796361 
L 143.707236 -84.047701 
L 150.759038 -72.935421 
L 159.587529 -67.116073 
L 174.071424 -63.162352 
L 188.418486 -61.301803 
L 201.706552 -60.561808 
L 218.918043 -60.412884 
L 234.075322 -60.392034 
L 248.797947 -60.386466 
L 262.904596 -60.385213 
L 275.723837 -60.385104 
L 289.0403 -60.385091 
L 302.409059 -60.385091 
L 313.088661 -60.385091 
L 326.263566 -60.385091 
L 341.685387 -60.385091 
L 357.307506 -60.385091 
L 370.164048 -60.385091 
L 387.719849 -60.385091 
L 389.517349 -60.385091 
L 389.517349 -60.385091 
L 373.723507 -60.385091 
L 358.832011 -60.385091 
L 344.044793 -60.385091 
L 328.953611 -60.385091 
L 316.195743 -60.385091 
L 306.893766 -60.385091 
L 292.672033 -60.385091 
L 277.69958 -60.385104 
L 266.716152 -60.385213 
L 249.634792 -60.386466 
L 235.68914 -60.392034 
L 219.647201 -60.412884 
L 203.759437 -60.561808 
L 191.477889 -61.301803 
L 179.164395 -63.162352 
L 167.924228 -67.116073 
L 152.187935 -72.935421 
L 149.211715 -84.047701 
L 142.445186 -101.796361 
L 138.296462 -118.362374 
L 125.928488 -142.083524 
L 131.199414 -184.994939 
z
" id="m8293d2f52e" style="stroke:#ff7f0e;stroke-opacity:0.3;"/>
    </defs>
    <g clip-path="url(#p5852e857ca)">
     <use style="fill:#ff7f0e;fill-opacity:0.3;stroke:#ff7f0e;stroke-opacity:0.3;" x="0" xlink:href="#m8293d2f52e" y="345.6"/>
    </g>
   </g>
   <g id="PolyCollection_3">
    <defs>
     <path d="M 137.068056 -205.712161 
L 131.395654 -205.712161 
L 136.219289 -128.506812 
L 142.305194 -83.406212 
L 146.251716 -67.982246 
L 154.510478 -61.354628 
L 167.959416 -60.386347 
L 182.54164 -60.385094 
L 191.112737 -60.385091 
L 199.850999 -60.385091 
L 199.297724 -60.385091 
L 196.89441 -60.385091 
L 196.784183 -60.385091 
L 199.235277 -60.385091 
L 197.973728 -60.385091 
L 201.086631 -60.385091 
L 201.086631 -60.385091 
L 200.599204 -60.385091 
L 200.718846 -60.385091 
L 200.043925 -60.385091 
L 202.044279 -60.385091 
L 202.980834 -60.385091 
L 195.746291 -60.385091 
L 185.309707 -60.385094 
L 174.44554 -60.386347 
L 163.380609 -61.354628 
L 151.799796 -67.982246 
L 148.342233 -83.406212 
L 144.164868 -128.506812 
L 137.068056 -205.712161 
z
" id="m0105344a8d" style="stroke:#2ca02c;stroke-opacity:0.3;"/>
    </defs>
    <g clip-path="url(#p5852e857ca)">
     <use style="fill:#2ca02c;fill-opacity:0.3;stroke:#2ca02c;stroke-opacity:0.3;" x="0" xlink:href="#m0105344a8d" y="345.6"/>
    </g>
   </g>
   <g id="PolyCollection_4">
    <defs>
     <path d="M 327.037326 -241.806908 
L 280.762327 -241.806908 
L 295.738917 -241.806908 
L 306.909254 -241.806908 
L 329.387001 -241.806908 
L 362.88521 -102.042698 
L 388.004214 -60.385091 
L 387.654544 -60.385091 
L 387.829164 -60.385091 
L 392.554227 -60.385091 
L 392.554227 -60.385091 
L 398.922631 -60.385091 
L 389.720788 -60.385091 
L 364.831076 -102.042698 
L 330.611113 -241.806908 
L 309.935557 -241.806908 
L 297.633159 -241.806908 
L 327.037326 -241.806908 
z
" id="m8f619c4a45" style="stroke:#d62728;stroke-opacity:0.3;"/>
    </defs>
    <g clip-path="url(#p5852e857ca)">
     <use style="fill:#d62728;fill-opacity:0.3;stroke:#d62728;stroke-opacity:0.3;" x="0" xlink:href="#m8f619c4a45" y="345.6"/>
    </g>
   </g>
   <g id="PolyCollection_5">
    <defs>
     <path d="M 150.167812 -290.646909 
L 108.897004 -290.646909 
L 100.024318 -180.167145 
L 91.647895 -141.429672 
L 91.911558 -134.612493 
L 106.647323 -123.121312 
L 114.707504 -113.455813 
L 132.151715 -110.653262 
L 142.386398 -110.653262 
L 168.784201 -82.807893 
L 198.579636 -70.730373 
L 219.787613 -64.543979 
L 245.100963 -61.037923 
L 269.106088 -60.411506 
L 292.429513 -60.385351 
L 314.328404 -60.385091 
L 335.597824 -60.385091 
L 356.866248 -60.385091 
L 396.142933 -60.385091 
L 415.970179 -60.385091 
L 418.619995 -60.385091 
L 418.619995 -60.385091 
L 400.343556 -60.385091 
L 372.936921 -60.385091 
L 348.46325 -60.385091 
L 326.775926 -60.385091 
L 307.094037 -60.385351 
L 271.283725 -60.411506 
L 246.747606 -61.037923 
L 222.643623 -64.543979 
L 208.308115 -70.730373 
L 291.361581 -82.807893 
L 151.198399 -110.653262 
L 228.351588 -110.653262 
L 125.080791 -113.455813 
L 288.26851 -123.121312 
L 114.494149 -134.612493 
L 108.084313 -141.429672 
L 123.718059 -180.167145 
L 150.167812 -290.646909 
z
" id="m40c1f28a65" style="stroke:#9467bd;stroke-opacity:0.3;"/>
    </defs>
    <g clip-path="url(#p5852e857ca)">
     <use style="fill:#9467bd;fill-opacity:0.3;stroke:#9467bd;stroke-opacity:0.3;" x="0" xlink:href="#m40c1f28a65" y="345.6"/>
    </g>
   </g>
   <g id="PolyCollection_6">
    <defs>
     <path d="M 241.936033 -290.646909 
L 185.373635 -290.646909 
L 185.126012 -289.765947 
L 189.999457 -289.765947 
L 189.981205 -288.922792 
L 190.182646 -288.116062 
L 194.250427 -288.116062 
L 192.893055 -285.142009 
L 202.018113 -277.224832 
L 206.292398 -262.407703 
L 211.274746 -224.320184 
L 222.534601 -174.27616 
L 238.88657 -115.482254 
L 253.673553 -81.755922 
L 271.181191 -63.757093 
L 285.197055 -60.385091 
L 283.685961 -60.385091 
L 284.170263 -60.385091 
L 282.839338 -60.385091 
L 281.014973 -60.385091 
L 280.22628 -60.385091 
L 284.078796 -60.385091 
L 284.078796 -60.385091 
L 289.649926 -60.385091 
L 289.715036 -60.385091 
L 291.235601 -60.385091 
L 288.725929 -60.385091 
L 292.444887 -60.385091 
L 275.625149 -63.757093 
L 271.935128 -81.755922 
L 248.849644 -115.482254 
L 249.716702 -174.27616 
L 245.177179 -224.320184 
L 238.083093 -262.407703 
L 234.481666 -277.224832 
L 236.986525 -285.142009 
L 205.825747 -288.116062 
L 210.912417 -288.116062 
L 211.09651 -288.922792 
L 233.173487 -289.765947 
L 210.948808 -289.765947 
L 241.936033 -290.646909 
z
" id="m1415210e23" style="stroke:#8c564b;stroke-opacity:0.3;"/>
    </defs>
    <g clip-path="url(#p5852e857ca)">
     <use style="fill:#8c564b;fill-opacity:0.3;stroke:#8c564b;stroke-opacity:0.3;" x="0" xlink:href="#m1415210e23" y="345.6"/>
    </g>
   </g>
   <g id="PolyCollection_7">
    <defs>
     <path d="M 248.501459 -166.370318 
L 213.907544 -166.370318 
L 221.393317 -149.448432 
L 222.466261 -141.509161 
L 223.221583 -135.84174 
L 227.493552 -127.665355 
L 227.180913 -119.568839 
L 226.832767 -112.489003 
L 234.074301 -105.468926 
L 241.151818 -98.823116 
L 244.519375 -92.315677 
L 257.615488 -86.294401 
L 261.647175 -81.070244 
L 264.017796 -76.461581 
L 271.990422 -72.549427 
L 280.114221 -69.409474 
L 289.485288 -66.794705 
L 312.90917 -64.54138 
L 316.142767 -62.858229 
L 327.86191 -61.67145 
L 345.526654 -60.984764 
L 361.961166 -60.635679 
L 371.420821 -60.474457 
L 419.159039 -60.412037 
L 432.827125 -60.412037 
L 432.827125 -60.412037 
L 381.626983 -60.474457 
L 381.434979 -60.635679 
L 350.581051 -60.984764 
L 334.266069 -61.67145 
L 323.511221 -62.858229 
L 322.465827 -64.54138 
L 299.484652 -66.794705 
L 282.807943 -69.409474 
L 273.902726 -72.549427 
L 265.749874 -76.461581 
L 264.077801 -81.070244 
L 267.263898 -86.294401 
L 250.257151 -92.315677 
L 243.473622 -98.823116 
L 237.337705 -105.468926 
L 232.584152 -112.489003 
L 230.848894 -119.568839 
L 231.722886 -127.665355 
L 232.190906 -135.84174 
L 247.334815 -141.509161 
L 229.369482 -149.448432 
L 248.501459 -166.370318 
z
" id="meaeed90e2d" style="stroke:#e377c2;stroke-opacity:0.3;"/>
    </defs>
    <g clip-path="url(#p5852e857ca)">
     <use style="fill:#e377c2;fill-opacity:0.3;stroke:#e377c2;stroke-opacity:0.3;" x="0" xlink:href="#meaeed90e2d" y="345.6"/>
    </g>
   </g>
   <g id="PolyCollection_8">
    <defs>
     <path d="M 226.583956 -239.189593 
L 194.325467 -239.189593 
L 196.131301 -150.507933 
L 200.478734 -144.862281 
L 204.154516 -133.213695 
L 209.444488 -119.191237 
L 214.764535 -105.064547 
L 226.227065 -93.755348 
L 234.470875 -82.752298 
L 260.80929 -74.29313 
L 260.958315 -67.340321 
L 275.018159 -63.184509 
L 287.964836 -61.298939 
L 304.249712 -60.672237 
L 317.536902 -60.43152 
L 333.076904 -60.39106 
L 346.63649 -60.385612 
L 355.733898 -60.385101 
L 372.843982 -60.385091 
L 379.580433 -60.385091 
L 380.135473 -60.385091 
L 388.612884 -60.385091 
L 388.612884 -60.385091 
L 389.67479 -60.385091 
L 375.822203 -60.385091 
L 356.470111 -60.385101 
L 350.935227 -60.385612 
L 336.00126 -60.39106 
L 320.354358 -60.43152 
L 308.314899 -60.672237 
L 295.740107 -61.298939 
L 286.526222 -63.184509 
L 278.265852 -67.340321 
L 289.668454 -74.29313 
L 254.036734 -82.752298 
L 245.588577 -93.755348 
L 249.590044 -105.064547 
L 236.01481 -119.191237 
L 233.689581 -133.213695 
L 233.689224 -144.862281 
L 229.098933 -150.507933 
L 226.583956 -239.189593 
z
" id="m4359e3914a" style="stroke:#7f7f7f;stroke-opacity:0.3;"/>
    </defs>
    <g clip-path="url(#p5852e857ca)">
     <use style="fill:#7f7f7f;fill-opacity:0.3;stroke:#7f7f7f;stroke-opacity:0.3;" x="0" xlink:href="#m4359e3914a" y="345.6"/>
    </g>
   </g>
   <g id="PolyCollection_9">
    <defs>
     <path d="M 149.836445 -231.402598 
L 146.087722 -231.402598 
L 167.558599 -190.302577 
L 170.298607 -158.436994 
L 172.576038 -137.022886 
L 173.32384 -110.42705 
L 173.911782 -98.619386 
L 175.169284 -91.27399 
L 176.716536 -85.993179 
L 179.474545 -84.828876 
L 179.134913 -85.354937 
L 181.130339 -83.14574 
L 185.554117 -83.386829 
L 190.834624 -87.552014 
L 197.547763 -82.238571 
L 206.4051 -81.920525 
L 215.558817 -81.350352 
L 226.971955 -82.222074 
L 241.384551 -88.469757 
L 251.193943 -83.592767 
L 259.627804 -85.680738 
L 268.665048 -84.077594 
L 278.678694 -82.699063 
L 288.979387 -82.272218 
L 302.858871 -82.154583 
L 315.388561 -83.721742 
L 328.478687 -83.514622 
L 347.082344 -80.989389 
L 362.18115 -84.899702 
L 375.404102 -86.930835 
L 391.552451 -80.230726 
L 413.728526 -85.220103 
L 413.728526 -85.220103 
L 413.728526 -85.220103 
L 395.278537 -80.230726 
L 378.249816 -86.930835 
L 365.845119 -84.899702 
L 349.794299 -80.989389 
L 333.34659 -83.514622 
L 317.744224 -83.721742 
L 306.592906 -82.154583 
L 293.355619 -82.272218 
L 283.498436 -82.699063 
L 278.338656 -84.077594 
L 269.564568 -85.680738 
L 254.639312 -83.592767 
L 242.939736 -88.469757 
L 229.426586 -82.222074 
L 218.515395 -81.350352 
L 209.659704 -81.920525 
L 200.351386 -82.238571 
L 194.607401 -87.552014 
L 189.39976 -83.386829 
L 185.659647 -83.14574 
L 179.932589 -85.354937 
L 182.646295 -84.828876 
L 178.868178 -85.993179 
L 178.212535 -91.27399 
L 178.995483 -98.619386 
L 177.157169 -110.42705 
L 177.429098 -137.022886 
L 177.869313 -158.436994 
L 174.127532 -190.302577 
L 149.836445 -231.402598 
z
" id="m5fcfd47537" style="stroke:#bcbd22;stroke-opacity:0.3;"/>
    </defs>
    <g clip-path="url(#p5852e857ca)">
     <use style="fill:#bcbd22;fill-opacity:0.3;stroke:#bcbd22;stroke-opacity:0.3;" x="0" xlink:href="#m5fcfd47537" y="345.6"/>
    </g>
   </g>
   <g id="PolyCollection_10">
    <defs>
     <path d="M 219.493495 -166.370318 
L 205.459166 -166.370318 
L 206.534465 -149.448432 
L 206.426229 -141.509161 
L 208.818473 -135.84174 
L 205.355884 -127.665355 
L 205.262609 -119.568839 
L 206.611699 -112.489003 
L 209.019596 -105.468926 
L 210.551846 -98.823116 
L 212.934019 -92.315677 
L 216.918571 -86.294401 
L 221.601057 -81.070244 
L 227.638314 -76.461581 
L 236.668629 -72.549427 
L 246.948098 -69.409474 
L 259.480562 -66.794705 
L 274.020134 -64.54138 
L 291.408775 -62.858229 
L 305.284877 -61.67145 
L 319.898933 -60.984764 
L 336.322865 -60.635679 
L 352.133188 -60.474457 
L 366.609564 -60.412037 
L 384.011831 -60.390507 
L 394.663715 -60.386811 
L 397.746787 -60.386811 
L 397.746787 -60.386811 
L 386.320949 -60.390507 
L 370.024833 -60.412037 
L 353.902877 -60.474457 
L 337.977373 -60.635679 
L 321.527768 -60.984764 
L 308.510231 -61.67145 
L 296.654051 -62.858229 
L 276.303319 -64.54138 
L 260.848062 -66.794705 
L 248.667777 -69.409474 
L 237.008357 -72.549427 
L 228.888091 -76.461581 
L 223.462976 -81.070244 
L 221.100529 -86.294401 
L 215.312063 -92.315677 
L 216.276921 -98.823116 
L 212.745989 -105.468926 
L 209.769169 -112.489003 
L 212.345834 -119.568839 
L 209.157934 -127.665355 
L 218.041212 -135.84174 
L 219.722605 -141.509161 
L 213.002923 -149.448432 
L 219.493495 -166.370318 
z
" id="m29eaefa2df" style="stroke:#17becf;stroke-opacity:0.3;"/>
    </defs>
    <g clip-path="url(#p5852e857ca)">
     <use style="fill:#17becf;fill-opacity:0.3;stroke:#17becf;stroke-opacity:0.3;" x="0" xlink:href="#m29eaefa2df" y="345.6"/>
    </g>
   </g>
   <g id="PolyCollection_11">
    <defs>
     <path d="M 221.536517 -166.370318 
L 220.204615 -166.370318 
L 220.090264 -149.448432 
L 221.741517 -139.696734 
L 221.385222 -131.996634 
L 221.606052 -120.102257 
L 222.202592 -107.925026 
L 223.158213 -97.31163 
L 225.680683 -87.091966 
L 226.780672 -78.23361 
L 230.172282 -71.044093 
L 233.635879 -65.994782 
L 238.095455 -62.587081 
L 244.322341 -60.932869 
L 251.828077 -60.486969 
L 261.465798 -60.40232 
L 272.845776 -60.388889 
L 285.368798 -60.385735 
L 297.838228 -60.385267 
L 310.705851 -60.385135 
L 325.011026 -60.3851 
L 341.446013 -60.385091 
L 358.185883 -60.385091 
L 373.420797 -60.385091 
L 388.624244 -60.385091 
L 410.045427 -60.385091 
L 410.807617 -60.385091 
L 410.807617 -60.385091 
L 402.860351 -60.385091 
L 377.495045 -60.385091 
L 360.214245 -60.385091 
L 346.638253 -60.385091 
L 329.514244 -60.3851 
L 312.689338 -60.385135 
L 300.431345 -60.385267 
L 286.982776 -60.385735 
L 275.745102 -60.388889 
L 262.787624 -60.40232 
L 253.968871 -60.486969 
L 245.230972 -60.932869 
L 240.656017 -62.587081 
L 234.962628 -65.994782 
L 231.657778 -71.044093 
L 228.708186 -78.23361 
L 226.853489 -87.091966 
L 225.010979 -97.31163 
L 223.249834 -107.925026 
L 222.689478 -120.102257 
L 223.69535 -131.996634 
L 223.983415 -139.696734 
L 224.112683 -149.448432 
L 221.536517 -166.370318 
z
" id="m26c83996c9" style="stroke:#1f77b4;stroke-opacity:0.3;"/>
    </defs>
    <g clip-path="url(#p5852e857ca)">
     <use style="fill:#1f77b4;fill-opacity:0.3;stroke:#1f77b4;stroke-opacity:0.3;" x="0" xlink:href="#m26c83996c9" y="345.6"/>
    </g>
   </g>
   <g id="PolyCollection_12">
    <defs>
     <path d="M 247.350605 -166.370318 
L 239.96822 -166.370318 
L 254.058548 -149.448432 
L 260.960913 -141.509161 
L 268.190613 -135.84174 
L 281.46412 -127.665355 
L 294.462331 -119.568839 
L 305.945798 -112.489003 
L 320.107081 -105.468926 
L 334.076186 -98.823116 
L 344.550101 -92.315677 
L 361.477244 -86.294401 
L 377.477822 -81.070244 
L 394.772105 -76.461581 
L 414.131081 -72.549427 
L 414.131081 -72.549427 
L 414.131081 -72.549427 
L 397.601138 -76.461581 
L 379.143498 -81.070244 
L 362.930335 -86.294401 
L 347.7893 -92.315677 
L 336.596599 -98.823116 
L 322.07683 -105.468926 
L 313.27209 -112.489003 
L 296.157365 -119.568839 
L 284.580886 -127.665355 
L 272.261925 -135.84174 
L 268.558479 -141.509161 
L 258.777049 -149.448432 
L 247.350605 -166.370318 
z
" id="m14f83c93aa" style="stroke:#ff7f0e;stroke-opacity:0.3;"/>
    </defs>
    <g clip-path="url(#p5852e857ca)">
     <use style="fill:#ff7f0e;fill-opacity:0.3;stroke:#ff7f0e;stroke-opacity:0.3;" x="0" xlink:href="#m14f83c93aa" y="345.6"/>
    </g>
   </g>
   <g id="PolyCollection_13">
    <defs>
     <path d="M 154.45933 -184.994939 
L 147.097077 -184.994939 
L 149.683298 -142.083524 
L 156.414555 -118.362374 
L 155.641292 -101.796361 
L 157.491111 -84.047701 
L 164.453402 -72.935421 
L 169.862951 -67.116073 
L 183.905887 -63.162352 
L 189.439261 -61.301803 
L 202.827229 -60.561808 
L 215.601167 -60.412884 
L 228.832585 -60.392034 
L 245.275587 -60.386466 
L 260.53407 -60.385213 
L 274.703555 -60.385104 
L 287.076161 -60.385091 
L 298.088013 -60.385091 
L 311.740872 -60.385091 
L 319.892261 -60.385091 
L 333.567726 -60.385091 
L 355.365837 -60.385091 
L 386.517975 -60.385091 
L 423.963086 -60.385091 
L 425.961625 -60.385091 
L 425.961625 -60.385091 
L 388.801373 -60.385091 
L 358.069748 -60.385091 
L 335.096938 -60.385091 
L 322.894623 -60.385091 
L 313.600436 -60.385091 
L 302.20188 -60.385091 
L 294.753603 -60.385091 
L 278.505063 -60.385104 
L 262.53285 -60.385213 
L 246.512139 -60.386466 
L 230.078712 -60.392034 
L 216.732846 -60.412884 
L 205.817074 -60.561808 
L 195.578033 -61.301803 
L 199.463035 -63.162352 
L 177.024862 -67.116073 
L 171.839754 -72.935421 
L 163.077484 -84.047701 
L 161.492407 -101.796361 
L 164.117643 -118.362374 
L 157.320546 -142.083524 
L 154.45933 -184.994939 
z
" id="mc6346f0574" style="stroke:#2ca02c;stroke-opacity:0.3;"/>
    </defs>
    <g clip-path="url(#p5852e857ca)">
     <use style="fill:#2ca02c;fill-opacity:0.3;stroke:#2ca02c;stroke-opacity:0.3;" x="0" xlink:href="#mc6346f0574" y="345.6"/>
    </g>
   </g>
   <g id="PolyCollection_14">
    <defs>
     <path d="M 369.187091 -184.994939 
L 366.911353 -184.994939 
L 395.447021 -142.083524 
L 408.937905 -117.473519 
L 405.671448 -102.128383 
L 408.132038 -102.128383 
L 408.132038 -102.128383 
L 418.467249 -117.473519 
L 405.600301 -142.083524 
L 369.187091 -184.994939 
z
" id="m4586570937" style="stroke:#d62728;stroke-opacity:0.3;"/>
    </defs>
    <g clip-path="url(#p5852e857ca)">
     <use style="fill:#d62728;fill-opacity:0.3;stroke:#d62728;stroke-opacity:0.3;" x="0" xlink:href="#m4586570937" y="345.6"/>
    </g>
   </g>
   <g id="matplotlib.axis_1">
    <g id="xtick_1">
     <g id="line2d_1">
      <defs>
       <path d="M 0 0 
L 0 3.5 
" id="m61bbf10291" style="stroke:#000000;stroke-width:0.8;"/>
      </defs>
      <g>
       <use style="stroke:#000000;stroke-width:0.8;" x="132.240861" xlink:href="#m61bbf10291" y="296.728"/>
      </g>
     </g>
     <g id="text_1">
      <!-- $\mathdefault{10^{-2}}$ -->
      <g transform="translate(120.490861 311.326437)scale(0.1 -0.1)">
       <defs>
        <path d="M 12.40625 8.296875 
L 28.515625 8.296875 
L 28.515625 63.921875 
L 10.984375 60.40625 
L 10.984375 69.390625 
L 28.421875 72.90625 
L 38.28125 72.90625 
L 38.28125 8.296875 
L 54.390625 8.296875 
L 54.390625 0 
L 12.40625 0 
z
" id="DejaVuSans-49"/>
        <path d="M 31.78125 66.40625 
Q 24.171875 66.40625 20.328125 58.90625 
Q 16.5 51.421875 16.5 36.375 
Q 16.5 21.390625 20.328125 13.890625 
Q 24.171875 6.390625 31.78125 6.390625 
Q 39.453125 6.390625 43.28125 13.890625 
Q 47.125 21.390625 47.125 36.375 
Q 47.125 51.421875 43.28125 58.90625 
Q 39.453125 66.40625 31.78125 66.40625 
z
M 31.78125 74.21875 
Q 44.046875 74.21875 50.515625 64.515625 
Q 56.984375 54.828125 56.984375 36.375 
Q 56.984375 17.96875 50.515625 8.265625 
Q 44.046875 -1.421875 31.78125 -1.421875 
Q 19.53125 -1.421875 13.0625 8.265625 
Q 6.59375 17.96875 6.59375 36.375 
Q 6.59375 54.828125 13.0625 64.515625 
Q 19.53125 74.21875 31.78125 74.21875 
z
" id="DejaVuSans-48"/>
        <path d="M 10.59375 35.5 
L 73.1875 35.5 
L 73.1875 27.203125 
L 10.59375 27.203125 
z
" id="DejaVuSans-8722"/>
        <path d="M 19.1875 8.296875 
L 53.609375 8.296875 
L 53.609375 0 
L 7.328125 0 
L 7.328125 8.296875 
Q 12.9375 14.109375 22.625 23.890625 
Q 32.328125 33.6875 34.8125 36.53125 
Q 39.546875 41.84375 41.421875 45.53125 
Q 43.3125 49.21875 43.3125 52.78125 
Q 43.3125 58.59375 39.234375 62.25 
Q 35.15625 65.921875 28.609375 65.921875 
Q 23.96875 65.921875 18.8125 64.3125 
Q 13.671875 62.703125 7.8125 59.421875 
L 7.8125 69.390625 
Q 13.765625 71.78125 18.9375 73 
Q 24.125 74.21875 28.421875 74.21875 
Q 39.75 74.21875 46.484375 68.546875 
Q 53.21875 62.890625 53.21875 53.421875 
Q 53.21875 48.921875 51.53125 44.890625 
Q 49.859375 40.875 45.40625 35.40625 
Q 44.1875 33.984375 37.640625 27.21875 
Q 31.109375 20.453125 19.1875 8.296875 
z
" id="DejaVuSans-50"/>
       </defs>
       <use transform="translate(0 0.765625)" xlink:href="#DejaVuSans-49"/>
       <use transform="translate(63.623047 0.765625)" xlink:href="#DejaVuSans-48"/>
       <use transform="translate(128.203125 39.046875)scale(0.7)" xlink:href="#DejaVuSans-8722"/>
       <use transform="translate(186.855469 39.046875)scale(0.7)" xlink:href="#DejaVuSans-50"/>
      </g>
     </g>
    </g>
    <g id="xtick_2">
     <g id="line2d_2">
      <g>
       <use style="stroke:#000000;stroke-width:0.8;" x="227.874211" xlink:href="#m61bbf10291" y="296.728"/>
      </g>
     </g>
     <g id="text_2">
      <!-- $\mathdefault{10^{-1}}$ -->
      <g transform="translate(216.124211 311.326437)scale(0.1 -0.1)">
       <use transform="translate(0 0.684375)" xlink:href="#DejaVuSans-49"/>
       <use transform="translate(63.623047 0.684375)" xlink:href="#DejaVuSans-48"/>
       <use transform="translate(128.203125 38.965625)scale(0.7)" xlink:href="#DejaVuSans-8722"/>
       <use transform="translate(186.855469 38.965625)scale(0.7)" xlink:href="#DejaVuSans-49"/>
      </g>
     </g>
    </g>
    <g id="xtick_3">
     <g id="line2d_3">
      <g>
       <use style="stroke:#000000;stroke-width:0.8;" x="323.507561" xlink:href="#m61bbf10291" y="296.728"/>
      </g>
     </g>
     <g id="text_3">
      <!-- $\mathdefault{10^{0}}$ -->
      <g transform="translate(314.707561 311.326437)scale(0.1 -0.1)">
       <use transform="translate(0 0.765625)" xlink:href="#DejaVuSans-49"/>
       <use transform="translate(63.623047 0.765625)" xlink:href="#DejaVuSans-48"/>
       <use transform="translate(128.203125 39.046875)scale(0.7)" xlink:href="#DejaVuSans-48"/>
      </g>
     </g>
    </g>
    <g id="xtick_4">
     <g id="line2d_4">
      <g>
       <use style="stroke:#000000;stroke-width:0.8;" x="419.140911" xlink:href="#m61bbf10291" y="296.728"/>
      </g>
     </g>
     <g id="text_4">
      <!-- $\mathdefault{10^{1}}$ -->
      <g transform="translate(410.340911 311.326437)scale(0.1 -0.1)">
       <use transform="translate(0 0.684375)" xlink:href="#DejaVuSans-49"/>
       <use transform="translate(63.623047 0.684375)" xlink:href="#DejaVuSans-48"/>
       <use transform="translate(128.203125 38.965625)scale(0.7)" xlink:href="#DejaVuSans-49"/>
      </g>
     </g>
    </g>
    <g id="xtick_5">
     <g id="line2d_5">
      <defs>
       <path d="M 0 0 
L 0 2 
" id="mbd0962f0b8" style="stroke:#000000;stroke-width:0.6;"/>
      </defs>
      <g>
       <use style="stroke:#000000;stroke-width:0.6;" x="82.236214" xlink:href="#mbd0962f0b8" y="296.728"/>
      </g>
     </g>
    </g>
    <g id="xtick_6">
     <g id="line2d_6">
      <g>
       <use style="stroke:#000000;stroke-width:0.6;" x="94.184524" xlink:href="#mbd0962f0b8" y="296.728"/>
      </g>
     </g>
    </g>
    <g id="xtick_7">
     <g id="line2d_7">
      <g>
       <use style="stroke:#000000;stroke-width:0.6;" x="103.452354" xlink:href="#mbd0962f0b8" y="296.728"/>
      </g>
     </g>
    </g>
    <g id="xtick_8">
     <g id="line2d_8">
      <g>
       <use style="stroke:#000000;stroke-width:0.6;" x="111.024721" xlink:href="#mbd0962f0b8" y="296.728"/>
      </g>
     </g>
    </g>
    <g id="xtick_9">
     <g id="line2d_9">
      <g>
       <use style="stroke:#000000;stroke-width:0.6;" x="117.427067" xlink:href="#mbd0962f0b8" y="296.728"/>
      </g>
     </g>
    </g>
    <g id="xtick_10">
     <g id="line2d_10">
      <g>
       <use style="stroke:#000000;stroke-width:0.6;" x="122.973031" xlink:href="#mbd0962f0b8" y="296.728"/>
      </g>
     </g>
    </g>
    <g id="xtick_11">
     <g id="line2d_11">
      <g>
       <use style="stroke:#000000;stroke-width:0.6;" x="127.864918" xlink:href="#mbd0962f0b8" y="296.728"/>
      </g>
     </g>
    </g>
    <g id="xtick_12">
     <g id="line2d_12">
      <g>
       <use style="stroke:#000000;stroke-width:0.6;" x="161.029367" xlink:href="#mbd0962f0b8" y="296.728"/>
      </g>
     </g>
    </g>
    <g id="xtick_13">
     <g id="line2d_13">
      <g>
       <use style="stroke:#000000;stroke-width:0.6;" x="177.869565" xlink:href="#mbd0962f0b8" y="296.728"/>
      </g>
     </g>
    </g>
    <g id="xtick_14">
     <g id="line2d_14">
      <g>
       <use style="stroke:#000000;stroke-width:0.6;" x="189.817874" xlink:href="#mbd0962f0b8" y="296.728"/>
      </g>
     </g>
    </g>
    <g id="xtick_15">
     <g id="line2d_15">
      <g>
       <use style="stroke:#000000;stroke-width:0.6;" x="199.085704" xlink:href="#mbd0962f0b8" y="296.728"/>
      </g>
     </g>
    </g>
    <g id="xtick_16">
     <g id="line2d_16">
      <g>
       <use style="stroke:#000000;stroke-width:0.6;" x="206.658071" xlink:href="#mbd0962f0b8" y="296.728"/>
      </g>
     </g>
    </g>
    <g id="xtick_17">
     <g id="line2d_17">
      <g>
       <use style="stroke:#000000;stroke-width:0.6;" x="213.060417" xlink:href="#mbd0962f0b8" y="296.728"/>
      </g>
     </g>
    </g>
    <g id="xtick_18">
     <g id="line2d_18">
      <g>
       <use style="stroke:#000000;stroke-width:0.6;" x="218.606381" xlink:href="#mbd0962f0b8" y="296.728"/>
      </g>
     </g>
    </g>
    <g id="xtick_19">
     <g id="line2d_19">
      <g>
       <use style="stroke:#000000;stroke-width:0.6;" x="223.498268" xlink:href="#mbd0962f0b8" y="296.728"/>
      </g>
     </g>
    </g>
    <g id="xtick_20">
     <g id="line2d_20">
      <g>
       <use style="stroke:#000000;stroke-width:0.6;" x="256.662718" xlink:href="#mbd0962f0b8" y="296.728"/>
      </g>
     </g>
    </g>
    <g id="xtick_21">
     <g id="line2d_21">
      <g>
       <use style="stroke:#000000;stroke-width:0.6;" x="273.502915" xlink:href="#mbd0962f0b8" y="296.728"/>
      </g>
     </g>
    </g>
    <g id="xtick_22">
     <g id="line2d_22">
      <g>
       <use style="stroke:#000000;stroke-width:0.6;" x="285.451225" xlink:href="#mbd0962f0b8" y="296.728"/>
      </g>
     </g>
    </g>
    <g id="xtick_23">
     <g id="line2d_23">
      <g>
       <use style="stroke:#000000;stroke-width:0.6;" x="294.719054" xlink:href="#mbd0962f0b8" y="296.728"/>
      </g>
     </g>
    </g>
    <g id="xtick_24">
     <g id="line2d_24">
      <g>
       <use style="stroke:#000000;stroke-width:0.6;" x="302.291422" xlink:href="#mbd0962f0b8" y="296.728"/>
      </g>
     </g>
    </g>
    <g id="xtick_25">
     <g id="line2d_25">
      <g>
       <use style="stroke:#000000;stroke-width:0.6;" x="308.693767" xlink:href="#mbd0962f0b8" y="296.728"/>
      </g>
     </g>
    </g>
    <g id="xtick_26">
     <g id="line2d_26">
      <g>
       <use style="stroke:#000000;stroke-width:0.6;" x="314.239731" xlink:href="#mbd0962f0b8" y="296.728"/>
      </g>
     </g>
    </g>
    <g id="xtick_27">
     <g id="line2d_27">
      <g>
       <use style="stroke:#000000;stroke-width:0.6;" x="319.131619" xlink:href="#mbd0962f0b8" y="296.728"/>
      </g>
     </g>
    </g>
    <g id="xtick_28">
     <g id="line2d_28">
      <g>
       <use style="stroke:#000000;stroke-width:0.6;" x="352.296068" xlink:href="#mbd0962f0b8" y="296.728"/>
      </g>
     </g>
    </g>
    <g id="xtick_29">
     <g id="line2d_29">
      <g>
       <use style="stroke:#000000;stroke-width:0.6;" x="369.136265" xlink:href="#mbd0962f0b8" y="296.728"/>
      </g>
     </g>
    </g>
    <g id="xtick_30">
     <g id="line2d_30">
      <g>
       <use style="stroke:#000000;stroke-width:0.6;" x="381.084575" xlink:href="#mbd0962f0b8" y="296.728"/>
      </g>
     </g>
    </g>
    <g id="xtick_31">
     <g id="line2d_31">
      <g>
       <use style="stroke:#000000;stroke-width:0.6;" x="390.352404" xlink:href="#mbd0962f0b8" y="296.728"/>
      </g>
     </g>
    </g>
    <g id="xtick_32">
     <g id="line2d_32">
      <g>
       <use style="stroke:#000000;stroke-width:0.6;" x="397.924772" xlink:href="#mbd0962f0b8" y="296.728"/>
      </g>
     </g>
    </g>
    <g id="xtick_33">
     <g id="line2d_33">
      <g>
       <use style="stroke:#000000;stroke-width:0.6;" x="404.327117" xlink:href="#mbd0962f0b8" y="296.728"/>
      </g>
     </g>
    </g>
    <g id="xtick_34">
     <g id="line2d_34">
      <g>
       <use style="stroke:#000000;stroke-width:0.6;" x="409.873082" xlink:href="#mbd0962f0b8" y="296.728"/>
      </g>
     </g>
    </g>
    <g id="xtick_35">
     <g id="line2d_35">
      <g>
       <use style="stroke:#000000;stroke-width:0.6;" x="414.764969" xlink:href="#mbd0962f0b8" y="296.728"/>
      </g>
     </g>
    </g>
    <g id="xtick_36">
     <g id="line2d_36">
      <g>
       <use style="stroke:#000000;stroke-width:0.6;" x="447.929418" xlink:href="#mbd0962f0b8" y="296.728"/>
      </g>
     </g>
    </g>
    <g id="text_5">
     <!-- Time [sec] -->
     <g transform="translate(224.481809 328.043937)scale(0.14 -0.14)">
      <defs>
       <path d="M -0.296875 72.90625 
L 61.375 72.90625 
L 61.375 64.59375 
L 35.5 64.59375 
L 35.5 0 
L 25.59375 0 
L 25.59375 64.59375 
L -0.296875 64.59375 
z
" id="DejaVuSans-84"/>
       <path d="M 9.421875 54.6875 
L 18.40625 54.6875 
L 18.40625 0 
L 9.421875 0 
z
M 9.421875 75.984375 
L 18.40625 75.984375 
L 18.40625 64.59375 
L 9.421875 64.59375 
z
" id="DejaVuSans-105"/>
       <path d="M 52 44.1875 
Q 55.375 50.25 60.0625 53.125 
Q 64.75 56 71.09375 56 
Q 79.640625 56 84.28125 50.015625 
Q 88.921875 44.046875 88.921875 33.015625 
L 88.921875 0 
L 79.890625 0 
L 79.890625 32.71875 
Q 79.890625 40.578125 77.09375 44.375 
Q 74.3125 48.1875 68.609375 48.1875 
Q 61.625 48.1875 57.5625 43.546875 
Q 53.515625 38.921875 53.515625 30.90625 
L 53.515625 0 
L 44.484375 0 
L 44.484375 32.71875 
Q 44.484375 40.625 41.703125 44.40625 
Q 38.921875 48.1875 33.109375 48.1875 
Q 26.21875 48.1875 22.15625 43.53125 
Q 18.109375 38.875 18.109375 30.90625 
L 18.109375 0 
L 9.078125 0 
L 9.078125 54.6875 
L 18.109375 54.6875 
L 18.109375 46.1875 
Q 21.1875 51.21875 25.484375 53.609375 
Q 29.78125 56 35.6875 56 
Q 41.65625 56 45.828125 52.96875 
Q 50 49.953125 52 44.1875 
z
" id="DejaVuSans-109"/>
       <path d="M 56.203125 29.59375 
L 56.203125 25.203125 
L 14.890625 25.203125 
Q 15.484375 15.921875 20.484375 11.0625 
Q 25.484375 6.203125 34.421875 6.203125 
Q 39.59375 6.203125 44.453125 7.46875 
Q 49.3125 8.734375 54.109375 11.28125 
L 54.109375 2.78125 
Q 49.265625 0.734375 44.1875 -0.34375 
Q 39.109375 -1.421875 33.890625 -1.421875 
Q 20.796875 -1.421875 13.15625 6.1875 
Q 5.515625 13.8125 5.515625 26.8125 
Q 5.515625 40.234375 12.765625 48.109375 
Q 20.015625 56 32.328125 56 
Q 43.359375 56 49.78125 48.890625 
Q 56.203125 41.796875 56.203125 29.59375 
z
M 47.21875 32.234375 
Q 47.125 39.59375 43.09375 43.984375 
Q 39.0625 48.390625 32.421875 48.390625 
Q 24.90625 48.390625 20.390625 44.140625 
Q 15.875 39.890625 15.1875 32.171875 
z
" id="DejaVuSans-101"/>
       <path id="DejaVuSans-32"/>
       <path d="M 8.59375 75.984375 
L 29.296875 75.984375 
L 29.296875 69 
L 17.578125 69 
L 17.578125 -6.203125 
L 29.296875 -6.203125 
L 29.296875 -13.1875 
L 8.59375 -13.1875 
z
" id="DejaVuSans-91"/>
       <path d="M 44.28125 53.078125 
L 44.28125 44.578125 
Q 40.484375 46.53125 36.375 47.5 
Q 32.28125 48.484375 27.875 48.484375 
Q 21.1875 48.484375 17.84375 46.4375 
Q 14.5 44.390625 14.5 40.28125 
Q 14.5 37.15625 16.890625 35.375 
Q 19.28125 33.59375 26.515625 31.984375 
L 29.59375 31.296875 
Q 39.15625 29.25 43.1875 25.515625 
Q 47.21875 21.78125 47.21875 15.09375 
Q 47.21875 7.46875 41.1875 3.015625 
Q 35.15625 -1.421875 24.609375 -1.421875 
Q 20.21875 -1.421875 15.453125 -0.5625 
Q 10.6875 0.296875 5.421875 2 
L 5.421875 11.28125 
Q 10.40625 8.6875 15.234375 7.390625 
Q 20.0625 6.109375 24.8125 6.109375 
Q 31.15625 6.109375 34.5625 8.28125 
Q 37.984375 10.453125 37.984375 14.40625 
Q 37.984375 18.0625 35.515625 20.015625 
Q 33.0625 21.96875 24.703125 23.78125 
L 21.578125 24.515625 
Q 13.234375 26.265625 9.515625 29.90625 
Q 5.8125 33.546875 5.8125 39.890625 
Q 5.8125 47.609375 11.28125 51.796875 
Q 16.75 56 26.8125 56 
Q 31.78125 56 36.171875 55.265625 
Q 40.578125 54.546875 44.28125 53.078125 
z
" id="DejaVuSans-115"/>
       <path d="M 48.78125 52.59375 
L 48.78125 44.1875 
Q 44.96875 46.296875 41.140625 47.34375 
Q 37.3125 48.390625 33.40625 48.390625 
Q 24.65625 48.390625 19.8125 42.84375 
Q 14.984375 37.3125 14.984375 27.296875 
Q 14.984375 17.28125 19.8125 11.734375 
Q 24.65625 6.203125 33.40625 6.203125 
Q 37.3125 6.203125 41.140625 7.25 
Q 44.96875 8.296875 48.78125 10.40625 
L 48.78125 2.09375 
Q 45.015625 0.34375 40.984375 -0.53125 
Q 36.96875 -1.421875 32.421875 -1.421875 
Q 20.0625 -1.421875 12.78125 6.34375 
Q 5.515625 14.109375 5.515625 27.296875 
Q 5.515625 40.671875 12.859375 48.328125 
Q 20.21875 56 33.015625 56 
Q 37.15625 56 41.109375 55.140625 
Q 45.0625 54.296875 48.78125 52.59375 
z
" id="DejaVuSans-99"/>
       <path d="M 30.421875 75.984375 
L 30.421875 -13.1875 
L 9.71875 -13.1875 
L 9.71875 -6.203125 
L 21.390625 -6.203125 
L 21.390625 69 
L 9.71875 69 
L 9.71875 75.984375 
z
" id="DejaVuSans-93"/>
      </defs>
      <use xlink:href="#DejaVuSans-84"/>
      <use x="57.958984" xlink:href="#DejaVuSans-105"/>
      <use x="85.742188" xlink:href="#DejaVuSans-109"/>
      <use x="183.154297" xlink:href="#DejaVuSans-101"/>
      <use x="244.677734" xlink:href="#DejaVuSans-32"/>
      <use x="276.464844" xlink:href="#DejaVuSans-91"/>
      <use x="315.478516" xlink:href="#DejaVuSans-115"/>
      <use x="367.578125" xlink:href="#DejaVuSans-101"/>
      <use x="429.101562" xlink:href="#DejaVuSans-99"/>
      <use x="484.082031" xlink:href="#DejaVuSans-93"/>
     </g>
    </g>
   </g>
   <g id="matplotlib.axis_2">
    <g id="ytick_1">
     <g id="line2d_37">
      <defs>
       <path d="M 0 0 
L -3.5 0 
" id="ma0da7c248f" style="stroke:#000000;stroke-width:0.8;"/>
      </defs>
      <g>
       <use style="stroke:#000000;stroke-width:0.8;" x="72.196742" xlink:href="#ma0da7c248f" y="66.241859"/>
      </g>
     </g>
     <g id="text_6">
      <!-- $\mathdefault{10^{5}}$ -->
      <g transform="translate(47.596742 70.041078)scale(0.1 -0.1)">
       <defs>
        <path d="M 10.796875 72.90625 
L 49.515625 72.90625 
L 49.515625 64.59375 
L 19.828125 64.59375 
L 19.828125 46.734375 
Q 21.96875 47.46875 24.109375 47.828125 
Q 26.265625 48.1875 28.421875 48.1875 
Q 40.625 48.1875 47.75 41.5 
Q 54.890625 34.8125 54.890625 23.390625 
Q 54.890625 11.625 47.5625 5.09375 
Q 40.234375 -1.421875 26.90625 -1.421875 
Q 22.3125 -1.421875 17.546875 -0.640625 
Q 12.796875 0.140625 7.71875 1.703125 
L 7.71875 11.625 
Q 12.109375 9.234375 16.796875 8.0625 
Q 21.484375 6.890625 26.703125 6.890625 
Q 35.15625 6.890625 40.078125 11.328125 
Q 45.015625 15.765625 45.015625 23.390625 
Q 45.015625 31 40.078125 35.4375 
Q 35.15625 39.890625 26.703125 39.890625 
Q 22.75 39.890625 18.8125 39.015625 
Q 14.890625 38.140625 10.796875 36.28125 
z
" id="DejaVuSans-53"/>
       </defs>
       <use transform="translate(0 0.684375)" xlink:href="#DejaVuSans-49"/>
       <use transform="translate(63.623047 0.684375)" xlink:href="#DejaVuSans-48"/>
       <use transform="translate(128.203125 38.965625)scale(0.7)" xlink:href="#DejaVuSans-53"/>
      </g>
     </g>
    </g>
    <g id="ytick_2">
     <g id="line2d_38">
      <defs>
       <path d="M 0 0 
L -2 0 
" id="m4ff2ff1924" style="stroke:#000000;stroke-width:0.6;"/>
      </defs>
      <g>
       <use style="stroke:#000000;stroke-width:0.6;" x="72.196742" xlink:href="#m4ff2ff1924" y="261.878143"/>
      </g>
     </g>
     <g id="text_7">
      <!-- $\mathdefault{3\times10^{4}}$ -->
      <g transform="translate(30.596742 265.677362)scale(0.1 -0.1)">
       <defs>
        <path d="M 40.578125 39.3125 
Q 47.65625 37.796875 51.625 33 
Q 55.609375 28.21875 55.609375 21.1875 
Q 55.609375 10.40625 48.1875 4.484375 
Q 40.765625 -1.421875 27.09375 -1.421875 
Q 22.515625 -1.421875 17.65625 -0.515625 
Q 12.796875 0.390625 7.625 2.203125 
L 7.625 11.71875 
Q 11.71875 9.328125 16.59375 8.109375 
Q 21.484375 6.890625 26.8125 6.890625 
Q 36.078125 6.890625 40.9375 10.546875 
Q 45.796875 14.203125 45.796875 21.1875 
Q 45.796875 27.640625 41.28125 31.265625 
Q 36.765625 34.90625 28.71875 34.90625 
L 20.21875 34.90625 
L 20.21875 43.015625 
L 29.109375 43.015625 
Q 36.375 43.015625 40.234375 45.921875 
Q 44.09375 48.828125 44.09375 54.296875 
Q 44.09375 59.90625 40.109375 62.90625 
Q 36.140625 65.921875 28.71875 65.921875 
Q 24.65625 65.921875 20.015625 65.03125 
Q 15.375 64.15625 9.8125 62.3125 
L 9.8125 71.09375 
Q 15.4375 72.65625 20.34375 73.4375 
Q 25.25 74.21875 29.59375 74.21875 
Q 40.828125 74.21875 47.359375 69.109375 
Q 53.90625 64.015625 53.90625 55.328125 
Q 53.90625 49.265625 50.4375 45.09375 
Q 46.96875 40.921875 40.578125 39.3125 
z
" id="DejaVuSans-51"/>
        <path d="M 70.125 53.71875 
L 47.796875 31.296875 
L 70.125 8.984375 
L 64.3125 3.078125 
L 41.890625 25.484375 
L 19.484375 3.078125 
L 13.71875 8.984375 
L 35.984375 31.296875 
L 13.71875 53.71875 
L 19.484375 59.625 
L 41.890625 37.203125 
L 64.3125 59.625 
z
" id="DejaVuSans-215"/>
        <path d="M 37.796875 64.3125 
L 12.890625 25.390625 
L 37.796875 25.390625 
z
M 35.203125 72.90625 
L 47.609375 72.90625 
L 47.609375 25.390625 
L 58.015625 25.390625 
L 58.015625 17.1875 
L 47.609375 17.1875 
L 47.609375 0 
L 37.796875 0 
L 37.796875 17.1875 
L 4.890625 17.1875 
L 4.890625 26.703125 
z
" id="DejaVuSans-52"/>
       </defs>
       <use transform="translate(0 0.684375)" xlink:href="#DejaVuSans-51"/>
       <use transform="translate(83.105469 0.684375)" xlink:href="#DejaVuSans-215"/>
       <use transform="translate(186.376953 0.684375)" xlink:href="#DejaVuSans-49"/>
       <use transform="translate(250 0.684375)" xlink:href="#DejaVuSans-48"/>
       <use transform="translate(314.580078 38.965625)scale(0.7)" xlink:href="#DejaVuSans-52"/>
      </g>
     </g>
    </g>
    <g id="ytick_3">
     <g id="line2d_39">
      <g>
       <use style="stroke:#000000;stroke-width:0.6;" x="72.196742" xlink:href="#m4ff2ff1924" y="215.132028"/>
      </g>
     </g>
     <g id="text_8">
      <!-- $\mathdefault{4\times10^{4}}$ -->
      <g transform="translate(30.596742 218.931246)scale(0.1 -0.1)">
       <use transform="translate(0 0.684375)" xlink:href="#DejaVuSans-52"/>
       <use transform="translate(83.105469 0.684375)" xlink:href="#DejaVuSans-215"/>
       <use transform="translate(186.376953 0.684375)" xlink:href="#DejaVuSans-49"/>
       <use transform="translate(250 0.684375)" xlink:href="#DejaVuSans-48"/>
       <use transform="translate(314.580078 38.965625)scale(0.7)" xlink:href="#DejaVuSans-52"/>
      </g>
     </g>
    </g>
    <g id="ytick_4">
     <g id="line2d_40">
      <g>
       <use style="stroke:#000000;stroke-width:0.6;" x="72.196742" xlink:href="#m4ff2ff1924" y="178.872924"/>
      </g>
     </g>
    </g>
    <g id="ytick_5">
     <g id="line2d_41">
      <g>
       <use style="stroke:#000000;stroke-width:0.6;" x="72.196742" xlink:href="#m4ff2ff1924" y="149.247078"/>
      </g>
     </g>
     <g id="text_9">
      <!-- $\mathdefault{6\times10^{4}}$ -->
      <g transform="translate(30.596742 153.046297)scale(0.1 -0.1)">
       <defs>
        <path d="M 33.015625 40.375 
Q 26.375 40.375 22.484375 35.828125 
Q 18.609375 31.296875 18.609375 23.390625 
Q 18.609375 15.53125 22.484375 10.953125 
Q 26.375 6.390625 33.015625 6.390625 
Q 39.65625 6.390625 43.53125 10.953125 
Q 47.40625 15.53125 47.40625 23.390625 
Q 47.40625 31.296875 43.53125 35.828125 
Q 39.65625 40.375 33.015625 40.375 
z
M 52.59375 71.296875 
L 52.59375 62.3125 
Q 48.875 64.0625 45.09375 64.984375 
Q 41.3125 65.921875 37.59375 65.921875 
Q 27.828125 65.921875 22.671875 59.328125 
Q 17.53125 52.734375 16.796875 39.40625 
Q 19.671875 43.65625 24.015625 45.921875 
Q 28.375 48.1875 33.59375 48.1875 
Q 44.578125 48.1875 50.953125 41.515625 
Q 57.328125 34.859375 57.328125 23.390625 
Q 57.328125 12.15625 50.6875 5.359375 
Q 44.046875 -1.421875 33.015625 -1.421875 
Q 20.359375 -1.421875 13.671875 8.265625 
Q 6.984375 17.96875 6.984375 36.375 
Q 6.984375 53.65625 15.1875 63.9375 
Q 23.390625 74.21875 37.203125 74.21875 
Q 40.921875 74.21875 44.703125 73.484375 
Q 48.484375 72.75 52.59375 71.296875 
z
" id="DejaVuSans-54"/>
       </defs>
       <use transform="translate(0 0.684375)" xlink:href="#DejaVuSans-54"/>
       <use transform="translate(83.105469 0.684375)" xlink:href="#DejaVuSans-215"/>
       <use transform="translate(186.376953 0.684375)" xlink:href="#DejaVuSans-49"/>
       <use transform="translate(250 0.684375)" xlink:href="#DejaVuSans-48"/>
       <use transform="translate(314.580078 38.965625)scale(0.7)" xlink:href="#DejaVuSans-52"/>
      </g>
     </g>
    </g>
    <g id="ytick_6">
     <g id="line2d_42">
      <g>
       <use style="stroke:#000000;stroke-width:0.6;" x="72.196742" xlink:href="#m4ff2ff1924" y="124.198783"/>
      </g>
     </g>
    </g>
    <g id="ytick_7">
     <g id="line2d_43">
      <g>
       <use style="stroke:#000000;stroke-width:0.6;" x="72.196742" xlink:href="#m4ff2ff1924" y="102.500963"/>
      </g>
     </g>
    </g>
    <g id="ytick_8">
     <g id="line2d_44">
      <g>
       <use style="stroke:#000000;stroke-width:0.6;" x="72.196742" xlink:href="#m4ff2ff1924" y="83.362129"/>
      </g>
     </g>
    </g>
    <g id="text_10">
     <!-- $F(x)$ -->
     <g transform="translate(23.68518 183.734)rotate(-90)scale(0.14 -0.14)">
      <defs>
       <path d="M 16.890625 72.90625 
L 58.6875 72.90625 
L 57.078125 64.59375 
L 25.09375 64.59375 
L 20.90625 43.109375 
L 49.8125 43.109375 
L 48.1875 34.8125 
L 19.28125 34.8125 
L 12.5 0 
L 2.6875 0 
z
" id="DejaVuSans-Oblique-70"/>
       <path d="M 31 75.875 
Q 24.46875 64.65625 21.28125 53.65625 
Q 18.109375 42.671875 18.109375 31.390625 
Q 18.109375 20.125 21.3125 9.0625 
Q 24.515625 -2 31 -13.1875 
L 23.1875 -13.1875 
Q 15.875 -1.703125 12.234375 9.375 
Q 8.59375 20.453125 8.59375 31.390625 
Q 8.59375 42.28125 12.203125 53.3125 
Q 15.828125 64.359375 23.1875 75.875 
z
" id="DejaVuSans-40"/>
       <path d="M 60.015625 54.6875 
L 34.90625 27.875 
L 50.296875 0 
L 39.984375 0 
L 28.421875 21.6875 
L 8.296875 0 
L -2.59375 0 
L 24.3125 28.8125 
L 10.015625 54.6875 
L 20.3125 54.6875 
L 30.8125 34.90625 
L 49.125 54.6875 
z
" id="DejaVuSans-Oblique-120"/>
       <path d="M 8.015625 75.875 
L 15.828125 75.875 
Q 23.140625 64.359375 26.78125 53.3125 
Q 30.421875 42.28125 30.421875 31.390625 
Q 30.421875 20.453125 26.78125 9.375 
Q 23.140625 -1.703125 15.828125 -13.1875 
L 8.015625 -13.1875 
Q 14.5 -2 17.703125 9.0625 
Q 20.90625 20.125 20.90625 31.390625 
Q 20.90625 42.671875 17.703125 53.65625 
Q 14.5 64.65625 8.015625 75.875 
z
" id="DejaVuSans-41"/>
      </defs>
      <use transform="translate(0 0.125)" xlink:href="#DejaVuSans-Oblique-70"/>
      <use transform="translate(57.519531 0.125)" xlink:href="#DejaVuSans-40"/>
      <use transform="translate(96.533203 0.125)" xlink:href="#DejaVuSans-Oblique-120"/>
      <use transform="translate(155.712891 0.125)" xlink:href="#DejaVuSans-41"/>
     </g>
    </g>
   </g>
   <g id="line2d_45">
    <path clip-path="url(#p5852e857ca)" d="M 230.49972 285.214909 
L 229.862453 285.214909 
L 229.629512 285.214909 
L 228.197531 285.214909 
L 230.229742 285.214909 
L 230.236667 285.214909 
L 230.958707 285.214909 
L 230.23588 285.214909 
L 229.912909 285.214909 
L 230.064102 285.214909 
L 229.373833 285.214909 
L 229.605199 285.214909 
L 230.702182 285.214909 
L 229.069244 285.214909 
L 228.433728 285.214909 
L 229.015482 285.214909 
L 230.374286 285.214909 
L 227.787203 285.214909 
L 230.399868 285.214909 
L 230.574171 285.214909 
L 229.75849 285.214909 
L 230.482634 285.214909 
L 229.89704 285.214909 
L 230.062574 285.214909 
L 230.382757 285.214909 
L 229.315086 285.214909 
L 227.27837 285.214909 
L 228.583323 285.214909 
L 227.344343 285.214909 
L 226.88988 285.214909 
L 225.09723 285.214909 
L 225.68129 285.214909 
L 223.832193 285.214909 
L 223.734284 285.214909 
L 222.685711 285.214909 
L 221.476314 285.214909 
L 219.596622 285.214909 
L 219.254256 285.214909 
L 216.624284 285.214909 
L 215.69209 285.214909 
L 215.598354 285.214909 
L 211.358732 285.214909 
L 210.490519 285.214909 
L 208.174245 285.214909 
L 206.996342 285.214909 
L 207.161157 285.214909 
L 205.655724 285.214908 
L 204.163593 285.214907 
L 201.055192 285.214901 
L 196.008601 285.21489 
L 191.493572 285.214873 
L 188.180054 285.214817 
L 187.572187 285.214741 
L 181.306024 285.214651 
L 178.684281 285.214467 
L 176.822106 285.214013 
L 173.424834 285.21378 
L 170.160356 285.213008 
L 168.054078 285.210459 
L 167.073048 285.203815 
L 159.119667 285.173215 
L 155.131875 285.163811 
L 156.644446 285.159101 
L 151.424732 285.006923 
L 141.317337 284.964801 
L 141.68325 284.948951 
L 141.348392 284.956643 
L 126.113961 284.84384 
L 120.753361 282.615794 
L 91.477864 274.157636 
L 90.130722 274.138312 
L 91.292808 274.170316 
" style="fill:none;stroke:#1f77b4;stroke-linecap:square;stroke-width:3;"/>
   </g>
   <g id="line2d_46">
    <path clip-path="url(#p5852e857ca)" d="M 111.789793 160.605061 
L 122.109448 203.516476 
L 132.559658 227.237626 
L 132.497731 243.803639 
L 147.391159 261.552299 
L 151.647811 272.664579 
L 161.901549 278.483927 
L 174.800351 282.437648 
L 190.555099 284.298197 
L 203.480107 285.038192 
L 219.384123 285.187116 
L 235.323151 285.207966 
L 249.066359 285.213534 
L 264.498301 285.214787 
L 276.791643 285.214896 
L 289.67399 285.214909 
L 306.133925 285.214909 
L 314.444405 285.214909 
L 327.838095 285.214909 
L 342.181633 285.214909 
L 357.734476 285.214909 
L 370.447668 285.214909 
L 388.307126 285.214909 
" style="fill:none;stroke:#ff7f0e;stroke-linecap:square;stroke-width:3;"/>
   </g>
   <g id="line2d_47">
    <path clip-path="url(#p5852e857ca)" d="M 133.425141 139.887839 
L 140.70079 217.093188 
L 145.613114 262.193788 
L 150.596323 277.617754 
L 157.716997 284.245372 
L 172.528239 285.213653 
L 184.45999 285.214906 
L 192.688817 285.214909 
L 200.077589 285.214909 
L 201.309448 285.214909 
L 199.241112 285.214909 
L 199.510135 285.214909 
L 199.484551 285.214909 
L 198.768646 285.214909 
" style="fill:none;stroke:#2ca02c;stroke-linecap:square;stroke-width:3;"/>
   </g>
   <g id="line2d_48">
    <path clip-path="url(#p5852e857ca)" d="M 283.291848 103.793092 
L 296.342977 103.793092 
L 307.560317 103.793092 
L 330.363046 103.793092 
L 363.743673 243.557302 
L 388.506349 285.214909 
L 387.789426 285.214909 
L 388.768908 285.214909 
" style="fill:none;stroke:#d62728;stroke-linecap:square;stroke-width:3;"/>
   </g>
   <g id="line2d_49">
    <path clip-path="url(#p5852e857ca)" d="M 119.514533 54.953091 
L 118.842739 165.432855 
L 100.430519 204.170328 
L 95.503111 210.987507 
L 126.89161 222.478688 
L 119.593661 232.144187 
L 135.498341 234.946738 
L 146.30105 234.946738 
L 177.221888 262.792107 
L 200.414941 274.869627 
L 221.211904 281.056021 
L 245.588296 284.562077 
L 270.272643 285.188494 
L 293.949733 285.214649 
L 323.478608 285.214909 
L 340.030503 285.214909 
L 364.033556 285.214909 
L 398.508061 285.214909 
L 417.432683 285.214909 
" style="fill:none;stroke:#9467bd;stroke-linecap:square;stroke-width:3;"/>
   </g>
   <g id="line2d_50">
    <path clip-path="url(#p5852e857ca)" d="M 192.064398 54.953091 
L 188.378148 55.834053 
L 196.397946 55.834053 
L 202.405475 56.677208 
L 191.761749 57.483938 
L 201.991994 57.483938 
L 202.610814 60.457991 
L 208.653548 68.375168 
L 213.163217 83.192297 
L 224.077485 121.279816 
L 222.864285 171.32384 
L 243.085915 230.117746 
L 258.349296 263.844078 
L 272.019996 281.842907 
L 286.230526 285.214909 
L 286.539165 285.214909 
L 285.226493 285.214909 
L 285.083788 285.214909 
L 282.690328 285.214909 
L 283.204798 285.214909 
" style="fill:none;stroke:#8c564b;stroke-linecap:square;stroke-width:3;"/>
   </g>
   <g id="line2d_51">
    <path clip-path="url(#p5852e857ca)" d="M 223.000327 179.229682 
L 222.334947 196.151568 
L 223.781589 204.090839 
L 223.666298 209.75826 
L 229.567682 217.934645 
L 229.264904 226.031161 
L 230.701946 233.110997 
L 235.611183 240.131074 
L 241.580663 246.776884 
L 247.814511 253.284323 
L 258.277399 259.305599 
L 262.919784 264.529756 
L 264.741056 269.138419 
L 273.146619 273.050573 
L 280.904924 276.190526 
L 292.537263 278.805295 
L 319.506902 281.05862 
L 319.105259 282.741771 
L 331.63275 283.92855 
L 347.773859 284.615236 
L 370.779226 284.964321 
L 377.881681 285.125543 
L 420.123077 285.187963 
" style="fill:none;stroke:#e377c2;stroke-linecap:square;stroke-width:3;"/>
   </g>
   <g id="line2d_52">
    <path clip-path="url(#p5852e857ca)" d="M 196.236561 106.410407 
L 199.007262 195.092067 
L 203.321643 200.737719 
L 206.785376 212.386305 
L 212.600864 226.408763 
L 223.80847 240.535453 
L 228.25336 251.844652 
L 237.708104 262.847702 
L 262.316446 271.30687 
L 261.682793 278.259679 
L 278.747276 282.415491 
L 293.715109 284.301061 
L 307.069627 284.927763 
L 318.523722 285.16848 
L 334.026104 285.20894 
L 350.285134 285.214388 
L 356.014796 285.214899 
L 375.522327 285.214909 
L 382.48514 285.214909 
L 382.424258 285.214909 
" style="fill:none;stroke:#7f7f7f;stroke-linecap:square;stroke-width:3;"/>
   </g>
   <g id="line2d_53">
    <path clip-path="url(#p5852e857ca)" d="M 147.346332 114.197402 
L 168.857016 155.297423 
L 171.123686 187.163006 
L 173.909706 208.577114 
L 176.575361 235.17295 
L 173.970571 246.980614 
L 175.829978 254.32601 
L 177.780074 259.606821 
L 181.135502 260.771124 
L 179.853022 260.245063 
L 184.046472 262.45426 
L 186.618336 262.213171 
L 191.289224 258.047986 
L 199.554949 263.361429 
L 206.993919 263.679475 
L 215.744817 264.249648 
L 227.721662 263.377926 
L 242.166421 257.130243 
L 251.442874 262.007233 
L 263.378688 259.919262 
L 270.772972 261.522406 
L 282.028064 262.900937 
L 292.584511 263.327782 
L 305.871814 263.445417 
L 316.813772 261.878258 
L 332.554449 262.085378 
L 347.637328 264.610611 
L 363.647103 260.700298 
L 377.538886 258.669165 
L 394.532044 265.369274 
L 413.728526 260.379897 
" style="fill:none;stroke:#bcbd22;stroke-linecap:square;stroke-width:3;"/>
   </g>
   <g id="line2d_54">
    <path clip-path="url(#p5852e857ca)" d="M 208.13091 179.229682 
L 208.980714 196.151568 
L 208.761507 204.090839 
L 211.161161 209.75826 
L 206.174683 217.934645 
L 208.279572 226.031161 
L 206.900858 233.110997 
L 210.245624 240.131074 
L 211.728513 246.776884 
L 213.45381 253.284323 
L 219.656049 259.305599 
L 222.407715 264.529756 
L 228.338407 269.138419 
L 236.899313 273.050573 
L 247.111628 276.190526 
L 260.354064 278.805295 
L 274.683356 281.05862 
L 292.464232 282.741771 
L 306.077007 283.92855 
L 320.556828 284.615236 
L 337.537456 284.964321 
L 352.416264 285.125543 
L 368.22266 285.187963 
L 384.850284 285.209493 
L 396.773591 285.213189 
" style="fill:none;stroke:#17becf;stroke-linecap:square;stroke-width:3;"/>
   </g>
   <g id="line2d_55">
    <path clip-path="url(#p5852e857ca)" d="M 221.028643 179.229682 
L 222.797384 196.151568 
L 223.23115 205.903266 
L 222.749115 213.603366 
L 222.095477 225.497743 
L 222.591087 237.674974 
L 223.398323 248.28837 
L 226.035382 258.508034 
L 227.455776 267.36639 
L 230.489516 274.555907 
L 234.440605 279.605218 
L 238.374706 283.012919 
L 244.484922 284.667131 
L 252.563318 285.113031 
L 261.763727 285.19768 
L 273.53146 285.211111 
L 285.984512 285.214265 
L 298.620778 285.214733 
L 311.819734 285.214865 
L 327.741744 285.2149 
L 344.368822 285.214909 
L 358.77849 285.214909 
L 374.184195 285.214909 
L 394.418164 285.214909 
L 410.42827 285.214909 
" style="fill:none;stroke:#1f77b4;stroke-linecap:square;stroke-width:3;"/>
   </g>
   <g id="line2d_56">
    <path clip-path="url(#p5852e857ca)" d="M 240.652424 179.229682 
L 256.955616 196.151568 
L 266.692567 204.090839 
L 271.367714 209.75826 
L 282.34794 217.934645 
L 295.630523 226.031161 
L 307.795165 233.110997 
L 320.954514 240.131074 
L 335.136177 246.776884 
L 346.21335 253.284323 
L 361.776608 259.305599 
L 378.888335 264.529756 
L 395.001576 269.138419 
L 414.131081 273.050573 
" style="fill:none;stroke:#ff7f0e;stroke-linecap:square;stroke-width:3;"/>
   </g>
   <g id="line2d_57">
    <path clip-path="url(#p5852e857ca)" d="M 152.039111 160.605061 
L 155.890422 203.516476 
L 158.462315 227.237626 
L 160.359299 243.803639 
L 159.205457 261.552299 
L 167.650857 272.664579 
L 173.082871 278.483927 
L 185.294455 282.437648 
L 193.338618 284.298197 
L 203.620832 285.038192 
L 216.342632 285.187116 
L 229.863331 285.207966 
L 245.512016 285.213534 
L 261.086354 285.214787 
L 275.729306 285.214896 
L 288.306995 285.214909 
L 299.019032 285.214909 
L 312.559075 285.214909 
L 321.587061 285.214909 
L 334.286649 285.214909 
L 357.182495 285.214909 
L 387.25739 285.214909 
L 424.888716 285.214909 
" style="fill:none;stroke:#2ca02c;stroke-linecap:square;stroke-width:3;"/>
   </g>
   <g id="line2d_58">
    <path clip-path="url(#p5852e857ca)" d="M 367.343181 160.605061 
L 396.938094 203.516476 
L 415.447092 228.126481 
L 406.919962 243.471617 
" style="fill:none;stroke:#d62728;stroke-linecap:square;stroke-width:3;"/>
   </g>
   <g id="patch_3">
    <path d="M 72.196742 296.728 
L 72.196742 43.44 
" style="fill:none;stroke:#000000;stroke-linecap:square;stroke-linejoin:miter;stroke-width:0.8;"/>
   </g>
   <g id="patch_4">
    <path d="M 450 296.728 
L 450 43.44 
" style="fill:none;stroke:#000000;stroke-linecap:square;stroke-linejoin:miter;stroke-width:0.8;"/>
   </g>
   <g id="patch_5">
    <path d="M 72.196742 296.728 
L 450 296.728 
" style="fill:none;stroke:#000000;stroke-linecap:square;stroke-linejoin:miter;stroke-width:0.8;"/>
   </g>
   <g id="patch_6">
    <path d="M 72.196742 43.44 
L 450 43.44 
" style="fill:none;stroke:#000000;stroke-linecap:square;stroke-linejoin:miter;stroke-width:0.8;"/>
   </g>
   <g id="text_11">
    <!-- Lasso Regression[reg=0.1] -->
    <g transform="translate(166.891496 21.763062)scale(0.14 -0.14)">
     <defs>
      <path d="M 9.8125 72.90625 
L 19.671875 72.90625 
L 19.671875 8.296875 
L 55.171875 8.296875 
L 55.171875 0 
L 9.8125 0 
z
" id="DejaVuSans-76"/>
      <path d="M 34.28125 27.484375 
Q 23.390625 27.484375 19.1875 25 
Q 14.984375 22.515625 14.984375 16.5 
Q 14.984375 11.71875 18.140625 8.90625 
Q 21.296875 6.109375 26.703125 6.109375 
Q 34.1875 6.109375 38.703125 11.40625 
Q 43.21875 16.703125 43.21875 25.484375 
L 43.21875 27.484375 
z
M 52.203125 31.203125 
L 52.203125 0 
L 43.21875 0 
L 43.21875 8.296875 
Q 40.140625 3.328125 35.546875 0.953125 
Q 30.953125 -1.421875 24.3125 -1.421875 
Q 15.921875 -1.421875 10.953125 3.296875 
Q 6 8.015625 6 15.921875 
Q 6 25.140625 12.171875 29.828125 
Q 18.359375 34.515625 30.609375 34.515625 
L 43.21875 34.515625 
L 43.21875 35.40625 
Q 43.21875 41.609375 39.140625 45 
Q 35.0625 48.390625 27.6875 48.390625 
Q 23 48.390625 18.546875 47.265625 
Q 14.109375 46.140625 10.015625 43.890625 
L 10.015625 52.203125 
Q 14.9375 54.109375 19.578125 55.046875 
Q 24.21875 56 28.609375 56 
Q 40.484375 56 46.34375 49.84375 
Q 52.203125 43.703125 52.203125 31.203125 
z
" id="DejaVuSans-97"/>
      <path d="M 30.609375 48.390625 
Q 23.390625 48.390625 19.1875 42.75 
Q 14.984375 37.109375 14.984375 27.296875 
Q 14.984375 17.484375 19.15625 11.84375 
Q 23.34375 6.203125 30.609375 6.203125 
Q 37.796875 6.203125 41.984375 11.859375 
Q 46.1875 17.53125 46.1875 27.296875 
Q 46.1875 37.015625 41.984375 42.703125 
Q 37.796875 48.390625 30.609375 48.390625 
z
M 30.609375 56 
Q 42.328125 56 49.015625 48.375 
Q 55.71875 40.765625 55.71875 27.296875 
Q 55.71875 13.875 49.015625 6.21875 
Q 42.328125 -1.421875 30.609375 -1.421875 
Q 18.84375 -1.421875 12.171875 6.21875 
Q 5.515625 13.875 5.515625 27.296875 
Q 5.515625 40.765625 12.171875 48.375 
Q 18.84375 56 30.609375 56 
z
" id="DejaVuSans-111"/>
      <path d="M 44.390625 34.1875 
Q 47.5625 33.109375 50.5625 29.59375 
Q 53.5625 26.078125 56.59375 19.921875 
L 66.609375 0 
L 56 0 
L 46.6875 18.703125 
Q 43.0625 26.03125 39.671875 28.421875 
Q 36.28125 30.8125 30.421875 30.8125 
L 19.671875 30.8125 
L 19.671875 0 
L 9.8125 0 
L 9.8125 72.90625 
L 32.078125 72.90625 
Q 44.578125 72.90625 50.734375 67.671875 
Q 56.890625 62.453125 56.890625 51.90625 
Q 56.890625 45.015625 53.6875 40.46875 
Q 50.484375 35.9375 44.390625 34.1875 
z
M 19.671875 64.796875 
L 19.671875 38.921875 
L 32.078125 38.921875 
Q 39.203125 38.921875 42.84375 42.21875 
Q 46.484375 45.515625 46.484375 51.90625 
Q 46.484375 58.296875 42.84375 61.546875 
Q 39.203125 64.796875 32.078125 64.796875 
z
" id="DejaVuSans-82"/>
      <path d="M 45.40625 27.984375 
Q 45.40625 37.75 41.375 43.109375 
Q 37.359375 48.484375 30.078125 48.484375 
Q 22.859375 48.484375 18.828125 43.109375 
Q 14.796875 37.75 14.796875 27.984375 
Q 14.796875 18.265625 18.828125 12.890625 
Q 22.859375 7.515625 30.078125 7.515625 
Q 37.359375 7.515625 41.375 12.890625 
Q 45.40625 18.265625 45.40625 27.984375 
z
M 54.390625 6.78125 
Q 54.390625 -7.171875 48.1875 -13.984375 
Q 42 -20.796875 29.203125 -20.796875 
Q 24.46875 -20.796875 20.265625 -20.09375 
Q 16.0625 -19.390625 12.109375 -17.921875 
L 12.109375 -9.1875 
Q 16.0625 -11.328125 19.921875 -12.34375 
Q 23.78125 -13.375 27.78125 -13.375 
Q 36.625 -13.375 41.015625 -8.765625 
Q 45.40625 -4.15625 45.40625 5.171875 
L 45.40625 9.625 
Q 42.625 4.78125 38.28125 2.390625 
Q 33.9375 0 27.875 0 
Q 17.828125 0 11.671875 7.65625 
Q 5.515625 15.328125 5.515625 27.984375 
Q 5.515625 40.671875 11.671875 48.328125 
Q 17.828125 56 27.875 56 
Q 33.9375 56 38.28125 53.609375 
Q 42.625 51.21875 45.40625 46.390625 
L 45.40625 54.6875 
L 54.390625 54.6875 
z
" id="DejaVuSans-103"/>
      <path d="M 41.109375 46.296875 
Q 39.59375 47.171875 37.8125 47.578125 
Q 36.03125 48 33.890625 48 
Q 26.265625 48 22.1875 43.046875 
Q 18.109375 38.09375 18.109375 28.8125 
L 18.109375 0 
L 9.078125 0 
L 9.078125 54.6875 
L 18.109375 54.6875 
L 18.109375 46.1875 
Q 20.953125 51.171875 25.484375 53.578125 
Q 30.03125 56 36.53125 56 
Q 37.453125 56 38.578125 55.875 
Q 39.703125 55.765625 41.0625 55.515625 
z
" id="DejaVuSans-114"/>
      <path d="M 54.890625 33.015625 
L 54.890625 0 
L 45.90625 0 
L 45.90625 32.71875 
Q 45.90625 40.484375 42.875 44.328125 
Q 39.84375 48.1875 33.796875 48.1875 
Q 26.515625 48.1875 22.3125 43.546875 
Q 18.109375 38.921875 18.109375 30.90625 
L 18.109375 0 
L 9.078125 0 
L 9.078125 54.6875 
L 18.109375 54.6875 
L 18.109375 46.1875 
Q 21.34375 51.125 25.703125 53.5625 
Q 30.078125 56 35.796875 56 
Q 45.21875 56 50.046875 50.171875 
Q 54.890625 44.34375 54.890625 33.015625 
z
" id="DejaVuSans-110"/>
      <path d="M 10.59375 45.40625 
L 73.1875 45.40625 
L 73.1875 37.203125 
L 10.59375 37.203125 
z
M 10.59375 25.484375 
L 73.1875 25.484375 
L 73.1875 17.1875 
L 10.59375 17.1875 
z
" id="DejaVuSans-61"/>
      <path d="M 10.6875 12.40625 
L 21 12.40625 
L 21 0 
L 10.6875 0 
z
" id="DejaVuSans-46"/>
     </defs>
     <use xlink:href="#DejaVuSans-76"/>
     <use x="55.712891" xlink:href="#DejaVuSans-97"/>
     <use x="116.992188" xlink:href="#DejaVuSans-115"/>
     <use x="169.091797" xlink:href="#DejaVuSans-115"/>
     <use x="221.191406" xlink:href="#DejaVuSans-111"/>
     <use x="282.373047" xlink:href="#DejaVuSans-32"/>
     <use x="314.160156" xlink:href="#DejaVuSans-82"/>
     <use x="379.142578" xlink:href="#DejaVuSans-101"/>
     <use x="440.666016" xlink:href="#DejaVuSans-103"/>
     <use x="504.142578" xlink:href="#DejaVuSans-114"/>
     <use x="543.005859" xlink:href="#DejaVuSans-101"/>
     <use x="604.529297" xlink:href="#DejaVuSans-115"/>
     <use x="656.628906" xlink:href="#DejaVuSans-115"/>
     <use x="708.728516" xlink:href="#DejaVuSans-105"/>
     <use x="736.511719" xlink:href="#DejaVuSans-111"/>
     <use x="797.693359" xlink:href="#DejaVuSans-110"/>
     <use x="861.072266" xlink:href="#DejaVuSans-91"/>
     <use x="900.085938" xlink:href="#DejaVuSans-114"/>
     <use x="938.949219" xlink:href="#DejaVuSans-101"/>
     <use x="1000.472656" xlink:href="#DejaVuSans-103"/>
     <use x="1063.949219" xlink:href="#DejaVuSans-61"/>
     <use x="1147.738281" xlink:href="#DejaVuSans-48"/>
     <use x="1211.361328" xlink:href="#DejaVuSans-46"/>
     <use x="1243.148438" xlink:href="#DejaVuSans-49"/>
     <use x="1306.771484" xlink:href="#DejaVuSans-93"/>
    </g>
    <!-- Data: Simulated[n_samples=100,n_features=10000,rho=0] -->
    <g transform="translate(51.476809 37.44)scale(0.14 -0.14)">
     <defs>
      <path d="M 19.671875 64.796875 
L 19.671875 8.109375 
L 31.59375 8.109375 
Q 46.6875 8.109375 53.6875 14.9375 
Q 60.6875 21.78125 60.6875 36.53125 
Q 60.6875 51.171875 53.6875 57.984375 
Q 46.6875 64.796875 31.59375 64.796875 
z
M 9.8125 72.90625 
L 30.078125 72.90625 
Q 51.265625 72.90625 61.171875 64.09375 
Q 71.09375 55.28125 71.09375 36.53125 
Q 71.09375 17.671875 61.125 8.828125 
Q 51.171875 0 30.078125 0 
L 9.8125 0 
z
" id="DejaVuSans-68"/>
      <path d="M 18.3125 70.21875 
L 18.3125 54.6875 
L 36.8125 54.6875 
L 36.8125 47.703125 
L 18.3125 47.703125 
L 18.3125 18.015625 
Q 18.3125 11.328125 20.140625 9.421875 
Q 21.96875 7.515625 27.59375 7.515625 
L 36.8125 7.515625 
L 36.8125 0 
L 27.59375 0 
Q 17.1875 0 13.234375 3.875 
Q 9.28125 7.765625 9.28125 18.015625 
L 9.28125 47.703125 
L 2.6875 47.703125 
L 2.6875 54.6875 
L 9.28125 54.6875 
L 9.28125 70.21875 
z
" id="DejaVuSans-116"/>
      <path d="M 11.71875 12.40625 
L 22.015625 12.40625 
L 22.015625 0 
L 11.71875 0 
z
M 11.71875 51.703125 
L 22.015625 51.703125 
L 22.015625 39.3125 
L 11.71875 39.3125 
z
" id="DejaVuSans-58"/>
      <path d="M 53.515625 70.515625 
L 53.515625 60.890625 
Q 47.90625 63.578125 42.921875 64.890625 
Q 37.9375 66.21875 33.296875 66.21875 
Q 25.25 66.21875 20.875 63.09375 
Q 16.5 59.96875 16.5 54.203125 
Q 16.5 49.359375 19.40625 46.890625 
Q 22.3125 44.4375 30.421875 42.921875 
L 36.375 41.703125 
Q 47.40625 39.59375 52.65625 34.296875 
Q 57.90625 29 57.90625 20.125 
Q 57.90625 9.515625 50.796875 4.046875 
Q 43.703125 -1.421875 29.984375 -1.421875 
Q 24.8125 -1.421875 18.96875 -0.25 
Q 13.140625 0.921875 6.890625 3.21875 
L 6.890625 13.375 
Q 12.890625 10.015625 18.65625 8.296875 
Q 24.421875 6.59375 29.984375 6.59375 
Q 38.421875 6.59375 43.015625 9.90625 
Q 47.609375 13.234375 47.609375 19.390625 
Q 47.609375 24.75 44.3125 27.78125 
Q 41.015625 30.8125 33.5 32.328125 
L 27.484375 33.5 
Q 16.453125 35.6875 11.515625 40.375 
Q 6.59375 45.0625 6.59375 53.421875 
Q 6.59375 63.09375 13.40625 68.65625 
Q 20.21875 74.21875 32.171875 74.21875 
Q 37.3125 74.21875 42.625 73.28125 
Q 47.953125 72.359375 53.515625 70.515625 
z
" id="DejaVuSans-83"/>
      <path d="M 8.5 21.578125 
L 8.5 54.6875 
L 17.484375 54.6875 
L 17.484375 21.921875 
Q 17.484375 14.15625 20.5 10.265625 
Q 23.53125 6.390625 29.59375 6.390625 
Q 36.859375 6.390625 41.078125 11.03125 
Q 45.3125 15.671875 45.3125 23.6875 
L 45.3125 54.6875 
L 54.296875 54.6875 
L 54.296875 0 
L 45.3125 0 
L 45.3125 8.40625 
Q 42.046875 3.421875 37.71875 1 
Q 33.40625 -1.421875 27.6875 -1.421875 
Q 18.265625 -1.421875 13.375 4.4375 
Q 8.5 10.296875 8.5 21.578125 
z
M 31.109375 56 
z
" id="DejaVuSans-117"/>
      <path d="M 9.421875 75.984375 
L 18.40625 75.984375 
L 18.40625 0 
L 9.421875 0 
z
" id="DejaVuSans-108"/>
      <path d="M 45.40625 46.390625 
L 45.40625 75.984375 
L 54.390625 75.984375 
L 54.390625 0 
L 45.40625 0 
L 45.40625 8.203125 
Q 42.578125 3.328125 38.25 0.953125 
Q 33.9375 -1.421875 27.875 -1.421875 
Q 17.96875 -1.421875 11.734375 6.484375 
Q 5.515625 14.40625 5.515625 27.296875 
Q 5.515625 40.1875 11.734375 48.09375 
Q 17.96875 56 27.875 56 
Q 33.9375 56 38.25 53.625 
Q 42.578125 51.265625 45.40625 46.390625 
z
M 14.796875 27.296875 
Q 14.796875 17.390625 18.875 11.75 
Q 22.953125 6.109375 30.078125 6.109375 
Q 37.203125 6.109375 41.296875 11.75 
Q 45.40625 17.390625 45.40625 27.296875 
Q 45.40625 37.203125 41.296875 42.84375 
Q 37.203125 48.484375 30.078125 48.484375 
Q 22.953125 48.484375 18.875 42.84375 
Q 14.796875 37.203125 14.796875 27.296875 
z
" id="DejaVuSans-100"/>
      <path d="M 50.984375 -16.609375 
L 50.984375 -23.578125 
L -0.984375 -23.578125 
L -0.984375 -16.609375 
z
" id="DejaVuSans-95"/>
      <path d="M 18.109375 8.203125 
L 18.109375 -20.796875 
L 9.078125 -20.796875 
L 9.078125 54.6875 
L 18.109375 54.6875 
L 18.109375 46.390625 
Q 20.953125 51.265625 25.265625 53.625 
Q 29.59375 56 35.59375 56 
Q 45.5625 56 51.78125 48.09375 
Q 58.015625 40.1875 58.015625 27.296875 
Q 58.015625 14.40625 51.78125 6.484375 
Q 45.5625 -1.421875 35.59375 -1.421875 
Q 29.59375 -1.421875 25.265625 0.953125 
Q 20.953125 3.328125 18.109375 8.203125 
z
M 48.6875 27.296875 
Q 48.6875 37.203125 44.609375 42.84375 
Q 40.53125 48.484375 33.40625 48.484375 
Q 26.265625 48.484375 22.1875 42.84375 
Q 18.109375 37.203125 18.109375 27.296875 
Q 18.109375 17.390625 22.1875 11.75 
Q 26.265625 6.109375 33.40625 6.109375 
Q 40.53125 6.109375 44.609375 11.75 
Q 48.6875 17.390625 48.6875 27.296875 
z
" id="DejaVuSans-112"/>
      <path d="M 11.71875 12.40625 
L 22.015625 12.40625 
L 22.015625 4 
L 14.015625 -11.625 
L 7.71875 -11.625 
L 11.71875 4 
z
" id="DejaVuSans-44"/>
      <path d="M 37.109375 75.984375 
L 37.109375 68.5 
L 28.515625 68.5 
Q 23.6875 68.5 21.796875 66.546875 
Q 19.921875 64.59375 19.921875 59.515625 
L 19.921875 54.6875 
L 34.71875 54.6875 
L 34.71875 47.703125 
L 19.921875 47.703125 
L 19.921875 0 
L 10.890625 0 
L 10.890625 47.703125 
L 2.296875 47.703125 
L 2.296875 54.6875 
L 10.890625 54.6875 
L 10.890625 58.5 
Q 10.890625 67.625 15.140625 71.796875 
Q 19.390625 75.984375 28.609375 75.984375 
z
" id="DejaVuSans-102"/>
      <path d="M 54.890625 33.015625 
L 54.890625 0 
L 45.90625 0 
L 45.90625 32.71875 
Q 45.90625 40.484375 42.875 44.328125 
Q 39.84375 48.1875 33.796875 48.1875 
Q 26.515625 48.1875 22.3125 43.546875 
Q 18.109375 38.921875 18.109375 30.90625 
L 18.109375 0 
L 9.078125 0 
L 9.078125 75.984375 
L 18.109375 75.984375 
L 18.109375 46.1875 
Q 21.34375 51.125 25.703125 53.5625 
Q 30.078125 56 35.796875 56 
Q 45.21875 56 50.046875 50.171875 
Q 54.890625 44.34375 54.890625 33.015625 
z
" id="DejaVuSans-104"/>
     </defs>
     <use xlink:href="#DejaVuSans-68"/>
     <use x="77.001953" xlink:href="#DejaVuSans-97"/>
     <use x="138.28125" xlink:href="#DejaVuSans-116"/>
     <use x="177.490234" xlink:href="#DejaVuSans-97"/>
     <use x="238.769531" xlink:href="#DejaVuSans-58"/>
     <use x="272.460938" xlink:href="#DejaVuSans-32"/>
     <use x="304.248047" xlink:href="#DejaVuSans-83"/>
     <use x="367.724609" xlink:href="#DejaVuSans-105"/>
     <use x="395.507812" xlink:href="#DejaVuSans-109"/>
     <use x="492.919922" xlink:href="#DejaVuSans-117"/>
     <use x="556.298828" xlink:href="#DejaVuSans-108"/>
     <use x="584.082031" xlink:href="#DejaVuSans-97"/>
     <use x="645.361328" xlink:href="#DejaVuSans-116"/>
     <use x="684.570312" xlink:href="#DejaVuSans-101"/>
     <use x="746.09375" xlink:href="#DejaVuSans-100"/>
     <use x="809.570312" xlink:href="#DejaVuSans-91"/>
     <use x="848.583984" xlink:href="#DejaVuSans-110"/>
     <use x="911.962891" xlink:href="#DejaVuSans-95"/>
     <use x="961.962891" xlink:href="#DejaVuSans-115"/>
     <use x="1014.0625" xlink:href="#DejaVuSans-97"/>
     <use x="1075.341797" xlink:href="#DejaVuSans-109"/>
     <use x="1172.753906" xlink:href="#DejaVuSans-112"/>
     <use x="1236.230469" xlink:href="#DejaVuSans-108"/>
     <use x="1264.013672" xlink:href="#DejaVuSans-101"/>
     <use x="1325.537109" xlink:href="#DejaVuSans-115"/>
     <use x="1377.636719" xlink:href="#DejaVuSans-61"/>
     <use x="1461.425781" xlink:href="#DejaVuSans-49"/>
     <use x="1525.048828" xlink:href="#DejaVuSans-48"/>
     <use x="1588.671875" xlink:href="#DejaVuSans-48"/>
     <use x="1652.294922" xlink:href="#DejaVuSans-44"/>
     <use x="1684.082031" xlink:href="#DejaVuSans-110"/>
     <use x="1747.460938" xlink:href="#DejaVuSans-95"/>
     <use x="1797.460938" xlink:href="#DejaVuSans-102"/>
     <use x="1832.666016" xlink:href="#DejaVuSans-101"/>
     <use x="1894.189453" xlink:href="#DejaVuSans-97"/>
     <use x="1955.46875" xlink:href="#DejaVuSans-116"/>
     <use x="1994.677734" xlink:href="#DejaVuSans-117"/>
     <use x="2058.056641" xlink:href="#DejaVuSans-114"/>
     <use x="2096.919922" xlink:href="#DejaVuSans-101"/>
     <use x="2158.443359" xlink:href="#DejaVuSans-115"/>
     <use x="2210.542969" xlink:href="#DejaVuSans-61"/>
     <use x="2294.332031" xlink:href="#DejaVuSans-49"/>
     <use x="2357.955078" xlink:href="#DejaVuSans-48"/>
     <use x="2421.578125" xlink:href="#DejaVuSans-48"/>
     <use x="2485.201172" xlink:href="#DejaVuSans-48"/>
     <use x="2548.824219" xlink:href="#DejaVuSans-48"/>
     <use x="2612.447266" xlink:href="#DejaVuSans-44"/>
     <use x="2644.234375" xlink:href="#DejaVuSans-114"/>
     <use x="2683.597656" xlink:href="#DejaVuSans-104"/>
     <use x="2746.976562" xlink:href="#DejaVuSans-111"/>
     <use x="2808.158203" xlink:href="#DejaVuSans-61"/>
     <use x="2891.947266" xlink:href="#DejaVuSans-48"/>
     <use x="2955.570312" xlink:href="#DejaVuSans-93"/>
    </g>
   </g>
   <g id="legend_1">
    <g id="patch_7">
     <path d="M 135.920938 343.11 
L 440.2 343.11 
Q 443 343.11 443 340.31 
L 443 53.24 
Q 443 50.44 440.2 50.44 
L 135.920938 50.44 
Q 133.120938 50.44 133.120938 53.24 
L 133.120938 340.31 
Q 133.120938 343.11 135.920938 343.11 
z
" style="fill:#ffffff;opacity:0.8;stroke:#cccccc;stroke-linejoin:miter;"/>
    </g>
    <g id="line2d_59">
     <path d="M 138.720938 61.777812 
L 166.720938 61.777812 
" style="fill:none;stroke:#1f77b4;stroke-linecap:square;stroke-width:3;"/>
    </g>
    <g id="line2d_60"/>
    <g id="text_12">
     <!-- Blitz -->
     <g transform="translate(177.920938 66.677812)scale(0.14 -0.14)">
      <defs>
       <path d="M 19.671875 34.8125 
L 19.671875 8.109375 
L 35.5 8.109375 
Q 43.453125 8.109375 47.28125 11.40625 
Q 51.125 14.703125 51.125 21.484375 
Q 51.125 28.328125 47.28125 31.5625 
Q 43.453125 34.8125 35.5 34.8125 
z
M 19.671875 64.796875 
L 19.671875 42.828125 
L 34.28125 42.828125 
Q 41.5 42.828125 45.03125 45.53125 
Q 48.578125 48.25 48.578125 53.8125 
Q 48.578125 59.328125 45.03125 62.0625 
Q 41.5 64.796875 34.28125 64.796875 
z
M 9.8125 72.90625 
L 35.015625 72.90625 
Q 46.296875 72.90625 52.390625 68.21875 
Q 58.5 63.53125 58.5 54.890625 
Q 58.5 48.1875 55.375 44.234375 
Q 52.25 40.28125 46.1875 39.3125 
Q 53.46875 37.75 57.5 32.78125 
Q 61.53125 27.828125 61.53125 20.40625 
Q 61.53125 10.640625 54.890625 5.3125 
Q 48.25 0 35.984375 0 
L 9.8125 0 
z
" id="DejaVuSans-66"/>
       <path d="M 5.515625 54.6875 
L 48.1875 54.6875 
L 48.1875 46.484375 
L 14.40625 7.171875 
L 48.1875 7.171875 
L 48.1875 0 
L 4.296875 0 
L 4.296875 8.203125 
L 38.09375 47.515625 
L 5.515625 47.515625 
z
" id="DejaVuSans-122"/>
      </defs>
      <use xlink:href="#DejaVuSans-66"/>
      <use x="68.603516" xlink:href="#DejaVuSans-108"/>
      <use x="96.386719" xlink:href="#DejaVuSans-105"/>
      <use x="124.169922" xlink:href="#DejaVuSans-116"/>
      <use x="163.378906" xlink:href="#DejaVuSans-122"/>
     </g>
    </g>
    <g id="line2d_61">
     <path d="M 138.720938 82.327187 
L 166.720938 82.327187 
" style="fill:none;stroke:#ff7f0e;stroke-linecap:square;stroke-width:3;"/>
    </g>
    <g id="line2d_62"/>
    <g id="text_13">
     <!-- cd -->
     <g transform="translate(177.920938 87.227187)scale(0.14 -0.14)">
      <use xlink:href="#DejaVuSans-99"/>
      <use x="54.980469" xlink:href="#DejaVuSans-100"/>
     </g>
    </g>
    <g id="line2d_63">
     <path d="M 138.720938 102.876562 
L 166.720938 102.876562 
" style="fill:none;stroke:#2ca02c;stroke-linecap:square;stroke-width:3;"/>
    </g>
    <g id="line2d_64"/>
    <g id="text_14">
     <!-- Celer -->
     <g transform="translate(177.920938 107.776562)scale(0.14 -0.14)">
      <defs>
       <path d="M 64.40625 67.28125 
L 64.40625 56.890625 
Q 59.421875 61.53125 53.78125 63.8125 
Q 48.140625 66.109375 41.796875 66.109375 
Q 29.296875 66.109375 22.65625 58.46875 
Q 16.015625 50.828125 16.015625 36.375 
Q 16.015625 21.96875 22.65625 14.328125 
Q 29.296875 6.6875 41.796875 6.6875 
Q 48.140625 6.6875 53.78125 8.984375 
Q 59.421875 11.28125 64.40625 15.921875 
L 64.40625 5.609375 
Q 59.234375 2.09375 53.4375 0.328125 
Q 47.65625 -1.421875 41.21875 -1.421875 
Q 24.65625 -1.421875 15.125 8.703125 
Q 5.609375 18.84375 5.609375 36.375 
Q 5.609375 53.953125 15.125 64.078125 
Q 24.65625 74.21875 41.21875 74.21875 
Q 47.75 74.21875 53.53125 72.484375 
Q 59.328125 70.75 64.40625 67.28125 
z
" id="DejaVuSans-67"/>
      </defs>
      <use xlink:href="#DejaVuSans-67"/>
      <use x="69.824219" xlink:href="#DejaVuSans-101"/>
      <use x="131.347656" xlink:href="#DejaVuSans-108"/>
      <use x="159.130859" xlink:href="#DejaVuSans-101"/>
      <use x="220.654297" xlink:href="#DejaVuSans-114"/>
     </g>
    </g>
    <g id="line2d_65">
     <path d="M 138.720938 123.425937 
L 166.720938 123.425937 
" style="fill:none;stroke:#d62728;stroke-linecap:square;stroke-width:3;"/>
    </g>
    <g id="line2d_66"/>
    <g id="text_15">
     <!-- cvxpy -->
     <g transform="translate(177.920938 128.325937)scale(0.14 -0.14)">
      <defs>
       <path d="M 2.984375 54.6875 
L 12.5 54.6875 
L 29.59375 8.796875 
L 46.6875 54.6875 
L 56.203125 54.6875 
L 35.6875 0 
L 23.484375 0 
z
" id="DejaVuSans-118"/>
       <path d="M 54.890625 54.6875 
L 35.109375 28.078125 
L 55.90625 0 
L 45.3125 0 
L 29.390625 21.484375 
L 13.484375 0 
L 2.875 0 
L 24.125 28.609375 
L 4.6875 54.6875 
L 15.28125 54.6875 
L 29.78125 35.203125 
L 44.28125 54.6875 
z
" id="DejaVuSans-120"/>
       <path d="M 32.171875 -5.078125 
Q 28.375 -14.84375 24.75 -17.8125 
Q 21.140625 -20.796875 15.09375 -20.796875 
L 7.90625 -20.796875 
L 7.90625 -13.28125 
L 13.1875 -13.28125 
Q 16.890625 -13.28125 18.9375 -11.515625 
Q 21 -9.765625 23.484375 -3.21875 
L 25.09375 0.875 
L 2.984375 54.6875 
L 12.5 54.6875 
L 29.59375 11.921875 
L 46.6875 54.6875 
L 56.203125 54.6875 
z
" id="DejaVuSans-121"/>
      </defs>
      <use xlink:href="#DejaVuSans-99"/>
      <use x="54.980469" xlink:href="#DejaVuSans-118"/>
      <use x="114.160156" xlink:href="#DejaVuSans-120"/>
      <use x="173.339844" xlink:href="#DejaVuSans-112"/>
      <use x="236.816406" xlink:href="#DejaVuSans-121"/>
     </g>
    </g>
    <g id="line2d_67">
     <path d="M 138.720938 143.975312 
L 166.720938 143.975312 
" style="fill:none;stroke:#9467bd;stroke-linecap:square;stroke-width:3;"/>
    </g>
    <g id="line2d_68"/>
    <g id="text_16">
     <!-- Cyanure -->
     <g transform="translate(177.920938 148.875312)scale(0.14 -0.14)">
      <use xlink:href="#DejaVuSans-67"/>
      <use x="69.824219" xlink:href="#DejaVuSans-121"/>
      <use x="129.003906" xlink:href="#DejaVuSans-97"/>
      <use x="190.283203" xlink:href="#DejaVuSans-110"/>
      <use x="253.662109" xlink:href="#DejaVuSans-117"/>
      <use x="317.041016" xlink:href="#DejaVuSans-114"/>
      <use x="355.904297" xlink:href="#DejaVuSans-101"/>
     </g>
    </g>
    <g id="line2d_69">
     <path d="M 138.720938 164.524687 
L 166.720938 164.524687 
" style="fill:none;stroke:#8c564b;stroke-linecap:square;stroke-width:3;"/>
    </g>
    <g id="line2d_70"/>
    <g id="text_17">
     <!-- glmnet -->
     <g transform="translate(177.920938 169.424687)scale(0.14 -0.14)">
      <use xlink:href="#DejaVuSans-103"/>
      <use x="63.476562" xlink:href="#DejaVuSans-108"/>
      <use x="91.259766" xlink:href="#DejaVuSans-109"/>
      <use x="188.671875" xlink:href="#DejaVuSans-110"/>
      <use x="252.050781" xlink:href="#DejaVuSans-101"/>
      <use x="313.574219" xlink:href="#DejaVuSans-116"/>
     </g>
    </g>
    <g id="line2d_71">
     <path d="M 138.720938 185.074062 
L 166.720938 185.074062 
" style="fill:none;stroke:#e377c2;stroke-linecap:square;stroke-width:3;"/>
    </g>
    <g id="line2d_72"/>
    <g id="text_18">
     <!-- Julia-PGD -->
     <g transform="translate(177.920938 189.974062)scale(0.14 -0.14)">
      <defs>
       <path d="M 9.8125 72.90625 
L 19.671875 72.90625 
L 19.671875 5.078125 
Q 19.671875 -8.109375 14.671875 -14.0625 
Q 9.671875 -20.015625 -1.421875 -20.015625 
L -5.171875 -20.015625 
L -5.171875 -11.71875 
L -2.09375 -11.71875 
Q 4.4375 -11.71875 7.125 -8.046875 
Q 9.8125 -4.390625 9.8125 5.078125 
z
" id="DejaVuSans-74"/>
       <path d="M 4.890625 31.390625 
L 31.203125 31.390625 
L 31.203125 23.390625 
L 4.890625 23.390625 
z
" id="DejaVuSans-45"/>
       <path d="M 19.671875 64.796875 
L 19.671875 37.40625 
L 32.078125 37.40625 
Q 38.96875 37.40625 42.71875 40.96875 
Q 46.484375 44.53125 46.484375 51.125 
Q 46.484375 57.671875 42.71875 61.234375 
Q 38.96875 64.796875 32.078125 64.796875 
z
M 9.8125 72.90625 
L 32.078125 72.90625 
Q 44.34375 72.90625 50.609375 67.359375 
Q 56.890625 61.8125 56.890625 51.125 
Q 56.890625 40.328125 50.609375 34.8125 
Q 44.34375 29.296875 32.078125 29.296875 
L 19.671875 29.296875 
L 19.671875 0 
L 9.8125 0 
z
" id="DejaVuSans-80"/>
       <path d="M 59.515625 10.40625 
L 59.515625 29.984375 
L 43.40625 29.984375 
L 43.40625 38.09375 
L 69.28125 38.09375 
L 69.28125 6.78125 
Q 63.578125 2.734375 56.6875 0.65625 
Q 49.8125 -1.421875 42 -1.421875 
Q 24.90625 -1.421875 15.25 8.5625 
Q 5.609375 18.5625 5.609375 36.375 
Q 5.609375 54.25 15.25 64.234375 
Q 24.90625 74.21875 42 74.21875 
Q 49.125 74.21875 55.546875 72.453125 
Q 61.96875 70.703125 67.390625 67.28125 
L 67.390625 56.78125 
Q 61.921875 61.421875 55.765625 63.765625 
Q 49.609375 66.109375 42.828125 66.109375 
Q 29.4375 66.109375 22.71875 58.640625 
Q 16.015625 51.171875 16.015625 36.375 
Q 16.015625 21.625 22.71875 14.15625 
Q 29.4375 6.6875 42.828125 6.6875 
Q 48.046875 6.6875 52.140625 7.59375 
Q 56.25 8.5 59.515625 10.40625 
z
" id="DejaVuSans-71"/>
      </defs>
      <use xlink:href="#DejaVuSans-74"/>
      <use x="29.492188" xlink:href="#DejaVuSans-117"/>
      <use x="92.871094" xlink:href="#DejaVuSans-108"/>
      <use x="120.654297" xlink:href="#DejaVuSans-105"/>
      <use x="148.4375" xlink:href="#DejaVuSans-97"/>
      <use x="209.716797" xlink:href="#DejaVuSans-45"/>
      <use x="245.800781" xlink:href="#DejaVuSans-80"/>
      <use x="306.103516" xlink:href="#DejaVuSans-71"/>
      <use x="383.59375" xlink:href="#DejaVuSans-68"/>
     </g>
    </g>
    <g id="line2d_73">
     <path d="M 138.720938 205.623437 
L 166.720938 205.623437 
" style="fill:none;stroke:#7f7f7f;stroke-linecap:square;stroke-width:3;"/>
    </g>
    <g id="line2d_74"/>
    <g id="text_19">
     <!-- L-BFGS-B -->
     <g transform="translate(177.920938 210.523437)scale(0.14 -0.14)">
      <defs>
       <path d="M 9.8125 72.90625 
L 51.703125 72.90625 
L 51.703125 64.59375 
L 19.671875 64.59375 
L 19.671875 43.109375 
L 48.578125 43.109375 
L 48.578125 34.8125 
L 19.671875 34.8125 
L 19.671875 0 
L 9.8125 0 
z
" id="DejaVuSans-70"/>
      </defs>
      <use xlink:href="#DejaVuSans-76"/>
      <use x="53.962891" xlink:href="#DejaVuSans-45"/>
      <use x="86.421875" xlink:href="#DejaVuSans-66"/>
      <use x="155.025391" xlink:href="#DejaVuSans-70"/>
      <use x="212.544922" xlink:href="#DejaVuSans-71"/>
      <use x="290.035156" xlink:href="#DejaVuSans-83"/>
      <use x="353.511719" xlink:href="#DejaVuSans-45"/>
      <use x="385.970703" xlink:href="#DejaVuSans-66"/>
     </g>
    </g>
    <g id="line2d_75">
     <path d="M 138.720938 226.172812 
L 166.720938 226.172812 
" style="fill:none;stroke:#bcbd22;stroke-linecap:square;stroke-width:3;"/>
    </g>
    <g id="line2d_76"/>
    <g id="text_20">
     <!-- Lightning -->
     <g transform="translate(177.920938 231.072812)scale(0.14 -0.14)">
      <use xlink:href="#DejaVuSans-76"/>
      <use x="55.712891" xlink:href="#DejaVuSans-105"/>
      <use x="83.496094" xlink:href="#DejaVuSans-103"/>
      <use x="146.972656" xlink:href="#DejaVuSans-104"/>
      <use x="210.351562" xlink:href="#DejaVuSans-116"/>
      <use x="249.560547" xlink:href="#DejaVuSans-110"/>
      <use x="312.939453" xlink:href="#DejaVuSans-105"/>
      <use x="340.722656" xlink:href="#DejaVuSans-110"/>
      <use x="404.101562" xlink:href="#DejaVuSans-103"/>
     </g>
    </g>
    <g id="line2d_77">
     <path d="M 138.720938 246.722187 
L 166.720938 246.722187 
" style="fill:none;stroke:#17becf;stroke-linecap:square;stroke-width:3;"/>
    </g>
    <g id="line2d_78"/>
    <g id="text_21">
     <!-- Python-PGD[use_acceleration=False] -->
     <g transform="translate(177.920938 251.622187)scale(0.14 -0.14)">
      <use xlink:href="#DejaVuSans-80"/>
      <use x="60.302734" xlink:href="#DejaVuSans-121"/>
      <use x="119.482422" xlink:href="#DejaVuSans-116"/>
      <use x="158.691406" xlink:href="#DejaVuSans-104"/>
      <use x="222.070312" xlink:href="#DejaVuSans-111"/>
      <use x="283.251953" xlink:href="#DejaVuSans-110"/>
      <use x="346.630859" xlink:href="#DejaVuSans-45"/>
      <use x="382.714844" xlink:href="#DejaVuSans-80"/>
      <use x="443.017578" xlink:href="#DejaVuSans-71"/>
      <use x="520.507812" xlink:href="#DejaVuSans-68"/>
      <use x="597.509766" xlink:href="#DejaVuSans-91"/>
      <use x="636.523438" xlink:href="#DejaVuSans-117"/>
      <use x="699.902344" xlink:href="#DejaVuSans-115"/>
      <use x="752.001953" xlink:href="#DejaVuSans-101"/>
      <use x="813.525391" xlink:href="#DejaVuSans-95"/>
      <use x="863.525391" xlink:href="#DejaVuSans-97"/>
      <use x="924.804688" xlink:href="#DejaVuSans-99"/>
      <use x="979.785156" xlink:href="#DejaVuSans-99"/>
      <use x="1034.765625" xlink:href="#DejaVuSans-101"/>
      <use x="1096.289062" xlink:href="#DejaVuSans-108"/>
      <use x="1124.072266" xlink:href="#DejaVuSans-101"/>
      <use x="1185.595703" xlink:href="#DejaVuSans-114"/>
      <use x="1226.708984" xlink:href="#DejaVuSans-97"/>
      <use x="1287.988281" xlink:href="#DejaVuSans-116"/>
      <use x="1327.197266" xlink:href="#DejaVuSans-105"/>
      <use x="1354.980469" xlink:href="#DejaVuSans-111"/>
      <use x="1416.162109" xlink:href="#DejaVuSans-110"/>
      <use x="1479.541016" xlink:href="#DejaVuSans-61"/>
      <use x="1563.330078" xlink:href="#DejaVuSans-70"/>
      <use x="1611.724609" xlink:href="#DejaVuSans-97"/>
      <use x="1673.003906" xlink:href="#DejaVuSans-108"/>
      <use x="1700.787109" xlink:href="#DejaVuSans-115"/>
      <use x="1752.886719" xlink:href="#DejaVuSans-101"/>
      <use x="1814.410156" xlink:href="#DejaVuSans-93"/>
     </g>
    </g>
    <g id="line2d_79">
     <path d="M 138.720938 267.660937 
L 166.720938 267.660937 
" style="fill:none;stroke:#1f77b4;stroke-linecap:square;stroke-width:3;"/>
    </g>
    <g id="line2d_80"/>
    <g id="text_22">
     <!-- Python-PGD[use_acceleration=True] -->
     <g transform="translate(177.920938 272.560937)scale(0.14 -0.14)">
      <use xlink:href="#DejaVuSans-80"/>
      <use x="60.302734" xlink:href="#DejaVuSans-121"/>
      <use x="119.482422" xlink:href="#DejaVuSans-116"/>
      <use x="158.691406" xlink:href="#DejaVuSans-104"/>
      <use x="222.070312" xlink:href="#DejaVuSans-111"/>
      <use x="283.251953" xlink:href="#DejaVuSans-110"/>
      <use x="346.630859" xlink:href="#DejaVuSans-45"/>
      <use x="382.714844" xlink:href="#DejaVuSans-80"/>
      <use x="443.017578" xlink:href="#DejaVuSans-71"/>
      <use x="520.507812" xlink:href="#DejaVuSans-68"/>
      <use x="597.509766" xlink:href="#DejaVuSans-91"/>
      <use x="636.523438" xlink:href="#DejaVuSans-117"/>
      <use x="699.902344" xlink:href="#DejaVuSans-115"/>
      <use x="752.001953" xlink:href="#DejaVuSans-101"/>
      <use x="813.525391" xlink:href="#DejaVuSans-95"/>
      <use x="863.525391" xlink:href="#DejaVuSans-97"/>
      <use x="924.804688" xlink:href="#DejaVuSans-99"/>
      <use x="979.785156" xlink:href="#DejaVuSans-99"/>
      <use x="1034.765625" xlink:href="#DejaVuSans-101"/>
      <use x="1096.289062" xlink:href="#DejaVuSans-108"/>
      <use x="1124.072266" xlink:href="#DejaVuSans-101"/>
      <use x="1185.595703" xlink:href="#DejaVuSans-114"/>
      <use x="1226.708984" xlink:href="#DejaVuSans-97"/>
      <use x="1287.988281" xlink:href="#DejaVuSans-116"/>
      <use x="1327.197266" xlink:href="#DejaVuSans-105"/>
      <use x="1354.980469" xlink:href="#DejaVuSans-111"/>
      <use x="1416.162109" xlink:href="#DejaVuSans-110"/>
      <use x="1479.541016" xlink:href="#DejaVuSans-61"/>
      <use x="1563.330078" xlink:href="#DejaVuSans-84"/>
      <use x="1609.664062" xlink:href="#DejaVuSans-114"/>
      <use x="1650.777344" xlink:href="#DejaVuSans-117"/>
      <use x="1714.15625" xlink:href="#DejaVuSans-101"/>
      <use x="1775.679688" xlink:href="#DejaVuSans-93"/>
     </g>
    </g>
    <g id="line2d_81">
     <path d="M 138.720938 288.599687 
L 166.720938 288.599687 
" style="fill:none;stroke:#ff7f0e;stroke-linecap:square;stroke-width:3;"/>
    </g>
    <g id="line2d_82"/>
    <g id="text_23">
     <!-- R-PGD -->
     <g transform="translate(177.920938 293.499687)scale(0.14 -0.14)">
      <use xlink:href="#DejaVuSans-82"/>
      <use x="65.482422" xlink:href="#DejaVuSans-45"/>
      <use x="101.566406" xlink:href="#DejaVuSans-80"/>
      <use x="161.869141" xlink:href="#DejaVuSans-71"/>
      <use x="239.359375" xlink:href="#DejaVuSans-68"/>
     </g>
    </g>
    <g id="line2d_83">
     <path d="M 138.720938 309.149062 
L 166.720938 309.149062 
" style="fill:none;stroke:#2ca02c;stroke-linecap:square;stroke-width:3;"/>
    </g>
    <g id="line2d_84"/>
    <g id="text_24">
     <!-- sklearn -->
     <g transform="translate(177.920938 314.049062)scale(0.14 -0.14)">
      <defs>
       <path d="M 9.078125 75.984375 
L 18.109375 75.984375 
L 18.109375 31.109375 
L 44.921875 54.6875 
L 56.390625 54.6875 
L 27.390625 29.109375 
L 57.625 0 
L 45.90625 0 
L 18.109375 26.703125 
L 18.109375 0 
L 9.078125 0 
z
" id="DejaVuSans-107"/>
      </defs>
      <use xlink:href="#DejaVuSans-115"/>
      <use x="52.099609" xlink:href="#DejaVuSans-107"/>
      <use x="110.009766" xlink:href="#DejaVuSans-108"/>
      <use x="137.792969" xlink:href="#DejaVuSans-101"/>
      <use x="199.316406" xlink:href="#DejaVuSans-97"/>
      <use x="260.595703" xlink:href="#DejaVuSans-114"/>
      <use x="299.958984" xlink:href="#DejaVuSans-110"/>
     </g>
    </g>
    <g id="line2d_85">
     <path d="M 138.720938 329.698437 
L 166.720938 329.698437 
" style="fill:none;stroke:#d62728;stroke-linecap:square;stroke-width:3;"/>
    </g>
    <g id="line2d_86"/>
    <g id="text_25">
     <!-- statsmodels -->
     <g transform="translate(177.920938 334.598437)scale(0.14 -0.14)">
      <use xlink:href="#DejaVuSans-115"/>
      <use x="52.099609" xlink:href="#DejaVuSans-116"/>
      <use x="91.308594" xlink:href="#DejaVuSans-97"/>
      <use x="152.587891" xlink:href="#DejaVuSans-116"/>
      <use x="191.796875" xlink:href="#DejaVuSans-115"/>
      <use x="243.896484" xlink:href="#DejaVuSans-109"/>
      <use x="341.308594" xlink:href="#DejaVuSans-111"/>
      <use x="402.490234" xlink:href="#DejaVuSans-100"/>
      <use x="465.966797" xlink:href="#DejaVuSans-101"/>
      <use x="527.490234" xlink:href="#DejaVuSans-108"/>
      <use x="555.273438" xlink:href="#DejaVuSans-115"/>
     </g>
    </g>
   </g>
  </g>
 </g>
 <defs>
  <clipPath id="p5852e857ca">
   <rect height="253.288" width="377.803258" x="72.196742" y="43.44"/>
  </clipPath>
 </defs>
</svg>
