<?xml version="1.0" encoding="utf-8" standalone="no"?>
<!DOCTYPE svg PUBLIC "-//W3C//DTD SVG 1.1//EN"
  "http://www.w3.org/Graphics/SVG/1.1/DTD/svg11.dtd">
<!-- Created with matplotlib (https://matplotlib.org/) -->
<svg height="345.6pt" version="1.1" viewBox="0 0 460.8 345.6" width="460.8pt" xmlns="http://www.w3.org/2000/svg" xmlns:xlink="http://www.w3.org/1999/xlink">
 <metadata>
  <rdf:RDF xmlns:cc="http://creativecommons.org/ns#" xmlns:dc="http://purl.org/dc/elements/1.1/" xmlns:rdf="http://www.w3.org/1999/02/22-rdf-syntax-ns#">
   <cc:Work>
    <dc:type rdf:resource="http://purl.org/dc/dcmitype/StillImage"/>
    <dc:date>2020-12-16T18:00:08.841581</dc:date>
    <dc:format>image/svg+xml</dc:format>
    <dc:creator>
     <cc:Agent>
      <dc:title>Matplotlib v3.3.3, https://matplotlib.org/</dc:title>
     </cc:Agent>
    </dc:creator>
   </cc:Work>
  </rdf:RDF>
 </metadata>
 <defs>
  <style type="text/css">*{stroke-linecap:butt;stroke-linejoin:round;}</style>
 </defs>
 <g id="figure_1">
  <g id="patch_1">
   <path d="M 0 345.6 
L 460.8 345.6 
L 460.8 0 
L 0 0 
z
" style="fill:#ffffff;"/>
  </g>
  <g id="axes_1">
   <g id="patch_2">
    <path d="M 76.881214 296.728 
L 449.719202 296.728 
L 449.719202 43.44 
L 76.881214 43.44 
z
" style="fill:#ffffff;"/>
   </g>
   <g id="PolyCollection_1">
    <defs>
     <path d="M 155.546665 -60.385091 
L 149.356337 -60.385091 
L 149.211517 -60.385091 
L 147.735216 -60.385091 
L 149.487532 -60.385091 
L 149.601473 -60.385091 
L 148.676641 -60.385091 
L 148.287535 -66.347151 
L 148.040833 -68.938534 
L 147.97908 -74.236418 
L 146.641491 -72.096631 
L 146.981124 -76.754098 
L 146.624117 -71.199393 
L 148.278888 -70.383933 
L 146.382529 -71.199393 
L 146.271033 -69.700024 
L 147.772921 -70.383933 
L 147.131048 -70.383933 
L 147.706304 -72.262548 
L 144.104795 -133.942592 
L 144.563085 -135.305441 
L 144.287312 -139.249467 
L 143.702011 -140.96378 
L 143.483657 -142.1184 
L 142.101564 -135.110494 
L 144.300049 -135.325969 
L 142.378982 -137.574505 
L 144.615251 -134.969085 
L 142.930115 -139.212015 
L 145.165831 -135.101411 
L 143.145277 -141.386647 
L 140.794029 -136.034975 
L 140.435406 -196.56405 
L 140.117283 -204.552725 
L 139.784117 -205.222614 
L 139.545742 -204.851774 
L 138.216495 -213.333226 
L 137.509072 -213.28998 
L 136.661079 -213.406376 
L 137.454487 -213.281202 
L 137.822609 -213.419839 
L 138.678027 -213.233227 
L 136.458086 -213.630248 
L 137.151985 -212.913821 
L 130.568492 -262.836616 
L 94.235835 -271.400386 
L 94.026932 -271.357531 
L 95.687941 -271.363971 
L 94.393344 -270.774923 
L 93.828395 -271.098869 
L 107.105676 -271.098869 
L 107.105676 -271.098869 
L 96.062951 -270.774923 
L 97.019659 -271.363971 
L 109.61606 -271.357531 
L 96.562102 -271.400386 
L 143.933213 -262.836616 
L 145.344869 -212.913821 
L 139.70146 -213.630248 
L 141.694773 -213.233227 
L 140.813234 -213.419839 
L 137.878508 -213.281202 
L 139.901135 -213.406376 
L 140.024361 -213.28998 
L 141.634367 -213.333226 
L 141.924933 -204.851774 
L 143.691844 -205.222614 
L 148.581281 -204.552725 
L 149.841625 -196.56405 
L 147.894805 -136.034975 
L 144.951608 -141.386647 
L 146.009282 -135.101411 
L 143.707547 -139.212015 
L 149.912845 -134.969085 
L 145.68931 -137.574505 
L 148.025717 -135.325969 
L 145.02729 -135.110494 
L 144.129503 -142.1184 
L 146.257905 -140.96378 
L 145.220968 -139.249467 
L 146.93268 -135.305441 
L 148.040806 -133.942592 
L 151.375156 -72.262548 
L 155.333164 -70.383933 
L 149.506691 -70.383933 
L 147.793423 -69.700024 
L 146.994204 -71.199393 
L 150.560873 -70.383933 
L 155.969036 -71.199393 
L 148.547552 -76.754098 
L 150.20852 -72.096631 
L 150.495714 -74.236418 
L 150.182581 -68.938534 
L 154.148607 -66.347151 
L 150.293594 -60.385091 
L 150.224183 -60.385091 
L 151.196748 -60.385091 
L 150.503818 -60.385091 
L 151.8469 -60.385091 
L 155.546665 -60.385091 
z
" id="m279faf7ab5" style="stroke:#1f77b4;stroke-opacity:0.3;"/>
    </defs>
    <g clip-path="url(#p74a91fc252)">
     <use style="fill:#1f77b4;fill-opacity:0.3;stroke:#1f77b4;stroke-opacity:0.3;" x="0" xlink:href="#m279faf7ab5" y="345.6"/>
    </g>
   </g>
   <g id="PolyCollection_2">
    <defs>
     <path d="M 143.79856 -273.973829 
L 125.676105 -273.973829 
L 129.743647 -263.118954 
L 147.454477 -252.462685 
L 146.066103 -244.357714 
L 154.381945 -233.530135 
L 169.631846 -221.153098 
L 176.77882 -204.435837 
L 190.412122 -179.887607 
L 205.223559 -145.891203 
L 220.035266 -92.896757 
L 237.052335 -60.385091 
L 251.477678 -60.385091 
L 274.901436 -60.385091 
L 300.76716 -60.385091 
L 331.489387 -60.385091 
L 364.583882 -60.385091 
L 369.412631 -60.385091 
L 369.412631 -60.385091 
L 337.157144 -60.385091 
L 302.463568 -60.385091 
L 275.790945 -60.385091 
L 253.306419 -60.385091 
L 238.411723 -60.385091 
L 222.105925 -92.896757 
L 208.724473 -145.891203 
L 193.187259 -179.887607 
L 183.127589 -204.435837 
L 177.300625 -221.153098 
L 160.723288 -233.530135 
L 153.113565 -244.357714 
L 153.726429 -252.462685 
L 140.221426 -263.118954 
L 143.79856 -273.973829 
z
" id="mfe08e1934f" style="stroke:#ff7f0e;stroke-opacity:0.3;"/>
    </defs>
    <g clip-path="url(#p74a91fc252)">
     <use style="fill:#ff7f0e;fill-opacity:0.3;stroke:#ff7f0e;stroke-opacity:0.3;" x="0" xlink:href="#mfe08e1934f" y="345.6"/>
    </g>
   </g>
   <g id="PolyCollection_3">
    <defs>
     <path d="M 154.910486 -271.980861 
L 146.694896 -271.980861 
L 152.89159 -261.522552 
L 161.470134 -241.729178 
L 166.184851 -179.056272 
L 170.616849 -81.975189 
L 175.976179 -60.385091 
L 177.456025 -60.385091 
L 174.3555 -60.385091 
L 174.087296 -60.385091 
L 175.86532 -60.385091 
L 175.218224 -60.385091 
L 180.522937 -60.385091 
L 180.522937 -60.385091 
L 184.127605 -60.385091 
L 180.614031 -60.385091 
L 178.045809 -60.385091 
L 183.226972 -60.385091 
L 183.9403 -60.385091 
L 174.158756 -81.975189 
L 174.937874 -179.056272 
L 171.656339 -241.729178 
L 166.352744 -261.522552 
L 154.910486 -271.980861 
z
" id="m575cf49621" style="stroke:#2ca02c;stroke-opacity:0.3;"/>
    </defs>
    <g clip-path="url(#p74a91fc252)">
     <use style="fill:#2ca02c;fill-opacity:0.3;stroke:#2ca02c;stroke-opacity:0.3;" x="0" xlink:href="#m575cf49621" y="345.6"/>
    </g>
   </g>
   <g id="PolyCollection_4">
    <defs>
     <path d="M 352.942014 -286.52872 
L 307.951803 -286.52872 
L 323.765927 -286.52872 
L 336.85463 -286.52872 
L 360.572044 -286.52872 
L 393.22994 -290.646909 
L 410.791536 -211.761871 
L 411.323763 -211.761871 
L 411.294219 -211.761871 
L 414.817128 -211.761871 
L 414.817128 -211.761871 
L 414.753606 -211.761871 
L 413.258288 -211.761871 
L 398.674852 -290.646909 
L 362.462331 -286.52872 
L 339.081702 -286.52872 
L 327.599296 -286.52872 
L 352.942014 -286.52872 
z
" id="m3a49c8ad86" style="stroke:#d62728;stroke-opacity:0.3;"/>
    </defs>
    <g clip-path="url(#p74a91fc252)">
     <use style="fill:#d62728;fill-opacity:0.3;stroke:#d62728;stroke-opacity:0.3;" x="0" xlink:href="#m3a49c8ad86" y="345.6"/>
    </g>
   </g>
   <g id="PolyCollection_5">
    <defs>
     <path d="M 132.854402 -280.09673 
L 96.633794 -280.09673 
L 94.932699 -278.344716 
L 108.393559 -273.658747 
L 118.626844 -273.021344 
L 135.052104 -272.062582 
L 139.624663 -269.715683 
L 147.563114 -269.333611 
L 165.473227 -269.333611 
L 195.387908 -259.0578 
L 220.072812 -243.107886 
L 244.619248 -211.875448 
L 268.19616 -144.973162 
L 290.664205 -80.417644 
L 313.523183 -73.180241 
L 338.563043 -65.506141 
L 365.729394 -61.282329 
L 390.895516 -62.073749 
L 419.246679 -60.385091 
L 422.414783 -60.385091 
L 426.472433 -60.385091 
L 426.472433 -60.385091 
L 420.142982 -60.385091 
L 397.489176 -62.073749 
L 367.413368 -61.282329 
L 348.484051 -65.506141 
L 318.647937 -73.180241 
L 291.843611 -80.417644 
L 270.410163 -144.973162 
L 250.252835 -211.875448 
L 226.603878 -243.107886 
L 201.788958 -259.0578 
L 169.785047 -269.333611 
L 177.488228 -269.333611 
L 144.674937 -269.715683 
L 158.676829 -272.062582 
L 148.561985 -273.021344 
L 127.531588 -273.658747 
L 125.845368 -278.344716 
L 132.854402 -280.09673 
z
" id="mc0b10bc18a" style="stroke:#9467bd;stroke-opacity:0.3;"/>
    </defs>
    <g clip-path="url(#p74a91fc252)">
     <use style="fill:#9467bd;fill-opacity:0.3;stroke:#9467bd;stroke-opacity:0.3;" x="0" xlink:href="#mc0b10bc18a" y="345.6"/>
    </g>
   </g>
   <g id="PolyCollection_6">
    <defs>
     <path d="M 251.604749 -280.09673 
L 206.878726 -280.09673 
L 206.99156 -280.055772 
L 201.879553 -280.055772 
L 211.635374 -280.015426 
L 210.432952 -279.97569 
L 210.98011 -279.898044 
L 217.080101 -279.749994 
L 226.886026 -279.624624 
L 225.788272 -279.242702 
L 232.786748 -278.579877 
L 242.038937 -276.867617 
L 256.290071 -273.284068 
L 266.293687 -264.378848 
L 278.128673 -83.820758 
L 275.947497 -83.820758 
L 277.051211 -83.820758 
L 275.834753 -83.820758 
L 275.455207 -83.820758 
L 276.013853 -83.820758 
L 287.644151 -83.820758 
L 287.644151 -83.820758 
L 287.599501 -83.820758 
L 281.687346 -83.820758 
L 295.445374 -83.820758 
L 288.495976 -83.820758 
L 288.54552 -83.820758 
L 285.590517 -264.378848 
L 274.705594 -273.284068 
L 255.334157 -276.867617 
L 264.952325 -278.579877 
L 238.767163 -279.242702 
L 258.63924 -279.624624 
L 255.755983 -279.749994 
L 254.758074 -279.898044 
L 251.237667 -279.97569 
L 252.257213 -280.015426 
L 250.708557 -280.055772 
L 251.959562 -280.055772 
L 251.604749 -280.09673 
z
" id="me2489e1095" style="stroke:#8c564b;stroke-opacity:0.3;"/>
    </defs>
    <g clip-path="url(#p74a91fc252)">
     <use style="fill:#8c564b;fill-opacity:0.3;stroke:#8c564b;stroke-opacity:0.3;" x="0" xlink:href="#me2489e1095" y="345.6"/>
    </g>
   </g>
   <g id="PolyCollection_7">
    <defs>
     <path d="M 270.727875 -278.851219 
L 240.63372 -278.851219 
L 245.50215 -277.88673 
L 246.038979 -277.104997 
L 246.949907 -276.450814 
L 248.989179 -275.391668 
L 251.787102 -274.156357 
L 254.395925 -272.894509 
L 258.51121 -271.452335 
L 263.985466 -269.828046 
L 272.821439 -267.830954 
L 276.134452 -265.610197 
L 277.881471 -262.897978 
L 283.033245 -259.522684 
L 290.18101 -255.728971 
L 297.706404 -251.075167 
L 309.443939 -244.749785 
L 321.181677 -235.07155 
L 333.453157 -224.50646 
L 348.15821 -211.749724 
L 360.760982 -194.857834 
L 376.424068 -172.485428 
L 392.747877 -143.165885 
L 405.01796 -102.079276 
L 428.197579 -62.073749 
L 430.612792 -62.073749 
L 430.612792 -62.073749 
L 409.559851 -102.079276 
L 395.324382 -143.165885 
L 380.118201 -172.485428 
L 362.783026 -194.857834 
L 356.255628 -211.749724 
L 338.231165 -224.50646 
L 327.731008 -235.07155 
L 314.167191 -244.749785 
L 307.751396 -251.075167 
L 291.414227 -255.728971 
L 285.95175 -259.522684 
L 280.184216 -262.897978 
L 277.12342 -265.610197 
L 273.069597 -267.830954 
L 266.909042 -269.828046 
L 260.973419 -271.452335 
L 260.627088 -272.894509 
L 255.813893 -274.156357 
L 253.636759 -275.391668 
L 250.29503 -276.450814 
L 262.167758 -277.104997 
L 266.405081 -277.88673 
L 270.727875 -278.851219 
z
" id="m0459295424" style="stroke:#e377c2;stroke-opacity:0.3;"/>
    </defs>
    <g clip-path="url(#p74a91fc252)">
     <use style="fill:#e377c2;fill-opacity:0.3;stroke:#e377c2;stroke-opacity:0.3;" x="0" xlink:href="#m0459295424" y="345.6"/>
    </g>
   </g>
   <g id="PolyCollection_8">
    <defs>
     <path d="M 252.674117 -277.719721 
L 204.651008 -277.719721 
L 206.216399 -275.406847 
L 206.613258 -275.039424 
L 209.933662 -273.853863 
L 213.425443 -272.233966 
L 221.425541 -269.947468 
L 231.481648 -267.168139 
L 242.539701 -261.537872 
L 249.272492 -253.241576 
L 262.841215 -246.169833 
L 278.686492 -231.800487 
L 294.138002 -214.68925 
L 308.875179 -186.030843 
L 324.733342 -131.14758 
L 332.778074 -81.453429 
L 334.336824 -81.453429 
L 332.563686 -81.453429 
L 333.83599 -81.453429 
L 334.087118 -81.453429 
L 335.460024 -81.453429 
L 338.125227 -81.453429 
L 338.125227 -81.453429 
L 337.860857 -81.453429 
L 335.624138 -81.453429 
L 336.587067 -81.453429 
L 341.316632 -81.453429 
L 341.660106 -81.453429 
L 332.519325 -131.14758 
L 318.955419 -186.030843 
L 301.44925 -214.68925 
L 293.116646 -231.800487 
L 274.446479 -246.169833 
L 265.108981 -253.241576 
L 264.757225 -261.537872 
L 262.987172 -267.168139 
L 259.933236 -269.947468 
L 249.210078 -272.233966 
L 242.503869 -273.853863 
L 241.218879 -275.039424 
L 240.008791 -275.406847 
L 252.674117 -277.719721 
z
" id="mc315a0ebb1" style="stroke:#7f7f7f;stroke-opacity:0.3;"/>
    </defs>
    <g clip-path="url(#p74a91fc252)">
     <use style="fill:#7f7f7f;fill-opacity:0.3;stroke:#7f7f7f;stroke-opacity:0.3;" x="0" xlink:href="#mc315a0ebb1" y="345.6"/>
    </g>
   </g>
   <g id="PolyCollection_9">
    <defs>
     <path d="M 166.08358 -289.958072 
L 156.409443 -289.958072 
L 181.121936 -282.899036 
L 179.160457 -280.126819 
L 182.460355 -278.861856 
L 183.977459 -278.083423 
L 182.117017 -277.838851 
L 182.644596 -278.10257 
L 186.880756 -278.040845 
L 186.893699 -278.107951 
L 185.837808 -277.940199 
L 190.515243 -277.883096 
L 195.043412 -278.279054 
L 198.358162 -278.114602 
L 202.514403 -278.076833 
L 212.433094 -277.804564 
L 216.302337 -278.127474 
L 223.365398 -278.251129 
L 234.893899 -277.891986 
L 249.607001 -278.104566 
L 261.582414 -277.960219 
L 274.556499 -277.847692 
L 287.067482 -278.404445 
L 298.705506 -278.316225 
L 313.477156 -278.009817 
L 323.635405 -278.12539 
L 336.024591 -277.80019 
L 350.912826 -277.912852 
L 362.208008 -277.847687 
L 380.579813 -278.135034 
L 397.194451 -277.923591 
L 416.208295 -278.053044 
L 430.309722 -277.836959 
L 430.309722 -277.836959 
L 430.309722 -277.836959 
L 425.172041 -278.053044 
L 403.155011 -277.923591 
L 384.048932 -278.135034 
L 368.766858 -277.847687 
L 352.926056 -277.912852 
L 338.76999 -277.80019 
L 325.147996 -278.12539 
L 314.476492 -278.009817 
L 300.745124 -278.316225 
L 290.504013 -278.404445 
L 275.935809 -277.847692 
L 264.958114 -277.960219 
L 250.682767 -278.104566 
L 239.454435 -277.891986 
L 229.931335 -278.251129 
L 219.968722 -278.127474 
L 214.49222 -277.804564 
L 205.859863 -278.076833 
L 201.368399 -278.114602 
L 199.226603 -278.279054 
L 195.475405 -277.883096 
L 190.025495 -277.940199 
L 191.005473 -278.107951 
L 193.558167 -278.040845 
L 190.03516 -278.10257 
L 184.318408 -277.838851 
L 189.597787 -278.083423 
L 188.199678 -278.861856 
L 183.734813 -280.126819 
L 185.653452 -282.899036 
L 166.08358 -289.958072 
z
" id="m7546b1d714" style="stroke:#bcbd22;stroke-opacity:0.3;"/>
    </defs>
    <g clip-path="url(#p74a91fc252)">
     <use style="fill:#bcbd22;fill-opacity:0.3;stroke:#bcbd22;stroke-opacity:0.3;" x="0" xlink:href="#m7546b1d714" y="345.6"/>
    </g>
   </g>
   <g id="PolyCollection_10">
    <defs>
     <path d="M 220.642125 -278.851219 
L 218.587922 -278.851219 
L 218.898094 -277.88673 
L 218.985685 -277.104997 
L 219.68247 -276.450814 
L 220.054745 -275.391668 
L 220.639413 -274.156357 
L 220.044899 -272.894509 
L 222.168967 -271.452335 
L 225.113113 -269.828046 
L 228.011995 -267.830954 
L 231.896171 -265.610197 
L 237.01275 -262.897978 
L 244.289078 -259.522684 
L 252.592228 -255.728971 
L 262.57331 -251.075167 
L 274.772296 -244.749785 
L 287.95621 -235.07155 
L 302.419501 -224.50646 
L 319.5345 -211.749724 
L 330.25193 -194.857834 
L 348.086428 -172.485428 
L 357.22183 -143.165885 
L 386.953043 -102.079276 
L 399.015316 -61.282329 
L 415.28886 -60.385091 
L 432.459717 -60.385091 
L 432.459717 -60.385091 
L 432.459717 -60.385091 
L 421.049847 -60.385091 
L 402.328208 -61.282329 
L 390.114316 -102.079276 
L 362.578293 -143.165885 
L 352.720474 -172.485428 
L 333.861928 -194.857834 
L 321.336471 -211.749724 
L 303.683139 -224.50646 
L 288.91304 -235.07155 
L 275.841212 -244.749785 
L 264.697559 -251.075167 
L 253.756249 -255.728971 
L 245.194307 -259.522684 
L 239.258289 -262.897978 
L 235.60813 -265.610197 
L 229.082246 -267.830954 
L 228.294455 -269.828046 
L 227.541316 -271.452335 
L 222.52806 -272.894509 
L 223.952922 -274.156357 
L 222.04273 -275.391668 
L 222.10847 -276.450814 
L 219.638195 -277.104997 
L 220.804367 -277.88673 
L 220.642125 -278.851219 
z
" id="md082fb97b4" style="stroke:#17becf;stroke-opacity:0.3;"/>
    </defs>
    <g clip-path="url(#p74a91fc252)">
     <use style="fill:#17becf;fill-opacity:0.3;stroke:#17becf;stroke-opacity:0.3;" x="0" xlink:href="#md082fb97b4" y="345.6"/>
    </g>
   </g>
   <g id="PolyCollection_11">
    <defs>
     <path d="M 239.532003 -278.851219 
L 230.409009 -278.851219 
L 241.533104 -277.88673 
L 245.387818 -276.892209 
L 245.982938 -275.928939 
L 246.090143 -274.155749 
L 247.102161 -271.869839 
L 248.264234 -269.322827 
L 249.839514 -265.809146 
L 250.067728 -260.540174 
L 253.732737 -253.331582 
L 255.940447 -239.871526 
L 254.892099 -230.195177 
L 261.783894 -221.144559 
L 265.736362 -211.832414 
L 277.197603 -199.363179 
L 290.484073 -190.564706 
L 302.121571 -177.53042 
L 316.026446 -160.030529 
L 329.901498 -148.87939 
L 345.94207 -128.016835 
L 364.471443 -105.550704 
L 377.903026 -78.185936 
L 391.239924 -65.506141 
L 408.083238 -60.385091 
L 422.172047 -60.385091 
L 424.863052 -60.385091 
L 424.863052 -60.385091 
L 413.165663 -60.385091 
L 395.494151 -65.506141 
L 379.727921 -78.185936 
L 365.488335 -105.550704 
L 351.049796 -128.016835 
L 332.207464 -148.87939 
L 320.81434 -160.030529 
L 303.324916 -177.53042 
L 293.238653 -190.564706 
L 278.734943 -199.363179 
L 268.236111 -211.832414 
L 266.074054 -221.144559 
L 262.701 -230.195177 
L 264.838078 -239.871526 
L 254.746553 -253.331582 
L 252.561662 -260.540174 
L 251.867548 -265.809146 
L 250.864056 -269.322827 
L 248.64763 -271.869839 
L 248.390967 -274.155749 
L 247.013131 -275.928939 
L 247.93981 -276.892209 
L 248.795962 -277.88673 
L 239.532003 -278.851219 
z
" id="m33d63a1b5e" style="stroke:#1f77b4;stroke-opacity:0.3;"/>
    </defs>
    <g clip-path="url(#p74a91fc252)">
     <use style="fill:#1f77b4;fill-opacity:0.3;stroke:#1f77b4;stroke-opacity:0.3;" x="0" xlink:href="#m33d63a1b5e" y="345.6"/>
    </g>
   </g>
   <g id="PolyCollection_12">
    <defs>
     <path d="M 264.040684 -278.851219 
L 251.595294 -278.851219 
L 265.708073 -277.88673 
L 274.542732 -277.104997 
L 279.687849 -276.450814 
L 294.369813 -275.391668 
L 307.843674 -274.156357 
L 320.935899 -272.894509 
L 335.035928 -271.452335 
L 349.601454 -269.828046 
L 366.562833 -267.830954 
L 382.554462 -265.610197 
L 398.069544 -262.897978 
L 413.910829 -259.522684 
L 432.531524 -255.728971 
L 432.772021 -255.728971 
L 432.772021 -255.728971 
L 415.330767 -259.522684 
L 400.222889 -262.897978 
L 385.443375 -265.610197 
L 369.304325 -267.830954 
L 351.262743 -269.828046 
L 339.726631 -271.452335 
L 323.488709 -272.894509 
L 311.521003 -274.156357 
L 295.608275 -275.391668 
L 296.545328 -276.450814 
L 280.610074 -277.104997 
L 271.604673 -277.88673 
L 264.040684 -278.851219 
z
" id="mae49fd4cca" style="stroke:#ff7f0e;stroke-opacity:0.3;"/>
    </defs>
    <g clip-path="url(#p74a91fc252)">
     <use style="fill:#ff7f0e;fill-opacity:0.3;stroke:#ff7f0e;stroke-opacity:0.3;" x="0" xlink:href="#mae49fd4cca" y="345.6"/>
    </g>
   </g>
   <g id="PolyCollection_13">
    <defs>
     <path d="M 168.220372 -273.973829 
L 160.097222 -273.973829 
L 162.624945 -263.118954 
L 165.008267 -252.462685 
L 168.92822 -244.357714 
L 167.674854 -233.530135 
L 179.023375 -221.153098 
L 184.472109 -204.435837 
L 189.778363 -179.887607 
L 200.437017 -145.891203 
L 213.109792 -92.896757 
L 223.944035 -62.073749 
L 239.611792 -60.385091 
L 254.068099 -60.385091 
L 276.804493 -60.385091 
L 301.688472 -60.385091 
L 334.037945 -60.385091 
L 340.326988 -60.385091 
L 340.326988 -60.385091 
L 306.698678 -60.385091 
L 277.621045 -60.385091 
L 256.540258 -60.385091 
L 243.87902 -60.385091 
L 225.398022 -62.073749 
L 215.710805 -92.896757 
L 202.823691 -145.891203 
L 195.813528 -179.887607 
L 189.002704 -204.435837 
L 190.227219 -221.153098 
L 176.510411 -233.530135 
L 176.890171 -244.357714 
L 176.996512 -252.462685 
L 168.445554 -263.118954 
L 168.220372 -273.973829 
z
" id="mde645ddcb9" style="stroke:#2ca02c;stroke-opacity:0.3;"/>
    </defs>
    <g clip-path="url(#p74a91fc252)">
     <use style="fill:#2ca02c;fill-opacity:0.3;stroke:#2ca02c;stroke-opacity:0.3;" x="0" xlink:href="#mde645ddcb9" y="345.6"/>
    </g>
   </g>
   <g id="PolyCollection_14">
    <defs>
     <path d="M 395.539818 -273.973829 
L 392.520499 -273.973829 
L 422.033356 -263.118954 
L 423.523832 -252.37841 
L 420.591661 -246.4322 
L 425.357305 -246.4322 
L 425.357305 -246.4322 
L 429.748185 -252.37841 
L 425.725428 -263.118954 
L 395.539818 -273.973829 
z
" id="m245f39518f" style="stroke:#d62728;stroke-opacity:0.3;"/>
    </defs>
    <g clip-path="url(#p74a91fc252)">
     <use style="fill:#d62728;fill-opacity:0.3;stroke:#d62728;stroke-opacity:0.3;" x="0" xlink:href="#m245f39518f" y="345.6"/>
    </g>
   </g>
   <g id="matplotlib.axis_1">
    <g id="xtick_1">
     <g id="line2d_1">
      <defs>
       <path d="M 0 0 
L 0 3.5 
" id="m03e655311f" style="stroke:#000000;stroke-width:0.8;"/>
      </defs>
      <g>
       <use style="stroke:#000000;stroke-width:0.8;" x="149.479201" xlink:href="#m03e655311f" y="296.728"/>
      </g>
     </g>
     <g id="text_1">
      <!-- $\mathdefault{10^{-2}}$ -->
      <g transform="translate(137.729201 311.326437)scale(0.1 -0.1)">
       <defs>
        <path d="M 12.40625 8.296875 
L 28.515625 8.296875 
L 28.515625 63.921875 
L 10.984375 60.40625 
L 10.984375 69.390625 
L 28.421875 72.90625 
L 38.28125 72.90625 
L 38.28125 8.296875 
L 54.390625 8.296875 
L 54.390625 0 
L 12.40625 0 
z
" id="DejaVuSans-49"/>
        <path d="M 31.78125 66.40625 
Q 24.171875 66.40625 20.328125 58.90625 
Q 16.5 51.421875 16.5 36.375 
Q 16.5 21.390625 20.328125 13.890625 
Q 24.171875 6.390625 31.78125 6.390625 
Q 39.453125 6.390625 43.28125 13.890625 
Q 47.125 21.390625 47.125 36.375 
Q 47.125 51.421875 43.28125 58.90625 
Q 39.453125 66.40625 31.78125 66.40625 
z
M 31.78125 74.21875 
Q 44.046875 74.21875 50.515625 64.515625 
Q 56.984375 54.828125 56.984375 36.375 
Q 56.984375 17.96875 50.515625 8.265625 
Q 44.046875 -1.421875 31.78125 -1.421875 
Q 19.53125 -1.421875 13.0625 8.265625 
Q 6.59375 17.96875 6.59375 36.375 
Q 6.59375 54.828125 13.0625 64.515625 
Q 19.53125 74.21875 31.78125 74.21875 
z
" id="DejaVuSans-48"/>
        <path d="M 10.59375 35.5 
L 73.1875 35.5 
L 73.1875 27.203125 
L 10.59375 27.203125 
z
" id="DejaVuSans-8722"/>
        <path d="M 19.1875 8.296875 
L 53.609375 8.296875 
L 53.609375 0 
L 7.328125 0 
L 7.328125 8.296875 
Q 12.9375 14.109375 22.625 23.890625 
Q 32.328125 33.6875 34.8125 36.53125 
Q 39.546875 41.84375 41.421875 45.53125 
Q 43.3125 49.21875 43.3125 52.78125 
Q 43.3125 58.59375 39.234375 62.25 
Q 35.15625 65.921875 28.609375 65.921875 
Q 23.96875 65.921875 18.8125 64.3125 
Q 13.671875 62.703125 7.8125 59.421875 
L 7.8125 69.390625 
Q 13.765625 71.78125 18.9375 73 
Q 24.125 74.21875 28.421875 74.21875 
Q 39.75 74.21875 46.484375 68.546875 
Q 53.21875 62.890625 53.21875 53.421875 
Q 53.21875 48.921875 51.53125 44.890625 
Q 49.859375 40.875 45.40625 35.40625 
Q 44.1875 33.984375 37.640625 27.21875 
Q 31.109375 20.453125 19.1875 8.296875 
z
" id="DejaVuSans-50"/>
       </defs>
       <use transform="translate(0 0.765625)" xlink:href="#DejaVuSans-49"/>
       <use transform="translate(63.623047 0.765625)" xlink:href="#DejaVuSans-48"/>
       <use transform="translate(128.203125 39.046875)scale(0.7)" xlink:href="#DejaVuSans-8722"/>
       <use transform="translate(186.855469 39.046875)scale(0.7)" xlink:href="#DejaVuSans-50"/>
      </g>
     </g>
    </g>
    <g id="xtick_2">
     <g id="line2d_2">
      <g>
       <use style="stroke:#000000;stroke-width:0.8;" x="246.519194" xlink:href="#m03e655311f" y="296.728"/>
      </g>
     </g>
     <g id="text_2">
      <!-- $\mathdefault{10^{-1}}$ -->
      <g transform="translate(234.769194 311.326437)scale(0.1 -0.1)">
       <use transform="translate(0 0.684375)" xlink:href="#DejaVuSans-49"/>
       <use transform="translate(63.623047 0.684375)" xlink:href="#DejaVuSans-48"/>
       <use transform="translate(128.203125 38.965625)scale(0.7)" xlink:href="#DejaVuSans-8722"/>
       <use transform="translate(186.855469 38.965625)scale(0.7)" xlink:href="#DejaVuSans-49"/>
      </g>
     </g>
    </g>
    <g id="xtick_3">
     <g id="line2d_3">
      <g>
       <use style="stroke:#000000;stroke-width:0.8;" x="343.559186" xlink:href="#m03e655311f" y="296.728"/>
      </g>
     </g>
     <g id="text_3">
      <!-- $\mathdefault{10^{0}}$ -->
      <g transform="translate(334.759186 311.326437)scale(0.1 -0.1)">
       <use transform="translate(0 0.765625)" xlink:href="#DejaVuSans-49"/>
       <use transform="translate(63.623047 0.765625)" xlink:href="#DejaVuSans-48"/>
       <use transform="translate(128.203125 39.046875)scale(0.7)" xlink:href="#DejaVuSans-48"/>
      </g>
     </g>
    </g>
    <g id="xtick_4">
     <g id="line2d_4">
      <g>
       <use style="stroke:#000000;stroke-width:0.8;" x="440.599178" xlink:href="#m03e655311f" y="296.728"/>
      </g>
     </g>
     <g id="text_4">
      <!-- $\mathdefault{10^{1}}$ -->
      <g transform="translate(431.799178 311.326437)scale(0.1 -0.1)">
       <use transform="translate(0 0.684375)" xlink:href="#DejaVuSans-49"/>
       <use transform="translate(63.623047 0.684375)" xlink:href="#DejaVuSans-48"/>
       <use transform="translate(128.203125 38.965625)scale(0.7)" xlink:href="#DejaVuSans-49"/>
      </g>
     </g>
    </g>
    <g id="xtick_5">
     <g id="line2d_5">
      <defs>
       <path d="M 0 0 
L 0 2 
" id="m2f963d0b32" style="stroke:#000000;stroke-width:0.6;"/>
      </defs>
      <g>
       <use style="stroke:#000000;stroke-width:0.6;" x="81.651157" xlink:href="#m2f963d0b32" y="296.728"/>
      </g>
     </g>
    </g>
    <g id="xtick_6">
     <g id="line2d_6">
      <g>
       <use style="stroke:#000000;stroke-width:0.6;" x="98.739052" xlink:href="#m2f963d0b32" y="296.728"/>
      </g>
     </g>
    </g>
    <g id="xtick_7">
     <g id="line2d_7">
      <g>
       <use style="stroke:#000000;stroke-width:0.6;" x="110.863106" xlink:href="#m2f963d0b32" y="296.728"/>
      </g>
     </g>
    </g>
    <g id="xtick_8">
     <g id="line2d_8">
      <g>
       <use style="stroke:#000000;stroke-width:0.6;" x="120.267253" xlink:href="#m2f963d0b32" y="296.728"/>
      </g>
     </g>
    </g>
    <g id="xtick_9">
     <g id="line2d_9">
      <g>
       <use style="stroke:#000000;stroke-width:0.6;" x="127.951" xlink:href="#m2f963d0b32" y="296.728"/>
      </g>
     </g>
    </g>
    <g id="xtick_10">
     <g id="line2d_10">
      <g>
       <use style="stroke:#000000;stroke-width:0.6;" x="134.447516" xlink:href="#m2f963d0b32" y="296.728"/>
      </g>
     </g>
    </g>
    <g id="xtick_11">
     <g id="line2d_11">
      <g>
       <use style="stroke:#000000;stroke-width:0.6;" x="140.075054" xlink:href="#m2f963d0b32" y="296.728"/>
      </g>
     </g>
    </g>
    <g id="xtick_12">
     <g id="line2d_12">
      <g>
       <use style="stroke:#000000;stroke-width:0.6;" x="145.038895" xlink:href="#m2f963d0b32" y="296.728"/>
      </g>
     </g>
    </g>
    <g id="xtick_13">
     <g id="line2d_13">
      <g>
       <use style="stroke:#000000;stroke-width:0.6;" x="178.69115" xlink:href="#m2f963d0b32" y="296.728"/>
      </g>
     </g>
    </g>
    <g id="xtick_14">
     <g id="line2d_14">
      <g>
       <use style="stroke:#000000;stroke-width:0.6;" x="195.779044" xlink:href="#m2f963d0b32" y="296.728"/>
      </g>
     </g>
    </g>
    <g id="xtick_15">
     <g id="line2d_15">
      <g>
       <use style="stroke:#000000;stroke-width:0.6;" x="207.903098" xlink:href="#m2f963d0b32" y="296.728"/>
      </g>
     </g>
    </g>
    <g id="xtick_16">
     <g id="line2d_16">
      <g>
       <use style="stroke:#000000;stroke-width:0.6;" x="217.307245" xlink:href="#m2f963d0b32" y="296.728"/>
      </g>
     </g>
    </g>
    <g id="xtick_17">
     <g id="line2d_17">
      <g>
       <use style="stroke:#000000;stroke-width:0.6;" x="224.990993" xlink:href="#m2f963d0b32" y="296.728"/>
      </g>
     </g>
    </g>
    <g id="xtick_18">
     <g id="line2d_18">
      <g>
       <use style="stroke:#000000;stroke-width:0.6;" x="231.487509" xlink:href="#m2f963d0b32" y="296.728"/>
      </g>
     </g>
    </g>
    <g id="xtick_19">
     <g id="line2d_19">
      <g>
       <use style="stroke:#000000;stroke-width:0.6;" x="237.115047" xlink:href="#m2f963d0b32" y="296.728"/>
      </g>
     </g>
    </g>
    <g id="xtick_20">
     <g id="line2d_20">
      <g>
       <use style="stroke:#000000;stroke-width:0.6;" x="242.078887" xlink:href="#m2f963d0b32" y="296.728"/>
      </g>
     </g>
    </g>
    <g id="xtick_21">
     <g id="line2d_21">
      <g>
       <use style="stroke:#000000;stroke-width:0.6;" x="275.731142" xlink:href="#m2f963d0b32" y="296.728"/>
      </g>
     </g>
    </g>
    <g id="xtick_22">
     <g id="line2d_22">
      <g>
       <use style="stroke:#000000;stroke-width:0.6;" x="292.819037" xlink:href="#m2f963d0b32" y="296.728"/>
      </g>
     </g>
    </g>
    <g id="xtick_23">
     <g id="line2d_23">
      <g>
       <use style="stroke:#000000;stroke-width:0.6;" x="304.943091" xlink:href="#m2f963d0b32" y="296.728"/>
      </g>
     </g>
    </g>
    <g id="xtick_24">
     <g id="line2d_24">
      <g>
       <use style="stroke:#000000;stroke-width:0.6;" x="314.347238" xlink:href="#m2f963d0b32" y="296.728"/>
      </g>
     </g>
    </g>
    <g id="xtick_25">
     <g id="line2d_25">
      <g>
       <use style="stroke:#000000;stroke-width:0.6;" x="322.030985" xlink:href="#m2f963d0b32" y="296.728"/>
      </g>
     </g>
    </g>
    <g id="xtick_26">
     <g id="line2d_26">
      <g>
       <use style="stroke:#000000;stroke-width:0.6;" x="328.527501" xlink:href="#m2f963d0b32" y="296.728"/>
      </g>
     </g>
    </g>
    <g id="xtick_27">
     <g id="line2d_27">
      <g>
       <use style="stroke:#000000;stroke-width:0.6;" x="334.155039" xlink:href="#m2f963d0b32" y="296.728"/>
      </g>
     </g>
    </g>
    <g id="xtick_28">
     <g id="line2d_28">
      <g>
       <use style="stroke:#000000;stroke-width:0.6;" x="339.118879" xlink:href="#m2f963d0b32" y="296.728"/>
      </g>
     </g>
    </g>
    <g id="xtick_29">
     <g id="line2d_29">
      <g>
       <use style="stroke:#000000;stroke-width:0.6;" x="372.771135" xlink:href="#m2f963d0b32" y="296.728"/>
      </g>
     </g>
    </g>
    <g id="xtick_30">
     <g id="line2d_30">
      <g>
       <use style="stroke:#000000;stroke-width:0.6;" x="389.859029" xlink:href="#m2f963d0b32" y="296.728"/>
      </g>
     </g>
    </g>
    <g id="xtick_31">
     <g id="line2d_31">
      <g>
       <use style="stroke:#000000;stroke-width:0.6;" x="401.983083" xlink:href="#m2f963d0b32" y="296.728"/>
      </g>
     </g>
    </g>
    <g id="xtick_32">
     <g id="line2d_32">
      <g>
       <use style="stroke:#000000;stroke-width:0.6;" x="411.38723" xlink:href="#m2f963d0b32" y="296.728"/>
      </g>
     </g>
    </g>
    <g id="xtick_33">
     <g id="line2d_33">
      <g>
       <use style="stroke:#000000;stroke-width:0.6;" x="419.070977" xlink:href="#m2f963d0b32" y="296.728"/>
      </g>
     </g>
    </g>
    <g id="xtick_34">
     <g id="line2d_34">
      <g>
       <use style="stroke:#000000;stroke-width:0.6;" x="425.567493" xlink:href="#m2f963d0b32" y="296.728"/>
      </g>
     </g>
    </g>
    <g id="xtick_35">
     <g id="line2d_35">
      <g>
       <use style="stroke:#000000;stroke-width:0.6;" x="431.195032" xlink:href="#m2f963d0b32" y="296.728"/>
      </g>
     </g>
    </g>
    <g id="xtick_36">
     <g id="line2d_36">
      <g>
       <use style="stroke:#000000;stroke-width:0.6;" x="436.158872" xlink:href="#m2f963d0b32" y="296.728"/>
      </g>
     </g>
    </g>
    <g id="text_5">
     <!-- Time [sec] -->
     <g transform="translate(226.683645 328.043937)scale(0.14 -0.14)">
      <defs>
       <path d="M -0.296875 72.90625 
L 61.375 72.90625 
L 61.375 64.59375 
L 35.5 64.59375 
L 35.5 0 
L 25.59375 0 
L 25.59375 64.59375 
L -0.296875 64.59375 
z
" id="DejaVuSans-84"/>
       <path d="M 9.421875 54.6875 
L 18.40625 54.6875 
L 18.40625 0 
L 9.421875 0 
z
M 9.421875 75.984375 
L 18.40625 75.984375 
L 18.40625 64.59375 
L 9.421875 64.59375 
z
" id="DejaVuSans-105"/>
       <path d="M 52 44.1875 
Q 55.375 50.25 60.0625 53.125 
Q 64.75 56 71.09375 56 
Q 79.640625 56 84.28125 50.015625 
Q 88.921875 44.046875 88.921875 33.015625 
L 88.921875 0 
L 79.890625 0 
L 79.890625 32.71875 
Q 79.890625 40.578125 77.09375 44.375 
Q 74.3125 48.1875 68.609375 48.1875 
Q 61.625 48.1875 57.5625 43.546875 
Q 53.515625 38.921875 53.515625 30.90625 
L 53.515625 0 
L 44.484375 0 
L 44.484375 32.71875 
Q 44.484375 40.625 41.703125 44.40625 
Q 38.921875 48.1875 33.109375 48.1875 
Q 26.21875 48.1875 22.15625 43.53125 
Q 18.109375 38.875 18.109375 30.90625 
L 18.109375 0 
L 9.078125 0 
L 9.078125 54.6875 
L 18.109375 54.6875 
L 18.109375 46.1875 
Q 21.1875 51.21875 25.484375 53.609375 
Q 29.78125 56 35.6875 56 
Q 41.65625 56 45.828125 52.96875 
Q 50 49.953125 52 44.1875 
z
" id="DejaVuSans-109"/>
       <path d="M 56.203125 29.59375 
L 56.203125 25.203125 
L 14.890625 25.203125 
Q 15.484375 15.921875 20.484375 11.0625 
Q 25.484375 6.203125 34.421875 6.203125 
Q 39.59375 6.203125 44.453125 7.46875 
Q 49.3125 8.734375 54.109375 11.28125 
L 54.109375 2.78125 
Q 49.265625 0.734375 44.1875 -0.34375 
Q 39.109375 -1.421875 33.890625 -1.421875 
Q 20.796875 -1.421875 13.15625 6.1875 
Q 5.515625 13.8125 5.515625 26.8125 
Q 5.515625 40.234375 12.765625 48.109375 
Q 20.015625 56 32.328125 56 
Q 43.359375 56 49.78125 48.890625 
Q 56.203125 41.796875 56.203125 29.59375 
z
M 47.21875 32.234375 
Q 47.125 39.59375 43.09375 43.984375 
Q 39.0625 48.390625 32.421875 48.390625 
Q 24.90625 48.390625 20.390625 44.140625 
Q 15.875 39.890625 15.1875 32.171875 
z
" id="DejaVuSans-101"/>
       <path id="DejaVuSans-32"/>
       <path d="M 8.59375 75.984375 
L 29.296875 75.984375 
L 29.296875 69 
L 17.578125 69 
L 17.578125 -6.203125 
L 29.296875 -6.203125 
L 29.296875 -13.1875 
L 8.59375 -13.1875 
z
" id="DejaVuSans-91"/>
       <path d="M 44.28125 53.078125 
L 44.28125 44.578125 
Q 40.484375 46.53125 36.375 47.5 
Q 32.28125 48.484375 27.875 48.484375 
Q 21.1875 48.484375 17.84375 46.4375 
Q 14.5 44.390625 14.5 40.28125 
Q 14.5 37.15625 16.890625 35.375 
Q 19.28125 33.59375 26.515625 31.984375 
L 29.59375 31.296875 
Q 39.15625 29.25 43.1875 25.515625 
Q 47.21875 21.78125 47.21875 15.09375 
Q 47.21875 7.46875 41.1875 3.015625 
Q 35.15625 -1.421875 24.609375 -1.421875 
Q 20.21875 -1.421875 15.453125 -0.5625 
Q 10.6875 0.296875 5.421875 2 
L 5.421875 11.28125 
Q 10.40625 8.6875 15.234375 7.390625 
Q 20.0625 6.109375 24.8125 6.109375 
Q 31.15625 6.109375 34.5625 8.28125 
Q 37.984375 10.453125 37.984375 14.40625 
Q 37.984375 18.0625 35.515625 20.015625 
Q 33.0625 21.96875 24.703125 23.78125 
L 21.578125 24.515625 
Q 13.234375 26.265625 9.515625 29.90625 
Q 5.8125 33.546875 5.8125 39.890625 
Q 5.8125 47.609375 11.28125 51.796875 
Q 16.75 56 26.8125 56 
Q 31.78125 56 36.171875 55.265625 
Q 40.578125 54.546875 44.28125 53.078125 
z
" id="DejaVuSans-115"/>
       <path d="M 48.78125 52.59375 
L 48.78125 44.1875 
Q 44.96875 46.296875 41.140625 47.34375 
Q 37.3125 48.390625 33.40625 48.390625 
Q 24.65625 48.390625 19.8125 42.84375 
Q 14.984375 37.3125 14.984375 27.296875 
Q 14.984375 17.28125 19.8125 11.734375 
Q 24.65625 6.203125 33.40625 6.203125 
Q 37.3125 6.203125 41.140625 7.25 
Q 44.96875 8.296875 48.78125 10.40625 
L 48.78125 2.09375 
Q 45.015625 0.34375 40.984375 -0.53125 
Q 36.96875 -1.421875 32.421875 -1.421875 
Q 20.0625 -1.421875 12.78125 6.34375 
Q 5.515625 14.109375 5.515625 27.296875 
Q 5.515625 40.671875 12.859375 48.328125 
Q 20.21875 56 33.015625 56 
Q 37.15625 56 41.109375 55.140625 
Q 45.0625 54.296875 48.78125 52.59375 
z
" id="DejaVuSans-99"/>
       <path d="M 30.421875 75.984375 
L 30.421875 -13.1875 
L 9.71875 -13.1875 
L 9.71875 -6.203125 
L 21.390625 -6.203125 
L 21.390625 69 
L 9.71875 69 
L 9.71875 75.984375 
z
" id="DejaVuSans-93"/>
      </defs>
      <use xlink:href="#DejaVuSans-84"/>
      <use x="57.958984" xlink:href="#DejaVuSans-105"/>
      <use x="85.742188" xlink:href="#DejaVuSans-109"/>
      <use x="183.154297" xlink:href="#DejaVuSans-101"/>
      <use x="244.677734" xlink:href="#DejaVuSans-32"/>
      <use x="276.464844" xlink:href="#DejaVuSans-91"/>
      <use x="315.478516" xlink:href="#DejaVuSans-115"/>
      <use x="367.578125" xlink:href="#DejaVuSans-101"/>
      <use x="429.101562" xlink:href="#DejaVuSans-99"/>
      <use x="484.082031" xlink:href="#DejaVuSans-93"/>
     </g>
    </g>
   </g>
   <g id="matplotlib.axis_2">
    <g id="ytick_1">
     <g id="line2d_37">
      <defs>
       <path d="M 0 0 
L -3.5 0 
" id="m7b1228cfa2" style="stroke:#000000;stroke-width:0.8;"/>
      </defs>
      <g>
       <use style="stroke:#000000;stroke-width:0.8;" x="76.881214" xlink:href="#m7b1228cfa2" y="272.037703"/>
      </g>
     </g>
     <g id="text_6">
      <!-- $\mathdefault{10^{-14}}$ -->
      <g transform="translate(41.981214 275.836921)scale(0.1 -0.1)">
       <defs>
        <path d="M 37.796875 64.3125 
L 12.890625 25.390625 
L 37.796875 25.390625 
z
M 35.203125 72.90625 
L 47.609375 72.90625 
L 47.609375 25.390625 
L 58.015625 25.390625 
L 58.015625 17.1875 
L 47.609375 17.1875 
L 47.609375 0 
L 37.796875 0 
L 37.796875 17.1875 
L 4.890625 17.1875 
L 4.890625 26.703125 
z
" id="DejaVuSans-52"/>
       </defs>
       <use transform="translate(0 0.684375)" xlink:href="#DejaVuSans-49"/>
       <use transform="translate(63.623047 0.684375)" xlink:href="#DejaVuSans-48"/>
       <use transform="translate(128.203125 38.965625)scale(0.7)" xlink:href="#DejaVuSans-8722"/>
       <use transform="translate(186.855469 38.965625)scale(0.7)" xlink:href="#DejaVuSans-49"/>
       <use transform="translate(231.391602 38.965625)scale(0.7)" xlink:href="#DejaVuSans-52"/>
      </g>
     </g>
    </g>
    <g id="ytick_2">
     <g id="line2d_38">
      <g>
       <use style="stroke:#000000;stroke-width:0.8;" x="76.881214" xlink:href="#m7b1228cfa2" y="241.094165"/>
      </g>
     </g>
     <g id="text_7">
      <!-- $\mathdefault{10^{-12}}$ -->
      <g transform="translate(41.981214 244.893384)scale(0.1 -0.1)">
       <use transform="translate(0 0.765625)" xlink:href="#DejaVuSans-49"/>
       <use transform="translate(63.623047 0.765625)" xlink:href="#DejaVuSans-48"/>
       <use transform="translate(128.203125 39.046875)scale(0.7)" xlink:href="#DejaVuSans-8722"/>
       <use transform="translate(186.855469 39.046875)scale(0.7)" xlink:href="#DejaVuSans-49"/>
       <use transform="translate(231.391602 39.046875)scale(0.7)" xlink:href="#DejaVuSans-50"/>
      </g>
     </g>
    </g>
    <g id="ytick_3">
     <g id="line2d_39">
      <g>
       <use style="stroke:#000000;stroke-width:0.8;" x="76.881214" xlink:href="#m7b1228cfa2" y="210.150628"/>
      </g>
     </g>
     <g id="text_8">
      <!-- $\mathdefault{10^{-10}}$ -->
      <g transform="translate(41.981214 213.949847)scale(0.1 -0.1)">
       <use transform="translate(0 0.765625)" xlink:href="#DejaVuSans-49"/>
       <use transform="translate(63.623047 0.765625)" xlink:href="#DejaVuSans-48"/>
       <use transform="translate(128.203125 39.046875)scale(0.7)" xlink:href="#DejaVuSans-8722"/>
       <use transform="translate(186.855469 39.046875)scale(0.7)" xlink:href="#DejaVuSans-49"/>
       <use transform="translate(231.391602 39.046875)scale(0.7)" xlink:href="#DejaVuSans-48"/>
      </g>
     </g>
    </g>
    <g id="ytick_4">
     <g id="line2d_40">
      <g>
       <use style="stroke:#000000;stroke-width:0.8;" x="76.881214" xlink:href="#m7b1228cfa2" y="179.207091"/>
      </g>
     </g>
     <g id="text_9">
      <!-- $\mathdefault{10^{-8}}$ -->
      <g transform="translate(46.381214 183.00631)scale(0.1 -0.1)">
       <defs>
        <path d="M 31.78125 34.625 
Q 24.75 34.625 20.71875 30.859375 
Q 16.703125 27.09375 16.703125 20.515625 
Q 16.703125 13.921875 20.71875 10.15625 
Q 24.75 6.390625 31.78125 6.390625 
Q 38.8125 6.390625 42.859375 10.171875 
Q 46.921875 13.96875 46.921875 20.515625 
Q 46.921875 27.09375 42.890625 30.859375 
Q 38.875 34.625 31.78125 34.625 
z
M 21.921875 38.8125 
Q 15.578125 40.375 12.03125 44.71875 
Q 8.5 49.078125 8.5 55.328125 
Q 8.5 64.0625 14.71875 69.140625 
Q 20.953125 74.21875 31.78125 74.21875 
Q 42.671875 74.21875 48.875 69.140625 
Q 55.078125 64.0625 55.078125 55.328125 
Q 55.078125 49.078125 51.53125 44.71875 
Q 48 40.375 41.703125 38.8125 
Q 48.828125 37.15625 52.796875 32.3125 
Q 56.78125 27.484375 56.78125 20.515625 
Q 56.78125 9.90625 50.3125 4.234375 
Q 43.84375 -1.421875 31.78125 -1.421875 
Q 19.734375 -1.421875 13.25 4.234375 
Q 6.78125 9.90625 6.78125 20.515625 
Q 6.78125 27.484375 10.78125 32.3125 
Q 14.796875 37.15625 21.921875 38.8125 
z
M 18.3125 54.390625 
Q 18.3125 48.734375 21.84375 45.5625 
Q 25.390625 42.390625 31.78125 42.390625 
Q 38.140625 42.390625 41.71875 45.5625 
Q 45.3125 48.734375 45.3125 54.390625 
Q 45.3125 60.0625 41.71875 63.234375 
Q 38.140625 66.40625 31.78125 66.40625 
Q 25.390625 66.40625 21.84375 63.234375 
Q 18.3125 60.0625 18.3125 54.390625 
z
" id="DejaVuSans-56"/>
       </defs>
       <use transform="translate(0 0.765625)" xlink:href="#DejaVuSans-49"/>
       <use transform="translate(63.623047 0.765625)" xlink:href="#DejaVuSans-48"/>
       <use transform="translate(128.203125 39.046875)scale(0.7)" xlink:href="#DejaVuSans-8722"/>
       <use transform="translate(186.855469 39.046875)scale(0.7)" xlink:href="#DejaVuSans-56"/>
      </g>
     </g>
    </g>
    <g id="ytick_5">
     <g id="line2d_41">
      <g>
       <use style="stroke:#000000;stroke-width:0.8;" x="76.881214" xlink:href="#m7b1228cfa2" y="148.263554"/>
      </g>
     </g>
     <g id="text_10">
      <!-- $\mathdefault{10^{-6}}$ -->
      <g transform="translate(46.381214 152.062773)scale(0.1 -0.1)">
       <defs>
        <path d="M 33.015625 40.375 
Q 26.375 40.375 22.484375 35.828125 
Q 18.609375 31.296875 18.609375 23.390625 
Q 18.609375 15.53125 22.484375 10.953125 
Q 26.375 6.390625 33.015625 6.390625 
Q 39.65625 6.390625 43.53125 10.953125 
Q 47.40625 15.53125 47.40625 23.390625 
Q 47.40625 31.296875 43.53125 35.828125 
Q 39.65625 40.375 33.015625 40.375 
z
M 52.59375 71.296875 
L 52.59375 62.3125 
Q 48.875 64.0625 45.09375 64.984375 
Q 41.3125 65.921875 37.59375 65.921875 
Q 27.828125 65.921875 22.671875 59.328125 
Q 17.53125 52.734375 16.796875 39.40625 
Q 19.671875 43.65625 24.015625 45.921875 
Q 28.375 48.1875 33.59375 48.1875 
Q 44.578125 48.1875 50.953125 41.515625 
Q 57.328125 34.859375 57.328125 23.390625 
Q 57.328125 12.15625 50.6875 5.359375 
Q 44.046875 -1.421875 33.015625 -1.421875 
Q 20.359375 -1.421875 13.671875 8.265625 
Q 6.984375 17.96875 6.984375 36.375 
Q 6.984375 53.65625 15.1875 63.9375 
Q 23.390625 74.21875 37.203125 74.21875 
Q 40.921875 74.21875 44.703125 73.484375 
Q 48.484375 72.75 52.59375 71.296875 
z
" id="DejaVuSans-54"/>
       </defs>
       <use transform="translate(0 0.765625)" xlink:href="#DejaVuSans-49"/>
       <use transform="translate(63.623047 0.765625)" xlink:href="#DejaVuSans-48"/>
       <use transform="translate(128.203125 39.046875)scale(0.7)" xlink:href="#DejaVuSans-8722"/>
       <use transform="translate(186.855469 39.046875)scale(0.7)" xlink:href="#DejaVuSans-54"/>
      </g>
     </g>
    </g>
    <g id="ytick_6">
     <g id="line2d_42">
      <g>
       <use style="stroke:#000000;stroke-width:0.8;" x="76.881214" xlink:href="#m7b1228cfa2" y="117.320017"/>
      </g>
     </g>
     <g id="text_11">
      <!-- $\mathdefault{10^{-4}}$ -->
      <g transform="translate(46.381214 121.119235)scale(0.1 -0.1)">
       <use transform="translate(0 0.684375)" xlink:href="#DejaVuSans-49"/>
       <use transform="translate(63.623047 0.684375)" xlink:href="#DejaVuSans-48"/>
       <use transform="translate(128.203125 38.965625)scale(0.7)" xlink:href="#DejaVuSans-8722"/>
       <use transform="translate(186.855469 38.965625)scale(0.7)" xlink:href="#DejaVuSans-52"/>
      </g>
     </g>
    </g>
    <g id="ytick_7">
     <g id="line2d_43">
      <g>
       <use style="stroke:#000000;stroke-width:0.8;" x="76.881214" xlink:href="#m7b1228cfa2" y="86.376479"/>
      </g>
     </g>
     <g id="text_12">
      <!-- $\mathdefault{10^{-2}}$ -->
      <g transform="translate(46.381214 90.175698)scale(0.1 -0.1)">
       <use transform="translate(0 0.765625)" xlink:href="#DejaVuSans-49"/>
       <use transform="translate(63.623047 0.765625)" xlink:href="#DejaVuSans-48"/>
       <use transform="translate(128.203125 39.046875)scale(0.7)" xlink:href="#DejaVuSans-8722"/>
       <use transform="translate(186.855469 39.046875)scale(0.7)" xlink:href="#DejaVuSans-50"/>
      </g>
     </g>
    </g>
    <g id="ytick_8">
     <g id="line2d_44">
      <g>
       <use style="stroke:#000000;stroke-width:0.8;" x="76.881214" xlink:href="#m7b1228cfa2" y="55.432942"/>
      </g>
     </g>
     <g id="text_13">
      <!-- $\mathdefault{10^{0}}$ -->
      <g transform="translate(52.281214 59.232161)scale(0.1 -0.1)">
       <use transform="translate(0 0.765625)" xlink:href="#DejaVuSans-49"/>
       <use transform="translate(63.623047 0.765625)" xlink:href="#DejaVuSans-48"/>
       <use transform="translate(128.203125 39.046875)scale(0.7)" xlink:href="#DejaVuSans-48"/>
      </g>
     </g>
    </g>
    <g id="text_14">
     <!-- $\frac{F(x) - F(x*)}{F(x^0) - F(x*)}$ -->
     <g transform="translate(29.581214 202.984)rotate(-90)scale(0.14 -0.14)">
      <defs>
       <path d="M 16.890625 72.90625 
L 58.6875 72.90625 
L 57.078125 64.59375 
L 25.09375 64.59375 
L 20.90625 43.109375 
L 49.8125 43.109375 
L 48.1875 34.8125 
L 19.28125 34.8125 
L 12.5 0 
L 2.6875 0 
z
" id="DejaVuSans-Oblique-70"/>
       <path d="M 31 75.875 
Q 24.46875 64.65625 21.28125 53.65625 
Q 18.109375 42.671875 18.109375 31.390625 
Q 18.109375 20.125 21.3125 9.0625 
Q 24.515625 -2 31 -13.1875 
L 23.1875 -13.1875 
Q 15.875 -1.703125 12.234375 9.375 
Q 8.59375 20.453125 8.59375 31.390625 
Q 8.59375 42.28125 12.203125 53.3125 
Q 15.828125 64.359375 23.1875 75.875 
z
" id="DejaVuSans-40"/>
       <path d="M 60.015625 54.6875 
L 34.90625 27.875 
L 50.296875 0 
L 39.984375 0 
L 28.421875 21.6875 
L 8.296875 0 
L -2.59375 0 
L 24.3125 28.8125 
L 10.015625 54.6875 
L 20.3125 54.6875 
L 30.8125 34.90625 
L 49.125 54.6875 
z
" id="DejaVuSans-Oblique-120"/>
       <path d="M 8.015625 75.875 
L 15.828125 75.875 
Q 23.140625 64.359375 26.78125 53.3125 
Q 30.421875 42.28125 30.421875 31.390625 
Q 30.421875 20.453125 26.78125 9.375 
Q 23.140625 -1.703125 15.828125 -13.1875 
L 8.015625 -13.1875 
Q 14.5 -2 17.703125 9.0625 
Q 20.90625 20.125 20.90625 31.390625 
Q 20.90625 42.671875 17.703125 53.65625 
Q 14.5 64.65625 8.015625 75.875 
z
" id="DejaVuSans-41"/>
       <path d="M 47.015625 60.890625 
L 29.5 51.421875 
L 47.015625 41.890625 
L 44.1875 37.109375 
L 27.78125 47.015625 
L 27.78125 28.609375 
L 22.21875 28.609375 
L 22.21875 47.015625 
L 5.8125 37.109375 
L 2.984375 41.890625 
L 20.515625 51.421875 
L 2.984375 60.890625 
L 5.8125 65.71875 
L 22.21875 55.8125 
L 22.21875 74.21875 
L 27.78125 74.21875 
L 27.78125 55.8125 
L 44.1875 65.71875 
z
" id="DejaVuSans-42"/>
      </defs>
      <use transform="translate(18 53.8875)scale(0.7)" xlink:href="#DejaVuSans-Oblique-70"/>
      <use transform="translate(58.263672 53.8875)scale(0.7)" xlink:href="#DejaVuSans-40"/>
      <use transform="translate(85.573242 53.8875)scale(0.7)" xlink:href="#DejaVuSans-Oblique-120"/>
      <use transform="translate(126.999023 53.8875)scale(0.7)" xlink:href="#DejaVuSans-41"/>
      <use transform="translate(167.946289 53.8875)scale(0.7)" xlink:href="#DejaVuSans-8722"/>
      <use transform="translate(240.236328 53.8875)scale(0.7)" xlink:href="#DejaVuSans-Oblique-70"/>
      <use transform="translate(280.5 53.8875)scale(0.7)" xlink:href="#DejaVuSans-40"/>
      <use transform="translate(307.80957 53.8875)scale(0.7)" xlink:href="#DejaVuSans-Oblique-120"/>
      <use transform="translate(362.873047 53.8875)scale(0.7)" xlink:href="#DejaVuSans-42"/>
      <use transform="translate(411.510742 53.8875)scale(0.7)" xlink:href="#DejaVuSans-41"/>
      <use transform="translate(0 -49.757812)scale(0.7)" xlink:href="#DejaVuSans-Oblique-70"/>
      <use transform="translate(40.263672 -49.757812)scale(0.7)" xlink:href="#DejaVuSans-40"/>
      <use transform="translate(67.573242 -49.757812)scale(0.7)" xlink:href="#DejaVuSans-Oblique-120"/>
      <use transform="translate(112.125326 -22.960938)scale(0.49)" xlink:href="#DejaVuSans-48"/>
      <use transform="translate(145.214681 -49.757812)scale(0.7)" xlink:href="#DejaVuSans-41"/>
      <use transform="translate(186.161947 -49.757812)scale(0.7)" xlink:href="#DejaVuSans-8722"/>
      <use transform="translate(258.451986 -49.757812)scale(0.7)" xlink:href="#DejaVuSans-Oblique-70"/>
      <use transform="translate(298.715658 -49.757812)scale(0.7)" xlink:href="#DejaVuSans-40"/>
      <use transform="translate(326.025228 -49.757812)scale(0.7)" xlink:href="#DejaVuSans-Oblique-120"/>
      <use transform="translate(381.088704 -49.757812)scale(0.7)" xlink:href="#DejaVuSans-42"/>
      <use transform="translate(429.7264 -49.757812)scale(0.7)" xlink:href="#DejaVuSans-41"/>
      <path d="M 0 19.65625 
L 0 25.90625 
L 457.03597 25.90625 
L 457.03597 19.65625 
L 0 19.65625 
z
"/>
     </g>
    </g>
   </g>
   <g id="LineCollection_1">
    <path clip-path="url(#p74a91fc252)" d="M 76.881214 210.150628 
L 449.719202 210.150628 
" style="fill:none;stroke:#000000;stroke-dasharray:5.55,2.4;stroke-dashoffset:0;stroke-width:1.5;"/>
   </g>
   <g id="line2d_45">
    <path clip-path="url(#p74a91fc252)" d="M 151.301474 285.214909 
L 150.529991 285.214909 
L 149.178326 285.214909 
L 150.604131 285.214909 
L 149.86605 285.214909 
L 149.551033 285.214909 
L 150.015682 279.252849 
L 149.149933 276.661466 
L 149.461834 271.363582 
L 148.194183 273.503369 
L 148.042392 268.845902 
L 150.283581 274.400607 
L 148.870533 275.216067 
L 146.609486 274.400607 
L 146.896005 275.899976 
L 148.290191 275.216067 
L 149.187447 275.216067 
L 149.657467 273.337452 
L 146.447338 211.657408 
L 146.304977 210.294559 
L 145.145678 206.350533 
L 144.23802 204.63622 
L 144.028028 203.4816 
L 144.314344 210.489506 
L 145.585213 210.274031 
L 143.772937 208.025495 
L 145.479548 210.630915 
L 143.503279 206.387985 
L 145.965758 210.498589 
L 143.438678 204.213353 
L 144.215364 209.565025 
L 142.981773 149.03595 
L 142.360175 141.047275 
L 140.879096 140.377386 
L 140.847303 140.748226 
L 141.605925 132.266774 
L 137.904513 132.31002 
L 137.77629 132.193624 
L 137.818078 132.318798 
L 139.07108 132.180161 
L 139.12881 132.366773 
L 137.674012 131.969752 
L 138.435205 132.686179 
L 132.835016 82.763384 
L 94.826071 74.199614 
L 94.530212 74.242469 
L 96.435805 74.236029 
L 94.442445 74.825077 
L 95.42803 74.501131 
" style="fill:none;stroke:#1f77b4;stroke-linecap:square;stroke-width:3;"/>
   </g>
   <g id="line2d_46">
    <path clip-path="url(#p74a91fc252)" d="M 134.495918 71.626171 
L 137.224337 82.481046 
L 148.998294 93.137315 
L 152.138952 101.242286 
L 156.846697 112.069865 
L 170.826437 124.446902 
L 178.611654 141.164163 
L 193.04367 165.712393 
L 206.446057 199.708797 
L 221.040426 252.703243 
L 237.765668 285.214909 
L 251.793985 285.214909 
L 275.499285 285.214909 
L 301.108309 285.214909 
L 335.496491 285.214909 
L 365.485382 285.214909 
" style="fill:none;stroke:#ff7f0e;stroke-linecap:square;stroke-width:3;"/>
   </g>
   <g id="line2d_47">
    <path clip-path="url(#p74a91fc252)" d="M 150.980527 73.619139 
L 158.04236 84.077448 
L 164.465639 103.870822 
L 169.710271 166.543728 
L 173.695838 263.624811 
L 178.102064 285.214909 
L 181.433413 285.214909 
L 176.720689 285.214909 
L 178.029434 285.214909 
L 177.846284 285.214909 
L 178.56938 285.214909 
" style="fill:none;stroke:#2ca02c;stroke-linecap:square;stroke-width:3;"/>
   </g>
   <g id="line2d_48">
    <path clip-path="url(#p74a91fc252)" d="M 309.112018 59.07128 
L 326.481711 59.07128 
L 337.272482 59.07128 
L 361.251137 59.07128 
L 396.910493 54.953091 
L 411.529364 133.838129 
L 412.021062 133.838129 
L 413.121472 133.838129 
" style="fill:none;stroke:#d62728;stroke-linecap:square;stroke-width:3;"/>
   </g>
   <g id="line2d_49">
    <path clip-path="url(#p74a91fc252)" d="M 99.184288 65.50327 
L 99.816191 67.255284 
L 121.58483 71.941253 
L 128.351989 72.578656 
L 150.835165 73.537418 
L 141.157159 75.884317 
L 153.525847 76.266389 
L 167.62652 76.266389 
L 196.964817 86.5422 
L 224.816834 102.492114 
L 248.432155 133.724552 
L 268.848103 200.626838 
L 291.245527 265.182356 
L 315.916509 272.419759 
L 340.253523 280.093859 
L 366.595121 284.317671 
L 394.429651 283.526251 
L 419.585325 285.214909 
L 423.39718 285.214909 
" style="fill:none;stroke:#9467bd;stroke-linecap:square;stroke-width:3;"/>
   </g>
   <g id="line2d_50">
    <path clip-path="url(#p74a91fc252)" d="M 213.928426 65.50327 
L 217.277661 65.544228 
L 216.757474 65.544228 
L 216.422684 65.584574 
L 221.680321 65.62431 
L 221.623032 65.701956 
L 227.50877 65.850006 
L 228.488479 65.975376 
L 232.458772 66.357298 
L 240.697653 67.020123 
L 246.125623 68.732383 
L 258.323637 72.315932 
L 270.595431 81.221152 
L 280.179168 261.779242 
L 278.625804 261.779242 
L 278.615889 261.779242 
L 278.677564 261.779242 
L 278.197969 261.779242 
L 279.934947 261.779242 
" style="fill:none;stroke:#8c564b;stroke-linecap:square;stroke-width:3;"/>
   </g>
   <g id="line2d_51">
    <path clip-path="url(#p74a91fc252)" d="M 243.553073 66.748781 
L 246.064073 67.71327 
L 246.23524 68.495003 
L 247.350763 69.149186 
L 249.823949 70.208332 
L 252.647605 71.443643 
L 257.662997 72.705491 
L 259.988097 74.147665 
L 265.198709 75.771954 
L 272.852549 77.769046 
L 276.563616 79.989803 
L 278.96197 82.702022 
L 284.491286 86.077316 
L 290.511008 89.871029 
L 300.169075 94.524833 
L 310.392699 100.850215 
L 322.034853 110.52845 
L 335.882329 121.09354 
L 350.441873 133.850276 
L 362.118635 150.742166 
L 376.801441 173.114572 
L 394.477406 202.434115 
L 407.711241 243.520724 
L 429.422485 283.526251 
" style="fill:none;stroke:#e377c2;stroke-linecap:square;stroke-width:3;"/>
   </g>
   <g id="line2d_52">
    <path clip-path="url(#p74a91fc252)" d="M 206.288638 67.880279 
L 206.384216 70.193153 
L 207.721355 70.560576 
L 210.580189 71.746137 
L 216.99707 73.366034 
L 222.719144 75.652532 
L 236.961322 78.431861 
L 246.240742 84.062128 
L 251.154646 92.358424 
L 264.155275 99.430167 
L 279.464846 113.799513 
L 296.35693 130.91075 
L 313.469023 159.569157 
L 328.483838 214.45242 
L 336.063328 264.146571 
L 336.673293 264.146571 
L 335.439064 264.146571 
L 335.001331 264.146571 
L 335.765122 264.146571 
L 337.350316 264.146571 
" style="fill:none;stroke:#7f7f7f;stroke-linecap:square;stroke-width:3;"/>
   </g>
   <g id="line2d_53">
    <path clip-path="url(#p74a91fc252)" d="M 157.849916 55.641928 
L 181.996366 62.700964 
L 180.872315 65.473181 
L 184.090009 66.738144 
L 185.875023 67.516577 
L 183.869467 67.761149 
L 186.856745 67.49743 
L 188.901456 67.559155 
L 189.241737 67.492049 
L 189.487848 67.659801 
L 191.791421 67.716904 
L 197.571123 67.320946 
L 198.570764 67.485398 
L 204.548397 67.523167 
L 213.553346 67.795436 
L 218.200432 67.472526 
L 227.492778 67.348871 
L 238.48002 67.708014 
L 250.44682 67.495434 
L 262.97201 67.639781 
L 274.884261 67.752308 
L 287.447784 67.195555 
L 299.525836 67.283775 
L 313.839827 67.590183 
L 324.17004 67.47461 
L 338.2959 67.79981 
L 352.151357 67.687148 
L 367.461137 67.752313 
L 383.431941 67.464966 
L 399.67622 67.676409 
L 419.276099 67.546956 
L 430.309722 67.763041 
" style="fill:none;stroke:#bcbd22;stroke-linecap:square;stroke-width:3;"/>
   </g>
   <g id="line2d_54">
    <path clip-path="url(#p74a91fc252)" d="M 219.001227 66.748781 
L 219.704875 67.71327 
L 219.351908 68.495003 
L 221.089425 69.149186 
L 220.528477 70.208332 
L 221.447647 71.443643 
L 220.802622 72.705491 
L 223.769384 74.147665 
L 226.275116 75.771954 
L 228.144898 77.769046 
L 232.928118 79.989803 
L 238.108311 82.702022 
L 244.806626 86.077316 
L 253.261943 89.871029 
L 263.283154 94.524833 
L 274.836509 100.850215 
L 288.42409 110.52845 
L 302.86965 121.09354 
L 320.663255 133.850276 
L 332.041733 150.742166 
L 348.976436 173.114572 
L 358.821217 202.434115 
L 387.855231 243.520724 
L 400.143333 284.317671 
L 418.746127 285.214909 
L 432.459717 285.214909 
" style="fill:none;stroke:#17becf;stroke-linecap:square;stroke-width:3;"/>
   </g>
   <g id="line2d_55">
    <path clip-path="url(#p74a91fc252)" d="M 236.836625 66.748781 
L 247.307458 67.71327 
L 246.56861 68.707791 
L 246.824635 69.671061 
L 247.323233 71.444251 
L 247.762236 73.730161 
L 248.777231 76.277173 
L 250.821308 79.790854 
L 250.648484 85.059826 
L 254.691556 92.268418 
L 257.484121 105.728474 
L 261.251524 115.404823 
L 265.203813 124.455441 
L 267.120833 133.767586 
L 278.364056 146.236821 
L 291.185637 155.035294 
L 302.780107 168.06958 
L 317.376669 185.569471 
L 330.461606 196.72061 
L 346.089496 217.583165 
L 365.175423 240.049296 
L 378.607864 267.414064 
L 393.735166 280.093859 
L 409.643466 285.214909 
L 422.341965 285.214909 
" style="fill:none;stroke:#1f77b4;stroke-linecap:square;stroke-width:3;"/>
   </g>
   <g id="line2d_56">
    <path clip-path="url(#p74a91fc252)" d="M 254.902983 66.748781 
L 265.871437 67.71327 
L 279.265216 68.495003 
L 283.514833 69.149186 
L 294.824134 70.208332 
L 309.550295 71.443643 
L 322.331136 72.705491 
L 336.851125 74.147665 
L 349.820912 75.771954 
L 368.58292 77.769046 
L 384.120105 79.989803 
L 398.430617 82.702022 
L 414.3138 86.077316 
L 432.651944 89.871029 
" style="fill:none;stroke:#ff7f0e;stroke-linecap:square;stroke-width:3;"/>
   </g>
   <g id="line2d_57">
    <path clip-path="url(#p74a91fc252)" d="M 162.898705 71.626171 
L 166.350846 82.481046 
L 168.2455 93.137315 
L 171.0942 101.242286 
L 173.269435 112.069865 
L 180.62849 124.446902 
L 187.304656 141.164163 
L 192.388452 165.712393 
L 201.627957 199.708797 
L 215.073489 252.703243 
L 225.232428 283.526251 
L 240.332232 285.214909 
L 255.337609 285.214909 
L 277.223258 285.214909 
L 302.599606 285.214909 
L 336.885655 285.214909 
" style="fill:none;stroke:#2ca02c;stroke-linecap:square;stroke-width:3;"/>
   </g>
   <g id="line2d_58">
    <path clip-path="url(#p74a91fc252)" d="M 393.144328 71.626171 
L 425.063862 82.481046 
L 425.540353 93.22159 
L 422.371727 99.1678 
" style="fill:none;stroke:#d62728;stroke-linecap:square;stroke-width:3;"/>
   </g>
   <g id="patch_3">
    <path d="M 76.881214 296.728 
L 76.881214 43.44 
" style="fill:none;stroke:#000000;stroke-linecap:square;stroke-linejoin:miter;stroke-width:0.8;"/>
   </g>
   <g id="patch_4">
    <path d="M 449.719202 296.728 
L 449.719202 43.44 
" style="fill:none;stroke:#000000;stroke-linecap:square;stroke-linejoin:miter;stroke-width:0.8;"/>
   </g>
   <g id="patch_5">
    <path d="M 76.881214 296.728 
L 449.719202 296.728 
" style="fill:none;stroke:#000000;stroke-linecap:square;stroke-linejoin:miter;stroke-width:0.8;"/>
   </g>
   <g id="patch_6">
    <path d="M 76.881214 43.44 
L 449.719202 43.44 
" style="fill:none;stroke:#000000;stroke-linecap:square;stroke-linejoin:miter;stroke-width:0.8;"/>
   </g>
   <g id="text_15">
    <!-- Lasso Regression[reg=0.5] -->
    <g transform="translate(169.093333 21.763062)scale(0.14 -0.14)">
     <defs>
      <path d="M 9.8125 72.90625 
L 19.671875 72.90625 
L 19.671875 8.296875 
L 55.171875 8.296875 
L 55.171875 0 
L 9.8125 0 
z
" id="DejaVuSans-76"/>
      <path d="M 34.28125 27.484375 
Q 23.390625 27.484375 19.1875 25 
Q 14.984375 22.515625 14.984375 16.5 
Q 14.984375 11.71875 18.140625 8.90625 
Q 21.296875 6.109375 26.703125 6.109375 
Q 34.1875 6.109375 38.703125 11.40625 
Q 43.21875 16.703125 43.21875 25.484375 
L 43.21875 27.484375 
z
M 52.203125 31.203125 
L 52.203125 0 
L 43.21875 0 
L 43.21875 8.296875 
Q 40.140625 3.328125 35.546875 0.953125 
Q 30.953125 -1.421875 24.3125 -1.421875 
Q 15.921875 -1.421875 10.953125 3.296875 
Q 6 8.015625 6 15.921875 
Q 6 25.140625 12.171875 29.828125 
Q 18.359375 34.515625 30.609375 34.515625 
L 43.21875 34.515625 
L 43.21875 35.40625 
Q 43.21875 41.609375 39.140625 45 
Q 35.0625 48.390625 27.6875 48.390625 
Q 23 48.390625 18.546875 47.265625 
Q 14.109375 46.140625 10.015625 43.890625 
L 10.015625 52.203125 
Q 14.9375 54.109375 19.578125 55.046875 
Q 24.21875 56 28.609375 56 
Q 40.484375 56 46.34375 49.84375 
Q 52.203125 43.703125 52.203125 31.203125 
z
" id="DejaVuSans-97"/>
      <path d="M 30.609375 48.390625 
Q 23.390625 48.390625 19.1875 42.75 
Q 14.984375 37.109375 14.984375 27.296875 
Q 14.984375 17.484375 19.15625 11.84375 
Q 23.34375 6.203125 30.609375 6.203125 
Q 37.796875 6.203125 41.984375 11.859375 
Q 46.1875 17.53125 46.1875 27.296875 
Q 46.1875 37.015625 41.984375 42.703125 
Q 37.796875 48.390625 30.609375 48.390625 
z
M 30.609375 56 
Q 42.328125 56 49.015625 48.375 
Q 55.71875 40.765625 55.71875 27.296875 
Q 55.71875 13.875 49.015625 6.21875 
Q 42.328125 -1.421875 30.609375 -1.421875 
Q 18.84375 -1.421875 12.171875 6.21875 
Q 5.515625 13.875 5.515625 27.296875 
Q 5.515625 40.765625 12.171875 48.375 
Q 18.84375 56 30.609375 56 
z
" id="DejaVuSans-111"/>
      <path d="M 44.390625 34.1875 
Q 47.5625 33.109375 50.5625 29.59375 
Q 53.5625 26.078125 56.59375 19.921875 
L 66.609375 0 
L 56 0 
L 46.6875 18.703125 
Q 43.0625 26.03125 39.671875 28.421875 
Q 36.28125 30.8125 30.421875 30.8125 
L 19.671875 30.8125 
L 19.671875 0 
L 9.8125 0 
L 9.8125 72.90625 
L 32.078125 72.90625 
Q 44.578125 72.90625 50.734375 67.671875 
Q 56.890625 62.453125 56.890625 51.90625 
Q 56.890625 45.015625 53.6875 40.46875 
Q 50.484375 35.9375 44.390625 34.1875 
z
M 19.671875 64.796875 
L 19.671875 38.921875 
L 32.078125 38.921875 
Q 39.203125 38.921875 42.84375 42.21875 
Q 46.484375 45.515625 46.484375 51.90625 
Q 46.484375 58.296875 42.84375 61.546875 
Q 39.203125 64.796875 32.078125 64.796875 
z
" id="DejaVuSans-82"/>
      <path d="M 45.40625 27.984375 
Q 45.40625 37.75 41.375 43.109375 
Q 37.359375 48.484375 30.078125 48.484375 
Q 22.859375 48.484375 18.828125 43.109375 
Q 14.796875 37.75 14.796875 27.984375 
Q 14.796875 18.265625 18.828125 12.890625 
Q 22.859375 7.515625 30.078125 7.515625 
Q 37.359375 7.515625 41.375 12.890625 
Q 45.40625 18.265625 45.40625 27.984375 
z
M 54.390625 6.78125 
Q 54.390625 -7.171875 48.1875 -13.984375 
Q 42 -20.796875 29.203125 -20.796875 
Q 24.46875 -20.796875 20.265625 -20.09375 
Q 16.0625 -19.390625 12.109375 -17.921875 
L 12.109375 -9.1875 
Q 16.0625 -11.328125 19.921875 -12.34375 
Q 23.78125 -13.375 27.78125 -13.375 
Q 36.625 -13.375 41.015625 -8.765625 
Q 45.40625 -4.15625 45.40625 5.171875 
L 45.40625 9.625 
Q 42.625 4.78125 38.28125 2.390625 
Q 33.9375 0 27.875 0 
Q 17.828125 0 11.671875 7.65625 
Q 5.515625 15.328125 5.515625 27.984375 
Q 5.515625 40.671875 11.671875 48.328125 
Q 17.828125 56 27.875 56 
Q 33.9375 56 38.28125 53.609375 
Q 42.625 51.21875 45.40625 46.390625 
L 45.40625 54.6875 
L 54.390625 54.6875 
z
" id="DejaVuSans-103"/>
      <path d="M 41.109375 46.296875 
Q 39.59375 47.171875 37.8125 47.578125 
Q 36.03125 48 33.890625 48 
Q 26.265625 48 22.1875 43.046875 
Q 18.109375 38.09375 18.109375 28.8125 
L 18.109375 0 
L 9.078125 0 
L 9.078125 54.6875 
L 18.109375 54.6875 
L 18.109375 46.1875 
Q 20.953125 51.171875 25.484375 53.578125 
Q 30.03125 56 36.53125 56 
Q 37.453125 56 38.578125 55.875 
Q 39.703125 55.765625 41.0625 55.515625 
z
" id="DejaVuSans-114"/>
      <path d="M 54.890625 33.015625 
L 54.890625 0 
L 45.90625 0 
L 45.90625 32.71875 
Q 45.90625 40.484375 42.875 44.328125 
Q 39.84375 48.1875 33.796875 48.1875 
Q 26.515625 48.1875 22.3125 43.546875 
Q 18.109375 38.921875 18.109375 30.90625 
L 18.109375 0 
L 9.078125 0 
L 9.078125 54.6875 
L 18.109375 54.6875 
L 18.109375 46.1875 
Q 21.34375 51.125 25.703125 53.5625 
Q 30.078125 56 35.796875 56 
Q 45.21875 56 50.046875 50.171875 
Q 54.890625 44.34375 54.890625 33.015625 
z
" id="DejaVuSans-110"/>
      <path d="M 10.59375 45.40625 
L 73.1875 45.40625 
L 73.1875 37.203125 
L 10.59375 37.203125 
z
M 10.59375 25.484375 
L 73.1875 25.484375 
L 73.1875 17.1875 
L 10.59375 17.1875 
z
" id="DejaVuSans-61"/>
      <path d="M 10.6875 12.40625 
L 21 12.40625 
L 21 0 
L 10.6875 0 
z
" id="DejaVuSans-46"/>
      <path d="M 10.796875 72.90625 
L 49.515625 72.90625 
L 49.515625 64.59375 
L 19.828125 64.59375 
L 19.828125 46.734375 
Q 21.96875 47.46875 24.109375 47.828125 
Q 26.265625 48.1875 28.421875 48.1875 
Q 40.625 48.1875 47.75 41.5 
Q 54.890625 34.8125 54.890625 23.390625 
Q 54.890625 11.625 47.5625 5.09375 
Q 40.234375 -1.421875 26.90625 -1.421875 
Q 22.3125 -1.421875 17.546875 -0.640625 
Q 12.796875 0.140625 7.71875 1.703125 
L 7.71875 11.625 
Q 12.109375 9.234375 16.796875 8.0625 
Q 21.484375 6.890625 26.703125 6.890625 
Q 35.15625 6.890625 40.078125 11.328125 
Q 45.015625 15.765625 45.015625 23.390625 
Q 45.015625 31 40.078125 35.4375 
Q 35.15625 39.890625 26.703125 39.890625 
Q 22.75 39.890625 18.8125 39.015625 
Q 14.890625 38.140625 10.796875 36.28125 
z
" id="DejaVuSans-53"/>
     </defs>
     <use xlink:href="#DejaVuSans-76"/>
     <use x="55.712891" xlink:href="#DejaVuSans-97"/>
     <use x="116.992188" xlink:href="#DejaVuSans-115"/>
     <use x="169.091797" xlink:href="#DejaVuSans-115"/>
     <use x="221.191406" xlink:href="#DejaVuSans-111"/>
     <use x="282.373047" xlink:href="#DejaVuSans-32"/>
     <use x="314.160156" xlink:href="#DejaVuSans-82"/>
     <use x="379.142578" xlink:href="#DejaVuSans-101"/>
     <use x="440.666016" xlink:href="#DejaVuSans-103"/>
     <use x="504.142578" xlink:href="#DejaVuSans-114"/>
     <use x="543.005859" xlink:href="#DejaVuSans-101"/>
     <use x="604.529297" xlink:href="#DejaVuSans-115"/>
     <use x="656.628906" xlink:href="#DejaVuSans-115"/>
     <use x="708.728516" xlink:href="#DejaVuSans-105"/>
     <use x="736.511719" xlink:href="#DejaVuSans-111"/>
     <use x="797.693359" xlink:href="#DejaVuSans-110"/>
     <use x="861.072266" xlink:href="#DejaVuSans-91"/>
     <use x="900.085938" xlink:href="#DejaVuSans-114"/>
     <use x="938.949219" xlink:href="#DejaVuSans-101"/>
     <use x="1000.472656" xlink:href="#DejaVuSans-103"/>
     <use x="1063.949219" xlink:href="#DejaVuSans-61"/>
     <use x="1147.738281" xlink:href="#DejaVuSans-48"/>
     <use x="1211.361328" xlink:href="#DejaVuSans-46"/>
     <use x="1243.148438" xlink:href="#DejaVuSans-53"/>
     <use x="1306.771484" xlink:href="#DejaVuSans-93"/>
    </g>
    <!-- Data: Simulated[n_samples=100,n_features=10000,rho=0] -->
    <g transform="translate(53.678645 37.44)scale(0.14 -0.14)">
     <defs>
      <path d="M 19.671875 64.796875 
L 19.671875 8.109375 
L 31.59375 8.109375 
Q 46.6875 8.109375 53.6875 14.9375 
Q 60.6875 21.78125 60.6875 36.53125 
Q 60.6875 51.171875 53.6875 57.984375 
Q 46.6875 64.796875 31.59375 64.796875 
z
M 9.8125 72.90625 
L 30.078125 72.90625 
Q 51.265625 72.90625 61.171875 64.09375 
Q 71.09375 55.28125 71.09375 36.53125 
Q 71.09375 17.671875 61.125 8.828125 
Q 51.171875 0 30.078125 0 
L 9.8125 0 
z
" id="DejaVuSans-68"/>
      <path d="M 18.3125 70.21875 
L 18.3125 54.6875 
L 36.8125 54.6875 
L 36.8125 47.703125 
L 18.3125 47.703125 
L 18.3125 18.015625 
Q 18.3125 11.328125 20.140625 9.421875 
Q 21.96875 7.515625 27.59375 7.515625 
L 36.8125 7.515625 
L 36.8125 0 
L 27.59375 0 
Q 17.1875 0 13.234375 3.875 
Q 9.28125 7.765625 9.28125 18.015625 
L 9.28125 47.703125 
L 2.6875 47.703125 
L 2.6875 54.6875 
L 9.28125 54.6875 
L 9.28125 70.21875 
z
" id="DejaVuSans-116"/>
      <path d="M 11.71875 12.40625 
L 22.015625 12.40625 
L 22.015625 0 
L 11.71875 0 
z
M 11.71875 51.703125 
L 22.015625 51.703125 
L 22.015625 39.3125 
L 11.71875 39.3125 
z
" id="DejaVuSans-58"/>
      <path d="M 53.515625 70.515625 
L 53.515625 60.890625 
Q 47.90625 63.578125 42.921875 64.890625 
Q 37.9375 66.21875 33.296875 66.21875 
Q 25.25 66.21875 20.875 63.09375 
Q 16.5 59.96875 16.5 54.203125 
Q 16.5 49.359375 19.40625 46.890625 
Q 22.3125 44.4375 30.421875 42.921875 
L 36.375 41.703125 
Q 47.40625 39.59375 52.65625 34.296875 
Q 57.90625 29 57.90625 20.125 
Q 57.90625 9.515625 50.796875 4.046875 
Q 43.703125 -1.421875 29.984375 -1.421875 
Q 24.8125 -1.421875 18.96875 -0.25 
Q 13.140625 0.921875 6.890625 3.21875 
L 6.890625 13.375 
Q 12.890625 10.015625 18.65625 8.296875 
Q 24.421875 6.59375 29.984375 6.59375 
Q 38.421875 6.59375 43.015625 9.90625 
Q 47.609375 13.234375 47.609375 19.390625 
Q 47.609375 24.75 44.3125 27.78125 
Q 41.015625 30.8125 33.5 32.328125 
L 27.484375 33.5 
Q 16.453125 35.6875 11.515625 40.375 
Q 6.59375 45.0625 6.59375 53.421875 
Q 6.59375 63.09375 13.40625 68.65625 
Q 20.21875 74.21875 32.171875 74.21875 
Q 37.3125 74.21875 42.625 73.28125 
Q 47.953125 72.359375 53.515625 70.515625 
z
" id="DejaVuSans-83"/>
      <path d="M 8.5 21.578125 
L 8.5 54.6875 
L 17.484375 54.6875 
L 17.484375 21.921875 
Q 17.484375 14.15625 20.5 10.265625 
Q 23.53125 6.390625 29.59375 6.390625 
Q 36.859375 6.390625 41.078125 11.03125 
Q 45.3125 15.671875 45.3125 23.6875 
L 45.3125 54.6875 
L 54.296875 54.6875 
L 54.296875 0 
L 45.3125 0 
L 45.3125 8.40625 
Q 42.046875 3.421875 37.71875 1 
Q 33.40625 -1.421875 27.6875 -1.421875 
Q 18.265625 -1.421875 13.375 4.4375 
Q 8.5 10.296875 8.5 21.578125 
z
M 31.109375 56 
z
" id="DejaVuSans-117"/>
      <path d="M 9.421875 75.984375 
L 18.40625 75.984375 
L 18.40625 0 
L 9.421875 0 
z
" id="DejaVuSans-108"/>
      <path d="M 45.40625 46.390625 
L 45.40625 75.984375 
L 54.390625 75.984375 
L 54.390625 0 
L 45.40625 0 
L 45.40625 8.203125 
Q 42.578125 3.328125 38.25 0.953125 
Q 33.9375 -1.421875 27.875 -1.421875 
Q 17.96875 -1.421875 11.734375 6.484375 
Q 5.515625 14.40625 5.515625 27.296875 
Q 5.515625 40.1875 11.734375 48.09375 
Q 17.96875 56 27.875 56 
Q 33.9375 56 38.25 53.625 
Q 42.578125 51.265625 45.40625 46.390625 
z
M 14.796875 27.296875 
Q 14.796875 17.390625 18.875 11.75 
Q 22.953125 6.109375 30.078125 6.109375 
Q 37.203125 6.109375 41.296875 11.75 
Q 45.40625 17.390625 45.40625 27.296875 
Q 45.40625 37.203125 41.296875 42.84375 
Q 37.203125 48.484375 30.078125 48.484375 
Q 22.953125 48.484375 18.875 42.84375 
Q 14.796875 37.203125 14.796875 27.296875 
z
" id="DejaVuSans-100"/>
      <path d="M 50.984375 -16.609375 
L 50.984375 -23.578125 
L -0.984375 -23.578125 
L -0.984375 -16.609375 
z
" id="DejaVuSans-95"/>
      <path d="M 18.109375 8.203125 
L 18.109375 -20.796875 
L 9.078125 -20.796875 
L 9.078125 54.6875 
L 18.109375 54.6875 
L 18.109375 46.390625 
Q 20.953125 51.265625 25.265625 53.625 
Q 29.59375 56 35.59375 56 
Q 45.5625 56 51.78125 48.09375 
Q 58.015625 40.1875 58.015625 27.296875 
Q 58.015625 14.40625 51.78125 6.484375 
Q 45.5625 -1.421875 35.59375 -1.421875 
Q 29.59375 -1.421875 25.265625 0.953125 
Q 20.953125 3.328125 18.109375 8.203125 
z
M 48.6875 27.296875 
Q 48.6875 37.203125 44.609375 42.84375 
Q 40.53125 48.484375 33.40625 48.484375 
Q 26.265625 48.484375 22.1875 42.84375 
Q 18.109375 37.203125 18.109375 27.296875 
Q 18.109375 17.390625 22.1875 11.75 
Q 26.265625 6.109375 33.40625 6.109375 
Q 40.53125 6.109375 44.609375 11.75 
Q 48.6875 17.390625 48.6875 27.296875 
z
" id="DejaVuSans-112"/>
      <path d="M 11.71875 12.40625 
L 22.015625 12.40625 
L 22.015625 4 
L 14.015625 -11.625 
L 7.71875 -11.625 
L 11.71875 4 
z
" id="DejaVuSans-44"/>
      <path d="M 37.109375 75.984375 
L 37.109375 68.5 
L 28.515625 68.5 
Q 23.6875 68.5 21.796875 66.546875 
Q 19.921875 64.59375 19.921875 59.515625 
L 19.921875 54.6875 
L 34.71875 54.6875 
L 34.71875 47.703125 
L 19.921875 47.703125 
L 19.921875 0 
L 10.890625 0 
L 10.890625 47.703125 
L 2.296875 47.703125 
L 2.296875 54.6875 
L 10.890625 54.6875 
L 10.890625 58.5 
Q 10.890625 67.625 15.140625 71.796875 
Q 19.390625 75.984375 28.609375 75.984375 
z
" id="DejaVuSans-102"/>
      <path d="M 54.890625 33.015625 
L 54.890625 0 
L 45.90625 0 
L 45.90625 32.71875 
Q 45.90625 40.484375 42.875 44.328125 
Q 39.84375 48.1875 33.796875 48.1875 
Q 26.515625 48.1875 22.3125 43.546875 
Q 18.109375 38.921875 18.109375 30.90625 
L 18.109375 0 
L 9.078125 0 
L 9.078125 75.984375 
L 18.109375 75.984375 
L 18.109375 46.1875 
Q 21.34375 51.125 25.703125 53.5625 
Q 30.078125 56 35.796875 56 
Q 45.21875 56 50.046875 50.171875 
Q 54.890625 44.34375 54.890625 33.015625 
z
" id="DejaVuSans-104"/>
     </defs>
     <use xlink:href="#DejaVuSans-68"/>
     <use x="77.001953" xlink:href="#DejaVuSans-97"/>
     <use x="138.28125" xlink:href="#DejaVuSans-116"/>
     <use x="177.490234" xlink:href="#DejaVuSans-97"/>
     <use x="238.769531" xlink:href="#DejaVuSans-58"/>
     <use x="272.460938" xlink:href="#DejaVuSans-32"/>
     <use x="304.248047" xlink:href="#DejaVuSans-83"/>
     <use x="367.724609" xlink:href="#DejaVuSans-105"/>
     <use x="395.507812" xlink:href="#DejaVuSans-109"/>
     <use x="492.919922" xlink:href="#DejaVuSans-117"/>
     <use x="556.298828" xlink:href="#DejaVuSans-108"/>
     <use x="584.082031" xlink:href="#DejaVuSans-97"/>
     <use x="645.361328" xlink:href="#DejaVuSans-116"/>
     <use x="684.570312" xlink:href="#DejaVuSans-101"/>
     <use x="746.09375" xlink:href="#DejaVuSans-100"/>
     <use x="809.570312" xlink:href="#DejaVuSans-91"/>
     <use x="848.583984" xlink:href="#DejaVuSans-110"/>
     <use x="911.962891" xlink:href="#DejaVuSans-95"/>
     <use x="961.962891" xlink:href="#DejaVuSans-115"/>
     <use x="1014.0625" xlink:href="#DejaVuSans-97"/>
     <use x="1075.341797" xlink:href="#DejaVuSans-109"/>
     <use x="1172.753906" xlink:href="#DejaVuSans-112"/>
     <use x="1236.230469" xlink:href="#DejaVuSans-108"/>
     <use x="1264.013672" xlink:href="#DejaVuSans-101"/>
     <use x="1325.537109" xlink:href="#DejaVuSans-115"/>
     <use x="1377.636719" xlink:href="#DejaVuSans-61"/>
     <use x="1461.425781" xlink:href="#DejaVuSans-49"/>
     <use x="1525.048828" xlink:href="#DejaVuSans-48"/>
     <use x="1588.671875" xlink:href="#DejaVuSans-48"/>
     <use x="1652.294922" xlink:href="#DejaVuSans-44"/>
     <use x="1684.082031" xlink:href="#DejaVuSans-110"/>
     <use x="1747.460938" xlink:href="#DejaVuSans-95"/>
     <use x="1797.460938" xlink:href="#DejaVuSans-102"/>
     <use x="1832.666016" xlink:href="#DejaVuSans-101"/>
     <use x="1894.189453" xlink:href="#DejaVuSans-97"/>
     <use x="1955.46875" xlink:href="#DejaVuSans-116"/>
     <use x="1994.677734" xlink:href="#DejaVuSans-117"/>
     <use x="2058.056641" xlink:href="#DejaVuSans-114"/>
     <use x="2096.919922" xlink:href="#DejaVuSans-101"/>
     <use x="2158.443359" xlink:href="#DejaVuSans-115"/>
     <use x="2210.542969" xlink:href="#DejaVuSans-61"/>
     <use x="2294.332031" xlink:href="#DejaVuSans-49"/>
     <use x="2357.955078" xlink:href="#DejaVuSans-48"/>
     <use x="2421.578125" xlink:href="#DejaVuSans-48"/>
     <use x="2485.201172" xlink:href="#DejaVuSans-48"/>
     <use x="2548.824219" xlink:href="#DejaVuSans-48"/>
     <use x="2612.447266" xlink:href="#DejaVuSans-44"/>
     <use x="2644.234375" xlink:href="#DejaVuSans-114"/>
     <use x="2683.597656" xlink:href="#DejaVuSans-104"/>
     <use x="2746.976562" xlink:href="#DejaVuSans-111"/>
     <use x="2808.158203" xlink:href="#DejaVuSans-61"/>
     <use x="2891.947266" xlink:href="#DejaVuSans-48"/>
     <use x="2955.570312" xlink:href="#DejaVuSans-93"/>
    </g>
   </g>
   <g id="legend_1">
    <g id="patch_7">
     <path d="M 86.681214 343.11 
L 390.960276 343.11 
Q 393.760276 343.11 393.760276 340.31 
L 393.760276 53.24 
Q 393.760276 50.44 390.960276 50.44 
L 86.681214 50.44 
Q 83.881214 50.44 83.881214 53.24 
L 83.881214 340.31 
Q 83.881214 343.11 86.681214 343.11 
z
" style="fill:#ffffff;opacity:0.8;stroke:#cccccc;stroke-linejoin:miter;"/>
    </g>
    <g id="line2d_59">
     <path d="M 89.481214 61.777812 
L 117.481214 61.777812 
" style="fill:none;stroke:#1f77b4;stroke-linecap:square;stroke-width:3;"/>
    </g>
    <g id="line2d_60"/>
    <g id="text_16">
     <!-- Blitz -->
     <g transform="translate(128.681214 66.677812)scale(0.14 -0.14)">
      <defs>
       <path d="M 19.671875 34.8125 
L 19.671875 8.109375 
L 35.5 8.109375 
Q 43.453125 8.109375 47.28125 11.40625 
Q 51.125 14.703125 51.125 21.484375 
Q 51.125 28.328125 47.28125 31.5625 
Q 43.453125 34.8125 35.5 34.8125 
z
M 19.671875 64.796875 
L 19.671875 42.828125 
L 34.28125 42.828125 
Q 41.5 42.828125 45.03125 45.53125 
Q 48.578125 48.25 48.578125 53.8125 
Q 48.578125 59.328125 45.03125 62.0625 
Q 41.5 64.796875 34.28125 64.796875 
z
M 9.8125 72.90625 
L 35.015625 72.90625 
Q 46.296875 72.90625 52.390625 68.21875 
Q 58.5 63.53125 58.5 54.890625 
Q 58.5 48.1875 55.375 44.234375 
Q 52.25 40.28125 46.1875 39.3125 
Q 53.46875 37.75 57.5 32.78125 
Q 61.53125 27.828125 61.53125 20.40625 
Q 61.53125 10.640625 54.890625 5.3125 
Q 48.25 0 35.984375 0 
L 9.8125 0 
z
" id="DejaVuSans-66"/>
       <path d="M 5.515625 54.6875 
L 48.1875 54.6875 
L 48.1875 46.484375 
L 14.40625 7.171875 
L 48.1875 7.171875 
L 48.1875 0 
L 4.296875 0 
L 4.296875 8.203125 
L 38.09375 47.515625 
L 5.515625 47.515625 
z
" id="DejaVuSans-122"/>
      </defs>
      <use xlink:href="#DejaVuSans-66"/>
      <use x="68.603516" xlink:href="#DejaVuSans-108"/>
      <use x="96.386719" xlink:href="#DejaVuSans-105"/>
      <use x="124.169922" xlink:href="#DejaVuSans-116"/>
      <use x="163.378906" xlink:href="#DejaVuSans-122"/>
     </g>
    </g>
    <g id="line2d_61">
     <path d="M 89.481214 82.327187 
L 117.481214 82.327187 
" style="fill:none;stroke:#ff7f0e;stroke-linecap:square;stroke-width:3;"/>
    </g>
    <g id="line2d_62"/>
    <g id="text_17">
     <!-- cd -->
     <g transform="translate(128.681214 87.227187)scale(0.14 -0.14)">
      <use xlink:href="#DejaVuSans-99"/>
      <use x="54.980469" xlink:href="#DejaVuSans-100"/>
     </g>
    </g>
    <g id="line2d_63">
     <path d="M 89.481214 102.876562 
L 117.481214 102.876562 
" style="fill:none;stroke:#2ca02c;stroke-linecap:square;stroke-width:3;"/>
    </g>
    <g id="line2d_64"/>
    <g id="text_18">
     <!-- Celer -->
     <g transform="translate(128.681214 107.776562)scale(0.14 -0.14)">
      <defs>
       <path d="M 64.40625 67.28125 
L 64.40625 56.890625 
Q 59.421875 61.53125 53.78125 63.8125 
Q 48.140625 66.109375 41.796875 66.109375 
Q 29.296875 66.109375 22.65625 58.46875 
Q 16.015625 50.828125 16.015625 36.375 
Q 16.015625 21.96875 22.65625 14.328125 
Q 29.296875 6.6875 41.796875 6.6875 
Q 48.140625 6.6875 53.78125 8.984375 
Q 59.421875 11.28125 64.40625 15.921875 
L 64.40625 5.609375 
Q 59.234375 2.09375 53.4375 0.328125 
Q 47.65625 -1.421875 41.21875 -1.421875 
Q 24.65625 -1.421875 15.125 8.703125 
Q 5.609375 18.84375 5.609375 36.375 
Q 5.609375 53.953125 15.125 64.078125 
Q 24.65625 74.21875 41.21875 74.21875 
Q 47.75 74.21875 53.53125 72.484375 
Q 59.328125 70.75 64.40625 67.28125 
z
" id="DejaVuSans-67"/>
      </defs>
      <use xlink:href="#DejaVuSans-67"/>
      <use x="69.824219" xlink:href="#DejaVuSans-101"/>
      <use x="131.347656" xlink:href="#DejaVuSans-108"/>
      <use x="159.130859" xlink:href="#DejaVuSans-101"/>
      <use x="220.654297" xlink:href="#DejaVuSans-114"/>
     </g>
    </g>
    <g id="line2d_65">
     <path d="M 89.481214 123.425937 
L 117.481214 123.425937 
" style="fill:none;stroke:#d62728;stroke-linecap:square;stroke-width:3;"/>
    </g>
    <g id="line2d_66"/>
    <g id="text_19">
     <!-- cvxpy -->
     <g transform="translate(128.681214 128.325937)scale(0.14 -0.14)">
      <defs>
       <path d="M 2.984375 54.6875 
L 12.5 54.6875 
L 29.59375 8.796875 
L 46.6875 54.6875 
L 56.203125 54.6875 
L 35.6875 0 
L 23.484375 0 
z
" id="DejaVuSans-118"/>
       <path d="M 54.890625 54.6875 
L 35.109375 28.078125 
L 55.90625 0 
L 45.3125 0 
L 29.390625 21.484375 
L 13.484375 0 
L 2.875 0 
L 24.125 28.609375 
L 4.6875 54.6875 
L 15.28125 54.6875 
L 29.78125 35.203125 
L 44.28125 54.6875 
z
" id="DejaVuSans-120"/>
       <path d="M 32.171875 -5.078125 
Q 28.375 -14.84375 24.75 -17.8125 
Q 21.140625 -20.796875 15.09375 -20.796875 
L 7.90625 -20.796875 
L 7.90625 -13.28125 
L 13.1875 -13.28125 
Q 16.890625 -13.28125 18.9375 -11.515625 
Q 21 -9.765625 23.484375 -3.21875 
L 25.09375 0.875 
L 2.984375 54.6875 
L 12.5 54.6875 
L 29.59375 11.921875 
L 46.6875 54.6875 
L 56.203125 54.6875 
z
" id="DejaVuSans-121"/>
      </defs>
      <use xlink:href="#DejaVuSans-99"/>
      <use x="54.980469" xlink:href="#DejaVuSans-118"/>
      <use x="114.160156" xlink:href="#DejaVuSans-120"/>
      <use x="173.339844" xlink:href="#DejaVuSans-112"/>
      <use x="236.816406" xlink:href="#DejaVuSans-121"/>
     </g>
    </g>
    <g id="line2d_67">
     <path d="M 89.481214 143.975312 
L 117.481214 143.975312 
" style="fill:none;stroke:#9467bd;stroke-linecap:square;stroke-width:3;"/>
    </g>
    <g id="line2d_68"/>
    <g id="text_20">
     <!-- Cyanure -->
     <g transform="translate(128.681214 148.875312)scale(0.14 -0.14)">
      <use xlink:href="#DejaVuSans-67"/>
      <use x="69.824219" xlink:href="#DejaVuSans-121"/>
      <use x="129.003906" xlink:href="#DejaVuSans-97"/>
      <use x="190.283203" xlink:href="#DejaVuSans-110"/>
      <use x="253.662109" xlink:href="#DejaVuSans-117"/>
      <use x="317.041016" xlink:href="#DejaVuSans-114"/>
      <use x="355.904297" xlink:href="#DejaVuSans-101"/>
     </g>
    </g>
    <g id="line2d_69">
     <path d="M 89.481214 164.524687 
L 117.481214 164.524687 
" style="fill:none;stroke:#8c564b;stroke-linecap:square;stroke-width:3;"/>
    </g>
    <g id="line2d_70"/>
    <g id="text_21">
     <!-- glmnet -->
     <g transform="translate(128.681214 169.424687)scale(0.14 -0.14)">
      <use xlink:href="#DejaVuSans-103"/>
      <use x="63.476562" xlink:href="#DejaVuSans-108"/>
      <use x="91.259766" xlink:href="#DejaVuSans-109"/>
      <use x="188.671875" xlink:href="#DejaVuSans-110"/>
      <use x="252.050781" xlink:href="#DejaVuSans-101"/>
      <use x="313.574219" xlink:href="#DejaVuSans-116"/>
     </g>
    </g>
    <g id="line2d_71">
     <path d="M 89.481214 185.074062 
L 117.481214 185.074062 
" style="fill:none;stroke:#e377c2;stroke-linecap:square;stroke-width:3;"/>
    </g>
    <g id="line2d_72"/>
    <g id="text_22">
     <!-- Julia-PGD -->
     <g transform="translate(128.681214 189.974062)scale(0.14 -0.14)">
      <defs>
       <path d="M 9.8125 72.90625 
L 19.671875 72.90625 
L 19.671875 5.078125 
Q 19.671875 -8.109375 14.671875 -14.0625 
Q 9.671875 -20.015625 -1.421875 -20.015625 
L -5.171875 -20.015625 
L -5.171875 -11.71875 
L -2.09375 -11.71875 
Q 4.4375 -11.71875 7.125 -8.046875 
Q 9.8125 -4.390625 9.8125 5.078125 
z
" id="DejaVuSans-74"/>
       <path d="M 4.890625 31.390625 
L 31.203125 31.390625 
L 31.203125 23.390625 
L 4.890625 23.390625 
z
" id="DejaVuSans-45"/>
       <path d="M 19.671875 64.796875 
L 19.671875 37.40625 
L 32.078125 37.40625 
Q 38.96875 37.40625 42.71875 40.96875 
Q 46.484375 44.53125 46.484375 51.125 
Q 46.484375 57.671875 42.71875 61.234375 
Q 38.96875 64.796875 32.078125 64.796875 
z
M 9.8125 72.90625 
L 32.078125 72.90625 
Q 44.34375 72.90625 50.609375 67.359375 
Q 56.890625 61.8125 56.890625 51.125 
Q 56.890625 40.328125 50.609375 34.8125 
Q 44.34375 29.296875 32.078125 29.296875 
L 19.671875 29.296875 
L 19.671875 0 
L 9.8125 0 
z
" id="DejaVuSans-80"/>
       <path d="M 59.515625 10.40625 
L 59.515625 29.984375 
L 43.40625 29.984375 
L 43.40625 38.09375 
L 69.28125 38.09375 
L 69.28125 6.78125 
Q 63.578125 2.734375 56.6875 0.65625 
Q 49.8125 -1.421875 42 -1.421875 
Q 24.90625 -1.421875 15.25 8.5625 
Q 5.609375 18.5625 5.609375 36.375 
Q 5.609375 54.25 15.25 64.234375 
Q 24.90625 74.21875 42 74.21875 
Q 49.125 74.21875 55.546875 72.453125 
Q 61.96875 70.703125 67.390625 67.28125 
L 67.390625 56.78125 
Q 61.921875 61.421875 55.765625 63.765625 
Q 49.609375 66.109375 42.828125 66.109375 
Q 29.4375 66.109375 22.71875 58.640625 
Q 16.015625 51.171875 16.015625 36.375 
Q 16.015625 21.625 22.71875 14.15625 
Q 29.4375 6.6875 42.828125 6.6875 
Q 48.046875 6.6875 52.140625 7.59375 
Q 56.25 8.5 59.515625 10.40625 
z
" id="DejaVuSans-71"/>
      </defs>
      <use xlink:href="#DejaVuSans-74"/>
      <use x="29.492188" xlink:href="#DejaVuSans-117"/>
      <use x="92.871094" xlink:href="#DejaVuSans-108"/>
      <use x="120.654297" xlink:href="#DejaVuSans-105"/>
      <use x="148.4375" xlink:href="#DejaVuSans-97"/>
      <use x="209.716797" xlink:href="#DejaVuSans-45"/>
      <use x="245.800781" xlink:href="#DejaVuSans-80"/>
      <use x="306.103516" xlink:href="#DejaVuSans-71"/>
      <use x="383.59375" xlink:href="#DejaVuSans-68"/>
     </g>
    </g>
    <g id="line2d_73">
     <path d="M 89.481214 205.623437 
L 117.481214 205.623437 
" style="fill:none;stroke:#7f7f7f;stroke-linecap:square;stroke-width:3;"/>
    </g>
    <g id="line2d_74"/>
    <g id="text_23">
     <!-- L-BFGS-B -->
     <g transform="translate(128.681214 210.523437)scale(0.14 -0.14)">
      <defs>
       <path d="M 9.8125 72.90625 
L 51.703125 72.90625 
L 51.703125 64.59375 
L 19.671875 64.59375 
L 19.671875 43.109375 
L 48.578125 43.109375 
L 48.578125 34.8125 
L 19.671875 34.8125 
L 19.671875 0 
L 9.8125 0 
z
" id="DejaVuSans-70"/>
      </defs>
      <use xlink:href="#DejaVuSans-76"/>
      <use x="53.962891" xlink:href="#DejaVuSans-45"/>
      <use x="86.421875" xlink:href="#DejaVuSans-66"/>
      <use x="155.025391" xlink:href="#DejaVuSans-70"/>
      <use x="212.544922" xlink:href="#DejaVuSans-71"/>
      <use x="290.035156" xlink:href="#DejaVuSans-83"/>
      <use x="353.511719" xlink:href="#DejaVuSans-45"/>
      <use x="385.970703" xlink:href="#DejaVuSans-66"/>
     </g>
    </g>
    <g id="line2d_75">
     <path d="M 89.481214 226.172812 
L 117.481214 226.172812 
" style="fill:none;stroke:#bcbd22;stroke-linecap:square;stroke-width:3;"/>
    </g>
    <g id="line2d_76"/>
    <g id="text_24">
     <!-- Lightning -->
     <g transform="translate(128.681214 231.072812)scale(0.14 -0.14)">
      <use xlink:href="#DejaVuSans-76"/>
      <use x="55.712891" xlink:href="#DejaVuSans-105"/>
      <use x="83.496094" xlink:href="#DejaVuSans-103"/>
      <use x="146.972656" xlink:href="#DejaVuSans-104"/>
      <use x="210.351562" xlink:href="#DejaVuSans-116"/>
      <use x="249.560547" xlink:href="#DejaVuSans-110"/>
      <use x="312.939453" xlink:href="#DejaVuSans-105"/>
      <use x="340.722656" xlink:href="#DejaVuSans-110"/>
      <use x="404.101562" xlink:href="#DejaVuSans-103"/>
     </g>
    </g>
    <g id="line2d_77">
     <path d="M 89.481214 246.722187 
L 117.481214 246.722187 
" style="fill:none;stroke:#17becf;stroke-linecap:square;stroke-width:3;"/>
    </g>
    <g id="line2d_78"/>
    <g id="text_25">
     <!-- Python-PGD[use_acceleration=False] -->
     <g transform="translate(128.681214 251.622187)scale(0.14 -0.14)">
      <use xlink:href="#DejaVuSans-80"/>
      <use x="60.302734" xlink:href="#DejaVuSans-121"/>
      <use x="119.482422" xlink:href="#DejaVuSans-116"/>
      <use x="158.691406" xlink:href="#DejaVuSans-104"/>
      <use x="222.070312" xlink:href="#DejaVuSans-111"/>
      <use x="283.251953" xlink:href="#DejaVuSans-110"/>
      <use x="346.630859" xlink:href="#DejaVuSans-45"/>
      <use x="382.714844" xlink:href="#DejaVuSans-80"/>
      <use x="443.017578" xlink:href="#DejaVuSans-71"/>
      <use x="520.507812" xlink:href="#DejaVuSans-68"/>
      <use x="597.509766" xlink:href="#DejaVuSans-91"/>
      <use x="636.523438" xlink:href="#DejaVuSans-117"/>
      <use x="699.902344" xlink:href="#DejaVuSans-115"/>
      <use x="752.001953" xlink:href="#DejaVuSans-101"/>
      <use x="813.525391" xlink:href="#DejaVuSans-95"/>
      <use x="863.525391" xlink:href="#DejaVuSans-97"/>
      <use x="924.804688" xlink:href="#DejaVuSans-99"/>
      <use x="979.785156" xlink:href="#DejaVuSans-99"/>
      <use x="1034.765625" xlink:href="#DejaVuSans-101"/>
      <use x="1096.289062" xlink:href="#DejaVuSans-108"/>
      <use x="1124.072266" xlink:href="#DejaVuSans-101"/>
      <use x="1185.595703" xlink:href="#DejaVuSans-114"/>
      <use x="1226.708984" xlink:href="#DejaVuSans-97"/>
      <use x="1287.988281" xlink:href="#DejaVuSans-116"/>
      <use x="1327.197266" xlink:href="#DejaVuSans-105"/>
      <use x="1354.980469" xlink:href="#DejaVuSans-111"/>
      <use x="1416.162109" xlink:href="#DejaVuSans-110"/>
      <use x="1479.541016" xlink:href="#DejaVuSans-61"/>
      <use x="1563.330078" xlink:href="#DejaVuSans-70"/>
      <use x="1611.724609" xlink:href="#DejaVuSans-97"/>
      <use x="1673.003906" xlink:href="#DejaVuSans-108"/>
      <use x="1700.787109" xlink:href="#DejaVuSans-115"/>
      <use x="1752.886719" xlink:href="#DejaVuSans-101"/>
      <use x="1814.410156" xlink:href="#DejaVuSans-93"/>
     </g>
    </g>
    <g id="line2d_79">
     <path d="M 89.481214 267.660937 
L 117.481214 267.660937 
" style="fill:none;stroke:#1f77b4;stroke-linecap:square;stroke-width:3;"/>
    </g>
    <g id="line2d_80"/>
    <g id="text_26">
     <!-- Python-PGD[use_acceleration=True] -->
     <g transform="translate(128.681214 272.560937)scale(0.14 -0.14)">
      <use xlink:href="#DejaVuSans-80"/>
      <use x="60.302734" xlink:href="#DejaVuSans-121"/>
      <use x="119.482422" xlink:href="#DejaVuSans-116"/>
      <use x="158.691406" xlink:href="#DejaVuSans-104"/>
      <use x="222.070312" xlink:href="#DejaVuSans-111"/>
      <use x="283.251953" xlink:href="#DejaVuSans-110"/>
      <use x="346.630859" xlink:href="#DejaVuSans-45"/>
      <use x="382.714844" xlink:href="#DejaVuSans-80"/>
      <use x="443.017578" xlink:href="#DejaVuSans-71"/>
      <use x="520.507812" xlink:href="#DejaVuSans-68"/>
      <use x="597.509766" xlink:href="#DejaVuSans-91"/>
      <use x="636.523438" xlink:href="#DejaVuSans-117"/>
      <use x="699.902344" xlink:href="#DejaVuSans-115"/>
      <use x="752.001953" xlink:href="#DejaVuSans-101"/>
      <use x="813.525391" xlink:href="#DejaVuSans-95"/>
      <use x="863.525391" xlink:href="#DejaVuSans-97"/>
      <use x="924.804688" xlink:href="#DejaVuSans-99"/>
      <use x="979.785156" xlink:href="#DejaVuSans-99"/>
      <use x="1034.765625" xlink:href="#DejaVuSans-101"/>
      <use x="1096.289062" xlink:href="#DejaVuSans-108"/>
      <use x="1124.072266" xlink:href="#DejaVuSans-101"/>
      <use x="1185.595703" xlink:href="#DejaVuSans-114"/>
      <use x="1226.708984" xlink:href="#DejaVuSans-97"/>
      <use x="1287.988281" xlink:href="#DejaVuSans-116"/>
      <use x="1327.197266" xlink:href="#DejaVuSans-105"/>
      <use x="1354.980469" xlink:href="#DejaVuSans-111"/>
      <use x="1416.162109" xlink:href="#DejaVuSans-110"/>
      <use x="1479.541016" xlink:href="#DejaVuSans-61"/>
      <use x="1563.330078" xlink:href="#DejaVuSans-84"/>
      <use x="1609.664062" xlink:href="#DejaVuSans-114"/>
      <use x="1650.777344" xlink:href="#DejaVuSans-117"/>
      <use x="1714.15625" xlink:href="#DejaVuSans-101"/>
      <use x="1775.679688" xlink:href="#DejaVuSans-93"/>
     </g>
    </g>
    <g id="line2d_81">
     <path d="M 89.481214 288.599687 
L 117.481214 288.599687 
" style="fill:none;stroke:#ff7f0e;stroke-linecap:square;stroke-width:3;"/>
    </g>
    <g id="line2d_82"/>
    <g id="text_27">
     <!-- R-PGD -->
     <g transform="translate(128.681214 293.499687)scale(0.14 -0.14)">
      <use xlink:href="#DejaVuSans-82"/>
      <use x="65.482422" xlink:href="#DejaVuSans-45"/>
      <use x="101.566406" xlink:href="#DejaVuSans-80"/>
      <use x="161.869141" xlink:href="#DejaVuSans-71"/>
      <use x="239.359375" xlink:href="#DejaVuSans-68"/>
     </g>
    </g>
    <g id="line2d_83">
     <path d="M 89.481214 309.149062 
L 117.481214 309.149062 
" style="fill:none;stroke:#2ca02c;stroke-linecap:square;stroke-width:3;"/>
    </g>
    <g id="line2d_84"/>
    <g id="text_28">
     <!-- sklearn -->
     <g transform="translate(128.681214 314.049062)scale(0.14 -0.14)">
      <defs>
       <path d="M 9.078125 75.984375 
L 18.109375 75.984375 
L 18.109375 31.109375 
L 44.921875 54.6875 
L 56.390625 54.6875 
L 27.390625 29.109375 
L 57.625 0 
L 45.90625 0 
L 18.109375 26.703125 
L 18.109375 0 
L 9.078125 0 
z
" id="DejaVuSans-107"/>
      </defs>
      <use xlink:href="#DejaVuSans-115"/>
      <use x="52.099609" xlink:href="#DejaVuSans-107"/>
      <use x="110.009766" xlink:href="#DejaVuSans-108"/>
      <use x="137.792969" xlink:href="#DejaVuSans-101"/>
      <use x="199.316406" xlink:href="#DejaVuSans-97"/>
      <use x="260.595703" xlink:href="#DejaVuSans-114"/>
      <use x="299.958984" xlink:href="#DejaVuSans-110"/>
     </g>
    </g>
    <g id="line2d_85">
     <path d="M 89.481214 329.698437 
L 117.481214 329.698437 
" style="fill:none;stroke:#d62728;stroke-linecap:square;stroke-width:3;"/>
    </g>
    <g id="line2d_86"/>
    <g id="text_29">
     <!-- statsmodels -->
     <g transform="translate(128.681214 334.598437)scale(0.14 -0.14)">
      <use xlink:href="#DejaVuSans-115"/>
      <use x="52.099609" xlink:href="#DejaVuSans-116"/>
      <use x="91.308594" xlink:href="#DejaVuSans-97"/>
      <use x="152.587891" xlink:href="#DejaVuSans-116"/>
      <use x="191.796875" xlink:href="#DejaVuSans-115"/>
      <use x="243.896484" xlink:href="#DejaVuSans-109"/>
      <use x="341.308594" xlink:href="#DejaVuSans-111"/>
      <use x="402.490234" xlink:href="#DejaVuSans-100"/>
      <use x="465.966797" xlink:href="#DejaVuSans-101"/>
      <use x="527.490234" xlink:href="#DejaVuSans-108"/>
      <use x="555.273438" xlink:href="#DejaVuSans-115"/>
     </g>
    </g>
   </g>
  </g>
 </g>
 <defs>
  <clipPath id="p74a91fc252">
   <rect height="253.288" width="372.837989" x="76.881214" y="43.44"/>
  </clipPath>
 </defs>
</svg>
