<?xml version="1.0" encoding="utf-8" standalone="no"?>
<!DOCTYPE svg PUBLIC "-//W3C//DTD SVG 1.1//EN"
  "http://www.w3.org/Graphics/SVG/1.1/DTD/svg11.dtd">
<!-- Created with matplotlib (https://matplotlib.org/) -->
<svg height="345.6pt" version="1.1" viewBox="0 0 460.8 345.6" width="460.8pt" xmlns="http://www.w3.org/2000/svg" xmlns:xlink="http://www.w3.org/1999/xlink">
 <metadata>
  <rdf:RDF xmlns:cc="http://creativecommons.org/ns#" xmlns:dc="http://purl.org/dc/elements/1.1/" xmlns:rdf="http://www.w3.org/1999/02/22-rdf-syntax-ns#">
   <cc:Work>
    <dc:type rdf:resource="http://purl.org/dc/dcmitype/StillImage"/>
    <dc:date>2020-12-16T18:00:11.909934</dc:date>
    <dc:format>image/svg+xml</dc:format>
    <dc:creator>
     <cc:Agent>
      <dc:title>Matplotlib v3.3.3, https://matplotlib.org/</dc:title>
     </cc:Agent>
    </dc:creator>
   </cc:Work>
  </rdf:RDF>
 </metadata>
 <defs>
  <style type="text/css">*{stroke-linecap:butt;stroke-linejoin:round;}</style>
 </defs>
 <g id="figure_1">
  <g id="patch_1">
   <path d="M 0 345.6 
L 460.8 345.6 
L 460.8 0 
L 0 0 
z
" style="fill:#ffffff;"/>
  </g>
  <g id="axes_1">
   <g id="patch_2">
    <path d="M 81.626967 296.728 
L 450 296.728 
L 450 43.44 
L 81.626967 43.44 
z
" style="fill:#ffffff;"/>
   </g>
   <g id="PolyCollection_1">
    <defs>
     <path d="M 158.884364 -60.385091 
L 151.400805 -60.385091 
L 151.25271 -60.385091 
L 151.144554 -60.385091 
L 150.749441 -60.385091 
L 148.695579 -60.385091 
L 150.068606 -60.385091 
L 149.882031 -60.385091 
L 149.689021 -60.385091 
L 150.193455 -60.385091 
L 148.716141 -60.385091 
L 148.736972 -60.385091 
L 149.53323 -60.385091 
L 147.998051 -60.385091 
L 148.231643 -60.385091 
L 146.741784 -60.385091 
L 146.971215 -60.385091 
L 146.908767 -60.385091 
L 146.331559 -60.385091 
L 147.27186 -60.385091 
L 146.384583 -60.385091 
L 146.044619 -60.385091 
L 145.226529 -60.385091 
L 146.733098 -60.385091 
L 144.893884 -60.385091 
L 144.924676 -60.385091 
L 144.506631 -60.385091 
L 144.520483 -60.385092 
L 144.371581 -60.385092 
L 143.686796 -60.385091 
L 145.22296 -60.385092 
L 145.77321 -60.385091 
L 147.914032 -60.385092 
L 146.102628 -60.385092 
L 144.775346 -60.385091 
L 142.717558 -60.385092 
L 144.025947 -60.385488 
L 140.718039 -60.385905 
L 140.164876 -60.388049 
L 140.326635 -60.388307 
L 140.437006 -60.387829 
L 135.449289 -60.400466 
L 134.876599 -60.401172 
L 135.348811 -60.400464 
L 134.335071 -60.400331 
L 134.950396 -60.401265 
L 133.040937 -60.648459 
L 100.716109 -65.167504 
L 98.8319 -63.507373 
L 98.448112 -76.648588 
L 99.073479 -65.582632 
L 98.371196 -76.451109 
L 108.919502 -76.451109 
L 108.919502 -76.451109 
L 101.519094 -65.582632 
L 100.278895 -76.648588 
L 101.073292 -63.507373 
L 134.16694 -65.167504 
L 139.390742 -60.648459 
L 145.547833 -60.401265 
L 137.067724 -60.400331 
L 138.752663 -60.400464 
L 137.728919 -60.401172 
L 138.809483 -60.400466 
L 143.064002 -60.387829 
L 142.207733 -60.388307 
L 145.084326 -60.388049 
L 145.486022 -60.385905 
L 148.295291 -60.385488 
L 146.471299 -60.385092 
L 146.124794 -60.385091 
L 149.11618 -60.385092 
L 154.179012 -60.385092 
L 148.354976 -60.385091 
L 145.80662 -60.385092 
L 146.068692 -60.385091 
L 150.533929 -60.385092 
L 148.356085 -60.385092 
L 146.969012 -60.385091 
L 147.866383 -60.385091 
L 146.948889 -60.385091 
L 152.82848 -60.385091 
L 148.742752 -60.385091 
L 150.400448 -60.385091 
L 149.551446 -60.385091 
L 155.201712 -60.385091 
L 150.495208 -60.385091 
L 150.061544 -60.385091 
L 149.772379 -60.385091 
L 151.165286 -60.385091 
L 152.159866 -60.385091 
L 149.56293 -60.385091 
L 164.741919 -60.385091 
L 150.685076 -60.385091 
L 152.9561 -60.385091 
L 151.677379 -60.385091 
L 152.824872 -60.385091 
L 154.136448 -60.385091 
L 151.315771 -60.385091 
L 153.075492 -60.385091 
L 152.774124 -60.385091 
L 154.336651 -60.385091 
L 152.536257 -60.385091 
L 158.884364 -60.385091 
z
" id="mdfa5888a84" style="stroke:#1f77b4;stroke-opacity:0.3;"/>
    </defs>
    <g clip-path="url(#pa06723a566)">
     <use style="fill:#1f77b4;fill-opacity:0.3;stroke:#1f77b4;stroke-opacity:0.3;" x="0" xlink:href="#mdfa5888a84" y="345.6"/>
    </g>
   </g>
   <g id="PolyCollection_2">
    <defs>
     <path d="M 145.087944 -90.803451 
L 125.21773 -90.803451 
L 129.061857 -65.486412 
L 137.195884 -62.17816 
L 141.73212 -61.083453 
L 152.13449 -60.449033 
L 168.170065 -60.388209 
L 172.582 -60.385149 
L 183.859474 -60.385092 
L 197.052722 -60.385091 
L 211.679593 -60.385091 
L 227.496515 -60.385091 
L 242.185207 -60.385091 
L 256.765402 -60.385091 
L 276.516637 -60.385091 
L 298.914027 -60.385091 
L 329.152901 -60.385091 
L 331.495265 -60.385091 
L 331.495265 -60.385091 
L 301.100778 -60.385091 
L 277.194179 -60.385091 
L 258.219826 -60.385091 
L 244.735374 -60.385091 
L 229.139194 -60.385091 
L 215.254351 -60.385091 
L 203.527228 -60.385091 
L 192.068809 -60.385092 
L 179.391464 -60.385149 
L 173.950683 -60.388209 
L 164.401678 -60.449033 
L 159.404785 -61.083453 
L 148.308515 -62.17816 
L 145.484539 -65.486412 
L 145.087944 -90.803451 
z
" id="m43a3eb9bbc" style="stroke:#ff7f0e;stroke-opacity:0.3;"/>
    </defs>
    <g clip-path="url(#pa06723a566)">
     <use style="fill:#ff7f0e;fill-opacity:0.3;stroke:#ff7f0e;stroke-opacity:0.3;" x="0" xlink:href="#m43a3eb9bbc" y="345.6"/>
    </g>
   </g>
   <g id="PolyCollection_3">
    <defs>
     <path d="M 146.7002 -76.270793 
L 128.317218 -76.270793 
L 140.096167 -62.416276 
L 150.484252 -60.401425 
L 157.319866 -60.385137 
L 162.197261 -60.385091 
L 161.460284 -60.385091 
L 164.891895 -60.385091 
L 164.898882 -60.385091 
L 165.331952 -60.385091 
L 164.355704 -60.385091 
L 166.477892 -60.385091 
L 168.12702 -60.385091 
L 168.12702 -60.385091 
L 173.76694 -60.385091 
L 171.344997 -60.385091 
L 169.836362 -60.385091 
L 173.19504 -60.385091 
L 171.38502 -60.385091 
L 169.862701 -60.385091 
L 163.500126 -60.385137 
L 163.237515 -60.401425 
L 163.747431 -62.416276 
L 146.7002 -76.270793 
z
" id="m0d086a895f" style="stroke:#2ca02c;stroke-opacity:0.3;"/>
    </defs>
    <g clip-path="url(#pa06723a566)">
     <use style="fill:#2ca02c;fill-opacity:0.3;stroke:#2ca02c;stroke-opacity:0.3;" x="0" xlink:href="#m0d086a895f" y="345.6"/>
    </g>
   </g>
   <g id="PolyCollection_4">
    <defs>
     <path d="M 340.12501 -216.106736 
L 297.290442 -216.106736 
L 310.60628 -216.106736 
L 321.045102 -216.106736 
L 341.900021 -216.106736 
L 374.012556 -290.646909 
L 389.503139 -60.387321 
L 389.085561 -60.387321 
L 389.11156 -60.387321 
L 388.860205 -60.387321 
L 389.619601 -60.387321 
L 389.619601 -60.387321 
L 389.706858 -60.387321 
L 389.971661 -60.387321 
L 391.477734 -60.387321 
L 374.805639 -290.646909 
L 344.170384 -216.106736 
L 322.333013 -216.106736 
L 310.992605 -216.106736 
L 340.12501 -216.106736 
z
" id="m7e21f07b7f" style="stroke:#d62728;stroke-opacity:0.3;"/>
    </defs>
    <g clip-path="url(#pa06723a566)">
     <use style="fill:#d62728;fill-opacity:0.3;stroke:#d62728;stroke-opacity:0.3;" x="0" xlink:href="#m7e21f07b7f" y="345.6"/>
    </g>
   </g>
   <g id="PolyCollection_5">
    <defs>
     <path d="M 135.265455 -118.45901 
L 129.257534 -118.45901 
L 133.32867 -106.959574 
L 142.597215 -85.25743 
L 145.182838 -83.431562 
L 149.024059 -80.13139 
L 158.181822 -74.339909 
L 166.360821 -73.034866 
L 180.17964 -73.034866 
L 198.8208 -61.866241 
L 219.391007 -60.523485 
L 240.566882 -60.386828 
L 259.813366 -60.385091 
L 278.991499 -60.385091 
L 299.259035 -60.385091 
L 320.665403 -60.385091 
L 343.661473 -60.385091 
L 369.315412 -60.385091 
L 395.09575 -60.385091 
L 398.382447 -60.385091 
L 407.170839 -60.385091 
L 413.287386 -60.385091 
L 413.287386 -60.385091 
L 409.049412 -60.385091 
L 396.790503 -60.385091 
L 370.028744 -60.385091 
L 345.61023 -60.385091 
L 322.229004 -60.385091 
L 300.015355 -60.385091 
L 281.456059 -60.385091 
L 262.646521 -60.385091 
L 248.97965 -60.386828 
L 224.62304 -60.523485 
L 203.6192 -61.866241 
L 197.62053 -73.034866 
L 184.623713 -73.034866 
L 168.661998 -74.339909 
L 165.383306 -80.13139 
L 162.86929 -83.431562 
L 159.789026 -85.25743 
L 156.199517 -106.959574 
L 135.265455 -118.45901 
z
" id="m9644efc5ef" style="stroke:#9467bd;stroke-opacity:0.3;"/>
    </defs>
    <g clip-path="url(#pa06723a566)">
     <use style="fill:#9467bd;fill-opacity:0.3;stroke:#9467bd;stroke-opacity:0.3;" x="0" xlink:href="#m9644efc5ef" y="345.6"/>
    </g>
   </g>
   <g id="PolyCollection_6">
    <defs>
     <path d="M 214.175617 -118.45901 
L 196.27559 -118.45901 
L 204.819596 -118.087762 
L 200.710649 -118.087762 
L 200.984152 -117.723924 
L 203.138658 -117.367392 
L 211.966552 -116.675828 
L 212.111677 -115.375858 
L 220.899617 -113.35134 
L 225.463186 -110.688756 
L 231.844922 -104.606216 
L 236.679646 -96.503247 
L 243.938051 -84.654154 
L 254.767682 -70.803373 
L 265.175548 -60.811961 
L 266.987119 -60.385091 
L 266.445862 -60.385091 
L 266.926609 -60.385091 
L 266.977475 -60.385091 
L 264.571854 -60.385091 
L 264.88728 -60.385091 
L 277.032575 -60.385091 
L 277.032575 -60.385091 
L 270.249041 -60.385091 
L 283.799658 -60.385091 
L 278.966194 -60.385091 
L 280.860235 -60.385091 
L 280.70996 -60.385091 
L 280.454612 -60.811961 
L 262.611319 -70.803373 
L 255.876087 -84.654154 
L 247.844969 -96.503247 
L 263.383518 -104.606216 
L 233.555321 -110.688756 
L 239.421901 -113.35134 
L 255.415163 -115.375858 
L 222.581392 -116.675828 
L 223.75982 -117.367392 
L 250.204313 -117.723924 
L 225.091946 -118.087762 
L 234.793679 -118.087762 
L 214.175617 -118.45901 
z
" id="m483ba62938" style="stroke:#8c564b;stroke-opacity:0.3;"/>
    </defs>
    <g clip-path="url(#pa06723a566)">
     <use style="fill:#8c564b;fill-opacity:0.3;stroke:#8c564b;stroke-opacity:0.3;" x="0" xlink:href="#m483ba62938" y="345.6"/>
    </g>
   </g>
   <g id="PolyCollection_7">
    <defs>
     <path d="M 260.927869 -110.520703 
L 233.527268 -110.520703 
L 234.548482 -104.987241 
L 235.401504 -100.878839 
L 235.866829 -97.67167 
L 237.677022 -92.924918 
L 239.79698 -88.19165 
L 242.500515 -83.969682 
L 247.149911 -79.688357 
L 251.587752 -75.548312 
L 258.052464 -71.570896 
L 266.386527 -68.131663 
L 271.507844 -65.12425 
L 274.466931 -62.798831 
L 279.351213 -61.439083 
L 286.473756 -60.80936 
L 293.174143 -60.539548 
L 302.62149 -60.434463 
L 313.413949 -60.393478 
L 327.76867 -60.386476 
L 340.219052 -60.38529 
L 354.205186 -60.385108 
L 369.650702 -60.385091 
L 392.468744 -60.385091 
L 400.706038 -60.385091 
L 403.782988 -60.385091 
L 403.782988 -60.385091 
L 405.524837 -60.385091 
L 371.809566 -60.385091 
L 357.770376 -60.385108 
L 344.346217 -60.38529 
L 331.789575 -60.386476 
L 321.618462 -60.393478 
L 310.222595 -60.434463 
L 303.049337 -60.539548 
L 291.058255 -60.80936 
L 280.209959 -61.439083 
L 275.321395 -62.798831 
L 272.363731 -65.12425 
L 267.61276 -68.131663 
L 260.622354 -71.570896 
L 254.456103 -75.548312 
L 252.257333 -79.688357 
L 263.349987 -83.969682 
L 246.270513 -88.19165 
L 242.917197 -92.924918 
L 242.245271 -97.67167 
L 241.233545 -100.878839 
L 241.718007 -104.987241 
L 260.927869 -110.520703 
z
" id="mc97fd7d450" style="stroke:#e377c2;stroke-opacity:0.3;"/>
    </defs>
    <g clip-path="url(#pa06723a566)">
     <use style="fill:#e377c2;fill-opacity:0.3;stroke:#e377c2;stroke-opacity:0.3;" x="0" xlink:href="#mc97fd7d450" y="345.6"/>
    </g>
   </g>
   <g id="PolyCollection_8">
    <defs>
     <path d="M 235.667154 -103.249205 
L 200.437203 -103.249205 
L 202.608771 -92.151942 
L 205.848905 -90.654424 
L 207.027013 -86.252605 
L 213.099864 -80.819956 
L 219.182137 -74.576158 
L 226.811236 -69.461301 
L 237.172581 -64.001966 
L 248.175228 -61.005183 
L 256.441224 -60.491719 
L 267.284412 -60.402078 
L 280.675001 -60.385857 
L 291.322221 -60.385109 
L 306.722447 -60.385091 
L 318.570244 -60.385091 
L 321.176423 -60.385091 
L 318.067844 -60.385091 
L 318.06003 -60.385091 
L 317.8037 -60.385091 
L 317.738311 -60.385091 
L 323.432874 -60.385091 
L 323.432874 -60.385091 
L 326.239032 -60.385091 
L 322.403604 -60.385091 
L 322.288767 -60.385091 
L 323.212646 -60.385091 
L 326.11099 -60.385091 
L 310.994327 -60.385091 
L 297.438925 -60.385109 
L 283.454537 -60.385857 
L 276.28006 -60.402078 
L 277.67685 -60.491719 
L 257.936876 -61.005183 
L 255.333023 -64.001966 
L 248.419221 -69.461301 
L 243.29242 -74.576158 
L 251.454635 -80.819956 
L 239.235792 -86.252605 
L 236.379295 -90.654424 
L 236.023118 -92.151942 
L 235.667154 -103.249205 
z
" id="meb6cd041d2" style="stroke:#7f7f7f;stroke-opacity:0.3;"/>
    </defs>
    <g clip-path="url(#pa06723a566)">
     <use style="fill:#7f7f7f;fill-opacity:0.3;stroke:#7f7f7f;stroke-opacity:0.3;" x="0" xlink:href="#meb6cd041d2" y="345.6"/>
    </g>
   </g>
   <g id="PolyCollection_9">
    <defs>
     <path d="M 146.299353 -276.160837 
L 143.290185 -276.160837 
L 171.556583 -154.50849 
L 172.876894 -124.499973 
L 172.829043 -110.79919 
L 173.165863 -111.205723 
L 173.182332 -108.91843 
L 172.503751 -108.905814 
L 174.303502 -108.844469 
L 175.012666 -108.386213 
L 176.614095 -109.03131 
L 180.08081 -110.092559 
L 182.17347 -108.526762 
L 187.672108 -109.674269 
L 194.449067 -108.508642 
L 200.600832 -108.923724 
L 205.393306 -108.942667 
L 213.207233 -109.828203 
L 223.28945 -107.974277 
L 236.570505 -107.795044 
L 247.567751 -110.013817 
L 260.059687 -108.759234 
L 274.295778 -108.058836 
L 285.900915 -109.915579 
L 295.897194 -109.657789 
L 309.526662 -108.262398 
L 324.172912 -110.107713 
L 338.14872 -108.657905 
L 349.886273 -107.868945 
L 363.288152 -108.871457 
L 380.409299 -108.566946 
L 394.684672 -109.037184 
L 411.389757 -108.199763 
L 412.158206 -108.199763 
L 412.158206 -108.199763 
L 401.91955 -109.037184 
L 384.408158 -108.566946 
L 368.062654 -108.871457 
L 353.545514 -107.868945 
L 342.258501 -108.657905 
L 325.851017 -110.107713 
L 313.928506 -108.262398 
L 300.318227 -109.657789 
L 289.299775 -109.915579 
L 276.371061 -108.058836 
L 264.439987 -108.759234 
L 254.184192 -110.013817 
L 239.876357 -107.795044 
L 227.982845 -107.974277 
L 216.459323 -109.828203 
L 212.589647 -108.942667 
L 204.035226 -108.923724 
L 197.009037 -108.508642 
L 190.21036 -109.674269 
L 187.610878 -108.526762 
L 181.721711 -110.092559 
L 182.719752 -109.03131 
L 177.282624 -108.386213 
L 175.435157 -108.844469 
L 174.77736 -108.905814 
L 175.695627 -108.91843 
L 175.666373 -111.205723 
L 174.463862 -110.79919 
L 173.98883 -124.499973 
L 172.600404 -154.50849 
L 146.299353 -276.160837 
z
" id="m914a318253" style="stroke:#bcbd22;stroke-opacity:0.3;"/>
    </defs>
    <g clip-path="url(#pa06723a566)">
     <use style="fill:#bcbd22;fill-opacity:0.3;stroke:#bcbd22;stroke-opacity:0.3;" x="0" xlink:href="#m914a318253" y="345.6"/>
    </g>
   </g>
   <g id="PolyCollection_10">
    <defs>
     <path d="M 218.437583 -110.520703 
L 208.391102 -110.520703 
L 218.015186 -104.987241 
L 218.765865 -100.878839 
L 218.289939 -97.67167 
L 219.75827 -92.924918 
L 220.225074 -88.19165 
L 221.509336 -83.969682 
L 223.738825 -79.688357 
L 226.452043 -75.548312 
L 229.026912 -71.570896 
L 235.580928 -68.131663 
L 242.161093 -65.12425 
L 248.599575 -62.798831 
L 257.450553 -61.439083 
L 268.066437 -60.80936 
L 279.771476 -60.539548 
L 296.571752 -60.434463 
L 310.84813 -60.393478 
L 323.71317 -60.386476 
L 338.714006 -60.38529 
L 354.685401 -60.385108 
L 378.810044 -60.385091 
L 391.963675 -60.385091 
L 405.591751 -60.385091 
L 406.386831 -60.385091 
L 406.386831 -60.385091 
L 401.175555 -60.385091 
L 384.302533 -60.385091 
L 358.596248 -60.385108 
L 339.530362 -60.38529 
L 325.458344 -60.386476 
L 311.806389 -60.393478 
L 298.424893 -60.434463 
L 280.835908 -60.539548 
L 268.914501 -60.80936 
L 259.360153 -61.439083 
L 250.808473 -62.798831 
L 243.516717 -65.12425 
L 236.507949 -68.131663 
L 231.146826 -71.570896 
L 228.371526 -75.548312 
L 225.180239 -79.688357 
L 223.356446 -83.969682 
L 223.070904 -88.19165 
L 224.376224 -92.924918 
L 220.584037 -97.67167 
L 220.42045 -100.878839 
L 220.554574 -104.987241 
L 218.437583 -110.520703 
z
" id="mcf02dbd009" style="stroke:#17becf;stroke-opacity:0.3;"/>
    </defs>
    <g clip-path="url(#pa06723a566)">
     <use style="fill:#17becf;fill-opacity:0.3;stroke:#17becf;stroke-opacity:0.3;" x="0" xlink:href="#mcf02dbd009" y="345.6"/>
    </g>
   </g>
   <g id="PolyCollection_11">
    <defs>
     <path d="M 233.062196 -110.520703 
L 231.655965 -110.520703 
L 232.083315 -104.987241 
L 233.247143 -99.82098 
L 232.627075 -95.273418 
L 233.488835 -88.175053 
L 235.555071 -80.890931 
L 235.691882 -74.387827 
L 237.478862 -68.41613 
L 241.341655 -63.329562 
L 244.254011 -60.947895 
L 249.620086 -60.490641 
L 254.934917 -60.402866 
L 262.249033 -60.388934 
L 269.537192 -60.386271 
L 280.187677 -60.385291 
L 291.393442 -60.385151 
L 304.139598 -60.385094 
L 316.815688 -60.385092 
L 330.323433 -60.385091 
L 349.160485 -60.385091 
L 365.844895 -60.385091 
L 378.696721 -60.385091 
L 393.78319 -60.385091 
L 409.412768 -60.385091 
L 418.275401 -60.385091 
L 418.275401 -60.385091 
L 394.704723 -60.385091 
L 381.45921 -60.385091 
L 367.410151 -60.385091 
L 355.209737 -60.385091 
L 331.471356 -60.385091 
L 317.789605 -60.385092 
L 307.079421 -60.385094 
L 293.398901 -60.385151 
L 283.067978 -60.385291 
L 271.585107 -60.386271 
L 263.540124 -60.388934 
L 257.273071 -60.402866 
L 252.300344 -60.490641 
L 246.068733 -60.947895 
L 242.750602 -63.329562 
L 246.268631 -68.41613 
L 238.03868 -74.387827 
L 237.184979 -80.890931 
L 236.177722 -88.175053 
L 234.554401 -95.273418 
L 236.046301 -99.82098 
L 235.25431 -104.987241 
L 233.062196 -110.520703 
z
" id="m04f51edcc4" style="stroke:#1f77b4;stroke-opacity:0.3;"/>
    </defs>
    <g clip-path="url(#pa06723a566)">
     <use style="fill:#1f77b4;fill-opacity:0.3;stroke:#1f77b4;stroke-opacity:0.3;" x="0" xlink:href="#m04f51edcc4" y="345.6"/>
    </g>
   </g>
   <g id="PolyCollection_12">
    <defs>
     <path d="M 259.514049 -110.520703 
L 251.272902 -110.520703 
L 264.426162 -104.987241 
L 273.179905 -100.878839 
L 280.210947 -97.67167 
L 292.33834 -92.924918 
L 302.141869 -88.19165 
L 311.743819 -83.969682 
L 324.259157 -79.688357 
L 338.498584 -75.548312 
L 351.948121 -71.570896 
L 367.026468 -68.131663 
L 381.49523 -65.12425 
L 397.240671 -62.798831 
L 413.316246 -61.439083 
L 414.079876 -61.439083 
L 414.079876 -61.439083 
L 398.968565 -62.798831 
L 383.698674 -65.12425 
L 368.724213 -68.131663 
L 356.126437 -71.570896 
L 339.848529 -75.548312 
L 328.503051 -79.688357 
L 317.921045 -83.969682 
L 304.378216 -88.19165 
L 294.772373 -92.924918 
L 295.182449 -97.67167 
L 279.295037 -100.878839 
L 273.198901 -104.987241 
L 259.514049 -110.520703 
z
" id="m40cb2262e8" style="stroke:#ff7f0e;stroke-opacity:0.3;"/>
    </defs>
    <g clip-path="url(#pa06723a566)">
     <use style="fill:#ff7f0e;fill-opacity:0.3;stroke:#ff7f0e;stroke-opacity:0.3;" x="0" xlink:href="#m40cb2262e8" y="345.6"/>
    </g>
   </g>
   <g id="PolyCollection_13">
    <defs>
     <path d="M 166.945218 -90.803451 
L 147.847396 -90.803451 
L 148.772251 -65.486412 
L 156.610118 -62.17816 
L 156.80882 -61.083453 
L 161.891811 -60.449033 
L 169.261166 -60.388209 
L 173.144513 -60.385149 
L 182.357557 -60.385092 
L 193.370519 -60.385091 
L 208.288659 -60.385091 
L 219.544679 -60.385091 
L 232.290795 -60.385091 
L 245.353115 -60.385091 
L 259.631087 -60.385091 
L 274.158455 -60.385091 
L 285.901811 -60.385091 
L 286.535231 -60.385091 
L 286.535231 -60.385091 
L 275.795135 -60.385091 
L 260.474662 -60.385091 
L 247.229946 -60.385091 
L 234.642664 -60.385091 
L 222.300774 -60.385091 
L 213.285685 -60.385091 
L 200.883939 -60.385091 
L 189.947135 -60.385092 
L 186.116688 -60.385149 
L 184.439051 -60.388209 
L 176.346942 -60.449033 
L 169.733368 -61.083453 
L 173.883442 -62.17816 
L 169.868845 -65.486412 
L 166.945218 -90.803451 
z
" id="ma7313c7c46" style="stroke:#2ca02c;stroke-opacity:0.3;"/>
    </defs>
    <g clip-path="url(#pa06723a566)">
     <use style="fill:#2ca02c;fill-opacity:0.3;stroke:#2ca02c;stroke-opacity:0.3;" x="0" xlink:href="#ma7313c7c46" y="345.6"/>
    </g>
   </g>
   <g id="PolyCollection_14">
    <defs>
     <path d="M 404.034214 -90.803451 
L 401.942064 -90.803451 
L 429.6707 -65.486412 
L 429.653335 -62.205089 
L 430.153079 -62.205089 
L 430.153079 -62.205089 
L 433.255771 -65.486412 
L 404.034214 -90.803451 
z
" id="mf9a0514118" style="stroke:#d62728;stroke-opacity:0.3;"/>
    </defs>
    <g clip-path="url(#pa06723a566)">
     <use style="fill:#d62728;fill-opacity:0.3;stroke:#d62728;stroke-opacity:0.3;" x="0" xlink:href="#mf9a0514118" y="345.6"/>
    </g>
   </g>
   <g id="matplotlib.axis_1">
    <g id="xtick_1">
     <g id="line2d_1">
      <defs>
       <path d="M 0 0 
L 0 3.5 
" id="m83d73edf52" style="stroke:#000000;stroke-width:0.8;"/>
      </defs>
      <g>
       <use style="stroke:#000000;stroke-width:0.8;" x="153.893679" xlink:href="#m83d73edf52" y="296.728"/>
      </g>
     </g>
     <g id="text_1">
      <!-- $\mathdefault{10^{-2}}$ -->
      <g transform="translate(142.143679 311.326437)scale(0.1 -0.1)">
       <defs>
        <path d="M 12.40625 8.296875 
L 28.515625 8.296875 
L 28.515625 63.921875 
L 10.984375 60.40625 
L 10.984375 69.390625 
L 28.421875 72.90625 
L 38.28125 72.90625 
L 38.28125 8.296875 
L 54.390625 8.296875 
L 54.390625 0 
L 12.40625 0 
z
" id="DejaVuSans-49"/>
        <path d="M 31.78125 66.40625 
Q 24.171875 66.40625 20.328125 58.90625 
Q 16.5 51.421875 16.5 36.375 
Q 16.5 21.390625 20.328125 13.890625 
Q 24.171875 6.390625 31.78125 6.390625 
Q 39.453125 6.390625 43.28125 13.890625 
Q 47.125 21.390625 47.125 36.375 
Q 47.125 51.421875 43.28125 58.90625 
Q 39.453125 66.40625 31.78125 66.40625 
z
M 31.78125 74.21875 
Q 44.046875 74.21875 50.515625 64.515625 
Q 56.984375 54.828125 56.984375 36.375 
Q 56.984375 17.96875 50.515625 8.265625 
Q 44.046875 -1.421875 31.78125 -1.421875 
Q 19.53125 -1.421875 13.0625 8.265625 
Q 6.59375 17.96875 6.59375 36.375 
Q 6.59375 54.828125 13.0625 64.515625 
Q 19.53125 74.21875 31.78125 74.21875 
z
" id="DejaVuSans-48"/>
        <path d="M 10.59375 35.5 
L 73.1875 35.5 
L 73.1875 27.203125 
L 10.59375 27.203125 
z
" id="DejaVuSans-8722"/>
        <path d="M 19.1875 8.296875 
L 53.609375 8.296875 
L 53.609375 0 
L 7.328125 0 
L 7.328125 8.296875 
Q 12.9375 14.109375 22.625 23.890625 
Q 32.328125 33.6875 34.8125 36.53125 
Q 39.546875 41.84375 41.421875 45.53125 
Q 43.3125 49.21875 43.3125 52.78125 
Q 43.3125 58.59375 39.234375 62.25 
Q 35.15625 65.921875 28.609375 65.921875 
Q 23.96875 65.921875 18.8125 64.3125 
Q 13.671875 62.703125 7.8125 59.421875 
L 7.8125 69.390625 
Q 13.765625 71.78125 18.9375 73 
Q 24.125 74.21875 28.421875 74.21875 
Q 39.75 74.21875 46.484375 68.546875 
Q 53.21875 62.890625 53.21875 53.421875 
Q 53.21875 48.921875 51.53125 44.890625 
Q 49.859375 40.875 45.40625 35.40625 
Q 44.1875 33.984375 37.640625 27.21875 
Q 31.109375 20.453125 19.1875 8.296875 
z
" id="DejaVuSans-50"/>
       </defs>
       <use transform="translate(0 0.765625)" xlink:href="#DejaVuSans-49"/>
       <use transform="translate(63.623047 0.765625)" xlink:href="#DejaVuSans-48"/>
       <use transform="translate(128.203125 39.046875)scale(0.7)" xlink:href="#DejaVuSans-8722"/>
       <use transform="translate(186.855469 39.046875)scale(0.7)" xlink:href="#DejaVuSans-50"/>
      </g>
     </g>
    </g>
    <g id="xtick_2">
     <g id="line2d_2">
      <g>
       <use style="stroke:#000000;stroke-width:0.8;" x="244.192052" xlink:href="#m83d73edf52" y="296.728"/>
      </g>
     </g>
     <g id="text_2">
      <!-- $\mathdefault{10^{-1}}$ -->
      <g transform="translate(232.442052 311.326437)scale(0.1 -0.1)">
       <use transform="translate(0 0.684375)" xlink:href="#DejaVuSans-49"/>
       <use transform="translate(63.623047 0.684375)" xlink:href="#DejaVuSans-48"/>
       <use transform="translate(128.203125 38.965625)scale(0.7)" xlink:href="#DejaVuSans-8722"/>
       <use transform="translate(186.855469 38.965625)scale(0.7)" xlink:href="#DejaVuSans-49"/>
      </g>
     </g>
    </g>
    <g id="xtick_3">
     <g id="line2d_3">
      <g>
       <use style="stroke:#000000;stroke-width:0.8;" x="334.490424" xlink:href="#m83d73edf52" y="296.728"/>
      </g>
     </g>
     <g id="text_3">
      <!-- $\mathdefault{10^{0}}$ -->
      <g transform="translate(325.690424 311.326437)scale(0.1 -0.1)">
       <use transform="translate(0 0.765625)" xlink:href="#DejaVuSans-49"/>
       <use transform="translate(63.623047 0.765625)" xlink:href="#DejaVuSans-48"/>
       <use transform="translate(128.203125 39.046875)scale(0.7)" xlink:href="#DejaVuSans-48"/>
      </g>
     </g>
    </g>
    <g id="xtick_4">
     <g id="line2d_4">
      <g>
       <use style="stroke:#000000;stroke-width:0.8;" x="424.788796" xlink:href="#m83d73edf52" y="296.728"/>
      </g>
     </g>
     <g id="text_4">
      <!-- $\mathdefault{10^{1}}$ -->
      <g transform="translate(415.988796 311.326437)scale(0.1 -0.1)">
       <use transform="translate(0 0.684375)" xlink:href="#DejaVuSans-49"/>
       <use transform="translate(63.623047 0.684375)" xlink:href="#DejaVuSans-48"/>
       <use transform="translate(128.203125 38.965625)scale(0.7)" xlink:href="#DejaVuSans-49"/>
      </g>
     </g>
    </g>
    <g id="xtick_5">
     <g id="line2d_5">
      <defs>
       <path d="M 0 0 
L 0 2 
" id="mf220ab752e" style="stroke:#000000;stroke-width:0.6;"/>
      </defs>
      <g>
       <use style="stroke:#000000;stroke-width:0.6;" x="90.777826" xlink:href="#mf220ab752e" y="296.728"/>
      </g>
     </g>
    </g>
    <g id="xtick_6">
     <g id="line2d_6">
      <g>
       <use style="stroke:#000000;stroke-width:0.6;" x="106.67858" xlink:href="#mf220ab752e" y="296.728"/>
      </g>
     </g>
    </g>
    <g id="xtick_7">
     <g id="line2d_7">
      <g>
       <use style="stroke:#000000;stroke-width:0.6;" x="117.960344" xlink:href="#mf220ab752e" y="296.728"/>
      </g>
     </g>
    </g>
    <g id="xtick_8">
     <g id="line2d_8">
      <g>
       <use style="stroke:#000000;stroke-width:0.6;" x="126.711161" xlink:href="#mf220ab752e" y="296.728"/>
      </g>
     </g>
    </g>
    <g id="xtick_9">
     <g id="line2d_9">
      <g>
       <use style="stroke:#000000;stroke-width:0.6;" x="133.861098" xlink:href="#mf220ab752e" y="296.728"/>
      </g>
     </g>
    </g>
    <g id="xtick_10">
     <g id="line2d_10">
      <g>
       <use style="stroke:#000000;stroke-width:0.6;" x="139.906285" xlink:href="#mf220ab752e" y="296.728"/>
      </g>
     </g>
    </g>
    <g id="xtick_11">
     <g id="line2d_11">
      <g>
       <use style="stroke:#000000;stroke-width:0.6;" x="145.142863" xlink:href="#mf220ab752e" y="296.728"/>
      </g>
     </g>
    </g>
    <g id="xtick_12">
     <g id="line2d_12">
      <g>
       <use style="stroke:#000000;stroke-width:0.6;" x="149.761852" xlink:href="#mf220ab752e" y="296.728"/>
      </g>
     </g>
    </g>
    <g id="xtick_13">
     <g id="line2d_13">
      <g>
       <use style="stroke:#000000;stroke-width:0.6;" x="181.076198" xlink:href="#mf220ab752e" y="296.728"/>
      </g>
     </g>
    </g>
    <g id="xtick_14">
     <g id="line2d_14">
      <g>
       <use style="stroke:#000000;stroke-width:0.6;" x="196.976952" xlink:href="#mf220ab752e" y="296.728"/>
      </g>
     </g>
    </g>
    <g id="xtick_15">
     <g id="line2d_15">
      <g>
       <use style="stroke:#000000;stroke-width:0.6;" x="208.258717" xlink:href="#mf220ab752e" y="296.728"/>
      </g>
     </g>
    </g>
    <g id="xtick_16">
     <g id="line2d_16">
      <g>
       <use style="stroke:#000000;stroke-width:0.6;" x="217.009533" xlink:href="#mf220ab752e" y="296.728"/>
      </g>
     </g>
    </g>
    <g id="xtick_17">
     <g id="line2d_17">
      <g>
       <use style="stroke:#000000;stroke-width:0.6;" x="224.159471" xlink:href="#mf220ab752e" y="296.728"/>
      </g>
     </g>
    </g>
    <g id="xtick_18">
     <g id="line2d_18">
      <g>
       <use style="stroke:#000000;stroke-width:0.6;" x="230.204657" xlink:href="#mf220ab752e" y="296.728"/>
      </g>
     </g>
    </g>
    <g id="xtick_19">
     <g id="line2d_19">
      <g>
       <use style="stroke:#000000;stroke-width:0.6;" x="235.441235" xlink:href="#mf220ab752e" y="296.728"/>
      </g>
     </g>
    </g>
    <g id="xtick_20">
     <g id="line2d_20">
      <g>
       <use style="stroke:#000000;stroke-width:0.6;" x="240.060225" xlink:href="#mf220ab752e" y="296.728"/>
      </g>
     </g>
    </g>
    <g id="xtick_21">
     <g id="line2d_21">
      <g>
       <use style="stroke:#000000;stroke-width:0.6;" x="271.37457" xlink:href="#mf220ab752e" y="296.728"/>
      </g>
     </g>
    </g>
    <g id="xtick_22">
     <g id="line2d_22">
      <g>
       <use style="stroke:#000000;stroke-width:0.6;" x="287.275324" xlink:href="#mf220ab752e" y="296.728"/>
      </g>
     </g>
    </g>
    <g id="xtick_23">
     <g id="line2d_23">
      <g>
       <use style="stroke:#000000;stroke-width:0.6;" x="298.557089" xlink:href="#mf220ab752e" y="296.728"/>
      </g>
     </g>
    </g>
    <g id="xtick_24">
     <g id="line2d_24">
      <g>
       <use style="stroke:#000000;stroke-width:0.6;" x="307.307905" xlink:href="#mf220ab752e" y="296.728"/>
      </g>
     </g>
    </g>
    <g id="xtick_25">
     <g id="line2d_25">
      <g>
       <use style="stroke:#000000;stroke-width:0.6;" x="314.457843" xlink:href="#mf220ab752e" y="296.728"/>
      </g>
     </g>
    </g>
    <g id="xtick_26">
     <g id="line2d_26">
      <g>
       <use style="stroke:#000000;stroke-width:0.6;" x="320.503029" xlink:href="#mf220ab752e" y="296.728"/>
      </g>
     </g>
    </g>
    <g id="xtick_27">
     <g id="line2d_27">
      <g>
       <use style="stroke:#000000;stroke-width:0.6;" x="325.739608" xlink:href="#mf220ab752e" y="296.728"/>
      </g>
     </g>
    </g>
    <g id="xtick_28">
     <g id="line2d_28">
      <g>
       <use style="stroke:#000000;stroke-width:0.6;" x="330.358597" xlink:href="#mf220ab752e" y="296.728"/>
      </g>
     </g>
    </g>
    <g id="xtick_29">
     <g id="line2d_29">
      <g>
       <use style="stroke:#000000;stroke-width:0.6;" x="361.672943" xlink:href="#mf220ab752e" y="296.728"/>
      </g>
     </g>
    </g>
    <g id="xtick_30">
     <g id="line2d_30">
      <g>
       <use style="stroke:#000000;stroke-width:0.6;" x="377.573697" xlink:href="#mf220ab752e" y="296.728"/>
      </g>
     </g>
    </g>
    <g id="xtick_31">
     <g id="line2d_31">
      <g>
       <use style="stroke:#000000;stroke-width:0.6;" x="388.855461" xlink:href="#mf220ab752e" y="296.728"/>
      </g>
     </g>
    </g>
    <g id="xtick_32">
     <g id="line2d_32">
      <g>
       <use style="stroke:#000000;stroke-width:0.6;" x="397.606278" xlink:href="#mf220ab752e" y="296.728"/>
      </g>
     </g>
    </g>
    <g id="xtick_33">
     <g id="line2d_33">
      <g>
       <use style="stroke:#000000;stroke-width:0.6;" x="404.756215" xlink:href="#mf220ab752e" y="296.728"/>
      </g>
     </g>
    </g>
    <g id="xtick_34">
     <g id="line2d_34">
      <g>
       <use style="stroke:#000000;stroke-width:0.6;" x="410.801402" xlink:href="#mf220ab752e" y="296.728"/>
      </g>
     </g>
    </g>
    <g id="xtick_35">
     <g id="line2d_35">
      <g>
       <use style="stroke:#000000;stroke-width:0.6;" x="416.03798" xlink:href="#mf220ab752e" y="296.728"/>
      </g>
     </g>
    </g>
    <g id="xtick_36">
     <g id="line2d_36">
      <g>
       <use style="stroke:#000000;stroke-width:0.6;" x="420.65697" xlink:href="#mf220ab752e" y="296.728"/>
      </g>
     </g>
    </g>
    <g id="text_5">
     <!-- Time [sec] -->
     <g transform="translate(229.196921 328.043937)scale(0.14 -0.14)">
      <defs>
       <path d="M -0.296875 72.90625 
L 61.375 72.90625 
L 61.375 64.59375 
L 35.5 64.59375 
L 35.5 0 
L 25.59375 0 
L 25.59375 64.59375 
L -0.296875 64.59375 
z
" id="DejaVuSans-84"/>
       <path d="M 9.421875 54.6875 
L 18.40625 54.6875 
L 18.40625 0 
L 9.421875 0 
z
M 9.421875 75.984375 
L 18.40625 75.984375 
L 18.40625 64.59375 
L 9.421875 64.59375 
z
" id="DejaVuSans-105"/>
       <path d="M 52 44.1875 
Q 55.375 50.25 60.0625 53.125 
Q 64.75 56 71.09375 56 
Q 79.640625 56 84.28125 50.015625 
Q 88.921875 44.046875 88.921875 33.015625 
L 88.921875 0 
L 79.890625 0 
L 79.890625 32.71875 
Q 79.890625 40.578125 77.09375 44.375 
Q 74.3125 48.1875 68.609375 48.1875 
Q 61.625 48.1875 57.5625 43.546875 
Q 53.515625 38.921875 53.515625 30.90625 
L 53.515625 0 
L 44.484375 0 
L 44.484375 32.71875 
Q 44.484375 40.625 41.703125 44.40625 
Q 38.921875 48.1875 33.109375 48.1875 
Q 26.21875 48.1875 22.15625 43.53125 
Q 18.109375 38.875 18.109375 30.90625 
L 18.109375 0 
L 9.078125 0 
L 9.078125 54.6875 
L 18.109375 54.6875 
L 18.109375 46.1875 
Q 21.1875 51.21875 25.484375 53.609375 
Q 29.78125 56 35.6875 56 
Q 41.65625 56 45.828125 52.96875 
Q 50 49.953125 52 44.1875 
z
" id="DejaVuSans-109"/>
       <path d="M 56.203125 29.59375 
L 56.203125 25.203125 
L 14.890625 25.203125 
Q 15.484375 15.921875 20.484375 11.0625 
Q 25.484375 6.203125 34.421875 6.203125 
Q 39.59375 6.203125 44.453125 7.46875 
Q 49.3125 8.734375 54.109375 11.28125 
L 54.109375 2.78125 
Q 49.265625 0.734375 44.1875 -0.34375 
Q 39.109375 -1.421875 33.890625 -1.421875 
Q 20.796875 -1.421875 13.15625 6.1875 
Q 5.515625 13.8125 5.515625 26.8125 
Q 5.515625 40.234375 12.765625 48.109375 
Q 20.015625 56 32.328125 56 
Q 43.359375 56 49.78125 48.890625 
Q 56.203125 41.796875 56.203125 29.59375 
z
M 47.21875 32.234375 
Q 47.125 39.59375 43.09375 43.984375 
Q 39.0625 48.390625 32.421875 48.390625 
Q 24.90625 48.390625 20.390625 44.140625 
Q 15.875 39.890625 15.1875 32.171875 
z
" id="DejaVuSans-101"/>
       <path id="DejaVuSans-32"/>
       <path d="M 8.59375 75.984375 
L 29.296875 75.984375 
L 29.296875 69 
L 17.578125 69 
L 17.578125 -6.203125 
L 29.296875 -6.203125 
L 29.296875 -13.1875 
L 8.59375 -13.1875 
z
" id="DejaVuSans-91"/>
       <path d="M 44.28125 53.078125 
L 44.28125 44.578125 
Q 40.484375 46.53125 36.375 47.5 
Q 32.28125 48.484375 27.875 48.484375 
Q 21.1875 48.484375 17.84375 46.4375 
Q 14.5 44.390625 14.5 40.28125 
Q 14.5 37.15625 16.890625 35.375 
Q 19.28125 33.59375 26.515625 31.984375 
L 29.59375 31.296875 
Q 39.15625 29.25 43.1875 25.515625 
Q 47.21875 21.78125 47.21875 15.09375 
Q 47.21875 7.46875 41.1875 3.015625 
Q 35.15625 -1.421875 24.609375 -1.421875 
Q 20.21875 -1.421875 15.453125 -0.5625 
Q 10.6875 0.296875 5.421875 2 
L 5.421875 11.28125 
Q 10.40625 8.6875 15.234375 7.390625 
Q 20.0625 6.109375 24.8125 6.109375 
Q 31.15625 6.109375 34.5625 8.28125 
Q 37.984375 10.453125 37.984375 14.40625 
Q 37.984375 18.0625 35.515625 20.015625 
Q 33.0625 21.96875 24.703125 23.78125 
L 21.578125 24.515625 
Q 13.234375 26.265625 9.515625 29.90625 
Q 5.8125 33.546875 5.8125 39.890625 
Q 5.8125 47.609375 11.28125 51.796875 
Q 16.75 56 26.8125 56 
Q 31.78125 56 36.171875 55.265625 
Q 40.578125 54.546875 44.28125 53.078125 
z
" id="DejaVuSans-115"/>
       <path d="M 48.78125 52.59375 
L 48.78125 44.1875 
Q 44.96875 46.296875 41.140625 47.34375 
Q 37.3125 48.390625 33.40625 48.390625 
Q 24.65625 48.390625 19.8125 42.84375 
Q 14.984375 37.3125 14.984375 27.296875 
Q 14.984375 17.28125 19.8125 11.734375 
Q 24.65625 6.203125 33.40625 6.203125 
Q 37.3125 6.203125 41.140625 7.25 
Q 44.96875 8.296875 48.78125 10.40625 
L 48.78125 2.09375 
Q 45.015625 0.34375 40.984375 -0.53125 
Q 36.96875 -1.421875 32.421875 -1.421875 
Q 20.0625 -1.421875 12.78125 6.34375 
Q 5.515625 14.109375 5.515625 27.296875 
Q 5.515625 40.671875 12.859375 48.328125 
Q 20.21875 56 33.015625 56 
Q 37.15625 56 41.109375 55.140625 
Q 45.0625 54.296875 48.78125 52.59375 
z
" id="DejaVuSans-99"/>
       <path d="M 30.421875 75.984375 
L 30.421875 -13.1875 
L 9.71875 -13.1875 
L 9.71875 -6.203125 
L 21.390625 -6.203125 
L 21.390625 69 
L 9.71875 69 
L 9.71875 75.984375 
z
" id="DejaVuSans-93"/>
      </defs>
      <use xlink:href="#DejaVuSans-84"/>
      <use x="57.958984" xlink:href="#DejaVuSans-105"/>
      <use x="85.742188" xlink:href="#DejaVuSans-109"/>
      <use x="183.154297" xlink:href="#DejaVuSans-101"/>
      <use x="244.677734" xlink:href="#DejaVuSans-32"/>
      <use x="276.464844" xlink:href="#DejaVuSans-91"/>
      <use x="315.478516" xlink:href="#DejaVuSans-115"/>
      <use x="367.578125" xlink:href="#DejaVuSans-101"/>
      <use x="429.101562" xlink:href="#DejaVuSans-99"/>
      <use x="484.082031" xlink:href="#DejaVuSans-93"/>
     </g>
    </g>
   </g>
   <g id="matplotlib.axis_2">
    <g id="ytick_1">
     <g id="line2d_37">
      <defs>
       <path d="M 0 0 
L -2 0 
" id="m694a16d5e0" style="stroke:#000000;stroke-width:0.6;"/>
      </defs>
      <g>
       <use style="stroke:#000000;stroke-width:0.6;" x="81.626967" xlink:href="#m694a16d5e0" y="247.838269"/>
      </g>
     </g>
     <g id="text_6">
      <!-- $\mathdefault{1.2\times10^{5}}$ -->
      <g transform="translate(31.026967 251.637488)scale(0.1 -0.1)">
       <defs>
        <path d="M 10.6875 12.40625 
L 21 12.40625 
L 21 0 
L 10.6875 0 
z
" id="DejaVuSans-46"/>
        <path d="M 70.125 53.71875 
L 47.796875 31.296875 
L 70.125 8.984375 
L 64.3125 3.078125 
L 41.890625 25.484375 
L 19.484375 3.078125 
L 13.71875 8.984375 
L 35.984375 31.296875 
L 13.71875 53.71875 
L 19.484375 59.625 
L 41.890625 37.203125 
L 64.3125 59.625 
z
" id="DejaVuSans-215"/>
        <path d="M 10.796875 72.90625 
L 49.515625 72.90625 
L 49.515625 64.59375 
L 19.828125 64.59375 
L 19.828125 46.734375 
Q 21.96875 47.46875 24.109375 47.828125 
Q 26.265625 48.1875 28.421875 48.1875 
Q 40.625 48.1875 47.75 41.5 
Q 54.890625 34.8125 54.890625 23.390625 
Q 54.890625 11.625 47.5625 5.09375 
Q 40.234375 -1.421875 26.90625 -1.421875 
Q 22.3125 -1.421875 17.546875 -0.640625 
Q 12.796875 0.140625 7.71875 1.703125 
L 7.71875 11.625 
Q 12.109375 9.234375 16.796875 8.0625 
Q 21.484375 6.890625 26.703125 6.890625 
Q 35.15625 6.890625 40.078125 11.328125 
Q 45.015625 15.765625 45.015625 23.390625 
Q 45.015625 31 40.078125 35.4375 
Q 35.15625 39.890625 26.703125 39.890625 
Q 22.75 39.890625 18.8125 39.015625 
Q 14.890625 38.140625 10.796875 36.28125 
z
" id="DejaVuSans-53"/>
       </defs>
       <use transform="translate(0 0.684375)" xlink:href="#DejaVuSans-49"/>
       <use transform="translate(63.623047 0.684375)" xlink:href="#DejaVuSans-46"/>
       <use transform="translate(89.910156 0.684375)" xlink:href="#DejaVuSans-50"/>
       <use transform="translate(173.015625 0.684375)" xlink:href="#DejaVuSans-215"/>
       <use transform="translate(276.287109 0.684375)" xlink:href="#DejaVuSans-49"/>
       <use transform="translate(339.910156 0.684375)" xlink:href="#DejaVuSans-48"/>
       <use transform="translate(404.490234 38.965625)scale(0.7)" xlink:href="#DejaVuSans-53"/>
      </g>
     </g>
    </g>
    <g id="ytick_2">
     <g id="line2d_38">
      <g>
       <use style="stroke:#000000;stroke-width:0.6;" x="81.626967" xlink:href="#m694a16d5e0" y="187.576297"/>
      </g>
     </g>
     <g id="text_7">
      <!-- $\mathdefault{1.4\times10^{5}}$ -->
      <g transform="translate(30.426967 191.375516)scale(0.1 -0.1)">
       <defs>
        <path d="M 37.796875 64.3125 
L 12.890625 25.390625 
L 37.796875 25.390625 
z
M 35.203125 72.90625 
L 47.609375 72.90625 
L 47.609375 25.390625 
L 58.015625 25.390625 
L 58.015625 17.1875 
L 47.609375 17.1875 
L 47.609375 0 
L 37.796875 0 
L 37.796875 17.1875 
L 4.890625 17.1875 
L 4.890625 26.703125 
z
" id="DejaVuSans-52"/>
       </defs>
       <use transform="translate(0 0.684375)" xlink:href="#DejaVuSans-49"/>
       <use transform="translate(63.623047 0.684375)" xlink:href="#DejaVuSans-46"/>
       <use transform="translate(95.410156 0.684375)" xlink:href="#DejaVuSans-52"/>
       <use transform="translate(178.515625 0.684375)" xlink:href="#DejaVuSans-215"/>
       <use transform="translate(281.787109 0.684375)" xlink:href="#DejaVuSans-49"/>
       <use transform="translate(345.410156 0.684375)" xlink:href="#DejaVuSans-48"/>
       <use transform="translate(409.990234 38.965625)scale(0.7)" xlink:href="#DejaVuSans-53"/>
      </g>
     </g>
    </g>
    <g id="ytick_3">
     <g id="line2d_39">
      <g>
       <use style="stroke:#000000;stroke-width:0.6;" x="81.626967" xlink:href="#m694a16d5e0" y="135.375002"/>
      </g>
     </g>
     <g id="text_8">
      <!-- $\mathdefault{1.6\times10^{5}}$ -->
      <g transform="translate(30.426967 139.174221)scale(0.1 -0.1)">
       <defs>
        <path d="M 33.015625 40.375 
Q 26.375 40.375 22.484375 35.828125 
Q 18.609375 31.296875 18.609375 23.390625 
Q 18.609375 15.53125 22.484375 10.953125 
Q 26.375 6.390625 33.015625 6.390625 
Q 39.65625 6.390625 43.53125 10.953125 
Q 47.40625 15.53125 47.40625 23.390625 
Q 47.40625 31.296875 43.53125 35.828125 
Q 39.65625 40.375 33.015625 40.375 
z
M 52.59375 71.296875 
L 52.59375 62.3125 
Q 48.875 64.0625 45.09375 64.984375 
Q 41.3125 65.921875 37.59375 65.921875 
Q 27.828125 65.921875 22.671875 59.328125 
Q 17.53125 52.734375 16.796875 39.40625 
Q 19.671875 43.65625 24.015625 45.921875 
Q 28.375 48.1875 33.59375 48.1875 
Q 44.578125 48.1875 50.953125 41.515625 
Q 57.328125 34.859375 57.328125 23.390625 
Q 57.328125 12.15625 50.6875 5.359375 
Q 44.046875 -1.421875 33.015625 -1.421875 
Q 20.359375 -1.421875 13.671875 8.265625 
Q 6.984375 17.96875 6.984375 36.375 
Q 6.984375 53.65625 15.1875 63.9375 
Q 23.390625 74.21875 37.203125 74.21875 
Q 40.921875 74.21875 44.703125 73.484375 
Q 48.484375 72.75 52.59375 71.296875 
z
" id="DejaVuSans-54"/>
       </defs>
       <use transform="translate(0 0.684375)" xlink:href="#DejaVuSans-49"/>
       <use transform="translate(63.623047 0.684375)" xlink:href="#DejaVuSans-46"/>
       <use transform="translate(95.410156 0.684375)" xlink:href="#DejaVuSans-54"/>
       <use transform="translate(178.515625 0.684375)" xlink:href="#DejaVuSans-215"/>
       <use transform="translate(281.787109 0.684375)" xlink:href="#DejaVuSans-49"/>
       <use transform="translate(345.410156 0.684375)" xlink:href="#DejaVuSans-48"/>
       <use transform="translate(409.990234 38.965625)scale(0.7)" xlink:href="#DejaVuSans-53"/>
      </g>
     </g>
    </g>
    <g id="ytick_4">
     <g id="line2d_40">
      <g>
       <use style="stroke:#000000;stroke-width:0.6;" x="81.626967" xlink:href="#m694a16d5e0" y="89.330197"/>
      </g>
     </g>
     <g id="text_9">
      <!-- $\mathdefault{1.8\times10^{5}}$ -->
      <g transform="translate(30.726967 93.129416)scale(0.1 -0.1)">
       <defs>
        <path d="M 31.78125 34.625 
Q 24.75 34.625 20.71875 30.859375 
Q 16.703125 27.09375 16.703125 20.515625 
Q 16.703125 13.921875 20.71875 10.15625 
Q 24.75 6.390625 31.78125 6.390625 
Q 38.8125 6.390625 42.859375 10.171875 
Q 46.921875 13.96875 46.921875 20.515625 
Q 46.921875 27.09375 42.890625 30.859375 
Q 38.875 34.625 31.78125 34.625 
z
M 21.921875 38.8125 
Q 15.578125 40.375 12.03125 44.71875 
Q 8.5 49.078125 8.5 55.328125 
Q 8.5 64.0625 14.71875 69.140625 
Q 20.953125 74.21875 31.78125 74.21875 
Q 42.671875 74.21875 48.875 69.140625 
Q 55.078125 64.0625 55.078125 55.328125 
Q 55.078125 49.078125 51.53125 44.71875 
Q 48 40.375 41.703125 38.8125 
Q 48.828125 37.15625 52.796875 32.3125 
Q 56.78125 27.484375 56.78125 20.515625 
Q 56.78125 9.90625 50.3125 4.234375 
Q 43.84375 -1.421875 31.78125 -1.421875 
Q 19.734375 -1.421875 13.25 4.234375 
Q 6.78125 9.90625 6.78125 20.515625 
Q 6.78125 27.484375 10.78125 32.3125 
Q 14.796875 37.15625 21.921875 38.8125 
z
M 18.3125 54.390625 
Q 18.3125 48.734375 21.84375 45.5625 
Q 25.390625 42.390625 31.78125 42.390625 
Q 38.140625 42.390625 41.71875 45.5625 
Q 45.3125 48.734375 45.3125 54.390625 
Q 45.3125 60.0625 41.71875 63.234375 
Q 38.140625 66.40625 31.78125 66.40625 
Q 25.390625 66.40625 21.84375 63.234375 
Q 18.3125 60.0625 18.3125 54.390625 
z
" id="DejaVuSans-56"/>
       </defs>
       <use transform="translate(0 0.684375)" xlink:href="#DejaVuSans-49"/>
       <use transform="translate(63.623047 0.684375)" xlink:href="#DejaVuSans-46"/>
       <use transform="translate(92.785156 0.684375)" xlink:href="#DejaVuSans-56"/>
       <use transform="translate(175.890625 0.684375)" xlink:href="#DejaVuSans-215"/>
       <use transform="translate(279.162109 0.684375)" xlink:href="#DejaVuSans-49"/>
       <use transform="translate(342.785156 0.684375)" xlink:href="#DejaVuSans-48"/>
       <use transform="translate(407.365234 38.965625)scale(0.7)" xlink:href="#DejaVuSans-53"/>
      </g>
     </g>
    </g>
    <g id="ytick_5">
     <g id="line2d_41">
      <g>
       <use style="stroke:#000000;stroke-width:0.6;" x="81.626967" xlink:href="#m694a16d5e0" y="48.141716"/>
      </g>
     </g>
     <g id="text_10">
      <!-- $\mathdefault{2\times10^{5}}$ -->
      <g transform="translate(40.026967 51.940934)scale(0.1 -0.1)">
       <use transform="translate(0 0.684375)" xlink:href="#DejaVuSans-50"/>
       <use transform="translate(83.105469 0.684375)" xlink:href="#DejaVuSans-215"/>
       <use transform="translate(186.376953 0.684375)" xlink:href="#DejaVuSans-49"/>
       <use transform="translate(250 0.684375)" xlink:href="#DejaVuSans-48"/>
       <use transform="translate(314.580078 38.965625)scale(0.7)" xlink:href="#DejaVuSans-53"/>
      </g>
     </g>
    </g>
    <g id="text_11">
     <!-- $F(x)$ -->
     <g transform="translate(23.515404 183.734)rotate(-90)scale(0.14 -0.14)">
      <defs>
       <path d="M 16.890625 72.90625 
L 58.6875 72.90625 
L 57.078125 64.59375 
L 25.09375 64.59375 
L 20.90625 43.109375 
L 49.8125 43.109375 
L 48.1875 34.8125 
L 19.28125 34.8125 
L 12.5 0 
L 2.6875 0 
z
" id="DejaVuSans-Oblique-70"/>
       <path d="M 31 75.875 
Q 24.46875 64.65625 21.28125 53.65625 
Q 18.109375 42.671875 18.109375 31.390625 
Q 18.109375 20.125 21.3125 9.0625 
Q 24.515625 -2 31 -13.1875 
L 23.1875 -13.1875 
Q 15.875 -1.703125 12.234375 9.375 
Q 8.59375 20.453125 8.59375 31.390625 
Q 8.59375 42.28125 12.203125 53.3125 
Q 15.828125 64.359375 23.1875 75.875 
z
" id="DejaVuSans-40"/>
       <path d="M 60.015625 54.6875 
L 34.90625 27.875 
L 50.296875 0 
L 39.984375 0 
L 28.421875 21.6875 
L 8.296875 0 
L -2.59375 0 
L 24.3125 28.8125 
L 10.015625 54.6875 
L 20.3125 54.6875 
L 30.8125 34.90625 
L 49.125 54.6875 
z
" id="DejaVuSans-Oblique-120"/>
       <path d="M 8.015625 75.875 
L 15.828125 75.875 
Q 23.140625 64.359375 26.78125 53.3125 
Q 30.421875 42.28125 30.421875 31.390625 
Q 30.421875 20.453125 26.78125 9.375 
Q 23.140625 -1.703125 15.828125 -13.1875 
L 8.015625 -13.1875 
Q 14.5 -2 17.703125 9.0625 
Q 20.90625 20.125 20.90625 31.390625 
Q 20.90625 42.671875 17.703125 53.65625 
Q 14.5 64.65625 8.015625 75.875 
z
" id="DejaVuSans-41"/>
      </defs>
      <use transform="translate(0 0.125)" xlink:href="#DejaVuSans-Oblique-70"/>
      <use transform="translate(57.519531 0.125)" xlink:href="#DejaVuSans-40"/>
      <use transform="translate(96.533203 0.125)" xlink:href="#DejaVuSans-Oblique-120"/>
      <use transform="translate(155.712891 0.125)" xlink:href="#DejaVuSans-41"/>
     </g>
    </g>
   </g>
   <g id="line2d_42">
    <path clip-path="url(#pa06723a566)" d="M 152.386134 285.214909 
L 151.756535 285.214909 
L 153.287216 285.214909 
L 151.923791 285.214909 
L 150.758676 285.214909 
L 150.904861 285.214909 
L 151.668152 285.214909 
L 152.080661 285.214909 
L 150.778823 285.214909 
L 149.889884 285.214909 
L 149.263774 285.214909 
L 150.498608 285.214909 
L 148.887279 285.214909 
L 149.43432 285.214909 
L 149.753041 285.214909 
L 147.961153 285.214909 
L 148.433962 285.214909 
L 147.964214 285.214909 
L 148.389977 285.214909 
L 147.932511 285.214909 
L 148.289491 285.214909 
L 147.652517 285.214909 
L 147.807521 285.214909 
L 145.751682 285.214909 
L 147.036824 285.214909 
L 145.983795 285.214909 
L 146.725557 285.214908 
L 145.290522 285.214908 
L 145.199773 285.214909 
L 145.361139 285.214908 
L 147.227869 285.214909 
L 149.508484 285.214908 
L 147.213006 285.214908 
L 145.269796 285.214909 
L 144.200162 285.214908 
L 144.779564 285.214512 
L 142.847174 285.214095 
L 142.547878 285.211951 
L 141.242137 285.211693 
L 141.114153 285.212171 
L 136.49607 285.199534 
L 135.145475 285.198828 
L 136.794604 285.199536 
L 136.271351 285.199669 
L 138.866706 285.198735 
L 136.105577 284.951541 
L 130.29075 280.432496 
L 99.04404 282.092627 
L 99.710933 268.951412 
L 99.640108 280.017368 
L 99.140607 269.148891 
" style="fill:none;stroke:#1f77b4;stroke-linecap:square;stroke-width:3;"/>
   </g>
   <g id="line2d_43">
    <path clip-path="url(#pa06723a566)" d="M 138.54794 254.796549 
L 129.765413 280.113588 
L 143.599275 283.42184 
L 151.292339 284.516547 
L 153.956888 285.150967 
L 172.459352 285.211791 
L 176.476446 285.214851 
L 185.537062 285.214908 
L 198.760924 285.214909 
L 213.203861 285.214909 
L 228.122946 285.214909 
L 243.190009 285.214909 
L 257.221972 285.214909 
L 276.798232 285.214909 
L 300.353609 285.214909 
L 329.59898 285.214909 
" style="fill:none;stroke:#ff7f0e;stroke-linecap:square;stroke-width:3;"/>
   </g>
   <g id="line2d_44">
    <path clip-path="url(#pa06723a566)" d="M 129.989282 269.329207 
L 144.552041 283.183724 
L 152.843533 285.198575 
L 160.664667 285.214863 
L 164.54427 285.214909 
L 169.5853 285.214909 
L 171.720653 285.214909 
L 167.021521 285.214909 
L 167.866371 285.214909 
L 169.386625 285.214909 
L 167.35115 285.214909 
" style="fill:none;stroke:#2ca02c;stroke-linecap:square;stroke-width:3;"/>
   </g>
   <g id="line2d_45">
    <path clip-path="url(#pa06723a566)" d="M 297.519635 129.493264 
L 310.870673 129.493264 
L 322.040497 129.493264 
L 342.444887 129.493264 
L 374.311443 54.953091 
L 390.708232 285.212679 
L 389.452298 285.212679 
L 389.312694 285.212679 
L 389.29809 285.212679 
" style="fill:none;stroke:#d62728;stroke-linecap:square;stroke-width:3;"/>
   </g>
   <g id="line2d_46">
    <path clip-path="url(#pa06723a566)" d="M 130.522268 227.14099 
L 135.845673 238.640426 
L 146.146236 260.34257 
L 145.651008 262.168438 
L 152.966987 265.46861 
L 160.461863 271.260091 
L 175.165801 272.565134 
L 185.271924 272.565134 
L 202.501461 283.733759 
L 220.640181 285.076515 
L 244.233124 285.213172 
L 261.520451 285.214909 
L 279.796519 285.214909 
L 299.407239 285.214909 
L 321.424064 285.214909 
L 344.931994 285.214909 
L 369.437448 285.214909 
L 395.706173 285.214909 
L 405.406677 285.214909 
L 409.430074 285.214909 
" style="fill:none;stroke:#9467bd;stroke-linecap:square;stroke-width:3;"/>
   </g>
   <g id="line2d_47">
    <path clip-path="url(#pa06723a566)" d="M 197.770885 227.14099 
L 220.07293 227.512238 
L 209.317057 227.512238 
L 206.360025 227.876076 
L 207.238572 228.232608 
L 219.066941 228.924172 
L 214.738887 230.224142 
L 227.977221 232.24866 
L 226.190576 234.911244 
L 237.476375 240.993784 
L 237.429272 249.096753 
L 248.708337 260.945846 
L 259.06377 274.796627 
L 268.681988 284.788039 
L 269.899228 285.214909 
L 268.231258 285.214909 
L 268.345692 285.214909 
L 267.757997 285.214909 
L 268.122949 285.214909 
L 266.639268 285.214909 
" style="fill:none;stroke:#8c564b;stroke-linecap:square;stroke-width:3;"/>
   </g>
   <g id="line2d_48">
    <path clip-path="url(#pa06723a566)" d="M 238.276564 235.079297 
L 234.810949 240.612759 
L 235.600927 244.721161 
L 236.185839 247.92833 
L 239.090716 252.675082 
L 239.83714 257.40835 
L 243.732936 261.630318 
L 249.244341 265.911643 
L 253.59179 270.051688 
L 259.052198 274.029104 
L 267.11324 277.468337 
L 271.808655 280.47575 
L 274.747136 282.801169 
L 279.541091 284.160917 
L 287.131871 284.79064 
L 293.439565 285.060452 
L 303.408636 285.165537 
L 315.525998 285.206522 
L 328.048733 285.213524 
L 340.725441 285.21471 
L 355.106323 285.214892 
L 370.383538 285.214909 
L 399.450569 285.214909 
L 401.659425 285.214909 
" style="fill:none;stroke:#e377c2;stroke-linecap:square;stroke-width:3;"/>
   </g>
   <g id="line2d_49">
    <path clip-path="url(#pa06723a566)" d="M 203.795695 242.350795 
L 205.916797 253.448058 
L 206.552754 254.945576 
L 207.85445 259.347395 
L 213.244645 264.780044 
L 220.137052 271.023842 
L 228.241902 276.138699 
L 238.881463 281.598034 
L 250.330367 284.594817 
L 268.870471 285.108281 
L 269.006308 285.197922 
L 281.604931 285.214143 
L 293.275064 285.214891 
L 306.876816 285.214909 
L 323.733618 285.214909 
L 322.327746 285.214909 
L 321.546922 285.214909 
L 319.899883 285.214909 
L 320.376287 285.214909 
L 319.921859 285.214909 
" style="fill:none;stroke:#7f7f7f;stroke-linecap:square;stroke-width:3;"/>
   </g>
   <g id="line2d_50">
    <path clip-path="url(#pa06723a566)" d="M 145.609347 69.439163 
L 171.711176 191.09151 
L 172.923992 221.100027 
L 173.707043 234.80081 
L 175.047063 234.394277 
L 174.630447 236.68157 
L 173.37829 236.694186 
L 174.936364 236.755531 
L 175.894099 237.213787 
L 178.818574 236.56869 
L 180.26441 235.507441 
L 184.296089 237.073238 
L 188.501618 235.925731 
L 196.054761 237.091358 
L 203.151807 236.676276 
L 208.069715 236.657333 
L 215.147773 235.771797 
L 226.495963 237.625723 
L 238.323629 237.804956 
L 250.398435 235.586183 
L 262.215007 236.840766 
L 276.082833 237.541164 
L 287.018327 235.684421 
L 297.57307 235.942211 
L 312.619688 237.337602 
L 324.653453 235.492287 
L 340.231734 236.942095 
L 352.610918 237.731055 
L 366.138755 236.728543 
L 383.980242 237.033054 
L 397.278312 236.562816 
L 412.086426 237.400237 
" style="fill:none;stroke:#bcbd22;stroke-linecap:square;stroke-width:3;"/>
   </g>
   <g id="line2d_51">
    <path clip-path="url(#pa06723a566)" d="M 217.129735 235.079297 
L 218.946373 240.612759 
L 219.154611 244.721161 
L 218.89261 247.92833 
L 221.460178 252.675082 
L 220.860269 257.40835 
L 222.307281 261.630318 
L 224.277896 265.911643 
L 227.292135 270.051688 
L 230.323743 274.029104 
L 235.809504 277.468337 
L 243.402665 280.47575 
L 250.12098 282.801169 
L 258.425448 284.160917 
L 268.846835 284.79064 
L 280.758032 285.060452 
L 298.194655 285.165537 
L 311.433566 285.206522 
L 324.747394 285.213524 
L 339.305297 285.21471 
L 354.92031 285.214892 
L 380.766971 285.214909 
L 394.343375 285.214909 
L 405.861088 285.214909 
" style="fill:none;stroke:#17becf;stroke-linecap:square;stroke-width:3;"/>
   </g>
   <g id="line2d_52">
    <path clip-path="url(#pa06723a566)" d="M 232.202285 235.079297 
L 234.754994 240.612759 
L 234.411392 245.77902 
L 233.132824 250.326582 
L 234.865891 257.424947 
L 236.327072 264.709069 
L 236.986418 271.212173 
L 237.866566 277.18387 
L 241.93966 282.270438 
L 245.385181 284.652105 
L 250.864267 285.109359 
L 256.269719 285.197134 
L 263.284103 285.211066 
L 270.754951 285.213729 
L 280.387188 285.214709 
L 292.173956 285.214849 
L 305.329353 285.214906 
L 317.254736 285.214908 
L 330.389834 285.214909 
L 351.262745 285.214909 
L 367.013211 285.214909 
L 380.878622 285.214909 
L 393.891851 285.214909 
L 412.344653 285.214909 
" style="fill:none;stroke:#1f77b4;stroke-linecap:square;stroke-width:3;"/>
   </g>
   <g id="line2d_53">
    <path clip-path="url(#pa06723a566)" d="M 254.74324 235.079297 
L 266.669372 240.612759 
L 275.191133 244.721161 
L 283.257765 247.92833 
L 294.440436 252.675082 
L 303.144529 257.40835 
L 312.629373 261.630318 
L 325.524223 265.911643 
L 339.124106 270.051688 
L 354.637089 274.029104 
L 368.35125 277.468337 
L 382.657104 280.47575 
L 398.458096 282.801169 
L 413.953116 284.160917 
" style="fill:none;stroke:#ff7f0e;stroke-linecap:square;stroke-width:3;"/>
   </g>
   <g id="line2d_54">
    <path clip-path="url(#pa06723a566)" d="M 154.603756 254.796549 
L 162.133852 280.113588 
L 163.022515 283.42184 
L 158.749958 284.516547 
L 169.554117 285.150967 
L 175.963063 285.211791 
L 180.186332 285.214851 
L 182.766513 285.214908 
L 195.133498 285.214909 
L 211.001003 285.214909 
L 219.694335 285.214909 
L 232.536882 285.214909 
L 245.772816 285.214909 
L 259.982317 285.214909 
L 275.439019 285.214909 
L 286.178509 285.214909 
" style="fill:none;stroke:#2ca02c;stroke-linecap:square;stroke-width:3;"/>
   </g>
   <g id="line2d_55">
    <path clip-path="url(#pa06723a566)" d="M 403.356833 254.796549 
L 430.920242 280.113588 
L 429.904003 283.394911 
" style="fill:none;stroke:#d62728;stroke-linecap:square;stroke-width:3;"/>
   </g>
   <g id="patch_3">
    <path d="M 81.626967 296.728 
L 81.626967 43.44 
" style="fill:none;stroke:#000000;stroke-linecap:square;stroke-linejoin:miter;stroke-width:0.8;"/>
   </g>
   <g id="patch_4">
    <path d="M 450 296.728 
L 450 43.44 
" style="fill:none;stroke:#000000;stroke-linecap:square;stroke-linejoin:miter;stroke-width:0.8;"/>
   </g>
   <g id="patch_5">
    <path d="M 81.626967 296.728 
L 450 296.728 
" style="fill:none;stroke:#000000;stroke-linecap:square;stroke-linejoin:miter;stroke-width:0.8;"/>
   </g>
   <g id="patch_6">
    <path d="M 81.626967 43.44 
L 450 43.44 
" style="fill:none;stroke:#000000;stroke-linecap:square;stroke-linejoin:miter;stroke-width:0.8;"/>
   </g>
   <g id="text_12">
    <!-- Lasso Regression[reg=0.5] -->
    <g transform="translate(171.606608 21.763062)scale(0.14 -0.14)">
     <defs>
      <path d="M 9.8125 72.90625 
L 19.671875 72.90625 
L 19.671875 8.296875 
L 55.171875 8.296875 
L 55.171875 0 
L 9.8125 0 
z
" id="DejaVuSans-76"/>
      <path d="M 34.28125 27.484375 
Q 23.390625 27.484375 19.1875 25 
Q 14.984375 22.515625 14.984375 16.5 
Q 14.984375 11.71875 18.140625 8.90625 
Q 21.296875 6.109375 26.703125 6.109375 
Q 34.1875 6.109375 38.703125 11.40625 
Q 43.21875 16.703125 43.21875 25.484375 
L 43.21875 27.484375 
z
M 52.203125 31.203125 
L 52.203125 0 
L 43.21875 0 
L 43.21875 8.296875 
Q 40.140625 3.328125 35.546875 0.953125 
Q 30.953125 -1.421875 24.3125 -1.421875 
Q 15.921875 -1.421875 10.953125 3.296875 
Q 6 8.015625 6 15.921875 
Q 6 25.140625 12.171875 29.828125 
Q 18.359375 34.515625 30.609375 34.515625 
L 43.21875 34.515625 
L 43.21875 35.40625 
Q 43.21875 41.609375 39.140625 45 
Q 35.0625 48.390625 27.6875 48.390625 
Q 23 48.390625 18.546875 47.265625 
Q 14.109375 46.140625 10.015625 43.890625 
L 10.015625 52.203125 
Q 14.9375 54.109375 19.578125 55.046875 
Q 24.21875 56 28.609375 56 
Q 40.484375 56 46.34375 49.84375 
Q 52.203125 43.703125 52.203125 31.203125 
z
" id="DejaVuSans-97"/>
      <path d="M 30.609375 48.390625 
Q 23.390625 48.390625 19.1875 42.75 
Q 14.984375 37.109375 14.984375 27.296875 
Q 14.984375 17.484375 19.15625 11.84375 
Q 23.34375 6.203125 30.609375 6.203125 
Q 37.796875 6.203125 41.984375 11.859375 
Q 46.1875 17.53125 46.1875 27.296875 
Q 46.1875 37.015625 41.984375 42.703125 
Q 37.796875 48.390625 30.609375 48.390625 
z
M 30.609375 56 
Q 42.328125 56 49.015625 48.375 
Q 55.71875 40.765625 55.71875 27.296875 
Q 55.71875 13.875 49.015625 6.21875 
Q 42.328125 -1.421875 30.609375 -1.421875 
Q 18.84375 -1.421875 12.171875 6.21875 
Q 5.515625 13.875 5.515625 27.296875 
Q 5.515625 40.765625 12.171875 48.375 
Q 18.84375 56 30.609375 56 
z
" id="DejaVuSans-111"/>
      <path d="M 44.390625 34.1875 
Q 47.5625 33.109375 50.5625 29.59375 
Q 53.5625 26.078125 56.59375 19.921875 
L 66.609375 0 
L 56 0 
L 46.6875 18.703125 
Q 43.0625 26.03125 39.671875 28.421875 
Q 36.28125 30.8125 30.421875 30.8125 
L 19.671875 30.8125 
L 19.671875 0 
L 9.8125 0 
L 9.8125 72.90625 
L 32.078125 72.90625 
Q 44.578125 72.90625 50.734375 67.671875 
Q 56.890625 62.453125 56.890625 51.90625 
Q 56.890625 45.015625 53.6875 40.46875 
Q 50.484375 35.9375 44.390625 34.1875 
z
M 19.671875 64.796875 
L 19.671875 38.921875 
L 32.078125 38.921875 
Q 39.203125 38.921875 42.84375 42.21875 
Q 46.484375 45.515625 46.484375 51.90625 
Q 46.484375 58.296875 42.84375 61.546875 
Q 39.203125 64.796875 32.078125 64.796875 
z
" id="DejaVuSans-82"/>
      <path d="M 45.40625 27.984375 
Q 45.40625 37.75 41.375 43.109375 
Q 37.359375 48.484375 30.078125 48.484375 
Q 22.859375 48.484375 18.828125 43.109375 
Q 14.796875 37.75 14.796875 27.984375 
Q 14.796875 18.265625 18.828125 12.890625 
Q 22.859375 7.515625 30.078125 7.515625 
Q 37.359375 7.515625 41.375 12.890625 
Q 45.40625 18.265625 45.40625 27.984375 
z
M 54.390625 6.78125 
Q 54.390625 -7.171875 48.1875 -13.984375 
Q 42 -20.796875 29.203125 -20.796875 
Q 24.46875 -20.796875 20.265625 -20.09375 
Q 16.0625 -19.390625 12.109375 -17.921875 
L 12.109375 -9.1875 
Q 16.0625 -11.328125 19.921875 -12.34375 
Q 23.78125 -13.375 27.78125 -13.375 
Q 36.625 -13.375 41.015625 -8.765625 
Q 45.40625 -4.15625 45.40625 5.171875 
L 45.40625 9.625 
Q 42.625 4.78125 38.28125 2.390625 
Q 33.9375 0 27.875 0 
Q 17.828125 0 11.671875 7.65625 
Q 5.515625 15.328125 5.515625 27.984375 
Q 5.515625 40.671875 11.671875 48.328125 
Q 17.828125 56 27.875 56 
Q 33.9375 56 38.28125 53.609375 
Q 42.625 51.21875 45.40625 46.390625 
L 45.40625 54.6875 
L 54.390625 54.6875 
z
" id="DejaVuSans-103"/>
      <path d="M 41.109375 46.296875 
Q 39.59375 47.171875 37.8125 47.578125 
Q 36.03125 48 33.890625 48 
Q 26.265625 48 22.1875 43.046875 
Q 18.109375 38.09375 18.109375 28.8125 
L 18.109375 0 
L 9.078125 0 
L 9.078125 54.6875 
L 18.109375 54.6875 
L 18.109375 46.1875 
Q 20.953125 51.171875 25.484375 53.578125 
Q 30.03125 56 36.53125 56 
Q 37.453125 56 38.578125 55.875 
Q 39.703125 55.765625 41.0625 55.515625 
z
" id="DejaVuSans-114"/>
      <path d="M 54.890625 33.015625 
L 54.890625 0 
L 45.90625 0 
L 45.90625 32.71875 
Q 45.90625 40.484375 42.875 44.328125 
Q 39.84375 48.1875 33.796875 48.1875 
Q 26.515625 48.1875 22.3125 43.546875 
Q 18.109375 38.921875 18.109375 30.90625 
L 18.109375 0 
L 9.078125 0 
L 9.078125 54.6875 
L 18.109375 54.6875 
L 18.109375 46.1875 
Q 21.34375 51.125 25.703125 53.5625 
Q 30.078125 56 35.796875 56 
Q 45.21875 56 50.046875 50.171875 
Q 54.890625 44.34375 54.890625 33.015625 
z
" id="DejaVuSans-110"/>
      <path d="M 10.59375 45.40625 
L 73.1875 45.40625 
L 73.1875 37.203125 
L 10.59375 37.203125 
z
M 10.59375 25.484375 
L 73.1875 25.484375 
L 73.1875 17.1875 
L 10.59375 17.1875 
z
" id="DejaVuSans-61"/>
     </defs>
     <use xlink:href="#DejaVuSans-76"/>
     <use x="55.712891" xlink:href="#DejaVuSans-97"/>
     <use x="116.992188" xlink:href="#DejaVuSans-115"/>
     <use x="169.091797" xlink:href="#DejaVuSans-115"/>
     <use x="221.191406" xlink:href="#DejaVuSans-111"/>
     <use x="282.373047" xlink:href="#DejaVuSans-32"/>
     <use x="314.160156" xlink:href="#DejaVuSans-82"/>
     <use x="379.142578" xlink:href="#DejaVuSans-101"/>
     <use x="440.666016" xlink:href="#DejaVuSans-103"/>
     <use x="504.142578" xlink:href="#DejaVuSans-114"/>
     <use x="543.005859" xlink:href="#DejaVuSans-101"/>
     <use x="604.529297" xlink:href="#DejaVuSans-115"/>
     <use x="656.628906" xlink:href="#DejaVuSans-115"/>
     <use x="708.728516" xlink:href="#DejaVuSans-105"/>
     <use x="736.511719" xlink:href="#DejaVuSans-111"/>
     <use x="797.693359" xlink:href="#DejaVuSans-110"/>
     <use x="861.072266" xlink:href="#DejaVuSans-91"/>
     <use x="900.085938" xlink:href="#DejaVuSans-114"/>
     <use x="938.949219" xlink:href="#DejaVuSans-101"/>
     <use x="1000.472656" xlink:href="#DejaVuSans-103"/>
     <use x="1063.949219" xlink:href="#DejaVuSans-61"/>
     <use x="1147.738281" xlink:href="#DejaVuSans-48"/>
     <use x="1211.361328" xlink:href="#DejaVuSans-46"/>
     <use x="1243.148438" xlink:href="#DejaVuSans-53"/>
     <use x="1306.771484" xlink:href="#DejaVuSans-93"/>
    </g>
    <!-- Data: Simulated[n_samples=100,n_features=10000,rho=0.6] -->
    <g transform="translate(49.513483 37.44)scale(0.14 -0.14)">
     <defs>
      <path d="M 19.671875 64.796875 
L 19.671875 8.109375 
L 31.59375 8.109375 
Q 46.6875 8.109375 53.6875 14.9375 
Q 60.6875 21.78125 60.6875 36.53125 
Q 60.6875 51.171875 53.6875 57.984375 
Q 46.6875 64.796875 31.59375 64.796875 
z
M 9.8125 72.90625 
L 30.078125 72.90625 
Q 51.265625 72.90625 61.171875 64.09375 
Q 71.09375 55.28125 71.09375 36.53125 
Q 71.09375 17.671875 61.125 8.828125 
Q 51.171875 0 30.078125 0 
L 9.8125 0 
z
" id="DejaVuSans-68"/>
      <path d="M 18.3125 70.21875 
L 18.3125 54.6875 
L 36.8125 54.6875 
L 36.8125 47.703125 
L 18.3125 47.703125 
L 18.3125 18.015625 
Q 18.3125 11.328125 20.140625 9.421875 
Q 21.96875 7.515625 27.59375 7.515625 
L 36.8125 7.515625 
L 36.8125 0 
L 27.59375 0 
Q 17.1875 0 13.234375 3.875 
Q 9.28125 7.765625 9.28125 18.015625 
L 9.28125 47.703125 
L 2.6875 47.703125 
L 2.6875 54.6875 
L 9.28125 54.6875 
L 9.28125 70.21875 
z
" id="DejaVuSans-116"/>
      <path d="M 11.71875 12.40625 
L 22.015625 12.40625 
L 22.015625 0 
L 11.71875 0 
z
M 11.71875 51.703125 
L 22.015625 51.703125 
L 22.015625 39.3125 
L 11.71875 39.3125 
z
" id="DejaVuSans-58"/>
      <path d="M 53.515625 70.515625 
L 53.515625 60.890625 
Q 47.90625 63.578125 42.921875 64.890625 
Q 37.9375 66.21875 33.296875 66.21875 
Q 25.25 66.21875 20.875 63.09375 
Q 16.5 59.96875 16.5 54.203125 
Q 16.5 49.359375 19.40625 46.890625 
Q 22.3125 44.4375 30.421875 42.921875 
L 36.375 41.703125 
Q 47.40625 39.59375 52.65625 34.296875 
Q 57.90625 29 57.90625 20.125 
Q 57.90625 9.515625 50.796875 4.046875 
Q 43.703125 -1.421875 29.984375 -1.421875 
Q 24.8125 -1.421875 18.96875 -0.25 
Q 13.140625 0.921875 6.890625 3.21875 
L 6.890625 13.375 
Q 12.890625 10.015625 18.65625 8.296875 
Q 24.421875 6.59375 29.984375 6.59375 
Q 38.421875 6.59375 43.015625 9.90625 
Q 47.609375 13.234375 47.609375 19.390625 
Q 47.609375 24.75 44.3125 27.78125 
Q 41.015625 30.8125 33.5 32.328125 
L 27.484375 33.5 
Q 16.453125 35.6875 11.515625 40.375 
Q 6.59375 45.0625 6.59375 53.421875 
Q 6.59375 63.09375 13.40625 68.65625 
Q 20.21875 74.21875 32.171875 74.21875 
Q 37.3125 74.21875 42.625 73.28125 
Q 47.953125 72.359375 53.515625 70.515625 
z
" id="DejaVuSans-83"/>
      <path d="M 8.5 21.578125 
L 8.5 54.6875 
L 17.484375 54.6875 
L 17.484375 21.921875 
Q 17.484375 14.15625 20.5 10.265625 
Q 23.53125 6.390625 29.59375 6.390625 
Q 36.859375 6.390625 41.078125 11.03125 
Q 45.3125 15.671875 45.3125 23.6875 
L 45.3125 54.6875 
L 54.296875 54.6875 
L 54.296875 0 
L 45.3125 0 
L 45.3125 8.40625 
Q 42.046875 3.421875 37.71875 1 
Q 33.40625 -1.421875 27.6875 -1.421875 
Q 18.265625 -1.421875 13.375 4.4375 
Q 8.5 10.296875 8.5 21.578125 
z
M 31.109375 56 
z
" id="DejaVuSans-117"/>
      <path d="M 9.421875 75.984375 
L 18.40625 75.984375 
L 18.40625 0 
L 9.421875 0 
z
" id="DejaVuSans-108"/>
      <path d="M 45.40625 46.390625 
L 45.40625 75.984375 
L 54.390625 75.984375 
L 54.390625 0 
L 45.40625 0 
L 45.40625 8.203125 
Q 42.578125 3.328125 38.25 0.953125 
Q 33.9375 -1.421875 27.875 -1.421875 
Q 17.96875 -1.421875 11.734375 6.484375 
Q 5.515625 14.40625 5.515625 27.296875 
Q 5.515625 40.1875 11.734375 48.09375 
Q 17.96875 56 27.875 56 
Q 33.9375 56 38.25 53.625 
Q 42.578125 51.265625 45.40625 46.390625 
z
M 14.796875 27.296875 
Q 14.796875 17.390625 18.875 11.75 
Q 22.953125 6.109375 30.078125 6.109375 
Q 37.203125 6.109375 41.296875 11.75 
Q 45.40625 17.390625 45.40625 27.296875 
Q 45.40625 37.203125 41.296875 42.84375 
Q 37.203125 48.484375 30.078125 48.484375 
Q 22.953125 48.484375 18.875 42.84375 
Q 14.796875 37.203125 14.796875 27.296875 
z
" id="DejaVuSans-100"/>
      <path d="M 50.984375 -16.609375 
L 50.984375 -23.578125 
L -0.984375 -23.578125 
L -0.984375 -16.609375 
z
" id="DejaVuSans-95"/>
      <path d="M 18.109375 8.203125 
L 18.109375 -20.796875 
L 9.078125 -20.796875 
L 9.078125 54.6875 
L 18.109375 54.6875 
L 18.109375 46.390625 
Q 20.953125 51.265625 25.265625 53.625 
Q 29.59375 56 35.59375 56 
Q 45.5625 56 51.78125 48.09375 
Q 58.015625 40.1875 58.015625 27.296875 
Q 58.015625 14.40625 51.78125 6.484375 
Q 45.5625 -1.421875 35.59375 -1.421875 
Q 29.59375 -1.421875 25.265625 0.953125 
Q 20.953125 3.328125 18.109375 8.203125 
z
M 48.6875 27.296875 
Q 48.6875 37.203125 44.609375 42.84375 
Q 40.53125 48.484375 33.40625 48.484375 
Q 26.265625 48.484375 22.1875 42.84375 
Q 18.109375 37.203125 18.109375 27.296875 
Q 18.109375 17.390625 22.1875 11.75 
Q 26.265625 6.109375 33.40625 6.109375 
Q 40.53125 6.109375 44.609375 11.75 
Q 48.6875 17.390625 48.6875 27.296875 
z
" id="DejaVuSans-112"/>
      <path d="M 11.71875 12.40625 
L 22.015625 12.40625 
L 22.015625 4 
L 14.015625 -11.625 
L 7.71875 -11.625 
L 11.71875 4 
z
" id="DejaVuSans-44"/>
      <path d="M 37.109375 75.984375 
L 37.109375 68.5 
L 28.515625 68.5 
Q 23.6875 68.5 21.796875 66.546875 
Q 19.921875 64.59375 19.921875 59.515625 
L 19.921875 54.6875 
L 34.71875 54.6875 
L 34.71875 47.703125 
L 19.921875 47.703125 
L 19.921875 0 
L 10.890625 0 
L 10.890625 47.703125 
L 2.296875 47.703125 
L 2.296875 54.6875 
L 10.890625 54.6875 
L 10.890625 58.5 
Q 10.890625 67.625 15.140625 71.796875 
Q 19.390625 75.984375 28.609375 75.984375 
z
" id="DejaVuSans-102"/>
      <path d="M 54.890625 33.015625 
L 54.890625 0 
L 45.90625 0 
L 45.90625 32.71875 
Q 45.90625 40.484375 42.875 44.328125 
Q 39.84375 48.1875 33.796875 48.1875 
Q 26.515625 48.1875 22.3125 43.546875 
Q 18.109375 38.921875 18.109375 30.90625 
L 18.109375 0 
L 9.078125 0 
L 9.078125 75.984375 
L 18.109375 75.984375 
L 18.109375 46.1875 
Q 21.34375 51.125 25.703125 53.5625 
Q 30.078125 56 35.796875 56 
Q 45.21875 56 50.046875 50.171875 
Q 54.890625 44.34375 54.890625 33.015625 
z
" id="DejaVuSans-104"/>
     </defs>
     <use xlink:href="#DejaVuSans-68"/>
     <use x="77.001953" xlink:href="#DejaVuSans-97"/>
     <use x="138.28125" xlink:href="#DejaVuSans-116"/>
     <use x="177.490234" xlink:href="#DejaVuSans-97"/>
     <use x="238.769531" xlink:href="#DejaVuSans-58"/>
     <use x="272.460938" xlink:href="#DejaVuSans-32"/>
     <use x="304.248047" xlink:href="#DejaVuSans-83"/>
     <use x="367.724609" xlink:href="#DejaVuSans-105"/>
     <use x="395.507812" xlink:href="#DejaVuSans-109"/>
     <use x="492.919922" xlink:href="#DejaVuSans-117"/>
     <use x="556.298828" xlink:href="#DejaVuSans-108"/>
     <use x="584.082031" xlink:href="#DejaVuSans-97"/>
     <use x="645.361328" xlink:href="#DejaVuSans-116"/>
     <use x="684.570312" xlink:href="#DejaVuSans-101"/>
     <use x="746.09375" xlink:href="#DejaVuSans-100"/>
     <use x="809.570312" xlink:href="#DejaVuSans-91"/>
     <use x="848.583984" xlink:href="#DejaVuSans-110"/>
     <use x="911.962891" xlink:href="#DejaVuSans-95"/>
     <use x="961.962891" xlink:href="#DejaVuSans-115"/>
     <use x="1014.0625" xlink:href="#DejaVuSans-97"/>
     <use x="1075.341797" xlink:href="#DejaVuSans-109"/>
     <use x="1172.753906" xlink:href="#DejaVuSans-112"/>
     <use x="1236.230469" xlink:href="#DejaVuSans-108"/>
     <use x="1264.013672" xlink:href="#DejaVuSans-101"/>
     <use x="1325.537109" xlink:href="#DejaVuSans-115"/>
     <use x="1377.636719" xlink:href="#DejaVuSans-61"/>
     <use x="1461.425781" xlink:href="#DejaVuSans-49"/>
     <use x="1525.048828" xlink:href="#DejaVuSans-48"/>
     <use x="1588.671875" xlink:href="#DejaVuSans-48"/>
     <use x="1652.294922" xlink:href="#DejaVuSans-44"/>
     <use x="1684.082031" xlink:href="#DejaVuSans-110"/>
     <use x="1747.460938" xlink:href="#DejaVuSans-95"/>
     <use x="1797.460938" xlink:href="#DejaVuSans-102"/>
     <use x="1832.666016" xlink:href="#DejaVuSans-101"/>
     <use x="1894.189453" xlink:href="#DejaVuSans-97"/>
     <use x="1955.46875" xlink:href="#DejaVuSans-116"/>
     <use x="1994.677734" xlink:href="#DejaVuSans-117"/>
     <use x="2058.056641" xlink:href="#DejaVuSans-114"/>
     <use x="2096.919922" xlink:href="#DejaVuSans-101"/>
     <use x="2158.443359" xlink:href="#DejaVuSans-115"/>
     <use x="2210.542969" xlink:href="#DejaVuSans-61"/>
     <use x="2294.332031" xlink:href="#DejaVuSans-49"/>
     <use x="2357.955078" xlink:href="#DejaVuSans-48"/>
     <use x="2421.578125" xlink:href="#DejaVuSans-48"/>
     <use x="2485.201172" xlink:href="#DejaVuSans-48"/>
     <use x="2548.824219" xlink:href="#DejaVuSans-48"/>
     <use x="2612.447266" xlink:href="#DejaVuSans-44"/>
     <use x="2644.234375" xlink:href="#DejaVuSans-114"/>
     <use x="2683.597656" xlink:href="#DejaVuSans-104"/>
     <use x="2746.976562" xlink:href="#DejaVuSans-111"/>
     <use x="2808.158203" xlink:href="#DejaVuSans-61"/>
     <use x="2891.947266" xlink:href="#DejaVuSans-48"/>
     <use x="2955.570312" xlink:href="#DejaVuSans-46"/>
     <use x="2987.357422" xlink:href="#DejaVuSans-54"/>
     <use x="3050.980469" xlink:href="#DejaVuSans-93"/>
    </g>
   </g>
   <g id="legend_1">
    <g id="patch_7">
     <path d="M 91.426967 343.11 
L 395.706029 343.11 
Q 398.506029 343.11 398.506029 340.31 
L 398.506029 53.24 
Q 398.506029 50.44 395.706029 50.44 
L 91.426967 50.44 
Q 88.626967 50.44 88.626967 53.24 
L 88.626967 340.31 
Q 88.626967 343.11 91.426967 343.11 
z
" style="fill:#ffffff;opacity:0.8;stroke:#cccccc;stroke-linejoin:miter;"/>
    </g>
    <g id="line2d_56">
     <path d="M 94.226967 61.777812 
L 122.226967 61.777812 
" style="fill:none;stroke:#1f77b4;stroke-linecap:square;stroke-width:3;"/>
    </g>
    <g id="line2d_57"/>
    <g id="text_13">
     <!-- Blitz -->
     <g transform="translate(133.426967 66.677812)scale(0.14 -0.14)">
      <defs>
       <path d="M 19.671875 34.8125 
L 19.671875 8.109375 
L 35.5 8.109375 
Q 43.453125 8.109375 47.28125 11.40625 
Q 51.125 14.703125 51.125 21.484375 
Q 51.125 28.328125 47.28125 31.5625 
Q 43.453125 34.8125 35.5 34.8125 
z
M 19.671875 64.796875 
L 19.671875 42.828125 
L 34.28125 42.828125 
Q 41.5 42.828125 45.03125 45.53125 
Q 48.578125 48.25 48.578125 53.8125 
Q 48.578125 59.328125 45.03125 62.0625 
Q 41.5 64.796875 34.28125 64.796875 
z
M 9.8125 72.90625 
L 35.015625 72.90625 
Q 46.296875 72.90625 52.390625 68.21875 
Q 58.5 63.53125 58.5 54.890625 
Q 58.5 48.1875 55.375 44.234375 
Q 52.25 40.28125 46.1875 39.3125 
Q 53.46875 37.75 57.5 32.78125 
Q 61.53125 27.828125 61.53125 20.40625 
Q 61.53125 10.640625 54.890625 5.3125 
Q 48.25 0 35.984375 0 
L 9.8125 0 
z
" id="DejaVuSans-66"/>
       <path d="M 5.515625 54.6875 
L 48.1875 54.6875 
L 48.1875 46.484375 
L 14.40625 7.171875 
L 48.1875 7.171875 
L 48.1875 0 
L 4.296875 0 
L 4.296875 8.203125 
L 38.09375 47.515625 
L 5.515625 47.515625 
z
" id="DejaVuSans-122"/>
      </defs>
      <use xlink:href="#DejaVuSans-66"/>
      <use x="68.603516" xlink:href="#DejaVuSans-108"/>
      <use x="96.386719" xlink:href="#DejaVuSans-105"/>
      <use x="124.169922" xlink:href="#DejaVuSans-116"/>
      <use x="163.378906" xlink:href="#DejaVuSans-122"/>
     </g>
    </g>
    <g id="line2d_58">
     <path d="M 94.226967 82.327187 
L 122.226967 82.327187 
" style="fill:none;stroke:#ff7f0e;stroke-linecap:square;stroke-width:3;"/>
    </g>
    <g id="line2d_59"/>
    <g id="text_14">
     <!-- cd -->
     <g transform="translate(133.426967 87.227187)scale(0.14 -0.14)">
      <use xlink:href="#DejaVuSans-99"/>
      <use x="54.980469" xlink:href="#DejaVuSans-100"/>
     </g>
    </g>
    <g id="line2d_60">
     <path d="M 94.226967 102.876562 
L 122.226967 102.876562 
" style="fill:none;stroke:#2ca02c;stroke-linecap:square;stroke-width:3;"/>
    </g>
    <g id="line2d_61"/>
    <g id="text_15">
     <!-- Celer -->
     <g transform="translate(133.426967 107.776562)scale(0.14 -0.14)">
      <defs>
       <path d="M 64.40625 67.28125 
L 64.40625 56.890625 
Q 59.421875 61.53125 53.78125 63.8125 
Q 48.140625 66.109375 41.796875 66.109375 
Q 29.296875 66.109375 22.65625 58.46875 
Q 16.015625 50.828125 16.015625 36.375 
Q 16.015625 21.96875 22.65625 14.328125 
Q 29.296875 6.6875 41.796875 6.6875 
Q 48.140625 6.6875 53.78125 8.984375 
Q 59.421875 11.28125 64.40625 15.921875 
L 64.40625 5.609375 
Q 59.234375 2.09375 53.4375 0.328125 
Q 47.65625 -1.421875 41.21875 -1.421875 
Q 24.65625 -1.421875 15.125 8.703125 
Q 5.609375 18.84375 5.609375 36.375 
Q 5.609375 53.953125 15.125 64.078125 
Q 24.65625 74.21875 41.21875 74.21875 
Q 47.75 74.21875 53.53125 72.484375 
Q 59.328125 70.75 64.40625 67.28125 
z
" id="DejaVuSans-67"/>
      </defs>
      <use xlink:href="#DejaVuSans-67"/>
      <use x="69.824219" xlink:href="#DejaVuSans-101"/>
      <use x="131.347656" xlink:href="#DejaVuSans-108"/>
      <use x="159.130859" xlink:href="#DejaVuSans-101"/>
      <use x="220.654297" xlink:href="#DejaVuSans-114"/>
     </g>
    </g>
    <g id="line2d_62">
     <path d="M 94.226967 123.425937 
L 122.226967 123.425937 
" style="fill:none;stroke:#d62728;stroke-linecap:square;stroke-width:3;"/>
    </g>
    <g id="line2d_63"/>
    <g id="text_16">
     <!-- cvxpy -->
     <g transform="translate(133.426967 128.325937)scale(0.14 -0.14)">
      <defs>
       <path d="M 2.984375 54.6875 
L 12.5 54.6875 
L 29.59375 8.796875 
L 46.6875 54.6875 
L 56.203125 54.6875 
L 35.6875 0 
L 23.484375 0 
z
" id="DejaVuSans-118"/>
       <path d="M 54.890625 54.6875 
L 35.109375 28.078125 
L 55.90625 0 
L 45.3125 0 
L 29.390625 21.484375 
L 13.484375 0 
L 2.875 0 
L 24.125 28.609375 
L 4.6875 54.6875 
L 15.28125 54.6875 
L 29.78125 35.203125 
L 44.28125 54.6875 
z
" id="DejaVuSans-120"/>
       <path d="M 32.171875 -5.078125 
Q 28.375 -14.84375 24.75 -17.8125 
Q 21.140625 -20.796875 15.09375 -20.796875 
L 7.90625 -20.796875 
L 7.90625 -13.28125 
L 13.1875 -13.28125 
Q 16.890625 -13.28125 18.9375 -11.515625 
Q 21 -9.765625 23.484375 -3.21875 
L 25.09375 0.875 
L 2.984375 54.6875 
L 12.5 54.6875 
L 29.59375 11.921875 
L 46.6875 54.6875 
L 56.203125 54.6875 
z
" id="DejaVuSans-121"/>
      </defs>
      <use xlink:href="#DejaVuSans-99"/>
      <use x="54.980469" xlink:href="#DejaVuSans-118"/>
      <use x="114.160156" xlink:href="#DejaVuSans-120"/>
      <use x="173.339844" xlink:href="#DejaVuSans-112"/>
      <use x="236.816406" xlink:href="#DejaVuSans-121"/>
     </g>
    </g>
    <g id="line2d_64">
     <path d="M 94.226967 143.975312 
L 122.226967 143.975312 
" style="fill:none;stroke:#9467bd;stroke-linecap:square;stroke-width:3;"/>
    </g>
    <g id="line2d_65"/>
    <g id="text_17">
     <!-- Cyanure -->
     <g transform="translate(133.426967 148.875312)scale(0.14 -0.14)">
      <use xlink:href="#DejaVuSans-67"/>
      <use x="69.824219" xlink:href="#DejaVuSans-121"/>
      <use x="129.003906" xlink:href="#DejaVuSans-97"/>
      <use x="190.283203" xlink:href="#DejaVuSans-110"/>
      <use x="253.662109" xlink:href="#DejaVuSans-117"/>
      <use x="317.041016" xlink:href="#DejaVuSans-114"/>
      <use x="355.904297" xlink:href="#DejaVuSans-101"/>
     </g>
    </g>
    <g id="line2d_66">
     <path d="M 94.226967 164.524687 
L 122.226967 164.524687 
" style="fill:none;stroke:#8c564b;stroke-linecap:square;stroke-width:3;"/>
    </g>
    <g id="line2d_67"/>
    <g id="text_18">
     <!-- glmnet -->
     <g transform="translate(133.426967 169.424687)scale(0.14 -0.14)">
      <use xlink:href="#DejaVuSans-103"/>
      <use x="63.476562" xlink:href="#DejaVuSans-108"/>
      <use x="91.259766" xlink:href="#DejaVuSans-109"/>
      <use x="188.671875" xlink:href="#DejaVuSans-110"/>
      <use x="252.050781" xlink:href="#DejaVuSans-101"/>
      <use x="313.574219" xlink:href="#DejaVuSans-116"/>
     </g>
    </g>
    <g id="line2d_68">
     <path d="M 94.226967 185.074062 
L 122.226967 185.074062 
" style="fill:none;stroke:#e377c2;stroke-linecap:square;stroke-width:3;"/>
    </g>
    <g id="line2d_69"/>
    <g id="text_19">
     <!-- Julia-PGD -->
     <g transform="translate(133.426967 189.974062)scale(0.14 -0.14)">
      <defs>
       <path d="M 9.8125 72.90625 
L 19.671875 72.90625 
L 19.671875 5.078125 
Q 19.671875 -8.109375 14.671875 -14.0625 
Q 9.671875 -20.015625 -1.421875 -20.015625 
L -5.171875 -20.015625 
L -5.171875 -11.71875 
L -2.09375 -11.71875 
Q 4.4375 -11.71875 7.125 -8.046875 
Q 9.8125 -4.390625 9.8125 5.078125 
z
" id="DejaVuSans-74"/>
       <path d="M 4.890625 31.390625 
L 31.203125 31.390625 
L 31.203125 23.390625 
L 4.890625 23.390625 
z
" id="DejaVuSans-45"/>
       <path d="M 19.671875 64.796875 
L 19.671875 37.40625 
L 32.078125 37.40625 
Q 38.96875 37.40625 42.71875 40.96875 
Q 46.484375 44.53125 46.484375 51.125 
Q 46.484375 57.671875 42.71875 61.234375 
Q 38.96875 64.796875 32.078125 64.796875 
z
M 9.8125 72.90625 
L 32.078125 72.90625 
Q 44.34375 72.90625 50.609375 67.359375 
Q 56.890625 61.8125 56.890625 51.125 
Q 56.890625 40.328125 50.609375 34.8125 
Q 44.34375 29.296875 32.078125 29.296875 
L 19.671875 29.296875 
L 19.671875 0 
L 9.8125 0 
z
" id="DejaVuSans-80"/>
       <path d="M 59.515625 10.40625 
L 59.515625 29.984375 
L 43.40625 29.984375 
L 43.40625 38.09375 
L 69.28125 38.09375 
L 69.28125 6.78125 
Q 63.578125 2.734375 56.6875 0.65625 
Q 49.8125 -1.421875 42 -1.421875 
Q 24.90625 -1.421875 15.25 8.5625 
Q 5.609375 18.5625 5.609375 36.375 
Q 5.609375 54.25 15.25 64.234375 
Q 24.90625 74.21875 42 74.21875 
Q 49.125 74.21875 55.546875 72.453125 
Q 61.96875 70.703125 67.390625 67.28125 
L 67.390625 56.78125 
Q 61.921875 61.421875 55.765625 63.765625 
Q 49.609375 66.109375 42.828125 66.109375 
Q 29.4375 66.109375 22.71875 58.640625 
Q 16.015625 51.171875 16.015625 36.375 
Q 16.015625 21.625 22.71875 14.15625 
Q 29.4375 6.6875 42.828125 6.6875 
Q 48.046875 6.6875 52.140625 7.59375 
Q 56.25 8.5 59.515625 10.40625 
z
" id="DejaVuSans-71"/>
      </defs>
      <use xlink:href="#DejaVuSans-74"/>
      <use x="29.492188" xlink:href="#DejaVuSans-117"/>
      <use x="92.871094" xlink:href="#DejaVuSans-108"/>
      <use x="120.654297" xlink:href="#DejaVuSans-105"/>
      <use x="148.4375" xlink:href="#DejaVuSans-97"/>
      <use x="209.716797" xlink:href="#DejaVuSans-45"/>
      <use x="245.800781" xlink:href="#DejaVuSans-80"/>
      <use x="306.103516" xlink:href="#DejaVuSans-71"/>
      <use x="383.59375" xlink:href="#DejaVuSans-68"/>
     </g>
    </g>
    <g id="line2d_70">
     <path d="M 94.226967 205.623437 
L 122.226967 205.623437 
" style="fill:none;stroke:#7f7f7f;stroke-linecap:square;stroke-width:3;"/>
    </g>
    <g id="line2d_71"/>
    <g id="text_20">
     <!-- L-BFGS-B -->
     <g transform="translate(133.426967 210.523437)scale(0.14 -0.14)">
      <defs>
       <path d="M 9.8125 72.90625 
L 51.703125 72.90625 
L 51.703125 64.59375 
L 19.671875 64.59375 
L 19.671875 43.109375 
L 48.578125 43.109375 
L 48.578125 34.8125 
L 19.671875 34.8125 
L 19.671875 0 
L 9.8125 0 
z
" id="DejaVuSans-70"/>
      </defs>
      <use xlink:href="#DejaVuSans-76"/>
      <use x="53.962891" xlink:href="#DejaVuSans-45"/>
      <use x="86.421875" xlink:href="#DejaVuSans-66"/>
      <use x="155.025391" xlink:href="#DejaVuSans-70"/>
      <use x="212.544922" xlink:href="#DejaVuSans-71"/>
      <use x="290.035156" xlink:href="#DejaVuSans-83"/>
      <use x="353.511719" xlink:href="#DejaVuSans-45"/>
      <use x="385.970703" xlink:href="#DejaVuSans-66"/>
     </g>
    </g>
    <g id="line2d_72">
     <path d="M 94.226967 226.172812 
L 122.226967 226.172812 
" style="fill:none;stroke:#bcbd22;stroke-linecap:square;stroke-width:3;"/>
    </g>
    <g id="line2d_73"/>
    <g id="text_21">
     <!-- Lightning -->
     <g transform="translate(133.426967 231.072812)scale(0.14 -0.14)">
      <use xlink:href="#DejaVuSans-76"/>
      <use x="55.712891" xlink:href="#DejaVuSans-105"/>
      <use x="83.496094" xlink:href="#DejaVuSans-103"/>
      <use x="146.972656" xlink:href="#DejaVuSans-104"/>
      <use x="210.351562" xlink:href="#DejaVuSans-116"/>
      <use x="249.560547" xlink:href="#DejaVuSans-110"/>
      <use x="312.939453" xlink:href="#DejaVuSans-105"/>
      <use x="340.722656" xlink:href="#DejaVuSans-110"/>
      <use x="404.101562" xlink:href="#DejaVuSans-103"/>
     </g>
    </g>
    <g id="line2d_74">
     <path d="M 94.226967 246.722187 
L 122.226967 246.722187 
" style="fill:none;stroke:#17becf;stroke-linecap:square;stroke-width:3;"/>
    </g>
    <g id="line2d_75"/>
    <g id="text_22">
     <!-- Python-PGD[use_acceleration=False] -->
     <g transform="translate(133.426967 251.622187)scale(0.14 -0.14)">
      <use xlink:href="#DejaVuSans-80"/>
      <use x="60.302734" xlink:href="#DejaVuSans-121"/>
      <use x="119.482422" xlink:href="#DejaVuSans-116"/>
      <use x="158.691406" xlink:href="#DejaVuSans-104"/>
      <use x="222.070312" xlink:href="#DejaVuSans-111"/>
      <use x="283.251953" xlink:href="#DejaVuSans-110"/>
      <use x="346.630859" xlink:href="#DejaVuSans-45"/>
      <use x="382.714844" xlink:href="#DejaVuSans-80"/>
      <use x="443.017578" xlink:href="#DejaVuSans-71"/>
      <use x="520.507812" xlink:href="#DejaVuSans-68"/>
      <use x="597.509766" xlink:href="#DejaVuSans-91"/>
      <use x="636.523438" xlink:href="#DejaVuSans-117"/>
      <use x="699.902344" xlink:href="#DejaVuSans-115"/>
      <use x="752.001953" xlink:href="#DejaVuSans-101"/>
      <use x="813.525391" xlink:href="#DejaVuSans-95"/>
      <use x="863.525391" xlink:href="#DejaVuSans-97"/>
      <use x="924.804688" xlink:href="#DejaVuSans-99"/>
      <use x="979.785156" xlink:href="#DejaVuSans-99"/>
      <use x="1034.765625" xlink:href="#DejaVuSans-101"/>
      <use x="1096.289062" xlink:href="#DejaVuSans-108"/>
      <use x="1124.072266" xlink:href="#DejaVuSans-101"/>
      <use x="1185.595703" xlink:href="#DejaVuSans-114"/>
      <use x="1226.708984" xlink:href="#DejaVuSans-97"/>
      <use x="1287.988281" xlink:href="#DejaVuSans-116"/>
      <use x="1327.197266" xlink:href="#DejaVuSans-105"/>
      <use x="1354.980469" xlink:href="#DejaVuSans-111"/>
      <use x="1416.162109" xlink:href="#DejaVuSans-110"/>
      <use x="1479.541016" xlink:href="#DejaVuSans-61"/>
      <use x="1563.330078" xlink:href="#DejaVuSans-70"/>
      <use x="1611.724609" xlink:href="#DejaVuSans-97"/>
      <use x="1673.003906" xlink:href="#DejaVuSans-108"/>
      <use x="1700.787109" xlink:href="#DejaVuSans-115"/>
      <use x="1752.886719" xlink:href="#DejaVuSans-101"/>
      <use x="1814.410156" xlink:href="#DejaVuSans-93"/>
     </g>
    </g>
    <g id="line2d_76">
     <path d="M 94.226967 267.660937 
L 122.226967 267.660937 
" style="fill:none;stroke:#1f77b4;stroke-linecap:square;stroke-width:3;"/>
    </g>
    <g id="line2d_77"/>
    <g id="text_23">
     <!-- Python-PGD[use_acceleration=True] -->
     <g transform="translate(133.426967 272.560937)scale(0.14 -0.14)">
      <use xlink:href="#DejaVuSans-80"/>
      <use x="60.302734" xlink:href="#DejaVuSans-121"/>
      <use x="119.482422" xlink:href="#DejaVuSans-116"/>
      <use x="158.691406" xlink:href="#DejaVuSans-104"/>
      <use x="222.070312" xlink:href="#DejaVuSans-111"/>
      <use x="283.251953" xlink:href="#DejaVuSans-110"/>
      <use x="346.630859" xlink:href="#DejaVuSans-45"/>
      <use x="382.714844" xlink:href="#DejaVuSans-80"/>
      <use x="443.017578" xlink:href="#DejaVuSans-71"/>
      <use x="520.507812" xlink:href="#DejaVuSans-68"/>
      <use x="597.509766" xlink:href="#DejaVuSans-91"/>
      <use x="636.523438" xlink:href="#DejaVuSans-117"/>
      <use x="699.902344" xlink:href="#DejaVuSans-115"/>
      <use x="752.001953" xlink:href="#DejaVuSans-101"/>
      <use x="813.525391" xlink:href="#DejaVuSans-95"/>
      <use x="863.525391" xlink:href="#DejaVuSans-97"/>
      <use x="924.804688" xlink:href="#DejaVuSans-99"/>
      <use x="979.785156" xlink:href="#DejaVuSans-99"/>
      <use x="1034.765625" xlink:href="#DejaVuSans-101"/>
      <use x="1096.289062" xlink:href="#DejaVuSans-108"/>
      <use x="1124.072266" xlink:href="#DejaVuSans-101"/>
      <use x="1185.595703" xlink:href="#DejaVuSans-114"/>
      <use x="1226.708984" xlink:href="#DejaVuSans-97"/>
      <use x="1287.988281" xlink:href="#DejaVuSans-116"/>
      <use x="1327.197266" xlink:href="#DejaVuSans-105"/>
      <use x="1354.980469" xlink:href="#DejaVuSans-111"/>
      <use x="1416.162109" xlink:href="#DejaVuSans-110"/>
      <use x="1479.541016" xlink:href="#DejaVuSans-61"/>
      <use x="1563.330078" xlink:href="#DejaVuSans-84"/>
      <use x="1609.664062" xlink:href="#DejaVuSans-114"/>
      <use x="1650.777344" xlink:href="#DejaVuSans-117"/>
      <use x="1714.15625" xlink:href="#DejaVuSans-101"/>
      <use x="1775.679688" xlink:href="#DejaVuSans-93"/>
     </g>
    </g>
    <g id="line2d_78">
     <path d="M 94.226967 288.599687 
L 122.226967 288.599687 
" style="fill:none;stroke:#ff7f0e;stroke-linecap:square;stroke-width:3;"/>
    </g>
    <g id="line2d_79"/>
    <g id="text_24">
     <!-- R-PGD -->
     <g transform="translate(133.426967 293.499687)scale(0.14 -0.14)">
      <use xlink:href="#DejaVuSans-82"/>
      <use x="65.482422" xlink:href="#DejaVuSans-45"/>
      <use x="101.566406" xlink:href="#DejaVuSans-80"/>
      <use x="161.869141" xlink:href="#DejaVuSans-71"/>
      <use x="239.359375" xlink:href="#DejaVuSans-68"/>
     </g>
    </g>
    <g id="line2d_80">
     <path d="M 94.226967 309.149062 
L 122.226967 309.149062 
" style="fill:none;stroke:#2ca02c;stroke-linecap:square;stroke-width:3;"/>
    </g>
    <g id="line2d_81"/>
    <g id="text_25">
     <!-- sklearn -->
     <g transform="translate(133.426967 314.049062)scale(0.14 -0.14)">
      <defs>
       <path d="M 9.078125 75.984375 
L 18.109375 75.984375 
L 18.109375 31.109375 
L 44.921875 54.6875 
L 56.390625 54.6875 
L 27.390625 29.109375 
L 57.625 0 
L 45.90625 0 
L 18.109375 26.703125 
L 18.109375 0 
L 9.078125 0 
z
" id="DejaVuSans-107"/>
      </defs>
      <use xlink:href="#DejaVuSans-115"/>
      <use x="52.099609" xlink:href="#DejaVuSans-107"/>
      <use x="110.009766" xlink:href="#DejaVuSans-108"/>
      <use x="137.792969" xlink:href="#DejaVuSans-101"/>
      <use x="199.316406" xlink:href="#DejaVuSans-97"/>
      <use x="260.595703" xlink:href="#DejaVuSans-114"/>
      <use x="299.958984" xlink:href="#DejaVuSans-110"/>
     </g>
    </g>
    <g id="line2d_82">
     <path d="M 94.226967 329.698437 
L 122.226967 329.698437 
" style="fill:none;stroke:#d62728;stroke-linecap:square;stroke-width:3;"/>
    </g>
    <g id="line2d_83"/>
    <g id="text_26">
     <!-- statsmodels -->
     <g transform="translate(133.426967 334.598437)scale(0.14 -0.14)">
      <use xlink:href="#DejaVuSans-115"/>
      <use x="52.099609" xlink:href="#DejaVuSans-116"/>
      <use x="91.308594" xlink:href="#DejaVuSans-97"/>
      <use x="152.587891" xlink:href="#DejaVuSans-116"/>
      <use x="191.796875" xlink:href="#DejaVuSans-115"/>
      <use x="243.896484" xlink:href="#DejaVuSans-109"/>
      <use x="341.308594" xlink:href="#DejaVuSans-111"/>
      <use x="402.490234" xlink:href="#DejaVuSans-100"/>
      <use x="465.966797" xlink:href="#DejaVuSans-101"/>
      <use x="527.490234" xlink:href="#DejaVuSans-108"/>
      <use x="555.273438" xlink:href="#DejaVuSans-115"/>
     </g>
    </g>
   </g>
  </g>
 </g>
 <defs>
  <clipPath id="pa06723a566">
   <rect height="253.288" width="368.373033" x="81.626967" y="43.44"/>
  </clipPath>
 </defs>
</svg>
