<?xml version="1.0" encoding="utf-8" standalone="no"?>
<!DOCTYPE svg PUBLIC "-//W3C//DTD SVG 1.1//EN"
  "http://www.w3.org/Graphics/SVG/1.1/DTD/svg11.dtd">
<!-- Created with matplotlib (https://matplotlib.org/) -->
<svg height="345.6pt" version="1.1" viewBox="0 0 460.8 345.6" width="460.8pt" xmlns="http://www.w3.org/2000/svg" xmlns:xlink="http://www.w3.org/1999/xlink">
 <metadata>
  <rdf:RDF xmlns:cc="http://creativecommons.org/ns#" xmlns:dc="http://purl.org/dc/elements/1.1/" xmlns:rdf="http://www.w3.org/1999/02/22-rdf-syntax-ns#">
   <cc:Work>
    <dc:type rdf:resource="http://purl.org/dc/dcmitype/StillImage"/>
    <dc:date>2020-12-16T18:00:00.978276</dc:date>
    <dc:format>image/svg+xml</dc:format>
    <dc:creator>
     <cc:Agent>
      <dc:title>Matplotlib v3.3.3, https://matplotlib.org/</dc:title>
     </cc:Agent>
    </dc:creator>
   </cc:Work>
  </rdf:RDF>
 </metadata>
 <defs>
  <style type="text/css">*{stroke-linecap:butt;stroke-linejoin:round;}</style>
 </defs>
 <g id="figure_1">
  <g id="patch_1">
   <path d="M 0 345.6 
L 460.8 345.6 
L 460.8 0 
L 0 0 
z
" style="fill:#ffffff;"/>
  </g>
  <g id="axes_1">
   <g id="patch_2">
    <path d="M 60.992054 296.728 
L 450 296.728 
L 450 43.44 
L 60.992054 43.44 
z
" style="fill:#ffffff;"/>
   </g>
   <g id="PolyCollection_1">
    <defs>
     <path d="M 276.843088 -61.633997 
L 274.459882 -61.633997 
L 273.602192 -61.736757 
L 273.737396 -61.529669 
L 271.665354 -62.461822 
L 271.366408 -62.905704 
L 272.61248 -64.642104 
L 271.343412 -68.732348 
L 271.580523 -72.865969 
L 272.000246 -77.552296 
L 270.122178 -82.577452 
L 266.479861 -87.610598 
L 265.070453 -93.332932 
L 262.632374 -98.966466 
L 262.870709 -103.944715 
L 262.236702 -109.743996 
L 258.995634 -114.787111 
L 258.289548 -120.69215 
L 255.401012 -125.372992 
L 252.126695 -132.155238 
L 252.358282 -136.871589 
L 249.404369 -142.801872 
L 245.138711 -148.958245 
L 240.036717 -152.77104 
L 239.763679 -158.656442 
L 234.787119 -164.222491 
L 226.746309 -171.930195 
L 220.215049 -178.071783 
L 213.495114 -180.607597 
L 214.015857 -182.991691 
L 210.147794 -185.052311 
L 208.250165 -186.884938 
L 207.971965 -188.612338 
L 202.727483 -193.852503 
L 203.031132 -202.356363 
L 193.577566 -213.544627 
L 185.018026 -216.945993 
L 185.897056 -217.810045 
L 179.575727 -224.87115 
L 172.681075 -227.653121 
L 170.217415 -228.789071 
L 170.287937 -232.345517 
L 156.27364 -236.038309 
L 146.228769 -243.52309 
L 145.00705 -246.445837 
L 139.397218 -246.381641 
L 142.969792 -246.56203 
L 124.416986 -252.872989 
L 127.243587 -252.807564 
L 94.877662 -259.944454 
L 115.045145 -259.944454 
L 115.045145 -259.944454 
L 140.33301 -252.807564 
L 133.954052 -252.872989 
L 155.833721 -246.56203 
L 154.577311 -246.381641 
L 156.916303 -246.445837 
L 167.30557 -243.52309 
L 173.594368 -236.038309 
L 178.198573 -232.345517 
L 179.115199 -228.789071 
L 179.948821 -227.653121 
L 188.187042 -224.87115 
L 190.721347 -217.810045 
L 193.773526 -216.945993 
L 196.454017 -213.544627 
L 206.085422 -202.356363 
L 208.894872 -193.852503 
L 210.782442 -188.612338 
L 210.10846 -186.884938 
L 212.582 -185.052311 
L 214.956117 -182.991691 
L 216.547057 -180.607597 
L 223.816821 -178.071783 
L 230.865648 -171.930195 
L 237.787706 -164.222491 
L 243.35667 -158.656442 
L 245.772001 -152.77104 
L 248.835671 -148.958245 
L 249.973448 -142.801872 
L 254.293268 -136.871589 
L 254.483932 -132.155238 
L 258.954247 -125.372992 
L 259.83882 -120.69215 
L 261.452759 -114.787111 
L 271.249618 -109.743996 
L 266.539231 -103.944715 
L 266.133221 -98.966466 
L 267.482342 -93.332932 
L 269.26468 -87.610598 
L 271.645825 -82.577452 
L 272.877076 -77.552296 
L 272.7361 -72.865969 
L 273.426604 -68.732348 
L 274.062464 -64.642104 
L 273.219997 -62.905704 
L 277.404137 -62.461822 
L 297.138241 -61.529669 
L 281.199258 -61.736757 
L 276.843088 -61.633997 
z
" id="mef0e3e3a07" style="stroke:#1f77b4;stroke-opacity:0.3;"/>
    </defs>
    <g clip-path="url(#pfcd0a28f98)">
     <use style="fill:#1f77b4;fill-opacity:0.3;stroke:#1f77b4;stroke-opacity:0.3;" x="0" xlink:href="#mef0e3e3a07" y="345.6"/>
    </g>
   </g>
   <g id="PolyCollection_2">
    <defs>
     <path d="M 141.594397 -282.004707 
L 114.853924 -282.004707 
L 109.219082 -278.690776 
L 136.940956 -276.142605 
L 147.457886 -274.01939 
L 131.997601 -270.520948 
L 145.479572 -266.687865 
L 152.659975 -262.529792 
L 165.877382 -257.918534 
L 178.389063 -250.577443 
L 190.481046 -237.716023 
L 203.849989 -220.394984 
L 221.835753 -209.787977 
L 235.069417 -202.002244 
L 250.792269 -194.108659 
L 264.573289 -187.240995 
L 276.336913 -180.13126 
L 282.298202 -171.093984 
L 297.78356 -156.008368 
L 311.31984 -132.794152 
L 326.073611 -97.943172 
L 340.76274 -61.095658 
L 355.589135 -60.388125 
L 370.170653 -60.388125 
L 391.41551 -60.388125 
L 420.361863 -60.388125 
L 424.228916 -60.388125 
L 424.228916 -60.388125 
L 393.776174 -60.388125 
L 372.032626 -60.388125 
L 356.382443 -60.388125 
L 342.361979 -61.095658 
L 327.355257 -97.943172 
L 312.319456 -132.794152 
L 298.067564 -156.008368 
L 288.774191 -171.093984 
L 279.343948 -180.13126 
L 265.434813 -187.240995 
L 253.942148 -194.108659 
L 245.4958 -202.002244 
L 230.097923 -209.787977 
L 207.76245 -220.394984 
L 195.646208 -237.716023 
L 190.854352 -250.577443 
L 178.922993 -257.918534 
L 170.947352 -262.529792 
L 159.929687 -266.687865 
L 145.302405 -270.520948 
L 151.477932 -274.01939 
L 152.875837 -276.142605 
L 145.124035 -278.690776 
L 141.594397 -282.004707 
z
" id="m6290114df4" style="stroke:#ff7f0e;stroke-opacity:0.3;"/>
    </defs>
    <g clip-path="url(#pfcd0a28f98)">
     <use style="fill:#ff7f0e;fill-opacity:0.3;stroke:#ff7f0e;stroke-opacity:0.3;" x="0" xlink:href="#m6290114df4" y="345.6"/>
    </g>
   </g>
   <g id="PolyCollection_3">
    <defs>
     <path d="M 152.495781 -286.37801 
L 138.207795 -286.37801 
L 147.229616 -280.27098 
L 148.040526 -272.253052 
L 154.73151 -264.770028 
L 160.874903 -253.620667 
L 181.495097 -216.039952 
L 202.782461 -164.248533 
L 220.59134 -99.843563 
L 238.080571 -60.388125 
L 238.235911 -60.388125 
L 236.57238 -60.388125 
L 237.906501 -60.388125 
L 238.205829 -60.388125 
L 239.269049 -60.388125 
L 240.763549 -60.388125 
L 240.763549 -60.388125 
L 240.517407 -60.388125 
L 240.868161 -60.388125 
L 286.988634 -60.388125 
L 242.69265 -60.388125 
L 239.759429 -60.388125 
L 221.501858 -99.843563 
L 209.493247 -164.248533 
L 185.980347 -216.039952 
L 171.737294 -253.620667 
L 163.754267 -264.770028 
L 156.707094 -272.253052 
L 160.041765 -280.27098 
L 152.495781 -286.37801 
z
" id="mbab8c6242d" style="stroke:#2ca02c;stroke-opacity:0.3;"/>
    </defs>
    <g clip-path="url(#pfcd0a28f98)">
     <use style="fill:#2ca02c;fill-opacity:0.3;stroke:#2ca02c;stroke-opacity:0.3;" x="0" xlink:href="#mbab8c6242d" y="345.6"/>
    </g>
   </g>
   <g id="PolyCollection_4">
    <defs>
     <path d="M 320.055027 -288.794501 
L 273.537032 -288.794501 
L 283.348717 -288.794501 
L 293.564699 -288.794501 
L 309.715337 -288.794501 
L 341.30533 -260.634688 
L 359.22596 -128.243495 
L 359.752423 -128.243495 
L 359.427785 -128.243495 
L 359.183491 -128.243495 
L 358.53086 -128.243495 
L 357.991978 -128.243495 
L 362.826147 -128.243495 
L 362.826147 -128.243495 
L 359.41728 -128.243495 
L 359.675507 -128.243495 
L 364.385733 -128.243495 
L 362.067589 -128.243495 
L 365.260266 -128.243495 
L 341.803145 -260.634688 
L 315.209322 -288.794501 
L 296.670935 -288.794501 
L 287.430219 -288.794501 
L 320.055027 -288.794501 
z
" id="m0c599c7b27" style="stroke:#d62728;stroke-opacity:0.3;"/>
    </defs>
    <g clip-path="url(#pfcd0a28f98)">
     <use style="fill:#d62728;fill-opacity:0.3;stroke:#d62728;stroke-opacity:0.3;" x="0" xlink:href="#m0c599c7b27" y="345.6"/>
    </g>
   </g>
   <g id="PolyCollection_5">
    <defs>
     <path d="M 279.253109 -290.646909 
L 78.674233 -290.646909 
L 93.312432 -281.203941 
L 102.900128 -276.915199 
L 116.037902 -276.160078 
L 115.554108 -274.752305 
L 132.291138 -273.107905 
L 145.572115 -272.496913 
L 165.776372 -272.496913 
L 188.95843 -265.970929 
L 215.458377 -258.83516 
L 229.315382 -251.62554 
L 247.776685 -239.549258 
L 270.868473 -220.072206 
L 287.152293 -202.313007 
L 304.732258 -164.207751 
L 326.872658 -98.670657 
L 348.062593 -95.07956 
L 367.845968 -92.142892 
L 395.052004 -88.908504 
L 428.345163 -84.973316 
L 432.317821 -84.973316 
L 432.317821 -84.973316 
L 402.796832 -88.908504 
L 369.736664 -92.142892 
L 349.069894 -95.07956 
L 328.793359 -98.670657 
L 306.702198 -164.207751 
L 292.813289 -202.313007 
L 277.097444 -220.072206 
L 273.61237 -239.549258 
L 234.057663 -251.62554 
L 223.35977 -258.83516 
L 205.53482 -265.970929 
L 184.802685 -272.496913 
L 194.188094 -272.496913 
L 153.3464 -273.107905 
L 134.794997 -274.752305 
L 145.656409 -276.160078 
L 151.329713 -276.915199 
L 121.08953 -281.203941 
L 279.253109 -290.646909 
z
" id="m6cdd349bc4" style="stroke:#9467bd;stroke-opacity:0.3;"/>
    </defs>
    <g clip-path="url(#pfcd0a28f98)">
     <use style="fill:#9467bd;fill-opacity:0.3;stroke:#9467bd;stroke-opacity:0.3;" x="0" xlink:href="#m6cdd349bc4" y="345.6"/>
    </g>
   </g>
   <g id="PolyCollection_6">
    <defs>
     <path d="M 252.701324 -290.646909 
L 209.217365 -290.646909 
L 193.977971 -290.574015 
L 199.444434 -290.574015 
L 192.754809 -290.504798 
L 196.176115 -290.439112 
L 200.968074 -290.317751 
L 202.498199 -290.111199 
L 201.9383 -289.875477 
L 205.348599 -289.464665 
L 210.485724 -288.448561 
L 218.832097 -287.123896 
L 217.795831 -285.16836 
L 228.07305 -281.302592 
L 239.260732 -276.660056 
L 252.560621 -269.266341 
L 266.621641 -261.052729 
L 283.487852 -251.236115 
L 299.870201 -226.765306 
L 303.255796 -123.051105 
L 302.024252 -123.051105 
L 301.66706 -123.051105 
L 302.211084 -123.051105 
L 310.43634 -123.051105 
L 307.865556 -123.051105 
L 323.61938 -123.051105 
L 323.61938 -123.051105 
L 322.738901 -123.051105 
L 315.008495 -123.051105 
L 309.00645 -123.051105 
L 308.264449 -123.051105 
L 308.252216 -123.051105 
L 307.503463 -226.765306 
L 287.775364 -251.236115 
L 281.722917 -261.052729 
L 256.03333 -269.266341 
L 246.318214 -276.660056 
L 257.980247 -281.302592 
L 230.873878 -285.16836 
L 253.390408 -287.123896 
L 217.588383 -288.448561 
L 251.005073 -289.464665 
L 248.754646 -289.875477 
L 219.302871 -290.111199 
L 246.280443 -290.317751 
L 220.987145 -290.439112 
L 203.521113 -290.504798 
L 262.550686 -290.574015 
L 245.947037 -290.574015 
L 252.701324 -290.646909 
z
" id="mda0cf689d5" style="stroke:#8c564b;stroke-opacity:0.3;"/>
    </defs>
    <g clip-path="url(#pfcd0a28f98)">
     <use style="fill:#8c564b;fill-opacity:0.3;stroke:#8c564b;stroke-opacity:0.3;" x="0" xlink:href="#mda0cf689d5" y="345.6"/>
    </g>
   </g>
   <g id="PolyCollection_7">
    <defs>
     <path d="M 359.472221 -279.636886 
L 230.831561 -279.636886 
L 227.31771 -277.648965 
L 239.180025 -276.864177 
L 226.28744 -276.300035 
L 221.380484 -275.42208 
L 218.899269 -274.393668 
L 231.306791 -273.320344 
L 224.724422 -272.082585 
L 239.819522 -270.734738 
L 240.156189 -269.196935 
L 249.772737 -267.504126 
L 255.529767 -265.524441 
L 266.054085 -263.39452 
L 270.563844 -261.054314 
L 276.921018 -258.212227 
L 284.554926 -254.825328 
L 292.281302 -251.179681 
L 300.581291 -247.650194 
L 315.58893 -243.846808 
L 325.881434 -239.407096 
L 337.640957 -233.639329 
L 352.841836 -225.047241 
L 369.495554 -219.567271 
L 383.301791 -214.309821 
L 398.573366 -209.033161 
L 403.90571 -209.033161 
L 403.90571 -209.033161 
L 391.97419 -214.309821 
L 379.075064 -219.567271 
L 356.872873 -225.047241 
L 360.621437 -233.639329 
L 335.364083 -239.407096 
L 332.986432 -243.846808 
L 306.936706 -247.650194 
L 302.485031 -251.179681 
L 288.347894 -254.825328 
L 280.631907 -258.212227 
L 275.235914 -261.054314 
L 270.585562 -263.39452 
L 263.632632 -265.524441 
L 255.425748 -267.504126 
L 247.45871 -269.196935 
L 242.25819 -270.734738 
L 237.662876 -272.082585 
L 252.495617 -273.320344 
L 250.539826 -274.393668 
L 235.957784 -275.42208 
L 249.760593 -276.300035 
L 247.989219 -276.864177 
L 239.407114 -277.648965 
L 359.472221 -279.636886 
z
" id="m291913290c" style="stroke:#e377c2;stroke-opacity:0.3;"/>
    </defs>
    <g clip-path="url(#pfcd0a28f98)">
     <use style="fill:#e377c2;fill-opacity:0.3;stroke:#e377c2;stroke-opacity:0.3;" x="0" xlink:href="#m291913290c" y="345.6"/>
    </g>
   </g>
   <g id="PolyCollection_8">
    <defs>
     <path d="M 241.534832 -287.301202 
L 184.696728 -287.301202 
L 185.906718 -277.796539 
L 190.875723 -277.24112 
L 194.168679 -276.001157 
L 193.803045 -274.190949 
L 201.906163 -271.812525 
L 208.283372 -269.324379 
L 217.499897 -265.916152 
L 223.813117 -261.614004 
L 234.272014 -255.598715 
L 247.788164 -249.535911 
L 256.993173 -242.807289 
L 266.60171 -235.522786 
L 278.869484 -224.678855 
L 290.996223 -215.084253 
L 304.719152 -204.727976 
L 319.195419 -187.627904 
L 331.009694 -164.778933 
L 347.27579 -124.936944 
L 359.472347 -69.477916 
L 361.538934 -69.477916 
L 359.841846 -69.477916 
L 358.831947 -69.477916 
L 358.912782 -69.477916 
L 359.881906 -69.477916 
L 361.99514 -69.477916 
L 361.99514 -69.477916 
L 360.053176 -69.477916 
L 360.605605 -69.477916 
L 362.612083 -69.477916 
L 365.565109 -69.477916 
L 360.444053 -69.477916 
L 349.265502 -124.936944 
L 334.544205 -164.778933 
L 323.170895 -187.627904 
L 307.086267 -204.727976 
L 297.590579 -215.084253 
L 280.691067 -224.678855 
L 275.808537 -235.522786 
L 259.335019 -242.807289 
L 262.24024 -249.535911 
L 236.936015 -255.598715 
L 229.019756 -261.614004 
L 250.092324 -265.916152 
L 210.355519 -269.324379 
L 243.606505 -271.812525 
L 197.765786 -274.190949 
L 202.930755 -276.001157 
L 234.276099 -277.24112 
L 190.283097 -277.796539 
L 241.534832 -287.301202 
z
" id="mabec6b76f1" style="stroke:#7f7f7f;stroke-opacity:0.3;"/>
    </defs>
    <g clip-path="url(#pfcd0a28f98)">
     <use style="fill:#7f7f7f;fill-opacity:0.3;stroke:#7f7f7f;stroke-opacity:0.3;" x="0" xlink:href="#mabec6b76f1" y="345.6"/>
    </g>
   </g>
   <g id="PolyCollection_9">
    <defs>
     <path d="M 157.439216 -283.854674 
L 144.160567 -283.854674 
L 160.961335 -282.181392 
L 165.630175 -280.348955 
L 169.186459 -278.508453 
L 169.199185 -275.880751 
L 172.918357 -273.028408 
L 174.09195 -271.680914 
L 177.32847 -269.175147 
L 179.551132 -267.442515 
L 183.45156 -267.024001 
L 188.036596 -267.391166 
L 192.640198 -267.218687 
L 197.580256 -267.162979 
L 206.529555 -266.837837 
L 215.143858 -266.816681 
L 225.352065 -266.308814 
L 237.967478 -268.440302 
L 251.349435 -268.073597 
L 264.451994 -268.112071 
L 270.86785 -267.917997 
L 280.459793 -267.910309 
L 290.510513 -267.591412 
L 300.985587 -266.988468 
L 313.168294 -266.949482 
L 325.787016 -266.536715 
L 341.992898 -267.530139 
L 354.345819 -267.995549 
L 370.414717 -266.848827 
L 386.716015 -267.07035 
L 400.806208 -266.603599 
L 402.632247 -266.603599 
L 402.632247 -266.603599 
L 388.799708 -267.07035 
L 374.922718 -266.848827 
L 360.737141 -267.995549 
L 345.470217 -267.530139 
L 328.781214 -266.536715 
L 316.27622 -266.949482 
L 308.196311 -266.988468 
L 311.231111 -267.591412 
L 289.271075 -267.910309 
L 278.105817 -267.917997 
L 268.396776 -268.112071 
L 253.407198 -268.073597 
L 240.380674 -268.440302 
L 227.751398 -266.308814 
L 217.025216 -266.816681 
L 207.585865 -266.837837 
L 202.539648 -267.162979 
L 196.388327 -267.218687 
L 191.105506 -267.391166 
L 188.439391 -267.024001 
L 185.377439 -267.442515 
L 180.383941 -269.175147 
L 178.83987 -271.680914 
L 176.834105 -273.028408 
L 176.314438 -275.880751 
L 175.481188 -278.508453 
L 175.415724 -280.348955 
L 168.444168 -282.181392 
L 157.439216 -283.854674 
z
" id="m35b4c0a5b2" style="stroke:#bcbd22;stroke-opacity:0.3;"/>
    </defs>
    <g clip-path="url(#pfcd0a28f98)">
     <use style="fill:#bcbd22;fill-opacity:0.3;stroke:#bcbd22;stroke-opacity:0.3;" x="0" xlink:href="#m35b4c0a5b2" y="345.6"/>
    </g>
   </g>
   <g id="PolyCollection_10">
    <defs>
     <path d="M 219.183032 -279.636886 
L 209.867334 -279.636886 
L 206.811165 -277.648965 
L 211.35922 -276.864177 
L 208.465479 -276.300035 
L 210.421447 -275.42208 
L 210.274748 -274.393668 
L 210.28725 -273.320344 
L 213.158509 -272.082585 
L 213.794666 -270.734738 
L 218.470364 -269.196935 
L 220.845148 -267.504126 
L 226.851079 -265.524441 
L 233.423784 -263.39452 
L 241.684573 -261.054314 
L 251.303826 -258.212227 
L 258.085367 -254.825328 
L 267.701592 -251.179681 
L 280.759411 -247.650194 
L 292.551333 -243.846808 
L 304.324535 -239.407096 
L 318.144166 -233.639329 
L 337.633211 -225.047241 
L 352.178806 -219.567271 
L 367.399062 -214.309821 
L 387.237002 -209.033161 
L 401.813675 -204.18195 
L 405.539475 -204.18195 
L 405.539475 -204.18195 
L 391.761471 -209.033161 
L 374.354838 -214.309821 
L 358.392905 -219.567271 
L 346.41485 -225.047241 
L 337.564719 -233.639329 
L 307.174691 -239.407096 
L 295.363391 -243.846808 
L 284.807943 -247.650194 
L 271.633135 -251.179681 
L 261.577755 -254.825328 
L 253.434972 -258.212227 
L 246.376104 -261.054314 
L 235.294129 -263.39452 
L 231.308565 -265.524441 
L 224.377996 -267.504126 
L 220.012684 -269.196935 
L 219.313316 -270.734738 
L 216.993218 -272.082585 
L 213.99769 -273.320344 
L 212.794346 -274.393668 
L 219.196548 -275.42208 
L 212.622462 -276.300035 
L 212.194332 -276.864177 
L 211.926367 -277.648965 
L 219.183032 -279.636886 
z
" id="m9dfdea6aa8" style="stroke:#17becf;stroke-opacity:0.3;"/>
    </defs>
    <g clip-path="url(#pfcd0a28f98)">
     <use style="fill:#17becf;fill-opacity:0.3;stroke:#17becf;stroke-opacity:0.3;" x="0" xlink:href="#m9dfdea6aa8" y="345.6"/>
    </g>
   </g>
   <g id="PolyCollection_11">
    <defs>
     <path d="M 217.581465 -279.636886 
L 213.2152 -279.636886 
L 216.943736 -277.648965 
L 216.024639 -276.682447 
L 218.829756 -275.897224 
L 217.8594 -274.466654 
L 218.99431 -272.530165 
L 219.819027 -270.398848 
L 220.859421 -267.756569 
L 222.894084 -264.253779 
L 226.446731 -259.867387 
L 229.291651 -253.672429 
L 235.787173 -247.042231 
L 243.280067 -239.342954 
L 250.109717 -228.430717 
L 259.43041 -217.790164 
L 267.170298 -205.963236 
L 278.200712 -194.971163 
L 290.403784 -187.314876 
L 304.509625 -174.040235 
L 316.600363 -165.20791 
L 330.263262 -155.190214 
L 346.483228 -143.625479 
L 362.380721 -132.111045 
L 378.830503 -124.46425 
L 392.592545 -110.647978 
L 408.990481 -97.462406 
L 410.238971 -97.462406 
L 410.238971 -97.462406 
L 397.739308 -110.647978 
L 385.496685 -124.46425 
L 364.322273 -132.111045 
L 351.836493 -143.625479 
L 337.313867 -155.190214 
L 323.130023 -165.20791 
L 305.739468 -174.040235 
L 299.433594 -187.314876 
L 279.762981 -194.971163 
L 269.936709 -205.963236 
L 261.441052 -217.790164 
L 252.792313 -228.430717 
L 245.732816 -239.342954 
L 239.12864 -247.042231 
L 232.498255 -253.672429 
L 229.317013 -259.867387 
L 225.974923 -264.253779 
L 222.611449 -267.756569 
L 223.046267 -270.398848 
L 221.572934 -272.530165 
L 220.646848 -274.466654 
L 219.635113 -275.897224 
L 217.538203 -276.682447 
L 220.362026 -277.648965 
L 217.581465 -279.636886 
z
" id="m9621642482" style="stroke:#1f77b4;stroke-opacity:0.3;"/>
    </defs>
    <g clip-path="url(#pfcd0a28f98)">
     <use style="fill:#1f77b4;fill-opacity:0.3;stroke:#1f77b4;stroke-opacity:0.3;" x="0" xlink:href="#m9621642482" y="345.6"/>
    </g>
   </g>
   <g id="PolyCollection_12">
    <defs>
     <path d="M 248.396871 -279.636886 
L 240.94005 -279.636886 
L 247.274561 -277.648965 
L 253.379786 -276.864177 
L 259.226331 -276.300035 
L 265.0491 -275.42208 
L 276.491578 -274.393668 
L 287.834652 -273.320344 
L 297.852483 -272.082585 
L 310.830138 -270.734738 
L 326.625705 -269.196935 
L 341.415489 -267.504126 
L 355.922986 -265.524441 
L 369.907142 -263.39452 
L 386.182222 -261.054314 
L 400.947192 -258.212227 
L 416.337452 -254.825328 
L 416.337452 -254.825328 
L 416.337452 -254.825328 
L 402.188044 -258.212227 
L 387.434431 -261.054314 
L 371.845035 -263.39452 
L 357.557553 -265.524441 
L 342.330345 -267.504126 
L 337.147281 -269.196935 
L 312.946704 -270.734738 
L 301.718042 -272.082585 
L 298.133599 -273.320344 
L 280.266113 -274.393668 
L 269.518135 -275.42208 
L 266.610003 -276.300035 
L 260.010574 -276.864177 
L 254.884419 -277.648965 
L 248.396871 -279.636886 
z
" id="m1ac449c504" style="stroke:#ff7f0e;stroke-opacity:0.3;"/>
    </defs>
    <g clip-path="url(#pfcd0a28f98)">
     <use style="fill:#ff7f0e;fill-opacity:0.3;stroke:#ff7f0e;stroke-opacity:0.3;" x="0" xlink:href="#m1ac449c504" y="345.6"/>
    </g>
   </g>
   <g id="PolyCollection_13">
    <defs>
     <path d="M 152.940645 -282.004707 
L 144.556613 -282.004707 
L 149.720092 -278.690776 
L 147.450749 -276.142605 
L 145.522333 -274.01939 
L 155.252391 -270.520948 
L 157.888697 -266.687865 
L 163.967142 -262.529792 
L 172.774482 -257.918534 
L 180.211543 -250.577443 
L 188.004637 -237.716023 
L 202.59332 -220.394984 
L 212.005964 -209.787977 
L 226.641057 -202.002244 
L 244.029766 -194.108659 
L 256.199356 -187.240995 
L 271.35013 -180.13126 
L 283.056222 -171.093984 
L 294.985066 -156.008368 
L 308.627083 -132.794152 
L 321.583633 -97.943172 
L 331.527947 -61.095658 
L 347.864171 -60.388125 
L 363.315496 -60.388125 
L 387.228601 -60.388125 
L 412.860594 -60.388125 
L 418.293341 -60.388125 
L 418.293341 -60.388125 
L 394.230398 -60.388125 
L 367.564022 -60.388125 
L 351.845824 -60.388125 
L 339.154501 -61.095658 
L 325.810478 -97.943172 
L 329.743986 -132.794152 
L 296.22256 -156.008368 
L 284.395517 -171.093984 
L 272.752769 -180.13126 
L 258.139069 -187.240995 
L 246.209858 -194.108659 
L 232.827551 -202.002244 
L 216.058221 -209.787977 
L 204.693227 -220.394984 
L 193.580522 -237.716023 
L 185.510885 -250.577443 
L 176.192208 -257.918534 
L 172.966535 -262.529792 
L 160.887285 -266.687865 
L 168.794951 -270.520948 
L 156.494214 -274.01939 
L 150.071191 -276.142605 
L 155.829328 -278.690776 
L 152.940645 -282.004707 
z
" id="md6f7b4433d" style="stroke:#2ca02c;stroke-opacity:0.3;"/>
    </defs>
    <g clip-path="url(#pfcd0a28f98)">
     <use style="fill:#2ca02c;fill-opacity:0.3;stroke:#2ca02c;stroke-opacity:0.3;" x="0" xlink:href="#md6f7b4433d" y="345.6"/>
    </g>
   </g>
   <g id="PolyCollection_14">
    <defs>
     <path d="M 352.244465 -282.004707 
L 350.396743 -282.004707 
L 373.100275 -278.690776 
L 375.55504 -276.014682 
L 377.100608 -274.104547 
L 381.986846 -271.541936 
L 383.941649 -269.962994 
L 384.937497 -269.442288 
L 384.937497 -269.442288 
L 384.937497 -269.442288 
L 386.043491 -269.962994 
L 384.563514 -271.541936 
L 379.83788 -274.104547 
L 377.815948 -276.014682 
L 374.313573 -278.690776 
L 352.244465 -282.004707 
z
" id="m386c257439" style="stroke:#d62728;stroke-opacity:0.3;"/>
    </defs>
    <g clip-path="url(#pfcd0a28f98)">
     <use style="fill:#d62728;fill-opacity:0.3;stroke:#d62728;stroke-opacity:0.3;" x="0" xlink:href="#m386c257439" y="345.6"/>
    </g>
   </g>
   <g id="matplotlib.axis_1">
    <g id="xtick_1">
     <g id="line2d_1">
      <defs>
       <path d="M 0 0 
L 0 3.5 
" id="m2ea94adb3b" style="stroke:#000000;stroke-width:0.8;"/>
      </defs>
      <g>
       <use style="stroke:#000000;stroke-width:0.8;" x="68.201904" xlink:href="#m2ea94adb3b" y="296.728"/>
      </g>
     </g>
     <g id="text_1">
      <!-- $\mathdefault{10^{-3}}$ -->
      <g transform="translate(56.451904 311.326437)scale(0.1 -0.1)">
       <defs>
        <path d="M 12.40625 8.296875 
L 28.515625 8.296875 
L 28.515625 63.921875 
L 10.984375 60.40625 
L 10.984375 69.390625 
L 28.421875 72.90625 
L 38.28125 72.90625 
L 38.28125 8.296875 
L 54.390625 8.296875 
L 54.390625 0 
L 12.40625 0 
z
" id="DejaVuSans-49"/>
        <path d="M 31.78125 66.40625 
Q 24.171875 66.40625 20.328125 58.90625 
Q 16.5 51.421875 16.5 36.375 
Q 16.5 21.390625 20.328125 13.890625 
Q 24.171875 6.390625 31.78125 6.390625 
Q 39.453125 6.390625 43.28125 13.890625 
Q 47.125 21.390625 47.125 36.375 
Q 47.125 51.421875 43.28125 58.90625 
Q 39.453125 66.40625 31.78125 66.40625 
z
M 31.78125 74.21875 
Q 44.046875 74.21875 50.515625 64.515625 
Q 56.984375 54.828125 56.984375 36.375 
Q 56.984375 17.96875 50.515625 8.265625 
Q 44.046875 -1.421875 31.78125 -1.421875 
Q 19.53125 -1.421875 13.0625 8.265625 
Q 6.59375 17.96875 6.59375 36.375 
Q 6.59375 54.828125 13.0625 64.515625 
Q 19.53125 74.21875 31.78125 74.21875 
z
" id="DejaVuSans-48"/>
        <path d="M 10.59375 35.5 
L 73.1875 35.5 
L 73.1875 27.203125 
L 10.59375 27.203125 
z
" id="DejaVuSans-8722"/>
        <path d="M 40.578125 39.3125 
Q 47.65625 37.796875 51.625 33 
Q 55.609375 28.21875 55.609375 21.1875 
Q 55.609375 10.40625 48.1875 4.484375 
Q 40.765625 -1.421875 27.09375 -1.421875 
Q 22.515625 -1.421875 17.65625 -0.515625 
Q 12.796875 0.390625 7.625 2.203125 
L 7.625 11.71875 
Q 11.71875 9.328125 16.59375 8.109375 
Q 21.484375 6.890625 26.8125 6.890625 
Q 36.078125 6.890625 40.9375 10.546875 
Q 45.796875 14.203125 45.796875 21.1875 
Q 45.796875 27.640625 41.28125 31.265625 
Q 36.765625 34.90625 28.71875 34.90625 
L 20.21875 34.90625 
L 20.21875 43.015625 
L 29.109375 43.015625 
Q 36.375 43.015625 40.234375 45.921875 
Q 44.09375 48.828125 44.09375 54.296875 
Q 44.09375 59.90625 40.109375 62.90625 
Q 36.140625 65.921875 28.71875 65.921875 
Q 24.65625 65.921875 20.015625 65.03125 
Q 15.375 64.15625 9.8125 62.3125 
L 9.8125 71.09375 
Q 15.4375 72.65625 20.34375 73.4375 
Q 25.25 74.21875 29.59375 74.21875 
Q 40.828125 74.21875 47.359375 69.109375 
Q 53.90625 64.015625 53.90625 55.328125 
Q 53.90625 49.265625 50.4375 45.09375 
Q 46.96875 40.921875 40.578125 39.3125 
z
" id="DejaVuSans-51"/>
       </defs>
       <use transform="translate(0 0.765625)" xlink:href="#DejaVuSans-49"/>
       <use transform="translate(63.623047 0.765625)" xlink:href="#DejaVuSans-48"/>
       <use transform="translate(128.203125 39.046875)scale(0.7)" xlink:href="#DejaVuSans-8722"/>
       <use transform="translate(186.855469 39.046875)scale(0.7)" xlink:href="#DejaVuSans-51"/>
      </g>
     </g>
    </g>
    <g id="xtick_2">
     <g id="line2d_2">
      <g>
       <use style="stroke:#000000;stroke-width:0.8;" x="156.053479" xlink:href="#m2ea94adb3b" y="296.728"/>
      </g>
     </g>
     <g id="text_2">
      <!-- $\mathdefault{10^{-2}}$ -->
      <g transform="translate(144.303479 311.326437)scale(0.1 -0.1)">
       <defs>
        <path d="M 19.1875 8.296875 
L 53.609375 8.296875 
L 53.609375 0 
L 7.328125 0 
L 7.328125 8.296875 
Q 12.9375 14.109375 22.625 23.890625 
Q 32.328125 33.6875 34.8125 36.53125 
Q 39.546875 41.84375 41.421875 45.53125 
Q 43.3125 49.21875 43.3125 52.78125 
Q 43.3125 58.59375 39.234375 62.25 
Q 35.15625 65.921875 28.609375 65.921875 
Q 23.96875 65.921875 18.8125 64.3125 
Q 13.671875 62.703125 7.8125 59.421875 
L 7.8125 69.390625 
Q 13.765625 71.78125 18.9375 73 
Q 24.125 74.21875 28.421875 74.21875 
Q 39.75 74.21875 46.484375 68.546875 
Q 53.21875 62.890625 53.21875 53.421875 
Q 53.21875 48.921875 51.53125 44.890625 
Q 49.859375 40.875 45.40625 35.40625 
Q 44.1875 33.984375 37.640625 27.21875 
Q 31.109375 20.453125 19.1875 8.296875 
z
" id="DejaVuSans-50"/>
       </defs>
       <use transform="translate(0 0.765625)" xlink:href="#DejaVuSans-49"/>
       <use transform="translate(63.623047 0.765625)" xlink:href="#DejaVuSans-48"/>
       <use transform="translate(128.203125 39.046875)scale(0.7)" xlink:href="#DejaVuSans-8722"/>
       <use transform="translate(186.855469 39.046875)scale(0.7)" xlink:href="#DejaVuSans-50"/>
      </g>
     </g>
    </g>
    <g id="xtick_3">
     <g id="line2d_3">
      <g>
       <use style="stroke:#000000;stroke-width:0.8;" x="243.905055" xlink:href="#m2ea94adb3b" y="296.728"/>
      </g>
     </g>
     <g id="text_3">
      <!-- $\mathdefault{10^{-1}}$ -->
      <g transform="translate(232.155055 311.326437)scale(0.1 -0.1)">
       <use transform="translate(0 0.684375)" xlink:href="#DejaVuSans-49"/>
       <use transform="translate(63.623047 0.684375)" xlink:href="#DejaVuSans-48"/>
       <use transform="translate(128.203125 38.965625)scale(0.7)" xlink:href="#DejaVuSans-8722"/>
       <use transform="translate(186.855469 38.965625)scale(0.7)" xlink:href="#DejaVuSans-49"/>
      </g>
     </g>
    </g>
    <g id="xtick_4">
     <g id="line2d_4">
      <g>
       <use style="stroke:#000000;stroke-width:0.8;" x="331.75663" xlink:href="#m2ea94adb3b" y="296.728"/>
      </g>
     </g>
     <g id="text_4">
      <!-- $\mathdefault{10^{0}}$ -->
      <g transform="translate(322.95663 311.326437)scale(0.1 -0.1)">
       <use transform="translate(0 0.765625)" xlink:href="#DejaVuSans-49"/>
       <use transform="translate(63.623047 0.765625)" xlink:href="#DejaVuSans-48"/>
       <use transform="translate(128.203125 39.046875)scale(0.7)" xlink:href="#DejaVuSans-48"/>
      </g>
     </g>
    </g>
    <g id="xtick_5">
     <g id="line2d_5">
      <g>
       <use style="stroke:#000000;stroke-width:0.8;" x="419.608206" xlink:href="#m2ea94adb3b" y="296.728"/>
      </g>
     </g>
     <g id="text_5">
      <!-- $\mathdefault{10^{1}}$ -->
      <g transform="translate(410.808206 311.326437)scale(0.1 -0.1)">
       <use transform="translate(0 0.684375)" xlink:href="#DejaVuSans-49"/>
       <use transform="translate(63.623047 0.684375)" xlink:href="#DejaVuSans-48"/>
       <use transform="translate(128.203125 38.965625)scale(0.7)" xlink:href="#DejaVuSans-49"/>
      </g>
     </g>
    </g>
    <g id="xtick_6">
     <g id="line2d_6">
      <defs>
       <path d="M 0 0 
L 0 2 
" id="m5795fd2f2c" style="stroke:#000000;stroke-width:0.6;"/>
      </defs>
      <g>
       <use style="stroke:#000000;stroke-width:0.6;" x="64.182036" xlink:href="#m5795fd2f2c" y="296.728"/>
      </g>
     </g>
    </g>
    <g id="xtick_7">
     <g id="line2d_7">
      <g>
       <use style="stroke:#000000;stroke-width:0.6;" x="94.647863" xlink:href="#m5795fd2f2c" y="296.728"/>
      </g>
     </g>
    </g>
    <g id="xtick_8">
     <g id="line2d_8">
      <g>
       <use style="stroke:#000000;stroke-width:0.6;" x="110.117758" xlink:href="#m5795fd2f2c" y="296.728"/>
      </g>
     </g>
    </g>
    <g id="xtick_9">
     <g id="line2d_9">
      <g>
       <use style="stroke:#000000;stroke-width:0.6;" x="121.093823" xlink:href="#m5795fd2f2c" y="296.728"/>
      </g>
     </g>
    </g>
    <g id="xtick_10">
     <g id="line2d_10">
      <g>
       <use style="stroke:#000000;stroke-width:0.6;" x="129.60752" xlink:href="#m5795fd2f2c" y="296.728"/>
      </g>
     </g>
    </g>
    <g id="xtick_11">
     <g id="line2d_11">
      <g>
       <use style="stroke:#000000;stroke-width:0.6;" x="136.563717" xlink:href="#m5795fd2f2c" y="296.728"/>
      </g>
     </g>
    </g>
    <g id="xtick_12">
     <g id="line2d_12">
      <g>
       <use style="stroke:#000000;stroke-width:0.6;" x="142.445098" xlink:href="#m5795fd2f2c" y="296.728"/>
      </g>
     </g>
    </g>
    <g id="xtick_13">
     <g id="line2d_13">
      <g>
       <use style="stroke:#000000;stroke-width:0.6;" x="147.539782" xlink:href="#m5795fd2f2c" y="296.728"/>
      </g>
     </g>
    </g>
    <g id="xtick_14">
     <g id="line2d_14">
      <g>
       <use style="stroke:#000000;stroke-width:0.6;" x="152.033612" xlink:href="#m5795fd2f2c" y="296.728"/>
      </g>
     </g>
    </g>
    <g id="xtick_15">
     <g id="line2d_15">
      <g>
       <use style="stroke:#000000;stroke-width:0.6;" x="182.499439" xlink:href="#m5795fd2f2c" y="296.728"/>
      </g>
     </g>
    </g>
    <g id="xtick_16">
     <g id="line2d_16">
      <g>
       <use style="stroke:#000000;stroke-width:0.6;" x="197.969333" xlink:href="#m5795fd2f2c" y="296.728"/>
      </g>
     </g>
    </g>
    <g id="xtick_17">
     <g id="line2d_17">
      <g>
       <use style="stroke:#000000;stroke-width:0.6;" x="208.945398" xlink:href="#m5795fd2f2c" y="296.728"/>
      </g>
     </g>
    </g>
    <g id="xtick_18">
     <g id="line2d_18">
      <g>
       <use style="stroke:#000000;stroke-width:0.6;" x="217.459095" xlink:href="#m5795fd2f2c" y="296.728"/>
      </g>
     </g>
    </g>
    <g id="xtick_19">
     <g id="line2d_19">
      <g>
       <use style="stroke:#000000;stroke-width:0.6;" x="224.415293" xlink:href="#m5795fd2f2c" y="296.728"/>
      </g>
     </g>
    </g>
    <g id="xtick_20">
     <g id="line2d_20">
      <g>
       <use style="stroke:#000000;stroke-width:0.6;" x="230.296674" xlink:href="#m5795fd2f2c" y="296.728"/>
      </g>
     </g>
    </g>
    <g id="xtick_21">
     <g id="line2d_21">
      <g>
       <use style="stroke:#000000;stroke-width:0.6;" x="235.391357" xlink:href="#m5795fd2f2c" y="296.728"/>
      </g>
     </g>
    </g>
    <g id="xtick_22">
     <g id="line2d_22">
      <g>
       <use style="stroke:#000000;stroke-width:0.6;" x="239.885187" xlink:href="#m5795fd2f2c" y="296.728"/>
      </g>
     </g>
    </g>
    <g id="xtick_23">
     <g id="line2d_23">
      <g>
       <use style="stroke:#000000;stroke-width:0.6;" x="270.351014" xlink:href="#m5795fd2f2c" y="296.728"/>
      </g>
     </g>
    </g>
    <g id="xtick_24">
     <g id="line2d_24">
      <g>
       <use style="stroke:#000000;stroke-width:0.6;" x="285.820909" xlink:href="#m5795fd2f2c" y="296.728"/>
      </g>
     </g>
    </g>
    <g id="xtick_25">
     <g id="line2d_25">
      <g>
       <use style="stroke:#000000;stroke-width:0.6;" x="296.796974" xlink:href="#m5795fd2f2c" y="296.728"/>
      </g>
     </g>
    </g>
    <g id="xtick_26">
     <g id="line2d_26">
      <g>
       <use style="stroke:#000000;stroke-width:0.6;" x="305.310671" xlink:href="#m5795fd2f2c" y="296.728"/>
      </g>
     </g>
    </g>
    <g id="xtick_27">
     <g id="line2d_27">
      <g>
       <use style="stroke:#000000;stroke-width:0.6;" x="312.266868" xlink:href="#m5795fd2f2c" y="296.728"/>
      </g>
     </g>
    </g>
    <g id="xtick_28">
     <g id="line2d_28">
      <g>
       <use style="stroke:#000000;stroke-width:0.6;" x="318.148249" xlink:href="#m5795fd2f2c" y="296.728"/>
      </g>
     </g>
    </g>
    <g id="xtick_29">
     <g id="line2d_29">
      <g>
       <use style="stroke:#000000;stroke-width:0.6;" x="323.242933" xlink:href="#m5795fd2f2c" y="296.728"/>
      </g>
     </g>
    </g>
    <g id="xtick_30">
     <g id="line2d_30">
      <g>
       <use style="stroke:#000000;stroke-width:0.6;" x="327.736763" xlink:href="#m5795fd2f2c" y="296.728"/>
      </g>
     </g>
    </g>
    <g id="xtick_31">
     <g id="line2d_31">
      <g>
       <use style="stroke:#000000;stroke-width:0.6;" x="358.20259" xlink:href="#m5795fd2f2c" y="296.728"/>
      </g>
     </g>
    </g>
    <g id="xtick_32">
     <g id="line2d_32">
      <g>
       <use style="stroke:#000000;stroke-width:0.6;" x="373.672484" xlink:href="#m5795fd2f2c" y="296.728"/>
      </g>
     </g>
    </g>
    <g id="xtick_33">
     <g id="line2d_33">
      <g>
       <use style="stroke:#000000;stroke-width:0.6;" x="384.648549" xlink:href="#m5795fd2f2c" y="296.728"/>
      </g>
     </g>
    </g>
    <g id="xtick_34">
     <g id="line2d_34">
      <g>
       <use style="stroke:#000000;stroke-width:0.6;" x="393.162246" xlink:href="#m5795fd2f2c" y="296.728"/>
      </g>
     </g>
    </g>
    <g id="xtick_35">
     <g id="line2d_35">
      <g>
       <use style="stroke:#000000;stroke-width:0.6;" x="400.118444" xlink:href="#m5795fd2f2c" y="296.728"/>
      </g>
     </g>
    </g>
    <g id="xtick_36">
     <g id="line2d_36">
      <g>
       <use style="stroke:#000000;stroke-width:0.6;" x="405.999825" xlink:href="#m5795fd2f2c" y="296.728"/>
      </g>
     </g>
    </g>
    <g id="xtick_37">
     <g id="line2d_37">
      <g>
       <use style="stroke:#000000;stroke-width:0.6;" x="411.094509" xlink:href="#m5795fd2f2c" y="296.728"/>
      </g>
     </g>
    </g>
    <g id="xtick_38">
     <g id="line2d_38">
      <g>
       <use style="stroke:#000000;stroke-width:0.6;" x="415.588338" xlink:href="#m5795fd2f2c" y="296.728"/>
      </g>
     </g>
    </g>
    <g id="xtick_39">
     <g id="line2d_39">
      <g>
       <use style="stroke:#000000;stroke-width:0.6;" x="446.054165" xlink:href="#m5795fd2f2c" y="296.728"/>
      </g>
     </g>
    </g>
    <g id="text_6">
     <!-- Time [sec] -->
     <g transform="translate(218.879464 328.043937)scale(0.14 -0.14)">
      <defs>
       <path d="M -0.296875 72.90625 
L 61.375 72.90625 
L 61.375 64.59375 
L 35.5 64.59375 
L 35.5 0 
L 25.59375 0 
L 25.59375 64.59375 
L -0.296875 64.59375 
z
" id="DejaVuSans-84"/>
       <path d="M 9.421875 54.6875 
L 18.40625 54.6875 
L 18.40625 0 
L 9.421875 0 
z
M 9.421875 75.984375 
L 18.40625 75.984375 
L 18.40625 64.59375 
L 9.421875 64.59375 
z
" id="DejaVuSans-105"/>
       <path d="M 52 44.1875 
Q 55.375 50.25 60.0625 53.125 
Q 64.75 56 71.09375 56 
Q 79.640625 56 84.28125 50.015625 
Q 88.921875 44.046875 88.921875 33.015625 
L 88.921875 0 
L 79.890625 0 
L 79.890625 32.71875 
Q 79.890625 40.578125 77.09375 44.375 
Q 74.3125 48.1875 68.609375 48.1875 
Q 61.625 48.1875 57.5625 43.546875 
Q 53.515625 38.921875 53.515625 30.90625 
L 53.515625 0 
L 44.484375 0 
L 44.484375 32.71875 
Q 44.484375 40.625 41.703125 44.40625 
Q 38.921875 48.1875 33.109375 48.1875 
Q 26.21875 48.1875 22.15625 43.53125 
Q 18.109375 38.875 18.109375 30.90625 
L 18.109375 0 
L 9.078125 0 
L 9.078125 54.6875 
L 18.109375 54.6875 
L 18.109375 46.1875 
Q 21.1875 51.21875 25.484375 53.609375 
Q 29.78125 56 35.6875 56 
Q 41.65625 56 45.828125 52.96875 
Q 50 49.953125 52 44.1875 
z
" id="DejaVuSans-109"/>
       <path d="M 56.203125 29.59375 
L 56.203125 25.203125 
L 14.890625 25.203125 
Q 15.484375 15.921875 20.484375 11.0625 
Q 25.484375 6.203125 34.421875 6.203125 
Q 39.59375 6.203125 44.453125 7.46875 
Q 49.3125 8.734375 54.109375 11.28125 
L 54.109375 2.78125 
Q 49.265625 0.734375 44.1875 -0.34375 
Q 39.109375 -1.421875 33.890625 -1.421875 
Q 20.796875 -1.421875 13.15625 6.1875 
Q 5.515625 13.8125 5.515625 26.8125 
Q 5.515625 40.234375 12.765625 48.109375 
Q 20.015625 56 32.328125 56 
Q 43.359375 56 49.78125 48.890625 
Q 56.203125 41.796875 56.203125 29.59375 
z
M 47.21875 32.234375 
Q 47.125 39.59375 43.09375 43.984375 
Q 39.0625 48.390625 32.421875 48.390625 
Q 24.90625 48.390625 20.390625 44.140625 
Q 15.875 39.890625 15.1875 32.171875 
z
" id="DejaVuSans-101"/>
       <path id="DejaVuSans-32"/>
       <path d="M 8.59375 75.984375 
L 29.296875 75.984375 
L 29.296875 69 
L 17.578125 69 
L 17.578125 -6.203125 
L 29.296875 -6.203125 
L 29.296875 -13.1875 
L 8.59375 -13.1875 
z
" id="DejaVuSans-91"/>
       <path d="M 44.28125 53.078125 
L 44.28125 44.578125 
Q 40.484375 46.53125 36.375 47.5 
Q 32.28125 48.484375 27.875 48.484375 
Q 21.1875 48.484375 17.84375 46.4375 
Q 14.5 44.390625 14.5 40.28125 
Q 14.5 37.15625 16.890625 35.375 
Q 19.28125 33.59375 26.515625 31.984375 
L 29.59375 31.296875 
Q 39.15625 29.25 43.1875 25.515625 
Q 47.21875 21.78125 47.21875 15.09375 
Q 47.21875 7.46875 41.1875 3.015625 
Q 35.15625 -1.421875 24.609375 -1.421875 
Q 20.21875 -1.421875 15.453125 -0.5625 
Q 10.6875 0.296875 5.421875 2 
L 5.421875 11.28125 
Q 10.40625 8.6875 15.234375 7.390625 
Q 20.0625 6.109375 24.8125 6.109375 
Q 31.15625 6.109375 34.5625 8.28125 
Q 37.984375 10.453125 37.984375 14.40625 
Q 37.984375 18.0625 35.515625 20.015625 
Q 33.0625 21.96875 24.703125 23.78125 
L 21.578125 24.515625 
Q 13.234375 26.265625 9.515625 29.90625 
Q 5.8125 33.546875 5.8125 39.890625 
Q 5.8125 47.609375 11.28125 51.796875 
Q 16.75 56 26.8125 56 
Q 31.78125 56 36.171875 55.265625 
Q 40.578125 54.546875 44.28125 53.078125 
z
" id="DejaVuSans-115"/>
       <path d="M 48.78125 52.59375 
L 48.78125 44.1875 
Q 44.96875 46.296875 41.140625 47.34375 
Q 37.3125 48.390625 33.40625 48.390625 
Q 24.65625 48.390625 19.8125 42.84375 
Q 14.984375 37.3125 14.984375 27.296875 
Q 14.984375 17.28125 19.8125 11.734375 
Q 24.65625 6.203125 33.40625 6.203125 
Q 37.3125 6.203125 41.140625 7.25 
Q 44.96875 8.296875 48.78125 10.40625 
L 48.78125 2.09375 
Q 45.015625 0.34375 40.984375 -0.53125 
Q 36.96875 -1.421875 32.421875 -1.421875 
Q 20.0625 -1.421875 12.78125 6.34375 
Q 5.515625 14.109375 5.515625 27.296875 
Q 5.515625 40.671875 12.859375 48.328125 
Q 20.21875 56 33.015625 56 
Q 37.15625 56 41.109375 55.140625 
Q 45.0625 54.296875 48.78125 52.59375 
z
" id="DejaVuSans-99"/>
       <path d="M 30.421875 75.984375 
L 30.421875 -13.1875 
L 9.71875 -13.1875 
L 9.71875 -6.203125 
L 21.390625 -6.203125 
L 21.390625 69 
L 9.71875 69 
L 9.71875 75.984375 
z
" id="DejaVuSans-93"/>
      </defs>
      <use xlink:href="#DejaVuSans-84"/>
      <use x="57.958984" xlink:href="#DejaVuSans-105"/>
      <use x="85.742188" xlink:href="#DejaVuSans-109"/>
      <use x="183.154297" xlink:href="#DejaVuSans-101"/>
      <use x="244.677734" xlink:href="#DejaVuSans-32"/>
      <use x="276.464844" xlink:href="#DejaVuSans-91"/>
      <use x="315.478516" xlink:href="#DejaVuSans-115"/>
      <use x="367.578125" xlink:href="#DejaVuSans-101"/>
      <use x="429.101562" xlink:href="#DejaVuSans-99"/>
      <use x="484.082031" xlink:href="#DejaVuSans-93"/>
     </g>
    </g>
   </g>
   <g id="matplotlib.axis_2">
    <g id="ytick_1">
     <g id="line2d_40">
      <defs>
       <path d="M 0 0 
L -3.5 0 
" id="m1bb903092d" style="stroke:#000000;stroke-width:0.8;"/>
      </defs>
      <g>
       <use style="stroke:#000000;stroke-width:0.8;" x="60.992054" xlink:href="#m1bb903092d" y="269.480479"/>
      </g>
     </g>
     <g id="text_7">
      <!-- $\mathdefault{10^{-9}}$ -->
      <g transform="translate(30.492054 273.279698)scale(0.1 -0.1)">
       <defs>
        <path d="M 10.984375 1.515625 
L 10.984375 10.5 
Q 14.703125 8.734375 18.5 7.8125 
Q 22.3125 6.890625 25.984375 6.890625 
Q 35.75 6.890625 40.890625 13.453125 
Q 46.046875 20.015625 46.78125 33.40625 
Q 43.953125 29.203125 39.59375 26.953125 
Q 35.25 24.703125 29.984375 24.703125 
Q 19.046875 24.703125 12.671875 31.3125 
Q 6.296875 37.9375 6.296875 49.421875 
Q 6.296875 60.640625 12.9375 67.421875 
Q 19.578125 74.21875 30.609375 74.21875 
Q 43.265625 74.21875 49.921875 64.515625 
Q 56.59375 54.828125 56.59375 36.375 
Q 56.59375 19.140625 48.40625 8.859375 
Q 40.234375 -1.421875 26.421875 -1.421875 
Q 22.703125 -1.421875 18.890625 -0.6875 
Q 15.09375 0.046875 10.984375 1.515625 
z
M 30.609375 32.421875 
Q 37.25 32.421875 41.125 36.953125 
Q 45.015625 41.5 45.015625 49.421875 
Q 45.015625 57.28125 41.125 61.84375 
Q 37.25 66.40625 30.609375 66.40625 
Q 23.96875 66.40625 20.09375 61.84375 
Q 16.21875 57.28125 16.21875 49.421875 
Q 16.21875 41.5 20.09375 36.953125 
Q 23.96875 32.421875 30.609375 32.421875 
z
" id="DejaVuSans-57"/>
       </defs>
       <use transform="translate(0 0.765625)" xlink:href="#DejaVuSans-49"/>
       <use transform="translate(63.623047 0.765625)" xlink:href="#DejaVuSans-48"/>
       <use transform="translate(128.203125 39.046875)scale(0.7)" xlink:href="#DejaVuSans-8722"/>
       <use transform="translate(186.855469 39.046875)scale(0.7)" xlink:href="#DejaVuSans-57"/>
      </g>
     </g>
    </g>
    <g id="ytick_2">
     <g id="line2d_41">
      <g>
       <use style="stroke:#000000;stroke-width:0.8;" x="60.992054" xlink:href="#m1bb903092d" y="238.011619"/>
      </g>
     </g>
     <g id="text_8">
      <!-- $\mathdefault{10^{-7}}$ -->
      <g transform="translate(30.492054 241.810838)scale(0.1 -0.1)">
       <defs>
        <path d="M 8.203125 72.90625 
L 55.078125 72.90625 
L 55.078125 68.703125 
L 28.609375 0 
L 18.3125 0 
L 43.21875 64.59375 
L 8.203125 64.59375 
z
" id="DejaVuSans-55"/>
       </defs>
       <use transform="translate(0 0.684375)" xlink:href="#DejaVuSans-49"/>
       <use transform="translate(63.623047 0.684375)" xlink:href="#DejaVuSans-48"/>
       <use transform="translate(128.203125 38.965625)scale(0.7)" xlink:href="#DejaVuSans-8722"/>
       <use transform="translate(186.855469 38.965625)scale(0.7)" xlink:href="#DejaVuSans-55"/>
      </g>
     </g>
    </g>
    <g id="ytick_3">
     <g id="line2d_42">
      <g>
       <use style="stroke:#000000;stroke-width:0.8;" x="60.992054" xlink:href="#m1bb903092d" y="206.542759"/>
      </g>
     </g>
     <g id="text_9">
      <!-- $\mathdefault{10^{-5}}$ -->
      <g transform="translate(30.492054 210.341978)scale(0.1 -0.1)">
       <defs>
        <path d="M 10.796875 72.90625 
L 49.515625 72.90625 
L 49.515625 64.59375 
L 19.828125 64.59375 
L 19.828125 46.734375 
Q 21.96875 47.46875 24.109375 47.828125 
Q 26.265625 48.1875 28.421875 48.1875 
Q 40.625 48.1875 47.75 41.5 
Q 54.890625 34.8125 54.890625 23.390625 
Q 54.890625 11.625 47.5625 5.09375 
Q 40.234375 -1.421875 26.90625 -1.421875 
Q 22.3125 -1.421875 17.546875 -0.640625 
Q 12.796875 0.140625 7.71875 1.703125 
L 7.71875 11.625 
Q 12.109375 9.234375 16.796875 8.0625 
Q 21.484375 6.890625 26.703125 6.890625 
Q 35.15625 6.890625 40.078125 11.328125 
Q 45.015625 15.765625 45.015625 23.390625 
Q 45.015625 31 40.078125 35.4375 
Q 35.15625 39.890625 26.703125 39.890625 
Q 22.75 39.890625 18.8125 39.015625 
Q 14.890625 38.140625 10.796875 36.28125 
z
" id="DejaVuSans-53"/>
       </defs>
       <use transform="translate(0 0.684375)" xlink:href="#DejaVuSans-49"/>
       <use transform="translate(63.623047 0.684375)" xlink:href="#DejaVuSans-48"/>
       <use transform="translate(128.203125 38.965625)scale(0.7)" xlink:href="#DejaVuSans-8722"/>
       <use transform="translate(186.855469 38.965625)scale(0.7)" xlink:href="#DejaVuSans-53"/>
      </g>
     </g>
    </g>
    <g id="ytick_4">
     <g id="line2d_43">
      <g>
       <use style="stroke:#000000;stroke-width:0.8;" x="60.992054" xlink:href="#m1bb903092d" y="175.073899"/>
      </g>
     </g>
     <g id="text_10">
      <!-- $\mathdefault{10^{-3}}$ -->
      <g transform="translate(30.492054 178.873117)scale(0.1 -0.1)">
       <use transform="translate(0 0.765625)" xlink:href="#DejaVuSans-49"/>
       <use transform="translate(63.623047 0.765625)" xlink:href="#DejaVuSans-48"/>
       <use transform="translate(128.203125 39.046875)scale(0.7)" xlink:href="#DejaVuSans-8722"/>
       <use transform="translate(186.855469 39.046875)scale(0.7)" xlink:href="#DejaVuSans-51"/>
      </g>
     </g>
    </g>
    <g id="ytick_5">
     <g id="line2d_44">
      <g>
       <use style="stroke:#000000;stroke-width:0.8;" x="60.992054" xlink:href="#m1bb903092d" y="143.605039"/>
      </g>
     </g>
     <g id="text_11">
      <!-- $\mathdefault{10^{-1}}$ -->
      <g transform="translate(30.492054 147.404257)scale(0.1 -0.1)">
       <use transform="translate(0 0.684375)" xlink:href="#DejaVuSans-49"/>
       <use transform="translate(63.623047 0.684375)" xlink:href="#DejaVuSans-48"/>
       <use transform="translate(128.203125 38.965625)scale(0.7)" xlink:href="#DejaVuSans-8722"/>
       <use transform="translate(186.855469 38.965625)scale(0.7)" xlink:href="#DejaVuSans-49"/>
      </g>
     </g>
    </g>
    <g id="ytick_6">
     <g id="line2d_45">
      <g>
       <use style="stroke:#000000;stroke-width:0.8;" x="60.992054" xlink:href="#m1bb903092d" y="112.136178"/>
      </g>
     </g>
     <g id="text_12">
      <!-- $\mathdefault{10^{1}}$ -->
      <g transform="translate(36.392054 115.935397)scale(0.1 -0.1)">
       <use transform="translate(0 0.684375)" xlink:href="#DejaVuSans-49"/>
       <use transform="translate(63.623047 0.684375)" xlink:href="#DejaVuSans-48"/>
       <use transform="translate(128.203125 38.965625)scale(0.7)" xlink:href="#DejaVuSans-49"/>
      </g>
     </g>
    </g>
    <g id="ytick_7">
     <g id="line2d_46">
      <g>
       <use style="stroke:#000000;stroke-width:0.8;" x="60.992054" xlink:href="#m1bb903092d" y="80.667318"/>
      </g>
     </g>
     <g id="text_13">
      <!-- $\mathdefault{10^{3}}$ -->
      <g transform="translate(36.392054 84.466537)scale(0.1 -0.1)">
       <use transform="translate(0 0.765625)" xlink:href="#DejaVuSans-49"/>
       <use transform="translate(63.623047 0.765625)" xlink:href="#DejaVuSans-48"/>
       <use transform="translate(128.203125 39.046875)scale(0.7)" xlink:href="#DejaVuSans-51"/>
      </g>
     </g>
    </g>
    <g id="ytick_8">
     <g id="line2d_47">
      <g>
       <use style="stroke:#000000;stroke-width:0.8;" x="60.992054" xlink:href="#m1bb903092d" y="49.198458"/>
      </g>
     </g>
     <g id="text_14">
      <!-- $\mathdefault{10^{5}}$ -->
      <g transform="translate(36.392054 52.997677)scale(0.1 -0.1)">
       <use transform="translate(0 0.684375)" xlink:href="#DejaVuSans-49"/>
       <use transform="translate(63.623047 0.684375)" xlink:href="#DejaVuSans-48"/>
       <use transform="translate(128.203125 38.965625)scale(0.7)" xlink:href="#DejaVuSans-53"/>
      </g>
     </g>
    </g>
    <g id="text_15">
     <!-- $F(x) - F(x*)$ -->
     <g transform="translate(23.580491 212.224)rotate(-90)scale(0.14 -0.14)">
      <defs>
       <path d="M 16.890625 72.90625 
L 58.6875 72.90625 
L 57.078125 64.59375 
L 25.09375 64.59375 
L 20.90625 43.109375 
L 49.8125 43.109375 
L 48.1875 34.8125 
L 19.28125 34.8125 
L 12.5 0 
L 2.6875 0 
z
" id="DejaVuSans-Oblique-70"/>
       <path d="M 31 75.875 
Q 24.46875 64.65625 21.28125 53.65625 
Q 18.109375 42.671875 18.109375 31.390625 
Q 18.109375 20.125 21.3125 9.0625 
Q 24.515625 -2 31 -13.1875 
L 23.1875 -13.1875 
Q 15.875 -1.703125 12.234375 9.375 
Q 8.59375 20.453125 8.59375 31.390625 
Q 8.59375 42.28125 12.203125 53.3125 
Q 15.828125 64.359375 23.1875 75.875 
z
" id="DejaVuSans-40"/>
       <path d="M 60.015625 54.6875 
L 34.90625 27.875 
L 50.296875 0 
L 39.984375 0 
L 28.421875 21.6875 
L 8.296875 0 
L -2.59375 0 
L 24.3125 28.8125 
L 10.015625 54.6875 
L 20.3125 54.6875 
L 30.8125 34.90625 
L 49.125 54.6875 
z
" id="DejaVuSans-Oblique-120"/>
       <path d="M 8.015625 75.875 
L 15.828125 75.875 
Q 23.140625 64.359375 26.78125 53.3125 
Q 30.421875 42.28125 30.421875 31.390625 
Q 30.421875 20.453125 26.78125 9.375 
Q 23.140625 -1.703125 15.828125 -13.1875 
L 8.015625 -13.1875 
Q 14.5 -2 17.703125 9.0625 
Q 20.90625 20.125 20.90625 31.390625 
Q 20.90625 42.671875 17.703125 53.65625 
Q 14.5 64.65625 8.015625 75.875 
z
" id="DejaVuSans-41"/>
       <path d="M 47.015625 60.890625 
L 29.5 51.421875 
L 47.015625 41.890625 
L 44.1875 37.109375 
L 27.78125 47.015625 
L 27.78125 28.609375 
L 22.21875 28.609375 
L 22.21875 47.015625 
L 5.8125 37.109375 
L 2.984375 41.890625 
L 20.515625 51.421875 
L 2.984375 60.890625 
L 5.8125 65.71875 
L 22.21875 55.8125 
L 22.21875 74.21875 
L 27.78125 74.21875 
L 27.78125 55.8125 
L 44.1875 65.71875 
z
" id="DejaVuSans-42"/>
      </defs>
      <use transform="translate(0 0.125)" xlink:href="#DejaVuSans-Oblique-70"/>
      <use transform="translate(57.519531 0.125)" xlink:href="#DejaVuSans-40"/>
      <use transform="translate(96.533203 0.125)" xlink:href="#DejaVuSans-Oblique-120"/>
      <use transform="translate(155.712891 0.125)" xlink:href="#DejaVuSans-41"/>
      <use transform="translate(214.208984 0.125)" xlink:href="#DejaVuSans-8722"/>
      <use transform="translate(317.480469 0.125)" xlink:href="#DejaVuSans-Oblique-70"/>
      <use transform="translate(375 0.125)" xlink:href="#DejaVuSans-40"/>
      <use transform="translate(414.013672 0.125)" xlink:href="#DejaVuSans-Oblique-120"/>
      <use transform="translate(492.675781 0.125)" xlink:href="#DejaVuSans-42"/>
      <use transform="translate(562.158203 0.125)" xlink:href="#DejaVuSans-41"/>
     </g>
    </g>
   </g>
   <g id="LineCollection_1">
    <path clip-path="url(#pfcd0a28f98)" d="M 60.992054 285.214909 
L 450 285.214909 
" style="fill:none;stroke:#000000;stroke-dasharray:5.55,2.4;stroke-dashoffset:0;stroke-width:1.5;"/>
   </g>
   <g id="line2d_48">
    <path clip-path="url(#pfcd0a28f98)" d="M 275.352187 283.966003 
L 275.671735 283.863243 
L 275.358065 284.070331 
L 275.56323 283.138178 
L 273.000586 282.694296 
L 273.647736 280.957896 
L 272.621299 276.867652 
L 272.010331 272.734031 
L 272.403584 268.047704 
L 270.99142 263.022548 
L 267.045231 257.989402 
L 265.331587 252.267068 
L 265.269377 246.633534 
L 264.898017 241.655285 
L 263.260801 235.856004 
L 259.957986 230.812889 
L 259.225944 224.90785 
L 257.972731 220.227008 
L 253.795721 213.444762 
L 252.788964 208.728411 
L 249.63515 202.798128 
L 246.871629 196.641755 
L 244.582214 192.82896 
L 241.589434 186.943558 
L 236.385453 181.377509 
L 228.842979 173.669805 
L 221.689088 167.528217 
L 216.106704 164.992403 
L 214.478384 162.608309 
L 210.202127 160.547689 
L 209.125845 158.715062 
L 208.443589 156.987662 
L 204.852967 151.747497 
L 204.041865 143.243637 
L 195.86062 132.055373 
L 191.17641 128.654007 
L 190.186883 127.789955 
L 186.253766 120.72885 
L 177.38085 117.946879 
L 173.857619 116.810929 
L 176.606389 113.254483 
L 168.711103 109.561691 
L 159.714278 102.07691 
L 151.088206 99.154163 
L 146.758067 99.218359 
L 146.876659 99.03797 
L 129.587637 92.727011 
L 131.3413 92.792436 
L 103.546352 85.655546 
" style="fill:none;stroke:#1f77b4;stroke-linecap:square;stroke-width:3;"/>
   </g>
   <g id="line2d_49">
    <path clip-path="url(#pfcd0a28f98)" d="M 132.713565 63.595293 
L 130.3201 66.909224 
L 151.841126 69.457395 
L 149.760323 71.58061 
L 140.413101 75.079052 
L 156.187452 78.912135 
L 159.442132 83.070208 
L 175.35641 87.681466 
L 188.713577 95.022557 
L 192.575348 107.883977 
L 205.206526 125.205016 
L 224.115292 135.812023 
L 238.596391 143.597756 
L 252.67462 151.491341 
L 265.098333 158.359005 
L 277.234078 165.46874 
L 285.996089 174.506016 
L 298.004851 189.591632 
L 312.06992 212.805848 
L 326.2883 247.656828 
L 341.601204 284.504342 
L 355.957483 285.211875 
L 370.435589 285.211875 
L 392.482805 285.211875 
L 422.304101 285.211875 
" style="fill:none;stroke:#ff7f0e;stroke-linecap:square;stroke-width:3;"/>
   </g>
   <g id="line2d_50">
    <path clip-path="url(#pfcd0a28f98)" d="M 146.402076 59.22199 
L 152.314011 65.32902 
L 153.562968 73.346948 
L 159.635731 80.829972 
L 166.138111 91.979333 
L 183.493159 129.560048 
L 204.278655 181.351467 
L 221.294289 245.756437 
L 238.40336 285.211875 
L 238.74981 285.211875 
L 239.496916 285.211875 
L 240.0636 285.211875 
L 239.219828 285.211875 
L 239.80854 285.211875 
" style="fill:none;stroke:#2ca02c;stroke-linecap:square;stroke-width:3;"/>
   </g>
   <g id="line2d_51">
    <path clip-path="url(#pfcd0a28f98)" d="M 274.979095 56.805499 
L 285.083526 56.805499 
L 295.775462 56.805499 
L 311.034878 56.805499 
L 341.59934 84.965312 
L 364.271373 217.356505 
L 360.215691 217.356505 
L 362.319413 217.356505 
L 359.372995 217.356505 
L 358.682343 217.356505 
L 358.987332 217.356505 
" style="fill:none;stroke:#d62728;stroke-linecap:square;stroke-width:3;"/>
   </g>
   <g id="line2d_52">
    <path clip-path="url(#pfcd0a28f98)" d="M 89.365571 54.953091 
L 112.175552 64.396059 
L 138.408984 68.684801 
L 134.015994 69.439922 
L 122.074075 70.847695 
L 142.764 72.492095 
L 157.287206 73.103087 
L 172.843385 73.103087 
L 195.319976 79.629071 
L 216.447717 86.76484 
L 229.773307 93.97446 
L 260.588422 106.050742 
L 271.518195 125.527794 
L 288.295483 143.286993 
L 305.691284 181.392249 
L 327.797538 246.929343 
L 348.563604 250.52044 
L 368.984425 253.457108 
L 400.062021 256.691496 
L 432.289186 260.626684 
" style="fill:none;stroke:#9467bd;stroke-linecap:square;stroke-width:3;"/>
   </g>
   <g id="line2d_53">
    <path clip-path="url(#pfcd0a28f98)" d="M 226.111865 54.953091 
L 203.90326 55.025985 
L 214.01995 55.025985 
L 193.362473 55.095202 
L 202.964144 55.160888 
L 211.594107 55.282249 
L 211.709317 55.488801 
L 214.510475 55.724523 
L 218.663655 56.135335 
L 211.926507 57.151439 
L 223.422686 58.476104 
L 226.190838 60.43164 
L 232.611358 64.297408 
L 242.75302 68.939944 
L 254.70993 76.333659 
L 269.522888 84.547271 
L 285.437485 94.363885 
L 301.099087 118.834694 
L 303.651896 222.548895 
L 302.25951 222.548895 
L 303.304698 222.548895 
L 310.546312 222.548895 
L 316.648247 222.548895 
L 310.112732 222.548895 
" style="fill:none;stroke:#8c564b;stroke-linecap:square;stroke-width:3;"/>
   </g>
   <g id="line2d_54">
    <path clip-path="url(#pfcd0a28f98)" d="M 245.075195 65.963114 
L 231.394154 67.951035 
L 243.29655 68.735823 
L 236.458502 69.299965 
L 224.40853 70.17792 
L 229.414736 71.206332 
L 234.556037 72.279656 
L 226.606244 73.517415 
L 240.134759 74.865262 
L 241.746573 76.403065 
L 252.602299 78.095874 
L 260.057541 80.075559 
L 267.956948 82.20548 
L 272.80306 84.545686 
L 278.353372 87.387773 
L 285.911337 90.774672 
L 295.221976 94.420319 
L 305.208804 97.949806 
L 326.145678 101.753192 
L 327.981929 106.192904 
L 343.177948 111.960671 
L 355.56728 120.552759 
L 370.326835 126.032729 
L 386.736615 131.290179 
L 400.048562 136.566839 
" style="fill:none;stroke:#e377c2;stroke-linecap:square;stroke-width:3;"/>
   </g>
   <g id="line2d_55">
    <path clip-path="url(#pfcd0a28f98)" d="M 187.908928 58.298798 
L 188.483858 67.803461 
L 192.072412 68.35888 
L 196.528605 69.598843 
L 195.387844 71.409051 
L 205.345009 73.787475 
L 209.366926 76.275621 
L 222.418243 79.683848 
L 224.943729 83.985996 
L 234.852312 90.001285 
L 248.239888 96.064089 
L 257.720339 102.792711 
L 267.257888 110.077214 
L 280.579762 120.921145 
L 292.385841 130.515747 
L 305.606805 140.872024 
L 320.199207 157.972096 
L 332.409528 180.821067 
L 347.374197 220.663056 
L 359.682087 276.122084 
L 362.185576 276.122084 
L 362.308126 276.122084 
L 360.396595 276.122084 
L 359.673387 276.122084 
L 360.554515 276.122084 
" style="fill:none;stroke:#7f7f7f;stroke-linecap:square;stroke-width:3;"/>
   </g>
   <g id="line2d_56">
    <path clip-path="url(#pfcd0a28f98)" d="M 145.673303 61.745326 
L 162.602352 63.418608 
L 168.200495 65.251045 
L 170.307608 67.091547 
L 169.831898 69.719249 
L 173.158311 72.571592 
L 174.717366 73.919086 
L 178.355519 76.424853 
L 180.9042 78.157485 
L 184.135525 78.575999 
L 189.747746 78.208834 
L 192.806845 78.381313 
L 198.200911 78.437021 
L 206.780284 78.762163 
L 216.102172 78.783319 
L 226.84055 79.291186 
L 239.104183 77.159698 
L 252.58997 77.526403 
L 266.860616 77.487929 
L 275.668217 77.682003 
L 281.026329 77.689691 
L 293.306489 78.008588 
L 302.355454 78.611532 
L 315.248172 78.650518 
L 326.869586 79.063285 
L 343.808173 78.069861 
L 359.026556 77.604451 
L 371.577162 78.751173 
L 386.85402 78.52965 
L 401.201198 78.996401 
" style="fill:none;stroke:#bcbd22;stroke-linecap:square;stroke-width:3;"/>
   </g>
   <g id="line2d_57">
    <path clip-path="url(#pfcd0a28f98)" d="M 211.107119 65.963114 
L 210.928229 67.951035 
L 212.013074 68.735823 
L 210.419998 69.299965 
L 211.53246 70.17792 
L 211.860573 71.206332 
L 211.810663 72.279656 
L 214.115159 73.517415 
L 216.135531 74.865262 
L 218.900462 76.403065 
L 222.737669 78.095874 
L 227.433494 80.075559 
L 234.277351 82.20548 
L 243.715744 84.545686 
L 252.379612 87.387773 
L 258.688408 90.774672 
L 269.091801 94.420319 
L 282.737132 97.949806 
L 294.157105 101.753192 
L 304.539523 106.192904 
L 320.935474 111.960671 
L 338.899903 120.552759 
L 354.172329 126.032729 
L 370.135979 131.290179 
L 390.025949 136.566839 
L 402.433397 141.41805 
" style="fill:none;stroke:#17becf;stroke-linecap:square;stroke-width:3;"/>
   </g>
   <g id="line2d_58">
    <path clip-path="url(#pfcd0a28f98)" d="M 216.792931 65.963114 
L 217.699548 67.951035 
L 216.860171 68.917553 
L 219.142859 69.702776 
L 220.28847 71.133346 
L 219.398362 73.069835 
L 221.081786 75.201152 
L 221.730099 77.843431 
L 224.476072 81.346221 
L 228.570708 85.732613 
L 231.217939 91.927571 
L 237.979405 98.557769 
L 243.895125 106.257046 
L 250.829151 117.169283 
L 260.112406 127.809836 
L 269.187726 139.636764 
L 278.288929 150.628837 
L 294.202888 158.285124 
L 305.05485 171.559765 
L 317.678745 180.39209 
L 332.679801 190.409786 
L 347.10408 201.974521 
L 362.948119 213.488955 
L 381.199821 221.13575 
L 394.99547 234.952022 
L 409.619832 248.137594 
" style="fill:none;stroke:#1f77b4;stroke-linecap:square;stroke-width:3;"/>
   </g>
   <g id="line2d_59">
    <path clip-path="url(#pfcd0a28f98)" d="M 245.870633 65.963114 
L 248.820471 67.951035 
L 257.377204 68.735823 
L 260.897571 69.299965 
L 268.748291 70.17792 
L 278.300154 71.206332 
L 288.794606 72.279656 
L 299.661597 73.517415 
L 312.133617 74.865262 
L 328.425659 76.403065 
L 341.753653 78.095874 
L 356.767247 80.075559 
L 371.243632 82.20548 
L 387.147679 84.545686 
L 401.629677 87.387773 
L 416.337452 90.774672 
" style="fill:none;stroke:#ff7f0e;stroke-linecap:square;stroke-width:3;"/>
   </g>
   <g id="line2d_60">
    <path clip-path="url(#pfcd0a28f98)" d="M 149.598244 63.595293 
L 150.922111 66.909224 
L 148.674562 69.457395 
L 153.281686 71.58061 
L 160.30594 75.079052 
L 159.986771 78.912135 
L 165.643664 83.070208 
L 175.395486 87.681466 
L 180.779774 95.022557 
L 190.904719 107.883977 
L 203.143625 125.205016 
L 213.464938 135.812023 
L 231.266998 143.597756 
L 244.724227 151.491341 
L 257.863473 158.359005 
L 272.202474 165.46874 
L 283.583858 174.506016 
L 295.62508 189.591632 
L 311.234923 212.805848 
L 322.435549 247.656828 
L 332.577428 284.504342 
L 348.198829 285.211875 
L 366.606591 285.211875 
L 389.537733 285.211875 
L 414.372686 285.211875 
" style="fill:none;stroke:#2ca02c;stroke-linecap:square;stroke-width:3;"/>
   </g>
   <g id="line2d_61">
    <path clip-path="url(#pfcd0a28f98)" d="M 351.673731 63.595293 
L 373.349129 66.909224 
L 375.721011 69.585318 
L 378.755669 71.495453 
L 382.83756 74.058064 
L 385.388325 75.637006 
L 384.937497 76.157712 
" style="fill:none;stroke:#d62728;stroke-linecap:square;stroke-width:3;"/>
   </g>
   <g id="patch_3">
    <path d="M 60.992054 296.728 
L 60.992054 43.44 
" style="fill:none;stroke:#000000;stroke-linecap:square;stroke-linejoin:miter;stroke-width:0.8;"/>
   </g>
   <g id="patch_4">
    <path d="M 450 296.728 
L 450 43.44 
" style="fill:none;stroke:#000000;stroke-linecap:square;stroke-linejoin:miter;stroke-width:0.8;"/>
   </g>
   <g id="patch_5">
    <path d="M 60.992054 296.728 
L 450 296.728 
" style="fill:none;stroke:#000000;stroke-linecap:square;stroke-linejoin:miter;stroke-width:0.8;"/>
   </g>
   <g id="patch_6">
    <path d="M 60.992054 43.44 
L 450 43.44 
" style="fill:none;stroke:#000000;stroke-linecap:square;stroke-linejoin:miter;stroke-width:0.8;"/>
   </g>
   <g id="text_16">
    <!-- Lasso Regression[reg=0.05] -->
    <g transform="translate(156.835402 21.763062)scale(0.14 -0.14)">
     <defs>
      <path d="M 9.8125 72.90625 
L 19.671875 72.90625 
L 19.671875 8.296875 
L 55.171875 8.296875 
L 55.171875 0 
L 9.8125 0 
z
" id="DejaVuSans-76"/>
      <path d="M 34.28125 27.484375 
Q 23.390625 27.484375 19.1875 25 
Q 14.984375 22.515625 14.984375 16.5 
Q 14.984375 11.71875 18.140625 8.90625 
Q 21.296875 6.109375 26.703125 6.109375 
Q 34.1875 6.109375 38.703125 11.40625 
Q 43.21875 16.703125 43.21875 25.484375 
L 43.21875 27.484375 
z
M 52.203125 31.203125 
L 52.203125 0 
L 43.21875 0 
L 43.21875 8.296875 
Q 40.140625 3.328125 35.546875 0.953125 
Q 30.953125 -1.421875 24.3125 -1.421875 
Q 15.921875 -1.421875 10.953125 3.296875 
Q 6 8.015625 6 15.921875 
Q 6 25.140625 12.171875 29.828125 
Q 18.359375 34.515625 30.609375 34.515625 
L 43.21875 34.515625 
L 43.21875 35.40625 
Q 43.21875 41.609375 39.140625 45 
Q 35.0625 48.390625 27.6875 48.390625 
Q 23 48.390625 18.546875 47.265625 
Q 14.109375 46.140625 10.015625 43.890625 
L 10.015625 52.203125 
Q 14.9375 54.109375 19.578125 55.046875 
Q 24.21875 56 28.609375 56 
Q 40.484375 56 46.34375 49.84375 
Q 52.203125 43.703125 52.203125 31.203125 
z
" id="DejaVuSans-97"/>
      <path d="M 30.609375 48.390625 
Q 23.390625 48.390625 19.1875 42.75 
Q 14.984375 37.109375 14.984375 27.296875 
Q 14.984375 17.484375 19.15625 11.84375 
Q 23.34375 6.203125 30.609375 6.203125 
Q 37.796875 6.203125 41.984375 11.859375 
Q 46.1875 17.53125 46.1875 27.296875 
Q 46.1875 37.015625 41.984375 42.703125 
Q 37.796875 48.390625 30.609375 48.390625 
z
M 30.609375 56 
Q 42.328125 56 49.015625 48.375 
Q 55.71875 40.765625 55.71875 27.296875 
Q 55.71875 13.875 49.015625 6.21875 
Q 42.328125 -1.421875 30.609375 -1.421875 
Q 18.84375 -1.421875 12.171875 6.21875 
Q 5.515625 13.875 5.515625 27.296875 
Q 5.515625 40.765625 12.171875 48.375 
Q 18.84375 56 30.609375 56 
z
" id="DejaVuSans-111"/>
      <path d="M 44.390625 34.1875 
Q 47.5625 33.109375 50.5625 29.59375 
Q 53.5625 26.078125 56.59375 19.921875 
L 66.609375 0 
L 56 0 
L 46.6875 18.703125 
Q 43.0625 26.03125 39.671875 28.421875 
Q 36.28125 30.8125 30.421875 30.8125 
L 19.671875 30.8125 
L 19.671875 0 
L 9.8125 0 
L 9.8125 72.90625 
L 32.078125 72.90625 
Q 44.578125 72.90625 50.734375 67.671875 
Q 56.890625 62.453125 56.890625 51.90625 
Q 56.890625 45.015625 53.6875 40.46875 
Q 50.484375 35.9375 44.390625 34.1875 
z
M 19.671875 64.796875 
L 19.671875 38.921875 
L 32.078125 38.921875 
Q 39.203125 38.921875 42.84375 42.21875 
Q 46.484375 45.515625 46.484375 51.90625 
Q 46.484375 58.296875 42.84375 61.546875 
Q 39.203125 64.796875 32.078125 64.796875 
z
" id="DejaVuSans-82"/>
      <path d="M 45.40625 27.984375 
Q 45.40625 37.75 41.375 43.109375 
Q 37.359375 48.484375 30.078125 48.484375 
Q 22.859375 48.484375 18.828125 43.109375 
Q 14.796875 37.75 14.796875 27.984375 
Q 14.796875 18.265625 18.828125 12.890625 
Q 22.859375 7.515625 30.078125 7.515625 
Q 37.359375 7.515625 41.375 12.890625 
Q 45.40625 18.265625 45.40625 27.984375 
z
M 54.390625 6.78125 
Q 54.390625 -7.171875 48.1875 -13.984375 
Q 42 -20.796875 29.203125 -20.796875 
Q 24.46875 -20.796875 20.265625 -20.09375 
Q 16.0625 -19.390625 12.109375 -17.921875 
L 12.109375 -9.1875 
Q 16.0625 -11.328125 19.921875 -12.34375 
Q 23.78125 -13.375 27.78125 -13.375 
Q 36.625 -13.375 41.015625 -8.765625 
Q 45.40625 -4.15625 45.40625 5.171875 
L 45.40625 9.625 
Q 42.625 4.78125 38.28125 2.390625 
Q 33.9375 0 27.875 0 
Q 17.828125 0 11.671875 7.65625 
Q 5.515625 15.328125 5.515625 27.984375 
Q 5.515625 40.671875 11.671875 48.328125 
Q 17.828125 56 27.875 56 
Q 33.9375 56 38.28125 53.609375 
Q 42.625 51.21875 45.40625 46.390625 
L 45.40625 54.6875 
L 54.390625 54.6875 
z
" id="DejaVuSans-103"/>
      <path d="M 41.109375 46.296875 
Q 39.59375 47.171875 37.8125 47.578125 
Q 36.03125 48 33.890625 48 
Q 26.265625 48 22.1875 43.046875 
Q 18.109375 38.09375 18.109375 28.8125 
L 18.109375 0 
L 9.078125 0 
L 9.078125 54.6875 
L 18.109375 54.6875 
L 18.109375 46.1875 
Q 20.953125 51.171875 25.484375 53.578125 
Q 30.03125 56 36.53125 56 
Q 37.453125 56 38.578125 55.875 
Q 39.703125 55.765625 41.0625 55.515625 
z
" id="DejaVuSans-114"/>
      <path d="M 54.890625 33.015625 
L 54.890625 0 
L 45.90625 0 
L 45.90625 32.71875 
Q 45.90625 40.484375 42.875 44.328125 
Q 39.84375 48.1875 33.796875 48.1875 
Q 26.515625 48.1875 22.3125 43.546875 
Q 18.109375 38.921875 18.109375 30.90625 
L 18.109375 0 
L 9.078125 0 
L 9.078125 54.6875 
L 18.109375 54.6875 
L 18.109375 46.1875 
Q 21.34375 51.125 25.703125 53.5625 
Q 30.078125 56 35.796875 56 
Q 45.21875 56 50.046875 50.171875 
Q 54.890625 44.34375 54.890625 33.015625 
z
" id="DejaVuSans-110"/>
      <path d="M 10.59375 45.40625 
L 73.1875 45.40625 
L 73.1875 37.203125 
L 10.59375 37.203125 
z
M 10.59375 25.484375 
L 73.1875 25.484375 
L 73.1875 17.1875 
L 10.59375 17.1875 
z
" id="DejaVuSans-61"/>
      <path d="M 10.6875 12.40625 
L 21 12.40625 
L 21 0 
L 10.6875 0 
z
" id="DejaVuSans-46"/>
     </defs>
     <use xlink:href="#DejaVuSans-76"/>
     <use x="55.712891" xlink:href="#DejaVuSans-97"/>
     <use x="116.992188" xlink:href="#DejaVuSans-115"/>
     <use x="169.091797" xlink:href="#DejaVuSans-115"/>
     <use x="221.191406" xlink:href="#DejaVuSans-111"/>
     <use x="282.373047" xlink:href="#DejaVuSans-32"/>
     <use x="314.160156" xlink:href="#DejaVuSans-82"/>
     <use x="379.142578" xlink:href="#DejaVuSans-101"/>
     <use x="440.666016" xlink:href="#DejaVuSans-103"/>
     <use x="504.142578" xlink:href="#DejaVuSans-114"/>
     <use x="543.005859" xlink:href="#DejaVuSans-101"/>
     <use x="604.529297" xlink:href="#DejaVuSans-115"/>
     <use x="656.628906" xlink:href="#DejaVuSans-115"/>
     <use x="708.728516" xlink:href="#DejaVuSans-105"/>
     <use x="736.511719" xlink:href="#DejaVuSans-111"/>
     <use x="797.693359" xlink:href="#DejaVuSans-110"/>
     <use x="861.072266" xlink:href="#DejaVuSans-91"/>
     <use x="900.085938" xlink:href="#DejaVuSans-114"/>
     <use x="938.949219" xlink:href="#DejaVuSans-101"/>
     <use x="1000.472656" xlink:href="#DejaVuSans-103"/>
     <use x="1063.949219" xlink:href="#DejaVuSans-61"/>
     <use x="1147.738281" xlink:href="#DejaVuSans-48"/>
     <use x="1211.361328" xlink:href="#DejaVuSans-46"/>
     <use x="1243.148438" xlink:href="#DejaVuSans-48"/>
     <use x="1306.771484" xlink:href="#DejaVuSans-53"/>
     <use x="1370.394531" xlink:href="#DejaVuSans-93"/>
    </g>
    <!-- Data: Simulated[n_samples=100,n_features=5000,rho=0] -->
    <g transform="translate(50.328214 37.44)scale(0.14 -0.14)">
     <defs>
      <path d="M 19.671875 64.796875 
L 19.671875 8.109375 
L 31.59375 8.109375 
Q 46.6875 8.109375 53.6875 14.9375 
Q 60.6875 21.78125 60.6875 36.53125 
Q 60.6875 51.171875 53.6875 57.984375 
Q 46.6875 64.796875 31.59375 64.796875 
z
M 9.8125 72.90625 
L 30.078125 72.90625 
Q 51.265625 72.90625 61.171875 64.09375 
Q 71.09375 55.28125 71.09375 36.53125 
Q 71.09375 17.671875 61.125 8.828125 
Q 51.171875 0 30.078125 0 
L 9.8125 0 
z
" id="DejaVuSans-68"/>
      <path d="M 18.3125 70.21875 
L 18.3125 54.6875 
L 36.8125 54.6875 
L 36.8125 47.703125 
L 18.3125 47.703125 
L 18.3125 18.015625 
Q 18.3125 11.328125 20.140625 9.421875 
Q 21.96875 7.515625 27.59375 7.515625 
L 36.8125 7.515625 
L 36.8125 0 
L 27.59375 0 
Q 17.1875 0 13.234375 3.875 
Q 9.28125 7.765625 9.28125 18.015625 
L 9.28125 47.703125 
L 2.6875 47.703125 
L 2.6875 54.6875 
L 9.28125 54.6875 
L 9.28125 70.21875 
z
" id="DejaVuSans-116"/>
      <path d="M 11.71875 12.40625 
L 22.015625 12.40625 
L 22.015625 0 
L 11.71875 0 
z
M 11.71875 51.703125 
L 22.015625 51.703125 
L 22.015625 39.3125 
L 11.71875 39.3125 
z
" id="DejaVuSans-58"/>
      <path d="M 53.515625 70.515625 
L 53.515625 60.890625 
Q 47.90625 63.578125 42.921875 64.890625 
Q 37.9375 66.21875 33.296875 66.21875 
Q 25.25 66.21875 20.875 63.09375 
Q 16.5 59.96875 16.5 54.203125 
Q 16.5 49.359375 19.40625 46.890625 
Q 22.3125 44.4375 30.421875 42.921875 
L 36.375 41.703125 
Q 47.40625 39.59375 52.65625 34.296875 
Q 57.90625 29 57.90625 20.125 
Q 57.90625 9.515625 50.796875 4.046875 
Q 43.703125 -1.421875 29.984375 -1.421875 
Q 24.8125 -1.421875 18.96875 -0.25 
Q 13.140625 0.921875 6.890625 3.21875 
L 6.890625 13.375 
Q 12.890625 10.015625 18.65625 8.296875 
Q 24.421875 6.59375 29.984375 6.59375 
Q 38.421875 6.59375 43.015625 9.90625 
Q 47.609375 13.234375 47.609375 19.390625 
Q 47.609375 24.75 44.3125 27.78125 
Q 41.015625 30.8125 33.5 32.328125 
L 27.484375 33.5 
Q 16.453125 35.6875 11.515625 40.375 
Q 6.59375 45.0625 6.59375 53.421875 
Q 6.59375 63.09375 13.40625 68.65625 
Q 20.21875 74.21875 32.171875 74.21875 
Q 37.3125 74.21875 42.625 73.28125 
Q 47.953125 72.359375 53.515625 70.515625 
z
" id="DejaVuSans-83"/>
      <path d="M 8.5 21.578125 
L 8.5 54.6875 
L 17.484375 54.6875 
L 17.484375 21.921875 
Q 17.484375 14.15625 20.5 10.265625 
Q 23.53125 6.390625 29.59375 6.390625 
Q 36.859375 6.390625 41.078125 11.03125 
Q 45.3125 15.671875 45.3125 23.6875 
L 45.3125 54.6875 
L 54.296875 54.6875 
L 54.296875 0 
L 45.3125 0 
L 45.3125 8.40625 
Q 42.046875 3.421875 37.71875 1 
Q 33.40625 -1.421875 27.6875 -1.421875 
Q 18.265625 -1.421875 13.375 4.4375 
Q 8.5 10.296875 8.5 21.578125 
z
M 31.109375 56 
z
" id="DejaVuSans-117"/>
      <path d="M 9.421875 75.984375 
L 18.40625 75.984375 
L 18.40625 0 
L 9.421875 0 
z
" id="DejaVuSans-108"/>
      <path d="M 45.40625 46.390625 
L 45.40625 75.984375 
L 54.390625 75.984375 
L 54.390625 0 
L 45.40625 0 
L 45.40625 8.203125 
Q 42.578125 3.328125 38.25 0.953125 
Q 33.9375 -1.421875 27.875 -1.421875 
Q 17.96875 -1.421875 11.734375 6.484375 
Q 5.515625 14.40625 5.515625 27.296875 
Q 5.515625 40.1875 11.734375 48.09375 
Q 17.96875 56 27.875 56 
Q 33.9375 56 38.25 53.625 
Q 42.578125 51.265625 45.40625 46.390625 
z
M 14.796875 27.296875 
Q 14.796875 17.390625 18.875 11.75 
Q 22.953125 6.109375 30.078125 6.109375 
Q 37.203125 6.109375 41.296875 11.75 
Q 45.40625 17.390625 45.40625 27.296875 
Q 45.40625 37.203125 41.296875 42.84375 
Q 37.203125 48.484375 30.078125 48.484375 
Q 22.953125 48.484375 18.875 42.84375 
Q 14.796875 37.203125 14.796875 27.296875 
z
" id="DejaVuSans-100"/>
      <path d="M 50.984375 -16.609375 
L 50.984375 -23.578125 
L -0.984375 -23.578125 
L -0.984375 -16.609375 
z
" id="DejaVuSans-95"/>
      <path d="M 18.109375 8.203125 
L 18.109375 -20.796875 
L 9.078125 -20.796875 
L 9.078125 54.6875 
L 18.109375 54.6875 
L 18.109375 46.390625 
Q 20.953125 51.265625 25.265625 53.625 
Q 29.59375 56 35.59375 56 
Q 45.5625 56 51.78125 48.09375 
Q 58.015625 40.1875 58.015625 27.296875 
Q 58.015625 14.40625 51.78125 6.484375 
Q 45.5625 -1.421875 35.59375 -1.421875 
Q 29.59375 -1.421875 25.265625 0.953125 
Q 20.953125 3.328125 18.109375 8.203125 
z
M 48.6875 27.296875 
Q 48.6875 37.203125 44.609375 42.84375 
Q 40.53125 48.484375 33.40625 48.484375 
Q 26.265625 48.484375 22.1875 42.84375 
Q 18.109375 37.203125 18.109375 27.296875 
Q 18.109375 17.390625 22.1875 11.75 
Q 26.265625 6.109375 33.40625 6.109375 
Q 40.53125 6.109375 44.609375 11.75 
Q 48.6875 17.390625 48.6875 27.296875 
z
" id="DejaVuSans-112"/>
      <path d="M 11.71875 12.40625 
L 22.015625 12.40625 
L 22.015625 4 
L 14.015625 -11.625 
L 7.71875 -11.625 
L 11.71875 4 
z
" id="DejaVuSans-44"/>
      <path d="M 37.109375 75.984375 
L 37.109375 68.5 
L 28.515625 68.5 
Q 23.6875 68.5 21.796875 66.546875 
Q 19.921875 64.59375 19.921875 59.515625 
L 19.921875 54.6875 
L 34.71875 54.6875 
L 34.71875 47.703125 
L 19.921875 47.703125 
L 19.921875 0 
L 10.890625 0 
L 10.890625 47.703125 
L 2.296875 47.703125 
L 2.296875 54.6875 
L 10.890625 54.6875 
L 10.890625 58.5 
Q 10.890625 67.625 15.140625 71.796875 
Q 19.390625 75.984375 28.609375 75.984375 
z
" id="DejaVuSans-102"/>
      <path d="M 54.890625 33.015625 
L 54.890625 0 
L 45.90625 0 
L 45.90625 32.71875 
Q 45.90625 40.484375 42.875 44.328125 
Q 39.84375 48.1875 33.796875 48.1875 
Q 26.515625 48.1875 22.3125 43.546875 
Q 18.109375 38.921875 18.109375 30.90625 
L 18.109375 0 
L 9.078125 0 
L 9.078125 75.984375 
L 18.109375 75.984375 
L 18.109375 46.1875 
Q 21.34375 51.125 25.703125 53.5625 
Q 30.078125 56 35.796875 56 
Q 45.21875 56 50.046875 50.171875 
Q 54.890625 44.34375 54.890625 33.015625 
z
" id="DejaVuSans-104"/>
     </defs>
     <use xlink:href="#DejaVuSans-68"/>
     <use x="77.001953" xlink:href="#DejaVuSans-97"/>
     <use x="138.28125" xlink:href="#DejaVuSans-116"/>
     <use x="177.490234" xlink:href="#DejaVuSans-97"/>
     <use x="238.769531" xlink:href="#DejaVuSans-58"/>
     <use x="272.460938" xlink:href="#DejaVuSans-32"/>
     <use x="304.248047" xlink:href="#DejaVuSans-83"/>
     <use x="367.724609" xlink:href="#DejaVuSans-105"/>
     <use x="395.507812" xlink:href="#DejaVuSans-109"/>
     <use x="492.919922" xlink:href="#DejaVuSans-117"/>
     <use x="556.298828" xlink:href="#DejaVuSans-108"/>
     <use x="584.082031" xlink:href="#DejaVuSans-97"/>
     <use x="645.361328" xlink:href="#DejaVuSans-116"/>
     <use x="684.570312" xlink:href="#DejaVuSans-101"/>
     <use x="746.09375" xlink:href="#DejaVuSans-100"/>
     <use x="809.570312" xlink:href="#DejaVuSans-91"/>
     <use x="848.583984" xlink:href="#DejaVuSans-110"/>
     <use x="911.962891" xlink:href="#DejaVuSans-95"/>
     <use x="961.962891" xlink:href="#DejaVuSans-115"/>
     <use x="1014.0625" xlink:href="#DejaVuSans-97"/>
     <use x="1075.341797" xlink:href="#DejaVuSans-109"/>
     <use x="1172.753906" xlink:href="#DejaVuSans-112"/>
     <use x="1236.230469" xlink:href="#DejaVuSans-108"/>
     <use x="1264.013672" xlink:href="#DejaVuSans-101"/>
     <use x="1325.537109" xlink:href="#DejaVuSans-115"/>
     <use x="1377.636719" xlink:href="#DejaVuSans-61"/>
     <use x="1461.425781" xlink:href="#DejaVuSans-49"/>
     <use x="1525.048828" xlink:href="#DejaVuSans-48"/>
     <use x="1588.671875" xlink:href="#DejaVuSans-48"/>
     <use x="1652.294922" xlink:href="#DejaVuSans-44"/>
     <use x="1684.082031" xlink:href="#DejaVuSans-110"/>
     <use x="1747.460938" xlink:href="#DejaVuSans-95"/>
     <use x="1797.460938" xlink:href="#DejaVuSans-102"/>
     <use x="1832.666016" xlink:href="#DejaVuSans-101"/>
     <use x="1894.189453" xlink:href="#DejaVuSans-97"/>
     <use x="1955.46875" xlink:href="#DejaVuSans-116"/>
     <use x="1994.677734" xlink:href="#DejaVuSans-117"/>
     <use x="2058.056641" xlink:href="#DejaVuSans-114"/>
     <use x="2096.919922" xlink:href="#DejaVuSans-101"/>
     <use x="2158.443359" xlink:href="#DejaVuSans-115"/>
     <use x="2210.542969" xlink:href="#DejaVuSans-61"/>
     <use x="2294.332031" xlink:href="#DejaVuSans-53"/>
     <use x="2357.955078" xlink:href="#DejaVuSans-48"/>
     <use x="2421.578125" xlink:href="#DejaVuSans-48"/>
     <use x="2485.201172" xlink:href="#DejaVuSans-48"/>
     <use x="2548.824219" xlink:href="#DejaVuSans-44"/>
     <use x="2580.611328" xlink:href="#DejaVuSans-114"/>
     <use x="2619.974609" xlink:href="#DejaVuSans-104"/>
     <use x="2683.353516" xlink:href="#DejaVuSans-111"/>
     <use x="2744.535156" xlink:href="#DejaVuSans-61"/>
     <use x="2828.324219" xlink:href="#DejaVuSans-48"/>
     <use x="2891.947266" xlink:href="#DejaVuSans-93"/>
    </g>
   </g>
   <g id="legend_1">
    <g id="patch_7">
     <path d="M 70.792054 343.11 
L 375.071116 343.11 
Q 377.871116 343.11 377.871116 340.31 
L 377.871116 53.24 
Q 377.871116 50.44 375.071116 50.44 
L 70.792054 50.44 
Q 67.992054 50.44 67.992054 53.24 
L 67.992054 340.31 
Q 67.992054 343.11 70.792054 343.11 
z
" style="fill:#ffffff;opacity:0.8;stroke:#cccccc;stroke-linejoin:miter;"/>
    </g>
    <g id="line2d_62">
     <path d="M 73.592054 61.777812 
L 101.592054 61.777812 
" style="fill:none;stroke:#1f77b4;stroke-linecap:square;stroke-width:3;"/>
    </g>
    <g id="line2d_63"/>
    <g id="text_17">
     <!-- Blitz -->
     <g transform="translate(112.792054 66.677812)scale(0.14 -0.14)">
      <defs>
       <path d="M 19.671875 34.8125 
L 19.671875 8.109375 
L 35.5 8.109375 
Q 43.453125 8.109375 47.28125 11.40625 
Q 51.125 14.703125 51.125 21.484375 
Q 51.125 28.328125 47.28125 31.5625 
Q 43.453125 34.8125 35.5 34.8125 
z
M 19.671875 64.796875 
L 19.671875 42.828125 
L 34.28125 42.828125 
Q 41.5 42.828125 45.03125 45.53125 
Q 48.578125 48.25 48.578125 53.8125 
Q 48.578125 59.328125 45.03125 62.0625 
Q 41.5 64.796875 34.28125 64.796875 
z
M 9.8125 72.90625 
L 35.015625 72.90625 
Q 46.296875 72.90625 52.390625 68.21875 
Q 58.5 63.53125 58.5 54.890625 
Q 58.5 48.1875 55.375 44.234375 
Q 52.25 40.28125 46.1875 39.3125 
Q 53.46875 37.75 57.5 32.78125 
Q 61.53125 27.828125 61.53125 20.40625 
Q 61.53125 10.640625 54.890625 5.3125 
Q 48.25 0 35.984375 0 
L 9.8125 0 
z
" id="DejaVuSans-66"/>
       <path d="M 5.515625 54.6875 
L 48.1875 54.6875 
L 48.1875 46.484375 
L 14.40625 7.171875 
L 48.1875 7.171875 
L 48.1875 0 
L 4.296875 0 
L 4.296875 8.203125 
L 38.09375 47.515625 
L 5.515625 47.515625 
z
" id="DejaVuSans-122"/>
      </defs>
      <use xlink:href="#DejaVuSans-66"/>
      <use x="68.603516" xlink:href="#DejaVuSans-108"/>
      <use x="96.386719" xlink:href="#DejaVuSans-105"/>
      <use x="124.169922" xlink:href="#DejaVuSans-116"/>
      <use x="163.378906" xlink:href="#DejaVuSans-122"/>
     </g>
    </g>
    <g id="line2d_64">
     <path d="M 73.592054 82.327187 
L 101.592054 82.327187 
" style="fill:none;stroke:#ff7f0e;stroke-linecap:square;stroke-width:3;"/>
    </g>
    <g id="line2d_65"/>
    <g id="text_18">
     <!-- cd -->
     <g transform="translate(112.792054 87.227187)scale(0.14 -0.14)">
      <use xlink:href="#DejaVuSans-99"/>
      <use x="54.980469" xlink:href="#DejaVuSans-100"/>
     </g>
    </g>
    <g id="line2d_66">
     <path d="M 73.592054 102.876562 
L 101.592054 102.876562 
" style="fill:none;stroke:#2ca02c;stroke-linecap:square;stroke-width:3;"/>
    </g>
    <g id="line2d_67"/>
    <g id="text_19">
     <!-- Celer -->
     <g transform="translate(112.792054 107.776562)scale(0.14 -0.14)">
      <defs>
       <path d="M 64.40625 67.28125 
L 64.40625 56.890625 
Q 59.421875 61.53125 53.78125 63.8125 
Q 48.140625 66.109375 41.796875 66.109375 
Q 29.296875 66.109375 22.65625 58.46875 
Q 16.015625 50.828125 16.015625 36.375 
Q 16.015625 21.96875 22.65625 14.328125 
Q 29.296875 6.6875 41.796875 6.6875 
Q 48.140625 6.6875 53.78125 8.984375 
Q 59.421875 11.28125 64.40625 15.921875 
L 64.40625 5.609375 
Q 59.234375 2.09375 53.4375 0.328125 
Q 47.65625 -1.421875 41.21875 -1.421875 
Q 24.65625 -1.421875 15.125 8.703125 
Q 5.609375 18.84375 5.609375 36.375 
Q 5.609375 53.953125 15.125 64.078125 
Q 24.65625 74.21875 41.21875 74.21875 
Q 47.75 74.21875 53.53125 72.484375 
Q 59.328125 70.75 64.40625 67.28125 
z
" id="DejaVuSans-67"/>
      </defs>
      <use xlink:href="#DejaVuSans-67"/>
      <use x="69.824219" xlink:href="#DejaVuSans-101"/>
      <use x="131.347656" xlink:href="#DejaVuSans-108"/>
      <use x="159.130859" xlink:href="#DejaVuSans-101"/>
      <use x="220.654297" xlink:href="#DejaVuSans-114"/>
     </g>
    </g>
    <g id="line2d_68">
     <path d="M 73.592054 123.425937 
L 101.592054 123.425937 
" style="fill:none;stroke:#d62728;stroke-linecap:square;stroke-width:3;"/>
    </g>
    <g id="line2d_69"/>
    <g id="text_20">
     <!-- cvxpy -->
     <g transform="translate(112.792054 128.325937)scale(0.14 -0.14)">
      <defs>
       <path d="M 2.984375 54.6875 
L 12.5 54.6875 
L 29.59375 8.796875 
L 46.6875 54.6875 
L 56.203125 54.6875 
L 35.6875 0 
L 23.484375 0 
z
" id="DejaVuSans-118"/>
       <path d="M 54.890625 54.6875 
L 35.109375 28.078125 
L 55.90625 0 
L 45.3125 0 
L 29.390625 21.484375 
L 13.484375 0 
L 2.875 0 
L 24.125 28.609375 
L 4.6875 54.6875 
L 15.28125 54.6875 
L 29.78125 35.203125 
L 44.28125 54.6875 
z
" id="DejaVuSans-120"/>
       <path d="M 32.171875 -5.078125 
Q 28.375 -14.84375 24.75 -17.8125 
Q 21.140625 -20.796875 15.09375 -20.796875 
L 7.90625 -20.796875 
L 7.90625 -13.28125 
L 13.1875 -13.28125 
Q 16.890625 -13.28125 18.9375 -11.515625 
Q 21 -9.765625 23.484375 -3.21875 
L 25.09375 0.875 
L 2.984375 54.6875 
L 12.5 54.6875 
L 29.59375 11.921875 
L 46.6875 54.6875 
L 56.203125 54.6875 
z
" id="DejaVuSans-121"/>
      </defs>
      <use xlink:href="#DejaVuSans-99"/>
      <use x="54.980469" xlink:href="#DejaVuSans-118"/>
      <use x="114.160156" xlink:href="#DejaVuSans-120"/>
      <use x="173.339844" xlink:href="#DejaVuSans-112"/>
      <use x="236.816406" xlink:href="#DejaVuSans-121"/>
     </g>
    </g>
    <g id="line2d_70">
     <path d="M 73.592054 143.975312 
L 101.592054 143.975312 
" style="fill:none;stroke:#9467bd;stroke-linecap:square;stroke-width:3;"/>
    </g>
    <g id="line2d_71"/>
    <g id="text_21">
     <!-- Cyanure -->
     <g transform="translate(112.792054 148.875312)scale(0.14 -0.14)">
      <use xlink:href="#DejaVuSans-67"/>
      <use x="69.824219" xlink:href="#DejaVuSans-121"/>
      <use x="129.003906" xlink:href="#DejaVuSans-97"/>
      <use x="190.283203" xlink:href="#DejaVuSans-110"/>
      <use x="253.662109" xlink:href="#DejaVuSans-117"/>
      <use x="317.041016" xlink:href="#DejaVuSans-114"/>
      <use x="355.904297" xlink:href="#DejaVuSans-101"/>
     </g>
    </g>
    <g id="line2d_72">
     <path d="M 73.592054 164.524687 
L 101.592054 164.524687 
" style="fill:none;stroke:#8c564b;stroke-linecap:square;stroke-width:3;"/>
    </g>
    <g id="line2d_73"/>
    <g id="text_22">
     <!-- glmnet -->
     <g transform="translate(112.792054 169.424687)scale(0.14 -0.14)">
      <use xlink:href="#DejaVuSans-103"/>
      <use x="63.476562" xlink:href="#DejaVuSans-108"/>
      <use x="91.259766" xlink:href="#DejaVuSans-109"/>
      <use x="188.671875" xlink:href="#DejaVuSans-110"/>
      <use x="252.050781" xlink:href="#DejaVuSans-101"/>
      <use x="313.574219" xlink:href="#DejaVuSans-116"/>
     </g>
    </g>
    <g id="line2d_74">
     <path d="M 73.592054 185.074062 
L 101.592054 185.074062 
" style="fill:none;stroke:#e377c2;stroke-linecap:square;stroke-width:3;"/>
    </g>
    <g id="line2d_75"/>
    <g id="text_23">
     <!-- Julia-PGD -->
     <g transform="translate(112.792054 189.974062)scale(0.14 -0.14)">
      <defs>
       <path d="M 9.8125 72.90625 
L 19.671875 72.90625 
L 19.671875 5.078125 
Q 19.671875 -8.109375 14.671875 -14.0625 
Q 9.671875 -20.015625 -1.421875 -20.015625 
L -5.171875 -20.015625 
L -5.171875 -11.71875 
L -2.09375 -11.71875 
Q 4.4375 -11.71875 7.125 -8.046875 
Q 9.8125 -4.390625 9.8125 5.078125 
z
" id="DejaVuSans-74"/>
       <path d="M 4.890625 31.390625 
L 31.203125 31.390625 
L 31.203125 23.390625 
L 4.890625 23.390625 
z
" id="DejaVuSans-45"/>
       <path d="M 19.671875 64.796875 
L 19.671875 37.40625 
L 32.078125 37.40625 
Q 38.96875 37.40625 42.71875 40.96875 
Q 46.484375 44.53125 46.484375 51.125 
Q 46.484375 57.671875 42.71875 61.234375 
Q 38.96875 64.796875 32.078125 64.796875 
z
M 9.8125 72.90625 
L 32.078125 72.90625 
Q 44.34375 72.90625 50.609375 67.359375 
Q 56.890625 61.8125 56.890625 51.125 
Q 56.890625 40.328125 50.609375 34.8125 
Q 44.34375 29.296875 32.078125 29.296875 
L 19.671875 29.296875 
L 19.671875 0 
L 9.8125 0 
z
" id="DejaVuSans-80"/>
       <path d="M 59.515625 10.40625 
L 59.515625 29.984375 
L 43.40625 29.984375 
L 43.40625 38.09375 
L 69.28125 38.09375 
L 69.28125 6.78125 
Q 63.578125 2.734375 56.6875 0.65625 
Q 49.8125 -1.421875 42 -1.421875 
Q 24.90625 -1.421875 15.25 8.5625 
Q 5.609375 18.5625 5.609375 36.375 
Q 5.609375 54.25 15.25 64.234375 
Q 24.90625 74.21875 42 74.21875 
Q 49.125 74.21875 55.546875 72.453125 
Q 61.96875 70.703125 67.390625 67.28125 
L 67.390625 56.78125 
Q 61.921875 61.421875 55.765625 63.765625 
Q 49.609375 66.109375 42.828125 66.109375 
Q 29.4375 66.109375 22.71875 58.640625 
Q 16.015625 51.171875 16.015625 36.375 
Q 16.015625 21.625 22.71875 14.15625 
Q 29.4375 6.6875 42.828125 6.6875 
Q 48.046875 6.6875 52.140625 7.59375 
Q 56.25 8.5 59.515625 10.40625 
z
" id="DejaVuSans-71"/>
      </defs>
      <use xlink:href="#DejaVuSans-74"/>
      <use x="29.492188" xlink:href="#DejaVuSans-117"/>
      <use x="92.871094" xlink:href="#DejaVuSans-108"/>
      <use x="120.654297" xlink:href="#DejaVuSans-105"/>
      <use x="148.4375" xlink:href="#DejaVuSans-97"/>
      <use x="209.716797" xlink:href="#DejaVuSans-45"/>
      <use x="245.800781" xlink:href="#DejaVuSans-80"/>
      <use x="306.103516" xlink:href="#DejaVuSans-71"/>
      <use x="383.59375" xlink:href="#DejaVuSans-68"/>
     </g>
    </g>
    <g id="line2d_76">
     <path d="M 73.592054 205.623437 
L 101.592054 205.623437 
" style="fill:none;stroke:#7f7f7f;stroke-linecap:square;stroke-width:3;"/>
    </g>
    <g id="line2d_77"/>
    <g id="text_24">
     <!-- L-BFGS-B -->
     <g transform="translate(112.792054 210.523437)scale(0.14 -0.14)">
      <defs>
       <path d="M 9.8125 72.90625 
L 51.703125 72.90625 
L 51.703125 64.59375 
L 19.671875 64.59375 
L 19.671875 43.109375 
L 48.578125 43.109375 
L 48.578125 34.8125 
L 19.671875 34.8125 
L 19.671875 0 
L 9.8125 0 
z
" id="DejaVuSans-70"/>
      </defs>
      <use xlink:href="#DejaVuSans-76"/>
      <use x="53.962891" xlink:href="#DejaVuSans-45"/>
      <use x="86.421875" xlink:href="#DejaVuSans-66"/>
      <use x="155.025391" xlink:href="#DejaVuSans-70"/>
      <use x="212.544922" xlink:href="#DejaVuSans-71"/>
      <use x="290.035156" xlink:href="#DejaVuSans-83"/>
      <use x="353.511719" xlink:href="#DejaVuSans-45"/>
      <use x="385.970703" xlink:href="#DejaVuSans-66"/>
     </g>
    </g>
    <g id="line2d_78">
     <path d="M 73.592054 226.172812 
L 101.592054 226.172812 
" style="fill:none;stroke:#bcbd22;stroke-linecap:square;stroke-width:3;"/>
    </g>
    <g id="line2d_79"/>
    <g id="text_25">
     <!-- Lightning -->
     <g transform="translate(112.792054 231.072812)scale(0.14 -0.14)">
      <use xlink:href="#DejaVuSans-76"/>
      <use x="55.712891" xlink:href="#DejaVuSans-105"/>
      <use x="83.496094" xlink:href="#DejaVuSans-103"/>
      <use x="146.972656" xlink:href="#DejaVuSans-104"/>
      <use x="210.351562" xlink:href="#DejaVuSans-116"/>
      <use x="249.560547" xlink:href="#DejaVuSans-110"/>
      <use x="312.939453" xlink:href="#DejaVuSans-105"/>
      <use x="340.722656" xlink:href="#DejaVuSans-110"/>
      <use x="404.101562" xlink:href="#DejaVuSans-103"/>
     </g>
    </g>
    <g id="line2d_80">
     <path d="M 73.592054 246.722187 
L 101.592054 246.722187 
" style="fill:none;stroke:#17becf;stroke-linecap:square;stroke-width:3;"/>
    </g>
    <g id="line2d_81"/>
    <g id="text_26">
     <!-- Python-PGD[use_acceleration=False] -->
     <g transform="translate(112.792054 251.622187)scale(0.14 -0.14)">
      <use xlink:href="#DejaVuSans-80"/>
      <use x="60.302734" xlink:href="#DejaVuSans-121"/>
      <use x="119.482422" xlink:href="#DejaVuSans-116"/>
      <use x="158.691406" xlink:href="#DejaVuSans-104"/>
      <use x="222.070312" xlink:href="#DejaVuSans-111"/>
      <use x="283.251953" xlink:href="#DejaVuSans-110"/>
      <use x="346.630859" xlink:href="#DejaVuSans-45"/>
      <use x="382.714844" xlink:href="#DejaVuSans-80"/>
      <use x="443.017578" xlink:href="#DejaVuSans-71"/>
      <use x="520.507812" xlink:href="#DejaVuSans-68"/>
      <use x="597.509766" xlink:href="#DejaVuSans-91"/>
      <use x="636.523438" xlink:href="#DejaVuSans-117"/>
      <use x="699.902344" xlink:href="#DejaVuSans-115"/>
      <use x="752.001953" xlink:href="#DejaVuSans-101"/>
      <use x="813.525391" xlink:href="#DejaVuSans-95"/>
      <use x="863.525391" xlink:href="#DejaVuSans-97"/>
      <use x="924.804688" xlink:href="#DejaVuSans-99"/>
      <use x="979.785156" xlink:href="#DejaVuSans-99"/>
      <use x="1034.765625" xlink:href="#DejaVuSans-101"/>
      <use x="1096.289062" xlink:href="#DejaVuSans-108"/>
      <use x="1124.072266" xlink:href="#DejaVuSans-101"/>
      <use x="1185.595703" xlink:href="#DejaVuSans-114"/>
      <use x="1226.708984" xlink:href="#DejaVuSans-97"/>
      <use x="1287.988281" xlink:href="#DejaVuSans-116"/>
      <use x="1327.197266" xlink:href="#DejaVuSans-105"/>
      <use x="1354.980469" xlink:href="#DejaVuSans-111"/>
      <use x="1416.162109" xlink:href="#DejaVuSans-110"/>
      <use x="1479.541016" xlink:href="#DejaVuSans-61"/>
      <use x="1563.330078" xlink:href="#DejaVuSans-70"/>
      <use x="1611.724609" xlink:href="#DejaVuSans-97"/>
      <use x="1673.003906" xlink:href="#DejaVuSans-108"/>
      <use x="1700.787109" xlink:href="#DejaVuSans-115"/>
      <use x="1752.886719" xlink:href="#DejaVuSans-101"/>
      <use x="1814.410156" xlink:href="#DejaVuSans-93"/>
     </g>
    </g>
    <g id="line2d_82">
     <path d="M 73.592054 267.660937 
L 101.592054 267.660937 
" style="fill:none;stroke:#1f77b4;stroke-linecap:square;stroke-width:3;"/>
    </g>
    <g id="line2d_83"/>
    <g id="text_27">
     <!-- Python-PGD[use_acceleration=True] -->
     <g transform="translate(112.792054 272.560937)scale(0.14 -0.14)">
      <use xlink:href="#DejaVuSans-80"/>
      <use x="60.302734" xlink:href="#DejaVuSans-121"/>
      <use x="119.482422" xlink:href="#DejaVuSans-116"/>
      <use x="158.691406" xlink:href="#DejaVuSans-104"/>
      <use x="222.070312" xlink:href="#DejaVuSans-111"/>
      <use x="283.251953" xlink:href="#DejaVuSans-110"/>
      <use x="346.630859" xlink:href="#DejaVuSans-45"/>
      <use x="382.714844" xlink:href="#DejaVuSans-80"/>
      <use x="443.017578" xlink:href="#DejaVuSans-71"/>
      <use x="520.507812" xlink:href="#DejaVuSans-68"/>
      <use x="597.509766" xlink:href="#DejaVuSans-91"/>
      <use x="636.523438" xlink:href="#DejaVuSans-117"/>
      <use x="699.902344" xlink:href="#DejaVuSans-115"/>
      <use x="752.001953" xlink:href="#DejaVuSans-101"/>
      <use x="813.525391" xlink:href="#DejaVuSans-95"/>
      <use x="863.525391" xlink:href="#DejaVuSans-97"/>
      <use x="924.804688" xlink:href="#DejaVuSans-99"/>
      <use x="979.785156" xlink:href="#DejaVuSans-99"/>
      <use x="1034.765625" xlink:href="#DejaVuSans-101"/>
      <use x="1096.289062" xlink:href="#DejaVuSans-108"/>
      <use x="1124.072266" xlink:href="#DejaVuSans-101"/>
      <use x="1185.595703" xlink:href="#DejaVuSans-114"/>
      <use x="1226.708984" xlink:href="#DejaVuSans-97"/>
      <use x="1287.988281" xlink:href="#DejaVuSans-116"/>
      <use x="1327.197266" xlink:href="#DejaVuSans-105"/>
      <use x="1354.980469" xlink:href="#DejaVuSans-111"/>
      <use x="1416.162109" xlink:href="#DejaVuSans-110"/>
      <use x="1479.541016" xlink:href="#DejaVuSans-61"/>
      <use x="1563.330078" xlink:href="#DejaVuSans-84"/>
      <use x="1609.664062" xlink:href="#DejaVuSans-114"/>
      <use x="1650.777344" xlink:href="#DejaVuSans-117"/>
      <use x="1714.15625" xlink:href="#DejaVuSans-101"/>
      <use x="1775.679688" xlink:href="#DejaVuSans-93"/>
     </g>
    </g>
    <g id="line2d_84">
     <path d="M 73.592054 288.599687 
L 101.592054 288.599687 
" style="fill:none;stroke:#ff7f0e;stroke-linecap:square;stroke-width:3;"/>
    </g>
    <g id="line2d_85"/>
    <g id="text_28">
     <!-- R-PGD -->
     <g transform="translate(112.792054 293.499687)scale(0.14 -0.14)">
      <use xlink:href="#DejaVuSans-82"/>
      <use x="65.482422" xlink:href="#DejaVuSans-45"/>
      <use x="101.566406" xlink:href="#DejaVuSans-80"/>
      <use x="161.869141" xlink:href="#DejaVuSans-71"/>
      <use x="239.359375" xlink:href="#DejaVuSans-68"/>
     </g>
    </g>
    <g id="line2d_86">
     <path d="M 73.592054 309.149062 
L 101.592054 309.149062 
" style="fill:none;stroke:#2ca02c;stroke-linecap:square;stroke-width:3;"/>
    </g>
    <g id="line2d_87"/>
    <g id="text_29">
     <!-- sklearn -->
     <g transform="translate(112.792054 314.049062)scale(0.14 -0.14)">
      <defs>
       <path d="M 9.078125 75.984375 
L 18.109375 75.984375 
L 18.109375 31.109375 
L 44.921875 54.6875 
L 56.390625 54.6875 
L 27.390625 29.109375 
L 57.625 0 
L 45.90625 0 
L 18.109375 26.703125 
L 18.109375 0 
L 9.078125 0 
z
" id="DejaVuSans-107"/>
      </defs>
      <use xlink:href="#DejaVuSans-115"/>
      <use x="52.099609" xlink:href="#DejaVuSans-107"/>
      <use x="110.009766" xlink:href="#DejaVuSans-108"/>
      <use x="137.792969" xlink:href="#DejaVuSans-101"/>
      <use x="199.316406" xlink:href="#DejaVuSans-97"/>
      <use x="260.595703" xlink:href="#DejaVuSans-114"/>
      <use x="299.958984" xlink:href="#DejaVuSans-110"/>
     </g>
    </g>
    <g id="line2d_88">
     <path d="M 73.592054 329.698437 
L 101.592054 329.698437 
" style="fill:none;stroke:#d62728;stroke-linecap:square;stroke-width:3;"/>
    </g>
    <g id="line2d_89"/>
    <g id="text_30">
     <!-- statsmodels -->
     <g transform="translate(112.792054 334.598437)scale(0.14 -0.14)">
      <use xlink:href="#DejaVuSans-115"/>
      <use x="52.099609" xlink:href="#DejaVuSans-116"/>
      <use x="91.308594" xlink:href="#DejaVuSans-97"/>
      <use x="152.587891" xlink:href="#DejaVuSans-116"/>
      <use x="191.796875" xlink:href="#DejaVuSans-115"/>
      <use x="243.896484" xlink:href="#DejaVuSans-109"/>
      <use x="341.308594" xlink:href="#DejaVuSans-111"/>
      <use x="402.490234" xlink:href="#DejaVuSans-100"/>
      <use x="465.966797" xlink:href="#DejaVuSans-101"/>
      <use x="527.490234" xlink:href="#DejaVuSans-108"/>
      <use x="555.273438" xlink:href="#DejaVuSans-115"/>
     </g>
    </g>
   </g>
  </g>
 </g>
 <defs>
  <clipPath id="pfcd0a28f98">
   <rect height="253.288" width="389.007946" x="60.992054" y="43.44"/>
  </clipPath>
 </defs>
</svg>
