<?xml version="1.0" encoding="utf-8" standalone="no"?>
<!DOCTYPE svg PUBLIC "-//W3C//DTD SVG 1.1//EN"
  "http://www.w3.org/Graphics/SVG/1.1/DTD/svg11.dtd">
<!-- Created with matplotlib (https://matplotlib.org/) -->
<svg height="345.6pt" version="1.1" viewBox="0 0 460.8 345.6" width="460.8pt" xmlns="http://www.w3.org/2000/svg" xmlns:xlink="http://www.w3.org/1999/xlink">
 <metadata>
  <rdf:RDF xmlns:cc="http://creativecommons.org/ns#" xmlns:dc="http://purl.org/dc/elements/1.1/" xmlns:rdf="http://www.w3.org/1999/02/22-rdf-syntax-ns#">
   <cc:Work>
    <dc:type rdf:resource="http://purl.org/dc/dcmitype/StillImage"/>
    <dc:date>2020-12-16T15:45:06.048881</dc:date>
    <dc:format>image/svg+xml</dc:format>
    <dc:creator>
     <cc:Agent>
      <dc:title>Matplotlib v3.3.3, https://matplotlib.org/</dc:title>
     </cc:Agent>
    </dc:creator>
   </cc:Work>
  </rdf:RDF>
 </metadata>
 <defs>
  <style type="text/css">*{stroke-linecap:butt;stroke-linejoin:round;}</style>
 </defs>
 <g id="figure_1">
  <g id="patch_1">
   <path d="M 0 345.6 
L 460.8 345.6 
L 460.8 0 
L 0 0 
z
" style="fill:#ffffff;"/>
  </g>
  <g id="axes_1">
   <g id="patch_2">
    <path d="M 72.196742 296.728 
L 450 296.728 
L 450 43.44 
L 72.196742 43.44 
z
" style="fill:#ffffff;"/>
   </g>
   <g id="PolyCollection_1">
    <defs>
     <path d="M 220.154382 -60.385091 
L 215.623232 -60.385091 
L 216.509313 -60.385091 
L 216.530167 -60.385091 
L 219.01595 -60.385091 
L 217.768577 -60.385091 
L 217.955386 -60.385091 
L 215.770463 -60.385091 
L 215.716623 -60.385091 
L 217.147718 -60.385091 
L 217.732449 -60.385091 
L 218.35719 -60.385091 
L 214.358303 -60.385091 
L 219.29225 -60.385091 
L 217.147843 -60.385091 
L 218.073616 -60.385091 
L 220.294736 -60.385091 
L 215.824575 -60.385091 
L 218.407397 -60.385091 
L 218.263052 -60.385091 
L 218.602637 -60.385091 
L 221.231126 -60.385091 
L 219.274579 -60.385091 
L 218.96959 -60.385091 
L 220.357435 -60.385091 
L 216.775343 -60.385091 
L 216.125726 -60.385091 
L 218.953676 -60.385091 
L 221.765932 -60.385091 
L 219.774839 -60.385091 
L 221.087358 -60.385091 
L 220.750994 -60.385091 
L 222.080324 -60.385091 
L 219.592008 -60.385091 
L 218.215527 -60.385091 
L 218.424355 -60.385091 
L 219.907874 -60.385091 
L 221.57878 -60.385091 
L 218.642404 -60.385091 
L 219.56827 -60.385091 
L 223.278361 -60.385091 
L 223.578563 -60.385091 
L 219.123908 -60.385091 
L 218.218177 -60.385091 
L 220.485662 -60.385091 
L 218.281373 -60.385091 
L 217.579591 -60.385091 
L 217.57894 -60.385091 
L 215.946347 -60.385091 
L 215.676455 -60.385091 
L 212.900189 -60.385091 
L 212.444664 -60.385091 
L 212.101696 -60.385091 
L 210.629703 -60.385091 
L 209.293841 -60.385091 
L 208.135396 -60.385091 
L 206.882533 -60.385091 
L 205.512903 -60.385091 
L 203.913225 -60.385091 
L 202.321073 -60.385091 
L 200.450907 -60.385091 
L 198.402261 -60.385092 
L 197.930281 -60.385092 
L 195.522216 -60.385093 
L 195.221143 -60.385096 
L 194.220199 -60.385104 
L 190.458143 -60.385116 
L 189.729703 -60.385137 
L 185.154327 -60.385245 
L 185.709923 -60.385357 
L 181.20995 -60.385788 
L 178.292009 -60.386472 
L 177.802678 -60.387671 
L 172.690178 -60.389895 
L 170.599893 -60.393378 
L 164.834583 -60.404279 
L 160.556949 -60.429829 
L 157.542631 -60.431248 
L 154.783071 -60.48806 
L 154.227006 -60.49174 
L 152.736769 -60.702524 
L 141.239373 -60.794038 
L 142.158921 -60.780191 
L 129.460992 -62.115874 
L 121.201841 -63.339323 
L 122.548314 -63.469105 
L 89.369618 -75.951442 
L 91.06604 -75.937396 
L 103.783298 -75.937396 
L 103.783298 -75.937396 
L 91.744183 -75.951442 
L 128.115918 -63.469105 
L 129.280313 -63.339323 
L 143.744253 -62.115874 
L 163.073641 -60.780191 
L 160.123601 -60.794038 
L 159.952162 -60.702524 
L 162.949044 -60.49174 
L 161.055124 -60.48806 
L 168.248748 -60.431248 
L 172.069643 -60.429829 
L 174.175379 -60.404279 
L 174.752778 -60.393378 
L 177.812937 -60.389895 
L 183.129074 -60.387671 
L 185.94907 -60.386472 
L 189.262602 -60.385788 
L 189.7335 -60.385357 
L 193.668235 -60.385245 
L 191.900075 -60.385137 
L 193.768201 -60.385116 
L 198.343338 -60.385104 
L 197.845654 -60.385096 
L 201.28225 -60.385093 
L 202.39853 -60.385092 
L 202.949865 -60.385092 
L 203.91188 -60.385091 
L 209.015478 -60.385091 
L 207.777692 -60.385091 
L 207.94546 -60.385091 
L 210.28498 -60.385091 
L 210.860953 -60.385091 
L 214.357422 -60.385091 
L 212.0221 -60.385091 
L 214.480332 -60.385091 
L 215.745082 -60.385091 
L 215.028522 -60.385091 
L 217.630545 -60.385091 
L 218.315087 -60.385091 
L 220.9245 -60.385091 
L 218.938516 -60.385091 
L 222.814232 -60.385091 
L 224.206747 -60.385091 
L 223.74451 -60.385091 
L 224.754665 -60.385091 
L 226.248111 -60.385091 
L 226.986791 -60.385091 
L 225.813231 -60.385091 
L 225.084137 -60.385091 
L 223.907137 -60.385091 
L 224.043768 -60.385091 
L 223.768924 -60.385091 
L 222.733861 -60.385091 
L 223.87145 -60.385091 
L 226.064585 -60.385091 
L 225.156871 -60.385091 
L 224.190363 -60.385091 
L 222.861264 -60.385091 
L 224.058076 -60.385091 
L 223.067091 -60.385091 
L 223.101349 -60.385091 
L 224.374434 -60.385091 
L 223.479305 -60.385091 
L 223.860226 -60.385091 
L 222.807438 -60.385091 
L 223.588921 -60.385091 
L 223.979433 -60.385091 
L 222.52747 -60.385091 
L 221.705448 -60.385091 
L 221.272111 -60.385091 
L 223.832917 -60.385091 
L 222.293589 -60.385091 
L 223.654752 -60.385091 
L 224.047439 -60.385091 
L 220.311581 -60.385091 
L 221.81618 -60.385091 
L 221.388053 -60.385091 
L 221.351243 -60.385091 
L 222.350997 -60.385091 
L 221.577051 -60.385091 
L 221.032721 -60.385091 
L 221.840568 -60.385091 
L 220.295841 -60.385091 
L 221.771579 -60.385091 
L 220.249125 -60.385091 
L 220.154382 -60.385091 
z
" id="m591fd01107" style="stroke:#1f77b4;stroke-opacity:0.3;"/>
    </defs>
    <g clip-path="url(#p2afde569fc)">
     <use style="fill:#1f77b4;fill-opacity:0.3;stroke:#1f77b4;stroke-opacity:0.3;" x="0" xlink:href="#m591fd01107" y="345.6"/>
    </g>
   </g>
   <g id="PolyCollection_2">
    <defs>
     <path d="M 113.19229 -200.991269 
L 96.500182 -200.991269 
L 105.373347 -147.315109 
L 121.067856 -121.380612 
L 129.23189 -105.515643 
L 135.268932 -86.928722 
L 145.978045 -74.801691 
L 158.456101 -66.840962 
L 165.670084 -63.109911 
L 179.318015 -61.282012 
L 194.928387 -60.52265 
L 210.811349 -60.409289 
L 227.481714 -60.386414 
L 241.592144 -60.385201 
L 254.818354 -60.3851 
L 268.391812 -60.385092 
L 284.090681 -60.385091 
L 295.743315 -60.385091 
L 311.866864 -60.385091 
L 326.468903 -60.385091 
L 342.047613 -60.385091 
L 356.879206 -60.385091 
L 372.923133 -60.385091 
L 395.468348 -60.385091 
L 397.742508 -60.385091 
L 397.742508 -60.385091 
L 373.593719 -60.385091 
L 358.542672 -60.385091 
L 343.539309 -60.385091 
L 327.095075 -60.385091 
L 312.703672 -60.385091 
L 299.041379 -60.385091 
L 285.071685 -60.385091 
L 270.814557 -60.385092 
L 255.981699 -60.3851 
L 243.487063 -60.385201 
L 230.264598 -60.386414 
L 214.517817 -60.409289 
L 199.060776 -60.52265 
L 184.221946 -61.282012 
L 171.178077 -63.109911 
L 163.658625 -66.840962 
L 162.834835 -74.801691 
L 138.375441 -86.928722 
L 144.142869 -105.515643 
L 137.76094 -121.380612 
L 124.451628 -147.315109 
L 113.19229 -200.991269 
z
" id="m91473df37a" style="stroke:#ff7f0e;stroke-opacity:0.3;"/>
    </defs>
    <g clip-path="url(#p2afde569fc)">
     <use style="fill:#ff7f0e;fill-opacity:0.3;stroke:#ff7f0e;stroke-opacity:0.3;" x="0" xlink:href="#m91473df37a" y="345.6"/>
    </g>
   </g>
   <g id="PolyCollection_3">
    <defs>
     <path d="M 143.810989 -198.164429 
L 117.315928 -198.164429 
L 125.166735 -128.831685 
L 130.104708 -85.625422 
L 142.538722 -69.352961 
L 152.383647 -61.213509 
L 164.020498 -60.386494 
L 177.553979 -60.385091 
L 184.715826 -60.385091 
L 198.038289 -60.385091 
L 194.619547 -60.385091 
L 194.392019 -60.385091 
L 196.859194 -60.385091 
L 197.378981 -60.385091 
L 196.300619 -60.385091 
L 202.041837 -60.385091 
L 202.041837 -60.385091 
L 201.375089 -60.385091 
L 199.764484 -60.385091 
L 201.395664 -60.385091 
L 201.320532 -60.385091 
L 201.670185 -60.385091 
L 190.593112 -60.385091 
L 181.875876 -60.385091 
L 172.211517 -60.386494 
L 161.0397 -61.213509 
L 156.129881 -69.352961 
L 150.16937 -85.625422 
L 139.543139 -128.831685 
L 143.810989 -198.164429 
z
" id="mdb082c8b1c" style="stroke:#2ca02c;stroke-opacity:0.3;"/>
    </defs>
    <g clip-path="url(#p2afde569fc)">
     <use style="fill:#2ca02c;fill-opacity:0.3;stroke:#2ca02c;stroke-opacity:0.3;" x="0" xlink:href="#mdb082c8b1c" y="345.6"/>
    </g>
   </g>
   <g id="PolyCollection_4">
    <defs>
     <path d="M 327.990099 -240.434217 
L 290.771596 -240.434217 
L 304.29778 -240.434217 
L 314.710835 -240.434217 
L 336.386191 -240.434217 
L 373.686505 -76.842579 
L 404.837769 -60.385091 
L 408.34317 -60.385091 
L 408.34317 -60.385091 
L 387.114702 -76.842579 
L 339.031172 -240.434217 
L 319.902069 -240.434217 
L 306.3482 -240.434217 
L 327.990099 -240.434217 
z
" id="m7e1396fd48" style="stroke:#d62728;stroke-opacity:0.3;"/>
    </defs>
    <g clip-path="url(#p2afde569fc)">
     <use style="fill:#d62728;fill-opacity:0.3;stroke:#d62728;stroke-opacity:0.3;" x="0" xlink:href="#m7e1396fd48" y="345.6"/>
    </g>
   </g>
   <g id="PolyCollection_5">
    <defs>
     <path d="M 162.105061 -290.646909 
L 136.267061 -290.646909 
L 163.818789 -179.397054 
L 132.562834 -142.938266 
L 163.852916 -135.258551 
L 152.519541 -123.517023 
L 158.894258 -114.216087 
L 169.075026 -110.601697 
L 184.097439 -110.601697 
L 209.017242 -82.894077 
L 232.83968 -69.999437 
L 256.845708 -63.643127 
L 279.834462 -60.835231 
L 301.973104 -60.448601 
L 337.192834 -60.3859 
L 363.847413 -60.385091 
L 385.001133 -60.385091 
L 410.910394 -60.385091 
L 412.071788 -60.385091 
L 412.071788 -60.385091 
L 391.519068 -60.385091 
L 366.488491 -60.385091 
L 347.74263 -60.3859 
L 319.6536 -60.448601 
L 287.84151 -60.835231 
L 272.958501 -63.643127 
L 255.932516 -69.999437 
L 240.857288 -82.894077 
L 226.348299 -110.601697 
L 205.630004 -110.601697 
L 203.404011 -114.216087 
L 193.798449 -123.517023 
L 186.377093 -135.258551 
L 147.537669 -142.938266 
L 179.463352 -179.397054 
L 162.105061 -290.646909 
z
" id="m8fef3a4c8a" style="stroke:#9467bd;stroke-opacity:0.3;"/>
    </defs>
    <g clip-path="url(#p2afde569fc)">
     <use style="fill:#9467bd;fill-opacity:0.3;stroke:#9467bd;stroke-opacity:0.3;" x="0" xlink:href="#m8fef3a4c8a" y="345.6"/>
    </g>
   </g>
   <g id="PolyCollection_6">
    <defs>
     <path d="M 241.469483 -290.646909 
L 195.856652 -290.646909 
L 186.540767 -289.705348 
L 188.792543 -289.705348 
L 186.16732 -288.804026 
L 189.116118 -287.941485 
L 194.821844 -287.116304 
L 197.729556 -285.031349 
L 187.70244 -280.450749 
L 200.670232 -273.844386 
L 200.49416 -265.66571 
L 203.995156 -247.889385 
L 205.195898 -215.901414 
L 213.322892 -174.619529 
L 223.222357 -135.508809 
L 232.309098 -102.478444 
L 254.819117 -76.342263 
L 278.63319 -62.864743 
L 285.110269 -60.385091 
L 283.618682 -60.385091 
L 284.732898 -60.385091 
L 279.243409 -60.385091 
L 279.802909 -60.385091 
L 278.648252 -60.385091 
L 283.450281 -60.385091 
L 283.450281 -60.385091 
L 288.282291 -60.385091 
L 290.970496 -60.385091 
L 306.306085 -60.385091 
L 290.250644 -60.385091 
L 301.579018 -60.385091 
L 300.234805 -62.864743 
L 265.489217 -76.342263 
L 263.612505 -102.478444 
L 236.052951 -135.508809 
L 243.645798 -174.619529 
L 232.880008 -215.901414 
L 243.450202 -247.889385 
L 242.903672 -265.66571 
L 241.707066 -273.844386 
L 238.810194 -280.450749 
L 216.48426 -285.031349 
L 213.115923 -287.116304 
L 215.061023 -287.941485 
L 219.847818 -288.804026 
L 244.610113 -289.705348 
L 239.744378 -289.705348 
L 241.469483 -290.646909 
z
" id="mb0fb0ba517" style="stroke:#8c564b;stroke-opacity:0.3;"/>
    </defs>
    <g clip-path="url(#p2afde569fc)">
     <use style="fill:#8c564b;fill-opacity:0.3;stroke:#8c564b;stroke-opacity:0.3;" x="0" xlink:href="#mb0fb0ba517" y="345.6"/>
    </g>
   </g>
   <g id="PolyCollection_7">
    <defs>
     <path d="M 232.320618 -170.574972 
L 196.96627 -170.574972 
L 200.035923 -152.170811 
L 199.257078 -143.465755 
L 202.910862 -137.515048 
L 201.755447 -129.195482 
L 210.906938 -121.015993 
L 209.460029 -113.776186 
L 216.946772 -106.602073 
L 222.037515 -99.563707 
L 228.462642 -92.905701 
L 241.927877 -86.913895 
L 247.582807 -81.80953 
L 254.18462 -77.123422 
L 266.269986 -72.990266 
L 273.642557 -69.366697 
L 286.484286 -66.290237 
L 299.475841 -64.040164 
L 313.825031 -62.390493 
L 326.491032 -61.423658 
L 343.402559 -60.895697 
L 359.285959 -60.625326 
L 376.157747 -60.517389 
L 388.712553 -60.453639 
L 389.457566 -60.453639 
L 389.457566 -60.453639 
L 378.782978 -60.517389 
L 362.238673 -60.625326 
L 348.154899 -60.895697 
L 331.096573 -61.423658 
L 319.251019 -62.390493 
L 307.997995 -64.040164 
L 294.17099 -66.290237 
L 283.23472 -69.366697 
L 268.508529 -72.990266 
L 257.648867 -77.123422 
L 252.038333 -81.80953 
L 248.043212 -86.913895 
L 234.401918 -92.905701 
L 227.799903 -99.563707 
L 233.698352 -106.602073 
L 232.552231 -113.776186 
L 215.968064 -121.015993 
L 211.676099 -129.195482 
L 213.769595 -137.515048 
L 211.490189 -143.465755 
L 209.188305 -152.170811 
L 232.320618 -170.574972 
z
" id="m6d735dc9bd" style="stroke:#e377c2;stroke-opacity:0.3;"/>
    </defs>
    <g clip-path="url(#p2afde569fc)">
     <use style="fill:#e377c2;fill-opacity:0.3;stroke:#e377c2;stroke-opacity:0.3;" x="0" xlink:href="#m6d735dc9bd" y="345.6"/>
    </g>
   </g>
   <g id="PolyCollection_8">
    <defs>
     <path d="M 211.825273 -241.506851 
L 170.077395 -241.506851 
L 172.211512 -153.106768 
L 180.730307 -146.812806 
L 180.361804 -134.433593 
L 187.235225 -119.79114 
L 196.692706 -105.586768 
L 207.240211 -93.296387 
L 217.473215 -82.757392 
L 226.652766 -73.605772 
L 242.303489 -66.085432 
L 254.514857 -62.430522 
L 271.309318 -61.208918 
L 284.469172 -60.662935 
L 302.278357 -60.491971 
L 318.541332 -60.401998 
L 339.426885 -60.386739 
L 361.225404 -60.385149 
L 371.346555 -60.385091 
L 387.520503 -60.385091 
L 388.5761 -60.385091 
L 388.5761 -60.385091 
L 374.845289 -60.385091 
L 361.64669 -60.385149 
L 344.084701 -60.386739 
L 321.426235 -60.401998 
L 304.799443 -60.491971 
L 290.525455 -60.662935 
L 275.425019 -61.208918 
L 265.008981 -62.430522 
L 251.874102 -66.085432 
L 243.129706 -73.605772 
L 239.231454 -82.757392 
L 230.33579 -93.296387 
L 222.466673 -105.586768 
L 216.103488 -119.79114 
L 215.556189 -134.433593 
L 227.21802 -146.812806 
L 211.058887 -153.106768 
L 211.825273 -241.506851 
z
" id="mbbee42315a" style="stroke:#7f7f7f;stroke-opacity:0.3;"/>
    </defs>
    <g clip-path="url(#p2afde569fc)">
     <use style="fill:#7f7f7f;fill-opacity:0.3;stroke:#7f7f7f;stroke-opacity:0.3;" x="0" xlink:href="#mbbee42315a" y="345.6"/>
    </g>
   </g>
   <g id="PolyCollection_9">
    <defs>
     <path d="M 134.323754 -239.672633 
L 123.212924 -239.672633 
L 152.019765 -190.743703 
L 153.730257 -159.748637 
L 154.748076 -141.390805 
L 156.240543 -108.17275 
L 158.999557 -96.974554 
L 159.91917 -88.544883 
L 161.233519 -86.478656 
L 163.37857 -87.667727 
L 164.053502 -80.908163 
L 168.816638 -80.136518 
L 172.584405 -83.04193 
L 178.751376 -87.056682 
L 186.291803 -83.879146 
L 194.198198 -84.788417 
L 203.858332 -83.36967 
L 215.125881 -84.012452 
L 228.35809 -79.80345 
L 234.582504 -83.867179 
L 249.022526 -80.669242 
L 255.401501 -80.431134 
L 268.730401 -85.470669 
L 279.638797 -81.896523 
L 291.271577 -82.619864 
L 306.029405 -83.919948 
L 319.991831 -83.663505 
L 332.653294 -79.429314 
L 349.500857 -85.109437 
L 365.086022 -80.569982 
L 382.41192 -82.995792 
L 386.808631 -82.995792 
L 386.808631 -82.995792 
L 368.632643 -80.569982 
L 353.40712 -85.109437 
L 335.778596 -79.429314 
L 324.271549 -83.663505 
L 309.311802 -83.919948 
L 294.780203 -82.619864 
L 285.049304 -81.896523 
L 276.536227 -85.470669 
L 264.728416 -80.431134 
L 251.771305 -80.669242 
L 238.574901 -83.867179 
L 230.430354 -79.80345 
L 219.668067 -84.012452 
L 208.052873 -83.36967 
L 198.324751 -84.788417 
L 189.219488 -83.879146 
L 182.089776 -87.056682 
L 180.580687 -83.04193 
L 173.765837 -80.136518 
L 172.021125 -80.908163 
L 166.694905 -87.667727 
L 168.4806 -86.478656 
L 169.279329 -88.544883 
L 167.153835 -96.974554 
L 163.24196 -108.17275 
L 160.47451 -141.390805 
L 163.65938 -159.748637 
L 158.372862 -190.743703 
L 134.323754 -239.672633 
z
" id="mcabff2f7d4" style="stroke:#bcbd22;stroke-opacity:0.3;"/>
    </defs>
    <g clip-path="url(#p2afde569fc)">
     <use style="fill:#bcbd22;fill-opacity:0.3;stroke:#bcbd22;stroke-opacity:0.3;" x="0" xlink:href="#mcabff2f7d4" y="345.6"/>
    </g>
   </g>
   <g id="PolyCollection_10">
    <defs>
     <path d="M 201.081409 -170.574972 
L 195.768851 -170.574972 
L 194.465451 -152.170811 
L 196.036362 -143.465755 
L 198.073577 -137.515048 
L 197.202944 -129.195482 
L 204.571822 -121.015993 
L 196.682495 -113.776186 
L 201.044431 -106.602073 
L 205.441886 -99.563707 
L 209.212072 -92.905701 
L 215.63146 -86.913895 
L 227.217619 -81.80953 
L 234.756637 -77.123422 
L 245.759347 -72.990266 
L 253.282912 -69.366697 
L 267.71437 -66.290237 
L 286.193463 -64.040164 
L 298.193586 -62.390493 
L 315.800421 -61.423658 
L 330.721049 -60.895697 
L 350.311542 -60.625326 
L 372.541813 -60.517389 
L 388.045998 -60.453639 
L 388.865277 -60.453639 
L 388.865277 -60.453639 
L 375.101777 -60.517389 
L 355.710208 -60.625326 
L 333.308755 -60.895697 
L 317.822104 -61.423658 
L 304.286513 -62.390493 
L 290.382306 -64.040164 
L 276.512724 -66.290237 
L 265.196367 -69.366697 
L 256.263188 -72.990266 
L 243.183818 -77.123422 
L 230.557991 -81.80953 
L 219.570144 -86.913895 
L 221.136782 -92.905701 
L 209.599891 -99.563707 
L 211.078771 -106.602073 
L 206.903173 -113.776186 
L 209.841088 -121.015993 
L 200.802758 -129.195482 
L 206.33246 -137.515048 
L 210.301795 -143.465755 
L 205.768145 -152.170811 
L 201.081409 -170.574972 
z
" id="m2d54a4f57a" style="stroke:#17becf;stroke-opacity:0.3;"/>
    </defs>
    <g clip-path="url(#p2afde569fc)">
     <use style="fill:#17becf;fill-opacity:0.3;stroke:#17becf;stroke-opacity:0.3;" x="0" xlink:href="#m2d54a4f57a" y="345.6"/>
    </g>
   </g>
   <g id="PolyCollection_11">
    <defs>
     <path d="M 226.965043 -170.574972 
L 223.48566 -170.574972 
L 225.556519 -152.170811 
L 225.429895 -141.514939 
L 226.335539 -133.541623 
L 227.003773 -121.545177 
L 227.027067 -109.118041 
L 228.065321 -97.994098 
L 230.008259 -87.679106 
L 225.163455 -78.918235 
L 225.777279 -71.259418 
L 232.264764 -65.361308 
L 239.365934 -62.106185 
L 249.49657 -60.858703 
L 260.171595 -60.522761 
L 271.514671 -60.408334 
L 285.796857 -60.390328 
L 297.749469 -60.38638 
L 312.672225 -60.385225 
L 325.985241 -60.385128 
L 342.919925 -60.385099 
L 360.972575 -60.385092 
L 375.912099 -60.385091 
L 392.585219 -60.385091 
L 392.951784 -60.385091 
L 392.951784 -60.385091 
L 377.386922 -60.385091 
L 361.955034 -60.385092 
L 346.523285 -60.385099 
L 328.765848 -60.385128 
L 314.328686 -60.385225 
L 301.055343 -60.38638 
L 287.072218 -60.390328 
L 274.218431 -60.408334 
L 265.603598 -60.522761 
L 252.892145 -60.858703 
L 240.383359 -62.106185 
L 233.557928 -65.361308 
L 227.728994 -71.259418 
L 234.984782 -78.918235 
L 232.143626 -87.679106 
L 231.14399 -97.994098 
L 229.183202 -109.118041 
L 227.70507 -121.545177 
L 227.856227 -133.541623 
L 227.954252 -141.514939 
L 225.850422 -152.170811 
L 226.965043 -170.574972 
z
" id="md6af6b3025" style="stroke:#1f77b4;stroke-opacity:0.3;"/>
    </defs>
    <g clip-path="url(#p2afde569fc)">
     <use style="fill:#1f77b4;fill-opacity:0.3;stroke:#1f77b4;stroke-opacity:0.3;" x="0" xlink:href="#md6af6b3025" y="345.6"/>
    </g>
   </g>
   <g id="PolyCollection_12">
    <defs>
     <path d="M 241.40821 -170.574972 
L 236.098648 -170.574972 
L 248.012122 -152.170811 
L 253.435907 -143.465755 
L 260.208971 -137.515048 
L 273.12657 -129.195482 
L 285.02002 -121.015993 
L 292.570879 -113.776186 
L 309.963085 -106.602073 
L 323.195956 -99.563707 
L 338.527283 -92.905701 
L 354.690451 -86.913895 
L 371.450992 -81.80953 
L 387.88076 -77.123422 
L 390.407323 -77.123422 
L 390.407323 -77.123422 
L 374.647003 -81.80953 
L 356.507677 -86.913895 
L 340.596024 -92.905701 
L 327.109991 -99.563707 
L 310.737766 -106.602073 
L 294.485607 -113.776186 
L 292.573121 -121.015993 
L 276.398778 -129.195482 
L 264.284325 -137.515048 
L 259.121525 -143.465755 
L 262.750338 -152.170811 
L 241.40821 -170.574972 
z
" id="m3cbf24fbc7" style="stroke:#ff7f0e;stroke-opacity:0.3;"/>
    </defs>
    <g clip-path="url(#p2afde569fc)">
     <use style="fill:#ff7f0e;fill-opacity:0.3;stroke:#ff7f0e;stroke-opacity:0.3;" x="0" xlink:href="#m3cbf24fbc7" y="345.6"/>
    </g>
   </g>
   <g id="PolyCollection_13">
    <defs>
     <path d="M 150.902198 -200.991269 
L 137.29679 -200.991269 
L 138.836599 -147.315109 
L 139.430307 -121.380612 
L 147.521759 -105.515643 
L 149.525723 -86.928722 
L 157.949404 -74.801691 
L 164.129487 -66.840962 
L 171.680035 -63.109911 
L 183.883679 -61.282012 
L 196.213141 -60.52265 
L 210.706388 -60.409289 
L 225.138076 -60.386414 
L 238.498713 -60.385201 
L 254.637903 -60.3851 
L 266.507798 -60.385092 
L 281.952292 -60.385091 
L 295.366269 -60.385091 
L 311.558793 -60.385091 
L 324.70042 -60.385091 
L 337.755438 -60.385091 
L 354.13032 -60.385091 
L 367.89412 -60.385091 
L 386.159684 -60.385091 
L 387.025932 -60.385091 
L 387.025932 -60.385091 
L 371.229483 -60.385091 
L 355.640515 -60.385091 
L 347.553605 -60.385091 
L 331.913299 -60.385091 
L 328.900804 -60.385091 
L 301.543763 -60.385091 
L 286.157154 -60.385091 
L 268.298464 -60.385092 
L 256.769721 -60.3851 
L 241.229728 -60.385201 
L 228.094558 -60.386414 
L 213.250252 -60.409289 
L 199.377161 -60.52265 
L 189.521357 -61.282012 
L 179.31827 -63.109911 
L 169.37347 -66.840962 
L 162.014921 -74.801691 
L 159.5448 -86.928722 
L 166.323593 -105.515643 
L 154.37983 -121.380612 
L 153.252377 -147.315109 
L 150.902198 -200.991269 
z
" id="m23471fc8e5" style="stroke:#2ca02c;stroke-opacity:0.3;"/>
    </defs>
    <g clip-path="url(#p2afde569fc)">
     <use style="fill:#2ca02c;fill-opacity:0.3;stroke:#2ca02c;stroke-opacity:0.3;" x="0" xlink:href="#m23471fc8e5" y="345.6"/>
    </g>
   </g>
   <g id="PolyCollection_14">
    <defs>
     <path d="M 395.861158 -200.991269 
L 391.112269 -200.991269 
L 408.004292 -147.315109 
L 432.827125 -147.315109 
L 432.827125 -147.315109 
L 395.861158 -200.991269 
z
" id="mfe58b9a004" style="stroke:#d62728;stroke-opacity:0.3;"/>
    </defs>
    <g clip-path="url(#p2afde569fc)">
     <use style="fill:#d62728;fill-opacity:0.3;stroke:#d62728;stroke-opacity:0.3;" x="0" xlink:href="#mfe58b9a004" y="345.6"/>
    </g>
   </g>
   <g id="matplotlib.axis_1">
    <g id="xtick_1">
     <g id="line2d_1">
      <defs>
       <path d="M 0 0 
L 0 3.5 
" id="m643bc4b47e" style="stroke:#000000;stroke-width:0.8;"/>
      </defs>
      <g>
       <use style="stroke:#000000;stroke-width:0.8;" x="124.330559" xlink:href="#m643bc4b47e" y="296.728"/>
      </g>
     </g>
     <g id="text_1">
      <!-- $\mathdefault{10^{-2}}$ -->
      <g transform="translate(112.580559 311.326437)scale(0.1 -0.1)">
       <defs>
        <path d="M 12.40625 8.296875 
L 28.515625 8.296875 
L 28.515625 63.921875 
L 10.984375 60.40625 
L 10.984375 69.390625 
L 28.421875 72.90625 
L 38.28125 72.90625 
L 38.28125 8.296875 
L 54.390625 8.296875 
L 54.390625 0 
L 12.40625 0 
z
" id="DejaVuSans-49"/>
        <path d="M 31.78125 66.40625 
Q 24.171875 66.40625 20.328125 58.90625 
Q 16.5 51.421875 16.5 36.375 
Q 16.5 21.390625 20.328125 13.890625 
Q 24.171875 6.390625 31.78125 6.390625 
Q 39.453125 6.390625 43.28125 13.890625 
Q 47.125 21.390625 47.125 36.375 
Q 47.125 51.421875 43.28125 58.90625 
Q 39.453125 66.40625 31.78125 66.40625 
z
M 31.78125 74.21875 
Q 44.046875 74.21875 50.515625 64.515625 
Q 56.984375 54.828125 56.984375 36.375 
Q 56.984375 17.96875 50.515625 8.265625 
Q 44.046875 -1.421875 31.78125 -1.421875 
Q 19.53125 -1.421875 13.0625 8.265625 
Q 6.59375 17.96875 6.59375 36.375 
Q 6.59375 54.828125 13.0625 64.515625 
Q 19.53125 74.21875 31.78125 74.21875 
z
" id="DejaVuSans-48"/>
        <path d="M 10.59375 35.5 
L 73.1875 35.5 
L 73.1875 27.203125 
L 10.59375 27.203125 
z
" id="DejaVuSans-8722"/>
        <path d="M 19.1875 8.296875 
L 53.609375 8.296875 
L 53.609375 0 
L 7.328125 0 
L 7.328125 8.296875 
Q 12.9375 14.109375 22.625 23.890625 
Q 32.328125 33.6875 34.8125 36.53125 
Q 39.546875 41.84375 41.421875 45.53125 
Q 43.3125 49.21875 43.3125 52.78125 
Q 43.3125 58.59375 39.234375 62.25 
Q 35.15625 65.921875 28.609375 65.921875 
Q 23.96875 65.921875 18.8125 64.3125 
Q 13.671875 62.703125 7.8125 59.421875 
L 7.8125 69.390625 
Q 13.765625 71.78125 18.9375 73 
Q 24.125 74.21875 28.421875 74.21875 
Q 39.75 74.21875 46.484375 68.546875 
Q 53.21875 62.890625 53.21875 53.421875 
Q 53.21875 48.921875 51.53125 44.890625 
Q 49.859375 40.875 45.40625 35.40625 
Q 44.1875 33.984375 37.640625 27.21875 
Q 31.109375 20.453125 19.1875 8.296875 
z
" id="DejaVuSans-50"/>
       </defs>
       <use transform="translate(0 0.765625)" xlink:href="#DejaVuSans-49"/>
       <use transform="translate(63.623047 0.765625)" xlink:href="#DejaVuSans-48"/>
       <use transform="translate(128.203125 39.046875)scale(0.7)" xlink:href="#DejaVuSans-8722"/>
       <use transform="translate(186.855469 39.046875)scale(0.7)" xlink:href="#DejaVuSans-50"/>
      </g>
     </g>
    </g>
    <g id="xtick_2">
     <g id="line2d_2">
      <g>
       <use style="stroke:#000000;stroke-width:0.8;" x="216.952356" xlink:href="#m643bc4b47e" y="296.728"/>
      </g>
     </g>
     <g id="text_2">
      <!-- $\mathdefault{10^{-1}}$ -->
      <g transform="translate(205.202356 311.326437)scale(0.1 -0.1)">
       <use transform="translate(0 0.684375)" xlink:href="#DejaVuSans-49"/>
       <use transform="translate(63.623047 0.684375)" xlink:href="#DejaVuSans-48"/>
       <use transform="translate(128.203125 38.965625)scale(0.7)" xlink:href="#DejaVuSans-8722"/>
       <use transform="translate(186.855469 38.965625)scale(0.7)" xlink:href="#DejaVuSans-49"/>
      </g>
     </g>
    </g>
    <g id="xtick_3">
     <g id="line2d_3">
      <g>
       <use style="stroke:#000000;stroke-width:0.8;" x="309.574154" xlink:href="#m643bc4b47e" y="296.728"/>
      </g>
     </g>
     <g id="text_3">
      <!-- $\mathdefault{10^{0}}$ -->
      <g transform="translate(300.774154 311.326437)scale(0.1 -0.1)">
       <use transform="translate(0 0.765625)" xlink:href="#DejaVuSans-49"/>
       <use transform="translate(63.623047 0.765625)" xlink:href="#DejaVuSans-48"/>
       <use transform="translate(128.203125 39.046875)scale(0.7)" xlink:href="#DejaVuSans-48"/>
      </g>
     </g>
    </g>
    <g id="xtick_4">
     <g id="line2d_4">
      <g>
       <use style="stroke:#000000;stroke-width:0.8;" x="402.195952" xlink:href="#m643bc4b47e" y="296.728"/>
      </g>
     </g>
     <g id="text_4">
      <!-- $\mathdefault{10^{1}}$ -->
      <g transform="translate(393.395952 311.326437)scale(0.1 -0.1)">
       <use transform="translate(0 0.684375)" xlink:href="#DejaVuSans-49"/>
       <use transform="translate(63.623047 0.684375)" xlink:href="#DejaVuSans-48"/>
       <use transform="translate(128.203125 38.965625)scale(0.7)" xlink:href="#DejaVuSans-49"/>
      </g>
     </g>
    </g>
    <g id="xtick_5">
     <g id="line2d_5">
      <defs>
       <path d="M 0 0 
L 0 2 
" id="md44f407450" style="stroke:#000000;stroke-width:0.6;"/>
      </defs>
      <g>
       <use style="stroke:#000000;stroke-width:0.6;" x="75.900589" xlink:href="#md44f407450" y="296.728"/>
      </g>
     </g>
    </g>
    <g id="xtick_6">
     <g id="line2d_6">
      <g>
       <use style="stroke:#000000;stroke-width:0.6;" x="87.47264" xlink:href="#md44f407450" y="296.728"/>
      </g>
     </g>
    </g>
    <g id="xtick_7">
     <g id="line2d_7">
      <g>
       <use style="stroke:#000000;stroke-width:0.6;" x="96.448619" xlink:href="#md44f407450" y="296.728"/>
      </g>
     </g>
    </g>
    <g id="xtick_8">
     <g id="line2d_8">
      <g>
       <use style="stroke:#000000;stroke-width:0.6;" x="103.782529" xlink:href="#md44f407450" y="296.728"/>
      </g>
     </g>
    </g>
    <g id="xtick_9">
     <g id="line2d_9">
      <g>
       <use style="stroke:#000000;stroke-width:0.6;" x="109.983261" xlink:href="#md44f407450" y="296.728"/>
      </g>
     </g>
    </g>
    <g id="xtick_10">
     <g id="line2d_10">
      <g>
       <use style="stroke:#000000;stroke-width:0.6;" x="115.354579" xlink:href="#md44f407450" y="296.728"/>
      </g>
     </g>
    </g>
    <g id="xtick_11">
     <g id="line2d_11">
      <g>
       <use style="stroke:#000000;stroke-width:0.6;" x="120.092418" xlink:href="#md44f407450" y="296.728"/>
      </g>
     </g>
    </g>
    <g id="xtick_12">
     <g id="line2d_12">
      <g>
       <use style="stroke:#000000;stroke-width:0.6;" x="152.212498" xlink:href="#md44f407450" y="296.728"/>
      </g>
     </g>
    </g>
    <g id="xtick_13">
     <g id="line2d_13">
      <g>
       <use style="stroke:#000000;stroke-width:0.6;" x="168.522387" xlink:href="#md44f407450" y="296.728"/>
      </g>
     </g>
    </g>
    <g id="xtick_14">
     <g id="line2d_14">
      <g>
       <use style="stroke:#000000;stroke-width:0.6;" x="180.094437" xlink:href="#md44f407450" y="296.728"/>
      </g>
     </g>
    </g>
    <g id="xtick_15">
     <g id="line2d_15">
      <g>
       <use style="stroke:#000000;stroke-width:0.6;" x="189.070417" xlink:href="#md44f407450" y="296.728"/>
      </g>
     </g>
    </g>
    <g id="xtick_16">
     <g id="line2d_16">
      <g>
       <use style="stroke:#000000;stroke-width:0.6;" x="196.404326" xlink:href="#md44f407450" y="296.728"/>
      </g>
     </g>
    </g>
    <g id="xtick_17">
     <g id="line2d_17">
      <g>
       <use style="stroke:#000000;stroke-width:0.6;" x="202.605058" xlink:href="#md44f407450" y="296.728"/>
      </g>
     </g>
    </g>
    <g id="xtick_18">
     <g id="line2d_18">
      <g>
       <use style="stroke:#000000;stroke-width:0.6;" x="207.976377" xlink:href="#md44f407450" y="296.728"/>
      </g>
     </g>
    </g>
    <g id="xtick_19">
     <g id="line2d_19">
      <g>
       <use style="stroke:#000000;stroke-width:0.6;" x="212.714215" xlink:href="#md44f407450" y="296.728"/>
      </g>
     </g>
    </g>
    <g id="xtick_20">
     <g id="line2d_20">
      <g>
       <use style="stroke:#000000;stroke-width:0.6;" x="244.834296" xlink:href="#md44f407450" y="296.728"/>
      </g>
     </g>
    </g>
    <g id="xtick_21">
     <g id="line2d_21">
      <g>
       <use style="stroke:#000000;stroke-width:0.6;" x="261.144185" xlink:href="#md44f407450" y="296.728"/>
      </g>
     </g>
    </g>
    <g id="xtick_22">
     <g id="line2d_22">
      <g>
       <use style="stroke:#000000;stroke-width:0.6;" x="272.716235" xlink:href="#md44f407450" y="296.728"/>
      </g>
     </g>
    </g>
    <g id="xtick_23">
     <g id="line2d_23">
      <g>
       <use style="stroke:#000000;stroke-width:0.6;" x="281.692215" xlink:href="#md44f407450" y="296.728"/>
      </g>
     </g>
    </g>
    <g id="xtick_24">
     <g id="line2d_24">
      <g>
       <use style="stroke:#000000;stroke-width:0.6;" x="289.026124" xlink:href="#md44f407450" y="296.728"/>
      </g>
     </g>
    </g>
    <g id="xtick_25">
     <g id="line2d_25">
      <g>
       <use style="stroke:#000000;stroke-width:0.6;" x="295.226856" xlink:href="#md44f407450" y="296.728"/>
      </g>
     </g>
    </g>
    <g id="xtick_26">
     <g id="line2d_26">
      <g>
       <use style="stroke:#000000;stroke-width:0.6;" x="300.598175" xlink:href="#md44f407450" y="296.728"/>
      </g>
     </g>
    </g>
    <g id="xtick_27">
     <g id="line2d_27">
      <g>
       <use style="stroke:#000000;stroke-width:0.6;" x="305.336013" xlink:href="#md44f407450" y="296.728"/>
      </g>
     </g>
    </g>
    <g id="xtick_28">
     <g id="line2d_28">
      <g>
       <use style="stroke:#000000;stroke-width:0.6;" x="337.456094" xlink:href="#md44f407450" y="296.728"/>
      </g>
     </g>
    </g>
    <g id="xtick_29">
     <g id="line2d_29">
      <g>
       <use style="stroke:#000000;stroke-width:0.6;" x="353.765983" xlink:href="#md44f407450" y="296.728"/>
      </g>
     </g>
    </g>
    <g id="xtick_30">
     <g id="line2d_30">
      <g>
       <use style="stroke:#000000;stroke-width:0.6;" x="365.338033" xlink:href="#md44f407450" y="296.728"/>
      </g>
     </g>
    </g>
    <g id="xtick_31">
     <g id="line2d_31">
      <g>
       <use style="stroke:#000000;stroke-width:0.6;" x="374.314013" xlink:href="#md44f407450" y="296.728"/>
      </g>
     </g>
    </g>
    <g id="xtick_32">
     <g id="line2d_32">
      <g>
       <use style="stroke:#000000;stroke-width:0.6;" x="381.647922" xlink:href="#md44f407450" y="296.728"/>
      </g>
     </g>
    </g>
    <g id="xtick_33">
     <g id="line2d_33">
      <g>
       <use style="stroke:#000000;stroke-width:0.6;" x="387.848654" xlink:href="#md44f407450" y="296.728"/>
      </g>
     </g>
    </g>
    <g id="xtick_34">
     <g id="line2d_34">
      <g>
       <use style="stroke:#000000;stroke-width:0.6;" x="393.219973" xlink:href="#md44f407450" y="296.728"/>
      </g>
     </g>
    </g>
    <g id="xtick_35">
     <g id="line2d_35">
      <g>
       <use style="stroke:#000000;stroke-width:0.6;" x="397.957811" xlink:href="#md44f407450" y="296.728"/>
      </g>
     </g>
    </g>
    <g id="xtick_36">
     <g id="line2d_36">
      <g>
       <use style="stroke:#000000;stroke-width:0.6;" x="430.077892" xlink:href="#md44f407450" y="296.728"/>
      </g>
     </g>
    </g>
    <g id="xtick_37">
     <g id="line2d_37">
      <g>
       <use style="stroke:#000000;stroke-width:0.6;" x="446.387781" xlink:href="#md44f407450" y="296.728"/>
      </g>
     </g>
    </g>
    <g id="text_5">
     <!-- Time [sec] -->
     <g transform="translate(224.481809 328.043937)scale(0.14 -0.14)">
      <defs>
       <path d="M -0.296875 72.90625 
L 61.375 72.90625 
L 61.375 64.59375 
L 35.5 64.59375 
L 35.5 0 
L 25.59375 0 
L 25.59375 64.59375 
L -0.296875 64.59375 
z
" id="DejaVuSans-84"/>
       <path d="M 9.421875 54.6875 
L 18.40625 54.6875 
L 18.40625 0 
L 9.421875 0 
z
M 9.421875 75.984375 
L 18.40625 75.984375 
L 18.40625 64.59375 
L 9.421875 64.59375 
z
" id="DejaVuSans-105"/>
       <path d="M 52 44.1875 
Q 55.375 50.25 60.0625 53.125 
Q 64.75 56 71.09375 56 
Q 79.640625 56 84.28125 50.015625 
Q 88.921875 44.046875 88.921875 33.015625 
L 88.921875 0 
L 79.890625 0 
L 79.890625 32.71875 
Q 79.890625 40.578125 77.09375 44.375 
Q 74.3125 48.1875 68.609375 48.1875 
Q 61.625 48.1875 57.5625 43.546875 
Q 53.515625 38.921875 53.515625 30.90625 
L 53.515625 0 
L 44.484375 0 
L 44.484375 32.71875 
Q 44.484375 40.625 41.703125 44.40625 
Q 38.921875 48.1875 33.109375 48.1875 
Q 26.21875 48.1875 22.15625 43.53125 
Q 18.109375 38.875 18.109375 30.90625 
L 18.109375 0 
L 9.078125 0 
L 9.078125 54.6875 
L 18.109375 54.6875 
L 18.109375 46.1875 
Q 21.1875 51.21875 25.484375 53.609375 
Q 29.78125 56 35.6875 56 
Q 41.65625 56 45.828125 52.96875 
Q 50 49.953125 52 44.1875 
z
" id="DejaVuSans-109"/>
       <path d="M 56.203125 29.59375 
L 56.203125 25.203125 
L 14.890625 25.203125 
Q 15.484375 15.921875 20.484375 11.0625 
Q 25.484375 6.203125 34.421875 6.203125 
Q 39.59375 6.203125 44.453125 7.46875 
Q 49.3125 8.734375 54.109375 11.28125 
L 54.109375 2.78125 
Q 49.265625 0.734375 44.1875 -0.34375 
Q 39.109375 -1.421875 33.890625 -1.421875 
Q 20.796875 -1.421875 13.15625 6.1875 
Q 5.515625 13.8125 5.515625 26.8125 
Q 5.515625 40.234375 12.765625 48.109375 
Q 20.015625 56 32.328125 56 
Q 43.359375 56 49.78125 48.890625 
Q 56.203125 41.796875 56.203125 29.59375 
z
M 47.21875 32.234375 
Q 47.125 39.59375 43.09375 43.984375 
Q 39.0625 48.390625 32.421875 48.390625 
Q 24.90625 48.390625 20.390625 44.140625 
Q 15.875 39.890625 15.1875 32.171875 
z
" id="DejaVuSans-101"/>
       <path id="DejaVuSans-32"/>
       <path d="M 8.59375 75.984375 
L 29.296875 75.984375 
L 29.296875 69 
L 17.578125 69 
L 17.578125 -6.203125 
L 29.296875 -6.203125 
L 29.296875 -13.1875 
L 8.59375 -13.1875 
z
" id="DejaVuSans-91"/>
       <path d="M 44.28125 53.078125 
L 44.28125 44.578125 
Q 40.484375 46.53125 36.375 47.5 
Q 32.28125 48.484375 27.875 48.484375 
Q 21.1875 48.484375 17.84375 46.4375 
Q 14.5 44.390625 14.5 40.28125 
Q 14.5 37.15625 16.890625 35.375 
Q 19.28125 33.59375 26.515625 31.984375 
L 29.59375 31.296875 
Q 39.15625 29.25 43.1875 25.515625 
Q 47.21875 21.78125 47.21875 15.09375 
Q 47.21875 7.46875 41.1875 3.015625 
Q 35.15625 -1.421875 24.609375 -1.421875 
Q 20.21875 -1.421875 15.453125 -0.5625 
Q 10.6875 0.296875 5.421875 2 
L 5.421875 11.28125 
Q 10.40625 8.6875 15.234375 7.390625 
Q 20.0625 6.109375 24.8125 6.109375 
Q 31.15625 6.109375 34.5625 8.28125 
Q 37.984375 10.453125 37.984375 14.40625 
Q 37.984375 18.0625 35.515625 20.015625 
Q 33.0625 21.96875 24.703125 23.78125 
L 21.578125 24.515625 
Q 13.234375 26.265625 9.515625 29.90625 
Q 5.8125 33.546875 5.8125 39.890625 
Q 5.8125 47.609375 11.28125 51.796875 
Q 16.75 56 26.8125 56 
Q 31.78125 56 36.171875 55.265625 
Q 40.578125 54.546875 44.28125 53.078125 
z
" id="DejaVuSans-115"/>
       <path d="M 48.78125 52.59375 
L 48.78125 44.1875 
Q 44.96875 46.296875 41.140625 47.34375 
Q 37.3125 48.390625 33.40625 48.390625 
Q 24.65625 48.390625 19.8125 42.84375 
Q 14.984375 37.3125 14.984375 27.296875 
Q 14.984375 17.28125 19.8125 11.734375 
Q 24.65625 6.203125 33.40625 6.203125 
Q 37.3125 6.203125 41.140625 7.25 
Q 44.96875 8.296875 48.78125 10.40625 
L 48.78125 2.09375 
Q 45.015625 0.34375 40.984375 -0.53125 
Q 36.96875 -1.421875 32.421875 -1.421875 
Q 20.0625 -1.421875 12.78125 6.34375 
Q 5.515625 14.109375 5.515625 27.296875 
Q 5.515625 40.671875 12.859375 48.328125 
Q 20.21875 56 33.015625 56 
Q 37.15625 56 41.109375 55.140625 
Q 45.0625 54.296875 48.78125 52.59375 
z
" id="DejaVuSans-99"/>
       <path d="M 30.421875 75.984375 
L 30.421875 -13.1875 
L 9.71875 -13.1875 
L 9.71875 -6.203125 
L 21.390625 -6.203125 
L 21.390625 69 
L 9.71875 69 
L 9.71875 75.984375 
z
" id="DejaVuSans-93"/>
      </defs>
      <use xlink:href="#DejaVuSans-84"/>
      <use x="57.958984" xlink:href="#DejaVuSans-105"/>
      <use x="85.742188" xlink:href="#DejaVuSans-109"/>
      <use x="183.154297" xlink:href="#DejaVuSans-101"/>
      <use x="244.677734" xlink:href="#DejaVuSans-32"/>
      <use x="276.464844" xlink:href="#DejaVuSans-91"/>
      <use x="315.478516" xlink:href="#DejaVuSans-115"/>
      <use x="367.578125" xlink:href="#DejaVuSans-101"/>
      <use x="429.101562" xlink:href="#DejaVuSans-99"/>
      <use x="484.082031" xlink:href="#DejaVuSans-93"/>
     </g>
    </g>
   </g>
   <g id="matplotlib.axis_2">
    <g id="ytick_1">
     <g id="line2d_38">
      <defs>
       <path d="M 0 0 
L -3.5 0 
" id="m0ce78cd57a" style="stroke:#000000;stroke-width:0.8;"/>
      </defs>
      <g>
       <use style="stroke:#000000;stroke-width:0.8;" x="72.196742" xlink:href="#m0ce78cd57a" y="94.419536"/>
      </g>
     </g>
     <g id="text_6">
      <!-- $\mathdefault{10^{5}}$ -->
      <g transform="translate(47.596742 98.218755)scale(0.1 -0.1)">
       <defs>
        <path d="M 10.796875 72.90625 
L 49.515625 72.90625 
L 49.515625 64.59375 
L 19.828125 64.59375 
L 19.828125 46.734375 
Q 21.96875 47.46875 24.109375 47.828125 
Q 26.265625 48.1875 28.421875 48.1875 
Q 40.625 48.1875 47.75 41.5 
Q 54.890625 34.8125 54.890625 23.390625 
Q 54.890625 11.625 47.5625 5.09375 
Q 40.234375 -1.421875 26.90625 -1.421875 
Q 22.3125 -1.421875 17.546875 -0.640625 
Q 12.796875 0.140625 7.71875 1.703125 
L 7.71875 11.625 
Q 12.109375 9.234375 16.796875 8.0625 
Q 21.484375 6.890625 26.703125 6.890625 
Q 35.15625 6.890625 40.078125 11.328125 
Q 45.015625 15.765625 45.015625 23.390625 
Q 45.015625 31 40.078125 35.4375 
Q 35.15625 39.890625 26.703125 39.890625 
Q 22.75 39.890625 18.8125 39.015625 
Q 14.890625 38.140625 10.796875 36.28125 
z
" id="DejaVuSans-53"/>
       </defs>
       <use transform="translate(0 0.684375)" xlink:href="#DejaVuSans-49"/>
       <use transform="translate(63.623047 0.684375)" xlink:href="#DejaVuSans-48"/>
       <use transform="translate(128.203125 38.965625)scale(0.7)" xlink:href="#DejaVuSans-53"/>
      </g>
     </g>
    </g>
    <g id="ytick_2">
     <g id="line2d_39">
      <defs>
       <path d="M 0 0 
L -2 0 
" id="mb673ad0470" style="stroke:#000000;stroke-width:0.6;"/>
      </defs>
      <g>
       <use style="stroke:#000000;stroke-width:0.6;" x="72.196742" xlink:href="#mb673ad0470" y="296.389436"/>
      </g>
     </g>
     <g id="text_7">
      <!-- $\mathdefault{3\times10^{4}}$ -->
      <g transform="translate(30.596742 300.188655)scale(0.1 -0.1)">
       <defs>
        <path d="M 40.578125 39.3125 
Q 47.65625 37.796875 51.625 33 
Q 55.609375 28.21875 55.609375 21.1875 
Q 55.609375 10.40625 48.1875 4.484375 
Q 40.765625 -1.421875 27.09375 -1.421875 
Q 22.515625 -1.421875 17.65625 -0.515625 
Q 12.796875 0.390625 7.625 2.203125 
L 7.625 11.71875 
Q 11.71875 9.328125 16.59375 8.109375 
Q 21.484375 6.890625 26.8125 6.890625 
Q 36.078125 6.890625 40.9375 10.546875 
Q 45.796875 14.203125 45.796875 21.1875 
Q 45.796875 27.640625 41.28125 31.265625 
Q 36.765625 34.90625 28.71875 34.90625 
L 20.21875 34.90625 
L 20.21875 43.015625 
L 29.109375 43.015625 
Q 36.375 43.015625 40.234375 45.921875 
Q 44.09375 48.828125 44.09375 54.296875 
Q 44.09375 59.90625 40.109375 62.90625 
Q 36.140625 65.921875 28.71875 65.921875 
Q 24.65625 65.921875 20.015625 65.03125 
Q 15.375 64.15625 9.8125 62.3125 
L 9.8125 71.09375 
Q 15.4375 72.65625 20.34375 73.4375 
Q 25.25 74.21875 29.59375 74.21875 
Q 40.828125 74.21875 47.359375 69.109375 
Q 53.90625 64.015625 53.90625 55.328125 
Q 53.90625 49.265625 50.4375 45.09375 
Q 46.96875 40.921875 40.578125 39.3125 
z
" id="DejaVuSans-51"/>
        <path d="M 70.125 53.71875 
L 47.796875 31.296875 
L 70.125 8.984375 
L 64.3125 3.078125 
L 41.890625 25.484375 
L 19.484375 3.078125 
L 13.71875 8.984375 
L 35.984375 31.296875 
L 13.71875 53.71875 
L 19.484375 59.625 
L 41.890625 37.203125 
L 64.3125 59.625 
z
" id="DejaVuSans-215"/>
        <path d="M 37.796875 64.3125 
L 12.890625 25.390625 
L 37.796875 25.390625 
z
M 35.203125 72.90625 
L 47.609375 72.90625 
L 47.609375 25.390625 
L 58.015625 25.390625 
L 58.015625 17.1875 
L 47.609375 17.1875 
L 47.609375 0 
L 37.796875 0 
L 37.796875 17.1875 
L 4.890625 17.1875 
L 4.890625 26.703125 
z
" id="DejaVuSans-52"/>
       </defs>
       <use transform="translate(0 0.684375)" xlink:href="#DejaVuSans-51"/>
       <use transform="translate(83.105469 0.684375)" xlink:href="#DejaVuSans-215"/>
       <use transform="translate(186.376953 0.684375)" xlink:href="#DejaVuSans-49"/>
       <use transform="translate(250 0.684375)" xlink:href="#DejaVuSans-48"/>
       <use transform="translate(314.580078 38.965625)scale(0.7)" xlink:href="#DejaVuSans-52"/>
      </g>
     </g>
    </g>
    <g id="ytick_3">
     <g id="line2d_40">
      <g>
       <use style="stroke:#000000;stroke-width:0.6;" x="72.196742" xlink:href="#mb673ad0470" y="248.129941"/>
      </g>
     </g>
     <g id="text_8">
      <!-- $\mathdefault{4\times10^{4}}$ -->
      <g transform="translate(30.596742 251.92916)scale(0.1 -0.1)">
       <use transform="translate(0 0.684375)" xlink:href="#DejaVuSans-52"/>
       <use transform="translate(83.105469 0.684375)" xlink:href="#DejaVuSans-215"/>
       <use transform="translate(186.376953 0.684375)" xlink:href="#DejaVuSans-49"/>
       <use transform="translate(250 0.684375)" xlink:href="#DejaVuSans-48"/>
       <use transform="translate(314.580078 38.965625)scale(0.7)" xlink:href="#DejaVuSans-52"/>
      </g>
     </g>
    </g>
    <g id="ytick_4">
     <g id="line2d_41">
      <g>
       <use style="stroke:#000000;stroke-width:0.6;" x="72.196742" xlink:href="#mb673ad0470" y="210.696969"/>
      </g>
     </g>
    </g>
    <g id="ytick_5">
     <g id="line2d_42">
      <g>
       <use style="stroke:#000000;stroke-width:0.6;" x="72.196742" xlink:href="#mb673ad0470" y="180.112003"/>
      </g>
     </g>
     <g id="text_9">
      <!-- $\mathdefault{6\times10^{4}}$ -->
      <g transform="translate(30.596742 183.911222)scale(0.1 -0.1)">
       <defs>
        <path d="M 33.015625 40.375 
Q 26.375 40.375 22.484375 35.828125 
Q 18.609375 31.296875 18.609375 23.390625 
Q 18.609375 15.53125 22.484375 10.953125 
Q 26.375 6.390625 33.015625 6.390625 
Q 39.65625 6.390625 43.53125 10.953125 
Q 47.40625 15.53125 47.40625 23.390625 
Q 47.40625 31.296875 43.53125 35.828125 
Q 39.65625 40.375 33.015625 40.375 
z
M 52.59375 71.296875 
L 52.59375 62.3125 
Q 48.875 64.0625 45.09375 64.984375 
Q 41.3125 65.921875 37.59375 65.921875 
Q 27.828125 65.921875 22.671875 59.328125 
Q 17.53125 52.734375 16.796875 39.40625 
Q 19.671875 43.65625 24.015625 45.921875 
Q 28.375 48.1875 33.59375 48.1875 
Q 44.578125 48.1875 50.953125 41.515625 
Q 57.328125 34.859375 57.328125 23.390625 
Q 57.328125 12.15625 50.6875 5.359375 
Q 44.046875 -1.421875 33.015625 -1.421875 
Q 20.359375 -1.421875 13.671875 8.265625 
Q 6.984375 17.96875 6.984375 36.375 
Q 6.984375 53.65625 15.1875 63.9375 
Q 23.390625 74.21875 37.203125 74.21875 
Q 40.921875 74.21875 44.703125 73.484375 
Q 48.484375 72.75 52.59375 71.296875 
z
" id="DejaVuSans-54"/>
       </defs>
       <use transform="translate(0 0.684375)" xlink:href="#DejaVuSans-54"/>
       <use transform="translate(83.105469 0.684375)" xlink:href="#DejaVuSans-215"/>
       <use transform="translate(186.376953 0.684375)" xlink:href="#DejaVuSans-49"/>
       <use transform="translate(250 0.684375)" xlink:href="#DejaVuSans-48"/>
       <use transform="translate(314.580078 38.965625)scale(0.7)" xlink:href="#DejaVuSans-52"/>
      </g>
     </g>
    </g>
    <g id="ytick_6">
     <g id="line2d_43">
      <g>
       <use style="stroke:#000000;stroke-width:0.6;" x="72.196742" xlink:href="#mb673ad0470" y="154.252784"/>
      </g>
     </g>
    </g>
    <g id="ytick_7">
     <g id="line2d_44">
      <g>
       <use style="stroke:#000000;stroke-width:0.6;" x="72.196742" xlink:href="#mb673ad0470" y="131.852509"/>
      </g>
     </g>
    </g>
    <g id="ytick_8">
     <g id="line2d_45">
      <g>
       <use style="stroke:#000000;stroke-width:0.6;" x="72.196742" xlink:href="#mb673ad0470" y="112.094066"/>
      </g>
     </g>
    </g>
    <g id="text_10">
     <!-- $F(x)$ -->
     <g transform="translate(23.68518 183.734)rotate(-90)scale(0.14 -0.14)">
      <defs>
       <path d="M 16.890625 72.90625 
L 58.6875 72.90625 
L 57.078125 64.59375 
L 25.09375 64.59375 
L 20.90625 43.109375 
L 49.8125 43.109375 
L 48.1875 34.8125 
L 19.28125 34.8125 
L 12.5 0 
L 2.6875 0 
z
" id="DejaVuSans-Oblique-70"/>
       <path d="M 31 75.875 
Q 24.46875 64.65625 21.28125 53.65625 
Q 18.109375 42.671875 18.109375 31.390625 
Q 18.109375 20.125 21.3125 9.0625 
Q 24.515625 -2 31 -13.1875 
L 23.1875 -13.1875 
Q 15.875 -1.703125 12.234375 9.375 
Q 8.59375 20.453125 8.59375 31.390625 
Q 8.59375 42.28125 12.203125 53.3125 
Q 15.828125 64.359375 23.1875 75.875 
z
" id="DejaVuSans-40"/>
       <path d="M 60.015625 54.6875 
L 34.90625 27.875 
L 50.296875 0 
L 39.984375 0 
L 28.421875 21.6875 
L 8.296875 0 
L -2.59375 0 
L 24.3125 28.8125 
L 10.015625 54.6875 
L 20.3125 54.6875 
L 30.8125 34.90625 
L 49.125 54.6875 
z
" id="DejaVuSans-Oblique-120"/>
       <path d="M 8.015625 75.875 
L 15.828125 75.875 
Q 23.140625 64.359375 26.78125 53.3125 
Q 30.421875 42.28125 30.421875 31.390625 
Q 30.421875 20.453125 26.78125 9.375 
Q 23.140625 -1.703125 15.828125 -13.1875 
L 8.015625 -13.1875 
Q 14.5 -2 17.703125 9.0625 
Q 20.90625 20.125 20.90625 31.390625 
Q 20.90625 42.671875 17.703125 53.65625 
Q 14.5 64.65625 8.015625 75.875 
z
" id="DejaVuSans-41"/>
      </defs>
      <use transform="translate(0 0.125)" xlink:href="#DejaVuSans-Oblique-70"/>
      <use transform="translate(57.519531 0.125)" xlink:href="#DejaVuSans-40"/>
      <use transform="translate(96.533203 0.125)" xlink:href="#DejaVuSans-Oblique-120"/>
      <use transform="translate(155.712891 0.125)" xlink:href="#DejaVuSans-41"/>
     </g>
    </g>
   </g>
   <g id="line2d_46">
    <path clip-path="url(#p2afde569fc)" d="M 217.559177 285.214909 
L 218.347617 285.214909 
L 218.674571 285.214909 
L 219.396548 285.214909 
L 218.460243 285.214909 
L 219.627111 285.214909 
L 220.239249 285.214909 
L 218.633232 285.214909 
L 219.684428 285.214909 
L 219.299307 285.214909 
L 220.733028 285.214909 
L 216.534777 285.214909 
L 221.78197 285.214909 
L 220.025477 285.214909 
L 221.778935 285.214909 
L 221.211604 285.214909 
L 219.50578 285.214909 
L 219.087847 285.214909 
L 219.65174 285.214909 
L 219.027804 285.214909 
L 222.36002 285.214909 
L 220.264902 285.214909 
L 220.222148 285.214909 
L 221.458994 285.214909 
L 220.171161 285.214909 
L 221.62281 285.214909 
L 218.979162 285.214909 
L 222.866893 285.214909 
L 221.700832 285.214909 
L 222.2721 285.214909 
L 222.906463 285.214909 
L 222.543332 285.214909 
L 222.62531 285.214909 
L 221.371208 285.214909 
L 220.52692 285.214909 
L 222.84042 285.214909 
L 222.715693 285.214909 
L 223.028808 285.214909 
L 221.891461 285.214909 
L 225.309067 285.214909 
L 225.044575 285.214909 
L 223.401964 285.214909 
L 219.832276 285.214909 
L 222.661735 285.214909 
L 222.594699 285.214909 
L 218.073492 285.214909 
L 219.045371 285.214909 
L 217.130399 285.214909 
L 216.990629 285.214909 
L 214.288616 285.214909 
L 213.460668 285.214909 
L 212.460652 285.214909 
L 211.468296 285.214909 
L 210.602255 285.214909 
L 209.861858 285.214909 
L 209.440833 285.214909 
L 207.641934 285.214909 
L 205.08524 285.214909 
L 203.504899 285.214909 
L 202.261923 285.214909 
L 200.034847 285.214908 
L 201.362729 285.214908 
L 199.021117 285.214907 
L 196.589776 285.214904 
L 196.102016 285.214896 
L 192.086819 285.214884 
L 191.630698 285.214863 
L 188.405764 285.214755 
L 186.94711 285.214643 
L 182.719424 285.214212 
L 180.071026 285.213528 
L 178.01066 285.212329 
L 175.166218 285.210105 
L 172.945331 285.206622 
L 170.361844 285.195721 
L 165.879966 285.170171 
L 160.094695 285.168752 
L 158.113772 285.11194 
L 156.807443 285.10826 
L 153.279974 284.897476 
L 145.536373 284.805962 
L 144.33236 284.819809 
L 139.393248 283.484126 
L 122.892394 282.260677 
L 124.847788 282.130895 
L 90.603087 269.648558 
L 97.314019 269.662604 
" style="fill:none;stroke:#1f77b4;stroke-linecap:square;stroke-width:3;"/>
   </g>
   <g id="line2d_47">
    <path clip-path="url(#p2afde569fc)" d="M 101.088913 144.608731 
L 113.772592 198.284891 
L 134.725481 224.219388 
L 142.34906 240.084357 
L 137.072592 258.671278 
L 150.241013 270.798309 
L 161.190711 278.759038 
L 166.50047 282.490089 
L 180.643791 284.317988 
L 197.176727 285.07735 
L 211.76096 285.190711 
L 229.284387 285.213586 
L 242.682073 285.214799 
L 255.277817 285.2149 
L 269.796965 285.214908 
L 284.764923 285.214909 
L 296.424311 285.214909 
L 312.141234 285.214909 
L 326.747745 285.214909 
L 342.586329 285.214909 
L 357.307437 285.214909 
L 372.964225 285.214909 
L 395.945981 285.214909 
" style="fill:none;stroke:#ff7f0e;stroke-linecap:square;stroke-width:3;"/>
   </g>
   <g id="line2d_48">
    <path clip-path="url(#p2afde569fc)" d="M 121.062403 147.435571 
L 130.518581 216.768315 
L 139.97488 259.974578 
L 153.284878 276.247039 
L 156.853483 284.386491 
L 167.052668 285.213506 
L 180.386634 285.214909 
L 188.096333 285.214909 
L 199.933527 285.214909 
L 196.635836 285.214909 
L 196.945256 285.214909 
L 197.406347 285.214909 
L 198.689132 285.214909 
L 196.576174 285.214909 
" style="fill:none;stroke:#2ca02c;stroke-linecap:square;stroke-width:3;"/>
   </g>
   <g id="line2d_49">
    <path clip-path="url(#p2afde569fc)" d="M 297.049161 105.165783 
L 304.404104 105.165783 
L 315.651662 105.165783 
L 337.463177 105.165783 
L 384.205351 268.757421 
L 407.783186 285.214909 
" style="fill:none;stroke:#d62728;stroke-linecap:square;stroke-width:3;"/>
   </g>
   <g id="line2d_50">
    <path clip-path="url(#p2afde569fc)" d="M 146.270153 54.953091 
L 171.847633 166.202946 
L 140.944391 202.661734 
L 175.286425 210.341449 
L 177.986159 222.082977 
L 183.569084 231.383913 
L 185.166218 234.998303 
L 207.294584 234.998303 
L 231.870282 262.705923 
L 250.235216 275.600563 
L 264.886636 281.956873 
L 284.996076 284.764769 
L 308.304135 285.151399 
L 342.152225 285.2141 
L 366.064541 285.214909 
L 389.655484 285.214909 
L 411.495282 285.214909 
" style="fill:none;stroke:#9467bd;stroke-linecap:square;stroke-width:3;"/>
   </g>
   <g id="line2d_51">
    <path clip-path="url(#p2afde569fc)" d="M 197.548569 54.953091 
L 190.951321 55.894652 
L 204.953661 55.894652 
L 191.763042 56.795974 
L 196.235877 57.658515 
L 203.964952 58.483696 
L 205.565846 60.568651 
L 203.784877 65.149251 
L 206.489862 71.755614 
L 218.918081 79.93429 
L 212.502657 97.710615 
L 219.373484 129.698586 
L 223.807949 170.980471 
L 229.745932 210.091191 
L 238.305277 243.121556 
L 256.311927 269.257737 
L 291.012645 282.735257 
L 288.166773 285.214909 
L 287.16833 285.214909 
L 289.122294 285.214909 
L 281.120868 285.214909 
L 280.956455 285.214909 
L 280.509296 285.214909 
" style="fill:none;stroke:#8c564b;stroke-linecap:square;stroke-width:3;"/>
   </g>
   <g id="line2d_52">
    <path clip-path="url(#p2afde569fc)" d="M 205.382322 175.025028 
L 205.341318 193.429189 
L 204.302205 202.134245 
L 206.141317 208.084952 
L 204.140229 216.404518 
L 213.388792 224.584007 
L 210.690126 231.823814 
L 220.944025 238.997927 
L 225.489101 246.036293 
L 229.718188 252.694299 
L 243.415539 258.686105 
L 248.435255 263.79047 
L 256.303958 268.476578 
L 267.365983 272.609734 
L 276.375685 276.233303 
L 288.493025 279.309763 
L 300.50114 281.559836 
L 318.900913 283.209507 
L 328.503246 284.176342 
L 345.29809 284.704303 
L 361.723789 284.974674 
L 376.687892 285.082611 
L 389.086784 285.146361 
" style="fill:none;stroke:#e377c2;stroke-linecap:square;stroke-width:3;"/>
   </g>
   <g id="line2d_53">
    <path clip-path="url(#p2afde569fc)" d="M 174.910362 104.093149 
L 174.009656 192.493232 
L 187.065263 198.787194 
L 181.435278 211.166407 
L 189.441324 225.80886 
L 201.037323 240.013232 
L 210.310089 252.303613 
L 221.613452 262.842608 
L 230.121443 271.994228 
L 243.533148 279.514568 
L 257.550468 283.169478 
L 272.643291 284.391082 
L 287.999074 284.937065 
L 302.699976 285.108029 
L 319.708378 285.198002 
L 341.840182 285.213261 
L 361.571634 285.214851 
L 373.203035 285.214909 
L 388.079295 285.214909 
" style="fill:none;stroke:#7f7f7f;stroke-linecap:square;stroke-width:3;"/>
   </g>
   <g id="line2d_54">
    <path clip-path="url(#p2afde569fc)" d="M 123.466093 105.927367 
L 155.911683 154.856297 
L 159.936865 185.851363 
L 156.009593 204.209195 
L 158.904218 237.42725 
L 162.424866 248.625446 
L 162.064402 257.055117 
L 165.442072 259.121344 
L 165.08397 257.932273 
L 166.175765 264.691837 
L 170.581529 265.463482 
L 175.037716 262.55807 
L 180.297777 258.543318 
L 186.785934 261.720854 
L 196.601759 260.811583 
L 205.13342 262.23033 
L 215.702673 261.587548 
L 230.20276 265.79655 
L 236.56814 261.732821 
L 250.956425 264.930758 
L 259.932882 265.168866 
L 272.401532 260.129331 
L 281.691806 263.703477 
L 294.184488 262.980136 
L 307.953295 261.680052 
L 321.861254 261.936495 
L 334.99911 266.170686 
L 351.147365 260.490563 
L 367.685073 265.030018 
L 384.392954 262.604208 
" style="fill:none;stroke:#bcbd22;stroke-linecap:square;stroke-width:3;"/>
   </g>
   <g id="line2d_55">
    <path clip-path="url(#p2afde569fc)" d="M 196.912225 175.025028 
L 199.376809 193.429189 
L 203.702882 202.134245 
L 204.122738 208.084952 
L 198.229805 216.404518 
L 208.568203 224.584007 
L 201.205769 231.823814 
L 204.286367 238.997927 
L 208.255321 246.036293 
L 211.316704 252.694299 
L 217.759789 258.686105 
L 228.611869 263.79047 
L 235.923016 268.476578 
L 251.336852 272.609734 
L 258.421198 276.233303 
L 274.238264 279.309763 
L 289.415236 281.559836 
L 303.374387 283.209507 
L 317.109691 284.176342 
L 331.983886 284.704303 
L 353.944575 284.974674 
L 374.482335 285.082611 
L 388.565345 285.146361 
" style="fill:none;stroke:#17becf;stroke-linecap:square;stroke-width:3;"/>
   </g>
   <g id="line2d_56">
    <path clip-path="url(#p2afde569fc)" d="M 224.575508 175.025028 
L 225.627742 193.429189 
L 227.637188 204.085061 
L 226.603952 212.058377 
L 227.668106 224.054823 
L 228.353773 236.481959 
L 228.435918 247.605902 
L 230.967935 257.920894 
L 234.628583 266.681765 
L 227.375999 274.340582 
L 232.985785 280.238692 
L 239.805826 283.493815 
L 252.21861 284.741297 
L 262.94757 285.077239 
L 272.73659 285.191666 
L 285.824912 285.209672 
L 299.226872 285.21362 
L 313.032609 285.214775 
L 328.270992 285.214872 
L 345.320422 285.214901 
L 361.787009 285.214908 
L 376.784567 285.214909 
L 392.768919 285.214909 
" style="fill:none;stroke:#1f77b4;stroke-linecap:square;stroke-width:3;"/>
   </g>
   <g id="line2d_57">
    <path clip-path="url(#p2afde569fc)" d="M 237.067727 175.025028 
L 248.98063 193.429189 
L 256.959776 202.134245 
L 261.640531 208.084952 
L 273.481044 216.404518 
L 286.62812 224.584007 
L 293.897526 231.823814 
L 310.253471 238.997927 
L 323.569719 246.036293 
L 338.937048 252.694299 
L 356.145297 258.686105 
L 374.308049 263.79047 
L 388.85137 268.476578 
" style="fill:none;stroke:#ff7f0e;stroke-linecap:square;stroke-width:3;"/>
   </g>
   <g id="line2d_58">
    <path clip-path="url(#p2afde569fc)" d="M 139.302639 144.608731 
L 146.961855 198.284891 
L 141.787195 224.219388 
L 153.888532 240.084357 
L 152.427453 258.671278 
L 160.367785 270.798309 
L 167.285353 278.759038 
L 177.152925 282.490089 
L 185.9158 284.317988 
L 199.157343 285.07735 
L 211.543971 285.190711 
L 226.251897 285.213586 
L 240.569408 285.214799 
L 255.420449 285.2149 
L 267.573396 285.214908 
L 283.870224 285.214909 
L 297.022922 285.214909 
L 319.322121 285.214909 
L 327.868278 285.214909 
L 339.158064 285.214909 
L 354.456894 285.214909 
L 370.505112 285.214909 
L 386.623187 285.214909 
" style="fill:none;stroke:#2ca02c;stroke-linecap:square;stroke-width:3;"/>
   </g>
   <g id="line2d_59">
    <path clip-path="url(#p2afde569fc)" d="M 394.170211 144.608731 
L 422.950378 198.284891 
" style="fill:none;stroke:#d62728;stroke-linecap:square;stroke-width:3;"/>
   </g>
   <g id="patch_3">
    <path d="M 72.196742 296.728 
L 72.196742 43.44 
" style="fill:none;stroke:#000000;stroke-linecap:square;stroke-linejoin:miter;stroke-width:0.8;"/>
   </g>
   <g id="patch_4">
    <path d="M 450 296.728 
L 450 43.44 
" style="fill:none;stroke:#000000;stroke-linecap:square;stroke-linejoin:miter;stroke-width:0.8;"/>
   </g>
   <g id="patch_5">
    <path d="M 72.196742 296.728 
L 450 296.728 
" style="fill:none;stroke:#000000;stroke-linecap:square;stroke-linejoin:miter;stroke-width:0.8;"/>
   </g>
   <g id="patch_6">
    <path d="M 72.196742 43.44 
L 450 43.44 
" style="fill:none;stroke:#000000;stroke-linecap:square;stroke-linejoin:miter;stroke-width:0.8;"/>
   </g>
   <g id="text_11">
    <!-- Lasso Regression[reg=0.1] -->
    <g transform="translate(166.891496 21.763062)scale(0.14 -0.14)">
     <defs>
      <path d="M 9.8125 72.90625 
L 19.671875 72.90625 
L 19.671875 8.296875 
L 55.171875 8.296875 
L 55.171875 0 
L 9.8125 0 
z
" id="DejaVuSans-76"/>
      <path d="M 34.28125 27.484375 
Q 23.390625 27.484375 19.1875 25 
Q 14.984375 22.515625 14.984375 16.5 
Q 14.984375 11.71875 18.140625 8.90625 
Q 21.296875 6.109375 26.703125 6.109375 
Q 34.1875 6.109375 38.703125 11.40625 
Q 43.21875 16.703125 43.21875 25.484375 
L 43.21875 27.484375 
z
M 52.203125 31.203125 
L 52.203125 0 
L 43.21875 0 
L 43.21875 8.296875 
Q 40.140625 3.328125 35.546875 0.953125 
Q 30.953125 -1.421875 24.3125 -1.421875 
Q 15.921875 -1.421875 10.953125 3.296875 
Q 6 8.015625 6 15.921875 
Q 6 25.140625 12.171875 29.828125 
Q 18.359375 34.515625 30.609375 34.515625 
L 43.21875 34.515625 
L 43.21875 35.40625 
Q 43.21875 41.609375 39.140625 45 
Q 35.0625 48.390625 27.6875 48.390625 
Q 23 48.390625 18.546875 47.265625 
Q 14.109375 46.140625 10.015625 43.890625 
L 10.015625 52.203125 
Q 14.9375 54.109375 19.578125 55.046875 
Q 24.21875 56 28.609375 56 
Q 40.484375 56 46.34375 49.84375 
Q 52.203125 43.703125 52.203125 31.203125 
z
" id="DejaVuSans-97"/>
      <path d="M 30.609375 48.390625 
Q 23.390625 48.390625 19.1875 42.75 
Q 14.984375 37.109375 14.984375 27.296875 
Q 14.984375 17.484375 19.15625 11.84375 
Q 23.34375 6.203125 30.609375 6.203125 
Q 37.796875 6.203125 41.984375 11.859375 
Q 46.1875 17.53125 46.1875 27.296875 
Q 46.1875 37.015625 41.984375 42.703125 
Q 37.796875 48.390625 30.609375 48.390625 
z
M 30.609375 56 
Q 42.328125 56 49.015625 48.375 
Q 55.71875 40.765625 55.71875 27.296875 
Q 55.71875 13.875 49.015625 6.21875 
Q 42.328125 -1.421875 30.609375 -1.421875 
Q 18.84375 -1.421875 12.171875 6.21875 
Q 5.515625 13.875 5.515625 27.296875 
Q 5.515625 40.765625 12.171875 48.375 
Q 18.84375 56 30.609375 56 
z
" id="DejaVuSans-111"/>
      <path d="M 44.390625 34.1875 
Q 47.5625 33.109375 50.5625 29.59375 
Q 53.5625 26.078125 56.59375 19.921875 
L 66.609375 0 
L 56 0 
L 46.6875 18.703125 
Q 43.0625 26.03125 39.671875 28.421875 
Q 36.28125 30.8125 30.421875 30.8125 
L 19.671875 30.8125 
L 19.671875 0 
L 9.8125 0 
L 9.8125 72.90625 
L 32.078125 72.90625 
Q 44.578125 72.90625 50.734375 67.671875 
Q 56.890625 62.453125 56.890625 51.90625 
Q 56.890625 45.015625 53.6875 40.46875 
Q 50.484375 35.9375 44.390625 34.1875 
z
M 19.671875 64.796875 
L 19.671875 38.921875 
L 32.078125 38.921875 
Q 39.203125 38.921875 42.84375 42.21875 
Q 46.484375 45.515625 46.484375 51.90625 
Q 46.484375 58.296875 42.84375 61.546875 
Q 39.203125 64.796875 32.078125 64.796875 
z
" id="DejaVuSans-82"/>
      <path d="M 45.40625 27.984375 
Q 45.40625 37.75 41.375 43.109375 
Q 37.359375 48.484375 30.078125 48.484375 
Q 22.859375 48.484375 18.828125 43.109375 
Q 14.796875 37.75 14.796875 27.984375 
Q 14.796875 18.265625 18.828125 12.890625 
Q 22.859375 7.515625 30.078125 7.515625 
Q 37.359375 7.515625 41.375 12.890625 
Q 45.40625 18.265625 45.40625 27.984375 
z
M 54.390625 6.78125 
Q 54.390625 -7.171875 48.1875 -13.984375 
Q 42 -20.796875 29.203125 -20.796875 
Q 24.46875 -20.796875 20.265625 -20.09375 
Q 16.0625 -19.390625 12.109375 -17.921875 
L 12.109375 -9.1875 
Q 16.0625 -11.328125 19.921875 -12.34375 
Q 23.78125 -13.375 27.78125 -13.375 
Q 36.625 -13.375 41.015625 -8.765625 
Q 45.40625 -4.15625 45.40625 5.171875 
L 45.40625 9.625 
Q 42.625 4.78125 38.28125 2.390625 
Q 33.9375 0 27.875 0 
Q 17.828125 0 11.671875 7.65625 
Q 5.515625 15.328125 5.515625 27.984375 
Q 5.515625 40.671875 11.671875 48.328125 
Q 17.828125 56 27.875 56 
Q 33.9375 56 38.28125 53.609375 
Q 42.625 51.21875 45.40625 46.390625 
L 45.40625 54.6875 
L 54.390625 54.6875 
z
" id="DejaVuSans-103"/>
      <path d="M 41.109375 46.296875 
Q 39.59375 47.171875 37.8125 47.578125 
Q 36.03125 48 33.890625 48 
Q 26.265625 48 22.1875 43.046875 
Q 18.109375 38.09375 18.109375 28.8125 
L 18.109375 0 
L 9.078125 0 
L 9.078125 54.6875 
L 18.109375 54.6875 
L 18.109375 46.1875 
Q 20.953125 51.171875 25.484375 53.578125 
Q 30.03125 56 36.53125 56 
Q 37.453125 56 38.578125 55.875 
Q 39.703125 55.765625 41.0625 55.515625 
z
" id="DejaVuSans-114"/>
      <path d="M 54.890625 33.015625 
L 54.890625 0 
L 45.90625 0 
L 45.90625 32.71875 
Q 45.90625 40.484375 42.875 44.328125 
Q 39.84375 48.1875 33.796875 48.1875 
Q 26.515625 48.1875 22.3125 43.546875 
Q 18.109375 38.921875 18.109375 30.90625 
L 18.109375 0 
L 9.078125 0 
L 9.078125 54.6875 
L 18.109375 54.6875 
L 18.109375 46.1875 
Q 21.34375 51.125 25.703125 53.5625 
Q 30.078125 56 35.796875 56 
Q 45.21875 56 50.046875 50.171875 
Q 54.890625 44.34375 54.890625 33.015625 
z
" id="DejaVuSans-110"/>
      <path d="M 10.59375 45.40625 
L 73.1875 45.40625 
L 73.1875 37.203125 
L 10.59375 37.203125 
z
M 10.59375 25.484375 
L 73.1875 25.484375 
L 73.1875 17.1875 
L 10.59375 17.1875 
z
" id="DejaVuSans-61"/>
      <path d="M 10.6875 12.40625 
L 21 12.40625 
L 21 0 
L 10.6875 0 
z
" id="DejaVuSans-46"/>
     </defs>
     <use xlink:href="#DejaVuSans-76"/>
     <use x="55.712891" xlink:href="#DejaVuSans-97"/>
     <use x="116.992188" xlink:href="#DejaVuSans-115"/>
     <use x="169.091797" xlink:href="#DejaVuSans-115"/>
     <use x="221.191406" xlink:href="#DejaVuSans-111"/>
     <use x="282.373047" xlink:href="#DejaVuSans-32"/>
     <use x="314.160156" xlink:href="#DejaVuSans-82"/>
     <use x="379.142578" xlink:href="#DejaVuSans-101"/>
     <use x="440.666016" xlink:href="#DejaVuSans-103"/>
     <use x="504.142578" xlink:href="#DejaVuSans-114"/>
     <use x="543.005859" xlink:href="#DejaVuSans-101"/>
     <use x="604.529297" xlink:href="#DejaVuSans-115"/>
     <use x="656.628906" xlink:href="#DejaVuSans-115"/>
     <use x="708.728516" xlink:href="#DejaVuSans-105"/>
     <use x="736.511719" xlink:href="#DejaVuSans-111"/>
     <use x="797.693359" xlink:href="#DejaVuSans-110"/>
     <use x="861.072266" xlink:href="#DejaVuSans-91"/>
     <use x="900.085938" xlink:href="#DejaVuSans-114"/>
     <use x="938.949219" xlink:href="#DejaVuSans-101"/>
     <use x="1000.472656" xlink:href="#DejaVuSans-103"/>
     <use x="1063.949219" xlink:href="#DejaVuSans-61"/>
     <use x="1147.738281" xlink:href="#DejaVuSans-48"/>
     <use x="1211.361328" xlink:href="#DejaVuSans-46"/>
     <use x="1243.148438" xlink:href="#DejaVuSans-49"/>
     <use x="1306.771484" xlink:href="#DejaVuSans-93"/>
    </g>
    <!-- Data: Simulated[n_samples=100,n_features=10000,rho=0.6] -->
    <g transform="translate(44.798371 37.44)scale(0.14 -0.14)">
     <defs>
      <path d="M 19.671875 64.796875 
L 19.671875 8.109375 
L 31.59375 8.109375 
Q 46.6875 8.109375 53.6875 14.9375 
Q 60.6875 21.78125 60.6875 36.53125 
Q 60.6875 51.171875 53.6875 57.984375 
Q 46.6875 64.796875 31.59375 64.796875 
z
M 9.8125 72.90625 
L 30.078125 72.90625 
Q 51.265625 72.90625 61.171875 64.09375 
Q 71.09375 55.28125 71.09375 36.53125 
Q 71.09375 17.671875 61.125 8.828125 
Q 51.171875 0 30.078125 0 
L 9.8125 0 
z
" id="DejaVuSans-68"/>
      <path d="M 18.3125 70.21875 
L 18.3125 54.6875 
L 36.8125 54.6875 
L 36.8125 47.703125 
L 18.3125 47.703125 
L 18.3125 18.015625 
Q 18.3125 11.328125 20.140625 9.421875 
Q 21.96875 7.515625 27.59375 7.515625 
L 36.8125 7.515625 
L 36.8125 0 
L 27.59375 0 
Q 17.1875 0 13.234375 3.875 
Q 9.28125 7.765625 9.28125 18.015625 
L 9.28125 47.703125 
L 2.6875 47.703125 
L 2.6875 54.6875 
L 9.28125 54.6875 
L 9.28125 70.21875 
z
" id="DejaVuSans-116"/>
      <path d="M 11.71875 12.40625 
L 22.015625 12.40625 
L 22.015625 0 
L 11.71875 0 
z
M 11.71875 51.703125 
L 22.015625 51.703125 
L 22.015625 39.3125 
L 11.71875 39.3125 
z
" id="DejaVuSans-58"/>
      <path d="M 53.515625 70.515625 
L 53.515625 60.890625 
Q 47.90625 63.578125 42.921875 64.890625 
Q 37.9375 66.21875 33.296875 66.21875 
Q 25.25 66.21875 20.875 63.09375 
Q 16.5 59.96875 16.5 54.203125 
Q 16.5 49.359375 19.40625 46.890625 
Q 22.3125 44.4375 30.421875 42.921875 
L 36.375 41.703125 
Q 47.40625 39.59375 52.65625 34.296875 
Q 57.90625 29 57.90625 20.125 
Q 57.90625 9.515625 50.796875 4.046875 
Q 43.703125 -1.421875 29.984375 -1.421875 
Q 24.8125 -1.421875 18.96875 -0.25 
Q 13.140625 0.921875 6.890625 3.21875 
L 6.890625 13.375 
Q 12.890625 10.015625 18.65625 8.296875 
Q 24.421875 6.59375 29.984375 6.59375 
Q 38.421875 6.59375 43.015625 9.90625 
Q 47.609375 13.234375 47.609375 19.390625 
Q 47.609375 24.75 44.3125 27.78125 
Q 41.015625 30.8125 33.5 32.328125 
L 27.484375 33.5 
Q 16.453125 35.6875 11.515625 40.375 
Q 6.59375 45.0625 6.59375 53.421875 
Q 6.59375 63.09375 13.40625 68.65625 
Q 20.21875 74.21875 32.171875 74.21875 
Q 37.3125 74.21875 42.625 73.28125 
Q 47.953125 72.359375 53.515625 70.515625 
z
" id="DejaVuSans-83"/>
      <path d="M 8.5 21.578125 
L 8.5 54.6875 
L 17.484375 54.6875 
L 17.484375 21.921875 
Q 17.484375 14.15625 20.5 10.265625 
Q 23.53125 6.390625 29.59375 6.390625 
Q 36.859375 6.390625 41.078125 11.03125 
Q 45.3125 15.671875 45.3125 23.6875 
L 45.3125 54.6875 
L 54.296875 54.6875 
L 54.296875 0 
L 45.3125 0 
L 45.3125 8.40625 
Q 42.046875 3.421875 37.71875 1 
Q 33.40625 -1.421875 27.6875 -1.421875 
Q 18.265625 -1.421875 13.375 4.4375 
Q 8.5 10.296875 8.5 21.578125 
z
M 31.109375 56 
z
" id="DejaVuSans-117"/>
      <path d="M 9.421875 75.984375 
L 18.40625 75.984375 
L 18.40625 0 
L 9.421875 0 
z
" id="DejaVuSans-108"/>
      <path d="M 45.40625 46.390625 
L 45.40625 75.984375 
L 54.390625 75.984375 
L 54.390625 0 
L 45.40625 0 
L 45.40625 8.203125 
Q 42.578125 3.328125 38.25 0.953125 
Q 33.9375 -1.421875 27.875 -1.421875 
Q 17.96875 -1.421875 11.734375 6.484375 
Q 5.515625 14.40625 5.515625 27.296875 
Q 5.515625 40.1875 11.734375 48.09375 
Q 17.96875 56 27.875 56 
Q 33.9375 56 38.25 53.625 
Q 42.578125 51.265625 45.40625 46.390625 
z
M 14.796875 27.296875 
Q 14.796875 17.390625 18.875 11.75 
Q 22.953125 6.109375 30.078125 6.109375 
Q 37.203125 6.109375 41.296875 11.75 
Q 45.40625 17.390625 45.40625 27.296875 
Q 45.40625 37.203125 41.296875 42.84375 
Q 37.203125 48.484375 30.078125 48.484375 
Q 22.953125 48.484375 18.875 42.84375 
Q 14.796875 37.203125 14.796875 27.296875 
z
" id="DejaVuSans-100"/>
      <path d="M 50.984375 -16.609375 
L 50.984375 -23.578125 
L -0.984375 -23.578125 
L -0.984375 -16.609375 
z
" id="DejaVuSans-95"/>
      <path d="M 18.109375 8.203125 
L 18.109375 -20.796875 
L 9.078125 -20.796875 
L 9.078125 54.6875 
L 18.109375 54.6875 
L 18.109375 46.390625 
Q 20.953125 51.265625 25.265625 53.625 
Q 29.59375 56 35.59375 56 
Q 45.5625 56 51.78125 48.09375 
Q 58.015625 40.1875 58.015625 27.296875 
Q 58.015625 14.40625 51.78125 6.484375 
Q 45.5625 -1.421875 35.59375 -1.421875 
Q 29.59375 -1.421875 25.265625 0.953125 
Q 20.953125 3.328125 18.109375 8.203125 
z
M 48.6875 27.296875 
Q 48.6875 37.203125 44.609375 42.84375 
Q 40.53125 48.484375 33.40625 48.484375 
Q 26.265625 48.484375 22.1875 42.84375 
Q 18.109375 37.203125 18.109375 27.296875 
Q 18.109375 17.390625 22.1875 11.75 
Q 26.265625 6.109375 33.40625 6.109375 
Q 40.53125 6.109375 44.609375 11.75 
Q 48.6875 17.390625 48.6875 27.296875 
z
" id="DejaVuSans-112"/>
      <path d="M 11.71875 12.40625 
L 22.015625 12.40625 
L 22.015625 4 
L 14.015625 -11.625 
L 7.71875 -11.625 
L 11.71875 4 
z
" id="DejaVuSans-44"/>
      <path d="M 37.109375 75.984375 
L 37.109375 68.5 
L 28.515625 68.5 
Q 23.6875 68.5 21.796875 66.546875 
Q 19.921875 64.59375 19.921875 59.515625 
L 19.921875 54.6875 
L 34.71875 54.6875 
L 34.71875 47.703125 
L 19.921875 47.703125 
L 19.921875 0 
L 10.890625 0 
L 10.890625 47.703125 
L 2.296875 47.703125 
L 2.296875 54.6875 
L 10.890625 54.6875 
L 10.890625 58.5 
Q 10.890625 67.625 15.140625 71.796875 
Q 19.390625 75.984375 28.609375 75.984375 
z
" id="DejaVuSans-102"/>
      <path d="M 54.890625 33.015625 
L 54.890625 0 
L 45.90625 0 
L 45.90625 32.71875 
Q 45.90625 40.484375 42.875 44.328125 
Q 39.84375 48.1875 33.796875 48.1875 
Q 26.515625 48.1875 22.3125 43.546875 
Q 18.109375 38.921875 18.109375 30.90625 
L 18.109375 0 
L 9.078125 0 
L 9.078125 75.984375 
L 18.109375 75.984375 
L 18.109375 46.1875 
Q 21.34375 51.125 25.703125 53.5625 
Q 30.078125 56 35.796875 56 
Q 45.21875 56 50.046875 50.171875 
Q 54.890625 44.34375 54.890625 33.015625 
z
" id="DejaVuSans-104"/>
     </defs>
     <use xlink:href="#DejaVuSans-68"/>
     <use x="77.001953" xlink:href="#DejaVuSans-97"/>
     <use x="138.28125" xlink:href="#DejaVuSans-116"/>
     <use x="177.490234" xlink:href="#DejaVuSans-97"/>
     <use x="238.769531" xlink:href="#DejaVuSans-58"/>
     <use x="272.460938" xlink:href="#DejaVuSans-32"/>
     <use x="304.248047" xlink:href="#DejaVuSans-83"/>
     <use x="367.724609" xlink:href="#DejaVuSans-105"/>
     <use x="395.507812" xlink:href="#DejaVuSans-109"/>
     <use x="492.919922" xlink:href="#DejaVuSans-117"/>
     <use x="556.298828" xlink:href="#DejaVuSans-108"/>
     <use x="584.082031" xlink:href="#DejaVuSans-97"/>
     <use x="645.361328" xlink:href="#DejaVuSans-116"/>
     <use x="684.570312" xlink:href="#DejaVuSans-101"/>
     <use x="746.09375" xlink:href="#DejaVuSans-100"/>
     <use x="809.570312" xlink:href="#DejaVuSans-91"/>
     <use x="848.583984" xlink:href="#DejaVuSans-110"/>
     <use x="911.962891" xlink:href="#DejaVuSans-95"/>
     <use x="961.962891" xlink:href="#DejaVuSans-115"/>
     <use x="1014.0625" xlink:href="#DejaVuSans-97"/>
     <use x="1075.341797" xlink:href="#DejaVuSans-109"/>
     <use x="1172.753906" xlink:href="#DejaVuSans-112"/>
     <use x="1236.230469" xlink:href="#DejaVuSans-108"/>
     <use x="1264.013672" xlink:href="#DejaVuSans-101"/>
     <use x="1325.537109" xlink:href="#DejaVuSans-115"/>
     <use x="1377.636719" xlink:href="#DejaVuSans-61"/>
     <use x="1461.425781" xlink:href="#DejaVuSans-49"/>
     <use x="1525.048828" xlink:href="#DejaVuSans-48"/>
     <use x="1588.671875" xlink:href="#DejaVuSans-48"/>
     <use x="1652.294922" xlink:href="#DejaVuSans-44"/>
     <use x="1684.082031" xlink:href="#DejaVuSans-110"/>
     <use x="1747.460938" xlink:href="#DejaVuSans-95"/>
     <use x="1797.460938" xlink:href="#DejaVuSans-102"/>
     <use x="1832.666016" xlink:href="#DejaVuSans-101"/>
     <use x="1894.189453" xlink:href="#DejaVuSans-97"/>
     <use x="1955.46875" xlink:href="#DejaVuSans-116"/>
     <use x="1994.677734" xlink:href="#DejaVuSans-117"/>
     <use x="2058.056641" xlink:href="#DejaVuSans-114"/>
     <use x="2096.919922" xlink:href="#DejaVuSans-101"/>
     <use x="2158.443359" xlink:href="#DejaVuSans-115"/>
     <use x="2210.542969" xlink:href="#DejaVuSans-61"/>
     <use x="2294.332031" xlink:href="#DejaVuSans-49"/>
     <use x="2357.955078" xlink:href="#DejaVuSans-48"/>
     <use x="2421.578125" xlink:href="#DejaVuSans-48"/>
     <use x="2485.201172" xlink:href="#DejaVuSans-48"/>
     <use x="2548.824219" xlink:href="#DejaVuSans-48"/>
     <use x="2612.447266" xlink:href="#DejaVuSans-44"/>
     <use x="2644.234375" xlink:href="#DejaVuSans-114"/>
     <use x="2683.597656" xlink:href="#DejaVuSans-104"/>
     <use x="2746.976562" xlink:href="#DejaVuSans-111"/>
     <use x="2808.158203" xlink:href="#DejaVuSans-61"/>
     <use x="2891.947266" xlink:href="#DejaVuSans-48"/>
     <use x="2955.570312" xlink:href="#DejaVuSans-46"/>
     <use x="2987.357422" xlink:href="#DejaVuSans-54"/>
     <use x="3050.980469" xlink:href="#DejaVuSans-93"/>
    </g>
   </g>
   <g id="legend_1">
    <g id="patch_7">
     <path d="M 135.920938 343.11 
L 440.2 343.11 
Q 443 343.11 443 340.31 
L 443 53.24 
Q 443 50.44 440.2 50.44 
L 135.920938 50.44 
Q 133.120938 50.44 133.120938 53.24 
L 133.120938 340.31 
Q 133.120938 343.11 135.920938 343.11 
z
" style="fill:#ffffff;opacity:0.8;stroke:#cccccc;stroke-linejoin:miter;"/>
    </g>
    <g id="line2d_60">
     <path d="M 138.720938 61.777812 
L 166.720938 61.777812 
" style="fill:none;stroke:#1f77b4;stroke-linecap:square;stroke-width:3;"/>
    </g>
    <g id="line2d_61"/>
    <g id="text_12">
     <!-- Blitz -->
     <g transform="translate(177.920938 66.677812)scale(0.14 -0.14)">
      <defs>
       <path d="M 19.671875 34.8125 
L 19.671875 8.109375 
L 35.5 8.109375 
Q 43.453125 8.109375 47.28125 11.40625 
Q 51.125 14.703125 51.125 21.484375 
Q 51.125 28.328125 47.28125 31.5625 
Q 43.453125 34.8125 35.5 34.8125 
z
M 19.671875 64.796875 
L 19.671875 42.828125 
L 34.28125 42.828125 
Q 41.5 42.828125 45.03125 45.53125 
Q 48.578125 48.25 48.578125 53.8125 
Q 48.578125 59.328125 45.03125 62.0625 
Q 41.5 64.796875 34.28125 64.796875 
z
M 9.8125 72.90625 
L 35.015625 72.90625 
Q 46.296875 72.90625 52.390625 68.21875 
Q 58.5 63.53125 58.5 54.890625 
Q 58.5 48.1875 55.375 44.234375 
Q 52.25 40.28125 46.1875 39.3125 
Q 53.46875 37.75 57.5 32.78125 
Q 61.53125 27.828125 61.53125 20.40625 
Q 61.53125 10.640625 54.890625 5.3125 
Q 48.25 0 35.984375 0 
L 9.8125 0 
z
" id="DejaVuSans-66"/>
       <path d="M 5.515625 54.6875 
L 48.1875 54.6875 
L 48.1875 46.484375 
L 14.40625 7.171875 
L 48.1875 7.171875 
L 48.1875 0 
L 4.296875 0 
L 4.296875 8.203125 
L 38.09375 47.515625 
L 5.515625 47.515625 
z
" id="DejaVuSans-122"/>
      </defs>
      <use xlink:href="#DejaVuSans-66"/>
      <use x="68.603516" xlink:href="#DejaVuSans-108"/>
      <use x="96.386719" xlink:href="#DejaVuSans-105"/>
      <use x="124.169922" xlink:href="#DejaVuSans-116"/>
      <use x="163.378906" xlink:href="#DejaVuSans-122"/>
     </g>
    </g>
    <g id="line2d_62">
     <path d="M 138.720938 82.327187 
L 166.720938 82.327187 
" style="fill:none;stroke:#ff7f0e;stroke-linecap:square;stroke-width:3;"/>
    </g>
    <g id="line2d_63"/>
    <g id="text_13">
     <!-- cd -->
     <g transform="translate(177.920938 87.227187)scale(0.14 -0.14)">
      <use xlink:href="#DejaVuSans-99"/>
      <use x="54.980469" xlink:href="#DejaVuSans-100"/>
     </g>
    </g>
    <g id="line2d_64">
     <path d="M 138.720938 102.876562 
L 166.720938 102.876562 
" style="fill:none;stroke:#2ca02c;stroke-linecap:square;stroke-width:3;"/>
    </g>
    <g id="line2d_65"/>
    <g id="text_14">
     <!-- Celer -->
     <g transform="translate(177.920938 107.776562)scale(0.14 -0.14)">
      <defs>
       <path d="M 64.40625 67.28125 
L 64.40625 56.890625 
Q 59.421875 61.53125 53.78125 63.8125 
Q 48.140625 66.109375 41.796875 66.109375 
Q 29.296875 66.109375 22.65625 58.46875 
Q 16.015625 50.828125 16.015625 36.375 
Q 16.015625 21.96875 22.65625 14.328125 
Q 29.296875 6.6875 41.796875 6.6875 
Q 48.140625 6.6875 53.78125 8.984375 
Q 59.421875 11.28125 64.40625 15.921875 
L 64.40625 5.609375 
Q 59.234375 2.09375 53.4375 0.328125 
Q 47.65625 -1.421875 41.21875 -1.421875 
Q 24.65625 -1.421875 15.125 8.703125 
Q 5.609375 18.84375 5.609375 36.375 
Q 5.609375 53.953125 15.125 64.078125 
Q 24.65625 74.21875 41.21875 74.21875 
Q 47.75 74.21875 53.53125 72.484375 
Q 59.328125 70.75 64.40625 67.28125 
z
" id="DejaVuSans-67"/>
      </defs>
      <use xlink:href="#DejaVuSans-67"/>
      <use x="69.824219" xlink:href="#DejaVuSans-101"/>
      <use x="131.347656" xlink:href="#DejaVuSans-108"/>
      <use x="159.130859" xlink:href="#DejaVuSans-101"/>
      <use x="220.654297" xlink:href="#DejaVuSans-114"/>
     </g>
    </g>
    <g id="line2d_66">
     <path d="M 138.720938 123.425937 
L 166.720938 123.425937 
" style="fill:none;stroke:#d62728;stroke-linecap:square;stroke-width:3;"/>
    </g>
    <g id="line2d_67"/>
    <g id="text_15">
     <!-- cvxpy -->
     <g transform="translate(177.920938 128.325937)scale(0.14 -0.14)">
      <defs>
       <path d="M 2.984375 54.6875 
L 12.5 54.6875 
L 29.59375 8.796875 
L 46.6875 54.6875 
L 56.203125 54.6875 
L 35.6875 0 
L 23.484375 0 
z
" id="DejaVuSans-118"/>
       <path d="M 54.890625 54.6875 
L 35.109375 28.078125 
L 55.90625 0 
L 45.3125 0 
L 29.390625 21.484375 
L 13.484375 0 
L 2.875 0 
L 24.125 28.609375 
L 4.6875 54.6875 
L 15.28125 54.6875 
L 29.78125 35.203125 
L 44.28125 54.6875 
z
" id="DejaVuSans-120"/>
       <path d="M 32.171875 -5.078125 
Q 28.375 -14.84375 24.75 -17.8125 
Q 21.140625 -20.796875 15.09375 -20.796875 
L 7.90625 -20.796875 
L 7.90625 -13.28125 
L 13.1875 -13.28125 
Q 16.890625 -13.28125 18.9375 -11.515625 
Q 21 -9.765625 23.484375 -3.21875 
L 25.09375 0.875 
L 2.984375 54.6875 
L 12.5 54.6875 
L 29.59375 11.921875 
L 46.6875 54.6875 
L 56.203125 54.6875 
z
" id="DejaVuSans-121"/>
      </defs>
      <use xlink:href="#DejaVuSans-99"/>
      <use x="54.980469" xlink:href="#DejaVuSans-118"/>
      <use x="114.160156" xlink:href="#DejaVuSans-120"/>
      <use x="173.339844" xlink:href="#DejaVuSans-112"/>
      <use x="236.816406" xlink:href="#DejaVuSans-121"/>
     </g>
    </g>
    <g id="line2d_68">
     <path d="M 138.720938 143.975312 
L 166.720938 143.975312 
" style="fill:none;stroke:#9467bd;stroke-linecap:square;stroke-width:3;"/>
    </g>
    <g id="line2d_69"/>
    <g id="text_16">
     <!-- Cyanure -->
     <g transform="translate(177.920938 148.875312)scale(0.14 -0.14)">
      <use xlink:href="#DejaVuSans-67"/>
      <use x="69.824219" xlink:href="#DejaVuSans-121"/>
      <use x="129.003906" xlink:href="#DejaVuSans-97"/>
      <use x="190.283203" xlink:href="#DejaVuSans-110"/>
      <use x="253.662109" xlink:href="#DejaVuSans-117"/>
      <use x="317.041016" xlink:href="#DejaVuSans-114"/>
      <use x="355.904297" xlink:href="#DejaVuSans-101"/>
     </g>
    </g>
    <g id="line2d_70">
     <path d="M 138.720938 164.524687 
L 166.720938 164.524687 
" style="fill:none;stroke:#8c564b;stroke-linecap:square;stroke-width:3;"/>
    </g>
    <g id="line2d_71"/>
    <g id="text_17">
     <!-- glmnet -->
     <g transform="translate(177.920938 169.424687)scale(0.14 -0.14)">
      <use xlink:href="#DejaVuSans-103"/>
      <use x="63.476562" xlink:href="#DejaVuSans-108"/>
      <use x="91.259766" xlink:href="#DejaVuSans-109"/>
      <use x="188.671875" xlink:href="#DejaVuSans-110"/>
      <use x="252.050781" xlink:href="#DejaVuSans-101"/>
      <use x="313.574219" xlink:href="#DejaVuSans-116"/>
     </g>
    </g>
    <g id="line2d_72">
     <path d="M 138.720938 185.074062 
L 166.720938 185.074062 
" style="fill:none;stroke:#e377c2;stroke-linecap:square;stroke-width:3;"/>
    </g>
    <g id="line2d_73"/>
    <g id="text_18">
     <!-- Julia-PGD -->
     <g transform="translate(177.920938 189.974062)scale(0.14 -0.14)">
      <defs>
       <path d="M 9.8125 72.90625 
L 19.671875 72.90625 
L 19.671875 5.078125 
Q 19.671875 -8.109375 14.671875 -14.0625 
Q 9.671875 -20.015625 -1.421875 -20.015625 
L -5.171875 -20.015625 
L -5.171875 -11.71875 
L -2.09375 -11.71875 
Q 4.4375 -11.71875 7.125 -8.046875 
Q 9.8125 -4.390625 9.8125 5.078125 
z
" id="DejaVuSans-74"/>
       <path d="M 4.890625 31.390625 
L 31.203125 31.390625 
L 31.203125 23.390625 
L 4.890625 23.390625 
z
" id="DejaVuSans-45"/>
       <path d="M 19.671875 64.796875 
L 19.671875 37.40625 
L 32.078125 37.40625 
Q 38.96875 37.40625 42.71875 40.96875 
Q 46.484375 44.53125 46.484375 51.125 
Q 46.484375 57.671875 42.71875 61.234375 
Q 38.96875 64.796875 32.078125 64.796875 
z
M 9.8125 72.90625 
L 32.078125 72.90625 
Q 44.34375 72.90625 50.609375 67.359375 
Q 56.890625 61.8125 56.890625 51.125 
Q 56.890625 40.328125 50.609375 34.8125 
Q 44.34375 29.296875 32.078125 29.296875 
L 19.671875 29.296875 
L 19.671875 0 
L 9.8125 0 
z
" id="DejaVuSans-80"/>
       <path d="M 59.515625 10.40625 
L 59.515625 29.984375 
L 43.40625 29.984375 
L 43.40625 38.09375 
L 69.28125 38.09375 
L 69.28125 6.78125 
Q 63.578125 2.734375 56.6875 0.65625 
Q 49.8125 -1.421875 42 -1.421875 
Q 24.90625 -1.421875 15.25 8.5625 
Q 5.609375 18.5625 5.609375 36.375 
Q 5.609375 54.25 15.25 64.234375 
Q 24.90625 74.21875 42 74.21875 
Q 49.125 74.21875 55.546875 72.453125 
Q 61.96875 70.703125 67.390625 67.28125 
L 67.390625 56.78125 
Q 61.921875 61.421875 55.765625 63.765625 
Q 49.609375 66.109375 42.828125 66.109375 
Q 29.4375 66.109375 22.71875 58.640625 
Q 16.015625 51.171875 16.015625 36.375 
Q 16.015625 21.625 22.71875 14.15625 
Q 29.4375 6.6875 42.828125 6.6875 
Q 48.046875 6.6875 52.140625 7.59375 
Q 56.25 8.5 59.515625 10.40625 
z
" id="DejaVuSans-71"/>
      </defs>
      <use xlink:href="#DejaVuSans-74"/>
      <use x="29.492188" xlink:href="#DejaVuSans-117"/>
      <use x="92.871094" xlink:href="#DejaVuSans-108"/>
      <use x="120.654297" xlink:href="#DejaVuSans-105"/>
      <use x="148.4375" xlink:href="#DejaVuSans-97"/>
      <use x="209.716797" xlink:href="#DejaVuSans-45"/>
      <use x="245.800781" xlink:href="#DejaVuSans-80"/>
      <use x="306.103516" xlink:href="#DejaVuSans-71"/>
      <use x="383.59375" xlink:href="#DejaVuSans-68"/>
     </g>
    </g>
    <g id="line2d_74">
     <path d="M 138.720938 205.623437 
L 166.720938 205.623437 
" style="fill:none;stroke:#7f7f7f;stroke-linecap:square;stroke-width:3;"/>
    </g>
    <g id="line2d_75"/>
    <g id="text_19">
     <!-- L-BFGS-B -->
     <g transform="translate(177.920938 210.523437)scale(0.14 -0.14)">
      <defs>
       <path d="M 9.8125 72.90625 
L 51.703125 72.90625 
L 51.703125 64.59375 
L 19.671875 64.59375 
L 19.671875 43.109375 
L 48.578125 43.109375 
L 48.578125 34.8125 
L 19.671875 34.8125 
L 19.671875 0 
L 9.8125 0 
z
" id="DejaVuSans-70"/>
      </defs>
      <use xlink:href="#DejaVuSans-76"/>
      <use x="53.962891" xlink:href="#DejaVuSans-45"/>
      <use x="86.421875" xlink:href="#DejaVuSans-66"/>
      <use x="155.025391" xlink:href="#DejaVuSans-70"/>
      <use x="212.544922" xlink:href="#DejaVuSans-71"/>
      <use x="290.035156" xlink:href="#DejaVuSans-83"/>
      <use x="353.511719" xlink:href="#DejaVuSans-45"/>
      <use x="385.970703" xlink:href="#DejaVuSans-66"/>
     </g>
    </g>
    <g id="line2d_76">
     <path d="M 138.720938 226.172812 
L 166.720938 226.172812 
" style="fill:none;stroke:#bcbd22;stroke-linecap:square;stroke-width:3;"/>
    </g>
    <g id="line2d_77"/>
    <g id="text_20">
     <!-- Lightning -->
     <g transform="translate(177.920938 231.072812)scale(0.14 -0.14)">
      <use xlink:href="#DejaVuSans-76"/>
      <use x="55.712891" xlink:href="#DejaVuSans-105"/>
      <use x="83.496094" xlink:href="#DejaVuSans-103"/>
      <use x="146.972656" xlink:href="#DejaVuSans-104"/>
      <use x="210.351562" xlink:href="#DejaVuSans-116"/>
      <use x="249.560547" xlink:href="#DejaVuSans-110"/>
      <use x="312.939453" xlink:href="#DejaVuSans-105"/>
      <use x="340.722656" xlink:href="#DejaVuSans-110"/>
      <use x="404.101562" xlink:href="#DejaVuSans-103"/>
     </g>
    </g>
    <g id="line2d_78">
     <path d="M 138.720938 246.722187 
L 166.720938 246.722187 
" style="fill:none;stroke:#17becf;stroke-linecap:square;stroke-width:3;"/>
    </g>
    <g id="line2d_79"/>
    <g id="text_21">
     <!-- Python-PGD[use_acceleration=False] -->
     <g transform="translate(177.920938 251.622187)scale(0.14 -0.14)">
      <use xlink:href="#DejaVuSans-80"/>
      <use x="60.302734" xlink:href="#DejaVuSans-121"/>
      <use x="119.482422" xlink:href="#DejaVuSans-116"/>
      <use x="158.691406" xlink:href="#DejaVuSans-104"/>
      <use x="222.070312" xlink:href="#DejaVuSans-111"/>
      <use x="283.251953" xlink:href="#DejaVuSans-110"/>
      <use x="346.630859" xlink:href="#DejaVuSans-45"/>
      <use x="382.714844" xlink:href="#DejaVuSans-80"/>
      <use x="443.017578" xlink:href="#DejaVuSans-71"/>
      <use x="520.507812" xlink:href="#DejaVuSans-68"/>
      <use x="597.509766" xlink:href="#DejaVuSans-91"/>
      <use x="636.523438" xlink:href="#DejaVuSans-117"/>
      <use x="699.902344" xlink:href="#DejaVuSans-115"/>
      <use x="752.001953" xlink:href="#DejaVuSans-101"/>
      <use x="813.525391" xlink:href="#DejaVuSans-95"/>
      <use x="863.525391" xlink:href="#DejaVuSans-97"/>
      <use x="924.804688" xlink:href="#DejaVuSans-99"/>
      <use x="979.785156" xlink:href="#DejaVuSans-99"/>
      <use x="1034.765625" xlink:href="#DejaVuSans-101"/>
      <use x="1096.289062" xlink:href="#DejaVuSans-108"/>
      <use x="1124.072266" xlink:href="#DejaVuSans-101"/>
      <use x="1185.595703" xlink:href="#DejaVuSans-114"/>
      <use x="1226.708984" xlink:href="#DejaVuSans-97"/>
      <use x="1287.988281" xlink:href="#DejaVuSans-116"/>
      <use x="1327.197266" xlink:href="#DejaVuSans-105"/>
      <use x="1354.980469" xlink:href="#DejaVuSans-111"/>
      <use x="1416.162109" xlink:href="#DejaVuSans-110"/>
      <use x="1479.541016" xlink:href="#DejaVuSans-61"/>
      <use x="1563.330078" xlink:href="#DejaVuSans-70"/>
      <use x="1611.724609" xlink:href="#DejaVuSans-97"/>
      <use x="1673.003906" xlink:href="#DejaVuSans-108"/>
      <use x="1700.787109" xlink:href="#DejaVuSans-115"/>
      <use x="1752.886719" xlink:href="#DejaVuSans-101"/>
      <use x="1814.410156" xlink:href="#DejaVuSans-93"/>
     </g>
    </g>
    <g id="line2d_80">
     <path d="M 138.720938 267.660937 
L 166.720938 267.660937 
" style="fill:none;stroke:#1f77b4;stroke-linecap:square;stroke-width:3;"/>
    </g>
    <g id="line2d_81"/>
    <g id="text_22">
     <!-- Python-PGD[use_acceleration=True] -->
     <g transform="translate(177.920938 272.560937)scale(0.14 -0.14)">
      <use xlink:href="#DejaVuSans-80"/>
      <use x="60.302734" xlink:href="#DejaVuSans-121"/>
      <use x="119.482422" xlink:href="#DejaVuSans-116"/>
      <use x="158.691406" xlink:href="#DejaVuSans-104"/>
      <use x="222.070312" xlink:href="#DejaVuSans-111"/>
      <use x="283.251953" xlink:href="#DejaVuSans-110"/>
      <use x="346.630859" xlink:href="#DejaVuSans-45"/>
      <use x="382.714844" xlink:href="#DejaVuSans-80"/>
      <use x="443.017578" xlink:href="#DejaVuSans-71"/>
      <use x="520.507812" xlink:href="#DejaVuSans-68"/>
      <use x="597.509766" xlink:href="#DejaVuSans-91"/>
      <use x="636.523438" xlink:href="#DejaVuSans-117"/>
      <use x="699.902344" xlink:href="#DejaVuSans-115"/>
      <use x="752.001953" xlink:href="#DejaVuSans-101"/>
      <use x="813.525391" xlink:href="#DejaVuSans-95"/>
      <use x="863.525391" xlink:href="#DejaVuSans-97"/>
      <use x="924.804688" xlink:href="#DejaVuSans-99"/>
      <use x="979.785156" xlink:href="#DejaVuSans-99"/>
      <use x="1034.765625" xlink:href="#DejaVuSans-101"/>
      <use x="1096.289062" xlink:href="#DejaVuSans-108"/>
      <use x="1124.072266" xlink:href="#DejaVuSans-101"/>
      <use x="1185.595703" xlink:href="#DejaVuSans-114"/>
      <use x="1226.708984" xlink:href="#DejaVuSans-97"/>
      <use x="1287.988281" xlink:href="#DejaVuSans-116"/>
      <use x="1327.197266" xlink:href="#DejaVuSans-105"/>
      <use x="1354.980469" xlink:href="#DejaVuSans-111"/>
      <use x="1416.162109" xlink:href="#DejaVuSans-110"/>
      <use x="1479.541016" xlink:href="#DejaVuSans-61"/>
      <use x="1563.330078" xlink:href="#DejaVuSans-84"/>
      <use x="1609.664062" xlink:href="#DejaVuSans-114"/>
      <use x="1650.777344" xlink:href="#DejaVuSans-117"/>
      <use x="1714.15625" xlink:href="#DejaVuSans-101"/>
      <use x="1775.679688" xlink:href="#DejaVuSans-93"/>
     </g>
    </g>
    <g id="line2d_82">
     <path d="M 138.720938 288.599687 
L 166.720938 288.599687 
" style="fill:none;stroke:#ff7f0e;stroke-linecap:square;stroke-width:3;"/>
    </g>
    <g id="line2d_83"/>
    <g id="text_23">
     <!-- R-PGD -->
     <g transform="translate(177.920938 293.499687)scale(0.14 -0.14)">
      <use xlink:href="#DejaVuSans-82"/>
      <use x="65.482422" xlink:href="#DejaVuSans-45"/>
      <use x="101.566406" xlink:href="#DejaVuSans-80"/>
      <use x="161.869141" xlink:href="#DejaVuSans-71"/>
      <use x="239.359375" xlink:href="#DejaVuSans-68"/>
     </g>
    </g>
    <g id="line2d_84">
     <path d="M 138.720938 309.149062 
L 166.720938 309.149062 
" style="fill:none;stroke:#2ca02c;stroke-linecap:square;stroke-width:3;"/>
    </g>
    <g id="line2d_85"/>
    <g id="text_24">
     <!-- sklearn -->
     <g transform="translate(177.920938 314.049062)scale(0.14 -0.14)">
      <defs>
       <path d="M 9.078125 75.984375 
L 18.109375 75.984375 
L 18.109375 31.109375 
L 44.921875 54.6875 
L 56.390625 54.6875 
L 27.390625 29.109375 
L 57.625 0 
L 45.90625 0 
L 18.109375 26.703125 
L 18.109375 0 
L 9.078125 0 
z
" id="DejaVuSans-107"/>
      </defs>
      <use xlink:href="#DejaVuSans-115"/>
      <use x="52.099609" xlink:href="#DejaVuSans-107"/>
      <use x="110.009766" xlink:href="#DejaVuSans-108"/>
      <use x="137.792969" xlink:href="#DejaVuSans-101"/>
      <use x="199.316406" xlink:href="#DejaVuSans-97"/>
      <use x="260.595703" xlink:href="#DejaVuSans-114"/>
      <use x="299.958984" xlink:href="#DejaVuSans-110"/>
     </g>
    </g>
    <g id="line2d_86">
     <path d="M 138.720938 329.698437 
L 166.720938 329.698437 
" style="fill:none;stroke:#d62728;stroke-linecap:square;stroke-width:3;"/>
    </g>
    <g id="line2d_87"/>
    <g id="text_25">
     <!-- statsmodels -->
     <g transform="translate(177.920938 334.598437)scale(0.14 -0.14)">
      <use xlink:href="#DejaVuSans-115"/>
      <use x="52.099609" xlink:href="#DejaVuSans-116"/>
      <use x="91.308594" xlink:href="#DejaVuSans-97"/>
      <use x="152.587891" xlink:href="#DejaVuSans-116"/>
      <use x="191.796875" xlink:href="#DejaVuSans-115"/>
      <use x="243.896484" xlink:href="#DejaVuSans-109"/>
      <use x="341.308594" xlink:href="#DejaVuSans-111"/>
      <use x="402.490234" xlink:href="#DejaVuSans-100"/>
      <use x="465.966797" xlink:href="#DejaVuSans-101"/>
      <use x="527.490234" xlink:href="#DejaVuSans-108"/>
      <use x="555.273438" xlink:href="#DejaVuSans-115"/>
     </g>
    </g>
   </g>
  </g>
 </g>
 <defs>
  <clipPath id="p2afde569fc">
   <rect height="253.288" width="377.803258" x="72.196742" y="43.44"/>
  </clipPath>
 </defs>
</svg>
