<?xml version="1.0" encoding="utf-8" standalone="no"?>
<!DOCTYPE svg PUBLIC "-//W3C//DTD SVG 1.1//EN"
  "http://www.w3.org/Graphics/SVG/1.1/DTD/svg11.dtd">
<!-- Created with matplotlib (https://matplotlib.org/) -->
<svg height="345.6pt" version="1.1" viewBox="0 0 460.8 345.6" width="460.8pt" xmlns="http://www.w3.org/2000/svg" xmlns:xlink="http://www.w3.org/1999/xlink">
 <metadata>
  <rdf:RDF xmlns:cc="http://creativecommons.org/ns#" xmlns:dc="http://purl.org/dc/elements/1.1/" xmlns:rdf="http://www.w3.org/1999/02/22-rdf-syntax-ns#">
   <cc:Work>
    <dc:type rdf:resource="http://purl.org/dc/dcmitype/StillImage"/>
    <dc:date>2020-12-16T15:45:04.829975</dc:date>
    <dc:format>image/svg+xml</dc:format>
    <dc:creator>
     <cc:Agent>
      <dc:title>Matplotlib v3.3.3, https://matplotlib.org/</dc:title>
     </cc:Agent>
    </dc:creator>
   </cc:Work>
  </rdf:RDF>
 </metadata>
 <defs>
  <style type="text/css">*{stroke-linecap:butt;stroke-linejoin:round;}</style>
 </defs>
 <g id="figure_1">
  <g id="patch_1">
   <path d="M 0 345.6 
L 460.8 345.6 
L 460.8 0 
L 0 0 
z
" style="fill:#ffffff;"/>
  </g>
  <g id="axes_1">
   <g id="patch_2">
    <path d="M 60.992054 296.728 
L 450 296.728 
L 450 43.44 
L 60.992054 43.44 
z
" style="fill:#ffffff;"/>
   </g>
   <g id="PolyCollection_1">
    <defs>
     <path d="M 213.337743 -61.519051 
L 208.67221 -61.519051 
L 209.58457 -61.519051 
L 209.606043 -62.305173 
L 212.165547 -62.839404 
L 210.881181 -61.519051 
L 211.07353 -63.008383 
L 208.823808 -60.62782 
L 208.768371 -63.008383 
L 210.241909 -62.666035 
L 210.843981 -64.225255 
L 211.487251 -61.519051 
L 207.369767 -64.225255 
L 212.450042 -62.305173 
L 210.242037 -63.941199 
L 211.195266 -62.666035 
L 213.482259 -60.862031 
L 208.879524 -62.117152 
L 211.538947 -61.519051 
L 211.39032 -61.519051 
L 211.739977 -62.117152 
L 214.44642 -60.862031 
L 212.431847 -62.305173 
L 212.117812 -60.62782 
L 213.546818 -62.117152 
L 209.85849 -64.084738 
L 209.189607 -62.305173 
L 212.101427 -64.497714 
L 214.997087 -62.666035 
L 212.946943 -65.011377 
L 214.298389 -64.225255 
L 213.952048 -61.519051 
L 215.320803 -63.644514 
L 212.75869 -62.666035 
L 211.341387 -66.549966 
L 211.556408 -66.931459 
L 213.083923 -63.008383 
L 214.804385 -61.519051 
L 211.780924 -65.011377 
L 212.734248 -60.62782 
L 216.554371 -60.862031 
L 216.863476 -61.519051 
L 212.276708 -63.008383 
L 211.344115 -65.602411 
L 213.678848 -68.639641 
L 211.409185 -70.719276 
L 210.68659 -73.265927 
L 210.68592 -78.828148 
L 209.004908 -86.607938 
L 208.727012 -89.437758 
L 205.868408 -93.870385 
L 205.399374 -100.865926 
L 205.046235 -105.638426 
L 203.530585 -112.574357 
L 202.155106 -116.147036 
L 200.962304 -120.784219 
L 199.672284 -128.974718 
L 198.262034 -132.73076 
L 196.614914 -138.200499 
L 194.975543 -142.8305 
L 193.049913 -148.817274 
L 190.940509 -153.625665 
L 190.454531 -158.153905 
L 187.975049 -162.744419 
L 187.665047 -168.19506 
L 186.634417 -174.10513 
L 182.760788 -178.61394 
L 182.010745 -182.615133 
L 177.299675 -190.646462 
L 177.871749 -194.306915 
L 173.238318 -200.733722 
L 170.233838 -205.295668 
L 169.729995 -209.467602 
L 164.465871 -213.617991 
L 162.313593 -217.256825 
L 156.377299 -222.860753 
L 151.972801 -228.511391 
L 148.869085 -228.719809 
L 146.027684 -234.076317 
L 145.455128 -234.310773 
L 143.920694 -241.594802 
L 132.082314 -243.287358 
L 133.029133 -243.057177 
L 119.954617 -252.943011 
L 111.450519 -256.535928 
L 112.836925 -256.825469 
L 78.674233 -267.881005 
L 80.420967 -267.874696 
L 93.515387 -267.874696 
L 93.515387 -267.874696 
L 81.119222 -267.881005 
L 118.569651 -256.825469 
L 119.768579 -256.535928 
L 134.661482 -252.943011 
L 154.564132 -243.057177 
L 151.526601 -243.287358 
L 151.350077 -241.594802 
L 154.435839 -234.310773 
L 152.48575 -234.076317 
L 159.892719 -228.719809 
L 163.826932 -228.511391 
L 165.995118 -222.860753 
L 166.589642 -217.256825 
L 169.740557 -213.617991 
L 175.214358 -209.467602 
L 178.117988 -205.295668 
L 181.52979 -200.733722 
L 182.014654 -194.306915 
L 186.066084 -190.646462 
L 184.245485 -182.615133 
L 186.169015 -178.61394 
L 190.879838 -174.10513 
L 190.367394 -168.19506 
L 193.905911 -162.744419 
L 195.055297 -158.153905 
L 195.622983 -153.625665 
L 196.613529 -148.817274 
L 201.868487 -142.8305 
L 200.593992 -138.200499 
L 200.766735 -132.73076 
L 203.175639 -128.974718 
L 203.768694 -120.784219 
L 207.36886 -116.147036 
L 204.964278 -112.574357 
L 207.495415 -105.638426 
L 208.797674 -100.865926 
L 208.059863 -93.870385 
L 210.739055 -89.437758 
L 211.443899 -86.607938 
L 214.1307 -78.828148 
L 212.085817 -73.265927 
L 216.076477 -70.719276 
L 217.510291 -68.639641 
L 217.034345 -65.602411 
L 218.074459 -63.008383 
L 219.612197 -61.519051 
L 220.372784 -60.862031 
L 219.164419 -60.62782 
L 218.413702 -65.011377 
L 217.201795 -61.519051 
L 217.342478 -63.008383 
L 217.059482 -66.931459 
L 215.993723 -66.549966 
L 217.165049 -62.666035 
L 219.423227 -63.644514 
L 218.488593 -61.519051 
L 217.493421 -64.225255 
L 216.124904 -65.011377 
L 217.35721 -62.666035 
L 216.336836 -64.497714 
L 216.372109 -62.305173 
L 217.682951 -64.084738 
L 216.761275 -62.117152 
L 217.153493 -60.62782 
L 216.069482 -62.305173 
L 216.874141 -60.862031 
L 217.276235 -62.117152 
L 215.78121 -61.519051 
L 214.934809 -61.519051 
L 214.488621 -62.117152 
L 217.125373 -60.862031 
L 215.540393 -62.666035 
L 216.941925 -63.941199 
L 217.346258 -62.305173 
L 213.499604 -64.225255 
L 215.048825 -61.519051 
L 214.608001 -64.225255 
L 214.570099 -62.666035 
L 215.599504 -63.008383 
L 214.802605 -60.62782 
L 214.242131 -63.008383 
L 215.073936 -61.519051 
L 213.483397 -62.839404 
L 215.002902 -62.305173 
L 213.435296 -61.519051 
L 213.337743 -61.519051 
z
" id="m68d963134c" style="stroke:#1f77b4;stroke-opacity:0.3;"/>
    </defs>
    <g clip-path="url(#pacec12c959)">
     <use style="fill:#1f77b4;fill-opacity:0.3;stroke:#1f77b4;stroke-opacity:0.3;" x="0" xlink:href="#m68d963134c" y="345.6"/>
    </g>
   </g>
   <g id="PolyCollection_2">
    <defs>
     <path d="M 103.203426 -285.249495 
L 86.016272 -285.249495 
L 95.152593 -280.852558 
L 111.312561 -277.934118 
L 119.718719 -275.591322 
L 125.934805 -271.665886 
L 136.961524 -267.345663 
L 149.809647 -261.823572 
L 157.237578 -255.991824 
L 171.290272 -248.538958 
L 187.363609 -236.01009 
L 203.717619 -224.409225 
L 220.882385 -205.010591 
L 235.411294 -188.427871 
L 249.02976 -171.916076 
L 263.005773 -159.03258 
L 279.17023 -140.226808 
L 291.168452 -112.122194 
L 307.770185 -71.369724 
L 322.805283 -60.385091 
L 338.846018 -60.385091 
L 354.117478 -60.385091 
L 370.637228 -60.385091 
L 393.851078 -60.62782 
L 396.192683 -60.62782 
L 396.192683 -60.62782 
L 371.327702 -60.385091 
L 355.83028 -60.385091 
L 340.381954 -60.385091 
L 323.450026 -60.385091 
L 308.631811 -71.369724 
L 294.564328 -112.122194 
L 280.180329 -140.226808 
L 265.50037 -159.03258 
L 250.227607 -171.916076 
L 237.362412 -188.427871 
L 223.747802 -205.010591 
L 207.534011 -224.409225 
L 191.618554 -236.01009 
L 176.339641 -248.538958 
L 162.908924 -255.991824 
L 155.166465 -261.823572 
L 154.318243 -267.345663 
L 129.133445 -271.665886 
L 135.07192 -275.591322 
L 128.50072 -277.934118 
L 114.796687 -280.852558 
L 103.203426 -285.249495 
z
" id="m6c97082703" style="stroke:#ff7f0e;stroke-opacity:0.3;"/>
    </defs>
    <g clip-path="url(#pacec12c959)">
     <use style="fill:#ff7f0e;fill-opacity:0.3;stroke:#ff7f0e;stroke-opacity:0.3;" x="0" xlink:href="#m6c97082703" y="345.6"/>
    </g>
   </g>
   <g id="PolyCollection_3">
    <defs>
     <path d="M 134.730198 -285.050018 
L 107.44936 -285.050018 
L 115.533003 -278.86109 
L 120.617423 -271.303262 
L 133.420199 -264.067497 
L 143.557099 -248.007322 
L 155.539069 -205.404518 
L 169.473919 -149.073412 
L 176.848169 -69.321286 
L 190.565742 -60.385091 
L 187.045609 -60.385091 
L 186.811333 -60.385091 
L 189.351679 -60.385091 
L 189.88688 -60.385091 
L 188.776538 -60.385091 
L 194.688026 -60.385091 
L 194.688026 -60.385091 
L 194.001503 -60.385091 
L 192.343132 -60.385091 
L 194.022688 -60.385091 
L 193.945328 -60.385091 
L 194.305351 -60.385091 
L 182.89976 -69.321286 
L 173.923993 -149.073412 
L 163.973013 -205.404518 
L 152.469869 -248.007322 
L 147.414437 -264.067497 
L 141.277153 -271.303262 
L 130.335775 -278.86109 
L 134.730198 -285.050018 
z
" id="md2680a2799" style="stroke:#2ca02c;stroke-opacity:0.3;"/>
    </defs>
    <g clip-path="url(#pacec12c959)">
     <use style="fill:#2ca02c;fill-opacity:0.3;stroke:#2ca02c;stroke-opacity:0.3;" x="0" xlink:href="#md2680a2799" y="345.6"/>
    </g>
   </g>
   <g id="PolyCollection_4">
    <defs>
     <path d="M 324.371594 -287.807581 
L 286.049285 -287.807581 
L 299.976621 -287.807581 
L 310.6985 -287.807581 
L 333.016693 -287.807581 
L 371.42324 -268.270567 
L 403.498371 -143.631501 
L 407.107733 -143.631501 
L 407.107733 -143.631501 
L 385.249683 -268.270567 
L 335.740117 -287.807581 
L 316.043694 -287.807581 
L 302.087851 -287.807581 
L 324.371594 -287.807581 
z
" id="mfaed234c4e" style="stroke:#d62728;stroke-opacity:0.3;"/>
    </defs>
    <g clip-path="url(#pacec12c959)">
     <use style="fill:#d62728;fill-opacity:0.3;stroke:#d62728;stroke-opacity:0.3;" x="0" xlink:href="#mfaed234c4e" y="345.6"/>
    </g>
   </g>
   <g id="PolyCollection_5">
    <defs>
     <path d="M 153.566826 -290.646909 
L 126.962536 -290.646909 
L 155.331378 -283.652192 
L 123.148451 -280.413388 
L 155.366518 -279.597008 
L 143.697023 -278.209005 
L 150.260798 -276.949515 
L 160.743502 -276.410012 
L 176.211442 -276.410012 
L 201.870303 -270.483238 
L 226.399254 -264.545063 
L 251.11724 -257.195313 
L 274.787783 -243.928729 
L 297.583001 -230.850338 
L 333.847259 -201.730032 
L 361.292345 -149.896843 
L 383.073431 -104.796716 
L 409.751095 -102.427203 
L 410.946933 -102.427203 
L 410.946933 -102.427203 
L 389.784672 -104.796716 
L 364.011751 -149.896843 
L 344.709935 -201.730032 
L 315.787855 -230.850338 
L 283.0323 -243.928729 
L 267.707898 -257.195313 
L 250.176965 -264.545063 
L 234.654645 -270.483238 
L 219.715355 -276.410012 
L 198.382609 -276.410012 
L 196.090598 -276.949515 
L 186.200159 -278.209005 
L 178.558704 -279.597008 
L 138.567401 -280.413388 
L 171.43992 -283.652192 
L 153.566826 -290.646909 
z
" id="ma6c9c24e4d" style="stroke:#9467bd;stroke-opacity:0.3;"/>
    </defs>
    <g clip-path="url(#pacec12c959)">
     <use style="fill:#9467bd;fill-opacity:0.3;stroke:#9467bd;stroke-opacity:0.3;" x="0" xlink:href="#ma6c9c24e4d" y="345.6"/>
    </g>
   </g>
   <g id="PolyCollection_6">
    <defs>
     <path d="M 235.284995 -290.646909 
L 188.319404 -290.646909 
L 178.727233 -290.596682 
L 181.045791 -290.596682 
L 178.342711 -290.548511 
L 181.378962 -290.50233 
L 187.253906 -290.458071 
L 190.247853 -290.345904 
L 179.923358 -290.097718 
L 193.275742 -289.735319 
L 193.094448 -289.278867 
L 196.699275 -288.253232 
L 197.935628 -286.261872 
L 206.303648 -283.272772 
L 216.496707 -279.624627 
L 225.852937 -275.06329 
L 249.030546 -268.054403 
L 273.550884 -255.357651 
L 280.220057 -119.705734 
L 278.684233 -119.705734 
L 279.831494 -119.705734 
L 274.1792 -119.705734 
L 274.755294 -119.705734 
L 273.566393 -119.705734 
L 278.510837 -119.705734 
L 278.510837 -119.705734 
L 283.486153 -119.705734 
L 286.254083 -119.705734 
L 302.044488 -119.705734 
L 285.512882 -119.705734 
L 297.177228 -119.705734 
L 295.793148 -255.357651 
L 260.017094 -268.054403 
L 258.084724 -275.06329 
L 229.707823 -279.624627 
L 237.525855 -283.272772 
L 226.440778 -286.261872 
L 237.324458 -288.253232 
L 236.761719 -289.278867 
L 235.529625 -289.735319 
L 232.546839 -290.097718 
L 209.558774 -290.345904 
L 206.090541 -290.458071 
L 208.093327 -290.50233 
L 213.022086 -290.548511 
L 238.518769 -290.596682 
L 233.508729 -290.596682 
L 235.284995 -290.646909 
z
" id="m619d6e1511" style="stroke:#8c564b;stroke-opacity:0.3;"/>
    </defs>
    <g clip-path="url(#pacec12c959)">
     <use style="fill:#8c564b;fill-opacity:0.3;stroke:#8c564b;stroke-opacity:0.3;" x="0" xlink:href="#m619d6e1511" y="345.6"/>
    </g>
   </g>
   <g id="PolyCollection_7">
    <defs>
     <path d="M 225.864798 -282.942814 
L 189.46193 -282.942814 
L 192.622621 -281.320461 
L 191.820677 -280.467253 
L 195.582823 -279.843451 
L 194.393142 -278.904199 
L 203.816043 -277.88641 
L 202.326222 -276.885532 
L 210.035003 -275.772682 
L 215.276724 -274.524026 
L 221.892404 -273.143724 
L 235.756984 -271.661854 
L 241.579625 -270.131599 
L 248.377231 -268.389181 
L 260.821019 -266.412964 
L 268.412242 -264.077987 
L 281.634824 -261.217428 
L 295.011675 -257.970728 
L 309.786426 -253.931414 
L 322.828069 -249.520429 
L 340.241149 -244.771161 
L 356.59561 -239.733465 
L 373.967773 -235.749683 
L 386.894922 -231.359917 
L 387.662031 -231.359917 
L 387.662031 -231.359917 
L 376.670862 -235.749683 
L 359.635894 -239.733465 
L 345.134431 -244.771161 
L 327.570199 -249.520429 
L 315.373335 -253.931414 
L 303.786575 -257.970728 
L 289.549496 -261.217428 
L 278.288884 -264.077987 
L 263.125951 -266.412964 
L 251.944219 -268.389181 
L 246.167291 -270.131599 
L 242.053685 -271.661854 
L 228.007825 -273.143724 
L 221.210011 -274.524026 
L 227.283393 -275.772682 
L 226.10328 -276.885532 
L 209.027269 -277.88641 
L 204.608015 -278.904199 
L 206.763599 -279.843451 
L 204.416592 -280.467253 
L 202.04644 -281.320461 
L 225.864798 -282.942814 
z
" id="ma27611bb92" style="stroke:#e377c2;stroke-opacity:0.3;"/>
    </defs>
    <g clip-path="url(#pacec12c959)">
     <use style="fill:#e377c2;fill-opacity:0.3;stroke:#e377c2;stroke-opacity:0.3;" x="0" xlink:href="#ma27611bb92" y="345.6"/>
    </g>
   </g>
   <g id="PolyCollection_8">
    <defs>
     <path d="M 204.761614 -287.87232 
L 161.775599 -287.87232 
L 163.973009 -281.408493 
L 172.74445 -280.803031 
L 172.365018 -279.505441 
L 179.442286 -277.72438 
L 189.180253 -275.603311 
L 200.04057 -273.231452 
L 210.577059 -270.439805 
L 220.028852 -266.743563 
L 236.143737 -260.977738 
L 248.717263 -254.064123 
L 266.009804 -247.970136 
L 279.559947 -240.704952 
L 297.897307 -234.325247 
L 314.642601 -222.016278 
L 336.147566 -206.478863 
L 358.592575 -184.096308 
L 369.013893 -147.121067 
L 385.667519 -93.085901 
L 386.754422 -93.085901 
L 386.754422 -93.085901 
L 372.61639 -147.121067 
L 359.026355 -184.096308 
L 340.943521 -206.478863 
L 317.613063 -222.016278 
L 300.493162 -234.325247 
L 285.795843 -240.704952 
L 270.247567 -247.970136 
L 259.522616 -254.064123 
L 245.99819 -260.977738 
L 236.994457 -266.743563 
L 232.980592 -270.439805 
L 223.821106 -273.231452 
L 215.71861 -275.603311 
L 209.16671 -277.72438 
L 208.603179 -279.505441 
L 220.61087 -280.803031 
L 203.972498 -281.408493 
L 204.761614 -287.87232 
z
" id="m84a0e9795c" style="stroke:#7f7f7f;stroke-opacity:0.3;"/>
    </defs>
    <g clip-path="url(#pacec12c959)">
     <use style="fill:#7f7f7f;fill-opacity:0.3;stroke:#7f7f7f;stroke-opacity:0.3;" x="0" xlink:href="#m84a0e9795c" y="345.6"/>
    </g>
   </g>
   <g id="PolyCollection_9">
    <defs>
     <path d="M 124.961595 -287.761485 
L 113.521247 -287.761485 
L 143.182426 -284.51342 
L 144.943646 -282.014911 
L 145.991651 -280.253815 
L 147.528381 -276.028442 
L 150.36922 -274.014254 
L 151.316107 -272.093398 
L 152.669436 -271.54256 
L 154.878103 -271.864261 
L 155.573052 -269.826415 
L 160.477451 -269.554971 
L 164.35696 -270.529943 
L 170.706828 -271.700597 
L 178.470886 -270.789162 
L 186.611764 -271.061118 
L 196.558393 -270.632466 
L 208.160109 -270.829639 
L 221.784752 -269.434707 
L 228.193766 -270.785518 
L 243.062043 -269.74341 
L 249.630202 -269.659768 
L 263.354403 -271.259059 
L 274.586315 -270.160412 
L 286.564093 -270.395854 
L 301.759602 -270.801574 
L 316.136118 -270.723229 
L 329.173088 -269.297272 
L 346.520306 -271.154887 
L 362.567689 -269.708655 
L 380.407429 -270.515399 
L 384.934535 -270.515399 
L 384.934535 -270.515399 
L 366.219493 -269.708655 
L 350.54242 -271.154887 
L 332.391078 -269.297272 
L 320.542761 -270.723229 
L 305.139346 -270.801574 
L 290.176777 -270.395854 
L 280.157284 -270.160412 
L 271.391731 -271.259059 
L 259.233729 -269.659768 
L 245.892344 -269.74341 
L 232.304567 -270.785518 
L 223.918474 -269.434707 
L 212.837005 -270.829639 
L 200.877334 -270.632466 
L 190.8607 -271.061118 
L 181.485398 -270.789162 
L 174.144237 -271.700597 
L 172.590392 -270.529943 
L 165.57343 -269.554971 
L 163.776976 -269.826415 
L 158.292793 -271.864261 
L 160.131447 -271.54256 
L 160.953865 -272.093398 
L 158.765334 -274.014254 
L 154.737442 -276.028442 
L 151.887916 -280.253815 
L 155.167242 -282.014911 
L 149.723939 -284.51342 
L 124.961595 -287.761485 
z
" id="maeaae6dd0d" style="stroke:#bcbd22;stroke-opacity:0.3;"/>
    </defs>
    <g clip-path="url(#pacec12c959)">
     <use style="fill:#bcbd22;fill-opacity:0.3;stroke:#bcbd22;stroke-opacity:0.3;" x="0" xlink:href="#maeaae6dd0d" y="345.6"/>
    </g>
   </g>
   <g id="PolyCollection_10">
    <defs>
     <path d="M 193.699114 -282.942814 
L 188.228999 -282.942814 
L 186.886943 -281.320461 
L 188.504444 -280.467253 
L 190.602077 -279.843451 
L 189.705623 -278.904199 
L 197.293043 -277.88641 
L 189.169739 -276.885532 
L 193.661039 -275.772682 
L 198.188911 -274.524026 
L 202.070912 -273.143724 
L 208.680682 -271.661854 
L 220.610457 -270.131599 
L 228.373064 -268.389181 
L 239.702086 -266.412964 
L 247.448781 -264.077987 
L 262.308239 -261.217428 
L 281.335375 -257.970728 
L 293.691392 -253.931414 
L 311.820401 -249.520429 
L 327.183538 -244.771161 
L 347.355035 -239.733465 
L 370.244599 -235.749683 
L 386.208599 -231.359917 
L 387.052176 -231.359917 
L 387.052176 -231.359917 
L 372.880485 -235.749683 
L 352.913811 -239.733465 
L 329.847988 -244.771161 
L 313.902042 -249.520429 
L 299.96502 -253.931414 
L 285.64845 -257.970728 
L 271.36753 -261.217428 
L 259.715559 -264.077987 
L 250.517445 -266.412964 
L 237.050174 -268.389181 
L 224.049897 -270.131599 
L 212.736178 -271.661854 
L 214.349279 -273.143724 
L 202.470232 -274.524026 
L 203.992972 -275.772682 
L 199.693536 -276.885532 
L 202.718583 -277.88641 
L 193.412199 -278.904199 
L 199.105897 -279.843451 
L 203.192953 -280.467253 
L 198.524846 -281.320461 
L 193.699114 -282.942814 
z
" id="m6965aafd7a" style="stroke:#17becf;stroke-opacity:0.3;"/>
    </defs>
    <g clip-path="url(#pacec12c959)">
     <use style="fill:#17becf;fill-opacity:0.3;stroke:#17becf;stroke-opacity:0.3;" x="0" xlink:href="#m6965aafd7a" y="345.6"/>
    </g>
   </g>
   <g id="PolyCollection_11">
    <defs>
     <path d="M 220.350391 -282.942814 
L 216.767818 -282.942814 
L 218.900093 -281.320461 
L 218.769714 -280.266703 
L 219.702217 -279.405518 
L 220.390269 -277.955573 
L 220.414254 -276.178883 
L 221.4833 -274.218715 
L 223.483861 -271.867277 
L 218.495372 -269.105353 
L 219.127401 -265.392315 
L 225.807288 -260.056511 
L 233.11906 -252.905347 
L 243.550145 -244.268444 
L 254.541765 -236.01543 
L 266.221248 -224.140645 
L 280.927007 -214.194203 
L 293.234104 -204.838804 
L 308.599431 -189.728279 
L 322.307277 -181.229557 
L 339.744201 -170.9734 
L 358.332247 -158.252488 
L 373.714839 -149.789195 
L 390.882441 -132.645301 
L 391.259879 -132.645301 
L 391.259879 -132.645301 
L 375.233402 -149.789195 
L 359.343843 -158.252488 
L 343.454427 -170.9734 
L 325.17035 -181.229557 
L 310.305018 -189.728279 
L 296.638021 -204.838804 
L 282.240193 -214.194203 
L 269.005195 -224.140645 
L 260.134867 -236.01543 
L 247.046425 -244.268444 
L 234.166659 -252.905347 
L 227.138804 -260.056511 
L 221.136998 -265.392315 
L 228.607975 -269.105353 
L 225.682557 -271.867277 
L 224.653274 -274.218715 
L 222.634335 -276.178883 
L 221.112365 -277.955573 
L 221.268005 -279.405518 
L 221.368937 -280.266703 
L 219.202713 -281.320461 
L 220.350391 -282.942814 
z
" id="m9087ead29d" style="stroke:#1f77b4;stroke-opacity:0.3;"/>
    </defs>
    <g clip-path="url(#pacec12c959)">
     <use style="fill:#1f77b4;fill-opacity:0.3;stroke:#1f77b4;stroke-opacity:0.3;" x="0" xlink:href="#m9087ead29d" y="345.6"/>
    </g>
   </g>
   <g id="PolyCollection_12">
    <defs>
     <path d="M 235.221905 -282.942814 
L 229.754875 -282.942814 
L 242.021673 -281.320461 
L 247.606313 -280.467253 
L 254.580249 -279.843451 
L 267.880952 -278.904199 
L 280.127131 -277.88641 
L 287.901929 -276.885532 
L 305.809944 -275.772682 
L 319.435269 -274.524026 
L 335.221285 -273.143724 
L 351.863811 -271.661854 
L 369.121427 -270.131599 
L 386.03846 -268.389181 
L 388.639955 -268.389181 
L 388.639955 -268.389181 
L 372.412224 -270.131599 
L 353.734931 -271.661854 
L 337.351379 -273.143724 
L 323.465385 -274.524026 
L 306.6076 -275.772682 
L 289.873444 -276.885532 
L 287.904238 -277.88641 
L 271.250205 -278.904199 
L 258.776469 -279.843451 
L 253.460553 -280.467253 
L 257.196987 -281.320461 
L 235.221905 -282.942814 
z
" id="m3e14bf2c33" style="stroke:#ff7f0e;stroke-opacity:0.3;"/>
    </defs>
    <g clip-path="url(#pacec12c959)">
     <use style="fill:#ff7f0e;fill-opacity:0.3;stroke:#ff7f0e;stroke-opacity:0.3;" x="0" xlink:href="#m3e14bf2c33" y="345.6"/>
    </g>
   </g>
   <g id="PolyCollection_13">
    <defs>
     <path d="M 142.031714 -285.249495 
L 128.022804 -285.249495 
L 129.60828 -280.852558 
L 130.219595 -277.934118 
L 138.55102 -275.591322 
L 140.614417 -271.665886 
L 149.287923 -267.345663 
L 155.651291 -261.823572 
L 163.425769 -255.991824 
L 175.991342 -248.538958 
L 188.686465 -236.01009 
L 203.609546 -224.409225 
L 218.46924 -205.010591 
L 232.22612 -188.427871 
L 248.843957 -171.916076 
L 261.065884 -159.03258 
L 276.968422 -140.226808 
L 290.780224 -112.122088 
L 307.452977 -71.464397 
L 320.984352 -60.62782 
L 334.426548 -60.385091 
L 351.287068 -60.62782 
L 365.459067 -60.385091 
L 384.266342 -60.385091 
L 385.15828 -60.385091 
L 385.15828 -60.385091 
L 368.893349 -60.385091 
L 352.842052 -60.62782 
L 344.515304 -60.385091 
L 328.411146 -60.62782 
L 325.309308 -71.464397 
L 297.140926 -112.122088 
L 281.29799 -140.226808 
L 262.909656 -159.03258 
L 251.039 -171.916076 
L 235.03813 -188.427871 
L 221.513404 -205.010591 
L 206.228854 -224.409225 
L 191.944322 -236.01009 
L 181.796219 -248.538958 
L 171.290535 -255.991824 
L 161.050797 -261.823572 
L 153.474013 -267.345663 
L 150.930634 -271.665886 
L 157.910468 -275.591322 
L 145.612484 -277.934118 
L 144.451593 -280.852558 
L 142.031714 -285.249495 
z
" id="m1da086682a" style="stroke:#2ca02c;stroke-opacity:0.3;"/>
    </defs>
    <g clip-path="url(#pacec12c959)">
     <use style="fill:#2ca02c;fill-opacity:0.3;stroke:#2ca02c;stroke-opacity:0.3;" x="0" xlink:href="#m1da086682a" y="345.6"/>
    </g>
   </g>
   <g id="PolyCollection_14">
    <defs>
     <path d="M 394.255537 -285.249495 
L 389.365808 -285.249495 
L 406.758805 -280.852558 
L 432.317821 -280.852558 
L 432.317821 -280.852558 
L 394.255537 -285.249495 
z
" id="m7d1143a23d" style="stroke:#d62728;stroke-opacity:0.3;"/>
    </defs>
    <g clip-path="url(#pacec12c959)">
     <use style="fill:#d62728;fill-opacity:0.3;stroke:#d62728;stroke-opacity:0.3;" x="0" xlink:href="#m7d1143a23d" y="345.6"/>
    </g>
   </g>
   <g id="matplotlib.axis_1">
    <g id="xtick_1">
     <g id="line2d_1">
      <defs>
       <path d="M 0 0 
L 0 3.5 
" id="m216fad3360" style="stroke:#000000;stroke-width:0.8;"/>
      </defs>
      <g>
       <use style="stroke:#000000;stroke-width:0.8;" x="114.672027" xlink:href="#m216fad3360" y="296.728"/>
      </g>
     </g>
     <g id="text_1">
      <!-- $\mathdefault{10^{-2}}$ -->
      <g transform="translate(102.922027 311.326437)scale(0.1 -0.1)">
       <defs>
        <path d="M 12.40625 8.296875 
L 28.515625 8.296875 
L 28.515625 63.921875 
L 10.984375 60.40625 
L 10.984375 69.390625 
L 28.421875 72.90625 
L 38.28125 72.90625 
L 38.28125 8.296875 
L 54.390625 8.296875 
L 54.390625 0 
L 12.40625 0 
z
" id="DejaVuSans-49"/>
        <path d="M 31.78125 66.40625 
Q 24.171875 66.40625 20.328125 58.90625 
Q 16.5 51.421875 16.5 36.375 
Q 16.5 21.390625 20.328125 13.890625 
Q 24.171875 6.390625 31.78125 6.390625 
Q 39.453125 6.390625 43.28125 13.890625 
Q 47.125 21.390625 47.125 36.375 
Q 47.125 51.421875 43.28125 58.90625 
Q 39.453125 66.40625 31.78125 66.40625 
z
M 31.78125 74.21875 
Q 44.046875 74.21875 50.515625 64.515625 
Q 56.984375 54.828125 56.984375 36.375 
Q 56.984375 17.96875 50.515625 8.265625 
Q 44.046875 -1.421875 31.78125 -1.421875 
Q 19.53125 -1.421875 13.0625 8.265625 
Q 6.59375 17.96875 6.59375 36.375 
Q 6.59375 54.828125 13.0625 64.515625 
Q 19.53125 74.21875 31.78125 74.21875 
z
" id="DejaVuSans-48"/>
        <path d="M 10.59375 35.5 
L 73.1875 35.5 
L 73.1875 27.203125 
L 10.59375 27.203125 
z
" id="DejaVuSans-8722"/>
        <path d="M 19.1875 8.296875 
L 53.609375 8.296875 
L 53.609375 0 
L 7.328125 0 
L 7.328125 8.296875 
Q 12.9375 14.109375 22.625 23.890625 
Q 32.328125 33.6875 34.8125 36.53125 
Q 39.546875 41.84375 41.421875 45.53125 
Q 43.3125 49.21875 43.3125 52.78125 
Q 43.3125 58.59375 39.234375 62.25 
Q 35.15625 65.921875 28.609375 65.921875 
Q 23.96875 65.921875 18.8125 64.3125 
Q 13.671875 62.703125 7.8125 59.421875 
L 7.8125 69.390625 
Q 13.765625 71.78125 18.9375 73 
Q 24.125 74.21875 28.421875 74.21875 
Q 39.75 74.21875 46.484375 68.546875 
Q 53.21875 62.890625 53.21875 53.421875 
Q 53.21875 48.921875 51.53125 44.890625 
Q 49.859375 40.875 45.40625 35.40625 
Q 44.1875 33.984375 37.640625 27.21875 
Q 31.109375 20.453125 19.1875 8.296875 
z
" id="DejaVuSans-50"/>
       </defs>
       <use transform="translate(0 0.765625)" xlink:href="#DejaVuSans-49"/>
       <use transform="translate(63.623047 0.765625)" xlink:href="#DejaVuSans-48"/>
       <use transform="translate(128.203125 39.046875)scale(0.7)" xlink:href="#DejaVuSans-8722"/>
       <use transform="translate(186.855469 39.046875)scale(0.7)" xlink:href="#DejaVuSans-50"/>
      </g>
     </g>
    </g>
    <g id="xtick_2">
     <g id="line2d_2">
      <g>
       <use style="stroke:#000000;stroke-width:0.8;" x="210.040753" xlink:href="#m216fad3360" y="296.728"/>
      </g>
     </g>
     <g id="text_2">
      <!-- $\mathdefault{10^{-1}}$ -->
      <g transform="translate(198.290753 311.326437)scale(0.1 -0.1)">
       <use transform="translate(0 0.684375)" xlink:href="#DejaVuSans-49"/>
       <use transform="translate(63.623047 0.684375)" xlink:href="#DejaVuSans-48"/>
       <use transform="translate(128.203125 38.965625)scale(0.7)" xlink:href="#DejaVuSans-8722"/>
       <use transform="translate(186.855469 38.965625)scale(0.7)" xlink:href="#DejaVuSans-49"/>
      </g>
     </g>
    </g>
    <g id="xtick_3">
     <g id="line2d_3">
      <g>
       <use style="stroke:#000000;stroke-width:0.8;" x="305.409479" xlink:href="#m216fad3360" y="296.728"/>
      </g>
     </g>
     <g id="text_3">
      <!-- $\mathdefault{10^{0}}$ -->
      <g transform="translate(296.609479 311.326437)scale(0.1 -0.1)">
       <use transform="translate(0 0.765625)" xlink:href="#DejaVuSans-49"/>
       <use transform="translate(63.623047 0.765625)" xlink:href="#DejaVuSans-48"/>
       <use transform="translate(128.203125 39.046875)scale(0.7)" xlink:href="#DejaVuSans-48"/>
      </g>
     </g>
    </g>
    <g id="xtick_4">
     <g id="line2d_4">
      <g>
       <use style="stroke:#000000;stroke-width:0.8;" x="400.778205" xlink:href="#m216fad3360" y="296.728"/>
      </g>
     </g>
     <g id="text_4">
      <!-- $\mathdefault{10^{1}}$ -->
      <g transform="translate(391.978205 311.326437)scale(0.1 -0.1)">
       <use transform="translate(0 0.684375)" xlink:href="#DejaVuSans-49"/>
       <use transform="translate(63.623047 0.684375)" xlink:href="#DejaVuSans-48"/>
       <use transform="translate(128.203125 38.965625)scale(0.7)" xlink:href="#DejaVuSans-49"/>
      </g>
     </g>
    </g>
    <g id="xtick_5">
     <g id="line2d_5">
      <defs>
       <path d="M 0 0 
L 0 2 
" id="mf58de29999" style="stroke:#000000;stroke-width:0.6;"/>
      </defs>
      <g>
       <use style="stroke:#000000;stroke-width:0.6;" x="64.805747" xlink:href="#mf58de29999" y="296.728"/>
      </g>
     </g>
    </g>
    <g id="xtick_6">
     <g id="line2d_6">
      <g>
       <use style="stroke:#000000;stroke-width:0.6;" x="76.720996" xlink:href="#mf58de29999" y="296.728"/>
      </g>
     </g>
    </g>
    <g id="xtick_7">
     <g id="line2d_7">
      <g>
       <use style="stroke:#000000;stroke-width:0.6;" x="85.96318" xlink:href="#mf58de29999" y="296.728"/>
      </g>
     </g>
    </g>
    <g id="xtick_8">
     <g id="line2d_8">
      <g>
       <use style="stroke:#000000;stroke-width:0.6;" x="93.514595" xlink:href="#mf58de29999" y="296.728"/>
      </g>
     </g>
    </g>
    <g id="xtick_9">
     <g id="line2d_9">
      <g>
       <use style="stroke:#000000;stroke-width:0.6;" x="99.899225" xlink:href="#mf58de29999" y="296.728"/>
      </g>
     </g>
    </g>
    <g id="xtick_10">
     <g id="line2d_10">
      <g>
       <use style="stroke:#000000;stroke-width:0.6;" x="105.429843" xlink:href="#mf58de29999" y="296.728"/>
      </g>
     </g>
    </g>
    <g id="xtick_11">
     <g id="line2d_11">
      <g>
       <use style="stroke:#000000;stroke-width:0.6;" x="110.308194" xlink:href="#mf58de29999" y="296.728"/>
      </g>
     </g>
    </g>
    <g id="xtick_12">
     <g id="line2d_12">
      <g>
       <use style="stroke:#000000;stroke-width:0.6;" x="143.380874" xlink:href="#mf58de29999" y="296.728"/>
      </g>
     </g>
    </g>
    <g id="xtick_13">
     <g id="line2d_13">
      <g>
       <use style="stroke:#000000;stroke-width:0.6;" x="160.174473" xlink:href="#mf58de29999" y="296.728"/>
      </g>
     </g>
    </g>
    <g id="xtick_14">
     <g id="line2d_14">
      <g>
       <use style="stroke:#000000;stroke-width:0.6;" x="172.089721" xlink:href="#mf58de29999" y="296.728"/>
      </g>
     </g>
    </g>
    <g id="xtick_15">
     <g id="line2d_15">
      <g>
       <use style="stroke:#000000;stroke-width:0.6;" x="181.331906" xlink:href="#mf58de29999" y="296.728"/>
      </g>
     </g>
    </g>
    <g id="xtick_16">
     <g id="line2d_16">
      <g>
       <use style="stroke:#000000;stroke-width:0.6;" x="188.883321" xlink:href="#mf58de29999" y="296.728"/>
      </g>
     </g>
    </g>
    <g id="xtick_17">
     <g id="line2d_17">
      <g>
       <use style="stroke:#000000;stroke-width:0.6;" x="195.267951" xlink:href="#mf58de29999" y="296.728"/>
      </g>
     </g>
    </g>
    <g id="xtick_18">
     <g id="line2d_18">
      <g>
       <use style="stroke:#000000;stroke-width:0.6;" x="200.798569" xlink:href="#mf58de29999" y="296.728"/>
      </g>
     </g>
    </g>
    <g id="xtick_19">
     <g id="line2d_19">
      <g>
       <use style="stroke:#000000;stroke-width:0.6;" x="205.67692" xlink:href="#mf58de29999" y="296.728"/>
      </g>
     </g>
    </g>
    <g id="xtick_20">
     <g id="line2d_20">
      <g>
       <use style="stroke:#000000;stroke-width:0.6;" x="238.7496" xlink:href="#mf58de29999" y="296.728"/>
      </g>
     </g>
    </g>
    <g id="xtick_21">
     <g id="line2d_21">
      <g>
       <use style="stroke:#000000;stroke-width:0.6;" x="255.543199" xlink:href="#mf58de29999" y="296.728"/>
      </g>
     </g>
    </g>
    <g id="xtick_22">
     <g id="line2d_22">
      <g>
       <use style="stroke:#000000;stroke-width:0.6;" x="267.458447" xlink:href="#mf58de29999" y="296.728"/>
      </g>
     </g>
    </g>
    <g id="xtick_23">
     <g id="line2d_23">
      <g>
       <use style="stroke:#000000;stroke-width:0.6;" x="276.700632" xlink:href="#mf58de29999" y="296.728"/>
      </g>
     </g>
    </g>
    <g id="xtick_24">
     <g id="line2d_24">
      <g>
       <use style="stroke:#000000;stroke-width:0.6;" x="284.252047" xlink:href="#mf58de29999" y="296.728"/>
      </g>
     </g>
    </g>
    <g id="xtick_25">
     <g id="line2d_25">
      <g>
       <use style="stroke:#000000;stroke-width:0.6;" x="290.636677" xlink:href="#mf58de29999" y="296.728"/>
      </g>
     </g>
    </g>
    <g id="xtick_26">
     <g id="line2d_26">
      <g>
       <use style="stroke:#000000;stroke-width:0.6;" x="296.167295" xlink:href="#mf58de29999" y="296.728"/>
      </g>
     </g>
    </g>
    <g id="xtick_27">
     <g id="line2d_27">
      <g>
       <use style="stroke:#000000;stroke-width:0.6;" x="301.045646" xlink:href="#mf58de29999" y="296.728"/>
      </g>
     </g>
    </g>
    <g id="xtick_28">
     <g id="line2d_28">
      <g>
       <use style="stroke:#000000;stroke-width:0.6;" x="334.118326" xlink:href="#mf58de29999" y="296.728"/>
      </g>
     </g>
    </g>
    <g id="xtick_29">
     <g id="line2d_29">
      <g>
       <use style="stroke:#000000;stroke-width:0.6;" x="350.911925" xlink:href="#mf58de29999" y="296.728"/>
      </g>
     </g>
    </g>
    <g id="xtick_30">
     <g id="line2d_30">
      <g>
       <use style="stroke:#000000;stroke-width:0.6;" x="362.827173" xlink:href="#mf58de29999" y="296.728"/>
      </g>
     </g>
    </g>
    <g id="xtick_31">
     <g id="line2d_31">
      <g>
       <use style="stroke:#000000;stroke-width:0.6;" x="372.069358" xlink:href="#mf58de29999" y="296.728"/>
      </g>
     </g>
    </g>
    <g id="xtick_32">
     <g id="line2d_32">
      <g>
       <use style="stroke:#000000;stroke-width:0.6;" x="379.620772" xlink:href="#mf58de29999" y="296.728"/>
      </g>
     </g>
    </g>
    <g id="xtick_33">
     <g id="line2d_33">
      <g>
       <use style="stroke:#000000;stroke-width:0.6;" x="386.005403" xlink:href="#mf58de29999" y="296.728"/>
      </g>
     </g>
    </g>
    <g id="xtick_34">
     <g id="line2d_34">
      <g>
       <use style="stroke:#000000;stroke-width:0.6;" x="391.536021" xlink:href="#mf58de29999" y="296.728"/>
      </g>
     </g>
    </g>
    <g id="xtick_35">
     <g id="line2d_35">
      <g>
       <use style="stroke:#000000;stroke-width:0.6;" x="396.414372" xlink:href="#mf58de29999" y="296.728"/>
      </g>
     </g>
    </g>
    <g id="xtick_36">
     <g id="line2d_36">
      <g>
       <use style="stroke:#000000;stroke-width:0.6;" x="429.487052" xlink:href="#mf58de29999" y="296.728"/>
      </g>
     </g>
    </g>
    <g id="xtick_37">
     <g id="line2d_37">
      <g>
       <use style="stroke:#000000;stroke-width:0.6;" x="446.280651" xlink:href="#mf58de29999" y="296.728"/>
      </g>
     </g>
    </g>
    <g id="text_5">
     <!-- Time [sec] -->
     <g transform="translate(218.879464 328.043937)scale(0.14 -0.14)">
      <defs>
       <path d="M -0.296875 72.90625 
L 61.375 72.90625 
L 61.375 64.59375 
L 35.5 64.59375 
L 35.5 0 
L 25.59375 0 
L 25.59375 64.59375 
L -0.296875 64.59375 
z
" id="DejaVuSans-84"/>
       <path d="M 9.421875 54.6875 
L 18.40625 54.6875 
L 18.40625 0 
L 9.421875 0 
z
M 9.421875 75.984375 
L 18.40625 75.984375 
L 18.40625 64.59375 
L 9.421875 64.59375 
z
" id="DejaVuSans-105"/>
       <path d="M 52 44.1875 
Q 55.375 50.25 60.0625 53.125 
Q 64.75 56 71.09375 56 
Q 79.640625 56 84.28125 50.015625 
Q 88.921875 44.046875 88.921875 33.015625 
L 88.921875 0 
L 79.890625 0 
L 79.890625 32.71875 
Q 79.890625 40.578125 77.09375 44.375 
Q 74.3125 48.1875 68.609375 48.1875 
Q 61.625 48.1875 57.5625 43.546875 
Q 53.515625 38.921875 53.515625 30.90625 
L 53.515625 0 
L 44.484375 0 
L 44.484375 32.71875 
Q 44.484375 40.625 41.703125 44.40625 
Q 38.921875 48.1875 33.109375 48.1875 
Q 26.21875 48.1875 22.15625 43.53125 
Q 18.109375 38.875 18.109375 30.90625 
L 18.109375 0 
L 9.078125 0 
L 9.078125 54.6875 
L 18.109375 54.6875 
L 18.109375 46.1875 
Q 21.1875 51.21875 25.484375 53.609375 
Q 29.78125 56 35.6875 56 
Q 41.65625 56 45.828125 52.96875 
Q 50 49.953125 52 44.1875 
z
" id="DejaVuSans-109"/>
       <path d="M 56.203125 29.59375 
L 56.203125 25.203125 
L 14.890625 25.203125 
Q 15.484375 15.921875 20.484375 11.0625 
Q 25.484375 6.203125 34.421875 6.203125 
Q 39.59375 6.203125 44.453125 7.46875 
Q 49.3125 8.734375 54.109375 11.28125 
L 54.109375 2.78125 
Q 49.265625 0.734375 44.1875 -0.34375 
Q 39.109375 -1.421875 33.890625 -1.421875 
Q 20.796875 -1.421875 13.15625 6.1875 
Q 5.515625 13.8125 5.515625 26.8125 
Q 5.515625 40.234375 12.765625 48.109375 
Q 20.015625 56 32.328125 56 
Q 43.359375 56 49.78125 48.890625 
Q 56.203125 41.796875 56.203125 29.59375 
z
M 47.21875 32.234375 
Q 47.125 39.59375 43.09375 43.984375 
Q 39.0625 48.390625 32.421875 48.390625 
Q 24.90625 48.390625 20.390625 44.140625 
Q 15.875 39.890625 15.1875 32.171875 
z
" id="DejaVuSans-101"/>
       <path id="DejaVuSans-32"/>
       <path d="M 8.59375 75.984375 
L 29.296875 75.984375 
L 29.296875 69 
L 17.578125 69 
L 17.578125 -6.203125 
L 29.296875 -6.203125 
L 29.296875 -13.1875 
L 8.59375 -13.1875 
z
" id="DejaVuSans-91"/>
       <path d="M 44.28125 53.078125 
L 44.28125 44.578125 
Q 40.484375 46.53125 36.375 47.5 
Q 32.28125 48.484375 27.875 48.484375 
Q 21.1875 48.484375 17.84375 46.4375 
Q 14.5 44.390625 14.5 40.28125 
Q 14.5 37.15625 16.890625 35.375 
Q 19.28125 33.59375 26.515625 31.984375 
L 29.59375 31.296875 
Q 39.15625 29.25 43.1875 25.515625 
Q 47.21875 21.78125 47.21875 15.09375 
Q 47.21875 7.46875 41.1875 3.015625 
Q 35.15625 -1.421875 24.609375 -1.421875 
Q 20.21875 -1.421875 15.453125 -0.5625 
Q 10.6875 0.296875 5.421875 2 
L 5.421875 11.28125 
Q 10.40625 8.6875 15.234375 7.390625 
Q 20.0625 6.109375 24.8125 6.109375 
Q 31.15625 6.109375 34.5625 8.28125 
Q 37.984375 10.453125 37.984375 14.40625 
Q 37.984375 18.0625 35.515625 20.015625 
Q 33.0625 21.96875 24.703125 23.78125 
L 21.578125 24.515625 
Q 13.234375 26.265625 9.515625 29.90625 
Q 5.8125 33.546875 5.8125 39.890625 
Q 5.8125 47.609375 11.28125 51.796875 
Q 16.75 56 26.8125 56 
Q 31.78125 56 36.171875 55.265625 
Q 40.578125 54.546875 44.28125 53.078125 
z
" id="DejaVuSans-115"/>
       <path d="M 48.78125 52.59375 
L 48.78125 44.1875 
Q 44.96875 46.296875 41.140625 47.34375 
Q 37.3125 48.390625 33.40625 48.390625 
Q 24.65625 48.390625 19.8125 42.84375 
Q 14.984375 37.3125 14.984375 27.296875 
Q 14.984375 17.28125 19.8125 11.734375 
Q 24.65625 6.203125 33.40625 6.203125 
Q 37.3125 6.203125 41.140625 7.25 
Q 44.96875 8.296875 48.78125 10.40625 
L 48.78125 2.09375 
Q 45.015625 0.34375 40.984375 -0.53125 
Q 36.96875 -1.421875 32.421875 -1.421875 
Q 20.0625 -1.421875 12.78125 6.34375 
Q 5.515625 14.109375 5.515625 27.296875 
Q 5.515625 40.671875 12.859375 48.328125 
Q 20.21875 56 33.015625 56 
Q 37.15625 56 41.109375 55.140625 
Q 45.0625 54.296875 48.78125 52.59375 
z
" id="DejaVuSans-99"/>
       <path d="M 30.421875 75.984375 
L 30.421875 -13.1875 
L 9.71875 -13.1875 
L 9.71875 -6.203125 
L 21.390625 -6.203125 
L 21.390625 69 
L 9.71875 69 
L 9.71875 75.984375 
z
" id="DejaVuSans-93"/>
      </defs>
      <use xlink:href="#DejaVuSans-84"/>
      <use x="57.958984" xlink:href="#DejaVuSans-105"/>
      <use x="85.742188" xlink:href="#DejaVuSans-109"/>
      <use x="183.154297" xlink:href="#DejaVuSans-101"/>
      <use x="244.677734" xlink:href="#DejaVuSans-32"/>
      <use x="276.464844" xlink:href="#DejaVuSans-91"/>
      <use x="315.478516" xlink:href="#DejaVuSans-115"/>
      <use x="367.578125" xlink:href="#DejaVuSans-101"/>
      <use x="429.101562" xlink:href="#DejaVuSans-99"/>
      <use x="484.082031" xlink:href="#DejaVuSans-93"/>
     </g>
    </g>
   </g>
   <g id="matplotlib.axis_2">
    <g id="ytick_1">
     <g id="line2d_38">
      <defs>
       <path d="M 0 0 
L -3.5 0 
" id="m537594182f" style="stroke:#000000;stroke-width:0.8;"/>
      </defs>
      <g>
       <use style="stroke:#000000;stroke-width:0.8;" x="60.992054" xlink:href="#m537594182f" y="269.727215"/>
      </g>
     </g>
     <g id="text_6">
      <!-- $\mathdefault{10^{-9}}$ -->
      <g transform="translate(30.492054 273.526434)scale(0.1 -0.1)">
       <defs>
        <path d="M 10.984375 1.515625 
L 10.984375 10.5 
Q 14.703125 8.734375 18.5 7.8125 
Q 22.3125 6.890625 25.984375 6.890625 
Q 35.75 6.890625 40.890625 13.453125 
Q 46.046875 20.015625 46.78125 33.40625 
Q 43.953125 29.203125 39.59375 26.953125 
Q 35.25 24.703125 29.984375 24.703125 
Q 19.046875 24.703125 12.671875 31.3125 
Q 6.296875 37.9375 6.296875 49.421875 
Q 6.296875 60.640625 12.9375 67.421875 
Q 19.578125 74.21875 30.609375 74.21875 
Q 43.265625 74.21875 49.921875 64.515625 
Q 56.59375 54.828125 56.59375 36.375 
Q 56.59375 19.140625 48.40625 8.859375 
Q 40.234375 -1.421875 26.421875 -1.421875 
Q 22.703125 -1.421875 18.890625 -0.6875 
Q 15.09375 0.046875 10.984375 1.515625 
z
M 30.609375 32.421875 
Q 37.25 32.421875 41.125 36.953125 
Q 45.015625 41.5 45.015625 49.421875 
Q 45.015625 57.28125 41.125 61.84375 
Q 37.25 66.40625 30.609375 66.40625 
Q 23.96875 66.40625 20.09375 61.84375 
Q 16.21875 57.28125 16.21875 49.421875 
Q 16.21875 41.5 20.09375 36.953125 
Q 23.96875 32.421875 30.609375 32.421875 
z
" id="DejaVuSans-57"/>
       </defs>
       <use transform="translate(0 0.765625)" xlink:href="#DejaVuSans-49"/>
       <use transform="translate(63.623047 0.765625)" xlink:href="#DejaVuSans-48"/>
       <use transform="translate(128.203125 39.046875)scale(0.7)" xlink:href="#DejaVuSans-8722"/>
       <use transform="translate(186.855469 39.046875)scale(0.7)" xlink:href="#DejaVuSans-57"/>
      </g>
     </g>
    </g>
    <g id="ytick_2">
     <g id="line2d_39">
      <g>
       <use style="stroke:#000000;stroke-width:0.8;" x="60.992054" xlink:href="#m537594182f" y="238.990835"/>
      </g>
     </g>
     <g id="text_7">
      <!-- $\mathdefault{10^{-7}}$ -->
      <g transform="translate(30.492054 242.790054)scale(0.1 -0.1)">
       <defs>
        <path d="M 8.203125 72.90625 
L 55.078125 72.90625 
L 55.078125 68.703125 
L 28.609375 0 
L 18.3125 0 
L 43.21875 64.59375 
L 8.203125 64.59375 
z
" id="DejaVuSans-55"/>
       </defs>
       <use transform="translate(0 0.684375)" xlink:href="#DejaVuSans-49"/>
       <use transform="translate(63.623047 0.684375)" xlink:href="#DejaVuSans-48"/>
       <use transform="translate(128.203125 38.965625)scale(0.7)" xlink:href="#DejaVuSans-8722"/>
       <use transform="translate(186.855469 38.965625)scale(0.7)" xlink:href="#DejaVuSans-55"/>
      </g>
     </g>
    </g>
    <g id="ytick_3">
     <g id="line2d_40">
      <g>
       <use style="stroke:#000000;stroke-width:0.8;" x="60.992054" xlink:href="#m537594182f" y="208.254455"/>
      </g>
     </g>
     <g id="text_8">
      <!-- $\mathdefault{10^{-5}}$ -->
      <g transform="translate(30.492054 212.053674)scale(0.1 -0.1)">
       <defs>
        <path d="M 10.796875 72.90625 
L 49.515625 72.90625 
L 49.515625 64.59375 
L 19.828125 64.59375 
L 19.828125 46.734375 
Q 21.96875 47.46875 24.109375 47.828125 
Q 26.265625 48.1875 28.421875 48.1875 
Q 40.625 48.1875 47.75 41.5 
Q 54.890625 34.8125 54.890625 23.390625 
Q 54.890625 11.625 47.5625 5.09375 
Q 40.234375 -1.421875 26.90625 -1.421875 
Q 22.3125 -1.421875 17.546875 -0.640625 
Q 12.796875 0.140625 7.71875 1.703125 
L 7.71875 11.625 
Q 12.109375 9.234375 16.796875 8.0625 
Q 21.484375 6.890625 26.703125 6.890625 
Q 35.15625 6.890625 40.078125 11.328125 
Q 45.015625 15.765625 45.015625 23.390625 
Q 45.015625 31 40.078125 35.4375 
Q 35.15625 39.890625 26.703125 39.890625 
Q 22.75 39.890625 18.8125 39.015625 
Q 14.890625 38.140625 10.796875 36.28125 
z
" id="DejaVuSans-53"/>
       </defs>
       <use transform="translate(0 0.684375)" xlink:href="#DejaVuSans-49"/>
       <use transform="translate(63.623047 0.684375)" xlink:href="#DejaVuSans-48"/>
       <use transform="translate(128.203125 38.965625)scale(0.7)" xlink:href="#DejaVuSans-8722"/>
       <use transform="translate(186.855469 38.965625)scale(0.7)" xlink:href="#DejaVuSans-53"/>
      </g>
     </g>
    </g>
    <g id="ytick_4">
     <g id="line2d_41">
      <g>
       <use style="stroke:#000000;stroke-width:0.8;" x="60.992054" xlink:href="#m537594182f" y="177.518075"/>
      </g>
     </g>
     <g id="text_9">
      <!-- $\mathdefault{10^{-3}}$ -->
      <g transform="translate(30.492054 181.317294)scale(0.1 -0.1)">
       <defs>
        <path d="M 40.578125 39.3125 
Q 47.65625 37.796875 51.625 33 
Q 55.609375 28.21875 55.609375 21.1875 
Q 55.609375 10.40625 48.1875 4.484375 
Q 40.765625 -1.421875 27.09375 -1.421875 
Q 22.515625 -1.421875 17.65625 -0.515625 
Q 12.796875 0.390625 7.625 2.203125 
L 7.625 11.71875 
Q 11.71875 9.328125 16.59375 8.109375 
Q 21.484375 6.890625 26.8125 6.890625 
Q 36.078125 6.890625 40.9375 10.546875 
Q 45.796875 14.203125 45.796875 21.1875 
Q 45.796875 27.640625 41.28125 31.265625 
Q 36.765625 34.90625 28.71875 34.90625 
L 20.21875 34.90625 
L 20.21875 43.015625 
L 29.109375 43.015625 
Q 36.375 43.015625 40.234375 45.921875 
Q 44.09375 48.828125 44.09375 54.296875 
Q 44.09375 59.90625 40.109375 62.90625 
Q 36.140625 65.921875 28.71875 65.921875 
Q 24.65625 65.921875 20.015625 65.03125 
Q 15.375 64.15625 9.8125 62.3125 
L 9.8125 71.09375 
Q 15.4375 72.65625 20.34375 73.4375 
Q 25.25 74.21875 29.59375 74.21875 
Q 40.828125 74.21875 47.359375 69.109375 
Q 53.90625 64.015625 53.90625 55.328125 
Q 53.90625 49.265625 50.4375 45.09375 
Q 46.96875 40.921875 40.578125 39.3125 
z
" id="DejaVuSans-51"/>
       </defs>
       <use transform="translate(0 0.765625)" xlink:href="#DejaVuSans-49"/>
       <use transform="translate(63.623047 0.765625)" xlink:href="#DejaVuSans-48"/>
       <use transform="translate(128.203125 39.046875)scale(0.7)" xlink:href="#DejaVuSans-8722"/>
       <use transform="translate(186.855469 39.046875)scale(0.7)" xlink:href="#DejaVuSans-51"/>
      </g>
     </g>
    </g>
    <g id="ytick_5">
     <g id="line2d_42">
      <g>
       <use style="stroke:#000000;stroke-width:0.8;" x="60.992054" xlink:href="#m537594182f" y="146.781695"/>
      </g>
     </g>
     <g id="text_10">
      <!-- $\mathdefault{10^{-1}}$ -->
      <g transform="translate(30.492054 150.580914)scale(0.1 -0.1)">
       <use transform="translate(0 0.684375)" xlink:href="#DejaVuSans-49"/>
       <use transform="translate(63.623047 0.684375)" xlink:href="#DejaVuSans-48"/>
       <use transform="translate(128.203125 38.965625)scale(0.7)" xlink:href="#DejaVuSans-8722"/>
       <use transform="translate(186.855469 38.965625)scale(0.7)" xlink:href="#DejaVuSans-49"/>
      </g>
     </g>
    </g>
    <g id="ytick_6">
     <g id="line2d_43">
      <g>
       <use style="stroke:#000000;stroke-width:0.8;" x="60.992054" xlink:href="#m537594182f" y="116.045315"/>
      </g>
     </g>
     <g id="text_11">
      <!-- $\mathdefault{10^{1}}$ -->
      <g transform="translate(36.392054 119.844534)scale(0.1 -0.1)">
       <use transform="translate(0 0.684375)" xlink:href="#DejaVuSans-49"/>
       <use transform="translate(63.623047 0.684375)" xlink:href="#DejaVuSans-48"/>
       <use transform="translate(128.203125 38.965625)scale(0.7)" xlink:href="#DejaVuSans-49"/>
      </g>
     </g>
    </g>
    <g id="ytick_7">
     <g id="line2d_44">
      <g>
       <use style="stroke:#000000;stroke-width:0.8;" x="60.992054" xlink:href="#m537594182f" y="85.308935"/>
      </g>
     </g>
     <g id="text_12">
      <!-- $\mathdefault{10^{3}}$ -->
      <g transform="translate(36.392054 89.108154)scale(0.1 -0.1)">
       <use transform="translate(0 0.765625)" xlink:href="#DejaVuSans-49"/>
       <use transform="translate(63.623047 0.765625)" xlink:href="#DejaVuSans-48"/>
       <use transform="translate(128.203125 39.046875)scale(0.7)" xlink:href="#DejaVuSans-51"/>
      </g>
     </g>
    </g>
    <g id="ytick_8">
     <g id="line2d_45">
      <g>
       <use style="stroke:#000000;stroke-width:0.8;" x="60.992054" xlink:href="#m537594182f" y="54.572555"/>
      </g>
     </g>
     <g id="text_13">
      <!-- $\mathdefault{10^{5}}$ -->
      <g transform="translate(36.392054 58.371774)scale(0.1 -0.1)">
       <use transform="translate(0 0.684375)" xlink:href="#DejaVuSans-49"/>
       <use transform="translate(63.623047 0.684375)" xlink:href="#DejaVuSans-48"/>
       <use transform="translate(128.203125 38.965625)scale(0.7)" xlink:href="#DejaVuSans-53"/>
      </g>
     </g>
    </g>
    <g id="text_14">
     <!-- $F(x) - F(x*)$ -->
     <g transform="translate(23.580491 212.224)rotate(-90)scale(0.14 -0.14)">
      <defs>
       <path d="M 16.890625 72.90625 
L 58.6875 72.90625 
L 57.078125 64.59375 
L 25.09375 64.59375 
L 20.90625 43.109375 
L 49.8125 43.109375 
L 48.1875 34.8125 
L 19.28125 34.8125 
L 12.5 0 
L 2.6875 0 
z
" id="DejaVuSans-Oblique-70"/>
       <path d="M 31 75.875 
Q 24.46875 64.65625 21.28125 53.65625 
Q 18.109375 42.671875 18.109375 31.390625 
Q 18.109375 20.125 21.3125 9.0625 
Q 24.515625 -2 31 -13.1875 
L 23.1875 -13.1875 
Q 15.875 -1.703125 12.234375 9.375 
Q 8.59375 20.453125 8.59375 31.390625 
Q 8.59375 42.28125 12.203125 53.3125 
Q 15.828125 64.359375 23.1875 75.875 
z
" id="DejaVuSans-40"/>
       <path d="M 60.015625 54.6875 
L 34.90625 27.875 
L 50.296875 0 
L 39.984375 0 
L 28.421875 21.6875 
L 8.296875 0 
L -2.59375 0 
L 24.3125 28.8125 
L 10.015625 54.6875 
L 20.3125 54.6875 
L 30.8125 34.90625 
L 49.125 54.6875 
z
" id="DejaVuSans-Oblique-120"/>
       <path d="M 8.015625 75.875 
L 15.828125 75.875 
Q 23.140625 64.359375 26.78125 53.3125 
Q 30.421875 42.28125 30.421875 31.390625 
Q 30.421875 20.453125 26.78125 9.375 
Q 23.140625 -1.703125 15.828125 -13.1875 
L 8.015625 -13.1875 
Q 14.5 -2 17.703125 9.0625 
Q 20.90625 20.125 20.90625 31.390625 
Q 20.90625 42.671875 17.703125 53.65625 
Q 14.5 64.65625 8.015625 75.875 
z
" id="DejaVuSans-41"/>
       <path d="M 47.015625 60.890625 
L 29.5 51.421875 
L 47.015625 41.890625 
L 44.1875 37.109375 
L 27.78125 47.015625 
L 27.78125 28.609375 
L 22.21875 28.609375 
L 22.21875 47.015625 
L 5.8125 37.109375 
L 2.984375 41.890625 
L 20.515625 51.421875 
L 2.984375 60.890625 
L 5.8125 65.71875 
L 22.21875 55.8125 
L 22.21875 74.21875 
L 27.78125 74.21875 
L 27.78125 55.8125 
L 44.1875 65.71875 
z
" id="DejaVuSans-42"/>
      </defs>
      <use transform="translate(0 0.125)" xlink:href="#DejaVuSans-Oblique-70"/>
      <use transform="translate(57.519531 0.125)" xlink:href="#DejaVuSans-40"/>
      <use transform="translate(96.533203 0.125)" xlink:href="#DejaVuSans-Oblique-120"/>
      <use transform="translate(155.712891 0.125)" xlink:href="#DejaVuSans-41"/>
      <use transform="translate(214.208984 0.125)" xlink:href="#DejaVuSans-8722"/>
      <use transform="translate(317.480469 0.125)" xlink:href="#DejaVuSans-Oblique-70"/>
      <use transform="translate(375 0.125)" xlink:href="#DejaVuSans-40"/>
      <use transform="translate(414.013672 0.125)" xlink:href="#DejaVuSans-Oblique-120"/>
      <use transform="translate(492.675781 0.125)" xlink:href="#DejaVuSans-42"/>
      <use transform="translate(562.158203 0.125)" xlink:href="#DejaVuSans-41"/>
     </g>
    </g>
   </g>
   <g id="LineCollection_1">
    <path clip-path="url(#pacec12c959)" d="M 60.992054 285.095405 
L 450 285.095405 
" style="fill:none;stroke:#000000;stroke-dasharray:5.55,2.4;stroke-dashoffset:0;stroke-width:1.5;"/>
   </g>
   <g id="line2d_46">
    <path clip-path="url(#pacec12c959)" d="M 210.665571 284.080949 
L 211.477394 284.080949 
L 211.814044 283.294827 
L 212.557433 282.760596 
L 211.59336 284.080949 
L 212.794834 282.591617 
L 213.425126 284.97218 
L 211.771479 282.591617 
L 212.853851 282.933965 
L 212.457308 281.374745 
L 213.93355 284.080949 
L 209.610789 281.374745 
L 215.013601 283.294827 
L 213.205015 281.658801 
L 215.010476 282.933965 
L 214.426319 284.737969 
L 212.669904 283.482848 
L 212.239577 284.080949 
L 212.820194 284.080949 
L 212.177754 283.482848 
L 215.608795 284.737969 
L 213.451541 283.294827 
L 213.407519 284.97218 
L 214.681046 283.482848 
L 213.35502 281.515262 
L 214.84972 283.294827 
L 212.127669 281.102286 
L 216.1307 282.933965 
L 214.930056 280.588623 
L 215.518267 281.374745 
L 216.171443 284.080949 
L 215.797543 281.955486 
L 215.881953 282.933965 
L 214.590657 279.050034 
L 213.721329 278.668541 
L 216.103442 282.591617 
L 215.975015 284.080949 
L 216.297417 280.588623 
L 215.126339 284.97218 
L 218.645303 284.737969 
L 218.372967 284.080949 
L 216.68164 282.591617 
L 213.006084 279.997589 
L 215.919458 276.960359 
L 215.850433 274.880724 
L 211.195139 272.334073 
L 212.195841 266.771852 
L 210.224076 258.992062 
L 210.080161 256.162242 
L 207.298013 251.729615 
L 206.44551 244.734074 
L 205.415836 239.961574 
L 204.39405 233.025643 
L 203.502323 229.452964 
L 202.739968 224.815781 
L 202.306457 216.625282 
L 200.454207 212.86924 
L 197.821688 207.399501 
L 196.194478 202.7695 
L 194.914638 196.782726 
L 192.621513 191.974335 
L 193.988777 187.446095 
L 191.577718 182.855581 
L 189.07427 177.40494 
L 188.572044 171.49487 
L 184.437767 166.98606 
L 183.968119 162.984867 
L 180.647541 154.953538 
L 179.145627 151.293085 
L 174.792559 144.866278 
L 172.065615 140.304332 
L 169.944144 136.132398 
L 167.015344 131.982009 
L 164.72859 128.343175 
L 162.068484 122.739247 
L 157.453685 117.088609 
L 151.496837 116.880191 
L 149.457165 111.523683 
L 148.112094 111.289227 
L 144.480009 104.005198 
L 136.506752 102.312642 
L 135.267032 102.542823 
L 130.181438 92.656989 
L 113.19121 89.064072 
L 115.204597 88.774531 
L 79.944284 77.718995 
L 86.854245 77.725304 
" style="fill:none;stroke:#1f77b4;stroke-linecap:square;stroke-width:3;"/>
   </g>
   <g id="line2d_47">
    <path clip-path="url(#pacec12c959)" d="M 90.741093 60.350505 
L 103.800938 64.747442 
L 125.375236 67.665882 
L 133.224912 70.008678 
L 127.791957 73.934114 
L 141.35092 78.254337 
L 152.625358 83.776428 
L 158.092591 89.608176 
L 172.655367 97.061042 
L 189.678629 109.58991 
L 204.695393 121.190775 
L 222.73852 140.589409 
L 236.533548 157.172129 
L 249.50285 173.683924 
L 264.452599 186.56742 
L 279.864469 205.373192 
L 291.869645 233.477806 
L 308.052692 274.230276 
L 323.092395 285.214909 
L 339.400711 285.214909 
L 354.55841 285.214909 
L 370.679539 285.214909 
L 394.342875 284.97218 
" style="fill:none;stroke:#ff7f0e;stroke-linecap:square;stroke-width:3;"/>
   </g>
   <g id="line2d_48">
    <path clip-path="url(#pacec12c959)" d="M 111.306946 60.549982 
L 121.043571 66.73891 
L 130.780319 74.296738 
L 144.485059 81.532503 
L 148.159499 97.592678 
L 158.661166 140.195482 
L 172.390584 196.526588 
L 180.328933 276.278714 
L 192.517188 285.214909 
L 189.121696 285.214909 
L 189.440293 285.214909 
L 189.915059 285.214909 
L 191.235888 285.214909 
L 189.060265 285.214909 
" style="fill:none;stroke:#2ca02c;stroke-linecap:square;stroke-width:3;"/>
   </g>
   <g id="line2d_49">
    <path clip-path="url(#pacec12c959)" d="M 292.513026 57.792419 
L 300.086098 57.792419 
L 311.667231 57.792419 
L 334.12562 57.792419 
L 382.254048 77.329433 
L 406.531142 201.968499 
" style="fill:none;stroke:#d62728;stroke-linecap:square;stroke-width:3;"/>
   </g>
   <g id="line2d_50">
    <path clip-path="url(#pacec12c959)" d="M 137.262294 54.953091 
L 163.598338 61.947808 
L 131.778583 65.186612 
L 167.139116 66.002992 
L 169.918917 67.390995 
L 175.667418 68.650485 
L 177.311918 69.189988 
L 200.096555 69.189988 
L 225.401106 75.116762 
L 244.310698 81.054937 
L 259.396642 88.404687 
L 280.102477 101.671271 
L 304.101795 114.749662 
L 338.953733 143.869968 
L 363.575228 195.703157 
L 387.865818 240.803284 
L 410.35333 243.172797 
" style="fill:none;stroke:#9467bd;stroke-linecap:square;stroke-width:3;"/>
   </g>
   <g id="line2d_51">
    <path clip-path="url(#pacec12c959)" d="M 190.061498 54.953091 
L 183.268593 55.003318 
L 197.686207 55.003318 
L 184.104387 55.051489 
L 188.709875 55.09767 
L 196.668175 55.141929 
L 198.316547 55.254096 
L 196.482759 55.502282 
L 199.267968 55.864681 
L 212.064777 56.321133 
L 205.459087 57.346768 
L 212.533685 59.338128 
L 217.099665 62.327228 
L 223.213754 65.975373 
L 232.026948 70.53671 
L 250.567629 77.545597 
L 286.297482 90.242349 
L 283.36721 225.894266 
L 282.339155 225.894266 
L 284.351068 225.894266 
L 276.112341 225.894266 
L 275.943051 225.894266 
L 275.482631 225.894266 
" style="fill:none;stroke:#8c564b;stroke-linecap:square;stroke-width:3;"/>
   </g>
   <g id="line2d_52">
    <path clip-path="url(#pacec12c959)" d="M 198.12758 62.657186 
L 198.085361 64.279539 
L 197.01543 65.132747 
L 198.909085 65.756549 
L 196.848651 66.695801 
L 206.371502 67.71359 
L 203.5928 68.714468 
L 214.150805 69.827318 
L 218.830676 71.075974 
L 223.185187 72.456276 
L 237.288767 73.938146 
L 242.457355 75.468401 
L 250.559424 77.210819 
L 261.94952 79.187036 
L 271.226427 81.522013 
L 283.703137 84.382572 
L 296.067382 87.629272 
L 315.012846 91.668586 
L 324.89996 96.079571 
L 342.192896 100.828839 
L 359.10574 105.866535 
L 374.513641 109.850317 
L 387.280253 114.240083 
" style="fill:none;stroke:#e377c2;stroke-linecap:square;stroke-width:3;"/>
   </g>
   <g id="line2d_53">
    <path clip-path="url(#pacec12c959)" d="M 166.751899 57.72768 
L 165.824481 64.191507 
L 179.267285 64.796969 
L 173.470328 66.094559 
L 181.713813 67.87562 
L 193.65372 69.996689 
L 203.201493 72.368548 
L 214.840085 75.160195 
L 223.600402 78.856437 
L 237.409864 84.622262 
L 251.842902 91.535877 
L 267.38334 97.629864 
L 283.194537 104.895048 
L 298.33143 111.274753 
L 315.844258 123.583722 
L 338.632435 139.121137 
L 358.949073 161.503692 
L 370.925431 198.478933 
L 386.242884 252.514099 
" style="fill:none;stroke:#7f7f7f;stroke-linecap:square;stroke-width:3;"/>
   </g>
   <g id="line2d_54">
    <path clip-path="url(#pacec12c959)" d="M 113.781924 57.838515 
L 147.189768 61.08658 
L 151.334327 63.585089 
L 147.290582 65.346185 
L 150.271053 69.571558 
L 153.896115 71.585746 
L 153.524961 73.506602 
L 157.002804 74.05744 
L 156.634082 73.735739 
L 157.758257 75.773585 
L 162.294684 76.045029 
L 166.883031 75.070057 
L 172.299091 73.899403 
L 178.979671 74.810838 
L 189.086608 74.538882 
L 197.871297 74.967534 
L 208.754007 74.770361 
L 223.68413 76.165293 
L 230.238291 74.814482 
L 245.053296 75.85659 
L 254.295973 75.940232 
L 267.134411 74.340941 
L 276.700211 75.439588 
L 289.563395 75.204146 
L 303.740549 74.798426 
L 318.060983 74.876771 
L 331.588475 76.302728 
L 348.215646 74.445113 
L 365.24382 75.891345 
L 382.447215 75.084601 
" style="fill:none;stroke:#bcbd22;stroke-linecap:square;stroke-width:3;"/>
   </g>
   <g id="line2d_55">
    <path clip-path="url(#pacec12c959)" d="M 189.406282 62.657186 
L 191.943959 64.279539 
L 196.398333 65.132747 
L 196.830641 65.756549 
L 190.762939 66.695801 
L 201.407946 67.71359 
L 193.827162 68.714468 
L 196.999122 69.827318 
L 201.085785 71.075974 
L 204.237962 72.456276 
L 210.872132 73.938146 
L 222.046058 75.468401 
L 229.574034 77.210819 
L 245.445006 79.187036 
L 252.739455 81.522013 
L 269.025616 84.382572 
L 284.652698 87.629272 
L 299.025842 91.668586 
L 313.1685 96.079571 
L 328.483827 100.828839 
L 351.095814 105.866535 
L 372.242672 109.850317 
L 386.743349 114.240083 
" style="fill:none;stroke:#17becf;stroke-linecap:square;stroke-width:3;"/>
   </g>
   <g id="line2d_56">
    <path clip-path="url(#pacec12c959)" d="M 217.889988 62.657186 
L 218.973429 64.279539 
L 221.04247 65.333297 
L 219.97859 66.194482 
L 221.074304 67.644427 
L 221.780307 69.421117 
L 221.864888 71.381285 
L 224.471998 73.732723 
L 228.241212 76.494647 
L 220.773535 80.207685 
L 226.549693 85.543489 
L 233.571999 92.694653 
L 246.352914 101.331556 
L 257.400069 109.58457 
L 267.479406 121.459355 
L 280.955894 131.405797 
L 294.755323 140.761196 
L 308.970503 155.871721 
L 324.660818 164.370443 
L 342.21589 174.6266 
L 359.170835 187.347512 
L 374.613183 195.810805 
L 391.07159 212.954699 
" style="fill:none;stroke:#1f77b4;stroke-linecap:square;stroke-width:3;"/>
   </g>
   <g id="line2d_57">
    <path clip-path="url(#pacec12c959)" d="M 230.752695 62.657186 
L 243.018904 64.279539 
L 251.234691 65.132747 
L 256.054265 65.756549 
L 268.245938 66.695801 
L 281.782923 67.71359 
L 289.267922 68.714468 
L 306.108942 69.827318 
L 319.820116 71.075974 
L 335.643202 72.456276 
L 353.361804 73.938146 
L 372.063217 75.468401 
L 387.037856 77.210819 
" style="fill:none;stroke:#ff7f0e;stroke-linecap:square;stroke-width:3;"/>
   </g>
   <g id="line2d_58">
    <path clip-path="url(#pacec12c959)" d="M 130.088141 60.350505 
L 137.974511 64.747442 
L 132.646383 67.665882 
L 145.106615 70.008678 
L 143.602204 73.934114 
L 151.778027 78.254337 
L 158.900752 83.776428 
L 169.060971 89.608176 
L 178.083731 97.061042 
L 191.717985 109.58991 
L 204.471968 121.190775 
L 219.616094 140.589409 
L 234.358227 157.172129 
L 249.649712 173.683924 
L 262.163084 186.56742 
L 278.943236 205.373192 
L 292.486009 233.477912 
L 315.446545 274.135603 
L 324.246161 284.97218 
L 335.870773 285.214909 
L 351.623327 284.97218 
L 368.147495 285.214909 
L 384.743591 285.214909 
" style="fill:none;stroke:#2ca02c;stroke-linecap:square;stroke-width:3;"/>
   </g>
   <g id="line2d_59">
    <path clip-path="url(#pacec12c959)" d="M 392.514441 60.350505 
L 422.148155 64.747442 
" style="fill:none;stroke:#d62728;stroke-linecap:square;stroke-width:3;"/>
   </g>
   <g id="patch_3">
    <path d="M 60.992054 296.728 
L 60.992054 43.44 
" style="fill:none;stroke:#000000;stroke-linecap:square;stroke-linejoin:miter;stroke-width:0.8;"/>
   </g>
   <g id="patch_4">
    <path d="M 450 296.728 
L 450 43.44 
" style="fill:none;stroke:#000000;stroke-linecap:square;stroke-linejoin:miter;stroke-width:0.8;"/>
   </g>
   <g id="patch_5">
    <path d="M 60.992054 296.728 
L 450 296.728 
" style="fill:none;stroke:#000000;stroke-linecap:square;stroke-linejoin:miter;stroke-width:0.8;"/>
   </g>
   <g id="patch_6">
    <path d="M 60.992054 43.44 
L 450 43.44 
" style="fill:none;stroke:#000000;stroke-linecap:square;stroke-linejoin:miter;stroke-width:0.8;"/>
   </g>
   <g id="text_15">
    <!-- Lasso Regression[reg=0.1] -->
    <g transform="translate(161.289152 21.763062)scale(0.14 -0.14)">
     <defs>
      <path d="M 9.8125 72.90625 
L 19.671875 72.90625 
L 19.671875 8.296875 
L 55.171875 8.296875 
L 55.171875 0 
L 9.8125 0 
z
" id="DejaVuSans-76"/>
      <path d="M 34.28125 27.484375 
Q 23.390625 27.484375 19.1875 25 
Q 14.984375 22.515625 14.984375 16.5 
Q 14.984375 11.71875 18.140625 8.90625 
Q 21.296875 6.109375 26.703125 6.109375 
Q 34.1875 6.109375 38.703125 11.40625 
Q 43.21875 16.703125 43.21875 25.484375 
L 43.21875 27.484375 
z
M 52.203125 31.203125 
L 52.203125 0 
L 43.21875 0 
L 43.21875 8.296875 
Q 40.140625 3.328125 35.546875 0.953125 
Q 30.953125 -1.421875 24.3125 -1.421875 
Q 15.921875 -1.421875 10.953125 3.296875 
Q 6 8.015625 6 15.921875 
Q 6 25.140625 12.171875 29.828125 
Q 18.359375 34.515625 30.609375 34.515625 
L 43.21875 34.515625 
L 43.21875 35.40625 
Q 43.21875 41.609375 39.140625 45 
Q 35.0625 48.390625 27.6875 48.390625 
Q 23 48.390625 18.546875 47.265625 
Q 14.109375 46.140625 10.015625 43.890625 
L 10.015625 52.203125 
Q 14.9375 54.109375 19.578125 55.046875 
Q 24.21875 56 28.609375 56 
Q 40.484375 56 46.34375 49.84375 
Q 52.203125 43.703125 52.203125 31.203125 
z
" id="DejaVuSans-97"/>
      <path d="M 30.609375 48.390625 
Q 23.390625 48.390625 19.1875 42.75 
Q 14.984375 37.109375 14.984375 27.296875 
Q 14.984375 17.484375 19.15625 11.84375 
Q 23.34375 6.203125 30.609375 6.203125 
Q 37.796875 6.203125 41.984375 11.859375 
Q 46.1875 17.53125 46.1875 27.296875 
Q 46.1875 37.015625 41.984375 42.703125 
Q 37.796875 48.390625 30.609375 48.390625 
z
M 30.609375 56 
Q 42.328125 56 49.015625 48.375 
Q 55.71875 40.765625 55.71875 27.296875 
Q 55.71875 13.875 49.015625 6.21875 
Q 42.328125 -1.421875 30.609375 -1.421875 
Q 18.84375 -1.421875 12.171875 6.21875 
Q 5.515625 13.875 5.515625 27.296875 
Q 5.515625 40.765625 12.171875 48.375 
Q 18.84375 56 30.609375 56 
z
" id="DejaVuSans-111"/>
      <path d="M 44.390625 34.1875 
Q 47.5625 33.109375 50.5625 29.59375 
Q 53.5625 26.078125 56.59375 19.921875 
L 66.609375 0 
L 56 0 
L 46.6875 18.703125 
Q 43.0625 26.03125 39.671875 28.421875 
Q 36.28125 30.8125 30.421875 30.8125 
L 19.671875 30.8125 
L 19.671875 0 
L 9.8125 0 
L 9.8125 72.90625 
L 32.078125 72.90625 
Q 44.578125 72.90625 50.734375 67.671875 
Q 56.890625 62.453125 56.890625 51.90625 
Q 56.890625 45.015625 53.6875 40.46875 
Q 50.484375 35.9375 44.390625 34.1875 
z
M 19.671875 64.796875 
L 19.671875 38.921875 
L 32.078125 38.921875 
Q 39.203125 38.921875 42.84375 42.21875 
Q 46.484375 45.515625 46.484375 51.90625 
Q 46.484375 58.296875 42.84375 61.546875 
Q 39.203125 64.796875 32.078125 64.796875 
z
" id="DejaVuSans-82"/>
      <path d="M 45.40625 27.984375 
Q 45.40625 37.75 41.375 43.109375 
Q 37.359375 48.484375 30.078125 48.484375 
Q 22.859375 48.484375 18.828125 43.109375 
Q 14.796875 37.75 14.796875 27.984375 
Q 14.796875 18.265625 18.828125 12.890625 
Q 22.859375 7.515625 30.078125 7.515625 
Q 37.359375 7.515625 41.375 12.890625 
Q 45.40625 18.265625 45.40625 27.984375 
z
M 54.390625 6.78125 
Q 54.390625 -7.171875 48.1875 -13.984375 
Q 42 -20.796875 29.203125 -20.796875 
Q 24.46875 -20.796875 20.265625 -20.09375 
Q 16.0625 -19.390625 12.109375 -17.921875 
L 12.109375 -9.1875 
Q 16.0625 -11.328125 19.921875 -12.34375 
Q 23.78125 -13.375 27.78125 -13.375 
Q 36.625 -13.375 41.015625 -8.765625 
Q 45.40625 -4.15625 45.40625 5.171875 
L 45.40625 9.625 
Q 42.625 4.78125 38.28125 2.390625 
Q 33.9375 0 27.875 0 
Q 17.828125 0 11.671875 7.65625 
Q 5.515625 15.328125 5.515625 27.984375 
Q 5.515625 40.671875 11.671875 48.328125 
Q 17.828125 56 27.875 56 
Q 33.9375 56 38.28125 53.609375 
Q 42.625 51.21875 45.40625 46.390625 
L 45.40625 54.6875 
L 54.390625 54.6875 
z
" id="DejaVuSans-103"/>
      <path d="M 41.109375 46.296875 
Q 39.59375 47.171875 37.8125 47.578125 
Q 36.03125 48 33.890625 48 
Q 26.265625 48 22.1875 43.046875 
Q 18.109375 38.09375 18.109375 28.8125 
L 18.109375 0 
L 9.078125 0 
L 9.078125 54.6875 
L 18.109375 54.6875 
L 18.109375 46.1875 
Q 20.953125 51.171875 25.484375 53.578125 
Q 30.03125 56 36.53125 56 
Q 37.453125 56 38.578125 55.875 
Q 39.703125 55.765625 41.0625 55.515625 
z
" id="DejaVuSans-114"/>
      <path d="M 54.890625 33.015625 
L 54.890625 0 
L 45.90625 0 
L 45.90625 32.71875 
Q 45.90625 40.484375 42.875 44.328125 
Q 39.84375 48.1875 33.796875 48.1875 
Q 26.515625 48.1875 22.3125 43.546875 
Q 18.109375 38.921875 18.109375 30.90625 
L 18.109375 0 
L 9.078125 0 
L 9.078125 54.6875 
L 18.109375 54.6875 
L 18.109375 46.1875 
Q 21.34375 51.125 25.703125 53.5625 
Q 30.078125 56 35.796875 56 
Q 45.21875 56 50.046875 50.171875 
Q 54.890625 44.34375 54.890625 33.015625 
z
" id="DejaVuSans-110"/>
      <path d="M 10.59375 45.40625 
L 73.1875 45.40625 
L 73.1875 37.203125 
L 10.59375 37.203125 
z
M 10.59375 25.484375 
L 73.1875 25.484375 
L 73.1875 17.1875 
L 10.59375 17.1875 
z
" id="DejaVuSans-61"/>
      <path d="M 10.6875 12.40625 
L 21 12.40625 
L 21 0 
L 10.6875 0 
z
" id="DejaVuSans-46"/>
     </defs>
     <use xlink:href="#DejaVuSans-76"/>
     <use x="55.712891" xlink:href="#DejaVuSans-97"/>
     <use x="116.992188" xlink:href="#DejaVuSans-115"/>
     <use x="169.091797" xlink:href="#DejaVuSans-115"/>
     <use x="221.191406" xlink:href="#DejaVuSans-111"/>
     <use x="282.373047" xlink:href="#DejaVuSans-32"/>
     <use x="314.160156" xlink:href="#DejaVuSans-82"/>
     <use x="379.142578" xlink:href="#DejaVuSans-101"/>
     <use x="440.666016" xlink:href="#DejaVuSans-103"/>
     <use x="504.142578" xlink:href="#DejaVuSans-114"/>
     <use x="543.005859" xlink:href="#DejaVuSans-101"/>
     <use x="604.529297" xlink:href="#DejaVuSans-115"/>
     <use x="656.628906" xlink:href="#DejaVuSans-115"/>
     <use x="708.728516" xlink:href="#DejaVuSans-105"/>
     <use x="736.511719" xlink:href="#DejaVuSans-111"/>
     <use x="797.693359" xlink:href="#DejaVuSans-110"/>
     <use x="861.072266" xlink:href="#DejaVuSans-91"/>
     <use x="900.085938" xlink:href="#DejaVuSans-114"/>
     <use x="938.949219" xlink:href="#DejaVuSans-101"/>
     <use x="1000.472656" xlink:href="#DejaVuSans-103"/>
     <use x="1063.949219" xlink:href="#DejaVuSans-61"/>
     <use x="1147.738281" xlink:href="#DejaVuSans-48"/>
     <use x="1211.361328" xlink:href="#DejaVuSans-46"/>
     <use x="1243.148438" xlink:href="#DejaVuSans-49"/>
     <use x="1306.771484" xlink:href="#DejaVuSans-93"/>
    </g>
    <!-- Data: Simulated[n_samples=100,n_features=10000,rho=0.6] -->
    <g transform="translate(39.196027 37.44)scale(0.14 -0.14)">
     <defs>
      <path d="M 19.671875 64.796875 
L 19.671875 8.109375 
L 31.59375 8.109375 
Q 46.6875 8.109375 53.6875 14.9375 
Q 60.6875 21.78125 60.6875 36.53125 
Q 60.6875 51.171875 53.6875 57.984375 
Q 46.6875 64.796875 31.59375 64.796875 
z
M 9.8125 72.90625 
L 30.078125 72.90625 
Q 51.265625 72.90625 61.171875 64.09375 
Q 71.09375 55.28125 71.09375 36.53125 
Q 71.09375 17.671875 61.125 8.828125 
Q 51.171875 0 30.078125 0 
L 9.8125 0 
z
" id="DejaVuSans-68"/>
      <path d="M 18.3125 70.21875 
L 18.3125 54.6875 
L 36.8125 54.6875 
L 36.8125 47.703125 
L 18.3125 47.703125 
L 18.3125 18.015625 
Q 18.3125 11.328125 20.140625 9.421875 
Q 21.96875 7.515625 27.59375 7.515625 
L 36.8125 7.515625 
L 36.8125 0 
L 27.59375 0 
Q 17.1875 0 13.234375 3.875 
Q 9.28125 7.765625 9.28125 18.015625 
L 9.28125 47.703125 
L 2.6875 47.703125 
L 2.6875 54.6875 
L 9.28125 54.6875 
L 9.28125 70.21875 
z
" id="DejaVuSans-116"/>
      <path d="M 11.71875 12.40625 
L 22.015625 12.40625 
L 22.015625 0 
L 11.71875 0 
z
M 11.71875 51.703125 
L 22.015625 51.703125 
L 22.015625 39.3125 
L 11.71875 39.3125 
z
" id="DejaVuSans-58"/>
      <path d="M 53.515625 70.515625 
L 53.515625 60.890625 
Q 47.90625 63.578125 42.921875 64.890625 
Q 37.9375 66.21875 33.296875 66.21875 
Q 25.25 66.21875 20.875 63.09375 
Q 16.5 59.96875 16.5 54.203125 
Q 16.5 49.359375 19.40625 46.890625 
Q 22.3125 44.4375 30.421875 42.921875 
L 36.375 41.703125 
Q 47.40625 39.59375 52.65625 34.296875 
Q 57.90625 29 57.90625 20.125 
Q 57.90625 9.515625 50.796875 4.046875 
Q 43.703125 -1.421875 29.984375 -1.421875 
Q 24.8125 -1.421875 18.96875 -0.25 
Q 13.140625 0.921875 6.890625 3.21875 
L 6.890625 13.375 
Q 12.890625 10.015625 18.65625 8.296875 
Q 24.421875 6.59375 29.984375 6.59375 
Q 38.421875 6.59375 43.015625 9.90625 
Q 47.609375 13.234375 47.609375 19.390625 
Q 47.609375 24.75 44.3125 27.78125 
Q 41.015625 30.8125 33.5 32.328125 
L 27.484375 33.5 
Q 16.453125 35.6875 11.515625 40.375 
Q 6.59375 45.0625 6.59375 53.421875 
Q 6.59375 63.09375 13.40625 68.65625 
Q 20.21875 74.21875 32.171875 74.21875 
Q 37.3125 74.21875 42.625 73.28125 
Q 47.953125 72.359375 53.515625 70.515625 
z
" id="DejaVuSans-83"/>
      <path d="M 8.5 21.578125 
L 8.5 54.6875 
L 17.484375 54.6875 
L 17.484375 21.921875 
Q 17.484375 14.15625 20.5 10.265625 
Q 23.53125 6.390625 29.59375 6.390625 
Q 36.859375 6.390625 41.078125 11.03125 
Q 45.3125 15.671875 45.3125 23.6875 
L 45.3125 54.6875 
L 54.296875 54.6875 
L 54.296875 0 
L 45.3125 0 
L 45.3125 8.40625 
Q 42.046875 3.421875 37.71875 1 
Q 33.40625 -1.421875 27.6875 -1.421875 
Q 18.265625 -1.421875 13.375 4.4375 
Q 8.5 10.296875 8.5 21.578125 
z
M 31.109375 56 
z
" id="DejaVuSans-117"/>
      <path d="M 9.421875 75.984375 
L 18.40625 75.984375 
L 18.40625 0 
L 9.421875 0 
z
" id="DejaVuSans-108"/>
      <path d="M 45.40625 46.390625 
L 45.40625 75.984375 
L 54.390625 75.984375 
L 54.390625 0 
L 45.40625 0 
L 45.40625 8.203125 
Q 42.578125 3.328125 38.25 0.953125 
Q 33.9375 -1.421875 27.875 -1.421875 
Q 17.96875 -1.421875 11.734375 6.484375 
Q 5.515625 14.40625 5.515625 27.296875 
Q 5.515625 40.1875 11.734375 48.09375 
Q 17.96875 56 27.875 56 
Q 33.9375 56 38.25 53.625 
Q 42.578125 51.265625 45.40625 46.390625 
z
M 14.796875 27.296875 
Q 14.796875 17.390625 18.875 11.75 
Q 22.953125 6.109375 30.078125 6.109375 
Q 37.203125 6.109375 41.296875 11.75 
Q 45.40625 17.390625 45.40625 27.296875 
Q 45.40625 37.203125 41.296875 42.84375 
Q 37.203125 48.484375 30.078125 48.484375 
Q 22.953125 48.484375 18.875 42.84375 
Q 14.796875 37.203125 14.796875 27.296875 
z
" id="DejaVuSans-100"/>
      <path d="M 50.984375 -16.609375 
L 50.984375 -23.578125 
L -0.984375 -23.578125 
L -0.984375 -16.609375 
z
" id="DejaVuSans-95"/>
      <path d="M 18.109375 8.203125 
L 18.109375 -20.796875 
L 9.078125 -20.796875 
L 9.078125 54.6875 
L 18.109375 54.6875 
L 18.109375 46.390625 
Q 20.953125 51.265625 25.265625 53.625 
Q 29.59375 56 35.59375 56 
Q 45.5625 56 51.78125 48.09375 
Q 58.015625 40.1875 58.015625 27.296875 
Q 58.015625 14.40625 51.78125 6.484375 
Q 45.5625 -1.421875 35.59375 -1.421875 
Q 29.59375 -1.421875 25.265625 0.953125 
Q 20.953125 3.328125 18.109375 8.203125 
z
M 48.6875 27.296875 
Q 48.6875 37.203125 44.609375 42.84375 
Q 40.53125 48.484375 33.40625 48.484375 
Q 26.265625 48.484375 22.1875 42.84375 
Q 18.109375 37.203125 18.109375 27.296875 
Q 18.109375 17.390625 22.1875 11.75 
Q 26.265625 6.109375 33.40625 6.109375 
Q 40.53125 6.109375 44.609375 11.75 
Q 48.6875 17.390625 48.6875 27.296875 
z
" id="DejaVuSans-112"/>
      <path d="M 11.71875 12.40625 
L 22.015625 12.40625 
L 22.015625 4 
L 14.015625 -11.625 
L 7.71875 -11.625 
L 11.71875 4 
z
" id="DejaVuSans-44"/>
      <path d="M 37.109375 75.984375 
L 37.109375 68.5 
L 28.515625 68.5 
Q 23.6875 68.5 21.796875 66.546875 
Q 19.921875 64.59375 19.921875 59.515625 
L 19.921875 54.6875 
L 34.71875 54.6875 
L 34.71875 47.703125 
L 19.921875 47.703125 
L 19.921875 0 
L 10.890625 0 
L 10.890625 47.703125 
L 2.296875 47.703125 
L 2.296875 54.6875 
L 10.890625 54.6875 
L 10.890625 58.5 
Q 10.890625 67.625 15.140625 71.796875 
Q 19.390625 75.984375 28.609375 75.984375 
z
" id="DejaVuSans-102"/>
      <path d="M 54.890625 33.015625 
L 54.890625 0 
L 45.90625 0 
L 45.90625 32.71875 
Q 45.90625 40.484375 42.875 44.328125 
Q 39.84375 48.1875 33.796875 48.1875 
Q 26.515625 48.1875 22.3125 43.546875 
Q 18.109375 38.921875 18.109375 30.90625 
L 18.109375 0 
L 9.078125 0 
L 9.078125 75.984375 
L 18.109375 75.984375 
L 18.109375 46.1875 
Q 21.34375 51.125 25.703125 53.5625 
Q 30.078125 56 35.796875 56 
Q 45.21875 56 50.046875 50.171875 
Q 54.890625 44.34375 54.890625 33.015625 
z
" id="DejaVuSans-104"/>
      <path d="M 33.015625 40.375 
Q 26.375 40.375 22.484375 35.828125 
Q 18.609375 31.296875 18.609375 23.390625 
Q 18.609375 15.53125 22.484375 10.953125 
Q 26.375 6.390625 33.015625 6.390625 
Q 39.65625 6.390625 43.53125 10.953125 
Q 47.40625 15.53125 47.40625 23.390625 
Q 47.40625 31.296875 43.53125 35.828125 
Q 39.65625 40.375 33.015625 40.375 
z
M 52.59375 71.296875 
L 52.59375 62.3125 
Q 48.875 64.0625 45.09375 64.984375 
Q 41.3125 65.921875 37.59375 65.921875 
Q 27.828125 65.921875 22.671875 59.328125 
Q 17.53125 52.734375 16.796875 39.40625 
Q 19.671875 43.65625 24.015625 45.921875 
Q 28.375 48.1875 33.59375 48.1875 
Q 44.578125 48.1875 50.953125 41.515625 
Q 57.328125 34.859375 57.328125 23.390625 
Q 57.328125 12.15625 50.6875 5.359375 
Q 44.046875 -1.421875 33.015625 -1.421875 
Q 20.359375 -1.421875 13.671875 8.265625 
Q 6.984375 17.96875 6.984375 36.375 
Q 6.984375 53.65625 15.1875 63.9375 
Q 23.390625 74.21875 37.203125 74.21875 
Q 40.921875 74.21875 44.703125 73.484375 
Q 48.484375 72.75 52.59375 71.296875 
z
" id="DejaVuSans-54"/>
     </defs>
     <use xlink:href="#DejaVuSans-68"/>
     <use x="77.001953" xlink:href="#DejaVuSans-97"/>
     <use x="138.28125" xlink:href="#DejaVuSans-116"/>
     <use x="177.490234" xlink:href="#DejaVuSans-97"/>
     <use x="238.769531" xlink:href="#DejaVuSans-58"/>
     <use x="272.460938" xlink:href="#DejaVuSans-32"/>
     <use x="304.248047" xlink:href="#DejaVuSans-83"/>
     <use x="367.724609" xlink:href="#DejaVuSans-105"/>
     <use x="395.507812" xlink:href="#DejaVuSans-109"/>
     <use x="492.919922" xlink:href="#DejaVuSans-117"/>
     <use x="556.298828" xlink:href="#DejaVuSans-108"/>
     <use x="584.082031" xlink:href="#DejaVuSans-97"/>
     <use x="645.361328" xlink:href="#DejaVuSans-116"/>
     <use x="684.570312" xlink:href="#DejaVuSans-101"/>
     <use x="746.09375" xlink:href="#DejaVuSans-100"/>
     <use x="809.570312" xlink:href="#DejaVuSans-91"/>
     <use x="848.583984" xlink:href="#DejaVuSans-110"/>
     <use x="911.962891" xlink:href="#DejaVuSans-95"/>
     <use x="961.962891" xlink:href="#DejaVuSans-115"/>
     <use x="1014.0625" xlink:href="#DejaVuSans-97"/>
     <use x="1075.341797" xlink:href="#DejaVuSans-109"/>
     <use x="1172.753906" xlink:href="#DejaVuSans-112"/>
     <use x="1236.230469" xlink:href="#DejaVuSans-108"/>
     <use x="1264.013672" xlink:href="#DejaVuSans-101"/>
     <use x="1325.537109" xlink:href="#DejaVuSans-115"/>
     <use x="1377.636719" xlink:href="#DejaVuSans-61"/>
     <use x="1461.425781" xlink:href="#DejaVuSans-49"/>
     <use x="1525.048828" xlink:href="#DejaVuSans-48"/>
     <use x="1588.671875" xlink:href="#DejaVuSans-48"/>
     <use x="1652.294922" xlink:href="#DejaVuSans-44"/>
     <use x="1684.082031" xlink:href="#DejaVuSans-110"/>
     <use x="1747.460938" xlink:href="#DejaVuSans-95"/>
     <use x="1797.460938" xlink:href="#DejaVuSans-102"/>
     <use x="1832.666016" xlink:href="#DejaVuSans-101"/>
     <use x="1894.189453" xlink:href="#DejaVuSans-97"/>
     <use x="1955.46875" xlink:href="#DejaVuSans-116"/>
     <use x="1994.677734" xlink:href="#DejaVuSans-117"/>
     <use x="2058.056641" xlink:href="#DejaVuSans-114"/>
     <use x="2096.919922" xlink:href="#DejaVuSans-101"/>
     <use x="2158.443359" xlink:href="#DejaVuSans-115"/>
     <use x="2210.542969" xlink:href="#DejaVuSans-61"/>
     <use x="2294.332031" xlink:href="#DejaVuSans-49"/>
     <use x="2357.955078" xlink:href="#DejaVuSans-48"/>
     <use x="2421.578125" xlink:href="#DejaVuSans-48"/>
     <use x="2485.201172" xlink:href="#DejaVuSans-48"/>
     <use x="2548.824219" xlink:href="#DejaVuSans-48"/>
     <use x="2612.447266" xlink:href="#DejaVuSans-44"/>
     <use x="2644.234375" xlink:href="#DejaVuSans-114"/>
     <use x="2683.597656" xlink:href="#DejaVuSans-104"/>
     <use x="2746.976562" xlink:href="#DejaVuSans-111"/>
     <use x="2808.158203" xlink:href="#DejaVuSans-61"/>
     <use x="2891.947266" xlink:href="#DejaVuSans-48"/>
     <use x="2955.570312" xlink:href="#DejaVuSans-46"/>
     <use x="2987.357422" xlink:href="#DejaVuSans-54"/>
     <use x="3050.980469" xlink:href="#DejaVuSans-93"/>
    </g>
   </g>
   <g id="legend_1">
    <g id="patch_7">
     <path d="M 135.920938 343.11 
L 440.2 343.11 
Q 443 343.11 443 340.31 
L 443 53.24 
Q 443 50.44 440.2 50.44 
L 135.920938 50.44 
Q 133.120938 50.44 133.120938 53.24 
L 133.120938 340.31 
Q 133.120938 343.11 135.920938 343.11 
z
" style="fill:#ffffff;opacity:0.8;stroke:#cccccc;stroke-linejoin:miter;"/>
    </g>
    <g id="line2d_60">
     <path d="M 138.720938 61.777812 
L 166.720938 61.777812 
" style="fill:none;stroke:#1f77b4;stroke-linecap:square;stroke-width:3;"/>
    </g>
    <g id="line2d_61"/>
    <g id="text_16">
     <!-- Blitz -->
     <g transform="translate(177.920938 66.677812)scale(0.14 -0.14)">
      <defs>
       <path d="M 19.671875 34.8125 
L 19.671875 8.109375 
L 35.5 8.109375 
Q 43.453125 8.109375 47.28125 11.40625 
Q 51.125 14.703125 51.125 21.484375 
Q 51.125 28.328125 47.28125 31.5625 
Q 43.453125 34.8125 35.5 34.8125 
z
M 19.671875 64.796875 
L 19.671875 42.828125 
L 34.28125 42.828125 
Q 41.5 42.828125 45.03125 45.53125 
Q 48.578125 48.25 48.578125 53.8125 
Q 48.578125 59.328125 45.03125 62.0625 
Q 41.5 64.796875 34.28125 64.796875 
z
M 9.8125 72.90625 
L 35.015625 72.90625 
Q 46.296875 72.90625 52.390625 68.21875 
Q 58.5 63.53125 58.5 54.890625 
Q 58.5 48.1875 55.375 44.234375 
Q 52.25 40.28125 46.1875 39.3125 
Q 53.46875 37.75 57.5 32.78125 
Q 61.53125 27.828125 61.53125 20.40625 
Q 61.53125 10.640625 54.890625 5.3125 
Q 48.25 0 35.984375 0 
L 9.8125 0 
z
" id="DejaVuSans-66"/>
       <path d="M 5.515625 54.6875 
L 48.1875 54.6875 
L 48.1875 46.484375 
L 14.40625 7.171875 
L 48.1875 7.171875 
L 48.1875 0 
L 4.296875 0 
L 4.296875 8.203125 
L 38.09375 47.515625 
L 5.515625 47.515625 
z
" id="DejaVuSans-122"/>
      </defs>
      <use xlink:href="#DejaVuSans-66"/>
      <use x="68.603516" xlink:href="#DejaVuSans-108"/>
      <use x="96.386719" xlink:href="#DejaVuSans-105"/>
      <use x="124.169922" xlink:href="#DejaVuSans-116"/>
      <use x="163.378906" xlink:href="#DejaVuSans-122"/>
     </g>
    </g>
    <g id="line2d_62">
     <path d="M 138.720938 82.327187 
L 166.720938 82.327187 
" style="fill:none;stroke:#ff7f0e;stroke-linecap:square;stroke-width:3;"/>
    </g>
    <g id="line2d_63"/>
    <g id="text_17">
     <!-- cd -->
     <g transform="translate(177.920938 87.227187)scale(0.14 -0.14)">
      <use xlink:href="#DejaVuSans-99"/>
      <use x="54.980469" xlink:href="#DejaVuSans-100"/>
     </g>
    </g>
    <g id="line2d_64">
     <path d="M 138.720938 102.876562 
L 166.720938 102.876562 
" style="fill:none;stroke:#2ca02c;stroke-linecap:square;stroke-width:3;"/>
    </g>
    <g id="line2d_65"/>
    <g id="text_18">
     <!-- Celer -->
     <g transform="translate(177.920938 107.776562)scale(0.14 -0.14)">
      <defs>
       <path d="M 64.40625 67.28125 
L 64.40625 56.890625 
Q 59.421875 61.53125 53.78125 63.8125 
Q 48.140625 66.109375 41.796875 66.109375 
Q 29.296875 66.109375 22.65625 58.46875 
Q 16.015625 50.828125 16.015625 36.375 
Q 16.015625 21.96875 22.65625 14.328125 
Q 29.296875 6.6875 41.796875 6.6875 
Q 48.140625 6.6875 53.78125 8.984375 
Q 59.421875 11.28125 64.40625 15.921875 
L 64.40625 5.609375 
Q 59.234375 2.09375 53.4375 0.328125 
Q 47.65625 -1.421875 41.21875 -1.421875 
Q 24.65625 -1.421875 15.125 8.703125 
Q 5.609375 18.84375 5.609375 36.375 
Q 5.609375 53.953125 15.125 64.078125 
Q 24.65625 74.21875 41.21875 74.21875 
Q 47.75 74.21875 53.53125 72.484375 
Q 59.328125 70.75 64.40625 67.28125 
z
" id="DejaVuSans-67"/>
      </defs>
      <use xlink:href="#DejaVuSans-67"/>
      <use x="69.824219" xlink:href="#DejaVuSans-101"/>
      <use x="131.347656" xlink:href="#DejaVuSans-108"/>
      <use x="159.130859" xlink:href="#DejaVuSans-101"/>
      <use x="220.654297" xlink:href="#DejaVuSans-114"/>
     </g>
    </g>
    <g id="line2d_66">
     <path d="M 138.720938 123.425937 
L 166.720938 123.425937 
" style="fill:none;stroke:#d62728;stroke-linecap:square;stroke-width:3;"/>
    </g>
    <g id="line2d_67"/>
    <g id="text_19">
     <!-- cvxpy -->
     <g transform="translate(177.920938 128.325937)scale(0.14 -0.14)">
      <defs>
       <path d="M 2.984375 54.6875 
L 12.5 54.6875 
L 29.59375 8.796875 
L 46.6875 54.6875 
L 56.203125 54.6875 
L 35.6875 0 
L 23.484375 0 
z
" id="DejaVuSans-118"/>
       <path d="M 54.890625 54.6875 
L 35.109375 28.078125 
L 55.90625 0 
L 45.3125 0 
L 29.390625 21.484375 
L 13.484375 0 
L 2.875 0 
L 24.125 28.609375 
L 4.6875 54.6875 
L 15.28125 54.6875 
L 29.78125 35.203125 
L 44.28125 54.6875 
z
" id="DejaVuSans-120"/>
       <path d="M 32.171875 -5.078125 
Q 28.375 -14.84375 24.75 -17.8125 
Q 21.140625 -20.796875 15.09375 -20.796875 
L 7.90625 -20.796875 
L 7.90625 -13.28125 
L 13.1875 -13.28125 
Q 16.890625 -13.28125 18.9375 -11.515625 
Q 21 -9.765625 23.484375 -3.21875 
L 25.09375 0.875 
L 2.984375 54.6875 
L 12.5 54.6875 
L 29.59375 11.921875 
L 46.6875 54.6875 
L 56.203125 54.6875 
z
" id="DejaVuSans-121"/>
      </defs>
      <use xlink:href="#DejaVuSans-99"/>
      <use x="54.980469" xlink:href="#DejaVuSans-118"/>
      <use x="114.160156" xlink:href="#DejaVuSans-120"/>
      <use x="173.339844" xlink:href="#DejaVuSans-112"/>
      <use x="236.816406" xlink:href="#DejaVuSans-121"/>
     </g>
    </g>
    <g id="line2d_68">
     <path d="M 138.720938 143.975312 
L 166.720938 143.975312 
" style="fill:none;stroke:#9467bd;stroke-linecap:square;stroke-width:3;"/>
    </g>
    <g id="line2d_69"/>
    <g id="text_20">
     <!-- Cyanure -->
     <g transform="translate(177.920938 148.875312)scale(0.14 -0.14)">
      <use xlink:href="#DejaVuSans-67"/>
      <use x="69.824219" xlink:href="#DejaVuSans-121"/>
      <use x="129.003906" xlink:href="#DejaVuSans-97"/>
      <use x="190.283203" xlink:href="#DejaVuSans-110"/>
      <use x="253.662109" xlink:href="#DejaVuSans-117"/>
      <use x="317.041016" xlink:href="#DejaVuSans-114"/>
      <use x="355.904297" xlink:href="#DejaVuSans-101"/>
     </g>
    </g>
    <g id="line2d_70">
     <path d="M 138.720938 164.524687 
L 166.720938 164.524687 
" style="fill:none;stroke:#8c564b;stroke-linecap:square;stroke-width:3;"/>
    </g>
    <g id="line2d_71"/>
    <g id="text_21">
     <!-- glmnet -->
     <g transform="translate(177.920938 169.424687)scale(0.14 -0.14)">
      <use xlink:href="#DejaVuSans-103"/>
      <use x="63.476562" xlink:href="#DejaVuSans-108"/>
      <use x="91.259766" xlink:href="#DejaVuSans-109"/>
      <use x="188.671875" xlink:href="#DejaVuSans-110"/>
      <use x="252.050781" xlink:href="#DejaVuSans-101"/>
      <use x="313.574219" xlink:href="#DejaVuSans-116"/>
     </g>
    </g>
    <g id="line2d_72">
     <path d="M 138.720938 185.074062 
L 166.720938 185.074062 
" style="fill:none;stroke:#e377c2;stroke-linecap:square;stroke-width:3;"/>
    </g>
    <g id="line2d_73"/>
    <g id="text_22">
     <!-- Julia-PGD -->
     <g transform="translate(177.920938 189.974062)scale(0.14 -0.14)">
      <defs>
       <path d="M 9.8125 72.90625 
L 19.671875 72.90625 
L 19.671875 5.078125 
Q 19.671875 -8.109375 14.671875 -14.0625 
Q 9.671875 -20.015625 -1.421875 -20.015625 
L -5.171875 -20.015625 
L -5.171875 -11.71875 
L -2.09375 -11.71875 
Q 4.4375 -11.71875 7.125 -8.046875 
Q 9.8125 -4.390625 9.8125 5.078125 
z
" id="DejaVuSans-74"/>
       <path d="M 4.890625 31.390625 
L 31.203125 31.390625 
L 31.203125 23.390625 
L 4.890625 23.390625 
z
" id="DejaVuSans-45"/>
       <path d="M 19.671875 64.796875 
L 19.671875 37.40625 
L 32.078125 37.40625 
Q 38.96875 37.40625 42.71875 40.96875 
Q 46.484375 44.53125 46.484375 51.125 
Q 46.484375 57.671875 42.71875 61.234375 
Q 38.96875 64.796875 32.078125 64.796875 
z
M 9.8125 72.90625 
L 32.078125 72.90625 
Q 44.34375 72.90625 50.609375 67.359375 
Q 56.890625 61.8125 56.890625 51.125 
Q 56.890625 40.328125 50.609375 34.8125 
Q 44.34375 29.296875 32.078125 29.296875 
L 19.671875 29.296875 
L 19.671875 0 
L 9.8125 0 
z
" id="DejaVuSans-80"/>
       <path d="M 59.515625 10.40625 
L 59.515625 29.984375 
L 43.40625 29.984375 
L 43.40625 38.09375 
L 69.28125 38.09375 
L 69.28125 6.78125 
Q 63.578125 2.734375 56.6875 0.65625 
Q 49.8125 -1.421875 42 -1.421875 
Q 24.90625 -1.421875 15.25 8.5625 
Q 5.609375 18.5625 5.609375 36.375 
Q 5.609375 54.25 15.25 64.234375 
Q 24.90625 74.21875 42 74.21875 
Q 49.125 74.21875 55.546875 72.453125 
Q 61.96875 70.703125 67.390625 67.28125 
L 67.390625 56.78125 
Q 61.921875 61.421875 55.765625 63.765625 
Q 49.609375 66.109375 42.828125 66.109375 
Q 29.4375 66.109375 22.71875 58.640625 
Q 16.015625 51.171875 16.015625 36.375 
Q 16.015625 21.625 22.71875 14.15625 
Q 29.4375 6.6875 42.828125 6.6875 
Q 48.046875 6.6875 52.140625 7.59375 
Q 56.25 8.5 59.515625 10.40625 
z
" id="DejaVuSans-71"/>
      </defs>
      <use xlink:href="#DejaVuSans-74"/>
      <use x="29.492188" xlink:href="#DejaVuSans-117"/>
      <use x="92.871094" xlink:href="#DejaVuSans-108"/>
      <use x="120.654297" xlink:href="#DejaVuSans-105"/>
      <use x="148.4375" xlink:href="#DejaVuSans-97"/>
      <use x="209.716797" xlink:href="#DejaVuSans-45"/>
      <use x="245.800781" xlink:href="#DejaVuSans-80"/>
      <use x="306.103516" xlink:href="#DejaVuSans-71"/>
      <use x="383.59375" xlink:href="#DejaVuSans-68"/>
     </g>
    </g>
    <g id="line2d_74">
     <path d="M 138.720938 205.623437 
L 166.720938 205.623437 
" style="fill:none;stroke:#7f7f7f;stroke-linecap:square;stroke-width:3;"/>
    </g>
    <g id="line2d_75"/>
    <g id="text_23">
     <!-- L-BFGS-B -->
     <g transform="translate(177.920938 210.523437)scale(0.14 -0.14)">
      <defs>
       <path d="M 9.8125 72.90625 
L 51.703125 72.90625 
L 51.703125 64.59375 
L 19.671875 64.59375 
L 19.671875 43.109375 
L 48.578125 43.109375 
L 48.578125 34.8125 
L 19.671875 34.8125 
L 19.671875 0 
L 9.8125 0 
z
" id="DejaVuSans-70"/>
      </defs>
      <use xlink:href="#DejaVuSans-76"/>
      <use x="53.962891" xlink:href="#DejaVuSans-45"/>
      <use x="86.421875" xlink:href="#DejaVuSans-66"/>
      <use x="155.025391" xlink:href="#DejaVuSans-70"/>
      <use x="212.544922" xlink:href="#DejaVuSans-71"/>
      <use x="290.035156" xlink:href="#DejaVuSans-83"/>
      <use x="353.511719" xlink:href="#DejaVuSans-45"/>
      <use x="385.970703" xlink:href="#DejaVuSans-66"/>
     </g>
    </g>
    <g id="line2d_76">
     <path d="M 138.720938 226.172812 
L 166.720938 226.172812 
" style="fill:none;stroke:#bcbd22;stroke-linecap:square;stroke-width:3;"/>
    </g>
    <g id="line2d_77"/>
    <g id="text_24">
     <!-- Lightning -->
     <g transform="translate(177.920938 231.072812)scale(0.14 -0.14)">
      <use xlink:href="#DejaVuSans-76"/>
      <use x="55.712891" xlink:href="#DejaVuSans-105"/>
      <use x="83.496094" xlink:href="#DejaVuSans-103"/>
      <use x="146.972656" xlink:href="#DejaVuSans-104"/>
      <use x="210.351562" xlink:href="#DejaVuSans-116"/>
      <use x="249.560547" xlink:href="#DejaVuSans-110"/>
      <use x="312.939453" xlink:href="#DejaVuSans-105"/>
      <use x="340.722656" xlink:href="#DejaVuSans-110"/>
      <use x="404.101562" xlink:href="#DejaVuSans-103"/>
     </g>
    </g>
    <g id="line2d_78">
     <path d="M 138.720938 246.722187 
L 166.720938 246.722187 
" style="fill:none;stroke:#17becf;stroke-linecap:square;stroke-width:3;"/>
    </g>
    <g id="line2d_79"/>
    <g id="text_25">
     <!-- Python-PGD[use_acceleration=False] -->
     <g transform="translate(177.920938 251.622187)scale(0.14 -0.14)">
      <use xlink:href="#DejaVuSans-80"/>
      <use x="60.302734" xlink:href="#DejaVuSans-121"/>
      <use x="119.482422" xlink:href="#DejaVuSans-116"/>
      <use x="158.691406" xlink:href="#DejaVuSans-104"/>
      <use x="222.070312" xlink:href="#DejaVuSans-111"/>
      <use x="283.251953" xlink:href="#DejaVuSans-110"/>
      <use x="346.630859" xlink:href="#DejaVuSans-45"/>
      <use x="382.714844" xlink:href="#DejaVuSans-80"/>
      <use x="443.017578" xlink:href="#DejaVuSans-71"/>
      <use x="520.507812" xlink:href="#DejaVuSans-68"/>
      <use x="597.509766" xlink:href="#DejaVuSans-91"/>
      <use x="636.523438" xlink:href="#DejaVuSans-117"/>
      <use x="699.902344" xlink:href="#DejaVuSans-115"/>
      <use x="752.001953" xlink:href="#DejaVuSans-101"/>
      <use x="813.525391" xlink:href="#DejaVuSans-95"/>
      <use x="863.525391" xlink:href="#DejaVuSans-97"/>
      <use x="924.804688" xlink:href="#DejaVuSans-99"/>
      <use x="979.785156" xlink:href="#DejaVuSans-99"/>
      <use x="1034.765625" xlink:href="#DejaVuSans-101"/>
      <use x="1096.289062" xlink:href="#DejaVuSans-108"/>
      <use x="1124.072266" xlink:href="#DejaVuSans-101"/>
      <use x="1185.595703" xlink:href="#DejaVuSans-114"/>
      <use x="1226.708984" xlink:href="#DejaVuSans-97"/>
      <use x="1287.988281" xlink:href="#DejaVuSans-116"/>
      <use x="1327.197266" xlink:href="#DejaVuSans-105"/>
      <use x="1354.980469" xlink:href="#DejaVuSans-111"/>
      <use x="1416.162109" xlink:href="#DejaVuSans-110"/>
      <use x="1479.541016" xlink:href="#DejaVuSans-61"/>
      <use x="1563.330078" xlink:href="#DejaVuSans-70"/>
      <use x="1611.724609" xlink:href="#DejaVuSans-97"/>
      <use x="1673.003906" xlink:href="#DejaVuSans-108"/>
      <use x="1700.787109" xlink:href="#DejaVuSans-115"/>
      <use x="1752.886719" xlink:href="#DejaVuSans-101"/>
      <use x="1814.410156" xlink:href="#DejaVuSans-93"/>
     </g>
    </g>
    <g id="line2d_80">
     <path d="M 138.720938 267.660937 
L 166.720938 267.660937 
" style="fill:none;stroke:#1f77b4;stroke-linecap:square;stroke-width:3;"/>
    </g>
    <g id="line2d_81"/>
    <g id="text_26">
     <!-- Python-PGD[use_acceleration=True] -->
     <g transform="translate(177.920938 272.560937)scale(0.14 -0.14)">
      <use xlink:href="#DejaVuSans-80"/>
      <use x="60.302734" xlink:href="#DejaVuSans-121"/>
      <use x="119.482422" xlink:href="#DejaVuSans-116"/>
      <use x="158.691406" xlink:href="#DejaVuSans-104"/>
      <use x="222.070312" xlink:href="#DejaVuSans-111"/>
      <use x="283.251953" xlink:href="#DejaVuSans-110"/>
      <use x="346.630859" xlink:href="#DejaVuSans-45"/>
      <use x="382.714844" xlink:href="#DejaVuSans-80"/>
      <use x="443.017578" xlink:href="#DejaVuSans-71"/>
      <use x="520.507812" xlink:href="#DejaVuSans-68"/>
      <use x="597.509766" xlink:href="#DejaVuSans-91"/>
      <use x="636.523438" xlink:href="#DejaVuSans-117"/>
      <use x="699.902344" xlink:href="#DejaVuSans-115"/>
      <use x="752.001953" xlink:href="#DejaVuSans-101"/>
      <use x="813.525391" xlink:href="#DejaVuSans-95"/>
      <use x="863.525391" xlink:href="#DejaVuSans-97"/>
      <use x="924.804688" xlink:href="#DejaVuSans-99"/>
      <use x="979.785156" xlink:href="#DejaVuSans-99"/>
      <use x="1034.765625" xlink:href="#DejaVuSans-101"/>
      <use x="1096.289062" xlink:href="#DejaVuSans-108"/>
      <use x="1124.072266" xlink:href="#DejaVuSans-101"/>
      <use x="1185.595703" xlink:href="#DejaVuSans-114"/>
      <use x="1226.708984" xlink:href="#DejaVuSans-97"/>
      <use x="1287.988281" xlink:href="#DejaVuSans-116"/>
      <use x="1327.197266" xlink:href="#DejaVuSans-105"/>
      <use x="1354.980469" xlink:href="#DejaVuSans-111"/>
      <use x="1416.162109" xlink:href="#DejaVuSans-110"/>
      <use x="1479.541016" xlink:href="#DejaVuSans-61"/>
      <use x="1563.330078" xlink:href="#DejaVuSans-84"/>
      <use x="1609.664062" xlink:href="#DejaVuSans-114"/>
      <use x="1650.777344" xlink:href="#DejaVuSans-117"/>
      <use x="1714.15625" xlink:href="#DejaVuSans-101"/>
      <use x="1775.679688" xlink:href="#DejaVuSans-93"/>
     </g>
    </g>
    <g id="line2d_82">
     <path d="M 138.720938 288.599687 
L 166.720938 288.599687 
" style="fill:none;stroke:#ff7f0e;stroke-linecap:square;stroke-width:3;"/>
    </g>
    <g id="line2d_83"/>
    <g id="text_27">
     <!-- R-PGD -->
     <g transform="translate(177.920938 293.499687)scale(0.14 -0.14)">
      <use xlink:href="#DejaVuSans-82"/>
      <use x="65.482422" xlink:href="#DejaVuSans-45"/>
      <use x="101.566406" xlink:href="#DejaVuSans-80"/>
      <use x="161.869141" xlink:href="#DejaVuSans-71"/>
      <use x="239.359375" xlink:href="#DejaVuSans-68"/>
     </g>
    </g>
    <g id="line2d_84">
     <path d="M 138.720938 309.149062 
L 166.720938 309.149062 
" style="fill:none;stroke:#2ca02c;stroke-linecap:square;stroke-width:3;"/>
    </g>
    <g id="line2d_85"/>
    <g id="text_28">
     <!-- sklearn -->
     <g transform="translate(177.920938 314.049062)scale(0.14 -0.14)">
      <defs>
       <path d="M 9.078125 75.984375 
L 18.109375 75.984375 
L 18.109375 31.109375 
L 44.921875 54.6875 
L 56.390625 54.6875 
L 27.390625 29.109375 
L 57.625 0 
L 45.90625 0 
L 18.109375 26.703125 
L 18.109375 0 
L 9.078125 0 
z
" id="DejaVuSans-107"/>
      </defs>
      <use xlink:href="#DejaVuSans-115"/>
      <use x="52.099609" xlink:href="#DejaVuSans-107"/>
      <use x="110.009766" xlink:href="#DejaVuSans-108"/>
      <use x="137.792969" xlink:href="#DejaVuSans-101"/>
      <use x="199.316406" xlink:href="#DejaVuSans-97"/>
      <use x="260.595703" xlink:href="#DejaVuSans-114"/>
      <use x="299.958984" xlink:href="#DejaVuSans-110"/>
     </g>
    </g>
    <g id="line2d_86">
     <path d="M 138.720938 329.698437 
L 166.720938 329.698437 
" style="fill:none;stroke:#d62728;stroke-linecap:square;stroke-width:3;"/>
    </g>
    <g id="line2d_87"/>
    <g id="text_29">
     <!-- statsmodels -->
     <g transform="translate(177.920938 334.598437)scale(0.14 -0.14)">
      <use xlink:href="#DejaVuSans-115"/>
      <use x="52.099609" xlink:href="#DejaVuSans-116"/>
      <use x="91.308594" xlink:href="#DejaVuSans-97"/>
      <use x="152.587891" xlink:href="#DejaVuSans-116"/>
      <use x="191.796875" xlink:href="#DejaVuSans-115"/>
      <use x="243.896484" xlink:href="#DejaVuSans-109"/>
      <use x="341.308594" xlink:href="#DejaVuSans-111"/>
      <use x="402.490234" xlink:href="#DejaVuSans-100"/>
      <use x="465.966797" xlink:href="#DejaVuSans-101"/>
      <use x="527.490234" xlink:href="#DejaVuSans-108"/>
      <use x="555.273438" xlink:href="#DejaVuSans-115"/>
     </g>
    </g>
   </g>
  </g>
 </g>
 <defs>
  <clipPath id="pacec12c959">
   <rect height="253.288" width="389.007946" x="60.992054" y="43.44"/>
  </clipPath>
 </defs>
</svg>
