<?xml version="1.0" encoding="utf-8" standalone="no"?>
<!DOCTYPE svg PUBLIC "-//W3C//DTD SVG 1.1//EN"
  "http://www.w3.org/Graphics/SVG/1.1/DTD/svg11.dtd">
<!-- Created with matplotlib (https://matplotlib.org/) -->
<svg height="345.6pt" version="1.1" viewBox="0 0 460.8 345.6" width="460.8pt" xmlns="http://www.w3.org/2000/svg" xmlns:xlink="http://www.w3.org/1999/xlink">
 <metadata>
  <rdf:RDF xmlns:cc="http://creativecommons.org/ns#" xmlns:dc="http://purl.org/dc/elements/1.1/" xmlns:rdf="http://www.w3.org/1999/02/22-rdf-syntax-ns#">
   <cc:Work>
    <dc:type rdf:resource="http://purl.org/dc/dcmitype/StillImage"/>
    <dc:date>2020-12-16T18:00:07.076876</dc:date>
    <dc:format>image/svg+xml</dc:format>
    <dc:creator>
     <cc:Agent>
      <dc:title>Matplotlib v3.3.3, https://matplotlib.org/</dc:title>
     </cc:Agent>
    </dc:creator>
   </cc:Work>
  </rdf:RDF>
 </metadata>
 <defs>
  <style type="text/css">*{stroke-linecap:butt;stroke-linejoin:round;}</style>
 </defs>
 <g id="figure_1">
  <g id="patch_1">
   <path d="M 0 345.6 
L 460.8 345.6 
L 460.8 0 
L 0 0 
z
" style="fill:#ffffff;"/>
  </g>
  <g id="axes_1">
   <g id="patch_2">
    <path d="M 76.881214 296.728 
L 450 296.728 
L 450 43.44 
L 76.881214 43.44 
z
" style="fill:#ffffff;"/>
   </g>
   <g id="PolyCollection_1">
    <defs>
     <path d="M 272.131981 -63.674578 
L 268.099462 -63.674578 
L 269.217328 -62.456765 
L 270.729594 -62.090674 
L 270.784524 -61.899819 
L 270.286545 -62.090674 
L 269.482232 -63.599946 
L 269.809146 -64.035719 
L 268.573554 -62.276227 
L 269.027532 -64.704224 
L 267.400844 -66.232767 
L 269.360105 -62.632551 
L 267.581017 -63.133747 
L 267.370045 -62.367106 
L 268.320689 -62.367106 
L 268.541637 -63.052782 
L 266.737394 -62.090674 
L 267.728094 -63.674578 
L 268.926155 -62.367106 
L 268.226541 -62.456765 
L 267.872567 -62.803829 
L 268.686826 -62.803829 
L 268.347953 -62.276227 
L 268.072799 -62.090674 
L 268.927006 -62.456765 
L 269.702691 -62.803829 
L 268.524758 -62.632551 
L 267.348643 -66.481103 
L 269.192435 -62.803829 
L 269.543162 -62.090674 
L 268.285917 -63.599946 
L 269.049835 -62.276227 
L 267.450664 -63.965036 
L 268.001486 -62.367106 
L 266.749724 -67.517711 
L 267.019856 -62.803829 
L 268.446789 -62.803829 
L 266.259292 -67.641792 
L 268.540721 -64.892391 
L 268.713034 -67.041948 
L 268.363097 -71.326839 
L 269.315394 -74.979951 
L 266.852046 -80.749771 
L 266.342546 -86.168922 
L 263.696594 -92.106171 
L 264.03364 -96.074914 
L 263.612972 -101.944809 
L 261.740938 -106.331362 
L 259.190619 -112.359152 
L 259.015756 -119.118973 
L 258.499618 -123.142945 
L 256.069962 -131.366915 
L 254.828812 -134.276155 
L 252.795225 -140.272037 
L 251.606996 -145.082429 
L 247.910595 -149.672249 
L 243.005312 -155.93963 
L 241.957599 -161.962356 
L 239.546704 -167.219496 
L 234.067321 -172.496866 
L 229.905608 -176.56796 
L 221.58072 -183.378997 
L 216.308219 -187.716556 
L 211.902867 -194.829239 
L 207.665982 -197.75368 
L 203.582361 -202.136919 
L 198.574308 -205.502977 
L 194.061017 -211.162736 
L 192.433184 -211.932309 
L 187.683911 -218.090782 
L 181.237801 -223.838249 
L 178.500751 -225.005824 
L 176.055616 -228.60947 
L 172.370581 -230.435606 
L 162.086629 -241.627754 
L 161.338973 -241.531305 
L 147.070998 -247.516875 
L 133.441668 -247.717591 
L 133.112345 -249.012316 
L 123.932544 -255.254803 
L 93.841158 -266.263203 
L 94.654807 -266.252844 
L 105.743358 -266.252844 
L 105.743358 -266.252844 
L 95.808216 -266.263203 
L 127.971325 -255.254803 
L 135.961346 -249.012316 
L 150.927269 -247.717591 
L 152.496054 -247.516875 
L 166.768989 -241.531305 
L 171.319297 -241.627754 
L 177.590171 -230.435606 
L 180.072189 -228.60947 
L 179.690348 -225.005824 
L 185.747944 -223.838249 
L 192.280273 -218.090782 
L 196.747778 -211.932309 
L 195.705407 -211.162736 
L 202.148298 -205.502977 
L 207.555582 -202.136919 
L 209.435643 -197.75368 
L 213.501303 -194.829239 
L 224.301519 -187.716556 
L 229.332735 -183.378997 
L 234.580048 -176.56796 
L 238.675248 -172.496866 
L 243.226123 -167.219496 
L 245.961405 -161.962356 
L 247.166271 -155.93963 
L 250.214264 -149.672249 
L 253.4221 -145.082429 
L 255.633942 -140.272037 
L 258.272317 -134.276155 
L 258.453203 -131.366915 
L 260.353198 -123.142945 
L 261.695797 -119.118973 
L 262.728441 -112.359152 
L 264.171185 -106.331362 
L 264.183679 -101.944809 
L 266.063025 -96.074914 
L 266.80572 -92.106171 
L 267.845468 -86.168922 
L 268.749921 -80.749771 
L 270.181448 -74.979951 
L 270.150555 -71.326839 
L 270.638255 -67.041948 
L 270.442798 -64.892391 
L 270.412371 -67.641792 
L 271.18288 -62.803829 
L 270.218779 -62.803829 
L 270.02967 -67.517711 
L 271.443906 -62.367106 
L 270.581029 -63.965036 
L 270.717194 -62.276227 
L 269.443623 -63.599946 
L 270.806418 -62.090674 
L 269.936233 -62.803829 
L 270.041176 -66.481103 
L 271.005369 -62.632551 
L 270.910314 -62.803829 
L 271.677591 -62.456765 
L 271.039735 -62.090674 
L 270.419024 -62.276227 
L 271.291298 -62.803829 
L 270.817955 -62.803829 
L 270.615675 -62.456765 
L 270.517218 -62.367106 
L 269.662746 -63.674578 
L 271.340449 -62.090674 
L 270.831293 -63.052782 
L 270.381595 -62.367106 
L 271.579692 -62.367106 
L 270.030373 -63.133747 
L 272.236828 -62.632551 
L 271.442882 -66.232767 
L 272.339741 -64.704224 
L 271.373616 -62.276227 
L 272.41394 -64.035719 
L 270.975794 -63.599946 
L 272.631067 -62.090674 
L 272.452638 -61.899819 
L 272.089847 -62.090674 
L 272.157112 -62.456765 
L 272.131981 -63.674578 
z
" id="mbb1fac2006" style="stroke:#1f77b4;stroke-opacity:0.3;"/>
    </defs>
    <g clip-path="url(#p5b55b726ef)">
     <use style="fill:#1f77b4;fill-opacity:0.3;stroke:#1f77b4;stroke-opacity:0.3;" x="0" xlink:href="#mbb1fac2006" y="345.6"/>
    </g>
   </g>
   <g id="PolyCollection_2">
    <defs>
     <path d="M 139.79653 -281.449993 
L 114.838004 -281.449993 
L 112.642746 -278.764851 
L 128.709299 -276.706312 
L 129.999918 -275.113063 
L 140.63843 -272.439791 
L 149.303771 -268.917171 
L 163.522496 -265.164969 
L 174.16826 -260.957652 
L 189.329141 -256.485224 
L 201.551463 -250.354026 
L 215.785712 -242.685491 
L 232.420613 -232.597636 
L 248.924052 -217.443045 
L 263.887788 -205.619277 
L 276.539186 -193.211826 
L 290.609441 -179.361914 
L 303.320356 -162.703152 
L 316.770176 -142.700334 
L 332.298261 -116.420466 
L 348.637696 -78.132976 
L 363.471873 -60.739837 
L 382.547482 -60.739837 
L 408.068282 -60.739837 
L 433.040055 -60.739837 
L 433.040055 -60.739837 
L 433.040055 -60.739837 
L 412.680909 -60.739837 
L 384.7105 -60.739837 
L 366.642758 -60.739837 
L 350.021632 -78.132976 
L 333.82967 -116.420466 
L 318.42813 -142.700334 
L 306.510236 -162.703152 
L 290.792352 -179.361914 
L 277.662628 -193.211826 
L 264.35915 -205.619277 
L 250.324839 -217.443045 
L 233.907701 -232.597636 
L 218.892017 -242.685491 
L 203.320112 -250.354026 
L 191.588503 -256.485224 
L 176.34242 -260.957652 
L 169.246289 -265.164969 
L 157.011503 -268.917171 
L 149.372394 -272.439791 
L 142.763855 -275.113063 
L 138.95932 -276.706312 
L 138.171831 -278.764851 
L 139.79653 -281.449993 
z
" id="mac5dcb04f6" style="stroke:#ff7f0e;stroke-opacity:0.3;"/>
    </defs>
    <g clip-path="url(#p5b55b726ef)">
     <use style="fill:#ff7f0e;fill-opacity:0.3;stroke:#ff7f0e;stroke-opacity:0.3;" x="0" xlink:href="#mac5dcb04f6" y="345.6"/>
    </g>
   </g>
   <g id="PolyCollection_3">
    <defs>
     <path d="M 159.410731 -285.677251 
L 137.342388 -285.677251 
L 144.258603 -279.15824 
L 151.567327 -271.864565 
L 158.729745 -264.831855 
L 169.244402 -252.861239 
L 178.061942 -221.932314 
L 206.098743 -173.038286 
L 221.021557 -115.856782 
L 238.191242 -60.739837 
L 250.939085 -60.739837 
L 252.471853 -60.739837 
L 251.485184 -60.739837 
L 251.682219 -60.739837 
L 251.566109 -60.739837 
L 252.325349 -60.739837 
L 252.325349 -60.739837 
L 253.100355 -60.739837 
L 253.622952 -60.739837 
L 253.518387 -60.739837 
L 254.663129 -60.739837 
L 240.247515 -60.739837 
L 227.676519 -115.856782 
L 212.583756 -173.038286 
L 190.1743 -221.932314 
L 175.990853 -252.861239 
L 163.195771 -264.831855 
L 169.371714 -271.864565 
L 156.156643 -279.15824 
L 159.410731 -285.677251 
z
" id="mf8e8cdfd9d" style="stroke:#2ca02c;stroke-opacity:0.3;"/>
    </defs>
    <g clip-path="url(#p5b55b726ef)">
     <use style="fill:#2ca02c;fill-opacity:0.3;stroke:#2ca02c;stroke-opacity:0.3;" x="0" xlink:href="#mf8e8cdfd9d" y="345.6"/>
    </g>
   </g>
   <g id="PolyCollection_4">
    <defs>
     <path d="M 338.696557 -287.573206 
L 295.798969 -287.573206 
L 309.447279 -287.573206 
L 320.265327 -287.573206 
L 342.67274 -287.573206 
L 376.697613 -265.707399 
L 401.587569 -142.236927 
L 401.782087 -142.236927 
L 403.719029 -142.236927 
L 403.849969 -142.236927 
L 403.849969 -142.236927 
L 402.134577 -142.236927 
L 402.057849 -142.236927 
L 377.628013 -265.707399 
L 344.342611 -287.573206 
L 322.282753 -287.573206 
L 311.309191 -287.573206 
L 338.696557 -287.573206 
z
" id="mbfcef38a68" style="stroke:#d62728;stroke-opacity:0.3;"/>
    </defs>
    <g clip-path="url(#p5b55b726ef)">
     <use style="fill:#d62728;fill-opacity:0.3;stroke:#d62728;stroke-opacity:0.3;" x="0" xlink:href="#mbfcef38a68" y="345.6"/>
    </g>
   </g>
   <g id="PolyCollection_5">
    <defs>
     <path d="M 166.149954 -290.646909 
L 97.479136 -290.646909 
L 96.692373 -281.21524 
L 101.753502 -276.750051 
L 95.985829 -276.146425 
L 110.324009 -274.977857 
L 123.57918 -273.529763 
L 148.38 -273.162157 
L 163.006749 -273.162157 
L 197.489466 -268.078692 
L 214.349831 -263.134993 
L 229.314718 -258.371039 
L 251.901862 -249.238358 
L 275.831678 -235.575869 
L 299.06521 -217.816936 
L 322.435875 -189.134036 
L 340.097547 -109.510194 
L 369.33503 -106.076645 
L 399.162946 -102.133786 
L 425.432556 -97.407844 
L 426.439872 -97.407844 
L 426.439872 -97.407844 
L 403.156689 -102.133786 
L 371.052726 -106.076645 
L 349.720833 -109.510194 
L 328.599297 -189.134036 
L 302.692309 -217.816936 
L 277.180645 -235.575869 
L 256.244462 -249.238358 
L 256.451732 -258.371039 
L 232.146434 -263.134993 
L 219.360168 -268.078692 
L 221.420073 -273.162157 
L 172.73663 -273.162157 
L 151.021046 -273.529763 
L 132.283528 -274.977857 
L 130.220785 -276.146425 
L 122.689754 -276.750051 
L 145.570593 -281.21524 
L 166.149954 -290.646909 
z
" id="m01c86c1e03" style="stroke:#9467bd;stroke-opacity:0.3;"/>
    </defs>
    <g clip-path="url(#p5b55b726ef)">
     <use style="fill:#9467bd;fill-opacity:0.3;stroke:#9467bd;stroke-opacity:0.3;" x="0" xlink:href="#m01c86c1e03" y="345.6"/>
    </g>
   </g>
   <g id="PolyCollection_6">
    <defs>
     <path d="M 219.388617 -290.646909 
L 188.469295 -290.646909 
L 193.537931 -290.59028 
L 192.253724 -290.59028 
L 201.836557 -290.536623 
L 192.798544 -290.536623 
L 195.097647 -290.472415 
L 203.101367 -290.198114 
L 201.045296 -289.786245 
L 212.004861 -288.287951 
L 219.332774 -285.754249 
L 229.631009 -281.327478 
L 241.980049 -276.410714 
L 258.909036 -270.980354 
L 280.910863 -258.260725 
L 302.14663 -238.672603 
L 307.421629 -123.379283 
L 306.87988 -123.379283 
L 305.328859 -123.379283 
L 305.130484 -123.379283 
L 304.970598 -123.379283 
L 304.064203 -123.379283 
L 305.908872 -123.379283 
L 305.908872 -123.379283 
L 310.495048 -123.379283 
L 309.911173 -123.379283 
L 309.739023 -123.379283 
L 311.694957 -123.379283 
L 314.250578 -123.379283 
L 304.678089 -238.672603 
L 289.3568 -258.260725 
L 264.148538 -270.980354 
L 264.496535 -276.410714 
L 254.123358 -281.327478 
L 228.164097 -285.754249 
L 241.802314 -288.287951 
L 242.794701 -289.786245 
L 242.020674 -290.198114 
L 216.545701 -290.472415 
L 206.714624 -290.536623 
L 239.148891 -290.536623 
L 237.418627 -290.59028 
L 249.389753 -290.59028 
L 219.388617 -290.646909 
z
" id="m27f8987e22" style="stroke:#8c564b;stroke-opacity:0.3;"/>
    </defs>
    <g clip-path="url(#p5b55b726ef)">
     <use style="fill:#8c564b;fill-opacity:0.3;stroke:#8c564b;stroke-opacity:0.3;" x="0" xlink:href="#m27f8987e22" y="345.6"/>
    </g>
   </g>
   <g id="PolyCollection_7">
    <defs>
     <path d="M 249.859024 -279.117595 
L 216.906058 -279.117595 
L 219.889726 -277.313566 
L 223.931207 -276.689253 
L 223.278625 -276.224466 
L 223.518721 -275.478369 
L 229.006819 -274.609664 
L 231.709246 -273.719019 
L 236.192611 -272.717822 
L 243.253684 -271.616825 
L 250.694314 -270.37542 
L 260.188069 -269.071551 
L 263.418778 -267.664145 
L 268.910595 -266.087888 
L 275.440746 -264.424274 
L 283.546874 -262.608967 
L 294.314957 -260.614041 
L 305.578785 -258.504096 
L 320.203402 -256.127732 
L 335.404481 -253.06536 
L 351.480455 -249.611884 
L 366.43579 -245.067885 
L 381.524333 -240.577593 
L 394.033259 -235.016348 
L 411.05024 -228.181014 
L 411.05024 -228.181014 
L 411.05024 -228.181014 
L 397.793145 -235.016348 
L 386.277612 -240.577593 
L 371.783658 -245.067885 
L 353.737423 -249.611884 
L 340.375466 -253.06536 
L 327.120217 -256.127732 
L 311.302055 -258.504096 
L 303.325347 -260.614041 
L 284.791119 -262.608967 
L 277.476163 -264.424274 
L 269.773186 -266.087888 
L 264.511382 -267.664145 
L 260.943257 -269.071551 
L 252.897597 -270.37542 
L 246.802192 -271.616825 
L 240.084388 -272.717822 
L 236.430811 -273.719019 
L 235.233367 -274.609664 
L 231.241383 -275.478369 
L 233.682798 -276.224466 
L 249.458118 -276.689253 
L 230.818175 -277.313566 
L 249.859024 -279.117595 
z
" id="m78506b391c" style="stroke:#e377c2;stroke-opacity:0.3;"/>
    </defs>
    <g clip-path="url(#p5b55b726ef)">
     <use style="fill:#e377c2;fill-opacity:0.3;stroke:#e377c2;stroke-opacity:0.3;" x="0" xlink:href="#m78506b391c" y="345.6"/>
    </g>
   </g>
   <g id="PolyCollection_8">
    <defs>
     <path d="M 245.639178 -287.54449 
L 191.191163 -287.54449 
L 193.646717 -277.427547 
L 195.91005 -277.002473 
L 199.69621 -275.991751 
L 203.847006 -274.491594 
L 212.067328 -272.536699 
L 223.02044 -270.421421 
L 232.451495 -267.990902 
L 244.141525 -264.87333 
L 255.043125 -261.202951 
L 268.597219 -256.384275 
L 282.853874 -250.632824 
L 296.434379 -243.15334 
L 312.728189 -235.959454 
L 327.345984 -226.214272 
L 343.750417 -217.154031 
L 359.295721 -202.07565 
L 371.521937 -183.806475 
L 385.770102 -151.041692 
L 404.109292 -96.590909 
L 406.718945 -96.590909 
L 406.718945 -96.590909 
L 386.695255 -151.041692 
L 375.909238 -183.806475 
L 361.689095 -202.07565 
L 346.316924 -217.154031 
L 332.237528 -226.214272 
L 317.283317 -235.959454 
L 303.209683 -243.15334 
L 288.951532 -250.632824 
L 281.65107 -256.384275 
L 268.668363 -261.202951 
L 261.092676 -264.87333 
L 249.067632 -267.990902 
L 242.843871 -270.421421 
L 247.63271 -272.536699 
L 233.443485 -274.491594 
L 229.64744 -275.991751 
L 228.906593 -277.002473 
L 227.10433 -277.427547 
L 245.639178 -287.54449 
z
" id="mc3b8a91458" style="stroke:#7f7f7f;stroke-opacity:0.3;"/>
    </defs>
    <g clip-path="url(#p5b55b726ef)">
     <use style="fill:#7f7f7f;fill-opacity:0.3;stroke:#7f7f7f;stroke-opacity:0.3;" x="0" xlink:href="#mc3b8a91458" y="345.6"/>
    </g>
   </g>
   <g id="PolyCollection_9">
    <defs>
     <path d="M 161.457972 -283.291555 
L 151.761709 -283.291555 
L 170.314386 -281.698188 
L 173.959205 -279.975965 
L 174.471311 -278.564241 
L 179.411223 -276.188887 
L 179.160798 -272.991573 
L 181.181655 -271.150193 
L 183.0578 -269.422074 
L 183.880383 -268.287828 
L 186.614819 -268.201693 
L 191.679991 -267.714775 
L 195.092908 -267.271372 
L 199.073946 -267.94033 
L 205.524118 -267.665236 
L 213.437242 -268.378242 
L 224.385433 -268.260874 
L 233.75523 -266.910085 
L 248.092292 -267.508431 
L 261.319485 -268.683962 
L 268.582914 -267.375015 
L 280.288732 -267.389901 
L 288.467647 -267.013507 
L 300.049961 -267.631056 
L 309.870381 -266.853207 
L 323.037335 -267.972546 
L 336.415157 -267.257956 
L 352.204094 -266.412363 
L 366.540173 -268.268771 
L 381.761088 -267.484002 
L 397.973619 -266.888935 
L 414.274679 -266.902576 
L 414.274679 -266.902576 
L 414.274679 -266.902576 
L 399.643482 -266.888935 
L 387.039075 -267.484002 
L 370.239629 -268.268771 
L 353.543202 -266.412363 
L 340.960478 -267.257956 
L 326.568631 -267.972546 
L 321.2658 -266.853207 
L 308.182581 -267.631056 
L 298.297894 -267.013507 
L 287.113616 -267.389901 
L 273.850667 -267.375015 
L 262.815785 -268.683962 
L 249.308036 -267.508431 
L 235.645054 -266.910085 
L 225.832567 -268.260874 
L 217.1072 -268.378242 
L 206.675589 -267.665236 
L 201.229943 -267.94033 
L 197.175654 -267.271372 
L 194.125458 -267.714775 
L 187.870274 -268.201693 
L 189.140562 -268.287828 
L 188.334323 -269.422074 
L 183.621262 -271.150193 
L 183.46361 -272.991573 
L 182.286784 -276.188887 
L 176.213545 -278.564241 
L 178.720086 -279.975965 
L 172.564821 -281.698188 
L 161.457972 -283.291555 
z
" id="m30f301f6ab" style="stroke:#bcbd22;stroke-opacity:0.3;"/>
    </defs>
    <g clip-path="url(#p5b55b726ef)">
     <use style="fill:#bcbd22;fill-opacity:0.3;stroke:#bcbd22;stroke-opacity:0.3;" x="0" xlink:href="#m30f301f6ab" y="345.6"/>
    </g>
   </g>
   <g id="PolyCollection_10">
    <defs>
     <path d="M 212.900458 -279.117595 
L 198.43959 -279.117595 
L 201.644449 -277.313566 
L 200.364934 -276.689253 
L 197.984006 -276.224466 
L 200.512785 -275.478369 
L 199.760128 -274.609664 
L 201.705804 -273.719019 
L 203.568408 -272.717822 
L 204.324905 -271.616825 
L 206.631922 -270.37542 
L 210.036008 -269.071551 
L 215.398384 -267.664145 
L 222.180687 -266.087888 
L 229.464199 -264.424274 
L 239.028817 -262.608967 
L 252.23744 -260.614041 
L 263.422012 -258.504096 
L 277.991919 -256.127732 
L 293.325884 -253.06536 
L 309.826982 -249.611884 
L 331.524228 -245.067885 
L 353.373517 -240.577593 
L 369.297663 -235.016348 
L 384.384019 -228.181014 
L 399.694818 -222.697494 
L 431.284252 -215.002777 
L 431.284252 -215.002777 
L 431.284252 -215.002777 
L 407.266586 -222.697494 
L 387.186981 -228.181014 
L 371.919306 -235.016348 
L 355.047563 -240.577593 
L 338.303385 -245.067885 
L 313.615139 -249.611884 
L 294.805793 -253.06536 
L 280.55838 -256.127732 
L 266.388144 -258.504096 
L 254.344779 -260.614041 
L 244.968201 -262.608967 
L 232.13684 -264.424274 
L 226.24715 -266.087888 
L 217.925488 -267.664145 
L 212.788978 -269.071551 
L 211.723083 -270.37542 
L 206.017454 -271.616825 
L 208.119147 -272.717822 
L 204.064405 -273.719019 
L 203.934156 -274.609664 
L 203.648038 -275.478369 
L 202.026533 -276.224466 
L 205.609224 -276.689253 
L 203.372687 -277.313566 
L 212.900458 -279.117595 
z
" id="m337d714974" style="stroke:#17becf;stroke-opacity:0.3;"/>
    </defs>
    <g clip-path="url(#p5b55b726ef)">
     <use style="fill:#17becf;fill-opacity:0.3;stroke:#17becf;stroke-opacity:0.3;" x="0" xlink:href="#m337d714974" y="345.6"/>
    </g>
   </g>
   <g id="PolyCollection_11">
    <defs>
     <path d="M 241.458258 -279.117595 
L 229.515941 -279.117595 
L 230.256844 -277.313566 
L 230.242783 -276.544551 
L 230.215398 -275.887916 
L 232.153577 -274.671777 
L 233.090923 -273.078961 
L 232.278214 -271.340719 
L 233.637641 -269.2586 
L 235.828262 -266.731413 
L 238.251235 -263.61576 
L 241.912731 -259.906311 
L 247.909912 -255.510823 
L 253.842735 -249.134283 
L 262.282345 -240.904733 
L 271.264423 -229.630171 
L 282.664183 -218.993904 
L 296.242497 -206.246811 
L 309.069231 -195.450105 
L 321.168367 -177.83608 
L 337.21414 -169.49621 
L 351.175746 -170.121936 
L 367.773257 -159.26047 
L 384.780555 -149.186897 
L 402.042983 -138.585909 
L 403.227216 -138.585909 
L 403.227216 -138.585909 
L 386.176456 -149.186897 
L 369.035575 -159.26047 
L 353.360175 -170.121936 
L 339.725909 -169.49621 
L 324.778145 -177.83608 
L 311.217336 -195.450105 
L 297.685602 -206.246811 
L 283.217081 -218.993904 
L 273.215218 -229.630171 
L 264.970353 -240.904733 
L 256.257097 -249.134283 
L 253.437404 -255.510823 
L 243.122747 -259.906311 
L 240.581773 -263.61576 
L 237.792893 -266.731413 
L 236.627867 -269.2586 
L 235.208357 -271.340719 
L 234.809612 -273.078961 
L 234.185351 -274.671777 
L 233.213372 -275.887916 
L 231.748719 -276.544551 
L 232.765667 -277.313566 
L 241.458258 -279.117595 
z
" id="m5cc66a5564" style="stroke:#1f77b4;stroke-opacity:0.3;"/>
    </defs>
    <g clip-path="url(#p5b55b726ef)">
     <use style="fill:#1f77b4;fill-opacity:0.3;stroke:#1f77b4;stroke-opacity:0.3;" x="0" xlink:href="#m5cc66a5564" y="345.6"/>
    </g>
   </g>
   <g id="PolyCollection_12">
    <defs>
     <path d="M 256.061421 -279.117595 
L 243.379601 -279.117595 
L 254.69406 -277.313566 
L 265.215596 -276.689253 
L 273.370598 -276.224466 
L 285.581176 -275.478369 
L 298.416278 -274.609664 
L 312.549255 -273.719019 
L 327.284011 -272.717822 
L 342.468494 -271.616825 
L 358.183912 -270.37542 
L 372.694467 -269.071551 
L 388.806046 -267.664145 
L 406.44844 -266.087888 
L 408.60318 -266.087888 
L 408.60318 -266.087888 
L 389.760038 -267.664145 
L 373.663781 -269.071551 
L 361.167504 -270.37542 
L 344.065444 -271.616825 
L 329.196327 -272.717822 
L 314.658398 -273.719019 
L 307.767004 -274.609664 
L 290.24078 -275.478369 
L 276.921274 -276.224466 
L 270.039125 -276.689253 
L 266.65958 -277.313566 
L 256.061421 -279.117595 
z
" id="md28b6aae44" style="stroke:#ff7f0e;stroke-opacity:0.3;"/>
    </defs>
    <g clip-path="url(#p5b55b726ef)">
     <use style="fill:#ff7f0e;fill-opacity:0.3;stroke:#ff7f0e;stroke-opacity:0.3;" x="0" xlink:href="#md28b6aae44" y="345.6"/>
    </g>
   </g>
   <g id="PolyCollection_13">
    <defs>
     <path d="M 162.710582 -281.449993 
L 151.609252 -281.449993 
L 152.280929 -278.764851 
L 158.221124 -276.706312 
L 159.028312 -275.113063 
L 161.293413 -272.439791 
L 170.586588 -268.917171 
L 176.129678 -265.164969 
L 185.536328 -260.957652 
L 193.189301 -256.485224 
L 204.658575 -250.354026 
L 218.401716 -242.685491 
L 232.682832 -232.597636 
L 247.308402 -217.443045 
L 262.93106 -205.619277 
L 273.861672 -193.211826 
L 285.811526 -179.361914 
L 299.567964 -162.703152 
L 312.725356 -142.700333 
L 327.308371 -116.420383 
L 342.605075 -78.124451 
L 354.734507 -60.739837 
L 369.160206 -60.385091 
L 384.257366 -60.854019 
L 397.099421 -60.739837 
L 415.173804 -60.385091 
L 415.173804 -60.385091 
L 415.173804 -60.385091 
L 400.922688 -60.739837 
L 388.692438 -60.854019 
L 369.999362 -60.385091 
L 357.081681 -60.739837 
L 344.68627 -78.124451 
L 328.21969 -116.420383 
L 314.007101 -142.700333 
L 301.854293 -162.703152 
L 287.666078 -179.361914 
L 275.152693 -193.211826 
L 264.756529 -205.619277 
L 249.446637 -217.443045 
L 235.019577 -232.597636 
L 220.810638 -242.685491 
L 212.412012 -250.354026 
L 198.816194 -256.485224 
L 190.477354 -260.957652 
L 181.656831 -265.164969 
L 177.661445 -268.917171 
L 179.629452 -272.439791 
L 168.968128 -275.113063 
L 163.851576 -276.706312 
L 158.178933 -278.764851 
L 162.710582 -281.449993 
z
" id="m70b0311aee" style="stroke:#2ca02c;stroke-opacity:0.3;"/>
    </defs>
    <g clip-path="url(#p5b55b726ef)">
     <use style="fill:#2ca02c;fill-opacity:0.3;stroke:#2ca02c;stroke-opacity:0.3;" x="0" xlink:href="#m70b0311aee" y="345.6"/>
    </g>
   </g>
   <g id="PolyCollection_14">
    <defs>
     <path d="M 381.864882 -281.449993 
L 373.661923 -281.449993 
L 408.532331 -278.764851 
L 408.137836 -276.65349 
L 408.190642 -275.289897 
L 408.623431 -275.289897 
L 408.623431 -275.289897 
L 409.257948 -276.65349 
L 413.019488 -278.764851 
L 381.864882 -281.449993 
z
" id="md2465f93e7" style="stroke:#d62728;stroke-opacity:0.3;"/>
    </defs>
    <g clip-path="url(#p5b55b726ef)">
     <use style="fill:#d62728;fill-opacity:0.3;stroke:#d62728;stroke-opacity:0.3;" x="0" xlink:href="#md2465f93e7" y="345.6"/>
    </g>
   </g>
   <g id="matplotlib.axis_1">
    <g id="xtick_1">
     <g id="line2d_1">
      <defs>
       <path d="M 0 0 
L 0 3.5 
" id="m86a022b864" style="stroke:#000000;stroke-width:0.8;"/>
      </defs>
      <g>
       <use style="stroke:#000000;stroke-width:0.8;" x="135.843839" xlink:href="#m86a022b864" y="296.728"/>
      </g>
     </g>
     <g id="text_1">
      <!-- $\mathdefault{10^{-2}}$ -->
      <g transform="translate(124.093839 311.326437)scale(0.1 -0.1)">
       <defs>
        <path d="M 12.40625 8.296875 
L 28.515625 8.296875 
L 28.515625 63.921875 
L 10.984375 60.40625 
L 10.984375 69.390625 
L 28.421875 72.90625 
L 38.28125 72.90625 
L 38.28125 8.296875 
L 54.390625 8.296875 
L 54.390625 0 
L 12.40625 0 
z
" id="DejaVuSans-49"/>
        <path d="M 31.78125 66.40625 
Q 24.171875 66.40625 20.328125 58.90625 
Q 16.5 51.421875 16.5 36.375 
Q 16.5 21.390625 20.328125 13.890625 
Q 24.171875 6.390625 31.78125 6.390625 
Q 39.453125 6.390625 43.28125 13.890625 
Q 47.125 21.390625 47.125 36.375 
Q 47.125 51.421875 43.28125 58.90625 
Q 39.453125 66.40625 31.78125 66.40625 
z
M 31.78125 74.21875 
Q 44.046875 74.21875 50.515625 64.515625 
Q 56.984375 54.828125 56.984375 36.375 
Q 56.984375 17.96875 50.515625 8.265625 
Q 44.046875 -1.421875 31.78125 -1.421875 
Q 19.53125 -1.421875 13.0625 8.265625 
Q 6.59375 17.96875 6.59375 36.375 
Q 6.59375 54.828125 13.0625 64.515625 
Q 19.53125 74.21875 31.78125 74.21875 
z
" id="DejaVuSans-48"/>
        <path d="M 10.59375 35.5 
L 73.1875 35.5 
L 73.1875 27.203125 
L 10.59375 27.203125 
z
" id="DejaVuSans-8722"/>
        <path d="M 19.1875 8.296875 
L 53.609375 8.296875 
L 53.609375 0 
L 7.328125 0 
L 7.328125 8.296875 
Q 12.9375 14.109375 22.625 23.890625 
Q 32.328125 33.6875 34.8125 36.53125 
Q 39.546875 41.84375 41.421875 45.53125 
Q 43.3125 49.21875 43.3125 52.78125 
Q 43.3125 58.59375 39.234375 62.25 
Q 35.15625 65.921875 28.609375 65.921875 
Q 23.96875 65.921875 18.8125 64.3125 
Q 13.671875 62.703125 7.8125 59.421875 
L 7.8125 69.390625 
Q 13.765625 71.78125 18.9375 73 
Q 24.125 74.21875 28.421875 74.21875 
Q 39.75 74.21875 46.484375 68.546875 
Q 53.21875 62.890625 53.21875 53.421875 
Q 53.21875 48.921875 51.53125 44.890625 
Q 49.859375 40.875 45.40625 35.40625 
Q 44.1875 33.984375 37.640625 27.21875 
Q 31.109375 20.453125 19.1875 8.296875 
z
" id="DejaVuSans-50"/>
       </defs>
       <use transform="translate(0 0.765625)" xlink:href="#DejaVuSans-49"/>
       <use transform="translate(63.623047 0.765625)" xlink:href="#DejaVuSans-48"/>
       <use transform="translate(128.203125 39.046875)scale(0.7)" xlink:href="#DejaVuSans-8722"/>
       <use transform="translate(186.855469 39.046875)scale(0.7)" xlink:href="#DejaVuSans-50"/>
      </g>
     </g>
    </g>
    <g id="xtick_2">
     <g id="line2d_2">
      <g>
       <use style="stroke:#000000;stroke-width:0.8;" x="231.987079" xlink:href="#m86a022b864" y="296.728"/>
      </g>
     </g>
     <g id="text_2">
      <!-- $\mathdefault{10^{-1}}$ -->
      <g transform="translate(220.237079 311.326437)scale(0.1 -0.1)">
       <use transform="translate(0 0.684375)" xlink:href="#DejaVuSans-49"/>
       <use transform="translate(63.623047 0.684375)" xlink:href="#DejaVuSans-48"/>
       <use transform="translate(128.203125 38.965625)scale(0.7)" xlink:href="#DejaVuSans-8722"/>
       <use transform="translate(186.855469 38.965625)scale(0.7)" xlink:href="#DejaVuSans-49"/>
      </g>
     </g>
    </g>
    <g id="xtick_3">
     <g id="line2d_3">
      <g>
       <use style="stroke:#000000;stroke-width:0.8;" x="328.13032" xlink:href="#m86a022b864" y="296.728"/>
      </g>
     </g>
     <g id="text_3">
      <!-- $\mathdefault{10^{0}}$ -->
      <g transform="translate(319.33032 311.326437)scale(0.1 -0.1)">
       <use transform="translate(0 0.765625)" xlink:href="#DejaVuSans-49"/>
       <use transform="translate(63.623047 0.765625)" xlink:href="#DejaVuSans-48"/>
       <use transform="translate(128.203125 39.046875)scale(0.7)" xlink:href="#DejaVuSans-48"/>
      </g>
     </g>
    </g>
    <g id="xtick_4">
     <g id="line2d_4">
      <g>
       <use style="stroke:#000000;stroke-width:0.8;" x="424.273561" xlink:href="#m86a022b864" y="296.728"/>
      </g>
     </g>
     <g id="text_4">
      <!-- $\mathdefault{10^{1}}$ -->
      <g transform="translate(415.473561 311.326437)scale(0.1 -0.1)">
       <use transform="translate(0 0.684375)" xlink:href="#DejaVuSans-49"/>
       <use transform="translate(63.623047 0.684375)" xlink:href="#DejaVuSans-48"/>
       <use transform="translate(128.203125 38.965625)scale(0.7)" xlink:href="#DejaVuSans-49"/>
      </g>
     </g>
    </g>
    <g id="xtick_5">
     <g id="line2d_5">
      <defs>
       <path d="M 0 0 
L 0 2 
" id="m3135235313" style="stroke:#000000;stroke-width:0.6;"/>
      </defs>
      <g>
       <use style="stroke:#000000;stroke-width:0.6;" x="85.572582" xlink:href="#m3135235313" y="296.728"/>
      </g>
     </g>
    </g>
    <g id="xtick_6">
     <g id="line2d_6">
      <g>
       <use style="stroke:#000000;stroke-width:0.6;" x="97.584597" xlink:href="#m3135235313" y="296.728"/>
      </g>
     </g>
    </g>
    <g id="xtick_7">
     <g id="line2d_7">
      <g>
       <use style="stroke:#000000;stroke-width:0.6;" x="106.901839" xlink:href="#m3135235313" y="296.728"/>
      </g>
     </g>
    </g>
    <g id="xtick_8">
     <g id="line2d_8">
      <g>
       <use style="stroke:#000000;stroke-width:0.6;" x="114.514581" xlink:href="#m3135235313" y="296.728"/>
      </g>
     </g>
    </g>
    <g id="xtick_9">
     <g id="line2d_9">
      <g>
       <use style="stroke:#000000;stroke-width:0.6;" x="120.951062" xlink:href="#m3135235313" y="296.728"/>
      </g>
     </g>
    </g>
    <g id="xtick_10">
     <g id="line2d_10">
      <g>
       <use style="stroke:#000000;stroke-width:0.6;" x="126.526596" xlink:href="#m3135235313" y="296.728"/>
      </g>
     </g>
    </g>
    <g id="xtick_11">
     <g id="line2d_11">
      <g>
       <use style="stroke:#000000;stroke-width:0.6;" x="131.444565" xlink:href="#m3135235313" y="296.728"/>
      </g>
     </g>
    </g>
    <g id="xtick_12">
     <g id="line2d_12">
      <g>
       <use style="stroke:#000000;stroke-width:0.6;" x="164.785838" xlink:href="#m3135235313" y="296.728"/>
      </g>
     </g>
    </g>
    <g id="xtick_13">
     <g id="line2d_13">
      <g>
       <use style="stroke:#000000;stroke-width:0.6;" x="181.715822" xlink:href="#m3135235313" y="296.728"/>
      </g>
     </g>
    </g>
    <g id="xtick_14">
     <g id="line2d_14">
      <g>
       <use style="stroke:#000000;stroke-width:0.6;" x="193.727837" xlink:href="#m3135235313" y="296.728"/>
      </g>
     </g>
    </g>
    <g id="xtick_15">
     <g id="line2d_15">
      <g>
       <use style="stroke:#000000;stroke-width:0.6;" x="203.04508" xlink:href="#m3135235313" y="296.728"/>
      </g>
     </g>
    </g>
    <g id="xtick_16">
     <g id="line2d_16">
      <g>
       <use style="stroke:#000000;stroke-width:0.6;" x="210.657822" xlink:href="#m3135235313" y="296.728"/>
      </g>
     </g>
    </g>
    <g id="xtick_17">
     <g id="line2d_17">
      <g>
       <use style="stroke:#000000;stroke-width:0.6;" x="217.094303" xlink:href="#m3135235313" y="296.728"/>
      </g>
     </g>
    </g>
    <g id="xtick_18">
     <g id="line2d_18">
      <g>
       <use style="stroke:#000000;stroke-width:0.6;" x="222.669837" xlink:href="#m3135235313" y="296.728"/>
      </g>
     </g>
    </g>
    <g id="xtick_19">
     <g id="line2d_19">
      <g>
       <use style="stroke:#000000;stroke-width:0.6;" x="227.587806" xlink:href="#m3135235313" y="296.728"/>
      </g>
     </g>
    </g>
    <g id="xtick_20">
     <g id="line2d_20">
      <g>
       <use style="stroke:#000000;stroke-width:0.6;" x="260.929079" xlink:href="#m3135235313" y="296.728"/>
      </g>
     </g>
    </g>
    <g id="xtick_21">
     <g id="line2d_21">
      <g>
       <use style="stroke:#000000;stroke-width:0.6;" x="277.859063" xlink:href="#m3135235313" y="296.728"/>
      </g>
     </g>
    </g>
    <g id="xtick_22">
     <g id="line2d_22">
      <g>
       <use style="stroke:#000000;stroke-width:0.6;" x="289.871078" xlink:href="#m3135235313" y="296.728"/>
      </g>
     </g>
    </g>
    <g id="xtick_23">
     <g id="line2d_23">
      <g>
       <use style="stroke:#000000;stroke-width:0.6;" x="299.188321" xlink:href="#m3135235313" y="296.728"/>
      </g>
     </g>
    </g>
    <g id="xtick_24">
     <g id="line2d_24">
      <g>
       <use style="stroke:#000000;stroke-width:0.6;" x="306.801062" xlink:href="#m3135235313" y="296.728"/>
      </g>
     </g>
    </g>
    <g id="xtick_25">
     <g id="line2d_25">
      <g>
       <use style="stroke:#000000;stroke-width:0.6;" x="313.237544" xlink:href="#m3135235313" y="296.728"/>
      </g>
     </g>
    </g>
    <g id="xtick_26">
     <g id="line2d_26">
      <g>
       <use style="stroke:#000000;stroke-width:0.6;" x="318.813077" xlink:href="#m3135235313" y="296.728"/>
      </g>
     </g>
    </g>
    <g id="xtick_27">
     <g id="line2d_27">
      <g>
       <use style="stroke:#000000;stroke-width:0.6;" x="323.731047" xlink:href="#m3135235313" y="296.728"/>
      </g>
     </g>
    </g>
    <g id="xtick_28">
     <g id="line2d_28">
      <g>
       <use style="stroke:#000000;stroke-width:0.6;" x="357.072319" xlink:href="#m3135235313" y="296.728"/>
      </g>
     </g>
    </g>
    <g id="xtick_29">
     <g id="line2d_29">
      <g>
       <use style="stroke:#000000;stroke-width:0.6;" x="374.002304" xlink:href="#m3135235313" y="296.728"/>
      </g>
     </g>
    </g>
    <g id="xtick_30">
     <g id="line2d_30">
      <g>
       <use style="stroke:#000000;stroke-width:0.6;" x="386.014319" xlink:href="#m3135235313" y="296.728"/>
      </g>
     </g>
    </g>
    <g id="xtick_31">
     <g id="line2d_31">
      <g>
       <use style="stroke:#000000;stroke-width:0.6;" x="395.331562" xlink:href="#m3135235313" y="296.728"/>
      </g>
     </g>
    </g>
    <g id="xtick_32">
     <g id="line2d_32">
      <g>
       <use style="stroke:#000000;stroke-width:0.6;" x="402.944303" xlink:href="#m3135235313" y="296.728"/>
      </g>
     </g>
    </g>
    <g id="xtick_33">
     <g id="line2d_33">
      <g>
       <use style="stroke:#000000;stroke-width:0.6;" x="409.380784" xlink:href="#m3135235313" y="296.728"/>
      </g>
     </g>
    </g>
    <g id="xtick_34">
     <g id="line2d_34">
      <g>
       <use style="stroke:#000000;stroke-width:0.6;" x="414.956318" xlink:href="#m3135235313" y="296.728"/>
      </g>
     </g>
    </g>
    <g id="xtick_35">
     <g id="line2d_35">
      <g>
       <use style="stroke:#000000;stroke-width:0.6;" x="419.874287" xlink:href="#m3135235313" y="296.728"/>
      </g>
     </g>
    </g>
    <g id="text_5">
     <!-- Time [sec] -->
     <g transform="translate(226.824044 328.043937)scale(0.14 -0.14)">
      <defs>
       <path d="M -0.296875 72.90625 
L 61.375 72.90625 
L 61.375 64.59375 
L 35.5 64.59375 
L 35.5 0 
L 25.59375 0 
L 25.59375 64.59375 
L -0.296875 64.59375 
z
" id="DejaVuSans-84"/>
       <path d="M 9.421875 54.6875 
L 18.40625 54.6875 
L 18.40625 0 
L 9.421875 0 
z
M 9.421875 75.984375 
L 18.40625 75.984375 
L 18.40625 64.59375 
L 9.421875 64.59375 
z
" id="DejaVuSans-105"/>
       <path d="M 52 44.1875 
Q 55.375 50.25 60.0625 53.125 
Q 64.75 56 71.09375 56 
Q 79.640625 56 84.28125 50.015625 
Q 88.921875 44.046875 88.921875 33.015625 
L 88.921875 0 
L 79.890625 0 
L 79.890625 32.71875 
Q 79.890625 40.578125 77.09375 44.375 
Q 74.3125 48.1875 68.609375 48.1875 
Q 61.625 48.1875 57.5625 43.546875 
Q 53.515625 38.921875 53.515625 30.90625 
L 53.515625 0 
L 44.484375 0 
L 44.484375 32.71875 
Q 44.484375 40.625 41.703125 44.40625 
Q 38.921875 48.1875 33.109375 48.1875 
Q 26.21875 48.1875 22.15625 43.53125 
Q 18.109375 38.875 18.109375 30.90625 
L 18.109375 0 
L 9.078125 0 
L 9.078125 54.6875 
L 18.109375 54.6875 
L 18.109375 46.1875 
Q 21.1875 51.21875 25.484375 53.609375 
Q 29.78125 56 35.6875 56 
Q 41.65625 56 45.828125 52.96875 
Q 50 49.953125 52 44.1875 
z
" id="DejaVuSans-109"/>
       <path d="M 56.203125 29.59375 
L 56.203125 25.203125 
L 14.890625 25.203125 
Q 15.484375 15.921875 20.484375 11.0625 
Q 25.484375 6.203125 34.421875 6.203125 
Q 39.59375 6.203125 44.453125 7.46875 
Q 49.3125 8.734375 54.109375 11.28125 
L 54.109375 2.78125 
Q 49.265625 0.734375 44.1875 -0.34375 
Q 39.109375 -1.421875 33.890625 -1.421875 
Q 20.796875 -1.421875 13.15625 6.1875 
Q 5.515625 13.8125 5.515625 26.8125 
Q 5.515625 40.234375 12.765625 48.109375 
Q 20.015625 56 32.328125 56 
Q 43.359375 56 49.78125 48.890625 
Q 56.203125 41.796875 56.203125 29.59375 
z
M 47.21875 32.234375 
Q 47.125 39.59375 43.09375 43.984375 
Q 39.0625 48.390625 32.421875 48.390625 
Q 24.90625 48.390625 20.390625 44.140625 
Q 15.875 39.890625 15.1875 32.171875 
z
" id="DejaVuSans-101"/>
       <path id="DejaVuSans-32"/>
       <path d="M 8.59375 75.984375 
L 29.296875 75.984375 
L 29.296875 69 
L 17.578125 69 
L 17.578125 -6.203125 
L 29.296875 -6.203125 
L 29.296875 -13.1875 
L 8.59375 -13.1875 
z
" id="DejaVuSans-91"/>
       <path d="M 44.28125 53.078125 
L 44.28125 44.578125 
Q 40.484375 46.53125 36.375 47.5 
Q 32.28125 48.484375 27.875 48.484375 
Q 21.1875 48.484375 17.84375 46.4375 
Q 14.5 44.390625 14.5 40.28125 
Q 14.5 37.15625 16.890625 35.375 
Q 19.28125 33.59375 26.515625 31.984375 
L 29.59375 31.296875 
Q 39.15625 29.25 43.1875 25.515625 
Q 47.21875 21.78125 47.21875 15.09375 
Q 47.21875 7.46875 41.1875 3.015625 
Q 35.15625 -1.421875 24.609375 -1.421875 
Q 20.21875 -1.421875 15.453125 -0.5625 
Q 10.6875 0.296875 5.421875 2 
L 5.421875 11.28125 
Q 10.40625 8.6875 15.234375 7.390625 
Q 20.0625 6.109375 24.8125 6.109375 
Q 31.15625 6.109375 34.5625 8.28125 
Q 37.984375 10.453125 37.984375 14.40625 
Q 37.984375 18.0625 35.515625 20.015625 
Q 33.0625 21.96875 24.703125 23.78125 
L 21.578125 24.515625 
Q 13.234375 26.265625 9.515625 29.90625 
Q 5.8125 33.546875 5.8125 39.890625 
Q 5.8125 47.609375 11.28125 51.796875 
Q 16.75 56 26.8125 56 
Q 31.78125 56 36.171875 55.265625 
Q 40.578125 54.546875 44.28125 53.078125 
z
" id="DejaVuSans-115"/>
       <path d="M 48.78125 52.59375 
L 48.78125 44.1875 
Q 44.96875 46.296875 41.140625 47.34375 
Q 37.3125 48.390625 33.40625 48.390625 
Q 24.65625 48.390625 19.8125 42.84375 
Q 14.984375 37.3125 14.984375 27.296875 
Q 14.984375 17.28125 19.8125 11.734375 
Q 24.65625 6.203125 33.40625 6.203125 
Q 37.3125 6.203125 41.140625 7.25 
Q 44.96875 8.296875 48.78125 10.40625 
L 48.78125 2.09375 
Q 45.015625 0.34375 40.984375 -0.53125 
Q 36.96875 -1.421875 32.421875 -1.421875 
Q 20.0625 -1.421875 12.78125 6.34375 
Q 5.515625 14.109375 5.515625 27.296875 
Q 5.515625 40.671875 12.859375 48.328125 
Q 20.21875 56 33.015625 56 
Q 37.15625 56 41.109375 55.140625 
Q 45.0625 54.296875 48.78125 52.59375 
z
" id="DejaVuSans-99"/>
       <path d="M 30.421875 75.984375 
L 30.421875 -13.1875 
L 9.71875 -13.1875 
L 9.71875 -6.203125 
L 21.390625 -6.203125 
L 21.390625 69 
L 9.71875 69 
L 9.71875 75.984375 
z
" id="DejaVuSans-93"/>
      </defs>
      <use xlink:href="#DejaVuSans-84"/>
      <use x="57.958984" xlink:href="#DejaVuSans-105"/>
      <use x="85.742188" xlink:href="#DejaVuSans-109"/>
      <use x="183.154297" xlink:href="#DejaVuSans-101"/>
      <use x="244.677734" xlink:href="#DejaVuSans-32"/>
      <use x="276.464844" xlink:href="#DejaVuSans-91"/>
      <use x="315.478516" xlink:href="#DejaVuSans-115"/>
      <use x="367.578125" xlink:href="#DejaVuSans-101"/>
      <use x="429.101562" xlink:href="#DejaVuSans-99"/>
      <use x="484.082031" xlink:href="#DejaVuSans-93"/>
     </g>
    </g>
   </g>
   <g id="matplotlib.axis_2">
    <g id="ytick_1">
     <g id="line2d_36">
      <defs>
       <path d="M 0 0 
L -3.5 0 
" id="m762bfb4409" style="stroke:#000000;stroke-width:0.8;"/>
      </defs>
      <g>
       <use style="stroke:#000000;stroke-width:0.8;" x="76.881214" xlink:href="#m762bfb4409" y="270.274089"/>
      </g>
     </g>
     <g id="text_6">
      <!-- $\mathdefault{10^{-14}}$ -->
      <g transform="translate(41.981214 274.073307)scale(0.1 -0.1)">
       <defs>
        <path d="M 37.796875 64.3125 
L 12.890625 25.390625 
L 37.796875 25.390625 
z
M 35.203125 72.90625 
L 47.609375 72.90625 
L 47.609375 25.390625 
L 58.015625 25.390625 
L 58.015625 17.1875 
L 47.609375 17.1875 
L 47.609375 0 
L 37.796875 0 
L 37.796875 17.1875 
L 4.890625 17.1875 
L 4.890625 26.703125 
z
" id="DejaVuSans-52"/>
       </defs>
       <use transform="translate(0 0.684375)" xlink:href="#DejaVuSans-49"/>
       <use transform="translate(63.623047 0.684375)" xlink:href="#DejaVuSans-48"/>
       <use transform="translate(128.203125 38.965625)scale(0.7)" xlink:href="#DejaVuSans-8722"/>
       <use transform="translate(186.855469 38.965625)scale(0.7)" xlink:href="#DejaVuSans-49"/>
       <use transform="translate(231.391602 38.965625)scale(0.7)" xlink:href="#DejaVuSans-52"/>
      </g>
     </g>
    </g>
    <g id="ytick_2">
     <g id="line2d_37">
      <g>
       <use style="stroke:#000000;stroke-width:0.8;" x="76.881214" xlink:href="#m762bfb4409" y="239.513946"/>
      </g>
     </g>
     <g id="text_7">
      <!-- $\mathdefault{10^{-12}}$ -->
      <g transform="translate(41.981214 243.313165)scale(0.1 -0.1)">
       <use transform="translate(0 0.765625)" xlink:href="#DejaVuSans-49"/>
       <use transform="translate(63.623047 0.765625)" xlink:href="#DejaVuSans-48"/>
       <use transform="translate(128.203125 39.046875)scale(0.7)" xlink:href="#DejaVuSans-8722"/>
       <use transform="translate(186.855469 39.046875)scale(0.7)" xlink:href="#DejaVuSans-49"/>
       <use transform="translate(231.391602 39.046875)scale(0.7)" xlink:href="#DejaVuSans-50"/>
      </g>
     </g>
    </g>
    <g id="ytick_3">
     <g id="line2d_38">
      <g>
       <use style="stroke:#000000;stroke-width:0.8;" x="76.881214" xlink:href="#m762bfb4409" y="208.753803"/>
      </g>
     </g>
     <g id="text_8">
      <!-- $\mathdefault{10^{-10}}$ -->
      <g transform="translate(41.981214 212.553022)scale(0.1 -0.1)">
       <use transform="translate(0 0.765625)" xlink:href="#DejaVuSans-49"/>
       <use transform="translate(63.623047 0.765625)" xlink:href="#DejaVuSans-48"/>
       <use transform="translate(128.203125 39.046875)scale(0.7)" xlink:href="#DejaVuSans-8722"/>
       <use transform="translate(186.855469 39.046875)scale(0.7)" xlink:href="#DejaVuSans-49"/>
       <use transform="translate(231.391602 39.046875)scale(0.7)" xlink:href="#DejaVuSans-48"/>
      </g>
     </g>
    </g>
    <g id="ytick_4">
     <g id="line2d_39">
      <g>
       <use style="stroke:#000000;stroke-width:0.8;" x="76.881214" xlink:href="#m762bfb4409" y="177.993661"/>
      </g>
     </g>
     <g id="text_9">
      <!-- $\mathdefault{10^{-8}}$ -->
      <g transform="translate(46.381214 181.79288)scale(0.1 -0.1)">
       <defs>
        <path d="M 31.78125 34.625 
Q 24.75 34.625 20.71875 30.859375 
Q 16.703125 27.09375 16.703125 20.515625 
Q 16.703125 13.921875 20.71875 10.15625 
Q 24.75 6.390625 31.78125 6.390625 
Q 38.8125 6.390625 42.859375 10.171875 
Q 46.921875 13.96875 46.921875 20.515625 
Q 46.921875 27.09375 42.890625 30.859375 
Q 38.875 34.625 31.78125 34.625 
z
M 21.921875 38.8125 
Q 15.578125 40.375 12.03125 44.71875 
Q 8.5 49.078125 8.5 55.328125 
Q 8.5 64.0625 14.71875 69.140625 
Q 20.953125 74.21875 31.78125 74.21875 
Q 42.671875 74.21875 48.875 69.140625 
Q 55.078125 64.0625 55.078125 55.328125 
Q 55.078125 49.078125 51.53125 44.71875 
Q 48 40.375 41.703125 38.8125 
Q 48.828125 37.15625 52.796875 32.3125 
Q 56.78125 27.484375 56.78125 20.515625 
Q 56.78125 9.90625 50.3125 4.234375 
Q 43.84375 -1.421875 31.78125 -1.421875 
Q 19.734375 -1.421875 13.25 4.234375 
Q 6.78125 9.90625 6.78125 20.515625 
Q 6.78125 27.484375 10.78125 32.3125 
Q 14.796875 37.15625 21.921875 38.8125 
z
M 18.3125 54.390625 
Q 18.3125 48.734375 21.84375 45.5625 
Q 25.390625 42.390625 31.78125 42.390625 
Q 38.140625 42.390625 41.71875 45.5625 
Q 45.3125 48.734375 45.3125 54.390625 
Q 45.3125 60.0625 41.71875 63.234375 
Q 38.140625 66.40625 31.78125 66.40625 
Q 25.390625 66.40625 21.84375 63.234375 
Q 18.3125 60.0625 18.3125 54.390625 
z
" id="DejaVuSans-56"/>
       </defs>
       <use transform="translate(0 0.765625)" xlink:href="#DejaVuSans-49"/>
       <use transform="translate(63.623047 0.765625)" xlink:href="#DejaVuSans-48"/>
       <use transform="translate(128.203125 39.046875)scale(0.7)" xlink:href="#DejaVuSans-8722"/>
       <use transform="translate(186.855469 39.046875)scale(0.7)" xlink:href="#DejaVuSans-56"/>
      </g>
     </g>
    </g>
    <g id="ytick_5">
     <g id="line2d_40">
      <g>
       <use style="stroke:#000000;stroke-width:0.8;" x="76.881214" xlink:href="#m762bfb4409" y="147.233518"/>
      </g>
     </g>
     <g id="text_10">
      <!-- $\mathdefault{10^{-6}}$ -->
      <g transform="translate(46.381214 151.032737)scale(0.1 -0.1)">
       <defs>
        <path d="M 33.015625 40.375 
Q 26.375 40.375 22.484375 35.828125 
Q 18.609375 31.296875 18.609375 23.390625 
Q 18.609375 15.53125 22.484375 10.953125 
Q 26.375 6.390625 33.015625 6.390625 
Q 39.65625 6.390625 43.53125 10.953125 
Q 47.40625 15.53125 47.40625 23.390625 
Q 47.40625 31.296875 43.53125 35.828125 
Q 39.65625 40.375 33.015625 40.375 
z
M 52.59375 71.296875 
L 52.59375 62.3125 
Q 48.875 64.0625 45.09375 64.984375 
Q 41.3125 65.921875 37.59375 65.921875 
Q 27.828125 65.921875 22.671875 59.328125 
Q 17.53125 52.734375 16.796875 39.40625 
Q 19.671875 43.65625 24.015625 45.921875 
Q 28.375 48.1875 33.59375 48.1875 
Q 44.578125 48.1875 50.953125 41.515625 
Q 57.328125 34.859375 57.328125 23.390625 
Q 57.328125 12.15625 50.6875 5.359375 
Q 44.046875 -1.421875 33.015625 -1.421875 
Q 20.359375 -1.421875 13.671875 8.265625 
Q 6.984375 17.96875 6.984375 36.375 
Q 6.984375 53.65625 15.1875 63.9375 
Q 23.390625 74.21875 37.203125 74.21875 
Q 40.921875 74.21875 44.703125 73.484375 
Q 48.484375 72.75 52.59375 71.296875 
z
" id="DejaVuSans-54"/>
       </defs>
       <use transform="translate(0 0.765625)" xlink:href="#DejaVuSans-49"/>
       <use transform="translate(63.623047 0.765625)" xlink:href="#DejaVuSans-48"/>
       <use transform="translate(128.203125 39.046875)scale(0.7)" xlink:href="#DejaVuSans-8722"/>
       <use transform="translate(186.855469 39.046875)scale(0.7)" xlink:href="#DejaVuSans-54"/>
      </g>
     </g>
    </g>
    <g id="ytick_6">
     <g id="line2d_41">
      <g>
       <use style="stroke:#000000;stroke-width:0.8;" x="76.881214" xlink:href="#m762bfb4409" y="116.473376"/>
      </g>
     </g>
     <g id="text_11">
      <!-- $\mathdefault{10^{-4}}$ -->
      <g transform="translate(46.381214 120.272595)scale(0.1 -0.1)">
       <use transform="translate(0 0.684375)" xlink:href="#DejaVuSans-49"/>
       <use transform="translate(63.623047 0.684375)" xlink:href="#DejaVuSans-48"/>
       <use transform="translate(128.203125 38.965625)scale(0.7)" xlink:href="#DejaVuSans-8722"/>
       <use transform="translate(186.855469 38.965625)scale(0.7)" xlink:href="#DejaVuSans-52"/>
      </g>
     </g>
    </g>
    <g id="ytick_7">
     <g id="line2d_42">
      <g>
       <use style="stroke:#000000;stroke-width:0.8;" x="76.881214" xlink:href="#m762bfb4409" y="85.713233"/>
      </g>
     </g>
     <g id="text_12">
      <!-- $\mathdefault{10^{-2}}$ -->
      <g transform="translate(46.381214 89.512452)scale(0.1 -0.1)">
       <use transform="translate(0 0.765625)" xlink:href="#DejaVuSans-49"/>
       <use transform="translate(63.623047 0.765625)" xlink:href="#DejaVuSans-48"/>
       <use transform="translate(128.203125 39.046875)scale(0.7)" xlink:href="#DejaVuSans-8722"/>
       <use transform="translate(186.855469 39.046875)scale(0.7)" xlink:href="#DejaVuSans-50"/>
      </g>
     </g>
    </g>
    <g id="ytick_8">
     <g id="line2d_43">
      <g>
       <use style="stroke:#000000;stroke-width:0.8;" x="76.881214" xlink:href="#m762bfb4409" y="54.953091"/>
      </g>
     </g>
     <g id="text_13">
      <!-- $\mathdefault{10^{0}}$ -->
      <g transform="translate(52.281214 58.75231)scale(0.1 -0.1)">
       <use transform="translate(0 0.765625)" xlink:href="#DejaVuSans-49"/>
       <use transform="translate(63.623047 0.765625)" xlink:href="#DejaVuSans-48"/>
       <use transform="translate(128.203125 39.046875)scale(0.7)" xlink:href="#DejaVuSans-48"/>
      </g>
     </g>
    </g>
    <g id="text_14">
     <!-- $\frac{F(x) - F(x*)}{F(x^0) - F(x*)}$ -->
     <g transform="translate(29.581214 202.984)rotate(-90)scale(0.14 -0.14)">
      <defs>
       <path d="M 16.890625 72.90625 
L 58.6875 72.90625 
L 57.078125 64.59375 
L 25.09375 64.59375 
L 20.90625 43.109375 
L 49.8125 43.109375 
L 48.1875 34.8125 
L 19.28125 34.8125 
L 12.5 0 
L 2.6875 0 
z
" id="DejaVuSans-Oblique-70"/>
       <path d="M 31 75.875 
Q 24.46875 64.65625 21.28125 53.65625 
Q 18.109375 42.671875 18.109375 31.390625 
Q 18.109375 20.125 21.3125 9.0625 
Q 24.515625 -2 31 -13.1875 
L 23.1875 -13.1875 
Q 15.875 -1.703125 12.234375 9.375 
Q 8.59375 20.453125 8.59375 31.390625 
Q 8.59375 42.28125 12.203125 53.3125 
Q 15.828125 64.359375 23.1875 75.875 
z
" id="DejaVuSans-40"/>
       <path d="M 60.015625 54.6875 
L 34.90625 27.875 
L 50.296875 0 
L 39.984375 0 
L 28.421875 21.6875 
L 8.296875 0 
L -2.59375 0 
L 24.3125 28.8125 
L 10.015625 54.6875 
L 20.3125 54.6875 
L 30.8125 34.90625 
L 49.125 54.6875 
z
" id="DejaVuSans-Oblique-120"/>
       <path d="M 8.015625 75.875 
L 15.828125 75.875 
Q 23.140625 64.359375 26.78125 53.3125 
Q 30.421875 42.28125 30.421875 31.390625 
Q 30.421875 20.453125 26.78125 9.375 
Q 23.140625 -1.703125 15.828125 -13.1875 
L 8.015625 -13.1875 
Q 14.5 -2 17.703125 9.0625 
Q 20.90625 20.125 20.90625 31.390625 
Q 20.90625 42.671875 17.703125 53.65625 
Q 14.5 64.65625 8.015625 75.875 
z
" id="DejaVuSans-41"/>
       <path d="M 47.015625 60.890625 
L 29.5 51.421875 
L 47.015625 41.890625 
L 44.1875 37.109375 
L 27.78125 47.015625 
L 27.78125 28.609375 
L 22.21875 28.609375 
L 22.21875 47.015625 
L 5.8125 37.109375 
L 2.984375 41.890625 
L 20.515625 51.421875 
L 2.984375 60.890625 
L 5.8125 65.71875 
L 22.21875 55.8125 
L 22.21875 74.21875 
L 27.78125 74.21875 
L 27.78125 55.8125 
L 44.1875 65.71875 
z
" id="DejaVuSans-42"/>
      </defs>
      <use transform="translate(18 53.8875)scale(0.7)" xlink:href="#DejaVuSans-Oblique-70"/>
      <use transform="translate(58.263672 53.8875)scale(0.7)" xlink:href="#DejaVuSans-40"/>
      <use transform="translate(85.573242 53.8875)scale(0.7)" xlink:href="#DejaVuSans-Oblique-120"/>
      <use transform="translate(126.999023 53.8875)scale(0.7)" xlink:href="#DejaVuSans-41"/>
      <use transform="translate(167.946289 53.8875)scale(0.7)" xlink:href="#DejaVuSans-8722"/>
      <use transform="translate(240.236328 53.8875)scale(0.7)" xlink:href="#DejaVuSans-Oblique-70"/>
      <use transform="translate(280.5 53.8875)scale(0.7)" xlink:href="#DejaVuSans-40"/>
      <use transform="translate(307.80957 53.8875)scale(0.7)" xlink:href="#DejaVuSans-Oblique-120"/>
      <use transform="translate(362.873047 53.8875)scale(0.7)" xlink:href="#DejaVuSans-42"/>
      <use transform="translate(411.510742 53.8875)scale(0.7)" xlink:href="#DejaVuSans-41"/>
      <use transform="translate(0 -49.757812)scale(0.7)" xlink:href="#DejaVuSans-Oblique-70"/>
      <use transform="translate(40.263672 -49.757812)scale(0.7)" xlink:href="#DejaVuSans-40"/>
      <use transform="translate(67.573242 -49.757812)scale(0.7)" xlink:href="#DejaVuSans-Oblique-120"/>
      <use transform="translate(112.125326 -22.960938)scale(0.49)" xlink:href="#DejaVuSans-48"/>
      <use transform="translate(145.214681 -49.757812)scale(0.7)" xlink:href="#DejaVuSans-41"/>
      <use transform="translate(186.161947 -49.757812)scale(0.7)" xlink:href="#DejaVuSans-8722"/>
      <use transform="translate(258.451986 -49.757812)scale(0.7)" xlink:href="#DejaVuSans-Oblique-70"/>
      <use transform="translate(298.715658 -49.757812)scale(0.7)" xlink:href="#DejaVuSans-40"/>
      <use transform="translate(326.025228 -49.757812)scale(0.7)" xlink:href="#DejaVuSans-Oblique-120"/>
      <use transform="translate(381.088704 -49.757812)scale(0.7)" xlink:href="#DejaVuSans-42"/>
      <use transform="translate(429.7264 -49.757812)scale(0.7)" xlink:href="#DejaVuSans-41"/>
      <path d="M 0 19.65625 
L 0 25.90625 
L 457.03597 25.90625 
L 457.03597 19.65625 
L 0 19.65625 
z
"/>
     </g>
    </g>
   </g>
   <g id="LineCollection_1">
    <path clip-path="url(#p5b55b726ef)" d="M 76.881214 208.753803 
L 450 208.753803 
" style="fill:none;stroke:#000000;stroke-dasharray:5.55,2.4;stroke-dashoffset:0;stroke-width:1.5;"/>
   </g>
   <g id="line2d_44">
    <path clip-path="url(#p5b55b726ef)" d="M 269.4746 281.925422 
L 271.335977 283.143235 
L 272.025997 283.509326 
L 271.057062 283.700181 
L 271.139437 283.509326 
L 270.544461 282.000054 
L 270.389927 281.564281 
L 270.774783 283.323773 
L 271.404378 280.895776 
L 269.72878 279.367233 
L 271.522313 282.967449 
L 268.71043 282.466253 
L 269.621677 283.232894 
L 269.402954 283.232894 
L 270.293968 282.547218 
L 270.408455 283.509326 
L 269.445856 281.925422 
L 270.175711 283.232894 
L 269.296929 283.143235 
L 269.462227 282.796171 
L 270.703345 282.796171 
L 269.823906 283.323773 
L 269.634965 283.509326 
L 270.735694 283.143235 
L 270.346712 282.796171 
L 269.731732 282.967449 
L 268.337675 279.118897 
L 269.835874 282.796171 
L 269.773196 283.509326 
L 269.198255 282.000054 
L 269.648297 283.323773 
L 269.470342 281.634964 
L 270.44497 283.232894 
L 268.114713 278.082289 
L 269.508378 282.796171 
L 269.139569 282.796171 
L 269.085167 277.958208 
L 269.880205 280.707609 
L 269.355698 278.558052 
L 269.642542 274.273161 
L 269.535207 270.620049 
L 268.409289 264.850229 
L 267.125959 259.431078 
L 265.947375 253.493829 
L 265.415843 249.525086 
L 263.719194 243.655191 
L 262.290653 239.268638 
L 261.530389 233.240848 
L 260.037061 226.481027 
L 260.067723 222.457055 
L 257.784895 214.233085 
L 256.11247 211.323845 
L 254.17497 205.327963 
L 252.297114 200.517571 
L 249.150405 195.927751 
L 245.674597 189.66037 
L 242.506071 183.637644 
L 241.398463 178.380504 
L 238.433882 173.103134 
L 233.131445 169.03204 
L 223.508985 162.221003 
L 223.474113 157.883444 
L 212.619808 150.770761 
L 208.704613 147.84632 
L 206.707574 143.463081 
L 200.210243 140.097023 
L 194.854307 134.437264 
L 194.72084 133.667691 
L 191.693715 127.509218 
L 182.183924 121.761751 
L 178.872537 120.594176 
L 177.785738 116.99053 
L 173.435987 115.164394 
L 165.855667 103.972246 
L 163.669662 104.068695 
L 148.271893 98.083125 
L 146.664761 97.882409 
L 134.277403 96.587684 
L 126.527311 90.345197 
L 94.512007 79.336797 
L 96.422154 79.347156 
" style="fill:none;stroke:#1f77b4;stroke-linecap:square;stroke-width:3;"/>
   </g>
   <g id="line2d_45">
    <path clip-path="url(#p5b55b726ef)" d="M 126.836301 64.150007 
L 124.739227 66.835149 
L 135.703576 68.893688 
L 139.630651 70.486937 
L 146.883843 73.160209 
L 150.693972 76.682829 
L 165.516573 80.435031 
L 175.84144 84.642348 
L 190.829546 89.114776 
L 201.735615 95.245974 
L 216.857746 102.914509 
L 232.872949 113.002364 
L 249.682115 128.156955 
L 264.028701 139.980723 
L 276.860188 152.388174 
L 290.674106 166.238086 
L 303.579776 182.896848 
L 317.163747 202.899666 
L 332.488344 229.179534 
L 348.83832 267.467024 
L 365.571651 284.860163 
L 383.892527 284.860163 
L 409.810894 284.860163 
L 433.040055 284.860163 
" style="fill:none;stroke:#ff7f0e;stroke-linecap:square;stroke-width:3;"/>
   </g>
   <g id="line2d_46">
    <path clip-path="url(#p5b55b726ef)" d="M 150.57611 59.922749 
L 151.372372 66.44176 
L 166.839259 73.735435 
L 161.822171 80.768145 
L 170.47466 92.738761 
L 184.286009 123.667686 
L 207.08497 172.561714 
L 222.15222 229.743218 
L 239.31013 284.860163 
L 252.18018 284.860163 
L 252.998585 284.860163 
L 252.94997 284.860163 
L 252.322558 284.860163 
L 251.878759 284.860163 
" style="fill:none;stroke:#2ca02c;stroke-linecap:square;stroke-width:3;"/>
   </g>
   <g id="line2d_47">
    <path clip-path="url(#p5b55b726ef)" d="M 296.416209 58.026794 
L 310.360803 58.026794 
L 321.837181 58.026794 
L 343.519694 58.026794 
L 377.475531 79.892601 
L 401.737381 203.363073 
L 401.954365 203.363073 
L 403.78455 203.363073 
" style="fill:none;stroke:#d62728;stroke-linecap:square;stroke-width:3;"/>
   </g>
   <g id="line2d_48">
    <path clip-path="url(#p5b55b726ef)" d="M 112.377324 54.953091 
L 109.897097 64.38476 
L 106.680775 68.849949 
L 126.16458 69.453575 
L 115.286293 70.622143 
L 139.133439 72.070237 
L 167.598771 72.437843 
L 188.70897 72.437843 
L 206.583744 77.521308 
L 220.124369 82.465007 
L 234.203424 87.228961 
L 254.253233 96.361642 
L 275.971502 110.024131 
L 299.567847 127.783064 
L 327.512378 156.465964 
L 341.641374 236.089806 
L 370.476362 239.523355 
L 401.770308 243.466214 
L 425.520894 248.192156 
" style="fill:none;stroke:#9467bd;stroke-linecap:square;stroke-width:3;"/>
   </g>
   <g id="line2d_49">
    <path clip-path="url(#p5b55b726ef)" d="M 207.251978 54.953091 
L 199.587241 55.00972 
L 202.22972 55.00972 
L 208.357368 55.063377 
L 196.653974 55.063377 
L 205.394899 55.127585 
L 209.061582 55.401886 
L 210.970695 55.813755 
L 218.143617 57.312049 
L 222.091104 59.845751 
L 234.499961 64.272522 
L 247.04135 69.189286 
L 261.689855 74.619646 
L 282.558718 87.339275 
L 303.228125 106.927397 
L 308.722161 222.220717 
L 307.816875 222.220717 
L 305.95687 222.220717 
L 306.149506 222.220717 
L 305.520501 222.220717 
L 304.964294 222.220717 
" style="fill:none;stroke:#8c564b;stroke-linecap:square;stroke-width:3;"/>
   </g>
   <g id="line2d_50">
    <path clip-path="url(#p5b55b726ef)" d="M 223.978014 66.482405 
L 222.217795 68.286434 
L 225.027194 68.910747 
L 226.268953 69.375534 
L 227.162519 70.121631 
L 229.138682 70.990336 
L 231.990883 71.880981 
L 239.733239 72.882178 
L 245.005856 73.983175 
L 252.045427 75.22458 
L 260.603859 76.528449 
L 264.224937 77.935855 
L 269.062414 79.512112 
L 275.751309 81.175726 
L 284.318473 82.991033 
L 296.184851 84.985959 
L 306.538852 87.095904 
L 320.47437 89.472268 
L 335.586883 92.53464 
L 353.478262 95.988116 
L 368.673597 100.532115 
L 384.273738 105.022407 
L 396.979739 110.583652 
L 411.05024 117.418986 
" style="fill:none;stroke:#e377c2;stroke-linecap:square;stroke-width:3;"/>
   </g>
   <g id="line2d_51">
    <path clip-path="url(#p5b55b726ef)" d="M 191.855378 58.05551 
L 193.995287 68.172453 
L 198.158183 68.597527 
L 200.87704 69.608249 
L 204.404798 71.108406 
L 213.147857 73.063301 
L 225.560838 75.178579 
L 233.666632 77.609098 
L 245.75736 80.72667 
L 257.314096 84.397049 
L 273.053341 89.215725 
L 284.976796 94.967176 
L 297.777611 102.44666 
L 314.590593 109.640546 
L 328.547687 119.385728 
L 345.05572 128.445969 
L 360.702099 143.52435 
L 374.885697 161.793525 
L 386.04399 194.558308 
L 405.542529 249.009091 
" style="fill:none;stroke:#7f7f7f;stroke-linecap:square;stroke-width:3;"/>
   </g>
   <g id="line2d_52">
    <path clip-path="url(#p5b55b726ef)" d="M 152.026696 62.308445 
L 171.520437 63.901812 
L 176.368276 65.624035 
L 175.122734 67.035759 
L 180.55453 69.411113 
L 181.731658 72.608427 
L 182.629905 74.449807 
L 184.498877 76.177926 
L 184.487953 77.312172 
L 187.127617 77.398307 
L 193.209424 77.885225 
L 196.129828 78.328628 
L 200.241752 77.65967 
L 206.145694 77.934764 
L 215.337979 77.221758 
L 224.993464 77.339126 
L 234.626055 78.689915 
L 248.564951 78.091569 
L 261.844993 76.916038 
L 273.061308 78.224985 
L 283.740174 78.210099 
L 290.693986 78.586493 
L 304.905955 77.968944 
L 316.709505 78.746793 
L 325.839512 77.627454 
L 339.156694 78.342044 
L 352.695164 79.187637 
L 367.919745 77.331229 
L 384.344912 78.115998 
L 399.043955 78.711065 
L 414.274679 78.697424 
" style="fill:none;stroke:#bcbd22;stroke-linecap:square;stroke-width:3;"/>
   </g>
   <g id="line2d_53">
    <path clip-path="url(#p5b55b726ef)" d="M 199.032086 66.482405 
L 202.217573 68.286434 
L 202.445322 68.910747 
L 199.164566 69.375534 
L 202.131011 70.121631 
L 200.858879 70.990336 
L 202.232898 71.880981 
L 203.767896 72.882178 
L 204.966968 73.983175 
L 208.225786 75.22458 
L 212.296889 76.528449 
L 216.580526 77.935855 
L 222.673333 79.512112 
L 229.949049 81.175726 
L 241.968082 82.991033 
L 252.757155 84.985959 
L 265.289907 87.095904 
L 279.594131 89.472268 
L 293.462049 92.53464 
L 312.161417 95.988116 
L 334.845549 100.532115 
L 353.841175 105.022407 
L 371.478262 110.583652 
L 386.569418 117.418986 
L 399.890675 122.902506 
L 431.284252 130.597223 
" style="fill:none;stroke:#17becf;stroke-linecap:square;stroke-width:3;"/>
   </g>
   <g id="line2d_54">
    <path clip-path="url(#p5b55b726ef)" d="M 230.994392 66.482405 
L 231.663126 68.286434 
L 230.997641 69.055449 
L 231.148235 69.712084 
L 233.000446 70.928223 
L 234.77569 72.521039 
L 233.555382 74.259281 
L 233.971612 76.3414 
L 236.754733 78.868587 
L 239.08954 81.98424 
L 242.830725 85.693689 
L 248.942988 90.089177 
L 254.783359 96.465717 
L 262.927211 104.695267 
L 271.97348 115.969829 
L 282.932129 126.606096 
L 296.906753 139.353189 
L 310.903456 150.149895 
L 324.020911 167.76392 
L 339.648837 176.10379 
L 353.032144 175.478064 
L 368.811133 186.33953 
L 384.977972 196.413103 
L 402.458219 207.014091 
" style="fill:none;stroke:#1f77b4;stroke-linecap:square;stroke-width:3;"/>
   </g>
   <g id="line2d_55">
    <path clip-path="url(#p5b55b726ef)" d="M 250.996829 66.482405 
L 255.879726 68.286434 
L 266.722815 68.910747 
L 274.507292 69.375534 
L 287.743277 70.121631 
L 300.954994 70.990336 
L 312.801349 71.880981 
L 328.015586 72.882178 
L 342.91063 73.983175 
L 359.386729 75.22458 
L 372.906245 76.528449 
L 389.322701 77.935855 
L 407.719313 79.512112 
" style="fill:none;stroke:#ff7f0e;stroke-linecap:square;stroke-width:3;"/>
   </g>
   <g id="line2d_56">
    <path clip-path="url(#p5b55b726ef)" d="M 154.361044 64.150007 
L 155.14368 66.835149 
L 162.415133 68.893688 
L 161.501756 70.486937 
L 169.264727 73.160209 
L 171.462263 76.682829 
L 180.076865 80.435031 
L 188.768642 84.642348 
L 193.647023 89.114776 
L 209.085697 95.245974 
L 220.164005 102.914509 
L 233.305277 113.002364 
L 248.581961 128.156955 
L 263.689944 139.980723 
L 274.136413 152.388174 
L 286.520008 166.238086 
L 300.19332 182.896848 
L 313.338763 202.899667 
L 328.14941 229.179617 
L 343.845549 267.475549 
L 355.717791 284.860163 
L 369.315795 285.214909 
L 387.871817 284.745981 
L 398.467673 284.860163 
L 415.173804 285.214909 
" style="fill:none;stroke:#2ca02c;stroke-linecap:square;stroke-width:3;"/>
   </g>
   <g id="line2d_57">
    <path clip-path="url(#p5b55b726ef)" d="M 375.80133 64.150007 
L 410.193043 66.835149 
L 408.744029 68.94651 
L 408.407597 70.310103 
" style="fill:none;stroke:#d62728;stroke-linecap:square;stroke-width:3;"/>
   </g>
   <g id="patch_3">
    <path d="M 76.881214 296.728 
L 76.881214 43.44 
" style="fill:none;stroke:#000000;stroke-linecap:square;stroke-linejoin:miter;stroke-width:0.8;"/>
   </g>
   <g id="patch_4">
    <path d="M 450 296.728 
L 450 43.44 
" style="fill:none;stroke:#000000;stroke-linecap:square;stroke-linejoin:miter;stroke-width:0.8;"/>
   </g>
   <g id="patch_5">
    <path d="M 76.881214 296.728 
L 450 296.728 
" style="fill:none;stroke:#000000;stroke-linecap:square;stroke-linejoin:miter;stroke-width:0.8;"/>
   </g>
   <g id="patch_6">
    <path d="M 76.881214 43.44 
L 450 43.44 
" style="fill:none;stroke:#000000;stroke-linecap:square;stroke-linejoin:miter;stroke-width:0.8;"/>
   </g>
   <g id="text_15">
    <!-- Lasso Regression[reg=0.05] -->
    <g transform="translate(164.779982 21.763062)scale(0.14 -0.14)">
     <defs>
      <path d="M 9.8125 72.90625 
L 19.671875 72.90625 
L 19.671875 8.296875 
L 55.171875 8.296875 
L 55.171875 0 
L 9.8125 0 
z
" id="DejaVuSans-76"/>
      <path d="M 34.28125 27.484375 
Q 23.390625 27.484375 19.1875 25 
Q 14.984375 22.515625 14.984375 16.5 
Q 14.984375 11.71875 18.140625 8.90625 
Q 21.296875 6.109375 26.703125 6.109375 
Q 34.1875 6.109375 38.703125 11.40625 
Q 43.21875 16.703125 43.21875 25.484375 
L 43.21875 27.484375 
z
M 52.203125 31.203125 
L 52.203125 0 
L 43.21875 0 
L 43.21875 8.296875 
Q 40.140625 3.328125 35.546875 0.953125 
Q 30.953125 -1.421875 24.3125 -1.421875 
Q 15.921875 -1.421875 10.953125 3.296875 
Q 6 8.015625 6 15.921875 
Q 6 25.140625 12.171875 29.828125 
Q 18.359375 34.515625 30.609375 34.515625 
L 43.21875 34.515625 
L 43.21875 35.40625 
Q 43.21875 41.609375 39.140625 45 
Q 35.0625 48.390625 27.6875 48.390625 
Q 23 48.390625 18.546875 47.265625 
Q 14.109375 46.140625 10.015625 43.890625 
L 10.015625 52.203125 
Q 14.9375 54.109375 19.578125 55.046875 
Q 24.21875 56 28.609375 56 
Q 40.484375 56 46.34375 49.84375 
Q 52.203125 43.703125 52.203125 31.203125 
z
" id="DejaVuSans-97"/>
      <path d="M 30.609375 48.390625 
Q 23.390625 48.390625 19.1875 42.75 
Q 14.984375 37.109375 14.984375 27.296875 
Q 14.984375 17.484375 19.15625 11.84375 
Q 23.34375 6.203125 30.609375 6.203125 
Q 37.796875 6.203125 41.984375 11.859375 
Q 46.1875 17.53125 46.1875 27.296875 
Q 46.1875 37.015625 41.984375 42.703125 
Q 37.796875 48.390625 30.609375 48.390625 
z
M 30.609375 56 
Q 42.328125 56 49.015625 48.375 
Q 55.71875 40.765625 55.71875 27.296875 
Q 55.71875 13.875 49.015625 6.21875 
Q 42.328125 -1.421875 30.609375 -1.421875 
Q 18.84375 -1.421875 12.171875 6.21875 
Q 5.515625 13.875 5.515625 27.296875 
Q 5.515625 40.765625 12.171875 48.375 
Q 18.84375 56 30.609375 56 
z
" id="DejaVuSans-111"/>
      <path d="M 44.390625 34.1875 
Q 47.5625 33.109375 50.5625 29.59375 
Q 53.5625 26.078125 56.59375 19.921875 
L 66.609375 0 
L 56 0 
L 46.6875 18.703125 
Q 43.0625 26.03125 39.671875 28.421875 
Q 36.28125 30.8125 30.421875 30.8125 
L 19.671875 30.8125 
L 19.671875 0 
L 9.8125 0 
L 9.8125 72.90625 
L 32.078125 72.90625 
Q 44.578125 72.90625 50.734375 67.671875 
Q 56.890625 62.453125 56.890625 51.90625 
Q 56.890625 45.015625 53.6875 40.46875 
Q 50.484375 35.9375 44.390625 34.1875 
z
M 19.671875 64.796875 
L 19.671875 38.921875 
L 32.078125 38.921875 
Q 39.203125 38.921875 42.84375 42.21875 
Q 46.484375 45.515625 46.484375 51.90625 
Q 46.484375 58.296875 42.84375 61.546875 
Q 39.203125 64.796875 32.078125 64.796875 
z
" id="DejaVuSans-82"/>
      <path d="M 45.40625 27.984375 
Q 45.40625 37.75 41.375 43.109375 
Q 37.359375 48.484375 30.078125 48.484375 
Q 22.859375 48.484375 18.828125 43.109375 
Q 14.796875 37.75 14.796875 27.984375 
Q 14.796875 18.265625 18.828125 12.890625 
Q 22.859375 7.515625 30.078125 7.515625 
Q 37.359375 7.515625 41.375 12.890625 
Q 45.40625 18.265625 45.40625 27.984375 
z
M 54.390625 6.78125 
Q 54.390625 -7.171875 48.1875 -13.984375 
Q 42 -20.796875 29.203125 -20.796875 
Q 24.46875 -20.796875 20.265625 -20.09375 
Q 16.0625 -19.390625 12.109375 -17.921875 
L 12.109375 -9.1875 
Q 16.0625 -11.328125 19.921875 -12.34375 
Q 23.78125 -13.375 27.78125 -13.375 
Q 36.625 -13.375 41.015625 -8.765625 
Q 45.40625 -4.15625 45.40625 5.171875 
L 45.40625 9.625 
Q 42.625 4.78125 38.28125 2.390625 
Q 33.9375 0 27.875 0 
Q 17.828125 0 11.671875 7.65625 
Q 5.515625 15.328125 5.515625 27.984375 
Q 5.515625 40.671875 11.671875 48.328125 
Q 17.828125 56 27.875 56 
Q 33.9375 56 38.28125 53.609375 
Q 42.625 51.21875 45.40625 46.390625 
L 45.40625 54.6875 
L 54.390625 54.6875 
z
" id="DejaVuSans-103"/>
      <path d="M 41.109375 46.296875 
Q 39.59375 47.171875 37.8125 47.578125 
Q 36.03125 48 33.890625 48 
Q 26.265625 48 22.1875 43.046875 
Q 18.109375 38.09375 18.109375 28.8125 
L 18.109375 0 
L 9.078125 0 
L 9.078125 54.6875 
L 18.109375 54.6875 
L 18.109375 46.1875 
Q 20.953125 51.171875 25.484375 53.578125 
Q 30.03125 56 36.53125 56 
Q 37.453125 56 38.578125 55.875 
Q 39.703125 55.765625 41.0625 55.515625 
z
" id="DejaVuSans-114"/>
      <path d="M 54.890625 33.015625 
L 54.890625 0 
L 45.90625 0 
L 45.90625 32.71875 
Q 45.90625 40.484375 42.875 44.328125 
Q 39.84375 48.1875 33.796875 48.1875 
Q 26.515625 48.1875 22.3125 43.546875 
Q 18.109375 38.921875 18.109375 30.90625 
L 18.109375 0 
L 9.078125 0 
L 9.078125 54.6875 
L 18.109375 54.6875 
L 18.109375 46.1875 
Q 21.34375 51.125 25.703125 53.5625 
Q 30.078125 56 35.796875 56 
Q 45.21875 56 50.046875 50.171875 
Q 54.890625 44.34375 54.890625 33.015625 
z
" id="DejaVuSans-110"/>
      <path d="M 10.59375 45.40625 
L 73.1875 45.40625 
L 73.1875 37.203125 
L 10.59375 37.203125 
z
M 10.59375 25.484375 
L 73.1875 25.484375 
L 73.1875 17.1875 
L 10.59375 17.1875 
z
" id="DejaVuSans-61"/>
      <path d="M 10.6875 12.40625 
L 21 12.40625 
L 21 0 
L 10.6875 0 
z
" id="DejaVuSans-46"/>
      <path d="M 10.796875 72.90625 
L 49.515625 72.90625 
L 49.515625 64.59375 
L 19.828125 64.59375 
L 19.828125 46.734375 
Q 21.96875 47.46875 24.109375 47.828125 
Q 26.265625 48.1875 28.421875 48.1875 
Q 40.625 48.1875 47.75 41.5 
Q 54.890625 34.8125 54.890625 23.390625 
Q 54.890625 11.625 47.5625 5.09375 
Q 40.234375 -1.421875 26.90625 -1.421875 
Q 22.3125 -1.421875 17.546875 -0.640625 
Q 12.796875 0.140625 7.71875 1.703125 
L 7.71875 11.625 
Q 12.109375 9.234375 16.796875 8.0625 
Q 21.484375 6.890625 26.703125 6.890625 
Q 35.15625 6.890625 40.078125 11.328125 
Q 45.015625 15.765625 45.015625 23.390625 
Q 45.015625 31 40.078125 35.4375 
Q 35.15625 39.890625 26.703125 39.890625 
Q 22.75 39.890625 18.8125 39.015625 
Q 14.890625 38.140625 10.796875 36.28125 
z
" id="DejaVuSans-53"/>
     </defs>
     <use xlink:href="#DejaVuSans-76"/>
     <use x="55.712891" xlink:href="#DejaVuSans-97"/>
     <use x="116.992188" xlink:href="#DejaVuSans-115"/>
     <use x="169.091797" xlink:href="#DejaVuSans-115"/>
     <use x="221.191406" xlink:href="#DejaVuSans-111"/>
     <use x="282.373047" xlink:href="#DejaVuSans-32"/>
     <use x="314.160156" xlink:href="#DejaVuSans-82"/>
     <use x="379.142578" xlink:href="#DejaVuSans-101"/>
     <use x="440.666016" xlink:href="#DejaVuSans-103"/>
     <use x="504.142578" xlink:href="#DejaVuSans-114"/>
     <use x="543.005859" xlink:href="#DejaVuSans-101"/>
     <use x="604.529297" xlink:href="#DejaVuSans-115"/>
     <use x="656.628906" xlink:href="#DejaVuSans-115"/>
     <use x="708.728516" xlink:href="#DejaVuSans-105"/>
     <use x="736.511719" xlink:href="#DejaVuSans-111"/>
     <use x="797.693359" xlink:href="#DejaVuSans-110"/>
     <use x="861.072266" xlink:href="#DejaVuSans-91"/>
     <use x="900.085938" xlink:href="#DejaVuSans-114"/>
     <use x="938.949219" xlink:href="#DejaVuSans-101"/>
     <use x="1000.472656" xlink:href="#DejaVuSans-103"/>
     <use x="1063.949219" xlink:href="#DejaVuSans-61"/>
     <use x="1147.738281" xlink:href="#DejaVuSans-48"/>
     <use x="1211.361328" xlink:href="#DejaVuSans-46"/>
     <use x="1243.148438" xlink:href="#DejaVuSans-48"/>
     <use x="1306.771484" xlink:href="#DejaVuSans-53"/>
     <use x="1370.394531" xlink:href="#DejaVuSans-93"/>
    </g>
    <!-- Data: Simulated[n_samples=100,n_features=10000,rho=0] -->
    <g transform="translate(53.819044 37.44)scale(0.14 -0.14)">
     <defs>
      <path d="M 19.671875 64.796875 
L 19.671875 8.109375 
L 31.59375 8.109375 
Q 46.6875 8.109375 53.6875 14.9375 
Q 60.6875 21.78125 60.6875 36.53125 
Q 60.6875 51.171875 53.6875 57.984375 
Q 46.6875 64.796875 31.59375 64.796875 
z
M 9.8125 72.90625 
L 30.078125 72.90625 
Q 51.265625 72.90625 61.171875 64.09375 
Q 71.09375 55.28125 71.09375 36.53125 
Q 71.09375 17.671875 61.125 8.828125 
Q 51.171875 0 30.078125 0 
L 9.8125 0 
z
" id="DejaVuSans-68"/>
      <path d="M 18.3125 70.21875 
L 18.3125 54.6875 
L 36.8125 54.6875 
L 36.8125 47.703125 
L 18.3125 47.703125 
L 18.3125 18.015625 
Q 18.3125 11.328125 20.140625 9.421875 
Q 21.96875 7.515625 27.59375 7.515625 
L 36.8125 7.515625 
L 36.8125 0 
L 27.59375 0 
Q 17.1875 0 13.234375 3.875 
Q 9.28125 7.765625 9.28125 18.015625 
L 9.28125 47.703125 
L 2.6875 47.703125 
L 2.6875 54.6875 
L 9.28125 54.6875 
L 9.28125 70.21875 
z
" id="DejaVuSans-116"/>
      <path d="M 11.71875 12.40625 
L 22.015625 12.40625 
L 22.015625 0 
L 11.71875 0 
z
M 11.71875 51.703125 
L 22.015625 51.703125 
L 22.015625 39.3125 
L 11.71875 39.3125 
z
" id="DejaVuSans-58"/>
      <path d="M 53.515625 70.515625 
L 53.515625 60.890625 
Q 47.90625 63.578125 42.921875 64.890625 
Q 37.9375 66.21875 33.296875 66.21875 
Q 25.25 66.21875 20.875 63.09375 
Q 16.5 59.96875 16.5 54.203125 
Q 16.5 49.359375 19.40625 46.890625 
Q 22.3125 44.4375 30.421875 42.921875 
L 36.375 41.703125 
Q 47.40625 39.59375 52.65625 34.296875 
Q 57.90625 29 57.90625 20.125 
Q 57.90625 9.515625 50.796875 4.046875 
Q 43.703125 -1.421875 29.984375 -1.421875 
Q 24.8125 -1.421875 18.96875 -0.25 
Q 13.140625 0.921875 6.890625 3.21875 
L 6.890625 13.375 
Q 12.890625 10.015625 18.65625 8.296875 
Q 24.421875 6.59375 29.984375 6.59375 
Q 38.421875 6.59375 43.015625 9.90625 
Q 47.609375 13.234375 47.609375 19.390625 
Q 47.609375 24.75 44.3125 27.78125 
Q 41.015625 30.8125 33.5 32.328125 
L 27.484375 33.5 
Q 16.453125 35.6875 11.515625 40.375 
Q 6.59375 45.0625 6.59375 53.421875 
Q 6.59375 63.09375 13.40625 68.65625 
Q 20.21875 74.21875 32.171875 74.21875 
Q 37.3125 74.21875 42.625 73.28125 
Q 47.953125 72.359375 53.515625 70.515625 
z
" id="DejaVuSans-83"/>
      <path d="M 8.5 21.578125 
L 8.5 54.6875 
L 17.484375 54.6875 
L 17.484375 21.921875 
Q 17.484375 14.15625 20.5 10.265625 
Q 23.53125 6.390625 29.59375 6.390625 
Q 36.859375 6.390625 41.078125 11.03125 
Q 45.3125 15.671875 45.3125 23.6875 
L 45.3125 54.6875 
L 54.296875 54.6875 
L 54.296875 0 
L 45.3125 0 
L 45.3125 8.40625 
Q 42.046875 3.421875 37.71875 1 
Q 33.40625 -1.421875 27.6875 -1.421875 
Q 18.265625 -1.421875 13.375 4.4375 
Q 8.5 10.296875 8.5 21.578125 
z
M 31.109375 56 
z
" id="DejaVuSans-117"/>
      <path d="M 9.421875 75.984375 
L 18.40625 75.984375 
L 18.40625 0 
L 9.421875 0 
z
" id="DejaVuSans-108"/>
      <path d="M 45.40625 46.390625 
L 45.40625 75.984375 
L 54.390625 75.984375 
L 54.390625 0 
L 45.40625 0 
L 45.40625 8.203125 
Q 42.578125 3.328125 38.25 0.953125 
Q 33.9375 -1.421875 27.875 -1.421875 
Q 17.96875 -1.421875 11.734375 6.484375 
Q 5.515625 14.40625 5.515625 27.296875 
Q 5.515625 40.1875 11.734375 48.09375 
Q 17.96875 56 27.875 56 
Q 33.9375 56 38.25 53.625 
Q 42.578125 51.265625 45.40625 46.390625 
z
M 14.796875 27.296875 
Q 14.796875 17.390625 18.875 11.75 
Q 22.953125 6.109375 30.078125 6.109375 
Q 37.203125 6.109375 41.296875 11.75 
Q 45.40625 17.390625 45.40625 27.296875 
Q 45.40625 37.203125 41.296875 42.84375 
Q 37.203125 48.484375 30.078125 48.484375 
Q 22.953125 48.484375 18.875 42.84375 
Q 14.796875 37.203125 14.796875 27.296875 
z
" id="DejaVuSans-100"/>
      <path d="M 50.984375 -16.609375 
L 50.984375 -23.578125 
L -0.984375 -23.578125 
L -0.984375 -16.609375 
z
" id="DejaVuSans-95"/>
      <path d="M 18.109375 8.203125 
L 18.109375 -20.796875 
L 9.078125 -20.796875 
L 9.078125 54.6875 
L 18.109375 54.6875 
L 18.109375 46.390625 
Q 20.953125 51.265625 25.265625 53.625 
Q 29.59375 56 35.59375 56 
Q 45.5625 56 51.78125 48.09375 
Q 58.015625 40.1875 58.015625 27.296875 
Q 58.015625 14.40625 51.78125 6.484375 
Q 45.5625 -1.421875 35.59375 -1.421875 
Q 29.59375 -1.421875 25.265625 0.953125 
Q 20.953125 3.328125 18.109375 8.203125 
z
M 48.6875 27.296875 
Q 48.6875 37.203125 44.609375 42.84375 
Q 40.53125 48.484375 33.40625 48.484375 
Q 26.265625 48.484375 22.1875 42.84375 
Q 18.109375 37.203125 18.109375 27.296875 
Q 18.109375 17.390625 22.1875 11.75 
Q 26.265625 6.109375 33.40625 6.109375 
Q 40.53125 6.109375 44.609375 11.75 
Q 48.6875 17.390625 48.6875 27.296875 
z
" id="DejaVuSans-112"/>
      <path d="M 11.71875 12.40625 
L 22.015625 12.40625 
L 22.015625 4 
L 14.015625 -11.625 
L 7.71875 -11.625 
L 11.71875 4 
z
" id="DejaVuSans-44"/>
      <path d="M 37.109375 75.984375 
L 37.109375 68.5 
L 28.515625 68.5 
Q 23.6875 68.5 21.796875 66.546875 
Q 19.921875 64.59375 19.921875 59.515625 
L 19.921875 54.6875 
L 34.71875 54.6875 
L 34.71875 47.703125 
L 19.921875 47.703125 
L 19.921875 0 
L 10.890625 0 
L 10.890625 47.703125 
L 2.296875 47.703125 
L 2.296875 54.6875 
L 10.890625 54.6875 
L 10.890625 58.5 
Q 10.890625 67.625 15.140625 71.796875 
Q 19.390625 75.984375 28.609375 75.984375 
z
" id="DejaVuSans-102"/>
      <path d="M 54.890625 33.015625 
L 54.890625 0 
L 45.90625 0 
L 45.90625 32.71875 
Q 45.90625 40.484375 42.875 44.328125 
Q 39.84375 48.1875 33.796875 48.1875 
Q 26.515625 48.1875 22.3125 43.546875 
Q 18.109375 38.921875 18.109375 30.90625 
L 18.109375 0 
L 9.078125 0 
L 9.078125 75.984375 
L 18.109375 75.984375 
L 18.109375 46.1875 
Q 21.34375 51.125 25.703125 53.5625 
Q 30.078125 56 35.796875 56 
Q 45.21875 56 50.046875 50.171875 
Q 54.890625 44.34375 54.890625 33.015625 
z
" id="DejaVuSans-104"/>
     </defs>
     <use xlink:href="#DejaVuSans-68"/>
     <use x="77.001953" xlink:href="#DejaVuSans-97"/>
     <use x="138.28125" xlink:href="#DejaVuSans-116"/>
     <use x="177.490234" xlink:href="#DejaVuSans-97"/>
     <use x="238.769531" xlink:href="#DejaVuSans-58"/>
     <use x="272.460938" xlink:href="#DejaVuSans-32"/>
     <use x="304.248047" xlink:href="#DejaVuSans-83"/>
     <use x="367.724609" xlink:href="#DejaVuSans-105"/>
     <use x="395.507812" xlink:href="#DejaVuSans-109"/>
     <use x="492.919922" xlink:href="#DejaVuSans-117"/>
     <use x="556.298828" xlink:href="#DejaVuSans-108"/>
     <use x="584.082031" xlink:href="#DejaVuSans-97"/>
     <use x="645.361328" xlink:href="#DejaVuSans-116"/>
     <use x="684.570312" xlink:href="#DejaVuSans-101"/>
     <use x="746.09375" xlink:href="#DejaVuSans-100"/>
     <use x="809.570312" xlink:href="#DejaVuSans-91"/>
     <use x="848.583984" xlink:href="#DejaVuSans-110"/>
     <use x="911.962891" xlink:href="#DejaVuSans-95"/>
     <use x="961.962891" xlink:href="#DejaVuSans-115"/>
     <use x="1014.0625" xlink:href="#DejaVuSans-97"/>
     <use x="1075.341797" xlink:href="#DejaVuSans-109"/>
     <use x="1172.753906" xlink:href="#DejaVuSans-112"/>
     <use x="1236.230469" xlink:href="#DejaVuSans-108"/>
     <use x="1264.013672" xlink:href="#DejaVuSans-101"/>
     <use x="1325.537109" xlink:href="#DejaVuSans-115"/>
     <use x="1377.636719" xlink:href="#DejaVuSans-61"/>
     <use x="1461.425781" xlink:href="#DejaVuSans-49"/>
     <use x="1525.048828" xlink:href="#DejaVuSans-48"/>
     <use x="1588.671875" xlink:href="#DejaVuSans-48"/>
     <use x="1652.294922" xlink:href="#DejaVuSans-44"/>
     <use x="1684.082031" xlink:href="#DejaVuSans-110"/>
     <use x="1747.460938" xlink:href="#DejaVuSans-95"/>
     <use x="1797.460938" xlink:href="#DejaVuSans-102"/>
     <use x="1832.666016" xlink:href="#DejaVuSans-101"/>
     <use x="1894.189453" xlink:href="#DejaVuSans-97"/>
     <use x="1955.46875" xlink:href="#DejaVuSans-116"/>
     <use x="1994.677734" xlink:href="#DejaVuSans-117"/>
     <use x="2058.056641" xlink:href="#DejaVuSans-114"/>
     <use x="2096.919922" xlink:href="#DejaVuSans-101"/>
     <use x="2158.443359" xlink:href="#DejaVuSans-115"/>
     <use x="2210.542969" xlink:href="#DejaVuSans-61"/>
     <use x="2294.332031" xlink:href="#DejaVuSans-49"/>
     <use x="2357.955078" xlink:href="#DejaVuSans-48"/>
     <use x="2421.578125" xlink:href="#DejaVuSans-48"/>
     <use x="2485.201172" xlink:href="#DejaVuSans-48"/>
     <use x="2548.824219" xlink:href="#DejaVuSans-48"/>
     <use x="2612.447266" xlink:href="#DejaVuSans-44"/>
     <use x="2644.234375" xlink:href="#DejaVuSans-114"/>
     <use x="2683.597656" xlink:href="#DejaVuSans-104"/>
     <use x="2746.976562" xlink:href="#DejaVuSans-111"/>
     <use x="2808.158203" xlink:href="#DejaVuSans-61"/>
     <use x="2891.947266" xlink:href="#DejaVuSans-48"/>
     <use x="2955.570312" xlink:href="#DejaVuSans-93"/>
    </g>
   </g>
   <g id="legend_1">
    <g id="patch_7">
     <path d="M 86.681214 343.11 
L 390.960276 343.11 
Q 393.760276 343.11 393.760276 340.31 
L 393.760276 53.24 
Q 393.760276 50.44 390.960276 50.44 
L 86.681214 50.44 
Q 83.881214 50.44 83.881214 53.24 
L 83.881214 340.31 
Q 83.881214 343.11 86.681214 343.11 
z
" style="fill:#ffffff;opacity:0.8;stroke:#cccccc;stroke-linejoin:miter;"/>
    </g>
    <g id="line2d_58">
     <path d="M 89.481214 61.777812 
L 117.481214 61.777812 
" style="fill:none;stroke:#1f77b4;stroke-linecap:square;stroke-width:3;"/>
    </g>
    <g id="line2d_59"/>
    <g id="text_16">
     <!-- Blitz -->
     <g transform="translate(128.681214 66.677812)scale(0.14 -0.14)">
      <defs>
       <path d="M 19.671875 34.8125 
L 19.671875 8.109375 
L 35.5 8.109375 
Q 43.453125 8.109375 47.28125 11.40625 
Q 51.125 14.703125 51.125 21.484375 
Q 51.125 28.328125 47.28125 31.5625 
Q 43.453125 34.8125 35.5 34.8125 
z
M 19.671875 64.796875 
L 19.671875 42.828125 
L 34.28125 42.828125 
Q 41.5 42.828125 45.03125 45.53125 
Q 48.578125 48.25 48.578125 53.8125 
Q 48.578125 59.328125 45.03125 62.0625 
Q 41.5 64.796875 34.28125 64.796875 
z
M 9.8125 72.90625 
L 35.015625 72.90625 
Q 46.296875 72.90625 52.390625 68.21875 
Q 58.5 63.53125 58.5 54.890625 
Q 58.5 48.1875 55.375 44.234375 
Q 52.25 40.28125 46.1875 39.3125 
Q 53.46875 37.75 57.5 32.78125 
Q 61.53125 27.828125 61.53125 20.40625 
Q 61.53125 10.640625 54.890625 5.3125 
Q 48.25 0 35.984375 0 
L 9.8125 0 
z
" id="DejaVuSans-66"/>
       <path d="M 5.515625 54.6875 
L 48.1875 54.6875 
L 48.1875 46.484375 
L 14.40625 7.171875 
L 48.1875 7.171875 
L 48.1875 0 
L 4.296875 0 
L 4.296875 8.203125 
L 38.09375 47.515625 
L 5.515625 47.515625 
z
" id="DejaVuSans-122"/>
      </defs>
      <use xlink:href="#DejaVuSans-66"/>
      <use x="68.603516" xlink:href="#DejaVuSans-108"/>
      <use x="96.386719" xlink:href="#DejaVuSans-105"/>
      <use x="124.169922" xlink:href="#DejaVuSans-116"/>
      <use x="163.378906" xlink:href="#DejaVuSans-122"/>
     </g>
    </g>
    <g id="line2d_60">
     <path d="M 89.481214 82.327187 
L 117.481214 82.327187 
" style="fill:none;stroke:#ff7f0e;stroke-linecap:square;stroke-width:3;"/>
    </g>
    <g id="line2d_61"/>
    <g id="text_17">
     <!-- cd -->
     <g transform="translate(128.681214 87.227187)scale(0.14 -0.14)">
      <use xlink:href="#DejaVuSans-99"/>
      <use x="54.980469" xlink:href="#DejaVuSans-100"/>
     </g>
    </g>
    <g id="line2d_62">
     <path d="M 89.481214 102.876562 
L 117.481214 102.876562 
" style="fill:none;stroke:#2ca02c;stroke-linecap:square;stroke-width:3;"/>
    </g>
    <g id="line2d_63"/>
    <g id="text_18">
     <!-- Celer -->
     <g transform="translate(128.681214 107.776562)scale(0.14 -0.14)">
      <defs>
       <path d="M 64.40625 67.28125 
L 64.40625 56.890625 
Q 59.421875 61.53125 53.78125 63.8125 
Q 48.140625 66.109375 41.796875 66.109375 
Q 29.296875 66.109375 22.65625 58.46875 
Q 16.015625 50.828125 16.015625 36.375 
Q 16.015625 21.96875 22.65625 14.328125 
Q 29.296875 6.6875 41.796875 6.6875 
Q 48.140625 6.6875 53.78125 8.984375 
Q 59.421875 11.28125 64.40625 15.921875 
L 64.40625 5.609375 
Q 59.234375 2.09375 53.4375 0.328125 
Q 47.65625 -1.421875 41.21875 -1.421875 
Q 24.65625 -1.421875 15.125 8.703125 
Q 5.609375 18.84375 5.609375 36.375 
Q 5.609375 53.953125 15.125 64.078125 
Q 24.65625 74.21875 41.21875 74.21875 
Q 47.75 74.21875 53.53125 72.484375 
Q 59.328125 70.75 64.40625 67.28125 
z
" id="DejaVuSans-67"/>
      </defs>
      <use xlink:href="#DejaVuSans-67"/>
      <use x="69.824219" xlink:href="#DejaVuSans-101"/>
      <use x="131.347656" xlink:href="#DejaVuSans-108"/>
      <use x="159.130859" xlink:href="#DejaVuSans-101"/>
      <use x="220.654297" xlink:href="#DejaVuSans-114"/>
     </g>
    </g>
    <g id="line2d_64">
     <path d="M 89.481214 123.425937 
L 117.481214 123.425937 
" style="fill:none;stroke:#d62728;stroke-linecap:square;stroke-width:3;"/>
    </g>
    <g id="line2d_65"/>
    <g id="text_19">
     <!-- cvxpy -->
     <g transform="translate(128.681214 128.325937)scale(0.14 -0.14)">
      <defs>
       <path d="M 2.984375 54.6875 
L 12.5 54.6875 
L 29.59375 8.796875 
L 46.6875 54.6875 
L 56.203125 54.6875 
L 35.6875 0 
L 23.484375 0 
z
" id="DejaVuSans-118"/>
       <path d="M 54.890625 54.6875 
L 35.109375 28.078125 
L 55.90625 0 
L 45.3125 0 
L 29.390625 21.484375 
L 13.484375 0 
L 2.875 0 
L 24.125 28.609375 
L 4.6875 54.6875 
L 15.28125 54.6875 
L 29.78125 35.203125 
L 44.28125 54.6875 
z
" id="DejaVuSans-120"/>
       <path d="M 32.171875 -5.078125 
Q 28.375 -14.84375 24.75 -17.8125 
Q 21.140625 -20.796875 15.09375 -20.796875 
L 7.90625 -20.796875 
L 7.90625 -13.28125 
L 13.1875 -13.28125 
Q 16.890625 -13.28125 18.9375 -11.515625 
Q 21 -9.765625 23.484375 -3.21875 
L 25.09375 0.875 
L 2.984375 54.6875 
L 12.5 54.6875 
L 29.59375 11.921875 
L 46.6875 54.6875 
L 56.203125 54.6875 
z
" id="DejaVuSans-121"/>
      </defs>
      <use xlink:href="#DejaVuSans-99"/>
      <use x="54.980469" xlink:href="#DejaVuSans-118"/>
      <use x="114.160156" xlink:href="#DejaVuSans-120"/>
      <use x="173.339844" xlink:href="#DejaVuSans-112"/>
      <use x="236.816406" xlink:href="#DejaVuSans-121"/>
     </g>
    </g>
    <g id="line2d_66">
     <path d="M 89.481214 143.975312 
L 117.481214 143.975312 
" style="fill:none;stroke:#9467bd;stroke-linecap:square;stroke-width:3;"/>
    </g>
    <g id="line2d_67"/>
    <g id="text_20">
     <!-- Cyanure -->
     <g transform="translate(128.681214 148.875312)scale(0.14 -0.14)">
      <use xlink:href="#DejaVuSans-67"/>
      <use x="69.824219" xlink:href="#DejaVuSans-121"/>
      <use x="129.003906" xlink:href="#DejaVuSans-97"/>
      <use x="190.283203" xlink:href="#DejaVuSans-110"/>
      <use x="253.662109" xlink:href="#DejaVuSans-117"/>
      <use x="317.041016" xlink:href="#DejaVuSans-114"/>
      <use x="355.904297" xlink:href="#DejaVuSans-101"/>
     </g>
    </g>
    <g id="line2d_68">
     <path d="M 89.481214 164.524687 
L 117.481214 164.524687 
" style="fill:none;stroke:#8c564b;stroke-linecap:square;stroke-width:3;"/>
    </g>
    <g id="line2d_69"/>
    <g id="text_21">
     <!-- glmnet -->
     <g transform="translate(128.681214 169.424687)scale(0.14 -0.14)">
      <use xlink:href="#DejaVuSans-103"/>
      <use x="63.476562" xlink:href="#DejaVuSans-108"/>
      <use x="91.259766" xlink:href="#DejaVuSans-109"/>
      <use x="188.671875" xlink:href="#DejaVuSans-110"/>
      <use x="252.050781" xlink:href="#DejaVuSans-101"/>
      <use x="313.574219" xlink:href="#DejaVuSans-116"/>
     </g>
    </g>
    <g id="line2d_70">
     <path d="M 89.481214 185.074062 
L 117.481214 185.074062 
" style="fill:none;stroke:#e377c2;stroke-linecap:square;stroke-width:3;"/>
    </g>
    <g id="line2d_71"/>
    <g id="text_22">
     <!-- Julia-PGD -->
     <g transform="translate(128.681214 189.974062)scale(0.14 -0.14)">
      <defs>
       <path d="M 9.8125 72.90625 
L 19.671875 72.90625 
L 19.671875 5.078125 
Q 19.671875 -8.109375 14.671875 -14.0625 
Q 9.671875 -20.015625 -1.421875 -20.015625 
L -5.171875 -20.015625 
L -5.171875 -11.71875 
L -2.09375 -11.71875 
Q 4.4375 -11.71875 7.125 -8.046875 
Q 9.8125 -4.390625 9.8125 5.078125 
z
" id="DejaVuSans-74"/>
       <path d="M 4.890625 31.390625 
L 31.203125 31.390625 
L 31.203125 23.390625 
L 4.890625 23.390625 
z
" id="DejaVuSans-45"/>
       <path d="M 19.671875 64.796875 
L 19.671875 37.40625 
L 32.078125 37.40625 
Q 38.96875 37.40625 42.71875 40.96875 
Q 46.484375 44.53125 46.484375 51.125 
Q 46.484375 57.671875 42.71875 61.234375 
Q 38.96875 64.796875 32.078125 64.796875 
z
M 9.8125 72.90625 
L 32.078125 72.90625 
Q 44.34375 72.90625 50.609375 67.359375 
Q 56.890625 61.8125 56.890625 51.125 
Q 56.890625 40.328125 50.609375 34.8125 
Q 44.34375 29.296875 32.078125 29.296875 
L 19.671875 29.296875 
L 19.671875 0 
L 9.8125 0 
z
" id="DejaVuSans-80"/>
       <path d="M 59.515625 10.40625 
L 59.515625 29.984375 
L 43.40625 29.984375 
L 43.40625 38.09375 
L 69.28125 38.09375 
L 69.28125 6.78125 
Q 63.578125 2.734375 56.6875 0.65625 
Q 49.8125 -1.421875 42 -1.421875 
Q 24.90625 -1.421875 15.25 8.5625 
Q 5.609375 18.5625 5.609375 36.375 
Q 5.609375 54.25 15.25 64.234375 
Q 24.90625 74.21875 42 74.21875 
Q 49.125 74.21875 55.546875 72.453125 
Q 61.96875 70.703125 67.390625 67.28125 
L 67.390625 56.78125 
Q 61.921875 61.421875 55.765625 63.765625 
Q 49.609375 66.109375 42.828125 66.109375 
Q 29.4375 66.109375 22.71875 58.640625 
Q 16.015625 51.171875 16.015625 36.375 
Q 16.015625 21.625 22.71875 14.15625 
Q 29.4375 6.6875 42.828125 6.6875 
Q 48.046875 6.6875 52.140625 7.59375 
Q 56.25 8.5 59.515625 10.40625 
z
" id="DejaVuSans-71"/>
      </defs>
      <use xlink:href="#DejaVuSans-74"/>
      <use x="29.492188" xlink:href="#DejaVuSans-117"/>
      <use x="92.871094" xlink:href="#DejaVuSans-108"/>
      <use x="120.654297" xlink:href="#DejaVuSans-105"/>
      <use x="148.4375" xlink:href="#DejaVuSans-97"/>
      <use x="209.716797" xlink:href="#DejaVuSans-45"/>
      <use x="245.800781" xlink:href="#DejaVuSans-80"/>
      <use x="306.103516" xlink:href="#DejaVuSans-71"/>
      <use x="383.59375" xlink:href="#DejaVuSans-68"/>
     </g>
    </g>
    <g id="line2d_72">
     <path d="M 89.481214 205.623437 
L 117.481214 205.623437 
" style="fill:none;stroke:#7f7f7f;stroke-linecap:square;stroke-width:3;"/>
    </g>
    <g id="line2d_73"/>
    <g id="text_23">
     <!-- L-BFGS-B -->
     <g transform="translate(128.681214 210.523437)scale(0.14 -0.14)">
      <defs>
       <path d="M 9.8125 72.90625 
L 51.703125 72.90625 
L 51.703125 64.59375 
L 19.671875 64.59375 
L 19.671875 43.109375 
L 48.578125 43.109375 
L 48.578125 34.8125 
L 19.671875 34.8125 
L 19.671875 0 
L 9.8125 0 
z
" id="DejaVuSans-70"/>
      </defs>
      <use xlink:href="#DejaVuSans-76"/>
      <use x="53.962891" xlink:href="#DejaVuSans-45"/>
      <use x="86.421875" xlink:href="#DejaVuSans-66"/>
      <use x="155.025391" xlink:href="#DejaVuSans-70"/>
      <use x="212.544922" xlink:href="#DejaVuSans-71"/>
      <use x="290.035156" xlink:href="#DejaVuSans-83"/>
      <use x="353.511719" xlink:href="#DejaVuSans-45"/>
      <use x="385.970703" xlink:href="#DejaVuSans-66"/>
     </g>
    </g>
    <g id="line2d_74">
     <path d="M 89.481214 226.172812 
L 117.481214 226.172812 
" style="fill:none;stroke:#bcbd22;stroke-linecap:square;stroke-width:3;"/>
    </g>
    <g id="line2d_75"/>
    <g id="text_24">
     <!-- Lightning -->
     <g transform="translate(128.681214 231.072812)scale(0.14 -0.14)">
      <use xlink:href="#DejaVuSans-76"/>
      <use x="55.712891" xlink:href="#DejaVuSans-105"/>
      <use x="83.496094" xlink:href="#DejaVuSans-103"/>
      <use x="146.972656" xlink:href="#DejaVuSans-104"/>
      <use x="210.351562" xlink:href="#DejaVuSans-116"/>
      <use x="249.560547" xlink:href="#DejaVuSans-110"/>
      <use x="312.939453" xlink:href="#DejaVuSans-105"/>
      <use x="340.722656" xlink:href="#DejaVuSans-110"/>
      <use x="404.101562" xlink:href="#DejaVuSans-103"/>
     </g>
    </g>
    <g id="line2d_76">
     <path d="M 89.481214 246.722187 
L 117.481214 246.722187 
" style="fill:none;stroke:#17becf;stroke-linecap:square;stroke-width:3;"/>
    </g>
    <g id="line2d_77"/>
    <g id="text_25">
     <!-- Python-PGD[use_acceleration=False] -->
     <g transform="translate(128.681214 251.622187)scale(0.14 -0.14)">
      <use xlink:href="#DejaVuSans-80"/>
      <use x="60.302734" xlink:href="#DejaVuSans-121"/>
      <use x="119.482422" xlink:href="#DejaVuSans-116"/>
      <use x="158.691406" xlink:href="#DejaVuSans-104"/>
      <use x="222.070312" xlink:href="#DejaVuSans-111"/>
      <use x="283.251953" xlink:href="#DejaVuSans-110"/>
      <use x="346.630859" xlink:href="#DejaVuSans-45"/>
      <use x="382.714844" xlink:href="#DejaVuSans-80"/>
      <use x="443.017578" xlink:href="#DejaVuSans-71"/>
      <use x="520.507812" xlink:href="#DejaVuSans-68"/>
      <use x="597.509766" xlink:href="#DejaVuSans-91"/>
      <use x="636.523438" xlink:href="#DejaVuSans-117"/>
      <use x="699.902344" xlink:href="#DejaVuSans-115"/>
      <use x="752.001953" xlink:href="#DejaVuSans-101"/>
      <use x="813.525391" xlink:href="#DejaVuSans-95"/>
      <use x="863.525391" xlink:href="#DejaVuSans-97"/>
      <use x="924.804688" xlink:href="#DejaVuSans-99"/>
      <use x="979.785156" xlink:href="#DejaVuSans-99"/>
      <use x="1034.765625" xlink:href="#DejaVuSans-101"/>
      <use x="1096.289062" xlink:href="#DejaVuSans-108"/>
      <use x="1124.072266" xlink:href="#DejaVuSans-101"/>
      <use x="1185.595703" xlink:href="#DejaVuSans-114"/>
      <use x="1226.708984" xlink:href="#DejaVuSans-97"/>
      <use x="1287.988281" xlink:href="#DejaVuSans-116"/>
      <use x="1327.197266" xlink:href="#DejaVuSans-105"/>
      <use x="1354.980469" xlink:href="#DejaVuSans-111"/>
      <use x="1416.162109" xlink:href="#DejaVuSans-110"/>
      <use x="1479.541016" xlink:href="#DejaVuSans-61"/>
      <use x="1563.330078" xlink:href="#DejaVuSans-70"/>
      <use x="1611.724609" xlink:href="#DejaVuSans-97"/>
      <use x="1673.003906" xlink:href="#DejaVuSans-108"/>
      <use x="1700.787109" xlink:href="#DejaVuSans-115"/>
      <use x="1752.886719" xlink:href="#DejaVuSans-101"/>
      <use x="1814.410156" xlink:href="#DejaVuSans-93"/>
     </g>
    </g>
    <g id="line2d_78">
     <path d="M 89.481214 267.660937 
L 117.481214 267.660937 
" style="fill:none;stroke:#1f77b4;stroke-linecap:square;stroke-width:3;"/>
    </g>
    <g id="line2d_79"/>
    <g id="text_26">
     <!-- Python-PGD[use_acceleration=True] -->
     <g transform="translate(128.681214 272.560937)scale(0.14 -0.14)">
      <use xlink:href="#DejaVuSans-80"/>
      <use x="60.302734" xlink:href="#DejaVuSans-121"/>
      <use x="119.482422" xlink:href="#DejaVuSans-116"/>
      <use x="158.691406" xlink:href="#DejaVuSans-104"/>
      <use x="222.070312" xlink:href="#DejaVuSans-111"/>
      <use x="283.251953" xlink:href="#DejaVuSans-110"/>
      <use x="346.630859" xlink:href="#DejaVuSans-45"/>
      <use x="382.714844" xlink:href="#DejaVuSans-80"/>
      <use x="443.017578" xlink:href="#DejaVuSans-71"/>
      <use x="520.507812" xlink:href="#DejaVuSans-68"/>
      <use x="597.509766" xlink:href="#DejaVuSans-91"/>
      <use x="636.523438" xlink:href="#DejaVuSans-117"/>
      <use x="699.902344" xlink:href="#DejaVuSans-115"/>
      <use x="752.001953" xlink:href="#DejaVuSans-101"/>
      <use x="813.525391" xlink:href="#DejaVuSans-95"/>
      <use x="863.525391" xlink:href="#DejaVuSans-97"/>
      <use x="924.804688" xlink:href="#DejaVuSans-99"/>
      <use x="979.785156" xlink:href="#DejaVuSans-99"/>
      <use x="1034.765625" xlink:href="#DejaVuSans-101"/>
      <use x="1096.289062" xlink:href="#DejaVuSans-108"/>
      <use x="1124.072266" xlink:href="#DejaVuSans-101"/>
      <use x="1185.595703" xlink:href="#DejaVuSans-114"/>
      <use x="1226.708984" xlink:href="#DejaVuSans-97"/>
      <use x="1287.988281" xlink:href="#DejaVuSans-116"/>
      <use x="1327.197266" xlink:href="#DejaVuSans-105"/>
      <use x="1354.980469" xlink:href="#DejaVuSans-111"/>
      <use x="1416.162109" xlink:href="#DejaVuSans-110"/>
      <use x="1479.541016" xlink:href="#DejaVuSans-61"/>
      <use x="1563.330078" xlink:href="#DejaVuSans-84"/>
      <use x="1609.664062" xlink:href="#DejaVuSans-114"/>
      <use x="1650.777344" xlink:href="#DejaVuSans-117"/>
      <use x="1714.15625" xlink:href="#DejaVuSans-101"/>
      <use x="1775.679688" xlink:href="#DejaVuSans-93"/>
     </g>
    </g>
    <g id="line2d_80">
     <path d="M 89.481214 288.599687 
L 117.481214 288.599687 
" style="fill:none;stroke:#ff7f0e;stroke-linecap:square;stroke-width:3;"/>
    </g>
    <g id="line2d_81"/>
    <g id="text_27">
     <!-- R-PGD -->
     <g transform="translate(128.681214 293.499687)scale(0.14 -0.14)">
      <use xlink:href="#DejaVuSans-82"/>
      <use x="65.482422" xlink:href="#DejaVuSans-45"/>
      <use x="101.566406" xlink:href="#DejaVuSans-80"/>
      <use x="161.869141" xlink:href="#DejaVuSans-71"/>
      <use x="239.359375" xlink:href="#DejaVuSans-68"/>
     </g>
    </g>
    <g id="line2d_82">
     <path d="M 89.481214 309.149062 
L 117.481214 309.149062 
" style="fill:none;stroke:#2ca02c;stroke-linecap:square;stroke-width:3;"/>
    </g>
    <g id="line2d_83"/>
    <g id="text_28">
     <!-- sklearn -->
     <g transform="translate(128.681214 314.049062)scale(0.14 -0.14)">
      <defs>
       <path d="M 9.078125 75.984375 
L 18.109375 75.984375 
L 18.109375 31.109375 
L 44.921875 54.6875 
L 56.390625 54.6875 
L 27.390625 29.109375 
L 57.625 0 
L 45.90625 0 
L 18.109375 26.703125 
L 18.109375 0 
L 9.078125 0 
z
" id="DejaVuSans-107"/>
      </defs>
      <use xlink:href="#DejaVuSans-115"/>
      <use x="52.099609" xlink:href="#DejaVuSans-107"/>
      <use x="110.009766" xlink:href="#DejaVuSans-108"/>
      <use x="137.792969" xlink:href="#DejaVuSans-101"/>
      <use x="199.316406" xlink:href="#DejaVuSans-97"/>
      <use x="260.595703" xlink:href="#DejaVuSans-114"/>
      <use x="299.958984" xlink:href="#DejaVuSans-110"/>
     </g>
    </g>
    <g id="line2d_84">
     <path d="M 89.481214 329.698437 
L 117.481214 329.698437 
" style="fill:none;stroke:#d62728;stroke-linecap:square;stroke-width:3;"/>
    </g>
    <g id="line2d_85"/>
    <g id="text_29">
     <!-- statsmodels -->
     <g transform="translate(128.681214 334.598437)scale(0.14 -0.14)">
      <use xlink:href="#DejaVuSans-115"/>
      <use x="52.099609" xlink:href="#DejaVuSans-116"/>
      <use x="91.308594" xlink:href="#DejaVuSans-97"/>
      <use x="152.587891" xlink:href="#DejaVuSans-116"/>
      <use x="191.796875" xlink:href="#DejaVuSans-115"/>
      <use x="243.896484" xlink:href="#DejaVuSans-109"/>
      <use x="341.308594" xlink:href="#DejaVuSans-111"/>
      <use x="402.490234" xlink:href="#DejaVuSans-100"/>
      <use x="465.966797" xlink:href="#DejaVuSans-101"/>
      <use x="527.490234" xlink:href="#DejaVuSans-108"/>
      <use x="555.273438" xlink:href="#DejaVuSans-115"/>
     </g>
    </g>
   </g>
  </g>
 </g>
 <defs>
  <clipPath id="p5b55b726ef">
   <rect height="253.288" width="373.118786" x="76.881214" y="43.44"/>
  </clipPath>
 </defs>
</svg>
