<?xml version="1.0" encoding="utf-8" standalone="no"?>
<!DOCTYPE svg PUBLIC "-//W3C//DTD SVG 1.1//EN"
  "http://www.w3.org/Graphics/SVG/1.1/DTD/svg11.dtd">
<!-- Created with matplotlib (https://matplotlib.org/) -->
<svg height="345.6pt" version="1.1" viewBox="0 0 460.8 345.6" width="460.8pt" xmlns="http://www.w3.org/2000/svg" xmlns:xlink="http://www.w3.org/1999/xlink">
 <metadata>
  <rdf:RDF xmlns:cc="http://creativecommons.org/ns#" xmlns:dc="http://purl.org/dc/elements/1.1/" xmlns:rdf="http://www.w3.org/1999/02/22-rdf-syntax-ns#">
   <cc:Work>
    <dc:type rdf:resource="http://purl.org/dc/dcmitype/StillImage"/>
    <dc:date>2020-12-17T20:48:34.454377</dc:date>
    <dc:format>image/svg+xml</dc:format>
    <dc:creator>
     <cc:Agent>
      <dc:title>Matplotlib v3.3.3, https://matplotlib.org/</dc:title>
     </cc:Agent>
    </dc:creator>
   </cc:Work>
  </rdf:RDF>
 </metadata>
 <defs>
  <style type="text/css">*{stroke-linecap:butt;stroke-linejoin:round;}</style>
 </defs>
 <g id="figure_1">
  <g id="patch_1">
   <path d="M 0 345.6 
L 460.8 345.6 
L 460.8 0 
L 0 0 
z
" style="fill:#ffffff;"/>
  </g>
  <g id="axes_1">
   <g id="patch_2">
    <path d="M 55.772054 162.148265 
L 450 162.148265 
L 450 41.856 
L 55.772054 41.856 
z
" style="fill:#ffffff;"/>
   </g>
   <g id="patch_3">
    <path clip-path="url(#pa49e70aecf)" d="M 80.411301 42790.007058 
L 105.050547 42790.007058 
L 105.050547 138.897754 
L 80.411301 138.897754 
z
" style="fill:#470e61;"/>
   </g>
   <g id="patch_4">
    <path clip-path="url(#pa49e70aecf)" d="M 105.050547 42790.007058 
L 129.689794 42790.007058 
L 129.689794 105.57357 
L 105.050547 105.57357 
z
" style="fill:#482677;"/>
   </g>
   <g id="patch_5">
    <path clip-path="url(#pa49e70aecf)" d="M 129.689794 42790.007058 
L 154.32904 42790.007058 
L 154.32904 155.435182 
L 129.689794 155.435182 
z
" style="fill:#433d84;"/>
   </g>
   <g id="patch_6">
    <path clip-path="url(#pa49e70aecf)" d="M 154.32904 42790.007058 
L 178.968287 42790.007058 
L 178.968287 47.32383 
L 154.32904 47.32383 
z
" style="fill:#ffffff;stroke:#000000;stroke-linejoin:miter;"/>
   </g>
   <g id="patch_7">
    <path clip-path="url(#pa49e70aecf)" d="M 178.968287 42790.007058 
L 203.607534 42790.007058 
L 203.607534 89.119954 
L 178.968287 89.119954 
z
" style="fill:#32658e;"/>
   </g>
   <g id="patch_8">
    <path clip-path="url(#pa49e70aecf)" d="M 203.607534 42790.007058 
L 228.24678 42790.007058 
L 228.24678 113.096699 
L 203.607534 113.096699 
z
" style="fill:#2a768e;"/>
   </g>
   <g id="patch_9">
    <path clip-path="url(#pa49e70aecf)" d="M 228.24678 42790.007058 
L 252.886027 42790.007058 
L 252.886027 47.32383 
L 228.24678 47.32383 
z
" style="fill:#ffffff;stroke:#000000;stroke-linejoin:miter;"/>
   </g>
   <g id="patch_10">
    <path clip-path="url(#pa49e70aecf)" d="M 252.886027 42790.007058 
L 277.525274 42790.007058 
L 277.525274 70.116101 
L 252.886027 70.116101 
z
" style="fill:#1f998a;"/>
   </g>
   <g id="patch_11">
    <path clip-path="url(#pa49e70aecf)" d="M 277.525274 42790.007058 
L 302.16452 42790.007058 
L 302.16452 47.32383 
L 277.525274 47.32383 
z
" style="fill:#ffffff;stroke:#000000;stroke-linejoin:miter;"/>
   </g>
   <g id="patch_12">
    <path clip-path="url(#pa49e70aecf)" d="M 302.16452 42790.007058 
L 326.803767 42790.007058 
L 326.803767 47.32383 
L 302.16452 47.32383 
z
" style="fill:#ffffff;stroke:#000000;stroke-linejoin:miter;"/>
   </g>
   <g id="patch_13">
    <path clip-path="url(#pa49e70aecf)" d="M 326.803767 42790.007058 
L 351.443013 42790.007058 
L 351.443013 58.506099 
L 326.803767 58.506099 
z
" style="fill:#5ec962;"/>
   </g>
   <g id="patch_14">
    <path clip-path="url(#pa49e70aecf)" d="M 351.443013 42790.007058 
L 376.08226 42790.007058 
L 376.08226 47.32383 
L 351.443013 47.32383 
z
" style="fill:#ffffff;stroke:#000000;stroke-linejoin:miter;"/>
   </g>
   <g id="patch_15">
    <path clip-path="url(#pa49e70aecf)" d="M 376.08226 42790.007058 
L 400.721507 42790.007058 
L 400.721507 107.827298 
L 376.08226 107.827298 
z
" style="fill:#b8de29;"/>
   </g>
   <g id="patch_16">
    <path clip-path="url(#pa49e70aecf)" d="M 400.721507 42790.007058 
L 425.360753 42790.007058 
L 425.360753 47.32383 
L 400.721507 47.32383 
z
" style="fill:#ffffff;stroke:#000000;stroke-linejoin:miter;"/>
   </g>
   <g id="matplotlib.axis_1">
    <g id="xtick_1">
     <g id="line2d_1">
      <defs>
       <path d="M 0 0 
L 0 3.5 
" id="m3b96d3d3fa" style="stroke:#000000;stroke-width:0.8;"/>
      </defs>
      <g>
       <use style="stroke:#000000;stroke-width:0.8;" x="92.730924" xlink:href="#m3b96d3d3fa" y="162.148265"/>
      </g>
     </g>
     <g id="text_1">
      <!-- Blitz -->
      <g transform="translate(89.724128 191.641454)rotate(-60)scale(0.1 -0.1)">
       <defs>
        <path d="M 19.671875 34.8125 
L 19.671875 8.109375 
L 35.5 8.109375 
Q 43.453125 8.109375 47.28125 11.40625 
Q 51.125 14.703125 51.125 21.484375 
Q 51.125 28.328125 47.28125 31.5625 
Q 43.453125 34.8125 35.5 34.8125 
z
M 19.671875 64.796875 
L 19.671875 42.828125 
L 34.28125 42.828125 
Q 41.5 42.828125 45.03125 45.53125 
Q 48.578125 48.25 48.578125 53.8125 
Q 48.578125 59.328125 45.03125 62.0625 
Q 41.5 64.796875 34.28125 64.796875 
z
M 9.8125 72.90625 
L 35.015625 72.90625 
Q 46.296875 72.90625 52.390625 68.21875 
Q 58.5 63.53125 58.5 54.890625 
Q 58.5 48.1875 55.375 44.234375 
Q 52.25 40.28125 46.1875 39.3125 
Q 53.46875 37.75 57.5 32.78125 
Q 61.53125 27.828125 61.53125 20.40625 
Q 61.53125 10.640625 54.890625 5.3125 
Q 48.25 0 35.984375 0 
L 9.8125 0 
z
" id="DejaVuSans-66"/>
        <path d="M 9.421875 75.984375 
L 18.40625 75.984375 
L 18.40625 0 
L 9.421875 0 
z
" id="DejaVuSans-108"/>
        <path d="M 9.421875 54.6875 
L 18.40625 54.6875 
L 18.40625 0 
L 9.421875 0 
z
M 9.421875 75.984375 
L 18.40625 75.984375 
L 18.40625 64.59375 
L 9.421875 64.59375 
z
" id="DejaVuSans-105"/>
        <path d="M 18.3125 70.21875 
L 18.3125 54.6875 
L 36.8125 54.6875 
L 36.8125 47.703125 
L 18.3125 47.703125 
L 18.3125 18.015625 
Q 18.3125 11.328125 20.140625 9.421875 
Q 21.96875 7.515625 27.59375 7.515625 
L 36.8125 7.515625 
L 36.8125 0 
L 27.59375 0 
Q 17.1875 0 13.234375 3.875 
Q 9.28125 7.765625 9.28125 18.015625 
L 9.28125 47.703125 
L 2.6875 47.703125 
L 2.6875 54.6875 
L 9.28125 54.6875 
L 9.28125 70.21875 
z
" id="DejaVuSans-116"/>
        <path d="M 5.515625 54.6875 
L 48.1875 54.6875 
L 48.1875 46.484375 
L 14.40625 7.171875 
L 48.1875 7.171875 
L 48.1875 0 
L 4.296875 0 
L 4.296875 8.203125 
L 38.09375 47.515625 
L 5.515625 47.515625 
z
" id="DejaVuSans-122"/>
       </defs>
       <use xlink:href="#DejaVuSans-66"/>
       <use x="68.603516" xlink:href="#DejaVuSans-108"/>
       <use x="96.386719" xlink:href="#DejaVuSans-105"/>
       <use x="124.169922" xlink:href="#DejaVuSans-116"/>
       <use x="163.378906" xlink:href="#DejaVuSans-122"/>
      </g>
     </g>
    </g>
    <g id="xtick_2">
     <g id="line2d_2">
      <g>
       <use style="stroke:#000000;stroke-width:0.8;" x="117.37017" xlink:href="#m3b96d3d3fa" y="162.148265"/>
      </g>
     </g>
     <g id="text_2">
      <!-- cd -->
      <g transform="translate(116.798141 183.207179)rotate(-60)scale(0.1 -0.1)">
       <defs>
        <path d="M 48.78125 52.59375 
L 48.78125 44.1875 
Q 44.96875 46.296875 41.140625 47.34375 
Q 37.3125 48.390625 33.40625 48.390625 
Q 24.65625 48.390625 19.8125 42.84375 
Q 14.984375 37.3125 14.984375 27.296875 
Q 14.984375 17.28125 19.8125 11.734375 
Q 24.65625 6.203125 33.40625 6.203125 
Q 37.3125 6.203125 41.140625 7.25 
Q 44.96875 8.296875 48.78125 10.40625 
L 48.78125 2.09375 
Q 45.015625 0.34375 40.984375 -0.53125 
Q 36.96875 -1.421875 32.421875 -1.421875 
Q 20.0625 -1.421875 12.78125 6.34375 
Q 5.515625 14.109375 5.515625 27.296875 
Q 5.515625 40.671875 12.859375 48.328125 
Q 20.21875 56 33.015625 56 
Q 37.15625 56 41.109375 55.140625 
Q 45.0625 54.296875 48.78125 52.59375 
z
" id="DejaVuSans-99"/>
        <path d="M 45.40625 46.390625 
L 45.40625 75.984375 
L 54.390625 75.984375 
L 54.390625 0 
L 45.40625 0 
L 45.40625 8.203125 
Q 42.578125 3.328125 38.25 0.953125 
Q 33.9375 -1.421875 27.875 -1.421875 
Q 17.96875 -1.421875 11.734375 6.484375 
Q 5.515625 14.40625 5.515625 27.296875 
Q 5.515625 40.1875 11.734375 48.09375 
Q 17.96875 56 27.875 56 
Q 33.9375 56 38.25 53.625 
Q 42.578125 51.265625 45.40625 46.390625 
z
M 14.796875 27.296875 
Q 14.796875 17.390625 18.875 11.75 
Q 22.953125 6.109375 30.078125 6.109375 
Q 37.203125 6.109375 41.296875 11.75 
Q 45.40625 17.390625 45.40625 27.296875 
Q 45.40625 37.203125 41.296875 42.84375 
Q 37.203125 48.484375 30.078125 48.484375 
Q 22.953125 48.484375 18.875 42.84375 
Q 14.796875 37.203125 14.796875 27.296875 
z
" id="DejaVuSans-100"/>
       </defs>
       <use xlink:href="#DejaVuSans-99"/>
       <use x="54.980469" xlink:href="#DejaVuSans-100"/>
      </g>
     </g>
    </g>
    <g id="xtick_3">
     <g id="line2d_3">
      <g>
       <use style="stroke:#000000;stroke-width:0.8;" x="142.009417" xlink:href="#m3b96d3d3fa" y="162.148265"/>
      </g>
     </g>
     <g id="text_3">
      <!-- Celer -->
      <g transform="translate(137.854575 195.618405)rotate(-60)scale(0.1 -0.1)">
       <defs>
        <path d="M 64.40625 67.28125 
L 64.40625 56.890625 
Q 59.421875 61.53125 53.78125 63.8125 
Q 48.140625 66.109375 41.796875 66.109375 
Q 29.296875 66.109375 22.65625 58.46875 
Q 16.015625 50.828125 16.015625 36.375 
Q 16.015625 21.96875 22.65625 14.328125 
Q 29.296875 6.6875 41.796875 6.6875 
Q 48.140625 6.6875 53.78125 8.984375 
Q 59.421875 11.28125 64.40625 15.921875 
L 64.40625 5.609375 
Q 59.234375 2.09375 53.4375 0.328125 
Q 47.65625 -1.421875 41.21875 -1.421875 
Q 24.65625 -1.421875 15.125 8.703125 
Q 5.609375 18.84375 5.609375 36.375 
Q 5.609375 53.953125 15.125 64.078125 
Q 24.65625 74.21875 41.21875 74.21875 
Q 47.75 74.21875 53.53125 72.484375 
Q 59.328125 70.75 64.40625 67.28125 
z
" id="DejaVuSans-67"/>
        <path d="M 56.203125 29.59375 
L 56.203125 25.203125 
L 14.890625 25.203125 
Q 15.484375 15.921875 20.484375 11.0625 
Q 25.484375 6.203125 34.421875 6.203125 
Q 39.59375 6.203125 44.453125 7.46875 
Q 49.3125 8.734375 54.109375 11.28125 
L 54.109375 2.78125 
Q 49.265625 0.734375 44.1875 -0.34375 
Q 39.109375 -1.421875 33.890625 -1.421875 
Q 20.796875 -1.421875 13.15625 6.1875 
Q 5.515625 13.8125 5.515625 26.8125 
Q 5.515625 40.234375 12.765625 48.109375 
Q 20.015625 56 32.328125 56 
Q 43.359375 56 49.78125 48.890625 
Q 56.203125 41.796875 56.203125 29.59375 
z
M 47.21875 32.234375 
Q 47.125 39.59375 43.09375 43.984375 
Q 39.0625 48.390625 32.421875 48.390625 
Q 24.90625 48.390625 20.390625 44.140625 
Q 15.875 39.890625 15.1875 32.171875 
z
" id="DejaVuSans-101"/>
        <path d="M 41.109375 46.296875 
Q 39.59375 47.171875 37.8125 47.578125 
Q 36.03125 48 33.890625 48 
Q 26.265625 48 22.1875 43.046875 
Q 18.109375 38.09375 18.109375 28.8125 
L 18.109375 0 
L 9.078125 0 
L 9.078125 54.6875 
L 18.109375 54.6875 
L 18.109375 46.1875 
Q 20.953125 51.171875 25.484375 53.578125 
Q 30.03125 56 36.53125 56 
Q 37.453125 56 38.578125 55.875 
Q 39.703125 55.765625 41.0625 55.515625 
z
" id="DejaVuSans-114"/>
       </defs>
       <use xlink:href="#DejaVuSans-67"/>
       <use x="69.824219" xlink:href="#DejaVuSans-101"/>
       <use x="131.347656" xlink:href="#DejaVuSans-108"/>
       <use x="159.130859" xlink:href="#DejaVuSans-101"/>
       <use x="220.654297" xlink:href="#DejaVuSans-114"/>
      </g>
     </g>
    </g>
    <g id="xtick_4">
     <g id="line2d_4">
      <g>
       <use style="stroke:#000000;stroke-width:0.8;" x="166.648664" xlink:href="#m3b96d3d3fa" y="162.148265"/>
      </g>
     </g>
     <g id="text_4">
      <!-- cvxpy -->
      <g transform="translate(161.637571 198.584542)rotate(-60)scale(0.1 -0.1)">
       <defs>
        <path d="M 2.984375 54.6875 
L 12.5 54.6875 
L 29.59375 8.796875 
L 46.6875 54.6875 
L 56.203125 54.6875 
L 35.6875 0 
L 23.484375 0 
z
" id="DejaVuSans-118"/>
        <path d="M 54.890625 54.6875 
L 35.109375 28.078125 
L 55.90625 0 
L 45.3125 0 
L 29.390625 21.484375 
L 13.484375 0 
L 2.875 0 
L 24.125 28.609375 
L 4.6875 54.6875 
L 15.28125 54.6875 
L 29.78125 35.203125 
L 44.28125 54.6875 
z
" id="DejaVuSans-120"/>
        <path d="M 18.109375 8.203125 
L 18.109375 -20.796875 
L 9.078125 -20.796875 
L 9.078125 54.6875 
L 18.109375 54.6875 
L 18.109375 46.390625 
Q 20.953125 51.265625 25.265625 53.625 
Q 29.59375 56 35.59375 56 
Q 45.5625 56 51.78125 48.09375 
Q 58.015625 40.1875 58.015625 27.296875 
Q 58.015625 14.40625 51.78125 6.484375 
Q 45.5625 -1.421875 35.59375 -1.421875 
Q 29.59375 -1.421875 25.265625 0.953125 
Q 20.953125 3.328125 18.109375 8.203125 
z
M 48.6875 27.296875 
Q 48.6875 37.203125 44.609375 42.84375 
Q 40.53125 48.484375 33.40625 48.484375 
Q 26.265625 48.484375 22.1875 42.84375 
Q 18.109375 37.203125 18.109375 27.296875 
Q 18.109375 17.390625 22.1875 11.75 
Q 26.265625 6.109375 33.40625 6.109375 
Q 40.53125 6.109375 44.609375 11.75 
Q 48.6875 17.390625 48.6875 27.296875 
z
" id="DejaVuSans-112"/>
        <path d="M 32.171875 -5.078125 
Q 28.375 -14.84375 24.75 -17.8125 
Q 21.140625 -20.796875 15.09375 -20.796875 
L 7.90625 -20.796875 
L 7.90625 -13.28125 
L 13.1875 -13.28125 
Q 16.890625 -13.28125 18.9375 -11.515625 
Q 21 -9.765625 23.484375 -3.21875 
L 25.09375 0.875 
L 2.984375 54.6875 
L 12.5 54.6875 
L 29.59375 11.921875 
L 46.6875 54.6875 
L 56.203125 54.6875 
z
" id="DejaVuSans-121"/>
       </defs>
       <use xlink:href="#DejaVuSans-99"/>
       <use x="54.980469" xlink:href="#DejaVuSans-118"/>
       <use x="114.160156" xlink:href="#DejaVuSans-120"/>
       <use x="173.339844" xlink:href="#DejaVuSans-112"/>
       <use x="236.816406" xlink:href="#DejaVuSans-121"/>
      </g>
     </g>
    </g>
    <g id="xtick_5">
     <g id="line2d_5">
      <g>
       <use style="stroke:#000000;stroke-width:0.8;" x="191.28791" xlink:href="#m3b96d3d3fa" y="162.148265"/>
      </g>
     </g>
     <g id="text_5">
      <!-- Cyanure -->
      <g transform="translate(183.241662 209.098632)rotate(-60)scale(0.1 -0.1)">
       <defs>
        <path d="M 34.28125 27.484375 
Q 23.390625 27.484375 19.1875 25 
Q 14.984375 22.515625 14.984375 16.5 
Q 14.984375 11.71875 18.140625 8.90625 
Q 21.296875 6.109375 26.703125 6.109375 
Q 34.1875 6.109375 38.703125 11.40625 
Q 43.21875 16.703125 43.21875 25.484375 
L 43.21875 27.484375 
z
M 52.203125 31.203125 
L 52.203125 0 
L 43.21875 0 
L 43.21875 8.296875 
Q 40.140625 3.328125 35.546875 0.953125 
Q 30.953125 -1.421875 24.3125 -1.421875 
Q 15.921875 -1.421875 10.953125 3.296875 
Q 6 8.015625 6 15.921875 
Q 6 25.140625 12.171875 29.828125 
Q 18.359375 34.515625 30.609375 34.515625 
L 43.21875 34.515625 
L 43.21875 35.40625 
Q 43.21875 41.609375 39.140625 45 
Q 35.0625 48.390625 27.6875 48.390625 
Q 23 48.390625 18.546875 47.265625 
Q 14.109375 46.140625 10.015625 43.890625 
L 10.015625 52.203125 
Q 14.9375 54.109375 19.578125 55.046875 
Q 24.21875 56 28.609375 56 
Q 40.484375 56 46.34375 49.84375 
Q 52.203125 43.703125 52.203125 31.203125 
z
" id="DejaVuSans-97"/>
        <path d="M 54.890625 33.015625 
L 54.890625 0 
L 45.90625 0 
L 45.90625 32.71875 
Q 45.90625 40.484375 42.875 44.328125 
Q 39.84375 48.1875 33.796875 48.1875 
Q 26.515625 48.1875 22.3125 43.546875 
Q 18.109375 38.921875 18.109375 30.90625 
L 18.109375 0 
L 9.078125 0 
L 9.078125 54.6875 
L 18.109375 54.6875 
L 18.109375 46.1875 
Q 21.34375 51.125 25.703125 53.5625 
Q 30.078125 56 35.796875 56 
Q 45.21875 56 50.046875 50.171875 
Q 54.890625 44.34375 54.890625 33.015625 
z
" id="DejaVuSans-110"/>
        <path d="M 8.5 21.578125 
L 8.5 54.6875 
L 17.484375 54.6875 
L 17.484375 21.921875 
Q 17.484375 14.15625 20.5 10.265625 
Q 23.53125 6.390625 29.59375 6.390625 
Q 36.859375 6.390625 41.078125 11.03125 
Q 45.3125 15.671875 45.3125 23.6875 
L 45.3125 54.6875 
L 54.296875 54.6875 
L 54.296875 0 
L 45.3125 0 
L 45.3125 8.40625 
Q 42.046875 3.421875 37.71875 1 
Q 33.40625 -1.421875 27.6875 -1.421875 
Q 18.265625 -1.421875 13.375 4.4375 
Q 8.5 10.296875 8.5 21.578125 
z
M 31.109375 56 
z
" id="DejaVuSans-117"/>
       </defs>
       <use xlink:href="#DejaVuSans-67"/>
       <use x="69.824219" xlink:href="#DejaVuSans-121"/>
       <use x="129.003906" xlink:href="#DejaVuSans-97"/>
       <use x="190.283203" xlink:href="#DejaVuSans-110"/>
       <use x="253.662109" xlink:href="#DejaVuSans-117"/>
       <use x="317.041016" xlink:href="#DejaVuSans-114"/>
       <use x="355.904297" xlink:href="#DejaVuSans-101"/>
      </g>
     </g>
    </g>
    <g id="xtick_6">
     <g id="line2d_6">
      <g>
       <use style="stroke:#000000;stroke-width:0.8;" x="215.927157" xlink:href="#m3b96d3d3fa" y="162.148265"/>
      </g>
     </g>
     <g id="text_6">
      <!-- glmnet -->
      <g transform="translate(209.497315 203.499236)rotate(-60)scale(0.1 -0.1)">
       <defs>
        <path d="M 45.40625 27.984375 
Q 45.40625 37.75 41.375 43.109375 
Q 37.359375 48.484375 30.078125 48.484375 
Q 22.859375 48.484375 18.828125 43.109375 
Q 14.796875 37.75 14.796875 27.984375 
Q 14.796875 18.265625 18.828125 12.890625 
Q 22.859375 7.515625 30.078125 7.515625 
Q 37.359375 7.515625 41.375 12.890625 
Q 45.40625 18.265625 45.40625 27.984375 
z
M 54.390625 6.78125 
Q 54.390625 -7.171875 48.1875 -13.984375 
Q 42 -20.796875 29.203125 -20.796875 
Q 24.46875 -20.796875 20.265625 -20.09375 
Q 16.0625 -19.390625 12.109375 -17.921875 
L 12.109375 -9.1875 
Q 16.0625 -11.328125 19.921875 -12.34375 
Q 23.78125 -13.375 27.78125 -13.375 
Q 36.625 -13.375 41.015625 -8.765625 
Q 45.40625 -4.15625 45.40625 5.171875 
L 45.40625 9.625 
Q 42.625 4.78125 38.28125 2.390625 
Q 33.9375 0 27.875 0 
Q 17.828125 0 11.671875 7.65625 
Q 5.515625 15.328125 5.515625 27.984375 
Q 5.515625 40.671875 11.671875 48.328125 
Q 17.828125 56 27.875 56 
Q 33.9375 56 38.28125 53.609375 
Q 42.625 51.21875 45.40625 46.390625 
L 45.40625 54.6875 
L 54.390625 54.6875 
z
" id="DejaVuSans-103"/>
        <path d="M 52 44.1875 
Q 55.375 50.25 60.0625 53.125 
Q 64.75 56 71.09375 56 
Q 79.640625 56 84.28125 50.015625 
Q 88.921875 44.046875 88.921875 33.015625 
L 88.921875 0 
L 79.890625 0 
L 79.890625 32.71875 
Q 79.890625 40.578125 77.09375 44.375 
Q 74.3125 48.1875 68.609375 48.1875 
Q 61.625 48.1875 57.5625 43.546875 
Q 53.515625 38.921875 53.515625 30.90625 
L 53.515625 0 
L 44.484375 0 
L 44.484375 32.71875 
Q 44.484375 40.625 41.703125 44.40625 
Q 38.921875 48.1875 33.109375 48.1875 
Q 26.21875 48.1875 22.15625 43.53125 
Q 18.109375 38.875 18.109375 30.90625 
L 18.109375 0 
L 9.078125 0 
L 9.078125 54.6875 
L 18.109375 54.6875 
L 18.109375 46.1875 
Q 21.1875 51.21875 25.484375 53.609375 
Q 29.78125 56 35.6875 56 
Q 41.65625 56 45.828125 52.96875 
Q 50 49.953125 52 44.1875 
z
" id="DejaVuSans-109"/>
       </defs>
       <use xlink:href="#DejaVuSans-103"/>
       <use x="63.476562" xlink:href="#DejaVuSans-108"/>
       <use x="91.259766" xlink:href="#DejaVuSans-109"/>
       <use x="188.671875" xlink:href="#DejaVuSans-110"/>
       <use x="252.050781" xlink:href="#DejaVuSans-101"/>
       <use x="313.574219" xlink:href="#DejaVuSans-116"/>
      </g>
     </g>
    </g>
    <g id="xtick_7">
     <g id="line2d_7">
      <g>
       <use style="stroke:#000000;stroke-width:0.8;" x="240.566404" xlink:href="#m3b96d3d3fa" y="162.148265"/>
      </g>
     </g>
     <g id="text_7">
      <!-- Julia-PGD -->
      <g transform="translate(231.441639 212.83472)rotate(-60)scale(0.1 -0.1)">
       <defs>
        <path d="M 9.8125 72.90625 
L 19.671875 72.90625 
L 19.671875 5.078125 
Q 19.671875 -8.109375 14.671875 -14.0625 
Q 9.671875 -20.015625 -1.421875 -20.015625 
L -5.171875 -20.015625 
L -5.171875 -11.71875 
L -2.09375 -11.71875 
Q 4.4375 -11.71875 7.125 -8.046875 
Q 9.8125 -4.390625 9.8125 5.078125 
z
" id="DejaVuSans-74"/>
        <path d="M 4.890625 31.390625 
L 31.203125 31.390625 
L 31.203125 23.390625 
L 4.890625 23.390625 
z
" id="DejaVuSans-45"/>
        <path d="M 19.671875 64.796875 
L 19.671875 37.40625 
L 32.078125 37.40625 
Q 38.96875 37.40625 42.71875 40.96875 
Q 46.484375 44.53125 46.484375 51.125 
Q 46.484375 57.671875 42.71875 61.234375 
Q 38.96875 64.796875 32.078125 64.796875 
z
M 9.8125 72.90625 
L 32.078125 72.90625 
Q 44.34375 72.90625 50.609375 67.359375 
Q 56.890625 61.8125 56.890625 51.125 
Q 56.890625 40.328125 50.609375 34.8125 
Q 44.34375 29.296875 32.078125 29.296875 
L 19.671875 29.296875 
L 19.671875 0 
L 9.8125 0 
z
" id="DejaVuSans-80"/>
        <path d="M 59.515625 10.40625 
L 59.515625 29.984375 
L 43.40625 29.984375 
L 43.40625 38.09375 
L 69.28125 38.09375 
L 69.28125 6.78125 
Q 63.578125 2.734375 56.6875 0.65625 
Q 49.8125 -1.421875 42 -1.421875 
Q 24.90625 -1.421875 15.25 8.5625 
Q 5.609375 18.5625 5.609375 36.375 
Q 5.609375 54.25 15.25 64.234375 
Q 24.90625 74.21875 42 74.21875 
Q 49.125 74.21875 55.546875 72.453125 
Q 61.96875 70.703125 67.390625 67.28125 
L 67.390625 56.78125 
Q 61.921875 61.421875 55.765625 63.765625 
Q 49.609375 66.109375 42.828125 66.109375 
Q 29.4375 66.109375 22.71875 58.640625 
Q 16.015625 51.171875 16.015625 36.375 
Q 16.015625 21.625 22.71875 14.15625 
Q 29.4375 6.6875 42.828125 6.6875 
Q 48.046875 6.6875 52.140625 7.59375 
Q 56.25 8.5 59.515625 10.40625 
z
" id="DejaVuSans-71"/>
        <path d="M 19.671875 64.796875 
L 19.671875 8.109375 
L 31.59375 8.109375 
Q 46.6875 8.109375 53.6875 14.9375 
Q 60.6875 21.78125 60.6875 36.53125 
Q 60.6875 51.171875 53.6875 57.984375 
Q 46.6875 64.796875 31.59375 64.796875 
z
M 9.8125 72.90625 
L 30.078125 72.90625 
Q 51.265625 72.90625 61.171875 64.09375 
Q 71.09375 55.28125 71.09375 36.53125 
Q 71.09375 17.671875 61.125 8.828125 
Q 51.171875 0 30.078125 0 
L 9.8125 0 
z
" id="DejaVuSans-68"/>
       </defs>
       <use xlink:href="#DejaVuSans-74"/>
       <use x="29.492188" xlink:href="#DejaVuSans-117"/>
       <use x="92.871094" xlink:href="#DejaVuSans-108"/>
       <use x="120.654297" xlink:href="#DejaVuSans-105"/>
       <use x="148.4375" xlink:href="#DejaVuSans-97"/>
       <use x="209.716797" xlink:href="#DejaVuSans-45"/>
       <use x="245.800781" xlink:href="#DejaVuSans-80"/>
       <use x="306.103516" xlink:href="#DejaVuSans-71"/>
       <use x="383.59375" xlink:href="#DejaVuSans-68"/>
      </g>
     </g>
    </g>
    <g id="xtick_8">
     <g id="line2d_8">
      <g>
       <use style="stroke:#000000;stroke-width:0.8;" x="265.20565" xlink:href="#m3b96d3d3fa" y="162.148265"/>
      </g>
     </g>
     <g id="text_8">
      <!-- L-BFGS-B -->
      <g transform="translate(256.230886 212.315104)rotate(-60)scale(0.1 -0.1)">
       <defs>
        <path d="M 9.8125 72.90625 
L 19.671875 72.90625 
L 19.671875 8.296875 
L 55.171875 8.296875 
L 55.171875 0 
L 9.8125 0 
z
" id="DejaVuSans-76"/>
        <path d="M 9.8125 72.90625 
L 51.703125 72.90625 
L 51.703125 64.59375 
L 19.671875 64.59375 
L 19.671875 43.109375 
L 48.578125 43.109375 
L 48.578125 34.8125 
L 19.671875 34.8125 
L 19.671875 0 
L 9.8125 0 
z
" id="DejaVuSans-70"/>
        <path d="M 53.515625 70.515625 
L 53.515625 60.890625 
Q 47.90625 63.578125 42.921875 64.890625 
Q 37.9375 66.21875 33.296875 66.21875 
Q 25.25 66.21875 20.875 63.09375 
Q 16.5 59.96875 16.5 54.203125 
Q 16.5 49.359375 19.40625 46.890625 
Q 22.3125 44.4375 30.421875 42.921875 
L 36.375 41.703125 
Q 47.40625 39.59375 52.65625 34.296875 
Q 57.90625 29 57.90625 20.125 
Q 57.90625 9.515625 50.796875 4.046875 
Q 43.703125 -1.421875 29.984375 -1.421875 
Q 24.8125 -1.421875 18.96875 -0.25 
Q 13.140625 0.921875 6.890625 3.21875 
L 6.890625 13.375 
Q 12.890625 10.015625 18.65625 8.296875 
Q 24.421875 6.59375 29.984375 6.59375 
Q 38.421875 6.59375 43.015625 9.90625 
Q 47.609375 13.234375 47.609375 19.390625 
Q 47.609375 24.75 44.3125 27.78125 
Q 41.015625 30.8125 33.5 32.328125 
L 27.484375 33.5 
Q 16.453125 35.6875 11.515625 40.375 
Q 6.59375 45.0625 6.59375 53.421875 
Q 6.59375 63.09375 13.40625 68.65625 
Q 20.21875 74.21875 32.171875 74.21875 
Q 37.3125 74.21875 42.625 73.28125 
Q 47.953125 72.359375 53.515625 70.515625 
z
" id="DejaVuSans-83"/>
       </defs>
       <use xlink:href="#DejaVuSans-76"/>
       <use x="53.962891" xlink:href="#DejaVuSans-45"/>
       <use x="86.421875" xlink:href="#DejaVuSans-66"/>
       <use x="155.025391" xlink:href="#DejaVuSans-70"/>
       <use x="212.544922" xlink:href="#DejaVuSans-71"/>
       <use x="290.035156" xlink:href="#DejaVuSans-83"/>
       <use x="353.511719" xlink:href="#DejaVuSans-45"/>
       <use x="385.970703" xlink:href="#DejaVuSans-66"/>
      </g>
     </g>
    </g>
    <g id="xtick_9">
     <g id="line2d_9">
      <g>
       <use style="stroke:#000000;stroke-width:0.8;" x="289.844897" xlink:href="#m3b96d3d3fa" y="162.148265"/>
      </g>
     </g>
     <g id="text_9">
      <!-- Lightning -->
      <g transform="translate(280.545133 213.440937)rotate(-60)scale(0.1 -0.1)">
       <defs>
        <path d="M 54.890625 33.015625 
L 54.890625 0 
L 45.90625 0 
L 45.90625 32.71875 
Q 45.90625 40.484375 42.875 44.328125 
Q 39.84375 48.1875 33.796875 48.1875 
Q 26.515625 48.1875 22.3125 43.546875 
Q 18.109375 38.921875 18.109375 30.90625 
L 18.109375 0 
L 9.078125 0 
L 9.078125 75.984375 
L 18.109375 75.984375 
L 18.109375 46.1875 
Q 21.34375 51.125 25.703125 53.5625 
Q 30.078125 56 35.796875 56 
Q 45.21875 56 50.046875 50.171875 
Q 54.890625 44.34375 54.890625 33.015625 
z
" id="DejaVuSans-104"/>
       </defs>
       <use xlink:href="#DejaVuSans-76"/>
       <use x="55.712891" xlink:href="#DejaVuSans-105"/>
       <use x="83.496094" xlink:href="#DejaVuSans-103"/>
       <use x="146.972656" xlink:href="#DejaVuSans-104"/>
       <use x="210.351562" xlink:href="#DejaVuSans-116"/>
       <use x="249.560547" xlink:href="#DejaVuSans-110"/>
       <use x="312.939453" xlink:href="#DejaVuSans-105"/>
       <use x="340.722656" xlink:href="#DejaVuSans-110"/>
       <use x="404.101562" xlink:href="#DejaVuSans-103"/>
      </g>
     </g>
    </g>
    <g id="xtick_10">
     <g id="line2d_10">
      <g>
       <use style="stroke:#000000;stroke-width:0.8;" x="314.484144" xlink:href="#m3b96d3d3fa" y="162.148265"/>
      </g>
     </g>
     <g id="text_10">
      <!-- Python-PGD[use_acceleration=False] -->
      <g transform="translate(270.417854 333.458527)rotate(-60)scale(0.1 -0.1)">
       <defs>
        <path d="M 30.609375 48.390625 
Q 23.390625 48.390625 19.1875 42.75 
Q 14.984375 37.109375 14.984375 27.296875 
Q 14.984375 17.484375 19.15625 11.84375 
Q 23.34375 6.203125 30.609375 6.203125 
Q 37.796875 6.203125 41.984375 11.859375 
Q 46.1875 17.53125 46.1875 27.296875 
Q 46.1875 37.015625 41.984375 42.703125 
Q 37.796875 48.390625 30.609375 48.390625 
z
M 30.609375 56 
Q 42.328125 56 49.015625 48.375 
Q 55.71875 40.765625 55.71875 27.296875 
Q 55.71875 13.875 49.015625 6.21875 
Q 42.328125 -1.421875 30.609375 -1.421875 
Q 18.84375 -1.421875 12.171875 6.21875 
Q 5.515625 13.875 5.515625 27.296875 
Q 5.515625 40.765625 12.171875 48.375 
Q 18.84375 56 30.609375 56 
z
" id="DejaVuSans-111"/>
        <path d="M 8.59375 75.984375 
L 29.296875 75.984375 
L 29.296875 69 
L 17.578125 69 
L 17.578125 -6.203125 
L 29.296875 -6.203125 
L 29.296875 -13.1875 
L 8.59375 -13.1875 
z
" id="DejaVuSans-91"/>
        <path d="M 44.28125 53.078125 
L 44.28125 44.578125 
Q 40.484375 46.53125 36.375 47.5 
Q 32.28125 48.484375 27.875 48.484375 
Q 21.1875 48.484375 17.84375 46.4375 
Q 14.5 44.390625 14.5 40.28125 
Q 14.5 37.15625 16.890625 35.375 
Q 19.28125 33.59375 26.515625 31.984375 
L 29.59375 31.296875 
Q 39.15625 29.25 43.1875 25.515625 
Q 47.21875 21.78125 47.21875 15.09375 
Q 47.21875 7.46875 41.1875 3.015625 
Q 35.15625 -1.421875 24.609375 -1.421875 
Q 20.21875 -1.421875 15.453125 -0.5625 
Q 10.6875 0.296875 5.421875 2 
L 5.421875 11.28125 
Q 10.40625 8.6875 15.234375 7.390625 
Q 20.0625 6.109375 24.8125 6.109375 
Q 31.15625 6.109375 34.5625 8.28125 
Q 37.984375 10.453125 37.984375 14.40625 
Q 37.984375 18.0625 35.515625 20.015625 
Q 33.0625 21.96875 24.703125 23.78125 
L 21.578125 24.515625 
Q 13.234375 26.265625 9.515625 29.90625 
Q 5.8125 33.546875 5.8125 39.890625 
Q 5.8125 47.609375 11.28125 51.796875 
Q 16.75 56 26.8125 56 
Q 31.78125 56 36.171875 55.265625 
Q 40.578125 54.546875 44.28125 53.078125 
z
" id="DejaVuSans-115"/>
        <path d="M 50.984375 -16.609375 
L 50.984375 -23.578125 
L -0.984375 -23.578125 
L -0.984375 -16.609375 
z
" id="DejaVuSans-95"/>
        <path d="M 10.59375 45.40625 
L 73.1875 45.40625 
L 73.1875 37.203125 
L 10.59375 37.203125 
z
M 10.59375 25.484375 
L 73.1875 25.484375 
L 73.1875 17.1875 
L 10.59375 17.1875 
z
" id="DejaVuSans-61"/>
        <path d="M 30.421875 75.984375 
L 30.421875 -13.1875 
L 9.71875 -13.1875 
L 9.71875 -6.203125 
L 21.390625 -6.203125 
L 21.390625 69 
L 9.71875 69 
L 9.71875 75.984375 
z
" id="DejaVuSans-93"/>
       </defs>
       <use xlink:href="#DejaVuSans-80"/>
       <use x="60.302734" xlink:href="#DejaVuSans-121"/>
       <use x="119.482422" xlink:href="#DejaVuSans-116"/>
       <use x="158.691406" xlink:href="#DejaVuSans-104"/>
       <use x="222.070312" xlink:href="#DejaVuSans-111"/>
       <use x="283.251953" xlink:href="#DejaVuSans-110"/>
       <use x="346.630859" xlink:href="#DejaVuSans-45"/>
       <use x="382.714844" xlink:href="#DejaVuSans-80"/>
       <use x="443.017578" xlink:href="#DejaVuSans-71"/>
       <use x="520.507812" xlink:href="#DejaVuSans-68"/>
       <use x="597.509766" xlink:href="#DejaVuSans-91"/>
       <use x="636.523438" xlink:href="#DejaVuSans-117"/>
       <use x="699.902344" xlink:href="#DejaVuSans-115"/>
       <use x="752.001953" xlink:href="#DejaVuSans-101"/>
       <use x="813.525391" xlink:href="#DejaVuSans-95"/>
       <use x="863.525391" xlink:href="#DejaVuSans-97"/>
       <use x="924.804688" xlink:href="#DejaVuSans-99"/>
       <use x="979.785156" xlink:href="#DejaVuSans-99"/>
       <use x="1034.765625" xlink:href="#DejaVuSans-101"/>
       <use x="1096.289062" xlink:href="#DejaVuSans-108"/>
       <use x="1124.072266" xlink:href="#DejaVuSans-101"/>
       <use x="1185.595703" xlink:href="#DejaVuSans-114"/>
       <use x="1226.708984" xlink:href="#DejaVuSans-97"/>
       <use x="1287.988281" xlink:href="#DejaVuSans-116"/>
       <use x="1327.197266" xlink:href="#DejaVuSans-105"/>
       <use x="1354.980469" xlink:href="#DejaVuSans-111"/>
       <use x="1416.162109" xlink:href="#DejaVuSans-110"/>
       <use x="1479.541016" xlink:href="#DejaVuSans-61"/>
       <use x="1563.330078" xlink:href="#DejaVuSans-70"/>
       <use x="1611.724609" xlink:href="#DejaVuSans-97"/>
       <use x="1673.003906" xlink:href="#DejaVuSans-108"/>
       <use x="1700.787109" xlink:href="#DejaVuSans-115"/>
       <use x="1752.886719" xlink:href="#DejaVuSans-101"/>
       <use x="1814.410156" xlink:href="#DejaVuSans-93"/>
      </g>
     </g>
    </g>
    <g id="xtick_11">
     <g id="line2d_11">
      <g>
       <use style="stroke:#000000;stroke-width:0.8;" x="339.12339" xlink:href="#m3b96d3d3fa" y="162.148265"/>
      </g>
     </g>
     <g id="text_11">
      <!-- Python-PGD[use_acceleration=True] -->
      <g transform="translate(296.02546 330.104031)rotate(-60)scale(0.1 -0.1)">
       <defs>
        <path d="M -0.296875 72.90625 
L 61.375 72.90625 
L 61.375 64.59375 
L 35.5 64.59375 
L 35.5 0 
L 25.59375 0 
L 25.59375 64.59375 
L -0.296875 64.59375 
z
" id="DejaVuSans-84"/>
       </defs>
       <use xlink:href="#DejaVuSans-80"/>
       <use x="60.302734" xlink:href="#DejaVuSans-121"/>
       <use x="119.482422" xlink:href="#DejaVuSans-116"/>
       <use x="158.691406" xlink:href="#DejaVuSans-104"/>
       <use x="222.070312" xlink:href="#DejaVuSans-111"/>
       <use x="283.251953" xlink:href="#DejaVuSans-110"/>
       <use x="346.630859" xlink:href="#DejaVuSans-45"/>
       <use x="382.714844" xlink:href="#DejaVuSans-80"/>
       <use x="443.017578" xlink:href="#DejaVuSans-71"/>
       <use x="520.507812" xlink:href="#DejaVuSans-68"/>
       <use x="597.509766" xlink:href="#DejaVuSans-91"/>
       <use x="636.523438" xlink:href="#DejaVuSans-117"/>
       <use x="699.902344" xlink:href="#DejaVuSans-115"/>
       <use x="752.001953" xlink:href="#DejaVuSans-101"/>
       <use x="813.525391" xlink:href="#DejaVuSans-95"/>
       <use x="863.525391" xlink:href="#DejaVuSans-97"/>
       <use x="924.804688" xlink:href="#DejaVuSans-99"/>
       <use x="979.785156" xlink:href="#DejaVuSans-99"/>
       <use x="1034.765625" xlink:href="#DejaVuSans-101"/>
       <use x="1096.289062" xlink:href="#DejaVuSans-108"/>
       <use x="1124.072266" xlink:href="#DejaVuSans-101"/>
       <use x="1185.595703" xlink:href="#DejaVuSans-114"/>
       <use x="1226.708984" xlink:href="#DejaVuSans-97"/>
       <use x="1287.988281" xlink:href="#DejaVuSans-116"/>
       <use x="1327.197266" xlink:href="#DejaVuSans-105"/>
       <use x="1354.980469" xlink:href="#DejaVuSans-111"/>
       <use x="1416.162109" xlink:href="#DejaVuSans-110"/>
       <use x="1479.541016" xlink:href="#DejaVuSans-61"/>
       <use x="1563.330078" xlink:href="#DejaVuSans-84"/>
       <use x="1609.664062" xlink:href="#DejaVuSans-114"/>
       <use x="1650.777344" xlink:href="#DejaVuSans-117"/>
       <use x="1714.15625" xlink:href="#DejaVuSans-101"/>
       <use x="1775.679688" xlink:href="#DejaVuSans-93"/>
      </g>
     </g>
    </g>
    <g id="xtick_12">
     <g id="line2d_12">
      <g>
       <use style="stroke:#000000;stroke-width:0.8;" x="363.762637" xlink:href="#m3b96d3d3fa" y="162.148265"/>
      </g>
     </g>
     <g id="text_12">
      <!-- R-PGD -->
      <g transform="translate(358.243732 200.343656)rotate(-60)scale(0.1 -0.1)">
       <defs>
        <path d="M 44.390625 34.1875 
Q 47.5625 33.109375 50.5625 29.59375 
Q 53.5625 26.078125 56.59375 19.921875 
L 66.609375 0 
L 56 0 
L 46.6875 18.703125 
Q 43.0625 26.03125 39.671875 28.421875 
Q 36.28125 30.8125 30.421875 30.8125 
L 19.671875 30.8125 
L 19.671875 0 
L 9.8125 0 
L 9.8125 72.90625 
L 32.078125 72.90625 
Q 44.578125 72.90625 50.734375 67.671875 
Q 56.890625 62.453125 56.890625 51.90625 
Q 56.890625 45.015625 53.6875 40.46875 
Q 50.484375 35.9375 44.390625 34.1875 
z
M 19.671875 64.796875 
L 19.671875 38.921875 
L 32.078125 38.921875 
Q 39.203125 38.921875 42.84375 42.21875 
Q 46.484375 45.515625 46.484375 51.90625 
Q 46.484375 58.296875 42.84375 61.546875 
Q 39.203125 64.796875 32.078125 64.796875 
z
" id="DejaVuSans-82"/>
       </defs>
       <use xlink:href="#DejaVuSans-82"/>
       <use x="65.482422" xlink:href="#DejaVuSans-45"/>
       <use x="101.566406" xlink:href="#DejaVuSans-80"/>
       <use x="161.869141" xlink:href="#DejaVuSans-71"/>
       <use x="239.359375" xlink:href="#DejaVuSans-68"/>
      </g>
     </g>
    </g>
    <g id="xtick_13">
     <g id="line2d_13">
      <g>
       <use style="stroke:#000000;stroke-width:0.8;" x="388.401883" xlink:href="#m3b96d3d3fa" y="162.148265"/>
      </g>
     </g>
     <g id="text_13">
      <!-- sklearn -->
      <g transform="translate(381.708369 204.412623)rotate(-60)scale(0.1 -0.1)">
       <defs>
        <path d="M 9.078125 75.984375 
L 18.109375 75.984375 
L 18.109375 31.109375 
L 44.921875 54.6875 
L 56.390625 54.6875 
L 27.390625 29.109375 
L 57.625 0 
L 45.90625 0 
L 18.109375 26.703125 
L 18.109375 0 
L 9.078125 0 
z
" id="DejaVuSans-107"/>
       </defs>
       <use xlink:href="#DejaVuSans-115"/>
       <use x="52.099609" xlink:href="#DejaVuSans-107"/>
       <use x="110.009766" xlink:href="#DejaVuSans-108"/>
       <use x="137.792969" xlink:href="#DejaVuSans-101"/>
       <use x="199.316406" xlink:href="#DejaVuSans-97"/>
       <use x="260.595703" xlink:href="#DejaVuSans-114"/>
       <use x="299.958984" xlink:href="#DejaVuSans-110"/>
      </g>
     </g>
    </g>
    <g id="xtick_14">
     <g id="line2d_14">
      <g>
       <use style="stroke:#000000;stroke-width:0.8;" x="413.04113" xlink:href="#m3b96d3d3fa" y="162.148265"/>
      </g>
     </g>
     <g id="text_14">
      <!-- statsmodels -->
      <g transform="translate(400.246835 225.546349)rotate(-60)scale(0.1 -0.1)">
       <use xlink:href="#DejaVuSans-115"/>
       <use x="52.099609" xlink:href="#DejaVuSans-116"/>
       <use x="91.308594" xlink:href="#DejaVuSans-97"/>
       <use x="152.587891" xlink:href="#DejaVuSans-116"/>
       <use x="191.796875" xlink:href="#DejaVuSans-115"/>
       <use x="243.896484" xlink:href="#DejaVuSans-109"/>
       <use x="341.308594" xlink:href="#DejaVuSans-111"/>
       <use x="402.490234" xlink:href="#DejaVuSans-100"/>
       <use x="465.966797" xlink:href="#DejaVuSans-101"/>
       <use x="527.490234" xlink:href="#DejaVuSans-108"/>
       <use x="555.273438" xlink:href="#DejaVuSans-115"/>
      </g>
     </g>
    </g>
   </g>
   <g id="matplotlib.axis_2">
    <g id="ytick_1">
     <g id="line2d_15">
      <defs>
       <path d="M 0 0 
L -3.5 0 
" id="mcbe34ce7b4" style="stroke:#000000;stroke-width:0.8;"/>
      </defs>
      <g>
       <use style="stroke:#000000;stroke-width:0.8;" x="55.772054" xlink:href="#mcbe34ce7b4" y="140.001992"/>
      </g>
     </g>
     <g id="text_15">
      <!-- $\mathdefault{10^{-1}}$ -->
      <g transform="translate(25.272054 143.801211)scale(0.1 -0.1)">
       <defs>
        <path d="M 12.40625 8.296875 
L 28.515625 8.296875 
L 28.515625 63.921875 
L 10.984375 60.40625 
L 10.984375 69.390625 
L 28.421875 72.90625 
L 38.28125 72.90625 
L 38.28125 8.296875 
L 54.390625 8.296875 
L 54.390625 0 
L 12.40625 0 
z
" id="DejaVuSans-49"/>
        <path d="M 31.78125 66.40625 
Q 24.171875 66.40625 20.328125 58.90625 
Q 16.5 51.421875 16.5 36.375 
Q 16.5 21.390625 20.328125 13.890625 
Q 24.171875 6.390625 31.78125 6.390625 
Q 39.453125 6.390625 43.28125 13.890625 
Q 47.125 21.390625 47.125 36.375 
Q 47.125 51.421875 43.28125 58.90625 
Q 39.453125 66.40625 31.78125 66.40625 
z
M 31.78125 74.21875 
Q 44.046875 74.21875 50.515625 64.515625 
Q 56.984375 54.828125 56.984375 36.375 
Q 56.984375 17.96875 50.515625 8.265625 
Q 44.046875 -1.421875 31.78125 -1.421875 
Q 19.53125 -1.421875 13.0625 8.265625 
Q 6.59375 17.96875 6.59375 36.375 
Q 6.59375 54.828125 13.0625 64.515625 
Q 19.53125 74.21875 31.78125 74.21875 
z
" id="DejaVuSans-48"/>
        <path d="M 10.59375 35.5 
L 73.1875 35.5 
L 73.1875 27.203125 
L 10.59375 27.203125 
z
" id="DejaVuSans-8722"/>
       </defs>
       <use transform="translate(0 0.684375)" xlink:href="#DejaVuSans-49"/>
       <use transform="translate(63.623047 0.684375)" xlink:href="#DejaVuSans-48"/>
       <use transform="translate(128.203125 38.965625)scale(0.7)" xlink:href="#DejaVuSans-8722"/>
       <use transform="translate(186.855469 38.965625)scale(0.7)" xlink:href="#DejaVuSans-49"/>
      </g>
     </g>
    </g>
    <g id="ytick_2">
     <g id="line2d_16">
      <g>
       <use style="stroke:#000000;stroke-width:0.8;" x="55.772054" xlink:href="#mcbe34ce7b4" y="97.309294"/>
      </g>
     </g>
     <g id="text_16">
      <!-- $\mathdefault{10^{0}}$ -->
      <g transform="translate(31.172054 101.108513)scale(0.1 -0.1)">
       <use transform="translate(0 0.765625)" xlink:href="#DejaVuSans-49"/>
       <use transform="translate(63.623047 0.765625)" xlink:href="#DejaVuSans-48"/>
       <use transform="translate(128.203125 39.046875)scale(0.7)" xlink:href="#DejaVuSans-48"/>
      </g>
     </g>
    </g>
    <g id="ytick_3">
     <g id="line2d_17">
      <g>
       <use style="stroke:#000000;stroke-width:0.8;" x="55.772054" xlink:href="#mcbe34ce7b4" y="54.616597"/>
      </g>
     </g>
     <g id="text_17">
      <!-- $\mathdefault{10^{1}}$ -->
      <g transform="translate(31.172054 58.415815)scale(0.1 -0.1)">
       <use transform="translate(0 0.684375)" xlink:href="#DejaVuSans-49"/>
       <use transform="translate(63.623047 0.684375)" xlink:href="#DejaVuSans-48"/>
       <use transform="translate(128.203125 38.965625)scale(0.7)" xlink:href="#DejaVuSans-49"/>
      </g>
     </g>
    </g>
    <g id="ytick_4">
     <g id="line2d_18">
      <defs>
       <path d="M 0 0 
L -2 0 
" id="mb4397bbdb3" style="stroke:#000000;stroke-width:0.6;"/>
      </defs>
      <g>
       <use style="stroke:#000000;stroke-width:0.6;" x="55.772054" xlink:href="#mb4397bbdb3" y="156.991125"/>
      </g>
     </g>
    </g>
    <g id="ytick_5">
     <g id="line2d_19">
      <g>
       <use style="stroke:#000000;stroke-width:0.6;" x="55.772054" xlink:href="#mb4397bbdb3" y="152.853775"/>
      </g>
     </g>
    </g>
    <g id="ytick_6">
     <g id="line2d_20">
      <g>
       <use style="stroke:#000000;stroke-width:0.6;" x="55.772054" xlink:href="#mb4397bbdb3" y="149.473314"/>
      </g>
     </g>
    </g>
    <g id="ytick_7">
     <g id="line2d_21">
      <g>
       <use style="stroke:#000000;stroke-width:0.6;" x="55.772054" xlink:href="#mb4397bbdb3" y="146.615175"/>
      </g>
     </g>
    </g>
    <g id="ytick_8">
     <g id="line2d_22">
      <g>
       <use style="stroke:#000000;stroke-width:0.6;" x="55.772054" xlink:href="#mb4397bbdb3" y="144.139342"/>
      </g>
     </g>
    </g>
    <g id="ytick_9">
     <g id="line2d_23">
      <g>
       <use style="stroke:#000000;stroke-width:0.6;" x="55.772054" xlink:href="#mb4397bbdb3" y="141.955503"/>
      </g>
     </g>
    </g>
    <g id="ytick_10">
     <g id="line2d_24">
      <g>
       <use style="stroke:#000000;stroke-width:0.6;" x="55.772054" xlink:href="#mb4397bbdb3" y="127.150209"/>
      </g>
     </g>
    </g>
    <g id="ytick_11">
     <g id="line2d_25">
      <g>
       <use style="stroke:#000000;stroke-width:0.6;" x="55.772054" xlink:href="#mb4397bbdb3" y="119.632399"/>
      </g>
     </g>
    </g>
    <g id="ytick_12">
     <g id="line2d_26">
      <g>
       <use style="stroke:#000000;stroke-width:0.6;" x="55.772054" xlink:href="#mb4397bbdb3" y="114.298427"/>
      </g>
     </g>
    </g>
    <g id="ytick_13">
     <g id="line2d_27">
      <g>
       <use style="stroke:#000000;stroke-width:0.6;" x="55.772054" xlink:href="#mb4397bbdb3" y="110.161077"/>
      </g>
     </g>
    </g>
    <g id="ytick_14">
     <g id="line2d_28">
      <g>
       <use style="stroke:#000000;stroke-width:0.6;" x="55.772054" xlink:href="#mb4397bbdb3" y="106.780616"/>
      </g>
     </g>
    </g>
    <g id="ytick_15">
     <g id="line2d_29">
      <g>
       <use style="stroke:#000000;stroke-width:0.6;" x="55.772054" xlink:href="#mb4397bbdb3" y="103.922477"/>
      </g>
     </g>
    </g>
    <g id="ytick_16">
     <g id="line2d_30">
      <g>
       <use style="stroke:#000000;stroke-width:0.6;" x="55.772054" xlink:href="#mb4397bbdb3" y="101.446644"/>
      </g>
     </g>
    </g>
    <g id="ytick_17">
     <g id="line2d_31">
      <g>
       <use style="stroke:#000000;stroke-width:0.6;" x="55.772054" xlink:href="#mb4397bbdb3" y="99.262805"/>
      </g>
     </g>
    </g>
    <g id="ytick_18">
     <g id="line2d_32">
      <g>
       <use style="stroke:#000000;stroke-width:0.6;" x="55.772054" xlink:href="#mb4397bbdb3" y="84.457512"/>
      </g>
     </g>
    </g>
    <g id="ytick_19">
     <g id="line2d_33">
      <g>
       <use style="stroke:#000000;stroke-width:0.6;" x="55.772054" xlink:href="#mb4397bbdb3" y="76.939701"/>
      </g>
     </g>
    </g>
    <g id="ytick_20">
     <g id="line2d_34">
      <g>
       <use style="stroke:#000000;stroke-width:0.6;" x="55.772054" xlink:href="#mb4397bbdb3" y="71.605729"/>
      </g>
     </g>
    </g>
    <g id="ytick_21">
     <g id="line2d_35">
      <g>
       <use style="stroke:#000000;stroke-width:0.6;" x="55.772054" xlink:href="#mb4397bbdb3" y="67.468379"/>
      </g>
     </g>
    </g>
    <g id="ytick_22">
     <g id="line2d_36">
      <g>
       <use style="stroke:#000000;stroke-width:0.6;" x="55.772054" xlink:href="#mb4397bbdb3" y="64.087918"/>
      </g>
     </g>
    </g>
    <g id="ytick_23">
     <g id="line2d_37">
      <g>
       <use style="stroke:#000000;stroke-width:0.6;" x="55.772054" xlink:href="#mb4397bbdb3" y="61.229779"/>
      </g>
     </g>
    </g>
    <g id="ytick_24">
     <g id="line2d_38">
      <g>
       <use style="stroke:#000000;stroke-width:0.6;" x="55.772054" xlink:href="#mb4397bbdb3" y="58.753946"/>
      </g>
     </g>
    </g>
    <g id="ytick_25">
     <g id="line2d_39">
      <g>
       <use style="stroke:#000000;stroke-width:0.6;" x="55.772054" xlink:href="#mb4397bbdb3" y="56.570107"/>
      </g>
     </g>
    </g>
    <g id="text_18">
     <!-- Time [sec] -->
     <g transform="translate(19.192366 128.15682)rotate(-90)scale(0.1 -0.1)">
      <defs>
       <path id="DejaVuSans-32"/>
      </defs>
      <use xlink:href="#DejaVuSans-84"/>
      <use x="57.958984" xlink:href="#DejaVuSans-105"/>
      <use x="85.742188" xlink:href="#DejaVuSans-109"/>
      <use x="183.154297" xlink:href="#DejaVuSans-101"/>
      <use x="244.677734" xlink:href="#DejaVuSans-32"/>
      <use x="276.464844" xlink:href="#DejaVuSans-91"/>
      <use x="315.478516" xlink:href="#DejaVuSans-115"/>
      <use x="367.578125" xlink:href="#DejaVuSans-101"/>
      <use x="429.101562" xlink:href="#DejaVuSans-99"/>
      <use x="484.082031" xlink:href="#DejaVuSans-93"/>
     </g>
    </g>
   </g>
   <g id="patch_17">
    <path d="M 55.772054 162.148265 
L 55.772054 41.856 
" style="fill:none;stroke:#000000;stroke-linecap:square;stroke-linejoin:miter;stroke-width:0.8;"/>
   </g>
   <g id="patch_18">
    <path d="M 450 162.148265 
L 450 41.856 
" style="fill:none;stroke:#000000;stroke-linecap:square;stroke-linejoin:miter;stroke-width:0.8;"/>
   </g>
   <g id="patch_19">
    <path d="M 55.772054 162.148265 
L 450 162.148265 
" style="fill:none;stroke:#000000;stroke-linecap:square;stroke-linejoin:miter;stroke-width:0.8;"/>
   </g>
   <g id="patch_20">
    <path d="M 55.772054 41.856 
L 450 41.856 
" style="fill:none;stroke:#000000;stroke-linecap:square;stroke-linejoin:miter;stroke-width:0.8;"/>
   </g>
   <g id="text_19">
    <!-- Did not converge -->
    <g transform="translate(169.408039 103.187332)rotate(-90)scale(0.1 -0.1)">
     <use xlink:href="#DejaVuSans-68"/>
     <use x="77.001953" xlink:href="#DejaVuSans-105"/>
     <use x="104.785156" xlink:href="#DejaVuSans-100"/>
     <use x="168.261719" xlink:href="#DejaVuSans-32"/>
     <use x="200.048828" xlink:href="#DejaVuSans-110"/>
     <use x="263.427734" xlink:href="#DejaVuSans-111"/>
     <use x="324.609375" xlink:href="#DejaVuSans-116"/>
     <use x="363.818359" xlink:href="#DejaVuSans-32"/>
     <use x="395.605469" xlink:href="#DejaVuSans-99"/>
     <use x="450.585938" xlink:href="#DejaVuSans-111"/>
     <use x="511.767578" xlink:href="#DejaVuSans-110"/>
     <use x="575.146484" xlink:href="#DejaVuSans-118"/>
     <use x="634.326172" xlink:href="#DejaVuSans-101"/>
     <use x="695.849609" xlink:href="#DejaVuSans-114"/>
     <use x="735.212891" xlink:href="#DejaVuSans-103"/>
     <use x="798.689453" xlink:href="#DejaVuSans-101"/>
    </g>
   </g>
   <g id="text_20">
    <!-- Did not converge -->
    <g transform="translate(243.325779 103.187332)rotate(-90)scale(0.1 -0.1)">
     <use xlink:href="#DejaVuSans-68"/>
     <use x="77.001953" xlink:href="#DejaVuSans-105"/>
     <use x="104.785156" xlink:href="#DejaVuSans-100"/>
     <use x="168.261719" xlink:href="#DejaVuSans-32"/>
     <use x="200.048828" xlink:href="#DejaVuSans-110"/>
     <use x="263.427734" xlink:href="#DejaVuSans-111"/>
     <use x="324.609375" xlink:href="#DejaVuSans-116"/>
     <use x="363.818359" xlink:href="#DejaVuSans-32"/>
     <use x="395.605469" xlink:href="#DejaVuSans-99"/>
     <use x="450.585938" xlink:href="#DejaVuSans-111"/>
     <use x="511.767578" xlink:href="#DejaVuSans-110"/>
     <use x="575.146484" xlink:href="#DejaVuSans-118"/>
     <use x="634.326172" xlink:href="#DejaVuSans-101"/>
     <use x="695.849609" xlink:href="#DejaVuSans-114"/>
     <use x="735.212891" xlink:href="#DejaVuSans-103"/>
     <use x="798.689453" xlink:href="#DejaVuSans-101"/>
    </g>
   </g>
   <g id="text_21">
    <!-- Did not converge -->
    <g transform="translate(292.604272 103.187332)rotate(-90)scale(0.1 -0.1)">
     <use xlink:href="#DejaVuSans-68"/>
     <use x="77.001953" xlink:href="#DejaVuSans-105"/>
     <use x="104.785156" xlink:href="#DejaVuSans-100"/>
     <use x="168.261719" xlink:href="#DejaVuSans-32"/>
     <use x="200.048828" xlink:href="#DejaVuSans-110"/>
     <use x="263.427734" xlink:href="#DejaVuSans-111"/>
     <use x="324.609375" xlink:href="#DejaVuSans-116"/>
     <use x="363.818359" xlink:href="#DejaVuSans-32"/>
     <use x="395.605469" xlink:href="#DejaVuSans-99"/>
     <use x="450.585938" xlink:href="#DejaVuSans-111"/>
     <use x="511.767578" xlink:href="#DejaVuSans-110"/>
     <use x="575.146484" xlink:href="#DejaVuSans-118"/>
     <use x="634.326172" xlink:href="#DejaVuSans-101"/>
     <use x="695.849609" xlink:href="#DejaVuSans-114"/>
     <use x="735.212891" xlink:href="#DejaVuSans-103"/>
     <use x="798.689453" xlink:href="#DejaVuSans-101"/>
    </g>
   </g>
   <g id="text_22">
    <!-- Did not converge -->
    <g transform="translate(317.243519 103.187332)rotate(-90)scale(0.1 -0.1)">
     <use xlink:href="#DejaVuSans-68"/>
     <use x="77.001953" xlink:href="#DejaVuSans-105"/>
     <use x="104.785156" xlink:href="#DejaVuSans-100"/>
     <use x="168.261719" xlink:href="#DejaVuSans-32"/>
     <use x="200.048828" xlink:href="#DejaVuSans-110"/>
     <use x="263.427734" xlink:href="#DejaVuSans-111"/>
     <use x="324.609375" xlink:href="#DejaVuSans-116"/>
     <use x="363.818359" xlink:href="#DejaVuSans-32"/>
     <use x="395.605469" xlink:href="#DejaVuSans-99"/>
     <use x="450.585938" xlink:href="#DejaVuSans-111"/>
     <use x="511.767578" xlink:href="#DejaVuSans-110"/>
     <use x="575.146484" xlink:href="#DejaVuSans-118"/>
     <use x="634.326172" xlink:href="#DejaVuSans-101"/>
     <use x="695.849609" xlink:href="#DejaVuSans-114"/>
     <use x="735.212891" xlink:href="#DejaVuSans-103"/>
     <use x="798.689453" xlink:href="#DejaVuSans-101"/>
    </g>
   </g>
   <g id="text_23">
    <!-- Did not converge -->
    <g transform="translate(366.522012 103.187332)rotate(-90)scale(0.1 -0.1)">
     <use xlink:href="#DejaVuSans-68"/>
     <use x="77.001953" xlink:href="#DejaVuSans-105"/>
     <use x="104.785156" xlink:href="#DejaVuSans-100"/>
     <use x="168.261719" xlink:href="#DejaVuSans-32"/>
     <use x="200.048828" xlink:href="#DejaVuSans-110"/>
     <use x="263.427734" xlink:href="#DejaVuSans-111"/>
     <use x="324.609375" xlink:href="#DejaVuSans-116"/>
     <use x="363.818359" xlink:href="#DejaVuSans-32"/>
     <use x="395.605469" xlink:href="#DejaVuSans-99"/>
     <use x="450.585938" xlink:href="#DejaVuSans-111"/>
     <use x="511.767578" xlink:href="#DejaVuSans-110"/>
     <use x="575.146484" xlink:href="#DejaVuSans-118"/>
     <use x="634.326172" xlink:href="#DejaVuSans-101"/>
     <use x="695.849609" xlink:href="#DejaVuSans-114"/>
     <use x="735.212891" xlink:href="#DejaVuSans-103"/>
     <use x="798.689453" xlink:href="#DejaVuSans-101"/>
    </g>
   </g>
   <g id="text_24">
    <!-- Did not converge -->
    <g transform="translate(415.800505 103.187332)rotate(-90)scale(0.1 -0.1)">
     <use xlink:href="#DejaVuSans-68"/>
     <use x="77.001953" xlink:href="#DejaVuSans-105"/>
     <use x="104.785156" xlink:href="#DejaVuSans-100"/>
     <use x="168.261719" xlink:href="#DejaVuSans-32"/>
     <use x="200.048828" xlink:href="#DejaVuSans-110"/>
     <use x="263.427734" xlink:href="#DejaVuSans-111"/>
     <use x="324.609375" xlink:href="#DejaVuSans-116"/>
     <use x="363.818359" xlink:href="#DejaVuSans-32"/>
     <use x="395.605469" xlink:href="#DejaVuSans-99"/>
     <use x="450.585938" xlink:href="#DejaVuSans-111"/>
     <use x="511.767578" xlink:href="#DejaVuSans-110"/>
     <use x="575.146484" xlink:href="#DejaVuSans-118"/>
     <use x="634.326172" xlink:href="#DejaVuSans-101"/>
     <use x="695.849609" xlink:href="#DejaVuSans-114"/>
     <use x="735.212891" xlink:href="#DejaVuSans-103"/>
     <use x="798.689453" xlink:href="#DejaVuSans-101"/>
    </g>
   </g>
   <g id="text_25">
    <!-- Lasso Regression[reg=0.1] -->
    <g transform="translate(172.137277 22.418625)scale(0.12 -0.12)">
     <defs>
      <path d="M 10.6875 12.40625 
L 21 12.40625 
L 21 0 
L 10.6875 0 
z
" id="DejaVuSans-46"/>
     </defs>
     <use xlink:href="#DejaVuSans-76"/>
     <use x="55.712891" xlink:href="#DejaVuSans-97"/>
     <use x="116.992188" xlink:href="#DejaVuSans-115"/>
     <use x="169.091797" xlink:href="#DejaVuSans-115"/>
     <use x="221.191406" xlink:href="#DejaVuSans-111"/>
     <use x="282.373047" xlink:href="#DejaVuSans-32"/>
     <use x="314.160156" xlink:href="#DejaVuSans-82"/>
     <use x="379.142578" xlink:href="#DejaVuSans-101"/>
     <use x="440.666016" xlink:href="#DejaVuSans-103"/>
     <use x="504.142578" xlink:href="#DejaVuSans-114"/>
     <use x="543.005859" xlink:href="#DejaVuSans-101"/>
     <use x="604.529297" xlink:href="#DejaVuSans-115"/>
     <use x="656.628906" xlink:href="#DejaVuSans-115"/>
     <use x="708.728516" xlink:href="#DejaVuSans-105"/>
     <use x="736.511719" xlink:href="#DejaVuSans-111"/>
     <use x="797.693359" xlink:href="#DejaVuSans-110"/>
     <use x="861.072266" xlink:href="#DejaVuSans-91"/>
     <use x="900.085938" xlink:href="#DejaVuSans-114"/>
     <use x="938.949219" xlink:href="#DejaVuSans-101"/>
     <use x="1000.472656" xlink:href="#DejaVuSans-103"/>
     <use x="1063.949219" xlink:href="#DejaVuSans-61"/>
     <use x="1147.738281" xlink:href="#DejaVuSans-48"/>
     <use x="1211.361328" xlink:href="#DejaVuSans-46"/>
     <use x="1243.148438" xlink:href="#DejaVuSans-49"/>
     <use x="1306.771484" xlink:href="#DejaVuSans-93"/>
    </g>
    <!-- Data: Simulated[n_samples=100,n_features=10000,rho=0] -->
    <g transform="translate(73.210402 35.856)scale(0.12 -0.12)">
     <defs>
      <path d="M 11.71875 12.40625 
L 22.015625 12.40625 
L 22.015625 0 
L 11.71875 0 
z
M 11.71875 51.703125 
L 22.015625 51.703125 
L 22.015625 39.3125 
L 11.71875 39.3125 
z
" id="DejaVuSans-58"/>
      <path d="M 11.71875 12.40625 
L 22.015625 12.40625 
L 22.015625 4 
L 14.015625 -11.625 
L 7.71875 -11.625 
L 11.71875 4 
z
" id="DejaVuSans-44"/>
      <path d="M 37.109375 75.984375 
L 37.109375 68.5 
L 28.515625 68.5 
Q 23.6875 68.5 21.796875 66.546875 
Q 19.921875 64.59375 19.921875 59.515625 
L 19.921875 54.6875 
L 34.71875 54.6875 
L 34.71875 47.703125 
L 19.921875 47.703125 
L 19.921875 0 
L 10.890625 0 
L 10.890625 47.703125 
L 2.296875 47.703125 
L 2.296875 54.6875 
L 10.890625 54.6875 
L 10.890625 58.5 
Q 10.890625 67.625 15.140625 71.796875 
Q 19.390625 75.984375 28.609375 75.984375 
z
" id="DejaVuSans-102"/>
     </defs>
     <use xlink:href="#DejaVuSans-68"/>
     <use x="77.001953" xlink:href="#DejaVuSans-97"/>
     <use x="138.28125" xlink:href="#DejaVuSans-116"/>
     <use x="177.490234" xlink:href="#DejaVuSans-97"/>
     <use x="238.769531" xlink:href="#DejaVuSans-58"/>
     <use x="272.460938" xlink:href="#DejaVuSans-32"/>
     <use x="304.248047" xlink:href="#DejaVuSans-83"/>
     <use x="367.724609" xlink:href="#DejaVuSans-105"/>
     <use x="395.507812" xlink:href="#DejaVuSans-109"/>
     <use x="492.919922" xlink:href="#DejaVuSans-117"/>
     <use x="556.298828" xlink:href="#DejaVuSans-108"/>
     <use x="584.082031" xlink:href="#DejaVuSans-97"/>
     <use x="645.361328" xlink:href="#DejaVuSans-116"/>
     <use x="684.570312" xlink:href="#DejaVuSans-101"/>
     <use x="746.09375" xlink:href="#DejaVuSans-100"/>
     <use x="809.570312" xlink:href="#DejaVuSans-91"/>
     <use x="848.583984" xlink:href="#DejaVuSans-110"/>
     <use x="911.962891" xlink:href="#DejaVuSans-95"/>
     <use x="961.962891" xlink:href="#DejaVuSans-115"/>
     <use x="1014.0625" xlink:href="#DejaVuSans-97"/>
     <use x="1075.341797" xlink:href="#DejaVuSans-109"/>
     <use x="1172.753906" xlink:href="#DejaVuSans-112"/>
     <use x="1236.230469" xlink:href="#DejaVuSans-108"/>
     <use x="1264.013672" xlink:href="#DejaVuSans-101"/>
     <use x="1325.537109" xlink:href="#DejaVuSans-115"/>
     <use x="1377.636719" xlink:href="#DejaVuSans-61"/>
     <use x="1461.425781" xlink:href="#DejaVuSans-49"/>
     <use x="1525.048828" xlink:href="#DejaVuSans-48"/>
     <use x="1588.671875" xlink:href="#DejaVuSans-48"/>
     <use x="1652.294922" xlink:href="#DejaVuSans-44"/>
     <use x="1684.082031" xlink:href="#DejaVuSans-110"/>
     <use x="1747.460938" xlink:href="#DejaVuSans-95"/>
     <use x="1797.460938" xlink:href="#DejaVuSans-102"/>
     <use x="1832.666016" xlink:href="#DejaVuSans-101"/>
     <use x="1894.189453" xlink:href="#DejaVuSans-97"/>
     <use x="1955.46875" xlink:href="#DejaVuSans-116"/>
     <use x="1994.677734" xlink:href="#DejaVuSans-117"/>
     <use x="2058.056641" xlink:href="#DejaVuSans-114"/>
     <use x="2096.919922" xlink:href="#DejaVuSans-101"/>
     <use x="2158.443359" xlink:href="#DejaVuSans-115"/>
     <use x="2210.542969" xlink:href="#DejaVuSans-61"/>
     <use x="2294.332031" xlink:href="#DejaVuSans-49"/>
     <use x="2357.955078" xlink:href="#DejaVuSans-48"/>
     <use x="2421.578125" xlink:href="#DejaVuSans-48"/>
     <use x="2485.201172" xlink:href="#DejaVuSans-48"/>
     <use x="2548.824219" xlink:href="#DejaVuSans-48"/>
     <use x="2612.447266" xlink:href="#DejaVuSans-44"/>
     <use x="2644.234375" xlink:href="#DejaVuSans-114"/>
     <use x="2683.597656" xlink:href="#DejaVuSans-104"/>
     <use x="2746.976562" xlink:href="#DejaVuSans-111"/>
     <use x="2808.158203" xlink:href="#DejaVuSans-61"/>
     <use x="2891.947266" xlink:href="#DejaVuSans-48"/>
     <use x="2955.570312" xlink:href="#DejaVuSans-93"/>
    </g>
   </g>
   <g id="PathCollection_1">
    <defs>
     <path d="M 3 0 
L -3 -0 
" id="m94e61c3b87" style="stroke:#000000;stroke-width:1.5;"/>
    </defs>
    <g clip-path="url(#pa49e70aecf)">
     <use style="stroke:#000000;stroke-width:1.5;" x="92.730924" xlink:href="#m94e61c3b87" y="138.489163"/>
     <use style="stroke:#000000;stroke-width:1.5;" x="92.730924" xlink:href="#m94e61c3b87" y="139.701855"/>
     <use style="stroke:#000000;stroke-width:1.5;" x="92.730924" xlink:href="#m94e61c3b87" y="139.473232"/>
     <use style="stroke:#000000;stroke-width:1.5;" x="92.730924" xlink:href="#m94e61c3b87" y="138.0452"/>
     <use style="stroke:#000000;stroke-width:1.5;" x="92.730924" xlink:href="#m94e61c3b87" y="138.829911"/>
    </g>
   </g>
   <g id="PathCollection_2">
    <g clip-path="url(#pa49e70aecf)">
     <use style="stroke:#000000;stroke-width:1.5;" x="117.37017" xlink:href="#m94e61c3b87" y="104.51948"/>
     <use style="stroke:#000000;stroke-width:1.5;" x="117.37017" xlink:href="#m94e61c3b87" y="105.065243"/>
     <use style="stroke:#000000;stroke-width:1.5;" x="117.37017" xlink:href="#m94e61c3b87" y="105.040246"/>
     <use style="stroke:#000000;stroke-width:1.5;" x="117.37017" xlink:href="#m94e61c3b87" y="106.419126"/>
     <use style="stroke:#000000;stroke-width:1.5;" x="117.37017" xlink:href="#m94e61c3b87" y="106.936981"/>
    </g>
   </g>
   <g id="PathCollection_3">
    <g clip-path="url(#pa49e70aecf)">
     <use style="stroke:#000000;stroke-width:1.5;" x="142.009417" xlink:href="#m94e61c3b87" y="154.905122"/>
     <use style="stroke:#000000;stroke-width:1.5;" x="142.009417" xlink:href="#m94e61c3b87" y="156.019118"/>
     <use style="stroke:#000000;stroke-width:1.5;" x="142.009417" xlink:href="#m94e61c3b87" y="156.680435"/>
     <use style="stroke:#000000;stroke-width:1.5;" x="142.009417" xlink:href="#m94e61c3b87" y="155.709477"/>
     <use style="stroke:#000000;stroke-width:1.5;" x="142.009417" xlink:href="#m94e61c3b87" y="153.980047"/>
    </g>
   </g>
   <g id="PathCollection_4">
    <g clip-path="url(#pa49e70aecf)">
     <use style="stroke:#000000;stroke-width:1.5;" x="191.28791" xlink:href="#m94e61c3b87" y="85.024939"/>
     <use style="stroke:#000000;stroke-width:1.5;" x="191.28791" xlink:href="#m94e61c3b87" y="90.985072"/>
     <use style="stroke:#000000;stroke-width:1.5;" x="191.28791" xlink:href="#m94e61c3b87" y="89.933112"/>
     <use style="stroke:#000000;stroke-width:1.5;" x="191.28791" xlink:href="#m94e61c3b87" y="92.556657"/>
     <use style="stroke:#000000;stroke-width:1.5;" x="191.28791" xlink:href="#m94e61c3b87" y="88.028221"/>
    </g>
   </g>
   <g id="PathCollection_5">
    <g clip-path="url(#pa49e70aecf)">
     <use style="stroke:#000000;stroke-width:1.5;" x="215.927157" xlink:href="#m94e61c3b87" y="113.95053"/>
     <use style="stroke:#000000;stroke-width:1.5;" x="215.927157" xlink:href="#m94e61c3b87" y="114.477592"/>
     <use style="stroke:#000000;stroke-width:1.5;" x="215.927157" xlink:href="#m94e61c3b87" y="113.184151"/>
     <use style="stroke:#000000;stroke-width:1.5;" x="215.927157" xlink:href="#m94e61c3b87" y="114.313779"/>
     <use style="stroke:#000000;stroke-width:1.5;" x="215.927157" xlink:href="#m94e61c3b87" y="109.9492"/>
    </g>
   </g>
   <g id="PathCollection_6">
    <g clip-path="url(#pa49e70aecf)">
     <use style="stroke:#000000;stroke-width:1.5;" x="265.20565" xlink:href="#m94e61c3b87" y="70.980488"/>
     <use style="stroke:#000000;stroke-width:1.5;" x="265.20565" xlink:href="#m94e61c3b87" y="72.746311"/>
     <use style="stroke:#000000;stroke-width:1.5;" x="265.20565" xlink:href="#m94e61c3b87" y="68.531052"/>
     <use style="stroke:#000000;stroke-width:1.5;" x="265.20565" xlink:href="#m94e61c3b87" y="71.595086"/>
     <use style="stroke:#000000;stroke-width:1.5;" x="265.20565" xlink:href="#m94e61c3b87" y="67.280878"/>
    </g>
   </g>
   <g id="PathCollection_7">
    <g clip-path="url(#pa49e70aecf)">
     <use style="stroke:#000000;stroke-width:1.5;" x="339.12339" xlink:href="#m94e61c3b87" y="58.719983"/>
     <use style="stroke:#000000;stroke-width:1.5;" x="339.12339" xlink:href="#m94e61c3b87" y="58.294654"/>
    </g>
   </g>
   <g id="PathCollection_8">
    <g clip-path="url(#pa49e70aecf)">
     <use style="stroke:#000000;stroke-width:1.5;" x="388.401883" xlink:href="#m94e61c3b87" y="106.95386"/>
     <use style="stroke:#000000;stroke-width:1.5;" x="388.401883" xlink:href="#m94e61c3b87" y="106.732271"/>
     <use style="stroke:#000000;stroke-width:1.5;" x="388.401883" xlink:href="#m94e61c3b87" y="108.241478"/>
     <use style="stroke:#000000;stroke-width:1.5;" x="388.401883" xlink:href="#m94e61c3b87" y="108.624937"/>
     <use style="stroke:#000000;stroke-width:1.5;" x="388.401883" xlink:href="#m94e61c3b87" y="108.67858"/>
    </g>
   </g>
  </g>
 </g>
 <defs>
  <clipPath id="pa49e70aecf">
   <rect height="120.292265" width="394.227946" x="55.772054" y="41.856"/>
  </clipPath>
 </defs>
</svg>
