<?xml version="1.0" encoding="utf-8" standalone="no"?>
<!DOCTYPE svg PUBLIC "-//W3C//DTD SVG 1.1//EN"
  "http://www.w3.org/Graphics/SVG/1.1/DTD/svg11.dtd">
<!-- Created with matplotlib (https://matplotlib.org/) -->
<svg height="345.6pt" version="1.1" viewBox="0 0 460.8 345.6" width="460.8pt" xmlns="http://www.w3.org/2000/svg" xmlns:xlink="http://www.w3.org/1999/xlink">
 <metadata>
  <rdf:RDF xmlns:cc="http://creativecommons.org/ns#" xmlns:dc="http://purl.org/dc/elements/1.1/" xmlns:rdf="http://www.w3.org/1999/02/22-rdf-syntax-ns#">
   <cc:Work>
    <dc:type rdf:resource="http://purl.org/dc/dcmitype/StillImage"/>
    <dc:date>2020-12-15T17:35:48.618729</dc:date>
    <dc:format>image/svg+xml</dc:format>
    <dc:creator>
     <cc:Agent>
      <dc:title>Matplotlib v3.3.3, https://matplotlib.org/</dc:title>
     </cc:Agent>
    </dc:creator>
   </cc:Work>
  </rdf:RDF>
 </metadata>
 <defs>
  <style type="text/css">*{stroke-linecap:butt;stroke-linejoin:round;}</style>
 </defs>
 <g id="figure_1">
  <g id="patch_1">
   <path d="M 0 345.6 
L 460.8 345.6 
L 460.8 0 
L 0 0 
z
" style="fill:#ffffff;"/>
  </g>
  <g id="axes_1">
   <g id="patch_2">
    <path d="M 61.010346 296.728 
L 450 296.728 
L 450 43.44 
L 61.010346 43.44 
z
" style="fill:#ffffff;"/>
   </g>
   <g id="PolyCollection_1">
    <defs>
     <path d="M 101.107945 -290.646909 
L 90.042904 -290.646909 
L 104.896801 -283.627087 
L 110.352337 -272.537135 
L 119.13689 -265.304987 
L 125.091121 -245.693913 
L 156.7832 -179.330481 
L 162.097449 -138.387202 
L 180.799229 -63.69481 
L 179.35965 -60.639877 
L 179.947034 -60.639877 
L 175.633388 -60.639877 
L 171.542543 -60.639877 
L 176.894573 -60.639877 
L 181.01371 -60.639877 
L 181.01371 -60.639877 
L 175.880404 -60.639877 
L 181.353698 -60.639877 
L 187.44874 -60.639877 
L 180.164102 -60.639877 
L 184.242866 -63.69481 
L 167.891334 -138.387202 
L 163.591792 -179.330481 
L 130.395006 -245.693913 
L 122.966464 -265.304987 
L 115.625262 -272.537135 
L 126.120922 -283.627087 
L 101.107945 -290.646909 
z
" id="m391f83cb99" style="stroke:#1f77b4;stroke-opacity:0.3;"/>
    </defs>
    <g clip-path="url(#pf2bffd8da0)">
     <use style="fill:#1f77b4;fill-opacity:0.3;stroke:#1f77b4;stroke-opacity:0.3;" x="0" xlink:href="#m391f83cb99" y="345.6"/>
    </g>
   </g>
   <g id="PolyCollection_2">
    <defs>
     <path d="M 201.227143 -284.588505 
L 152.052047 -284.588505 
L 131.270687 -283.480886 
L 134.46303 -281.486314 
L 140.488771 -280.019391 
L 144.762486 -277.333152 
L 149.67927 -273.892155 
L 158.640879 -270.394162 
L 167.711992 -266.128995 
L 177.268213 -260.090098 
L 190.875801 -254.070344 
L 198.473743 -246.56724 
L 214.9986 -236.373022 
L 222.863046 -225.368259 
L 236.162746 -211.193915 
L 249.418811 -191.930767 
L 262.322788 -158.946989 
L 278.931076 -129.016409 
L 292.781989 -74.206754 
L 305.844366 -60.413906 
L 306.049757 -60.413906 
L 306.355322 -60.413906 
L 306.136349 -60.413906 
L 306.039723 -60.413906 
L 306.334528 -60.413906 
L 306.833804 -60.413906 
L 306.833804 -60.413906 
L 306.440124 -60.413906 
L 306.145866 -60.413906 
L 306.49174 -60.413906 
L 306.702645 -60.413906 
L 306.686038 -60.413906 
L 293.294622 -74.206754 
L 279.223517 -129.016409 
L 263.022101 -158.946989 
L 250.166868 -191.930767 
L 245.638111 -211.193915 
L 223.347025 -225.368259 
L 227.188714 -236.373022 
L 199.141949 -246.56724 
L 213.786263 -254.070344 
L 178.822449 -260.090098 
L 169.746641 -266.128995 
L 158.716063 -270.394162 
L 154.273201 -273.892155 
L 149.644752 -277.333152 
L 147.388465 -280.019391 
L 137.711425 -281.486314 
L 134.867548 -283.480886 
L 201.227143 -284.588505 
z
" id="mdcbe213947" style="stroke:#ff7f0e;stroke-opacity:0.3;"/>
    </defs>
    <g clip-path="url(#pf2bffd8da0)">
     <use style="fill:#ff7f0e;fill-opacity:0.3;stroke:#ff7f0e;stroke-opacity:0.3;" x="0" xlink:href="#mdcbe213947" y="345.6"/>
    </g>
   </g>
   <g id="PolyCollection_3">
    <defs>
     <path d="M 181.760764 -285.884885 
L 180.598556 -285.884885 
L 182.863583 -283.42899 
L 185.194905 -282.16599 
L 183.623084 -281.223614 
L 176.013206 -279.769831 
L 182.677899 -278.134183 
L 180.704412 -276.457391 
L 187.967843 -274.578627 
L 185.360313 -272.467612 
L 193.556682 -270.190634 
L 190.538652 -267.780627 
L 193.351346 -265.124399 
L 192.716146 -262.104087 
L 207.130129 -258.656895 
L 215.475341 -255.457898 
L 227.032734 -252.208969 
L 237.198193 -248.966049 
L 254.915402 -244.951123 
L 266.646272 -239.409375 
L 282.965442 -232.692209 
L 297.52419 -222.868513 
L 317.706103 -212.060441 
L 331.818823 -200.773717 
L 346.754966 -187.167228 
L 359.963328 -163.48445 
L 372.110944 -151.669 
L 388.079127 -139.376275 
L 402.631513 -121.094315 
L 418.035046 -93.862398 
L 418.035046 -93.862398 
L 418.035046 -93.862398 
L 406.043956 -121.094315 
L 388.81385 -139.376275 
L 373.206176 -151.669 
L 362.795104 -163.48445 
L 347.362548 -187.167228 
L 333.119039 -200.773717 
L 322.643485 -212.060441 
L 304.280679 -222.868513 
L 288.97879 -232.692209 
L 269.826414 -239.409375 
L 256.571431 -244.951123 
L 241.325935 -248.966049 
L 228.242252 -252.208969 
L 216.225994 -255.457898 
L 210.506473 -258.656895 
L 195.880756 -262.104087 
L 194.0533 -265.124399 
L 191.092468 -267.780627 
L 194.028827 -270.190634 
L 185.725088 -272.467612 
L 191.51791 -274.578627 
L 183.002367 -276.457391 
L 184.786461 -278.134183 
L 183.808986 -279.769831 
L 184.170083 -281.223614 
L 187.27243 -282.16599 
L 182.901756 -283.42899 
L 181.760764 -285.884885 
z
" id="m8076c63407" style="stroke:#2ca02c;stroke-opacity:0.3;"/>
    </defs>
    <g clip-path="url(#pf2bffd8da0)">
     <use style="fill:#2ca02c;fill-opacity:0.3;stroke:#2ca02c;stroke-opacity:0.3;" x="0" xlink:href="#m8076c63407" y="345.6"/>
    </g>
   </g>
   <g id="PolyCollection_4">
    <defs>
     <path d="M 187.504463 -285.884885 
L 184.999119 -285.884885 
L 181.49904 -283.42899 
L 183.950541 -281.864407 
L 183.867929 -280.552568 
L 181.862961 -278.245018 
L 180.028865 -275.25686 
L 172.88142 -271.947131 
L 177.309442 -268.135873 
L 177.35315 -263.384518 
L 178.747641 -257.266522 
L 181.092923 -251.179472 
L 185.916784 -243.771361 
L 193.46154 -232.260058 
L 201.976728 -215.985732 
L 210.022616 -198.822755 
L 229.534196 -186.945811 
L 248.593682 -175.233623 
L 256.878208 -162.132086 
L 271.016456 -146.026812 
L 285.656712 -133.448147 
L 300.113214 -116.008816 
L 309.146932 -100.882288 
L 324.757038 -85.777531 
L 347.507163 -74.433206 
L 362.893439 -64.16869 
L 381.304968 -60.788574 
L 393.322542 -60.397475 
L 411.885168 -60.39011 
L 432.318652 -60.385092 
L 432.318652 -60.385092 
L 432.318652 -60.385092 
L 412.904271 -60.39011 
L 393.906092 -60.397475 
L 382.697026 -60.788574 
L 364.520648 -64.16869 
L 349.775648 -74.433206 
L 330.400607 -85.777531 
L 310.668682 -100.882288 
L 300.99878 -116.008816 
L 286.542012 -133.448147 
L 271.888267 -146.026812 
L 259.296117 -162.132086 
L 248.722692 -175.233623 
L 233.430346 -186.945811 
L 218.120425 -198.822755 
L 205.917644 -215.985732 
L 195.304624 -232.260058 
L 188.33521 -243.771361 
L 183.081397 -251.179472 
L 179.17718 -257.266522 
L 179.599846 -263.384518 
L 177.669733 -268.135873 
L 174.566885 -271.947131 
L 181.936221 -275.25686 
L 190.445612 -278.245018 
L 184.490696 -280.552568 
L 184.954544 -281.864407 
L 183.00369 -283.42899 
L 187.504463 -285.884885 
z
" id="m6b06025b30" style="stroke:#d62728;stroke-opacity:0.3;"/>
    </defs>
    <g clip-path="url(#pf2bffd8da0)">
     <use style="fill:#d62728;fill-opacity:0.3;stroke:#d62728;stroke-opacity:0.3;" x="0" xlink:href="#m6b06025b30" y="345.6"/>
    </g>
   </g>
   <g id="PolyCollection_5">
    <defs>
     <path d="M 99.342926 -288.960733 
L 78.691694 -288.960733 
L 99.346075 -283.520686 
L 101.081315 -279.338721 
L 112.885339 -275.746877 
L 107.399976 -270.282529 
L 114.705753 -264.332683 
L 120.359717 -257.997168 
L 124.645603 -251.104565 
L 140.778841 -241.596976 
L 146.69024 -230.379943 
L 163.323375 -217.301171 
L 176.906765 -194.161142 
L 188.069622 -172.174657 
L 201.915332 -161.836847 
L 213.540738 -149.225638 
L 226.807342 -131.042952 
L 241.353701 -103.807164 
L 252.301424 -67.78691 
L 265.025421 -60.396065 
L 277.803191 -60.385092 
L 291.823502 -60.385405 
L 307.060772 -60.385405 
L 329.230845 -60.385092 
L 352.128645 -60.385405 
L 352.263764 -60.385405 
L 352.263764 -60.385405 
L 330.350712 -60.385092 
L 307.562554 -60.385405 
L 292.709733 -60.385405 
L 277.845374 -60.385092 
L 266.677083 -60.396065 
L 252.720967 -67.78691 
L 241.642995 -103.807164 
L 227.278067 -131.042952 
L 213.845169 -149.225638 
L 202.999946 -161.836847 
L 188.344231 -172.174657 
L 177.243473 -194.161142 
L 164.490684 -217.301171 
L 150.89456 -230.379943 
L 144.532426 -241.596976 
L 128.919381 -251.104565 
L 134.385701 -257.997168 
L 117.330585 -264.332683 
L 111.71853 -270.282529 
L 116.579906 -275.746877 
L 108.758109 -279.338721 
L 120.795196 -283.520686 
L 99.342926 -288.960733 
z
" id="m24e382b4cc" style="stroke:#9467bd;stroke-opacity:0.3;"/>
    </defs>
    <g clip-path="url(#pf2bffd8da0)">
     <use style="fill:#9467bd;fill-opacity:0.3;stroke:#9467bd;stroke-opacity:0.3;" x="0" xlink:href="#m24e382b4cc" y="345.6"/>
    </g>
   </g>
   <g id="matplotlib.axis_1">
    <g id="xtick_1">
     <g id="line2d_1">
      <defs>
       <path d="M 0 0 
L 0 3.5 
" id="m74e17d4bfc" style="stroke:#000000;stroke-width:0.8;"/>
      </defs>
      <g>
       <use style="stroke:#000000;stroke-width:0.8;" x="119.943454" xlink:href="#m74e17d4bfc" y="296.728"/>
      </g>
     </g>
     <g id="text_1">
      <!-- $\mathdefault{10^{-2}}$ -->
      <g transform="translate(108.193454 311.326437)scale(0.1 -0.1)">
       <defs>
        <path d="M 12.40625 8.296875 
L 28.515625 8.296875 
L 28.515625 63.921875 
L 10.984375 60.40625 
L 10.984375 69.390625 
L 28.421875 72.90625 
L 38.28125 72.90625 
L 38.28125 8.296875 
L 54.390625 8.296875 
L 54.390625 0 
L 12.40625 0 
z
" id="DejaVuSans-49"/>
        <path d="M 31.78125 66.40625 
Q 24.171875 66.40625 20.328125 58.90625 
Q 16.5 51.421875 16.5 36.375 
Q 16.5 21.390625 20.328125 13.890625 
Q 24.171875 6.390625 31.78125 6.390625 
Q 39.453125 6.390625 43.28125 13.890625 
Q 47.125 21.390625 47.125 36.375 
Q 47.125 51.421875 43.28125 58.90625 
Q 39.453125 66.40625 31.78125 66.40625 
z
M 31.78125 74.21875 
Q 44.046875 74.21875 50.515625 64.515625 
Q 56.984375 54.828125 56.984375 36.375 
Q 56.984375 17.96875 50.515625 8.265625 
Q 44.046875 -1.421875 31.78125 -1.421875 
Q 19.53125 -1.421875 13.0625 8.265625 
Q 6.59375 17.96875 6.59375 36.375 
Q 6.59375 54.828125 13.0625 64.515625 
Q 19.53125 74.21875 31.78125 74.21875 
z
" id="DejaVuSans-48"/>
        <path d="M 10.59375 35.5 
L 73.1875 35.5 
L 73.1875 27.203125 
L 10.59375 27.203125 
z
" id="DejaVuSans-8722"/>
        <path d="M 19.1875 8.296875 
L 53.609375 8.296875 
L 53.609375 0 
L 7.328125 0 
L 7.328125 8.296875 
Q 12.9375 14.109375 22.625 23.890625 
Q 32.328125 33.6875 34.8125 36.53125 
Q 39.546875 41.84375 41.421875 45.53125 
Q 43.3125 49.21875 43.3125 52.78125 
Q 43.3125 58.59375 39.234375 62.25 
Q 35.15625 65.921875 28.609375 65.921875 
Q 23.96875 65.921875 18.8125 64.3125 
Q 13.671875 62.703125 7.8125 59.421875 
L 7.8125 69.390625 
Q 13.765625 71.78125 18.9375 73 
Q 24.125 74.21875 28.421875 74.21875 
Q 39.75 74.21875 46.484375 68.546875 
Q 53.21875 62.890625 53.21875 53.421875 
Q 53.21875 48.921875 51.53125 44.890625 
Q 49.859375 40.875 45.40625 35.40625 
Q 44.1875 33.984375 37.640625 27.21875 
Q 31.109375 20.453125 19.1875 8.296875 
z
" id="DejaVuSans-50"/>
       </defs>
       <use transform="translate(0 0.765625)" xlink:href="#DejaVuSans-49"/>
       <use transform="translate(63.623047 0.765625)" xlink:href="#DejaVuSans-48"/>
       <use transform="translate(128.203125 39.046875)scale(0.7)" xlink:href="#DejaVuSans-8722"/>
       <use transform="translate(186.855469 39.046875)scale(0.7)" xlink:href="#DejaVuSans-50"/>
      </g>
     </g>
    </g>
    <g id="xtick_2">
     <g id="line2d_2">
      <g>
       <use style="stroke:#000000;stroke-width:0.8;" x="211.531289" xlink:href="#m74e17d4bfc" y="296.728"/>
      </g>
     </g>
     <g id="text_2">
      <!-- $\mathdefault{10^{-1}}$ -->
      <g transform="translate(199.781289 311.326437)scale(0.1 -0.1)">
       <use transform="translate(0 0.684375)" xlink:href="#DejaVuSans-49"/>
       <use transform="translate(63.623047 0.684375)" xlink:href="#DejaVuSans-48"/>
       <use transform="translate(128.203125 38.965625)scale(0.7)" xlink:href="#DejaVuSans-8722"/>
       <use transform="translate(186.855469 38.965625)scale(0.7)" xlink:href="#DejaVuSans-49"/>
      </g>
     </g>
    </g>
    <g id="xtick_3">
     <g id="line2d_3">
      <g>
       <use style="stroke:#000000;stroke-width:0.8;" x="303.119123" xlink:href="#m74e17d4bfc" y="296.728"/>
      </g>
     </g>
     <g id="text_3">
      <!-- $\mathdefault{10^{0}}$ -->
      <g transform="translate(294.319123 311.326437)scale(0.1 -0.1)">
       <use transform="translate(0 0.765625)" xlink:href="#DejaVuSans-49"/>
       <use transform="translate(63.623047 0.765625)" xlink:href="#DejaVuSans-48"/>
       <use transform="translate(128.203125 39.046875)scale(0.7)" xlink:href="#DejaVuSans-48"/>
      </g>
     </g>
    </g>
    <g id="xtick_4">
     <g id="line2d_4">
      <g>
       <use style="stroke:#000000;stroke-width:0.8;" x="394.706958" xlink:href="#m74e17d4bfc" y="296.728"/>
      </g>
     </g>
     <g id="text_4">
      <!-- $\mathdefault{10^{1}}$ -->
      <g transform="translate(385.906958 311.326437)scale(0.1 -0.1)">
       <use transform="translate(0 0.684375)" xlink:href="#DejaVuSans-49"/>
       <use transform="translate(63.623047 0.684375)" xlink:href="#DejaVuSans-48"/>
       <use transform="translate(128.203125 38.965625)scale(0.7)" xlink:href="#DejaVuSans-49"/>
      </g>
     </g>
    </g>
    <g id="xtick_5">
     <g id="line2d_5">
      <defs>
       <path d="M 0 0 
L 0 2 
" id="m051fdba384" style="stroke:#000000;stroke-width:0.6;"/>
      </defs>
      <g>
       <use style="stroke:#000000;stroke-width:0.6;" x="72.054122" xlink:href="#m051fdba384" y="296.728"/>
      </g>
     </g>
    </g>
    <g id="xtick_6">
     <g id="line2d_6">
      <g>
       <use style="stroke:#000000;stroke-width:0.6;" x="83.496991" xlink:href="#m051fdba384" y="296.728"/>
      </g>
     </g>
    </g>
    <g id="xtick_7">
     <g id="line2d_7">
      <g>
       <use style="stroke:#000000;stroke-width:0.6;" x="92.372769" xlink:href="#m051fdba384" y="296.728"/>
      </g>
     </g>
    </g>
    <g id="xtick_8">
     <g id="line2d_8">
      <g>
       <use style="stroke:#000000;stroke-width:0.6;" x="99.624808" xlink:href="#m051fdba384" y="296.728"/>
      </g>
     </g>
    </g>
    <g id="xtick_9">
     <g id="line2d_9">
      <g>
       <use style="stroke:#000000;stroke-width:0.6;" x="105.756319" xlink:href="#m051fdba384" y="296.728"/>
      </g>
     </g>
    </g>
    <g id="xtick_10">
     <g id="line2d_10">
      <g>
       <use style="stroke:#000000;stroke-width:0.6;" x="111.067676" xlink:href="#m051fdba384" y="296.728"/>
      </g>
     </g>
    </g>
    <g id="xtick_11">
     <g id="line2d_11">
      <g>
       <use style="stroke:#000000;stroke-width:0.6;" x="115.752625" xlink:href="#m051fdba384" y="296.728"/>
      </g>
     </g>
    </g>
    <g id="xtick_12">
     <g id="line2d_12">
      <g>
       <use style="stroke:#000000;stroke-width:0.6;" x="147.51414" xlink:href="#m051fdba384" y="296.728"/>
      </g>
     </g>
    </g>
    <g id="xtick_13">
     <g id="line2d_13">
      <g>
       <use style="stroke:#000000;stroke-width:0.6;" x="163.641957" xlink:href="#m051fdba384" y="296.728"/>
      </g>
     </g>
    </g>
    <g id="xtick_14">
     <g id="line2d_14">
      <g>
       <use style="stroke:#000000;stroke-width:0.6;" x="175.084825" xlink:href="#m051fdba384" y="296.728"/>
      </g>
     </g>
    </g>
    <g id="xtick_15">
     <g id="line2d_15">
      <g>
       <use style="stroke:#000000;stroke-width:0.6;" x="183.960603" xlink:href="#m051fdba384" y="296.728"/>
      </g>
     </g>
    </g>
    <g id="xtick_16">
     <g id="line2d_16">
      <g>
       <use style="stroke:#000000;stroke-width:0.6;" x="191.212642" xlink:href="#m051fdba384" y="296.728"/>
      </g>
     </g>
    </g>
    <g id="xtick_17">
     <g id="line2d_17">
      <g>
       <use style="stroke:#000000;stroke-width:0.6;" x="197.344154" xlink:href="#m051fdba384" y="296.728"/>
      </g>
     </g>
    </g>
    <g id="xtick_18">
     <g id="line2d_18">
      <g>
       <use style="stroke:#000000;stroke-width:0.6;" x="202.655511" xlink:href="#m051fdba384" y="296.728"/>
      </g>
     </g>
    </g>
    <g id="xtick_19">
     <g id="line2d_19">
      <g>
       <use style="stroke:#000000;stroke-width:0.6;" x="207.340459" xlink:href="#m051fdba384" y="296.728"/>
      </g>
     </g>
    </g>
    <g id="xtick_20">
     <g id="line2d_20">
      <g>
       <use style="stroke:#000000;stroke-width:0.6;" x="239.101974" xlink:href="#m051fdba384" y="296.728"/>
      </g>
     </g>
    </g>
    <g id="xtick_21">
     <g id="line2d_21">
      <g>
       <use style="stroke:#000000;stroke-width:0.6;" x="255.229791" xlink:href="#m051fdba384" y="296.728"/>
      </g>
     </g>
    </g>
    <g id="xtick_22">
     <g id="line2d_22">
      <g>
       <use style="stroke:#000000;stroke-width:0.6;" x="266.67266" xlink:href="#m051fdba384" y="296.728"/>
      </g>
     </g>
    </g>
    <g id="xtick_23">
     <g id="line2d_23">
      <g>
       <use style="stroke:#000000;stroke-width:0.6;" x="275.548438" xlink:href="#m051fdba384" y="296.728"/>
      </g>
     </g>
    </g>
    <g id="xtick_24">
     <g id="line2d_24">
      <g>
       <use style="stroke:#000000;stroke-width:0.6;" x="282.800477" xlink:href="#m051fdba384" y="296.728"/>
      </g>
     </g>
    </g>
    <g id="xtick_25">
     <g id="line2d_25">
      <g>
       <use style="stroke:#000000;stroke-width:0.6;" x="288.931988" xlink:href="#m051fdba384" y="296.728"/>
      </g>
     </g>
    </g>
    <g id="xtick_26">
     <g id="line2d_26">
      <g>
       <use style="stroke:#000000;stroke-width:0.6;" x="294.243345" xlink:href="#m051fdba384" y="296.728"/>
      </g>
     </g>
    </g>
    <g id="xtick_27">
     <g id="line2d_27">
      <g>
       <use style="stroke:#000000;stroke-width:0.6;" x="298.928294" xlink:href="#m051fdba384" y="296.728"/>
      </g>
     </g>
    </g>
    <g id="xtick_28">
     <g id="line2d_28">
      <g>
       <use style="stroke:#000000;stroke-width:0.6;" x="330.689809" xlink:href="#m051fdba384" y="296.728"/>
      </g>
     </g>
    </g>
    <g id="xtick_29">
     <g id="line2d_29">
      <g>
       <use style="stroke:#000000;stroke-width:0.6;" x="346.817626" xlink:href="#m051fdba384" y="296.728"/>
      </g>
     </g>
    </g>
    <g id="xtick_30">
     <g id="line2d_30">
      <g>
       <use style="stroke:#000000;stroke-width:0.6;" x="358.260494" xlink:href="#m051fdba384" y="296.728"/>
      </g>
     </g>
    </g>
    <g id="xtick_31">
     <g id="line2d_31">
      <g>
       <use style="stroke:#000000;stroke-width:0.6;" x="367.136272" xlink:href="#m051fdba384" y="296.728"/>
      </g>
     </g>
    </g>
    <g id="xtick_32">
     <g id="line2d_32">
      <g>
       <use style="stroke:#000000;stroke-width:0.6;" x="374.388311" xlink:href="#m051fdba384" y="296.728"/>
      </g>
     </g>
    </g>
    <g id="xtick_33">
     <g id="line2d_33">
      <g>
       <use style="stroke:#000000;stroke-width:0.6;" x="380.519822" xlink:href="#m051fdba384" y="296.728"/>
      </g>
     </g>
    </g>
    <g id="xtick_34">
     <g id="line2d_34">
      <g>
       <use style="stroke:#000000;stroke-width:0.6;" x="385.831179" xlink:href="#m051fdba384" y="296.728"/>
      </g>
     </g>
    </g>
    <g id="xtick_35">
     <g id="line2d_35">
      <g>
       <use style="stroke:#000000;stroke-width:0.6;" x="390.516128" xlink:href="#m051fdba384" y="296.728"/>
      </g>
     </g>
    </g>
    <g id="xtick_36">
     <g id="line2d_36">
      <g>
       <use style="stroke:#000000;stroke-width:0.6;" x="422.277643" xlink:href="#m051fdba384" y="296.728"/>
      </g>
     </g>
    </g>
    <g id="xtick_37">
     <g id="line2d_37">
      <g>
       <use style="stroke:#000000;stroke-width:0.6;" x="438.40546" xlink:href="#m051fdba384" y="296.728"/>
      </g>
     </g>
    </g>
    <g id="xtick_38">
     <g id="line2d_38">
      <g>
       <use style="stroke:#000000;stroke-width:0.6;" x="449.848328" xlink:href="#m051fdba384" y="296.728"/>
      </g>
     </g>
    </g>
    <g id="text_5">
     <!-- Time [sec] -->
     <g transform="translate(218.888611 328.043937)scale(0.14 -0.14)">
      <defs>
       <path d="M -0.296875 72.90625 
L 61.375 72.90625 
L 61.375 64.59375 
L 35.5 64.59375 
L 35.5 0 
L 25.59375 0 
L 25.59375 64.59375 
L -0.296875 64.59375 
z
" id="DejaVuSans-84"/>
       <path d="M 9.421875 54.6875 
L 18.40625 54.6875 
L 18.40625 0 
L 9.421875 0 
z
M 9.421875 75.984375 
L 18.40625 75.984375 
L 18.40625 64.59375 
L 9.421875 64.59375 
z
" id="DejaVuSans-105"/>
       <path d="M 52 44.1875 
Q 55.375 50.25 60.0625 53.125 
Q 64.75 56 71.09375 56 
Q 79.640625 56 84.28125 50.015625 
Q 88.921875 44.046875 88.921875 33.015625 
L 88.921875 0 
L 79.890625 0 
L 79.890625 32.71875 
Q 79.890625 40.578125 77.09375 44.375 
Q 74.3125 48.1875 68.609375 48.1875 
Q 61.625 48.1875 57.5625 43.546875 
Q 53.515625 38.921875 53.515625 30.90625 
L 53.515625 0 
L 44.484375 0 
L 44.484375 32.71875 
Q 44.484375 40.625 41.703125 44.40625 
Q 38.921875 48.1875 33.109375 48.1875 
Q 26.21875 48.1875 22.15625 43.53125 
Q 18.109375 38.875 18.109375 30.90625 
L 18.109375 0 
L 9.078125 0 
L 9.078125 54.6875 
L 18.109375 54.6875 
L 18.109375 46.1875 
Q 21.1875 51.21875 25.484375 53.609375 
Q 29.78125 56 35.6875 56 
Q 41.65625 56 45.828125 52.96875 
Q 50 49.953125 52 44.1875 
z
" id="DejaVuSans-109"/>
       <path d="M 56.203125 29.59375 
L 56.203125 25.203125 
L 14.890625 25.203125 
Q 15.484375 15.921875 20.484375 11.0625 
Q 25.484375 6.203125 34.421875 6.203125 
Q 39.59375 6.203125 44.453125 7.46875 
Q 49.3125 8.734375 54.109375 11.28125 
L 54.109375 2.78125 
Q 49.265625 0.734375 44.1875 -0.34375 
Q 39.109375 -1.421875 33.890625 -1.421875 
Q 20.796875 -1.421875 13.15625 6.1875 
Q 5.515625 13.8125 5.515625 26.8125 
Q 5.515625 40.234375 12.765625 48.109375 
Q 20.015625 56 32.328125 56 
Q 43.359375 56 49.78125 48.890625 
Q 56.203125 41.796875 56.203125 29.59375 
z
M 47.21875 32.234375 
Q 47.125 39.59375 43.09375 43.984375 
Q 39.0625 48.390625 32.421875 48.390625 
Q 24.90625 48.390625 20.390625 44.140625 
Q 15.875 39.890625 15.1875 32.171875 
z
" id="DejaVuSans-101"/>
       <path id="DejaVuSans-32"/>
       <path d="M 8.59375 75.984375 
L 29.296875 75.984375 
L 29.296875 69 
L 17.578125 69 
L 17.578125 -6.203125 
L 29.296875 -6.203125 
L 29.296875 -13.1875 
L 8.59375 -13.1875 
z
" id="DejaVuSans-91"/>
       <path d="M 44.28125 53.078125 
L 44.28125 44.578125 
Q 40.484375 46.53125 36.375 47.5 
Q 32.28125 48.484375 27.875 48.484375 
Q 21.1875 48.484375 17.84375 46.4375 
Q 14.5 44.390625 14.5 40.28125 
Q 14.5 37.15625 16.890625 35.375 
Q 19.28125 33.59375 26.515625 31.984375 
L 29.59375 31.296875 
Q 39.15625 29.25 43.1875 25.515625 
Q 47.21875 21.78125 47.21875 15.09375 
Q 47.21875 7.46875 41.1875 3.015625 
Q 35.15625 -1.421875 24.609375 -1.421875 
Q 20.21875 -1.421875 15.453125 -0.5625 
Q 10.6875 0.296875 5.421875 2 
L 5.421875 11.28125 
Q 10.40625 8.6875 15.234375 7.390625 
Q 20.0625 6.109375 24.8125 6.109375 
Q 31.15625 6.109375 34.5625 8.28125 
Q 37.984375 10.453125 37.984375 14.40625 
Q 37.984375 18.0625 35.515625 20.015625 
Q 33.0625 21.96875 24.703125 23.78125 
L 21.578125 24.515625 
Q 13.234375 26.265625 9.515625 29.90625 
Q 5.8125 33.546875 5.8125 39.890625 
Q 5.8125 47.609375 11.28125 51.796875 
Q 16.75 56 26.8125 56 
Q 31.78125 56 36.171875 55.265625 
Q 40.578125 54.546875 44.28125 53.078125 
z
" id="DejaVuSans-115"/>
       <path d="M 48.78125 52.59375 
L 48.78125 44.1875 
Q 44.96875 46.296875 41.140625 47.34375 
Q 37.3125 48.390625 33.40625 48.390625 
Q 24.65625 48.390625 19.8125 42.84375 
Q 14.984375 37.3125 14.984375 27.296875 
Q 14.984375 17.28125 19.8125 11.734375 
Q 24.65625 6.203125 33.40625 6.203125 
Q 37.3125 6.203125 41.140625 7.25 
Q 44.96875 8.296875 48.78125 10.40625 
L 48.78125 2.09375 
Q 45.015625 0.34375 40.984375 -0.53125 
Q 36.96875 -1.421875 32.421875 -1.421875 
Q 20.0625 -1.421875 12.78125 6.34375 
Q 5.515625 14.109375 5.515625 27.296875 
Q 5.515625 40.671875 12.859375 48.328125 
Q 20.21875 56 33.015625 56 
Q 37.15625 56 41.109375 55.140625 
Q 45.0625 54.296875 48.78125 52.59375 
z
" id="DejaVuSans-99"/>
       <path d="M 30.421875 75.984375 
L 30.421875 -13.1875 
L 9.71875 -13.1875 
L 9.71875 -6.203125 
L 21.390625 -6.203125 
L 21.390625 69 
L 9.71875 69 
L 9.71875 75.984375 
z
" id="DejaVuSans-93"/>
      </defs>
      <use xlink:href="#DejaVuSans-84"/>
      <use x="57.958984" xlink:href="#DejaVuSans-105"/>
      <use x="85.742188" xlink:href="#DejaVuSans-109"/>
      <use x="183.154297" xlink:href="#DejaVuSans-101"/>
      <use x="244.677734" xlink:href="#DejaVuSans-32"/>
      <use x="276.464844" xlink:href="#DejaVuSans-91"/>
      <use x="315.478516" xlink:href="#DejaVuSans-115"/>
      <use x="367.578125" xlink:href="#DejaVuSans-101"/>
      <use x="429.101562" xlink:href="#DejaVuSans-99"/>
      <use x="484.082031" xlink:href="#DejaVuSans-93"/>
     </g>
    </g>
   </g>
   <g id="matplotlib.axis_2">
    <g id="ytick_1">
     <g id="line2d_39">
      <defs>
       <path d="M 0 0 
L -3.5 0 
" id="m1e25cf0d88" style="stroke:#000000;stroke-width:0.8;"/>
      </defs>
      <g>
       <use style="stroke:#000000;stroke-width:0.8;" x="61.010346" xlink:href="#m1e25cf0d88" y="264.882726"/>
      </g>
     </g>
     <g id="text_6">
      <!-- $\mathdefault{10^{-9}}$ -->
      <g transform="translate(30.510346 268.681944)scale(0.1 -0.1)">
       <defs>
        <path d="M 10.984375 1.515625 
L 10.984375 10.5 
Q 14.703125 8.734375 18.5 7.8125 
Q 22.3125 6.890625 25.984375 6.890625 
Q 35.75 6.890625 40.890625 13.453125 
Q 46.046875 20.015625 46.78125 33.40625 
Q 43.953125 29.203125 39.59375 26.953125 
Q 35.25 24.703125 29.984375 24.703125 
Q 19.046875 24.703125 12.671875 31.3125 
Q 6.296875 37.9375 6.296875 49.421875 
Q 6.296875 60.640625 12.9375 67.421875 
Q 19.578125 74.21875 30.609375 74.21875 
Q 43.265625 74.21875 49.921875 64.515625 
Q 56.59375 54.828125 56.59375 36.375 
Q 56.59375 19.140625 48.40625 8.859375 
Q 40.234375 -1.421875 26.421875 -1.421875 
Q 22.703125 -1.421875 18.890625 -0.6875 
Q 15.09375 0.046875 10.984375 1.515625 
z
M 30.609375 32.421875 
Q 37.25 32.421875 41.125 36.953125 
Q 45.015625 41.5 45.015625 49.421875 
Q 45.015625 57.28125 41.125 61.84375 
Q 37.25 66.40625 30.609375 66.40625 
Q 23.96875 66.40625 20.09375 61.84375 
Q 16.21875 57.28125 16.21875 49.421875 
Q 16.21875 41.5 20.09375 36.953125 
Q 23.96875 32.421875 30.609375 32.421875 
z
" id="DejaVuSans-57"/>
       </defs>
       <use transform="translate(0 0.765625)" xlink:href="#DejaVuSans-49"/>
       <use transform="translate(63.623047 0.765625)" xlink:href="#DejaVuSans-48"/>
       <use transform="translate(128.203125 39.046875)scale(0.7)" xlink:href="#DejaVuSans-8722"/>
       <use transform="translate(186.855469 39.046875)scale(0.7)" xlink:href="#DejaVuSans-57"/>
      </g>
     </g>
    </g>
    <g id="ytick_2">
     <g id="line2d_40">
      <g>
       <use style="stroke:#000000;stroke-width:0.8;" x="61.010346" xlink:href="#m1e25cf0d88" y="224.218359"/>
      </g>
     </g>
     <g id="text_7">
      <!-- $\mathdefault{10^{-7}}$ -->
      <g transform="translate(30.510346 228.017577)scale(0.1 -0.1)">
       <defs>
        <path d="M 8.203125 72.90625 
L 55.078125 72.90625 
L 55.078125 68.703125 
L 28.609375 0 
L 18.3125 0 
L 43.21875 64.59375 
L 8.203125 64.59375 
z
" id="DejaVuSans-55"/>
       </defs>
       <use transform="translate(0 0.684375)" xlink:href="#DejaVuSans-49"/>
       <use transform="translate(63.623047 0.684375)" xlink:href="#DejaVuSans-48"/>
       <use transform="translate(128.203125 38.965625)scale(0.7)" xlink:href="#DejaVuSans-8722"/>
       <use transform="translate(186.855469 38.965625)scale(0.7)" xlink:href="#DejaVuSans-55"/>
      </g>
     </g>
    </g>
    <g id="ytick_3">
     <g id="line2d_41">
      <g>
       <use style="stroke:#000000;stroke-width:0.8;" x="61.010346" xlink:href="#m1e25cf0d88" y="183.553992"/>
      </g>
     </g>
     <g id="text_8">
      <!-- $\mathdefault{10^{-5}}$ -->
      <g transform="translate(30.510346 187.353211)scale(0.1 -0.1)">
       <defs>
        <path d="M 10.796875 72.90625 
L 49.515625 72.90625 
L 49.515625 64.59375 
L 19.828125 64.59375 
L 19.828125 46.734375 
Q 21.96875 47.46875 24.109375 47.828125 
Q 26.265625 48.1875 28.421875 48.1875 
Q 40.625 48.1875 47.75 41.5 
Q 54.890625 34.8125 54.890625 23.390625 
Q 54.890625 11.625 47.5625 5.09375 
Q 40.234375 -1.421875 26.90625 -1.421875 
Q 22.3125 -1.421875 17.546875 -0.640625 
Q 12.796875 0.140625 7.71875 1.703125 
L 7.71875 11.625 
Q 12.109375 9.234375 16.796875 8.0625 
Q 21.484375 6.890625 26.703125 6.890625 
Q 35.15625 6.890625 40.078125 11.328125 
Q 45.015625 15.765625 45.015625 23.390625 
Q 45.015625 31 40.078125 35.4375 
Q 35.15625 39.890625 26.703125 39.890625 
Q 22.75 39.890625 18.8125 39.015625 
Q 14.890625 38.140625 10.796875 36.28125 
z
" id="DejaVuSans-53"/>
       </defs>
       <use transform="translate(0 0.684375)" xlink:href="#DejaVuSans-49"/>
       <use transform="translate(63.623047 0.684375)" xlink:href="#DejaVuSans-48"/>
       <use transform="translate(128.203125 38.965625)scale(0.7)" xlink:href="#DejaVuSans-8722"/>
       <use transform="translate(186.855469 38.965625)scale(0.7)" xlink:href="#DejaVuSans-53"/>
      </g>
     </g>
    </g>
    <g id="ytick_4">
     <g id="line2d_42">
      <g>
       <use style="stroke:#000000;stroke-width:0.8;" x="61.010346" xlink:href="#m1e25cf0d88" y="142.889625"/>
      </g>
     </g>
     <g id="text_9">
      <!-- $\mathdefault{10^{-3}}$ -->
      <g transform="translate(30.510346 146.688844)scale(0.1 -0.1)">
       <defs>
        <path d="M 40.578125 39.3125 
Q 47.65625 37.796875 51.625 33 
Q 55.609375 28.21875 55.609375 21.1875 
Q 55.609375 10.40625 48.1875 4.484375 
Q 40.765625 -1.421875 27.09375 -1.421875 
Q 22.515625 -1.421875 17.65625 -0.515625 
Q 12.796875 0.390625 7.625 2.203125 
L 7.625 11.71875 
Q 11.71875 9.328125 16.59375 8.109375 
Q 21.484375 6.890625 26.8125 6.890625 
Q 36.078125 6.890625 40.9375 10.546875 
Q 45.796875 14.203125 45.796875 21.1875 
Q 45.796875 27.640625 41.28125 31.265625 
Q 36.765625 34.90625 28.71875 34.90625 
L 20.21875 34.90625 
L 20.21875 43.015625 
L 29.109375 43.015625 
Q 36.375 43.015625 40.234375 45.921875 
Q 44.09375 48.828125 44.09375 54.296875 
Q 44.09375 59.90625 40.109375 62.90625 
Q 36.140625 65.921875 28.71875 65.921875 
Q 24.65625 65.921875 20.015625 65.03125 
Q 15.375 64.15625 9.8125 62.3125 
L 9.8125 71.09375 
Q 15.4375 72.65625 20.34375 73.4375 
Q 25.25 74.21875 29.59375 74.21875 
Q 40.828125 74.21875 47.359375 69.109375 
Q 53.90625 64.015625 53.90625 55.328125 
Q 53.90625 49.265625 50.4375 45.09375 
Q 46.96875 40.921875 40.578125 39.3125 
z
" id="DejaVuSans-51"/>
       </defs>
       <use transform="translate(0 0.765625)" xlink:href="#DejaVuSans-49"/>
       <use transform="translate(63.623047 0.765625)" xlink:href="#DejaVuSans-48"/>
       <use transform="translate(128.203125 39.046875)scale(0.7)" xlink:href="#DejaVuSans-8722"/>
       <use transform="translate(186.855469 39.046875)scale(0.7)" xlink:href="#DejaVuSans-51"/>
      </g>
     </g>
    </g>
    <g id="ytick_5">
     <g id="line2d_43">
      <g>
       <use style="stroke:#000000;stroke-width:0.8;" x="61.010346" xlink:href="#m1e25cf0d88" y="102.225258"/>
      </g>
     </g>
     <g id="text_10">
      <!-- $\mathdefault{10^{-1}}$ -->
      <g transform="translate(30.510346 106.024477)scale(0.1 -0.1)">
       <use transform="translate(0 0.684375)" xlink:href="#DejaVuSans-49"/>
       <use transform="translate(63.623047 0.684375)" xlink:href="#DejaVuSans-48"/>
       <use transform="translate(128.203125 38.965625)scale(0.7)" xlink:href="#DejaVuSans-8722"/>
       <use transform="translate(186.855469 38.965625)scale(0.7)" xlink:href="#DejaVuSans-49"/>
      </g>
     </g>
    </g>
    <g id="ytick_6">
     <g id="line2d_44">
      <g>
       <use style="stroke:#000000;stroke-width:0.8;" x="61.010346" xlink:href="#m1e25cf0d88" y="61.560891"/>
      </g>
     </g>
     <g id="text_11">
      <!-- $\mathdefault{10^{1}}$ -->
      <g transform="translate(36.410346 65.36011)scale(0.1 -0.1)">
       <use transform="translate(0 0.684375)" xlink:href="#DejaVuSans-49"/>
       <use transform="translate(63.623047 0.684375)" xlink:href="#DejaVuSans-48"/>
       <use transform="translate(128.203125 38.965625)scale(0.7)" xlink:href="#DejaVuSans-49"/>
      </g>
     </g>
    </g>
    <g id="text_12">
     <!-- $F(x) - F(x*)$ -->
     <g transform="translate(23.598784 212.224)rotate(-90)scale(0.14 -0.14)">
      <defs>
       <path d="M 16.890625 72.90625 
L 58.6875 72.90625 
L 57.078125 64.59375 
L 25.09375 64.59375 
L 20.90625 43.109375 
L 49.8125 43.109375 
L 48.1875 34.8125 
L 19.28125 34.8125 
L 12.5 0 
L 2.6875 0 
z
" id="DejaVuSans-Oblique-70"/>
       <path d="M 31 75.875 
Q 24.46875 64.65625 21.28125 53.65625 
Q 18.109375 42.671875 18.109375 31.390625 
Q 18.109375 20.125 21.3125 9.0625 
Q 24.515625 -2 31 -13.1875 
L 23.1875 -13.1875 
Q 15.875 -1.703125 12.234375 9.375 
Q 8.59375 20.453125 8.59375 31.390625 
Q 8.59375 42.28125 12.203125 53.3125 
Q 15.828125 64.359375 23.1875 75.875 
z
" id="DejaVuSans-40"/>
       <path d="M 60.015625 54.6875 
L 34.90625 27.875 
L 50.296875 0 
L 39.984375 0 
L 28.421875 21.6875 
L 8.296875 0 
L -2.59375 0 
L 24.3125 28.8125 
L 10.015625 54.6875 
L 20.3125 54.6875 
L 30.8125 34.90625 
L 49.125 54.6875 
z
" id="DejaVuSans-Oblique-120"/>
       <path d="M 8.015625 75.875 
L 15.828125 75.875 
Q 23.140625 64.359375 26.78125 53.3125 
Q 30.421875 42.28125 30.421875 31.390625 
Q 30.421875 20.453125 26.78125 9.375 
Q 23.140625 -1.703125 15.828125 -13.1875 
L 8.015625 -13.1875 
Q 14.5 -2 17.703125 9.0625 
Q 20.90625 20.125 20.90625 31.390625 
Q 20.90625 42.671875 17.703125 53.65625 
Q 14.5 64.65625 8.015625 75.875 
z
" id="DejaVuSans-41"/>
       <path d="M 47.015625 60.890625 
L 29.5 51.421875 
L 47.015625 41.890625 
L 44.1875 37.109375 
L 27.78125 47.015625 
L 27.78125 28.609375 
L 22.21875 28.609375 
L 22.21875 47.015625 
L 5.8125 37.109375 
L 2.984375 41.890625 
L 20.515625 51.421875 
L 2.984375 60.890625 
L 5.8125 65.71875 
L 22.21875 55.8125 
L 22.21875 74.21875 
L 27.78125 74.21875 
L 27.78125 55.8125 
L 44.1875 65.71875 
z
" id="DejaVuSans-42"/>
      </defs>
      <use transform="translate(0 0.125)" xlink:href="#DejaVuSans-Oblique-70"/>
      <use transform="translate(57.519531 0.125)" xlink:href="#DejaVuSans-40"/>
      <use transform="translate(96.533203 0.125)" xlink:href="#DejaVuSans-Oblique-120"/>
      <use transform="translate(155.712891 0.125)" xlink:href="#DejaVuSans-41"/>
      <use transform="translate(214.208984 0.125)" xlink:href="#DejaVuSans-8722"/>
      <use transform="translate(317.480469 0.125)" xlink:href="#DejaVuSans-Oblique-70"/>
      <use transform="translate(375 0.125)" xlink:href="#DejaVuSans-40"/>
      <use transform="translate(414.013672 0.125)" xlink:href="#DejaVuSans-Oblique-120"/>
      <use transform="translate(492.675781 0.125)" xlink:href="#DejaVuSans-42"/>
      <use transform="translate(562.158203 0.125)" xlink:href="#DejaVuSans-41"/>
     </g>
    </g>
   </g>
   <g id="LineCollection_1">
    <path clip-path="url(#pf2bffd8da0)" d="M 61.010346 285.214909 
L 450 285.214909 
" style="fill:none;stroke:#000000;stroke-dasharray:5.55,2.4;stroke-dashoffset:0;stroke-width:1.5;"/>
   </g>
   <g id="line2d_45">
    <path clip-path="url(#pf2bffd8da0)" d="M 95.958954 54.953091 
L 116.908002 61.972913 
L 113.076112 73.062865 
L 121.097748 80.295013 
L 127.831403 99.906087 
L 160.333 166.269519 
L 165.099792 207.212798 
L 182.558303 281.90519 
L 179.76391 284.960123 
L 183.874476 284.960123 
L 178.596286 284.960123 
L 173.770579 284.960123 
L 179.007439 284.960123 
" style="fill:none;stroke:#1f77b4;stroke-linecap:square;stroke-width:3;"/>
   </g>
   <g id="line2d_46">
    <path clip-path="url(#pf2bffd8da0)" d="M 183.799235 61.011495 
L 133.109761 62.119114 
L 136.120379 64.113686 
L 144.088036 65.580609 
L 147.278481 68.266848 
L 152.042521 71.707845 
L 158.678489 75.205838 
L 168.742325 79.471005 
L 178.052922 85.509902 
L 203.958234 91.529656 
L 198.809249 99.03276 
L 221.558827 109.226978 
L 223.105772 120.231741 
L 241.181914 134.406085 
L 249.794598 153.669233 
L 262.673981 186.653011 
L 279.077565 216.583591 
L 293.039132 271.393246 
L 306.267428 285.186094 
L 306.37754 285.186094 
L 306.423589 285.186094 
L 306.141108 285.186094 
L 306.240428 285.186094 
L 306.584949 285.186094 
" style="fill:none;stroke:#ff7f0e;stroke-linecap:square;stroke-width:3;"/>
   </g>
   <g id="line2d_47">
    <path clip-path="url(#pf2bffd8da0)" d="M 181.183905 59.715115 
L 182.882674 62.17101 
L 186.24723 63.43401 
L 183.897524 64.376386 
L 180.10178 65.830169 
L 183.74615 67.465817 
L 181.869982 69.142609 
L 189.78247 71.021373 
L 185.543119 73.132388 
L 193.793455 75.409366 
L 190.816524 77.819373 
L 193.703871 80.475601 
L 194.329915 83.495913 
L 208.854114 86.943105 
L 215.852438 90.142102 
L 227.64209 93.391031 
L 239.315584 96.633951 
L 255.752034 100.648877 
L 268.268117 106.190625 
L 286.085645 112.907791 
L 301.045722 122.731487 
L 320.251354 133.539559 
L 332.474244 144.826283 
L 347.059917 158.432772 
L 361.404411 182.11555 
L 372.662329 193.931 
L 388.448185 206.223725 
L 404.374318 224.505685 
L 418.035046 251.737602 
" style="fill:none;stroke:#2ca02c;stroke-linecap:square;stroke-width:3;"/>
   </g>
   <g id="line2d_48">
    <path clip-path="url(#pf2bffd8da0)" d="M 186.271513 59.715115 
L 182.258479 62.17101 
L 184.45571 63.735593 
L 184.180532 65.047432 
L 186.385328 67.354982 
L 180.993975 70.34314 
L 173.733079 73.652869 
L 177.489995 77.464127 
L 178.492359 82.215482 
L 178.96299 88.333478 
L 182.099584 94.420528 
L 187.144375 101.828639 
L 194.393756 113.339942 
L 203.995973 129.614268 
L 214.27724 146.777245 
L 231.529956 158.654189 
L 248.658239 170.366377 
L 258.105533 183.467914 
L 271.45475 199.573188 
L 286.101825 212.151853 
L 300.558462 229.591184 
L 309.915084 244.717712 
L 327.678829 259.822469 
L 348.657575 271.166794 
L 363.715364 281.43131 
L 382.007086 284.811426 
L 393.615387 285.202525 
L 412.397983 285.20989 
L 432.318652 285.214908 
" style="fill:none;stroke:#d62728;stroke-linecap:square;stroke-width:3;"/>
   </g>
   <g id="line2d_49">
    <path clip-path="url(#pf2bffd8da0)" d="M 90.342754 56.639267 
L 111.499246 62.079314 
L 105.104628 66.261279 
L 114.775503 69.853123 
L 109.617833 75.317471 
L 116.039816 81.267317 
L 127.987769 87.602832 
L 126.839864 94.495435 
L 142.699894 104.003024 
L 148.847924 115.220057 
L 163.911311 128.298829 
L 177.075476 151.438858 
L 188.207164 173.425343 
L 202.461336 183.763153 
L 213.693245 196.374362 
L 227.043401 214.557048 
L 241.498611 241.792836 
L 252.511749 277.81309 
L 265.859824 285.203935 
L 277.824288 285.214908 
L 292.269086 285.214595 
L 307.312454 285.214595 
L 329.79472 285.214908 
L 352.196262 285.214595 
" style="fill:none;stroke:#9467bd;stroke-linecap:square;stroke-width:3;"/>
   </g>
   <g id="patch_3">
    <path d="M 61.010346 296.728 
L 61.010346 43.44 
" style="fill:none;stroke:#000000;stroke-linecap:square;stroke-linejoin:miter;stroke-width:0.8;"/>
   </g>
   <g id="patch_4">
    <path d="M 450 296.728 
L 450 43.44 
" style="fill:none;stroke:#000000;stroke-linecap:square;stroke-linejoin:miter;stroke-width:0.8;"/>
   </g>
   <g id="patch_5">
    <path d="M 61.010346 296.728 
L 450 296.728 
" style="fill:none;stroke:#000000;stroke-linecap:square;stroke-linejoin:miter;stroke-width:0.8;"/>
   </g>
   <g id="patch_6">
    <path d="M 61.010346 43.44 
L 450 43.44 
" style="fill:none;stroke:#000000;stroke-linecap:square;stroke-linejoin:miter;stroke-width:0.8;"/>
   </g>
   <g id="text_13">
    <!-- Lasso Regression[reg=0.1] -->
    <g transform="translate(161.298298 21.763062)scale(0.14 -0.14)">
     <defs>
      <path d="M 9.8125 72.90625 
L 19.671875 72.90625 
L 19.671875 8.296875 
L 55.171875 8.296875 
L 55.171875 0 
L 9.8125 0 
z
" id="DejaVuSans-76"/>
      <path d="M 34.28125 27.484375 
Q 23.390625 27.484375 19.1875 25 
Q 14.984375 22.515625 14.984375 16.5 
Q 14.984375 11.71875 18.140625 8.90625 
Q 21.296875 6.109375 26.703125 6.109375 
Q 34.1875 6.109375 38.703125 11.40625 
Q 43.21875 16.703125 43.21875 25.484375 
L 43.21875 27.484375 
z
M 52.203125 31.203125 
L 52.203125 0 
L 43.21875 0 
L 43.21875 8.296875 
Q 40.140625 3.328125 35.546875 0.953125 
Q 30.953125 -1.421875 24.3125 -1.421875 
Q 15.921875 -1.421875 10.953125 3.296875 
Q 6 8.015625 6 15.921875 
Q 6 25.140625 12.171875 29.828125 
Q 18.359375 34.515625 30.609375 34.515625 
L 43.21875 34.515625 
L 43.21875 35.40625 
Q 43.21875 41.609375 39.140625 45 
Q 35.0625 48.390625 27.6875 48.390625 
Q 23 48.390625 18.546875 47.265625 
Q 14.109375 46.140625 10.015625 43.890625 
L 10.015625 52.203125 
Q 14.9375 54.109375 19.578125 55.046875 
Q 24.21875 56 28.609375 56 
Q 40.484375 56 46.34375 49.84375 
Q 52.203125 43.703125 52.203125 31.203125 
z
" id="DejaVuSans-97"/>
      <path d="M 30.609375 48.390625 
Q 23.390625 48.390625 19.1875 42.75 
Q 14.984375 37.109375 14.984375 27.296875 
Q 14.984375 17.484375 19.15625 11.84375 
Q 23.34375 6.203125 30.609375 6.203125 
Q 37.796875 6.203125 41.984375 11.859375 
Q 46.1875 17.53125 46.1875 27.296875 
Q 46.1875 37.015625 41.984375 42.703125 
Q 37.796875 48.390625 30.609375 48.390625 
z
M 30.609375 56 
Q 42.328125 56 49.015625 48.375 
Q 55.71875 40.765625 55.71875 27.296875 
Q 55.71875 13.875 49.015625 6.21875 
Q 42.328125 -1.421875 30.609375 -1.421875 
Q 18.84375 -1.421875 12.171875 6.21875 
Q 5.515625 13.875 5.515625 27.296875 
Q 5.515625 40.765625 12.171875 48.375 
Q 18.84375 56 30.609375 56 
z
" id="DejaVuSans-111"/>
      <path d="M 44.390625 34.1875 
Q 47.5625 33.109375 50.5625 29.59375 
Q 53.5625 26.078125 56.59375 19.921875 
L 66.609375 0 
L 56 0 
L 46.6875 18.703125 
Q 43.0625 26.03125 39.671875 28.421875 
Q 36.28125 30.8125 30.421875 30.8125 
L 19.671875 30.8125 
L 19.671875 0 
L 9.8125 0 
L 9.8125 72.90625 
L 32.078125 72.90625 
Q 44.578125 72.90625 50.734375 67.671875 
Q 56.890625 62.453125 56.890625 51.90625 
Q 56.890625 45.015625 53.6875 40.46875 
Q 50.484375 35.9375 44.390625 34.1875 
z
M 19.671875 64.796875 
L 19.671875 38.921875 
L 32.078125 38.921875 
Q 39.203125 38.921875 42.84375 42.21875 
Q 46.484375 45.515625 46.484375 51.90625 
Q 46.484375 58.296875 42.84375 61.546875 
Q 39.203125 64.796875 32.078125 64.796875 
z
" id="DejaVuSans-82"/>
      <path d="M 45.40625 27.984375 
Q 45.40625 37.75 41.375 43.109375 
Q 37.359375 48.484375 30.078125 48.484375 
Q 22.859375 48.484375 18.828125 43.109375 
Q 14.796875 37.75 14.796875 27.984375 
Q 14.796875 18.265625 18.828125 12.890625 
Q 22.859375 7.515625 30.078125 7.515625 
Q 37.359375 7.515625 41.375 12.890625 
Q 45.40625 18.265625 45.40625 27.984375 
z
M 54.390625 6.78125 
Q 54.390625 -7.171875 48.1875 -13.984375 
Q 42 -20.796875 29.203125 -20.796875 
Q 24.46875 -20.796875 20.265625 -20.09375 
Q 16.0625 -19.390625 12.109375 -17.921875 
L 12.109375 -9.1875 
Q 16.0625 -11.328125 19.921875 -12.34375 
Q 23.78125 -13.375 27.78125 -13.375 
Q 36.625 -13.375 41.015625 -8.765625 
Q 45.40625 -4.15625 45.40625 5.171875 
L 45.40625 9.625 
Q 42.625 4.78125 38.28125 2.390625 
Q 33.9375 0 27.875 0 
Q 17.828125 0 11.671875 7.65625 
Q 5.515625 15.328125 5.515625 27.984375 
Q 5.515625 40.671875 11.671875 48.328125 
Q 17.828125 56 27.875 56 
Q 33.9375 56 38.28125 53.609375 
Q 42.625 51.21875 45.40625 46.390625 
L 45.40625 54.6875 
L 54.390625 54.6875 
z
" id="DejaVuSans-103"/>
      <path d="M 41.109375 46.296875 
Q 39.59375 47.171875 37.8125 47.578125 
Q 36.03125 48 33.890625 48 
Q 26.265625 48 22.1875 43.046875 
Q 18.109375 38.09375 18.109375 28.8125 
L 18.109375 0 
L 9.078125 0 
L 9.078125 54.6875 
L 18.109375 54.6875 
L 18.109375 46.1875 
Q 20.953125 51.171875 25.484375 53.578125 
Q 30.03125 56 36.53125 56 
Q 37.453125 56 38.578125 55.875 
Q 39.703125 55.765625 41.0625 55.515625 
z
" id="DejaVuSans-114"/>
      <path d="M 54.890625 33.015625 
L 54.890625 0 
L 45.90625 0 
L 45.90625 32.71875 
Q 45.90625 40.484375 42.875 44.328125 
Q 39.84375 48.1875 33.796875 48.1875 
Q 26.515625 48.1875 22.3125 43.546875 
Q 18.109375 38.921875 18.109375 30.90625 
L 18.109375 0 
L 9.078125 0 
L 9.078125 54.6875 
L 18.109375 54.6875 
L 18.109375 46.1875 
Q 21.34375 51.125 25.703125 53.5625 
Q 30.078125 56 35.796875 56 
Q 45.21875 56 50.046875 50.171875 
Q 54.890625 44.34375 54.890625 33.015625 
z
" id="DejaVuSans-110"/>
      <path d="M 10.59375 45.40625 
L 73.1875 45.40625 
L 73.1875 37.203125 
L 10.59375 37.203125 
z
M 10.59375 25.484375 
L 73.1875 25.484375 
L 73.1875 17.1875 
L 10.59375 17.1875 
z
" id="DejaVuSans-61"/>
      <path d="M 10.6875 12.40625 
L 21 12.40625 
L 21 0 
L 10.6875 0 
z
" id="DejaVuSans-46"/>
     </defs>
     <use xlink:href="#DejaVuSans-76"/>
     <use x="55.712891" xlink:href="#DejaVuSans-97"/>
     <use x="116.992188" xlink:href="#DejaVuSans-115"/>
     <use x="169.091797" xlink:href="#DejaVuSans-115"/>
     <use x="221.191406" xlink:href="#DejaVuSans-111"/>
     <use x="282.373047" xlink:href="#DejaVuSans-32"/>
     <use x="314.160156" xlink:href="#DejaVuSans-82"/>
     <use x="379.142578" xlink:href="#DejaVuSans-101"/>
     <use x="440.666016" xlink:href="#DejaVuSans-103"/>
     <use x="504.142578" xlink:href="#DejaVuSans-114"/>
     <use x="543.005859" xlink:href="#DejaVuSans-101"/>
     <use x="604.529297" xlink:href="#DejaVuSans-115"/>
     <use x="656.628906" xlink:href="#DejaVuSans-115"/>
     <use x="708.728516" xlink:href="#DejaVuSans-105"/>
     <use x="736.511719" xlink:href="#DejaVuSans-111"/>
     <use x="797.693359" xlink:href="#DejaVuSans-110"/>
     <use x="861.072266" xlink:href="#DejaVuSans-91"/>
     <use x="900.085938" xlink:href="#DejaVuSans-114"/>
     <use x="938.949219" xlink:href="#DejaVuSans-101"/>
     <use x="1000.472656" xlink:href="#DejaVuSans-103"/>
     <use x="1063.949219" xlink:href="#DejaVuSans-61"/>
     <use x="1147.738281" xlink:href="#DejaVuSans-48"/>
     <use x="1211.361328" xlink:href="#DejaVuSans-46"/>
     <use x="1243.148438" xlink:href="#DejaVuSans-49"/>
     <use x="1306.771484" xlink:href="#DejaVuSans-93"/>
    </g>
    <!-- Data: Simulated[n_samples=100,n_features=5000] -->
    <g transform="translate(74.356111 37.44)scale(0.14 -0.14)">
     <defs>
      <path d="M 19.671875 64.796875 
L 19.671875 8.109375 
L 31.59375 8.109375 
Q 46.6875 8.109375 53.6875 14.9375 
Q 60.6875 21.78125 60.6875 36.53125 
Q 60.6875 51.171875 53.6875 57.984375 
Q 46.6875 64.796875 31.59375 64.796875 
z
M 9.8125 72.90625 
L 30.078125 72.90625 
Q 51.265625 72.90625 61.171875 64.09375 
Q 71.09375 55.28125 71.09375 36.53125 
Q 71.09375 17.671875 61.125 8.828125 
Q 51.171875 0 30.078125 0 
L 9.8125 0 
z
" id="DejaVuSans-68"/>
      <path d="M 18.3125 70.21875 
L 18.3125 54.6875 
L 36.8125 54.6875 
L 36.8125 47.703125 
L 18.3125 47.703125 
L 18.3125 18.015625 
Q 18.3125 11.328125 20.140625 9.421875 
Q 21.96875 7.515625 27.59375 7.515625 
L 36.8125 7.515625 
L 36.8125 0 
L 27.59375 0 
Q 17.1875 0 13.234375 3.875 
Q 9.28125 7.765625 9.28125 18.015625 
L 9.28125 47.703125 
L 2.6875 47.703125 
L 2.6875 54.6875 
L 9.28125 54.6875 
L 9.28125 70.21875 
z
" id="DejaVuSans-116"/>
      <path d="M 11.71875 12.40625 
L 22.015625 12.40625 
L 22.015625 0 
L 11.71875 0 
z
M 11.71875 51.703125 
L 22.015625 51.703125 
L 22.015625 39.3125 
L 11.71875 39.3125 
z
" id="DejaVuSans-58"/>
      <path d="M 53.515625 70.515625 
L 53.515625 60.890625 
Q 47.90625 63.578125 42.921875 64.890625 
Q 37.9375 66.21875 33.296875 66.21875 
Q 25.25 66.21875 20.875 63.09375 
Q 16.5 59.96875 16.5 54.203125 
Q 16.5 49.359375 19.40625 46.890625 
Q 22.3125 44.4375 30.421875 42.921875 
L 36.375 41.703125 
Q 47.40625 39.59375 52.65625 34.296875 
Q 57.90625 29 57.90625 20.125 
Q 57.90625 9.515625 50.796875 4.046875 
Q 43.703125 -1.421875 29.984375 -1.421875 
Q 24.8125 -1.421875 18.96875 -0.25 
Q 13.140625 0.921875 6.890625 3.21875 
L 6.890625 13.375 
Q 12.890625 10.015625 18.65625 8.296875 
Q 24.421875 6.59375 29.984375 6.59375 
Q 38.421875 6.59375 43.015625 9.90625 
Q 47.609375 13.234375 47.609375 19.390625 
Q 47.609375 24.75 44.3125 27.78125 
Q 41.015625 30.8125 33.5 32.328125 
L 27.484375 33.5 
Q 16.453125 35.6875 11.515625 40.375 
Q 6.59375 45.0625 6.59375 53.421875 
Q 6.59375 63.09375 13.40625 68.65625 
Q 20.21875 74.21875 32.171875 74.21875 
Q 37.3125 74.21875 42.625 73.28125 
Q 47.953125 72.359375 53.515625 70.515625 
z
" id="DejaVuSans-83"/>
      <path d="M 8.5 21.578125 
L 8.5 54.6875 
L 17.484375 54.6875 
L 17.484375 21.921875 
Q 17.484375 14.15625 20.5 10.265625 
Q 23.53125 6.390625 29.59375 6.390625 
Q 36.859375 6.390625 41.078125 11.03125 
Q 45.3125 15.671875 45.3125 23.6875 
L 45.3125 54.6875 
L 54.296875 54.6875 
L 54.296875 0 
L 45.3125 0 
L 45.3125 8.40625 
Q 42.046875 3.421875 37.71875 1 
Q 33.40625 -1.421875 27.6875 -1.421875 
Q 18.265625 -1.421875 13.375 4.4375 
Q 8.5 10.296875 8.5 21.578125 
z
M 31.109375 56 
z
" id="DejaVuSans-117"/>
      <path d="M 9.421875 75.984375 
L 18.40625 75.984375 
L 18.40625 0 
L 9.421875 0 
z
" id="DejaVuSans-108"/>
      <path d="M 45.40625 46.390625 
L 45.40625 75.984375 
L 54.390625 75.984375 
L 54.390625 0 
L 45.40625 0 
L 45.40625 8.203125 
Q 42.578125 3.328125 38.25 0.953125 
Q 33.9375 -1.421875 27.875 -1.421875 
Q 17.96875 -1.421875 11.734375 6.484375 
Q 5.515625 14.40625 5.515625 27.296875 
Q 5.515625 40.1875 11.734375 48.09375 
Q 17.96875 56 27.875 56 
Q 33.9375 56 38.25 53.625 
Q 42.578125 51.265625 45.40625 46.390625 
z
M 14.796875 27.296875 
Q 14.796875 17.390625 18.875 11.75 
Q 22.953125 6.109375 30.078125 6.109375 
Q 37.203125 6.109375 41.296875 11.75 
Q 45.40625 17.390625 45.40625 27.296875 
Q 45.40625 37.203125 41.296875 42.84375 
Q 37.203125 48.484375 30.078125 48.484375 
Q 22.953125 48.484375 18.875 42.84375 
Q 14.796875 37.203125 14.796875 27.296875 
z
" id="DejaVuSans-100"/>
      <path d="M 50.984375 -16.609375 
L 50.984375 -23.578125 
L -0.984375 -23.578125 
L -0.984375 -16.609375 
z
" id="DejaVuSans-95"/>
      <path d="M 18.109375 8.203125 
L 18.109375 -20.796875 
L 9.078125 -20.796875 
L 9.078125 54.6875 
L 18.109375 54.6875 
L 18.109375 46.390625 
Q 20.953125 51.265625 25.265625 53.625 
Q 29.59375 56 35.59375 56 
Q 45.5625 56 51.78125 48.09375 
Q 58.015625 40.1875 58.015625 27.296875 
Q 58.015625 14.40625 51.78125 6.484375 
Q 45.5625 -1.421875 35.59375 -1.421875 
Q 29.59375 -1.421875 25.265625 0.953125 
Q 20.953125 3.328125 18.109375 8.203125 
z
M 48.6875 27.296875 
Q 48.6875 37.203125 44.609375 42.84375 
Q 40.53125 48.484375 33.40625 48.484375 
Q 26.265625 48.484375 22.1875 42.84375 
Q 18.109375 37.203125 18.109375 27.296875 
Q 18.109375 17.390625 22.1875 11.75 
Q 26.265625 6.109375 33.40625 6.109375 
Q 40.53125 6.109375 44.609375 11.75 
Q 48.6875 17.390625 48.6875 27.296875 
z
" id="DejaVuSans-112"/>
      <path d="M 11.71875 12.40625 
L 22.015625 12.40625 
L 22.015625 4 
L 14.015625 -11.625 
L 7.71875 -11.625 
L 11.71875 4 
z
" id="DejaVuSans-44"/>
      <path d="M 37.109375 75.984375 
L 37.109375 68.5 
L 28.515625 68.5 
Q 23.6875 68.5 21.796875 66.546875 
Q 19.921875 64.59375 19.921875 59.515625 
L 19.921875 54.6875 
L 34.71875 54.6875 
L 34.71875 47.703125 
L 19.921875 47.703125 
L 19.921875 0 
L 10.890625 0 
L 10.890625 47.703125 
L 2.296875 47.703125 
L 2.296875 54.6875 
L 10.890625 54.6875 
L 10.890625 58.5 
Q 10.890625 67.625 15.140625 71.796875 
Q 19.390625 75.984375 28.609375 75.984375 
z
" id="DejaVuSans-102"/>
     </defs>
     <use xlink:href="#DejaVuSans-68"/>
     <use x="77.001953" xlink:href="#DejaVuSans-97"/>
     <use x="138.28125" xlink:href="#DejaVuSans-116"/>
     <use x="177.490234" xlink:href="#DejaVuSans-97"/>
     <use x="238.769531" xlink:href="#DejaVuSans-58"/>
     <use x="272.460938" xlink:href="#DejaVuSans-32"/>
     <use x="304.248047" xlink:href="#DejaVuSans-83"/>
     <use x="367.724609" xlink:href="#DejaVuSans-105"/>
     <use x="395.507812" xlink:href="#DejaVuSans-109"/>
     <use x="492.919922" xlink:href="#DejaVuSans-117"/>
     <use x="556.298828" xlink:href="#DejaVuSans-108"/>
     <use x="584.082031" xlink:href="#DejaVuSans-97"/>
     <use x="645.361328" xlink:href="#DejaVuSans-116"/>
     <use x="684.570312" xlink:href="#DejaVuSans-101"/>
     <use x="746.09375" xlink:href="#DejaVuSans-100"/>
     <use x="809.570312" xlink:href="#DejaVuSans-91"/>
     <use x="848.583984" xlink:href="#DejaVuSans-110"/>
     <use x="911.962891" xlink:href="#DejaVuSans-95"/>
     <use x="961.962891" xlink:href="#DejaVuSans-115"/>
     <use x="1014.0625" xlink:href="#DejaVuSans-97"/>
     <use x="1075.341797" xlink:href="#DejaVuSans-109"/>
     <use x="1172.753906" xlink:href="#DejaVuSans-112"/>
     <use x="1236.230469" xlink:href="#DejaVuSans-108"/>
     <use x="1264.013672" xlink:href="#DejaVuSans-101"/>
     <use x="1325.537109" xlink:href="#DejaVuSans-115"/>
     <use x="1377.636719" xlink:href="#DejaVuSans-61"/>
     <use x="1461.425781" xlink:href="#DejaVuSans-49"/>
     <use x="1525.048828" xlink:href="#DejaVuSans-48"/>
     <use x="1588.671875" xlink:href="#DejaVuSans-48"/>
     <use x="1652.294922" xlink:href="#DejaVuSans-44"/>
     <use x="1684.082031" xlink:href="#DejaVuSans-110"/>
     <use x="1747.460938" xlink:href="#DejaVuSans-95"/>
     <use x="1797.460938" xlink:href="#DejaVuSans-102"/>
     <use x="1832.666016" xlink:href="#DejaVuSans-101"/>
     <use x="1894.189453" xlink:href="#DejaVuSans-97"/>
     <use x="1955.46875" xlink:href="#DejaVuSans-116"/>
     <use x="1994.677734" xlink:href="#DejaVuSans-117"/>
     <use x="2058.056641" xlink:href="#DejaVuSans-114"/>
     <use x="2096.919922" xlink:href="#DejaVuSans-101"/>
     <use x="2158.443359" xlink:href="#DejaVuSans-115"/>
     <use x="2210.542969" xlink:href="#DejaVuSans-61"/>
     <use x="2294.332031" xlink:href="#DejaVuSans-53"/>
     <use x="2357.955078" xlink:href="#DejaVuSans-48"/>
     <use x="2421.578125" xlink:href="#DejaVuSans-48"/>
     <use x="2485.201172" xlink:href="#DejaVuSans-48"/>
     <use x="2548.824219" xlink:href="#DejaVuSans-93"/>
    </g>
   </g>
   <g id="legend_1">
    <g id="patch_7">
     <path d="M 70.810346 223.946812 
L 375.089409 223.946812 
Q 377.889409 223.946812 377.889409 221.146812 
L 377.889409 119.021187 
Q 377.889409 116.221187 375.089409 116.221187 
L 70.810346 116.221187 
Q 68.010346 116.221187 68.010346 119.021187 
L 68.010346 221.146812 
Q 68.010346 223.946812 70.810346 223.946812 
z
" style="fill:#ffffff;opacity:0.8;stroke:#cccccc;stroke-linejoin:miter;"/>
    </g>
    <g id="line2d_50">
     <path d="M 73.610346 127.559 
L 101.610346 127.559 
" style="fill:none;stroke:#1f77b4;stroke-linecap:square;stroke-width:3;"/>
    </g>
    <g id="line2d_51"/>
    <g id="text_14">
     <!-- Celer -->
     <g transform="translate(112.810346 132.459)scale(0.14 -0.14)">
      <defs>
       <path d="M 64.40625 67.28125 
L 64.40625 56.890625 
Q 59.421875 61.53125 53.78125 63.8125 
Q 48.140625 66.109375 41.796875 66.109375 
Q 29.296875 66.109375 22.65625 58.46875 
Q 16.015625 50.828125 16.015625 36.375 
Q 16.015625 21.96875 22.65625 14.328125 
Q 29.296875 6.6875 41.796875 6.6875 
Q 48.140625 6.6875 53.78125 8.984375 
Q 59.421875 11.28125 64.40625 15.921875 
L 64.40625 5.609375 
Q 59.234375 2.09375 53.4375 0.328125 
Q 47.65625 -1.421875 41.21875 -1.421875 
Q 24.65625 -1.421875 15.125 8.703125 
Q 5.609375 18.84375 5.609375 36.375 
Q 5.609375 53.953125 15.125 64.078125 
Q 24.65625 74.21875 41.21875 74.21875 
Q 47.75 74.21875 53.53125 72.484375 
Q 59.328125 70.75 64.40625 67.28125 
z
" id="DejaVuSans-67"/>
      </defs>
      <use xlink:href="#DejaVuSans-67"/>
      <use x="69.824219" xlink:href="#DejaVuSans-101"/>
      <use x="131.347656" xlink:href="#DejaVuSans-108"/>
      <use x="159.130859" xlink:href="#DejaVuSans-101"/>
      <use x="220.654297" xlink:href="#DejaVuSans-114"/>
     </g>
    </g>
    <g id="line2d_52">
     <path d="M 73.610346 148.108375 
L 101.610346 148.108375 
" style="fill:none;stroke:#ff7f0e;stroke-linecap:square;stroke-width:3;"/>
    </g>
    <g id="line2d_53"/>
    <g id="text_15">
     <!-- L-BFGS-B -->
     <g transform="translate(112.810346 153.008375)scale(0.14 -0.14)">
      <defs>
       <path d="M 4.890625 31.390625 
L 31.203125 31.390625 
L 31.203125 23.390625 
L 4.890625 23.390625 
z
" id="DejaVuSans-45"/>
       <path d="M 19.671875 34.8125 
L 19.671875 8.109375 
L 35.5 8.109375 
Q 43.453125 8.109375 47.28125 11.40625 
Q 51.125 14.703125 51.125 21.484375 
Q 51.125 28.328125 47.28125 31.5625 
Q 43.453125 34.8125 35.5 34.8125 
z
M 19.671875 64.796875 
L 19.671875 42.828125 
L 34.28125 42.828125 
Q 41.5 42.828125 45.03125 45.53125 
Q 48.578125 48.25 48.578125 53.8125 
Q 48.578125 59.328125 45.03125 62.0625 
Q 41.5 64.796875 34.28125 64.796875 
z
M 9.8125 72.90625 
L 35.015625 72.90625 
Q 46.296875 72.90625 52.390625 68.21875 
Q 58.5 63.53125 58.5 54.890625 
Q 58.5 48.1875 55.375 44.234375 
Q 52.25 40.28125 46.1875 39.3125 
Q 53.46875 37.75 57.5 32.78125 
Q 61.53125 27.828125 61.53125 20.40625 
Q 61.53125 10.640625 54.890625 5.3125 
Q 48.25 0 35.984375 0 
L 9.8125 0 
z
" id="DejaVuSans-66"/>
       <path d="M 9.8125 72.90625 
L 51.703125 72.90625 
L 51.703125 64.59375 
L 19.671875 64.59375 
L 19.671875 43.109375 
L 48.578125 43.109375 
L 48.578125 34.8125 
L 19.671875 34.8125 
L 19.671875 0 
L 9.8125 0 
z
" id="DejaVuSans-70"/>
       <path d="M 59.515625 10.40625 
L 59.515625 29.984375 
L 43.40625 29.984375 
L 43.40625 38.09375 
L 69.28125 38.09375 
L 69.28125 6.78125 
Q 63.578125 2.734375 56.6875 0.65625 
Q 49.8125 -1.421875 42 -1.421875 
Q 24.90625 -1.421875 15.25 8.5625 
Q 5.609375 18.5625 5.609375 36.375 
Q 5.609375 54.25 15.25 64.234375 
Q 24.90625 74.21875 42 74.21875 
Q 49.125 74.21875 55.546875 72.453125 
Q 61.96875 70.703125 67.390625 67.28125 
L 67.390625 56.78125 
Q 61.921875 61.421875 55.765625 63.765625 
Q 49.609375 66.109375 42.828125 66.109375 
Q 29.4375 66.109375 22.71875 58.640625 
Q 16.015625 51.171875 16.015625 36.375 
Q 16.015625 21.625 22.71875 14.15625 
Q 29.4375 6.6875 42.828125 6.6875 
Q 48.046875 6.6875 52.140625 7.59375 
Q 56.25 8.5 59.515625 10.40625 
z
" id="DejaVuSans-71"/>
      </defs>
      <use xlink:href="#DejaVuSans-76"/>
      <use x="53.962891" xlink:href="#DejaVuSans-45"/>
      <use x="86.421875" xlink:href="#DejaVuSans-66"/>
      <use x="155.025391" xlink:href="#DejaVuSans-70"/>
      <use x="212.544922" xlink:href="#DejaVuSans-71"/>
      <use x="290.035156" xlink:href="#DejaVuSans-83"/>
      <use x="353.511719" xlink:href="#DejaVuSans-45"/>
      <use x="385.970703" xlink:href="#DejaVuSans-66"/>
     </g>
    </g>
    <g id="line2d_54">
     <path d="M 73.610346 168.65775 
L 101.610346 168.65775 
" style="fill:none;stroke:#2ca02c;stroke-linecap:square;stroke-width:3;"/>
    </g>
    <g id="line2d_55"/>
    <g id="text_16">
     <!-- Python-PGD[use_acceleration=False] -->
     <g transform="translate(112.810346 173.55775)scale(0.14 -0.14)">
      <defs>
       <path d="M 19.671875 64.796875 
L 19.671875 37.40625 
L 32.078125 37.40625 
Q 38.96875 37.40625 42.71875 40.96875 
Q 46.484375 44.53125 46.484375 51.125 
Q 46.484375 57.671875 42.71875 61.234375 
Q 38.96875 64.796875 32.078125 64.796875 
z
M 9.8125 72.90625 
L 32.078125 72.90625 
Q 44.34375 72.90625 50.609375 67.359375 
Q 56.890625 61.8125 56.890625 51.125 
Q 56.890625 40.328125 50.609375 34.8125 
Q 44.34375 29.296875 32.078125 29.296875 
L 19.671875 29.296875 
L 19.671875 0 
L 9.8125 0 
z
" id="DejaVuSans-80"/>
       <path d="M 32.171875 -5.078125 
Q 28.375 -14.84375 24.75 -17.8125 
Q 21.140625 -20.796875 15.09375 -20.796875 
L 7.90625 -20.796875 
L 7.90625 -13.28125 
L 13.1875 -13.28125 
Q 16.890625 -13.28125 18.9375 -11.515625 
Q 21 -9.765625 23.484375 -3.21875 
L 25.09375 0.875 
L 2.984375 54.6875 
L 12.5 54.6875 
L 29.59375 11.921875 
L 46.6875 54.6875 
L 56.203125 54.6875 
z
" id="DejaVuSans-121"/>
       <path d="M 54.890625 33.015625 
L 54.890625 0 
L 45.90625 0 
L 45.90625 32.71875 
Q 45.90625 40.484375 42.875 44.328125 
Q 39.84375 48.1875 33.796875 48.1875 
Q 26.515625 48.1875 22.3125 43.546875 
Q 18.109375 38.921875 18.109375 30.90625 
L 18.109375 0 
L 9.078125 0 
L 9.078125 75.984375 
L 18.109375 75.984375 
L 18.109375 46.1875 
Q 21.34375 51.125 25.703125 53.5625 
Q 30.078125 56 35.796875 56 
Q 45.21875 56 50.046875 50.171875 
Q 54.890625 44.34375 54.890625 33.015625 
z
" id="DejaVuSans-104"/>
      </defs>
      <use xlink:href="#DejaVuSans-80"/>
      <use x="60.302734" xlink:href="#DejaVuSans-121"/>
      <use x="119.482422" xlink:href="#DejaVuSans-116"/>
      <use x="158.691406" xlink:href="#DejaVuSans-104"/>
      <use x="222.070312" xlink:href="#DejaVuSans-111"/>
      <use x="283.251953" xlink:href="#DejaVuSans-110"/>
      <use x="346.630859" xlink:href="#DejaVuSans-45"/>
      <use x="382.714844" xlink:href="#DejaVuSans-80"/>
      <use x="443.017578" xlink:href="#DejaVuSans-71"/>
      <use x="520.507812" xlink:href="#DejaVuSans-68"/>
      <use x="597.509766" xlink:href="#DejaVuSans-91"/>
      <use x="636.523438" xlink:href="#DejaVuSans-117"/>
      <use x="699.902344" xlink:href="#DejaVuSans-115"/>
      <use x="752.001953" xlink:href="#DejaVuSans-101"/>
      <use x="813.525391" xlink:href="#DejaVuSans-95"/>
      <use x="863.525391" xlink:href="#DejaVuSans-97"/>
      <use x="924.804688" xlink:href="#DejaVuSans-99"/>
      <use x="979.785156" xlink:href="#DejaVuSans-99"/>
      <use x="1034.765625" xlink:href="#DejaVuSans-101"/>
      <use x="1096.289062" xlink:href="#DejaVuSans-108"/>
      <use x="1124.072266" xlink:href="#DejaVuSans-101"/>
      <use x="1185.595703" xlink:href="#DejaVuSans-114"/>
      <use x="1226.708984" xlink:href="#DejaVuSans-97"/>
      <use x="1287.988281" xlink:href="#DejaVuSans-116"/>
      <use x="1327.197266" xlink:href="#DejaVuSans-105"/>
      <use x="1354.980469" xlink:href="#DejaVuSans-111"/>
      <use x="1416.162109" xlink:href="#DejaVuSans-110"/>
      <use x="1479.541016" xlink:href="#DejaVuSans-61"/>
      <use x="1563.330078" xlink:href="#DejaVuSans-70"/>
      <use x="1611.724609" xlink:href="#DejaVuSans-97"/>
      <use x="1673.003906" xlink:href="#DejaVuSans-108"/>
      <use x="1700.787109" xlink:href="#DejaVuSans-115"/>
      <use x="1752.886719" xlink:href="#DejaVuSans-101"/>
      <use x="1814.410156" xlink:href="#DejaVuSans-93"/>
     </g>
    </g>
    <g id="line2d_56">
     <path d="M 73.610346 189.5965 
L 101.610346 189.5965 
" style="fill:none;stroke:#d62728;stroke-linecap:square;stroke-width:3;"/>
    </g>
    <g id="line2d_57"/>
    <g id="text_17">
     <!-- Python-PGD[use_acceleration=True] -->
     <g transform="translate(112.810346 194.4965)scale(0.14 -0.14)">
      <use xlink:href="#DejaVuSans-80"/>
      <use x="60.302734" xlink:href="#DejaVuSans-121"/>
      <use x="119.482422" xlink:href="#DejaVuSans-116"/>
      <use x="158.691406" xlink:href="#DejaVuSans-104"/>
      <use x="222.070312" xlink:href="#DejaVuSans-111"/>
      <use x="283.251953" xlink:href="#DejaVuSans-110"/>
      <use x="346.630859" xlink:href="#DejaVuSans-45"/>
      <use x="382.714844" xlink:href="#DejaVuSans-80"/>
      <use x="443.017578" xlink:href="#DejaVuSans-71"/>
      <use x="520.507812" xlink:href="#DejaVuSans-68"/>
      <use x="597.509766" xlink:href="#DejaVuSans-91"/>
      <use x="636.523438" xlink:href="#DejaVuSans-117"/>
      <use x="699.902344" xlink:href="#DejaVuSans-115"/>
      <use x="752.001953" xlink:href="#DejaVuSans-101"/>
      <use x="813.525391" xlink:href="#DejaVuSans-95"/>
      <use x="863.525391" xlink:href="#DejaVuSans-97"/>
      <use x="924.804688" xlink:href="#DejaVuSans-99"/>
      <use x="979.785156" xlink:href="#DejaVuSans-99"/>
      <use x="1034.765625" xlink:href="#DejaVuSans-101"/>
      <use x="1096.289062" xlink:href="#DejaVuSans-108"/>
      <use x="1124.072266" xlink:href="#DejaVuSans-101"/>
      <use x="1185.595703" xlink:href="#DejaVuSans-114"/>
      <use x="1226.708984" xlink:href="#DejaVuSans-97"/>
      <use x="1287.988281" xlink:href="#DejaVuSans-116"/>
      <use x="1327.197266" xlink:href="#DejaVuSans-105"/>
      <use x="1354.980469" xlink:href="#DejaVuSans-111"/>
      <use x="1416.162109" xlink:href="#DejaVuSans-110"/>
      <use x="1479.541016" xlink:href="#DejaVuSans-61"/>
      <use x="1563.330078" xlink:href="#DejaVuSans-84"/>
      <use x="1609.664062" xlink:href="#DejaVuSans-114"/>
      <use x="1650.777344" xlink:href="#DejaVuSans-117"/>
      <use x="1714.15625" xlink:href="#DejaVuSans-101"/>
      <use x="1775.679688" xlink:href="#DejaVuSans-93"/>
     </g>
    </g>
    <g id="line2d_58">
     <path d="M 73.610346 210.53525 
L 101.610346 210.53525 
" style="fill:none;stroke:#9467bd;stroke-linecap:square;stroke-width:3;"/>
    </g>
    <g id="line2d_59"/>
    <g id="text_18">
     <!-- sklearn -->
     <g transform="translate(112.810346 215.43525)scale(0.14 -0.14)">
      <defs>
       <path d="M 9.078125 75.984375 
L 18.109375 75.984375 
L 18.109375 31.109375 
L 44.921875 54.6875 
L 56.390625 54.6875 
L 27.390625 29.109375 
L 57.625 0 
L 45.90625 0 
L 18.109375 26.703125 
L 18.109375 0 
L 9.078125 0 
z
" id="DejaVuSans-107"/>
      </defs>
      <use xlink:href="#DejaVuSans-115"/>
      <use x="52.099609" xlink:href="#DejaVuSans-107"/>
      <use x="110.009766" xlink:href="#DejaVuSans-108"/>
      <use x="137.792969" xlink:href="#DejaVuSans-101"/>
      <use x="199.316406" xlink:href="#DejaVuSans-97"/>
      <use x="260.595703" xlink:href="#DejaVuSans-114"/>
      <use x="299.958984" xlink:href="#DejaVuSans-110"/>
     </g>
    </g>
   </g>
  </g>
 </g>
 <defs>
  <clipPath id="pf2bffd8da0">
   <rect height="253.288" width="388.989654" x="61.010346" y="43.44"/>
  </clipPath>
 </defs>
</svg>
