<?xml version="1.0" encoding="utf-8" standalone="no"?>
<!DOCTYPE svg PUBLIC "-//W3C//DTD SVG 1.1//EN"
  "http://www.w3.org/Graphics/SVG/1.1/DTD/svg11.dtd">
<!-- Created with matplotlib (https://matplotlib.org/) -->
<svg height="345.6pt" version="1.1" viewBox="0 0 460.8 345.6" width="460.8pt" xmlns="http://www.w3.org/2000/svg" xmlns:xlink="http://www.w3.org/1999/xlink">
 <metadata>
  <rdf:RDF xmlns:cc="http://creativecommons.org/ns#" xmlns:dc="http://purl.org/dc/elements/1.1/" xmlns:rdf="http://www.w3.org/1999/02/22-rdf-syntax-ns#">
   <cc:Work>
    <dc:type rdf:resource="http://purl.org/dc/dcmitype/StillImage"/>
    <dc:date>2020-12-16T18:00:07.334283</dc:date>
    <dc:format>image/svg+xml</dc:format>
    <dc:creator>
     <cc:Agent>
      <dc:title>Matplotlib v3.3.3, https://matplotlib.org/</dc:title>
     </cc:Agent>
    </dc:creator>
   </cc:Work>
  </rdf:RDF>
 </metadata>
 <defs>
  <style type="text/css">*{stroke-linecap:butt;stroke-linejoin:round;}</style>
 </defs>
 <g id="figure_1">
  <g id="patch_1">
   <path d="M 0 345.6 
L 460.8 345.6 
L 460.8 0 
L 0 0 
z
" style="fill:#ffffff;"/>
  </g>
  <g id="axes_1">
   <g id="patch_2">
    <path d="M 72.196742 296.728 
L 450 296.728 
L 450 43.44 
L 72.196742 43.44 
z
" style="fill:#ffffff;"/>
   </g>
   <g id="PolyCollection_1">
    <defs>
     <path d="M 269.898865 -60.385091 
L 265.815718 -60.385091 
L 266.947619 -60.385091 
L 268.478871 -60.385091 
L 268.53449 -60.385091 
L 268.030259 -60.385091 
L 267.215848 -60.385091 
L 267.546867 -60.385091 
L 266.295762 -60.385091 
L 266.755439 -60.385091 
L 265.108329 -60.385091 
L 267.092188 -60.385091 
L 265.290764 -60.385091 
L 265.077143 -60.385091 
L 266.039722 -60.385091 
L 266.263444 -60.385091 
L 264.436549 -60.385091 
L 265.439688 -60.385091 
L 266.65279 -60.385091 
L 265.944392 -60.385091 
L 265.585974 -60.385091 
L 266.410456 -60.385091 
L 266.067329 -60.385091 
L 265.78872 -60.385091 
L 266.653652 -60.385091 
L 267.439075 -60.385091 
L 266.246354 -60.385091 
L 265.055473 -60.385091 
L 266.922413 -60.385091 
L 267.277543 -60.385091 
L 266.004514 -60.385091 
L 266.778023 -60.385091 
L 265.158774 -60.385091 
L 265.716512 -60.385091 
L 264.449034 -60.385091 
L 264.722557 -60.385091 
L 266.167406 -60.385091 
L 263.952445 -60.385091 
L 266.262517 -60.385091 
L 266.436993 -60.385091 
L 266.082663 -60.385091 
L 267.046915 -60.385091 
L 264.55264 -60.385091 
L 264.036744 -60.385091 
L 261.357573 -60.385091 
L 261.69885 -60.385091 
L 261.272901 -60.385091 
L 259.377363 -60.385091 
L 256.795025 -60.385091 
L 256.617966 -60.385091 
L 256.095349 -60.385091 
L 253.635189 -60.385091 
L 252.378456 -60.385091 
L 250.319338 -60.385091 
L 249.11619 -60.385091 
L 245.373382 -60.385091 
L 240.406513 -60.385092 
L 239.345647 -60.385094 
L 236.904483 -60.385098 
L 231.356306 -60.385107 
L 227.142343 -60.38512 
L 218.712937 -60.385173 
L 213.374241 -60.385247 
L 208.91358 -60.385545 
L 204.623501 -60.385794 
L 200.488611 -60.386446 
L 195.417682 -60.387334 
L 190.847727 -60.390325 
L 189.199456 -60.390964 
L 184.390557 -60.399858 
L 177.863517 -60.42 
L 175.092103 -60.426667 
L 172.61627 -60.456391 
L 168.88497 -60.4788 
L 158.471904 -60.884771 
L 157.714861 -60.877624 
L 143.267753 -61.587973 
L 129.467308 -61.624464 
L 129.13385 -61.887779 
L 119.838798 -64.171892 
L 89.369618 -78.792978 
L 90.193481 -78.766685 
L 101.421248 -78.766685 
L 101.421248 -78.766685 
L 91.361372 -78.792978 
L 123.928286 -64.171892 
L 132.01862 -61.887779 
L 147.172439 -61.624464 
L 148.76092 -61.587973 
L 163.21305 -60.877624 
L 167.820487 -60.884771 
L 174.170091 -60.4788 
L 176.683271 -60.456391 
L 176.296636 -60.426667 
L 182.430284 -60.42 
L 189.044626 -60.399858 
L 193.56822 -60.390964 
L 192.512762 -60.390325 
L 199.036543 -60.387334 
L 204.511715 -60.386446 
L 206.41538 -60.385794 
L 210.532084 -60.385545 
L 221.467896 -60.385247 
L 226.562278 -60.385173 
L 231.875471 -60.38512 
L 236.022086 -60.385107 
L 240.630097 -60.385098 
L 243.39972 -60.385094 
L 244.619713 -60.385092 
L 247.705973 -60.385091 
L 250.954083 -60.385091 
L 253.193695 -60.385091 
L 255.865195 -60.385091 
L 256.048351 -60.385091 
L 257.9722 -60.385091 
L 259.331655 -60.385091 
L 260.377264 -60.385091 
L 261.838121 -60.385091 
L 261.850773 -60.385091 
L 263.753714 -60.385091 
L 264.505733 -60.385091 
L 265.558535 -60.385091 
L 266.474344 -60.385091 
L 267.923843 -60.385091 
L 267.892563 -60.385091 
L 268.386385 -60.385091 
L 268.188474 -60.385091 
L 268.157666 -60.385091 
L 268.937848 -60.385091 
L 267.961643 -60.385091 
L 267.77016 -60.385091 
L 269.202151 -60.385091 
L 268.328441 -60.385091 
L 268.466315 -60.385091 
L 267.176755 -60.385091 
L 268.55666 -60.385091 
L 267.67555 -60.385091 
L 267.781809 -60.385091 
L 268.758108 -60.385091 
L 268.66186 -60.385091 
L 269.43877 -60.385091 
L 268.792905 -60.385091 
L 268.164402 -60.385091 
L 269.047627 -60.385091 
L 268.568341 -60.385091 
L 268.363521 -60.385091 
L 268.263829 -60.385091 
L 267.398629 -60.385091 
L 269.097395 -60.385091 
L 268.581847 -60.385091 
L 268.126503 -60.385091 
L 269.339642 -60.385091 
L 267.770871 -60.385091 
L 270.005028 -60.385091 
L 269.201114 -60.385091 
L 270.109234 -60.385091 
L 269.130979 -60.385091 
L 270.184364 -60.385091 
L 268.728162 -60.385091 
L 270.404217 -60.385091 
L 270.223548 -60.385091 
L 269.856202 -60.385091 
L 269.924311 -60.385091 
L 269.898865 -60.385091 
z
" id="md0b6949b5b" style="stroke:#1f77b4;stroke-opacity:0.3;"/>
    </defs>
    <g clip-path="url(#pd28ee735ad)">
     <use style="fill:#1f77b4;fill-opacity:0.3;stroke:#1f77b4;stroke-opacity:0.3;" x="0" xlink:href="#md0b6949b5b" y="345.6"/>
    </g>
   </g>
   <g id="PolyCollection_2">
    <defs>
     <path d="M 135.901954 -172.832507 
L 110.630077 -172.832507 
L 108.407257 -146.535328 
L 124.675525 -129.37503 
L 125.982347 -117.893192 
L 136.754425 -101.999914 
L 145.528558 -86.775822 
L 159.925797 -76.19064 
L 170.705218 -69.082469 
L 186.056443 -64.922404 
L 198.432215 -62.219334 
L 212.845174 -60.970283 
L 229.688924 -60.514595 
L 246.399562 -60.398493 
L 261.551167 -60.387373 
L 274.361402 -60.385447 
L 288.608308 -60.385136 
L 301.478807 -60.385095 
L 315.097488 -60.385091 
L 330.820527 -60.385091 
L 347.365101 -60.385091 
L 362.38552 -60.385091 
L 381.700622 -60.385091 
L 407.541833 -60.385091 
L 432.827125 -60.385091 
L 432.827125 -60.385091 
L 432.827125 -60.385091 
L 412.212371 -60.385091 
L 383.890797 -60.385091 
L 365.596216 -60.385091 
L 348.766413 -60.385091 
L 332.371162 -60.385091 
L 316.776258 -60.385091 
L 304.708736 -60.385095 
L 288.793515 -60.385136 
L 275.498948 -60.385447 
L 262.028447 -60.387373 
L 247.817936 -60.398493 
L 231.194682 -60.514595 
L 215.990478 -60.970283 
L 200.223069 -62.219334 
L 188.344171 -64.922404 
L 172.906675 -69.082469 
L 165.721453 -76.19064 
L 153.33306 -86.775822 
L 145.598043 -101.999914 
L 138.906534 -117.893192 
L 135.054234 -129.37503 
L 134.256858 -146.535328 
L 135.901954 -172.832507 
z
" id="me29945c50a" style="stroke:#ff7f0e;stroke-opacity:0.3;"/>
    </defs>
    <g clip-path="url(#pd28ee735ad)">
     <use style="fill:#ff7f0e;fill-opacity:0.3;stroke:#ff7f0e;stroke-opacity:0.3;" x="0" xlink:href="#me29945c50a" y="345.6"/>
    </g>
   </g>
   <g id="PolyCollection_3">
    <defs>
     <path d="M 155.76241 -222.409618 
L 133.417002 -222.409618 
L 140.420049 -150.1143 
L 147.820533 -99.097892 
L 155.072875 -75.471554 
L 165.719542 -63.044935 
L 174.647785 -60.411335 
L 203.036585 -60.385108 
L 218.146754 -60.385091 
L 235.532003 -60.385091 
L 248.439894 -60.385091 
L 249.991906 -60.385091 
L 248.992849 -60.385091 
L 249.192358 -60.385091 
L 249.07479 -60.385091 
L 249.843562 -60.385091 
L 249.843562 -60.385091 
L 250.628298 -60.385091 
L 251.157456 -60.385091 
L 251.051579 -60.385091 
L 252.210693 -60.385091 
L 237.614092 -60.385091 
L 224.885269 -60.385091 
L 209.603017 -60.385108 
L 186.912213 -60.411335 
L 172.550694 -63.044935 
L 159.594971 -75.471554 
L 165.848452 -99.097892 
L 152.467468 -150.1143 
L 155.76241 -222.409618 
z
" id="m390819dcfe" style="stroke:#2ca02c;stroke-opacity:0.3;"/>
    </defs>
    <g clip-path="url(#pd28ee735ad)">
     <use style="fill:#2ca02c;fill-opacity:0.3;stroke:#2ca02c;stroke-opacity:0.3;" x="0" xlink:href="#m390819dcfe" y="345.6"/>
    </g>
   </g>
   <g id="PolyCollection_4">
    <defs>
     <path d="M 337.299153 -247.381476 
L 293.862989 -247.381476 
L 307.682653 -247.381476 
L 318.636521 -247.381476 
L 341.325257 -247.381476 
L 375.777309 -77.430129 
L 400.979756 -60.385091 
L 401.176716 -60.385091 
L 403.137976 -60.385091 
L 403.270559 -60.385091 
L 403.270559 -60.385091 
L 401.533631 -60.385091 
L 401.45594 -60.385091 
L 376.719389 -77.430129 
L 343.016092 -247.381476 
L 320.679275 -247.381476 
L 309.56794 -247.381476 
L 337.299153 -247.381476 
z
" id="m49df79f4e9" style="stroke:#d62728;stroke-opacity:0.3;"/>
    </defs>
    <g clip-path="url(#pd28ee735ad)">
     <use style="fill:#d62728;fill-opacity:0.3;stroke:#d62728;stroke-opacity:0.3;" x="0" xlink:href="#m49df79f4e9" y="345.6"/>
    </g>
   </g>
   <g id="PolyCollection_5">
    <defs>
     <path d="M 162.586244 -290.646909 
L 93.05327 -290.646909 
L 92.256629 -170.361977 
L 97.3813 -129.712244 
L 91.541214 -125.163002 
L 106.059409 -116.989775 
L 119.480997 -107.988963 
L 144.593189 -105.895713 
L 159.403575 -105.895713 
L 194.31922 -83.969219 
L 211.391266 -72.260688 
L 226.544035 -66.363381 
L 249.414758 -61.939143 
L 273.645011 -60.587292 
L 297.170237 -60.399265 
L 320.83432 -60.385284 
L 338.717732 -60.385091 
L 368.322289 -60.385091 
L 398.524691 -60.385091 
L 425.124114 -60.385091 
L 426.144077 -60.385091 
L 426.144077 -60.385091 
L 402.568576 -60.385091 
L 370.06155 -60.385091 
L 348.461838 -60.385091 
L 327.075123 -60.385284 
L 300.842875 -60.399265 
L 275.010914 -60.587292 
L 253.811879 -61.939143 
L 254.021752 -66.363381 
L 229.411303 -72.260688 
L 216.464507 -83.969219 
L 218.550273 -105.895713 
L 169.255614 -105.895713 
L 147.267394 -107.988963 
L 128.294628 -116.989775 
L 126.205987 -125.163002 
L 118.580404 -129.712244 
L 141.74851 -170.361977 
L 162.586244 -290.646909 
z
" id="ma32a449054" style="stroke:#9467bd;stroke-opacity:0.3;"/>
    </defs>
    <g clip-path="url(#pd28ee735ad)">
     <use style="fill:#9467bd;fill-opacity:0.3;stroke:#9467bd;stroke-opacity:0.3;" x="0" xlink:href="#ma32a449054" y="345.6"/>
    </g>
   </g>
   <g id="PolyCollection_6">
    <defs>
     <path d="M 216.493312 -290.646909 
L 185.185801 -290.646909 
L 190.318074 -289.823464 
L 189.017744 -289.823464 
L 198.720888 -289.044052 
L 189.569404 -289.044052 
L 191.897372 -288.112427 
L 200.001578 -284.145587 
L 197.919693 -278.230278 
L 209.016855 -257.160812 
L 216.436769 -223.394233 
L 226.864297 -171.53918 
L 239.368378 -127.127137 
L 256.509907 -94.968629 
L 278.787965 -66.268002 
L 300.290345 -60.706382 
L 305.631571 -60.385091 
L 305.08302 -60.385091 
L 303.512526 -60.385091 
L 303.311661 -60.385091 
L 303.149767 -60.385091 
L 302.231993 -60.385091 
L 304.099822 -60.385091 
L 304.099822 -60.385091 
L 308.743576 -60.385091 
L 308.152371 -60.385091 
L 307.97806 -60.385091 
L 309.95855 -60.385091 
L 312.546257 -60.385091 
L 302.853586 -60.706382 
L 287.33994 -66.268002 
L 261.81519 -94.968629 
L 262.167557 -127.127137 
L 251.664146 -171.53918 
L 225.378968 -223.394233 
L 239.188412 -257.160812 
L 240.193258 -278.230278 
L 239.409513 -284.145587 
L 213.614704 -288.112427 
L 203.660199 -289.044052 
L 236.501675 -289.044052 
L 234.749688 -289.823464 
L 246.871111 -289.823464 
L 216.493312 -290.646909 
z
" id="me8cd9c5af3" style="stroke:#8c564b;stroke-opacity:0.3;"/>
    </defs>
    <g clip-path="url(#pd28ee735ad)">
     <use style="fill:#8c564b;fill-opacity:0.3;stroke:#8c564b;stroke-opacity:0.3;" x="0" xlink:href="#me8cd9c5af3" y="345.6"/>
    </g>
   </g>
   <g id="PolyCollection_7">
    <defs>
     <path d="M 247.346273 -149.740092 
L 213.979586 -149.740092 
L 217.000713 -134.162928 
L 221.092935 -129.243833 
L 220.432159 -125.738511 
L 220.67527 -120.389055 
L 226.232271 -114.584846 
L 228.968627 -109.096366 
L 233.508279 -103.465702 
L 240.658003 -97.90113 
L 248.19205 -92.364829 
L 257.804998 -87.323774 
L 261.076269 -82.683004 
L 266.637034 -78.352621 
L 273.249171 -74.633282 
L 281.457071 -71.404402 
L 292.360346 -68.662191 
L 303.765591 -66.480426 
L 318.573818 -64.690465 
L 333.965745 -63.126464 
L 350.243552 -62.027866 
L 365.386649 -61.220138 
L 380.664627 -60.812214 
L 393.330602 -60.571058 
L 410.56123 -60.451962 
L 410.56123 -60.451962 
L 410.56123 -60.451962 
L 397.137693 -60.571058 
L 385.477583 -60.812214 
L 370.80166 -61.220138 
L 352.528855 -62.027866 
L 338.99914 -63.126464 
L 325.577473 -64.690465 
L 309.560716 -66.480426 
L 301.48386 -68.662191 
L 282.716937 -71.404402 
L 275.310142 -74.633282 
L 267.510455 -78.352621 
L 262.18259 -82.683004 
L 258.569667 -87.323774 
L 250.422995 -92.364829 
L 244.251063 -97.90113 
L 237.448918 -103.465702 
L 233.74947 -109.096366 
L 232.536993 -114.584846 
L 228.494889 -120.389055 
L 230.966955 -125.738511 
L 246.940334 -129.243833 
L 228.066368 -134.162928 
L 247.346273 -149.740092 
z
" id="m6ef73288cc" style="stroke:#e377c2;stroke-opacity:0.3;"/>
    </defs>
    <g clip-path="url(#pd28ee735ad)">
     <use style="fill:#e377c2;fill-opacity:0.3;stroke:#e377c2;stroke-opacity:0.3;" x="0" xlink:href="#m6ef73288cc" y="345.6"/>
    </g>
   </g>
   <g id="PolyCollection_8">
    <defs>
     <path d="M 243.073447 -246.992521 
L 187.941842 -246.992521 
L 190.428226 -135.087179 
L 192.719974 -131.681493 
L 196.55367 -124.03343 
L 200.756578 -113.830651 
L 209.080106 -102.506087 
L 220.170733 -92.556723 
L 229.720194 -83.691392 
L 241.556991 -75.559392 
L 252.595459 -69.394975 
L 266.319724 -64.855696 
L 280.75537 -62.296846 
L 294.506377 -61.012621 
L 311.004755 -60.599233 
L 325.806075 -60.43491 
L 342.416464 -60.397925 
L 358.156938 -60.386434 
L 370.536652 -60.385178 
L 384.963702 -60.385092 
L 403.533138 -60.385091 
L 406.175556 -60.385091 
L 406.175556 -60.385091 
L 385.90047 -60.385092 
L 374.979035 -60.385178 
L 360.58036 -60.386434 
L 345.015193 -60.397925 
L 330.759032 -60.43491 
L 315.617071 -60.599233 
L 301.366744 -61.012621 
L 286.929584 -62.296846 
L 279.537465 -64.855696 
L 266.391762 -69.394975 
L 258.720963 -75.559392 
L 246.544945 -83.691392 
L 240.243045 -92.556723 
L 245.092008 -102.506087 
L 230.724638 -113.830651 
L 226.880934 -124.03343 
L 226.130786 -131.681493 
L 224.305896 -135.087179 
L 243.073447 -246.992521 
z
" id="md6d24abc2e" style="stroke:#7f7f7f;stroke-opacity:0.3;"/>
    </defs>
    <g clip-path="url(#pd28ee735ad)">
     <use style="fill:#7f7f7f;fill-opacity:0.3;stroke:#7f7f7f;stroke-opacity:0.3;" x="0" xlink:href="#md6d24abc2e" y="345.6"/>
    </g>
   </g>
   <g id="PolyCollection_9">
    <defs>
     <path d="M 157.835354 -193.28962 
L 148.017355 -193.28962 
L 166.802959 -175.479074 
L 170.493539 -157.857943 
L 171.012075 -144.74709 
L 176.014006 -125.47567 
L 175.760438 -104.949968 
L 177.806667 -95.731447 
L 179.706366 -88.60536 
L 180.539276 -84.643074 
L 183.308042 -84.363476 
L 188.436807 -82.83663 
L 191.892574 -81.523147 
L 195.923593 -83.532688 
L 202.454746 -82.686306 
L 210.467219 -84.939694 
L 221.552864 -84.555267 
L 231.040297 -80.504917 
L 245.55736 -82.21646 
L 258.950619 -85.966805 
L 266.305239 -81.823772 
L 278.158023 -81.867268 
L 286.439623 -80.791734 
L 298.167352 -82.583119 
L 308.111067 -80.34875 
L 321.443331 -83.633675 
L 334.98911 -81.484514 
L 350.976276 -79.175428 
L 365.492343 -84.580962 
L 380.904354 -82.144073 
L 397.320433 -80.446717 
L 413.826151 -80.484237 
L 413.826151 -80.484237 
L 413.826151 -80.484237 
L 399.011261 -80.446717 
L 386.248607 -82.144073 
L 369.238245 -84.580962 
L 352.332196 -79.175428 
L 339.591497 -81.484514 
L 325.018962 -83.633675 
L 319.649555 -80.34875 
L 306.402077 -82.583119 
L 296.393288 -80.791734 
L 285.068593 -81.867268 
L 271.639129 -81.823772 
L 260.465705 -85.966805 
L 246.788367 -82.21646 
L 232.953848 -80.504917 
L 223.018166 -84.555267 
L 214.183253 -84.939694 
L 203.620674 -82.686306 
L 198.106658 -83.532688 
L 194.001468 -81.523147 
L 190.912978 -82.83663 
L 184.57926 -84.363476 
L 185.865497 -84.643074 
L 185.049135 -88.60536 
L 180.276902 -95.731447 
L 180.117271 -104.949968 
L 178.925669 -125.47567 
L 172.776182 -144.74709 
L 175.314192 -157.857943 
L 169.081648 -175.479074 
L 157.835354 -193.28962 
z
" id="m2acfdd1ee8" style="stroke:#bcbd22;stroke-opacity:0.3;"/>
    </defs>
    <g clip-path="url(#pd28ee735ad)">
     <use style="fill:#bcbd22;fill-opacity:0.3;stroke:#bcbd22;stroke-opacity:0.3;" x="0" xlink:href="#m2acfdd1ee8" y="345.6"/>
    </g>
   </g>
   <g id="PolyCollection_10">
    <defs>
     <path d="M 209.923695 -149.740092 
L 195.281273 -149.740092 
L 198.526369 -134.162928 
L 197.23079 -129.243833 
L 194.819969 -125.738511 
L 197.380497 -120.389055 
L 196.61839 -114.584846 
L 198.588494 -109.096366 
L 200.474483 -103.465702 
L 201.240477 -97.90113 
L 203.576459 -92.364829 
L 207.023283 -87.323774 
L 212.452983 -82.683004 
L 219.320437 -78.352621 
L 226.695393 -74.633282 
L 236.380093 -71.404402 
L 249.754549 -68.662191 
L 261.079542 -66.480426 
L 275.832374 -64.690465 
L 291.358855 -63.126464 
L 308.067123 -62.027866 
L 330.036776 -61.220138 
L 352.160381 -60.812214 
L 368.284453 -60.571058 
L 383.560216 -60.451962 
L 399.063241 -60.41452 
L 431.049278 -60.394392 
L 431.049278 -60.394392 
L 431.049278 -60.394392 
L 406.730072 -60.41452 
L 386.39837 -60.451962 
L 370.939011 -60.571058 
L 353.855444 -60.812214 
L 336.901044 -61.220138 
L 311.90284 -62.027866 
L 292.857344 -63.126464 
L 278.431056 -64.690465 
L 264.082914 -66.480426 
L 251.888346 -68.662191 
L 242.394046 -71.404402 
L 229.401589 -74.633282 
L 223.437954 -78.352621 
L 215.011814 -82.683004 
L 209.810816 -87.323774 
L 208.731539 -92.364829 
L 202.954276 -97.90113 
L 205.082356 -103.465702 
L 200.976707 -109.096366 
L 200.844822 -114.584846 
L 200.555113 -120.389055 
L 198.91325 -125.738511 
L 202.540921 -129.243833 
L 200.276304 -134.162928 
L 209.923695 -149.740092 
z
" id="mc21889c761" style="stroke:#17becf;stroke-opacity:0.3;"/>
    </defs>
    <g clip-path="url(#pd28ee735ad)">
     <use style="fill:#17becf;fill-opacity:0.3;stroke:#17becf;stroke-opacity:0.3;" x="0" xlink:href="#mc21889c761" y="345.6"/>
    </g>
   </g>
   <g id="PolyCollection_11">
    <defs>
     <path d="M 238.840036 -149.740092 
L 226.747784 -149.740092 
L 227.497989 -134.162928 
L 227.483752 -128.138214 
L 227.456023 -123.283351 
L 229.418536 -114.98491 
L 230.36765 -105.432449 
L 229.544737 -96.604147 
L 230.921232 -88.00113 
L 233.139356 -80.018067 
L 235.592749 -73.098123 
L 239.300215 -67.857358 
L 245.37269 -64.317269 
L 251.379999 -61.915281 
L 259.925567 -60.833611 
L 269.020415 -60.468159 
L 280.563298 -60.401995 
L 294.312086 -60.387598 
L 307.299858 -60.385589 
L 319.550898 -60.385127 
L 335.798124 -60.385101 
L 349.935017 -60.385102 
L 366.740908 -60.385093 
L 383.961731 -60.385091 
L 401.440887 -60.385091 
L 402.639989 -60.385091 
L 402.639989 -60.385091 
L 385.375158 -60.385091 
L 368.019075 -60.385093 
L 352.146872 -60.385102 
L 338.341428 -60.385101 
L 323.205997 -60.385127 
L 309.474933 -60.385589 
L 295.773309 -60.387598 
L 281.123137 -60.401995 
L 270.995702 -60.468159 
L 262.647323 -60.833611 
L 253.824673 -61.915281 
L 250.969579 -64.317269 
L 240.525422 -67.857358 
L 237.952547 -73.098123 
L 235.128653 -80.018067 
L 233.948999 -88.00113 
L 232.511668 -96.604147 
L 232.107917 -105.432449 
L 231.475818 -114.98491 
L 230.491636 -123.283351 
L 229.008595 -128.138214 
L 230.038311 -134.162928 
L 238.840036 -149.740092 
z
" id="m35fbb38288" style="stroke:#1f77b4;stroke-opacity:0.3;"/>
    </defs>
    <g clip-path="url(#pd28ee735ad)">
     <use style="fill:#1f77b4;fill-opacity:0.3;stroke:#1f77b4;stroke-opacity:0.3;" x="0" xlink:href="#m35fbb38288" y="345.6"/>
    </g>
   </g>
   <g id="PolyCollection_12">
    <defs>
     <path d="M 253.62654 -149.740092 
L 240.785501 -149.740092 
L 252.242012 -134.162928 
L 262.895645 -129.243833 
L 271.153032 -125.738511 
L 283.516913 -120.389055 
L 296.513158 -114.584846 
L 310.823574 -109.096366 
L 325.743324 -103.465702 
L 341.118446 -97.90113 
L 357.03117 -92.364829 
L 371.723903 -87.323774 
L 388.037761 -82.683004 
L 405.901654 -78.352621 
L 408.083447 -78.352621 
L 408.083447 -78.352621 
L 389.003731 -82.683004 
L 372.705387 -87.323774 
L 360.052221 -92.364829 
L 342.735445 -97.90113 
L 327.679649 -103.465702 
L 312.959197 -109.096366 
L 305.981282 -114.584846 
L 288.235019 -120.389055 
L 274.748287 -125.738511 
L 267.779733 -129.243833 
L 264.357758 -134.162928 
L 253.62654 -149.740092 
z
" id="mfb3a2fe268" style="stroke:#ff7f0e;stroke-opacity:0.3;"/>
    </defs>
    <g clip-path="url(#pd28ee735ad)">
     <use style="fill:#ff7f0e;fill-opacity:0.3;stroke:#ff7f0e;stroke-opacity:0.3;" x="0" xlink:href="#mfb3a2fe268" y="345.6"/>
    </g>
   </g>
   <g id="PolyCollection_13">
    <defs>
     <path d="M 159.103691 -172.832507 
L 147.862984 -172.832507 
L 148.543094 -146.535328 
L 154.557868 -129.37503 
L 155.37519 -117.893192 
L 157.668729 -101.999914 
L 167.078579 -86.775822 
L 172.691262 -76.19064 
L 182.216011 -69.082469 
L 189.965067 -64.922404 
L 201.578337 -62.219334 
L 215.494021 -60.970283 
L 229.954435 -60.514595 
L 244.763628 -60.398493 
L 260.582427 -60.387373 
L 271.650272 -60.385447 
L 283.750155 -60.385136 
L 297.679304 -60.385095 
L 311.001886 -60.385091 
L 325.76799 -60.385091 
L 341.256741 -60.385091 
L 353.538458 -60.385091 
L 368.14527 -60.385091 
L 383.431973 -60.385091 
L 396.43526 -60.385091 
L 414.736564 -60.385091 
L 414.736564 -60.385091 
L 414.736564 -60.385091 
L 400.306527 -60.385091 
L 387.922727 -60.385091 
L 368.994961 -60.385091 
L 355.9151 -60.385091 
L 343.364066 -60.385091 
L 326.690749 -60.385091 
L 312.299723 -60.385091 
L 299.994338 -60.385095 
L 285.627991 -60.385136 
L 272.957501 -60.385447 
L 262.430814 -60.387373 
L 246.928708 -60.398493 
L 232.320518 -60.514595 
L 217.933187 -60.970283 
L 209.429117 -62.219334 
L 195.662605 -64.922404 
L 187.219072 -69.082469 
L 178.287807 -76.19064 
L 174.242261 -86.775822 
L 176.234975 -101.999914 
L 165.4398 -117.893192 
L 160.25901 -129.37503 
L 154.515147 -146.535328 
L 159.103691 -172.832507 
z
" id="m3e97aabeec" style="stroke:#2ca02c;stroke-opacity:0.3;"/>
    </defs>
    <g clip-path="url(#pd28ee735ad)">
     <use style="fill:#2ca02c;fill-opacity:0.3;stroke:#2ca02c;stroke-opacity:0.3;" x="0" xlink:href="#m3e97aabeec" y="345.6"/>
    </g>
   </g>
   <g id="PolyCollection_14">
    <defs>
     <path d="M 381.009452 -172.832507 
L 372.703506 -172.832507 
L 408.011708 -146.535328 
L 407.612261 -128.969378 
L 407.665729 -119.091319 
L 408.103952 -119.091319 
L 408.103952 -119.091319 
L 408.746435 -128.969378 
L 412.555202 -146.535328 
L 381.009452 -172.832507 
z
" id="m24c3111178" style="stroke:#d62728;stroke-opacity:0.3;"/>
    </defs>
    <g clip-path="url(#pd28ee735ad)">
     <use style="fill:#d62728;fill-opacity:0.3;stroke:#d62728;stroke-opacity:0.3;" x="0" xlink:href="#m24c3111178" y="345.6"/>
    </g>
   </g>
   <g id="matplotlib.axis_1">
    <g id="xtick_1">
     <g id="line2d_1">
      <defs>
       <path d="M 0 0 
L 0 3.5 
" id="mb58adb7f57" style="stroke:#000000;stroke-width:0.8;"/>
      </defs>
      <g>
       <use style="stroke:#000000;stroke-width:0.8;" x="131.899638" xlink:href="#mb58adb7f57" y="296.728"/>
      </g>
     </g>
     <g id="text_1">
      <!-- $\mathdefault{10^{-2}}$ -->
      <g transform="translate(120.149638 311.326437)scale(0.1 -0.1)">
       <defs>
        <path d="M 12.40625 8.296875 
L 28.515625 8.296875 
L 28.515625 63.921875 
L 10.984375 60.40625 
L 10.984375 69.390625 
L 28.421875 72.90625 
L 38.28125 72.90625 
L 38.28125 8.296875 
L 54.390625 8.296875 
L 54.390625 0 
L 12.40625 0 
z
" id="DejaVuSans-49"/>
        <path d="M 31.78125 66.40625 
Q 24.171875 66.40625 20.328125 58.90625 
Q 16.5 51.421875 16.5 36.375 
Q 16.5 21.390625 20.328125 13.890625 
Q 24.171875 6.390625 31.78125 6.390625 
Q 39.453125 6.390625 43.28125 13.890625 
Q 47.125 21.390625 47.125 36.375 
Q 47.125 51.421875 43.28125 58.90625 
Q 39.453125 66.40625 31.78125 66.40625 
z
M 31.78125 74.21875 
Q 44.046875 74.21875 50.515625 64.515625 
Q 56.984375 54.828125 56.984375 36.375 
Q 56.984375 17.96875 50.515625 8.265625 
Q 44.046875 -1.421875 31.78125 -1.421875 
Q 19.53125 -1.421875 13.0625 8.265625 
Q 6.59375 17.96875 6.59375 36.375 
Q 6.59375 54.828125 13.0625 64.515625 
Q 19.53125 74.21875 31.78125 74.21875 
z
" id="DejaVuSans-48"/>
        <path d="M 10.59375 35.5 
L 73.1875 35.5 
L 73.1875 27.203125 
L 10.59375 27.203125 
z
" id="DejaVuSans-8722"/>
        <path d="M 19.1875 8.296875 
L 53.609375 8.296875 
L 53.609375 0 
L 7.328125 0 
L 7.328125 8.296875 
Q 12.9375 14.109375 22.625 23.890625 
Q 32.328125 33.6875 34.8125 36.53125 
Q 39.546875 41.84375 41.421875 45.53125 
Q 43.3125 49.21875 43.3125 52.78125 
Q 43.3125 58.59375 39.234375 62.25 
Q 35.15625 65.921875 28.609375 65.921875 
Q 23.96875 65.921875 18.8125 64.3125 
Q 13.671875 62.703125 7.8125 59.421875 
L 7.8125 69.390625 
Q 13.765625 71.78125 18.9375 73 
Q 24.125 74.21875 28.421875 74.21875 
Q 39.75 74.21875 46.484375 68.546875 
Q 53.21875 62.890625 53.21875 53.421875 
Q 53.21875 48.921875 51.53125 44.890625 
Q 49.859375 40.875 45.40625 35.40625 
Q 44.1875 33.984375 37.640625 27.21875 
Q 31.109375 20.453125 19.1875 8.296875 
z
" id="DejaVuSans-50"/>
       </defs>
       <use transform="translate(0 0.765625)" xlink:href="#DejaVuSans-49"/>
       <use transform="translate(63.623047 0.765625)" xlink:href="#DejaVuSans-48"/>
       <use transform="translate(128.203125 39.046875)scale(0.7)" xlink:href="#DejaVuSans-8722"/>
       <use transform="translate(186.855469 39.046875)scale(0.7)" xlink:href="#DejaVuSans-50"/>
      </g>
     </g>
    </g>
    <g id="xtick_2">
     <g id="line2d_2">
      <g>
       <use style="stroke:#000000;stroke-width:0.8;" x="229.249948" xlink:href="#mb58adb7f57" y="296.728"/>
      </g>
     </g>
     <g id="text_2">
      <!-- $\mathdefault{10^{-1}}$ -->
      <g transform="translate(217.499948 311.326437)scale(0.1 -0.1)">
       <use transform="translate(0 0.684375)" xlink:href="#DejaVuSans-49"/>
       <use transform="translate(63.623047 0.684375)" xlink:href="#DejaVuSans-48"/>
       <use transform="translate(128.203125 38.965625)scale(0.7)" xlink:href="#DejaVuSans-8722"/>
       <use transform="translate(186.855469 38.965625)scale(0.7)" xlink:href="#DejaVuSans-49"/>
      </g>
     </g>
    </g>
    <g id="xtick_3">
     <g id="line2d_3">
      <g>
       <use style="stroke:#000000;stroke-width:0.8;" x="326.600258" xlink:href="#mb58adb7f57" y="296.728"/>
      </g>
     </g>
     <g id="text_3">
      <!-- $\mathdefault{10^{0}}$ -->
      <g transform="translate(317.800258 311.326437)scale(0.1 -0.1)">
       <use transform="translate(0 0.765625)" xlink:href="#DejaVuSans-49"/>
       <use transform="translate(63.623047 0.765625)" xlink:href="#DejaVuSans-48"/>
       <use transform="translate(128.203125 39.046875)scale(0.7)" xlink:href="#DejaVuSans-48"/>
      </g>
     </g>
    </g>
    <g id="xtick_4">
     <g id="line2d_4">
      <g>
       <use style="stroke:#000000;stroke-width:0.8;" x="423.950568" xlink:href="#mb58adb7f57" y="296.728"/>
      </g>
     </g>
     <g id="text_4">
      <!-- $\mathdefault{10^{1}}$ -->
      <g transform="translate(415.150568 311.326437)scale(0.1 -0.1)">
       <use transform="translate(0 0.684375)" xlink:href="#DejaVuSans-49"/>
       <use transform="translate(63.623047 0.684375)" xlink:href="#DejaVuSans-48"/>
       <use transform="translate(128.203125 38.965625)scale(0.7)" xlink:href="#DejaVuSans-49"/>
      </g>
     </g>
    </g>
    <g id="xtick_5">
     <g id="line2d_5">
      <defs>
       <path d="M 0 0 
L 0 2 
" id="m2685844c2f" style="stroke:#000000;stroke-width:0.6;"/>
      </defs>
      <g>
       <use style="stroke:#000000;stroke-width:0.6;" x="80.99723" xlink:href="#m2685844c2f" y="296.728"/>
      </g>
     </g>
    </g>
    <g id="xtick_6">
     <g id="line2d_6">
      <g>
       <use style="stroke:#000000;stroke-width:0.6;" x="93.160054" xlink:href="#m2685844c2f" y="296.728"/>
      </g>
     </g>
    </g>
    <g id="xtick_7">
     <g id="line2d_7">
      <g>
       <use style="stroke:#000000;stroke-width:0.6;" x="102.594274" xlink:href="#m2685844c2f" y="296.728"/>
      </g>
     </g>
    </g>
    <g id="xtick_8">
     <g id="line2d_8">
      <g>
       <use style="stroke:#000000;stroke-width:0.6;" x="110.302593" xlink:href="#m2685844c2f" y="296.728"/>
      </g>
     </g>
    </g>
    <g id="xtick_9">
     <g id="line2d_9">
      <g>
       <use style="stroke:#000000;stroke-width:0.6;" x="116.819884" xlink:href="#m2685844c2f" y="296.728"/>
      </g>
     </g>
    </g>
    <g id="xtick_10">
     <g id="line2d_10">
      <g>
       <use style="stroke:#000000;stroke-width:0.6;" x="122.465418" xlink:href="#m2685844c2f" y="296.728"/>
      </g>
     </g>
    </g>
    <g id="xtick_11">
     <g id="line2d_11">
      <g>
       <use style="stroke:#000000;stroke-width:0.6;" x="127.445132" xlink:href="#m2685844c2f" y="296.728"/>
      </g>
     </g>
    </g>
    <g id="xtick_12">
     <g id="line2d_12">
      <g>
       <use style="stroke:#000000;stroke-width:0.6;" x="161.205001" xlink:href="#m2685844c2f" y="296.728"/>
      </g>
     </g>
    </g>
    <g id="xtick_13">
     <g id="line2d_13">
      <g>
       <use style="stroke:#000000;stroke-width:0.6;" x="178.34754" xlink:href="#m2685844c2f" y="296.728"/>
      </g>
     </g>
    </g>
    <g id="xtick_14">
     <g id="line2d_14">
      <g>
       <use style="stroke:#000000;stroke-width:0.6;" x="190.510365" xlink:href="#m2685844c2f" y="296.728"/>
      </g>
     </g>
    </g>
    <g id="xtick_15">
     <g id="line2d_15">
      <g>
       <use style="stroke:#000000;stroke-width:0.6;" x="199.944584" xlink:href="#m2685844c2f" y="296.728"/>
      </g>
     </g>
    </g>
    <g id="xtick_16">
     <g id="line2d_16">
      <g>
       <use style="stroke:#000000;stroke-width:0.6;" x="207.652903" xlink:href="#m2685844c2f" y="296.728"/>
      </g>
     </g>
    </g>
    <g id="xtick_17">
     <g id="line2d_17">
      <g>
       <use style="stroke:#000000;stroke-width:0.6;" x="214.170194" xlink:href="#m2685844c2f" y="296.728"/>
      </g>
     </g>
    </g>
    <g id="xtick_18">
     <g id="line2d_18">
      <g>
       <use style="stroke:#000000;stroke-width:0.6;" x="219.815728" xlink:href="#m2685844c2f" y="296.728"/>
      </g>
     </g>
    </g>
    <g id="xtick_19">
     <g id="line2d_19">
      <g>
       <use style="stroke:#000000;stroke-width:0.6;" x="224.795442" xlink:href="#m2685844c2f" y="296.728"/>
      </g>
     </g>
    </g>
    <g id="xtick_20">
     <g id="line2d_20">
      <g>
       <use style="stroke:#000000;stroke-width:0.6;" x="258.555311" xlink:href="#m2685844c2f" y="296.728"/>
      </g>
     </g>
    </g>
    <g id="xtick_21">
     <g id="line2d_21">
      <g>
       <use style="stroke:#000000;stroke-width:0.6;" x="275.69785" xlink:href="#m2685844c2f" y="296.728"/>
      </g>
     </g>
    </g>
    <g id="xtick_22">
     <g id="line2d_22">
      <g>
       <use style="stroke:#000000;stroke-width:0.6;" x="287.860675" xlink:href="#m2685844c2f" y="296.728"/>
      </g>
     </g>
    </g>
    <g id="xtick_23">
     <g id="line2d_23">
      <g>
       <use style="stroke:#000000;stroke-width:0.6;" x="297.294894" xlink:href="#m2685844c2f" y="296.728"/>
      </g>
     </g>
    </g>
    <g id="xtick_24">
     <g id="line2d_24">
      <g>
       <use style="stroke:#000000;stroke-width:0.6;" x="305.003213" xlink:href="#m2685844c2f" y="296.728"/>
      </g>
     </g>
    </g>
    <g id="xtick_25">
     <g id="line2d_25">
      <g>
       <use style="stroke:#000000;stroke-width:0.6;" x="311.520504" xlink:href="#m2685844c2f" y="296.728"/>
      </g>
     </g>
    </g>
    <g id="xtick_26">
     <g id="line2d_26">
      <g>
       <use style="stroke:#000000;stroke-width:0.6;" x="317.166038" xlink:href="#m2685844c2f" y="296.728"/>
      </g>
     </g>
    </g>
    <g id="xtick_27">
     <g id="line2d_27">
      <g>
       <use style="stroke:#000000;stroke-width:0.6;" x="322.145752" xlink:href="#m2685844c2f" y="296.728"/>
      </g>
     </g>
    </g>
    <g id="xtick_28">
     <g id="line2d_28">
      <g>
       <use style="stroke:#000000;stroke-width:0.6;" x="355.905621" xlink:href="#m2685844c2f" y="296.728"/>
      </g>
     </g>
    </g>
    <g id="xtick_29">
     <g id="line2d_29">
      <g>
       <use style="stroke:#000000;stroke-width:0.6;" x="373.04816" xlink:href="#m2685844c2f" y="296.728"/>
      </g>
     </g>
    </g>
    <g id="xtick_30">
     <g id="line2d_30">
      <g>
       <use style="stroke:#000000;stroke-width:0.6;" x="385.210985" xlink:href="#m2685844c2f" y="296.728"/>
      </g>
     </g>
    </g>
    <g id="xtick_31">
     <g id="line2d_31">
      <g>
       <use style="stroke:#000000;stroke-width:0.6;" x="394.645204" xlink:href="#m2685844c2f" y="296.728"/>
      </g>
     </g>
    </g>
    <g id="xtick_32">
     <g id="line2d_32">
      <g>
       <use style="stroke:#000000;stroke-width:0.6;" x="402.353523" xlink:href="#m2685844c2f" y="296.728"/>
      </g>
     </g>
    </g>
    <g id="xtick_33">
     <g id="line2d_33">
      <g>
       <use style="stroke:#000000;stroke-width:0.6;" x="408.870814" xlink:href="#m2685844c2f" y="296.728"/>
      </g>
     </g>
    </g>
    <g id="xtick_34">
     <g id="line2d_34">
      <g>
       <use style="stroke:#000000;stroke-width:0.6;" x="414.516348" xlink:href="#m2685844c2f" y="296.728"/>
      </g>
     </g>
    </g>
    <g id="xtick_35">
     <g id="line2d_35">
      <g>
       <use style="stroke:#000000;stroke-width:0.6;" x="419.496062" xlink:href="#m2685844c2f" y="296.728"/>
      </g>
     </g>
    </g>
    <g id="text_5">
     <!-- Time [sec] -->
     <g transform="translate(224.481809 328.043937)scale(0.14 -0.14)">
      <defs>
       <path d="M -0.296875 72.90625 
L 61.375 72.90625 
L 61.375 64.59375 
L 35.5 64.59375 
L 35.5 0 
L 25.59375 0 
L 25.59375 64.59375 
L -0.296875 64.59375 
z
" id="DejaVuSans-84"/>
       <path d="M 9.421875 54.6875 
L 18.40625 54.6875 
L 18.40625 0 
L 9.421875 0 
z
M 9.421875 75.984375 
L 18.40625 75.984375 
L 18.40625 64.59375 
L 9.421875 64.59375 
z
" id="DejaVuSans-105"/>
       <path d="M 52 44.1875 
Q 55.375 50.25 60.0625 53.125 
Q 64.75 56 71.09375 56 
Q 79.640625 56 84.28125 50.015625 
Q 88.921875 44.046875 88.921875 33.015625 
L 88.921875 0 
L 79.890625 0 
L 79.890625 32.71875 
Q 79.890625 40.578125 77.09375 44.375 
Q 74.3125 48.1875 68.609375 48.1875 
Q 61.625 48.1875 57.5625 43.546875 
Q 53.515625 38.921875 53.515625 30.90625 
L 53.515625 0 
L 44.484375 0 
L 44.484375 32.71875 
Q 44.484375 40.625 41.703125 44.40625 
Q 38.921875 48.1875 33.109375 48.1875 
Q 26.21875 48.1875 22.15625 43.53125 
Q 18.109375 38.875 18.109375 30.90625 
L 18.109375 0 
L 9.078125 0 
L 9.078125 54.6875 
L 18.109375 54.6875 
L 18.109375 46.1875 
Q 21.1875 51.21875 25.484375 53.609375 
Q 29.78125 56 35.6875 56 
Q 41.65625 56 45.828125 52.96875 
Q 50 49.953125 52 44.1875 
z
" id="DejaVuSans-109"/>
       <path d="M 56.203125 29.59375 
L 56.203125 25.203125 
L 14.890625 25.203125 
Q 15.484375 15.921875 20.484375 11.0625 
Q 25.484375 6.203125 34.421875 6.203125 
Q 39.59375 6.203125 44.453125 7.46875 
Q 49.3125 8.734375 54.109375 11.28125 
L 54.109375 2.78125 
Q 49.265625 0.734375 44.1875 -0.34375 
Q 39.109375 -1.421875 33.890625 -1.421875 
Q 20.796875 -1.421875 13.15625 6.1875 
Q 5.515625 13.8125 5.515625 26.8125 
Q 5.515625 40.234375 12.765625 48.109375 
Q 20.015625 56 32.328125 56 
Q 43.359375 56 49.78125 48.890625 
Q 56.203125 41.796875 56.203125 29.59375 
z
M 47.21875 32.234375 
Q 47.125 39.59375 43.09375 43.984375 
Q 39.0625 48.390625 32.421875 48.390625 
Q 24.90625 48.390625 20.390625 44.140625 
Q 15.875 39.890625 15.1875 32.171875 
z
" id="DejaVuSans-101"/>
       <path id="DejaVuSans-32"/>
       <path d="M 8.59375 75.984375 
L 29.296875 75.984375 
L 29.296875 69 
L 17.578125 69 
L 17.578125 -6.203125 
L 29.296875 -6.203125 
L 29.296875 -13.1875 
L 8.59375 -13.1875 
z
" id="DejaVuSans-91"/>
       <path d="M 44.28125 53.078125 
L 44.28125 44.578125 
Q 40.484375 46.53125 36.375 47.5 
Q 32.28125 48.484375 27.875 48.484375 
Q 21.1875 48.484375 17.84375 46.4375 
Q 14.5 44.390625 14.5 40.28125 
Q 14.5 37.15625 16.890625 35.375 
Q 19.28125 33.59375 26.515625 31.984375 
L 29.59375 31.296875 
Q 39.15625 29.25 43.1875 25.515625 
Q 47.21875 21.78125 47.21875 15.09375 
Q 47.21875 7.46875 41.1875 3.015625 
Q 35.15625 -1.421875 24.609375 -1.421875 
Q 20.21875 -1.421875 15.453125 -0.5625 
Q 10.6875 0.296875 5.421875 2 
L 5.421875 11.28125 
Q 10.40625 8.6875 15.234375 7.390625 
Q 20.0625 6.109375 24.8125 6.109375 
Q 31.15625 6.109375 34.5625 8.28125 
Q 37.984375 10.453125 37.984375 14.40625 
Q 37.984375 18.0625 35.515625 20.015625 
Q 33.0625 21.96875 24.703125 23.78125 
L 21.578125 24.515625 
Q 13.234375 26.265625 9.515625 29.90625 
Q 5.8125 33.546875 5.8125 39.890625 
Q 5.8125 47.609375 11.28125 51.796875 
Q 16.75 56 26.8125 56 
Q 31.78125 56 36.171875 55.265625 
Q 40.578125 54.546875 44.28125 53.078125 
z
" id="DejaVuSans-115"/>
       <path d="M 48.78125 52.59375 
L 48.78125 44.1875 
Q 44.96875 46.296875 41.140625 47.34375 
Q 37.3125 48.390625 33.40625 48.390625 
Q 24.65625 48.390625 19.8125 42.84375 
Q 14.984375 37.3125 14.984375 27.296875 
Q 14.984375 17.28125 19.8125 11.734375 
Q 24.65625 6.203125 33.40625 6.203125 
Q 37.3125 6.203125 41.140625 7.25 
Q 44.96875 8.296875 48.78125 10.40625 
L 48.78125 2.09375 
Q 45.015625 0.34375 40.984375 -0.53125 
Q 36.96875 -1.421875 32.421875 -1.421875 
Q 20.0625 -1.421875 12.78125 6.34375 
Q 5.515625 14.109375 5.515625 27.296875 
Q 5.515625 40.671875 12.859375 48.328125 
Q 20.21875 56 33.015625 56 
Q 37.15625 56 41.109375 55.140625 
Q 45.0625 54.296875 48.78125 52.59375 
z
" id="DejaVuSans-99"/>
       <path d="M 30.421875 75.984375 
L 30.421875 -13.1875 
L 9.71875 -13.1875 
L 9.71875 -6.203125 
L 21.390625 -6.203125 
L 21.390625 69 
L 9.71875 69 
L 9.71875 75.984375 
z
" id="DejaVuSans-93"/>
      </defs>
      <use xlink:href="#DejaVuSans-84"/>
      <use x="57.958984" xlink:href="#DejaVuSans-105"/>
      <use x="85.742188" xlink:href="#DejaVuSans-109"/>
      <use x="183.154297" xlink:href="#DejaVuSans-101"/>
      <use x="244.677734" xlink:href="#DejaVuSans-32"/>
      <use x="276.464844" xlink:href="#DejaVuSans-91"/>
      <use x="315.478516" xlink:href="#DejaVuSans-115"/>
      <use x="367.578125" xlink:href="#DejaVuSans-101"/>
      <use x="429.101562" xlink:href="#DejaVuSans-99"/>
      <use x="484.082031" xlink:href="#DejaVuSans-93"/>
     </g>
    </g>
   </g>
   <g id="matplotlib.axis_2">
    <g id="ytick_1">
     <g id="line2d_36">
      <defs>
       <path d="M 0 0 
L -3.5 0 
" id="m270527980c" style="stroke:#000000;stroke-width:0.8;"/>
      </defs>
      <g>
       <use style="stroke:#000000;stroke-width:0.8;" x="72.196742" xlink:href="#m270527980c" y="62.678534"/>
      </g>
     </g>
     <g id="text_6">
      <!-- $\mathdefault{10^{5}}$ -->
      <g transform="translate(47.596742 66.477753)scale(0.1 -0.1)">
       <defs>
        <path d="M 10.796875 72.90625 
L 49.515625 72.90625 
L 49.515625 64.59375 
L 19.828125 64.59375 
L 19.828125 46.734375 
Q 21.96875 47.46875 24.109375 47.828125 
Q 26.265625 48.1875 28.421875 48.1875 
Q 40.625 48.1875 47.75 41.5 
Q 54.890625 34.8125 54.890625 23.390625 
Q 54.890625 11.625 47.5625 5.09375 
Q 40.234375 -1.421875 26.90625 -1.421875 
Q 22.3125 -1.421875 17.546875 -0.640625 
Q 12.796875 0.140625 7.71875 1.703125 
L 7.71875 11.625 
Q 12.109375 9.234375 16.796875 8.0625 
Q 21.484375 6.890625 26.703125 6.890625 
Q 35.15625 6.890625 40.078125 11.328125 
Q 45.015625 15.765625 45.015625 23.390625 
Q 45.015625 31 40.078125 35.4375 
Q 35.15625 39.890625 26.703125 39.890625 
Q 22.75 39.890625 18.8125 39.015625 
Q 14.890625 38.140625 10.796875 36.28125 
z
" id="DejaVuSans-53"/>
       </defs>
       <use transform="translate(0 0.684375)" xlink:href="#DejaVuSans-49"/>
       <use transform="translate(63.623047 0.684375)" xlink:href="#DejaVuSans-48"/>
       <use transform="translate(128.203125 38.965625)scale(0.7)" xlink:href="#DejaVuSans-53"/>
      </g>
     </g>
    </g>
    <g id="ytick_2">
     <g id="line2d_37">
      <defs>
       <path d="M 0 0 
L -2 0 
" id="m38a2643934" style="stroke:#000000;stroke-width:0.6;"/>
      </defs>
      <g>
       <use style="stroke:#000000;stroke-width:0.6;" x="72.196742" xlink:href="#m38a2643934" y="241.650008"/>
      </g>
     </g>
     <g id="text_7">
      <!-- $\mathdefault{2\times10^{4}}$ -->
      <g transform="translate(30.596742 245.449227)scale(0.1 -0.1)">
       <defs>
        <path d="M 70.125 53.71875 
L 47.796875 31.296875 
L 70.125 8.984375 
L 64.3125 3.078125 
L 41.890625 25.484375 
L 19.484375 3.078125 
L 13.71875 8.984375 
L 35.984375 31.296875 
L 13.71875 53.71875 
L 19.484375 59.625 
L 41.890625 37.203125 
L 64.3125 59.625 
z
" id="DejaVuSans-215"/>
        <path d="M 37.796875 64.3125 
L 12.890625 25.390625 
L 37.796875 25.390625 
z
M 35.203125 72.90625 
L 47.609375 72.90625 
L 47.609375 25.390625 
L 58.015625 25.390625 
L 58.015625 17.1875 
L 47.609375 17.1875 
L 47.609375 0 
L 37.796875 0 
L 37.796875 17.1875 
L 4.890625 17.1875 
L 4.890625 26.703125 
z
" id="DejaVuSans-52"/>
       </defs>
       <use transform="translate(0 0.684375)" xlink:href="#DejaVuSans-50"/>
       <use transform="translate(83.105469 0.684375)" xlink:href="#DejaVuSans-215"/>
       <use transform="translate(186.376953 0.684375)" xlink:href="#DejaVuSans-49"/>
       <use transform="translate(250 0.684375)" xlink:href="#DejaVuSans-48"/>
       <use transform="translate(314.580078 38.965625)scale(0.7)" xlink:href="#DejaVuSans-52"/>
      </g>
     </g>
    </g>
    <g id="ytick_3">
     <g id="line2d_38">
      <g>
       <use style="stroke:#000000;stroke-width:0.6;" x="72.196742" xlink:href="#m38a2643934" y="196.56179"/>
      </g>
     </g>
     <g id="text_8">
      <!-- $\mathdefault{3\times10^{4}}$ -->
      <g transform="translate(30.596742 200.361009)scale(0.1 -0.1)">
       <defs>
        <path d="M 40.578125 39.3125 
Q 47.65625 37.796875 51.625 33 
Q 55.609375 28.21875 55.609375 21.1875 
Q 55.609375 10.40625 48.1875 4.484375 
Q 40.765625 -1.421875 27.09375 -1.421875 
Q 22.515625 -1.421875 17.65625 -0.515625 
Q 12.796875 0.390625 7.625 2.203125 
L 7.625 11.71875 
Q 11.71875 9.328125 16.59375 8.109375 
Q 21.484375 6.890625 26.8125 6.890625 
Q 36.078125 6.890625 40.9375 10.546875 
Q 45.796875 14.203125 45.796875 21.1875 
Q 45.796875 27.640625 41.28125 31.265625 
Q 36.765625 34.90625 28.71875 34.90625 
L 20.21875 34.90625 
L 20.21875 43.015625 
L 29.109375 43.015625 
Q 36.375 43.015625 40.234375 45.921875 
Q 44.09375 48.828125 44.09375 54.296875 
Q 44.09375 59.90625 40.109375 62.90625 
Q 36.140625 65.921875 28.71875 65.921875 
Q 24.65625 65.921875 20.015625 65.03125 
Q 15.375 64.15625 9.8125 62.3125 
L 9.8125 71.09375 
Q 15.4375 72.65625 20.34375 73.4375 
Q 25.25 74.21875 29.59375 74.21875 
Q 40.828125 74.21875 47.359375 69.109375 
Q 53.90625 64.015625 53.90625 55.328125 
Q 53.90625 49.265625 50.4375 45.09375 
Q 46.96875 40.921875 40.578125 39.3125 
z
" id="DejaVuSans-51"/>
       </defs>
       <use transform="translate(0 0.684375)" xlink:href="#DejaVuSans-51"/>
       <use transform="translate(83.105469 0.684375)" xlink:href="#DejaVuSans-215"/>
       <use transform="translate(186.376953 0.684375)" xlink:href="#DejaVuSans-49"/>
       <use transform="translate(250 0.684375)" xlink:href="#DejaVuSans-48"/>
       <use transform="translate(314.580078 38.965625)scale(0.7)" xlink:href="#DejaVuSans-52"/>
      </g>
     </g>
    </g>
    <g id="ytick_4">
     <g id="line2d_39">
      <g>
       <use style="stroke:#000000;stroke-width:0.6;" x="72.196742" xlink:href="#m38a2643934" y="164.57119"/>
      </g>
     </g>
     <g id="text_9">
      <!-- $\mathdefault{4\times10^{4}}$ -->
      <g transform="translate(30.596742 168.370409)scale(0.1 -0.1)">
       <use transform="translate(0 0.684375)" xlink:href="#DejaVuSans-52"/>
       <use transform="translate(83.105469 0.684375)" xlink:href="#DejaVuSans-215"/>
       <use transform="translate(186.376953 0.684375)" xlink:href="#DejaVuSans-49"/>
       <use transform="translate(250 0.684375)" xlink:href="#DejaVuSans-48"/>
       <use transform="translate(314.580078 38.965625)scale(0.7)" xlink:href="#DejaVuSans-52"/>
      </g>
     </g>
    </g>
    <g id="ytick_5">
     <g id="line2d_40">
      <g>
       <use style="stroke:#000000;stroke-width:0.6;" x="72.196742" xlink:href="#m38a2643934" y="139.757353"/>
      </g>
     </g>
    </g>
    <g id="ytick_6">
     <g id="line2d_41">
      <g>
       <use style="stroke:#000000;stroke-width:0.6;" x="72.196742" xlink:href="#m38a2643934" y="119.482971"/>
      </g>
     </g>
     <g id="text_10">
      <!-- $\mathdefault{6\times10^{4}}$ -->
      <g transform="translate(30.596742 123.28219)scale(0.1 -0.1)">
       <defs>
        <path d="M 33.015625 40.375 
Q 26.375 40.375 22.484375 35.828125 
Q 18.609375 31.296875 18.609375 23.390625 
Q 18.609375 15.53125 22.484375 10.953125 
Q 26.375 6.390625 33.015625 6.390625 
Q 39.65625 6.390625 43.53125 10.953125 
Q 47.40625 15.53125 47.40625 23.390625 
Q 47.40625 31.296875 43.53125 35.828125 
Q 39.65625 40.375 33.015625 40.375 
z
M 52.59375 71.296875 
L 52.59375 62.3125 
Q 48.875 64.0625 45.09375 64.984375 
Q 41.3125 65.921875 37.59375 65.921875 
Q 27.828125 65.921875 22.671875 59.328125 
Q 17.53125 52.734375 16.796875 39.40625 
Q 19.671875 43.65625 24.015625 45.921875 
Q 28.375 48.1875 33.59375 48.1875 
Q 44.578125 48.1875 50.953125 41.515625 
Q 57.328125 34.859375 57.328125 23.390625 
Q 57.328125 12.15625 50.6875 5.359375 
Q 44.046875 -1.421875 33.015625 -1.421875 
Q 20.359375 -1.421875 13.671875 8.265625 
Q 6.984375 17.96875 6.984375 36.375 
Q 6.984375 53.65625 15.1875 63.9375 
Q 23.390625 74.21875 37.203125 74.21875 
Q 40.921875 74.21875 44.703125 73.484375 
Q 48.484375 72.75 52.59375 71.296875 
z
" id="DejaVuSans-54"/>
       </defs>
       <use transform="translate(0 0.684375)" xlink:href="#DejaVuSans-54"/>
       <use transform="translate(83.105469 0.684375)" xlink:href="#DejaVuSans-215"/>
       <use transform="translate(186.376953 0.684375)" xlink:href="#DejaVuSans-49"/>
       <use transform="translate(250 0.684375)" xlink:href="#DejaVuSans-48"/>
       <use transform="translate(314.580078 38.965625)scale(0.7)" xlink:href="#DejaVuSans-52"/>
      </g>
     </g>
    </g>
    <g id="ytick_7">
     <g id="line2d_42">
      <g>
       <use style="stroke:#000000;stroke-width:0.6;" x="72.196742" xlink:href="#m38a2643934" y="102.341226"/>
      </g>
     </g>
    </g>
    <g id="ytick_8">
     <g id="line2d_43">
      <g>
       <use style="stroke:#000000;stroke-width:0.6;" x="72.196742" xlink:href="#m38a2643934" y="87.492371"/>
      </g>
     </g>
    </g>
    <g id="ytick_9">
     <g id="line2d_44">
      <g>
       <use style="stroke:#000000;stroke-width:0.6;" x="72.196742" xlink:href="#m38a2643934" y="74.394753"/>
      </g>
     </g>
    </g>
    <g id="text_11">
     <!-- $F(x)$ -->
     <g transform="translate(23.68518 183.734)rotate(-90)scale(0.14 -0.14)">
      <defs>
       <path d="M 16.890625 72.90625 
L 58.6875 72.90625 
L 57.078125 64.59375 
L 25.09375 64.59375 
L 20.90625 43.109375 
L 49.8125 43.109375 
L 48.1875 34.8125 
L 19.28125 34.8125 
L 12.5 0 
L 2.6875 0 
z
" id="DejaVuSans-Oblique-70"/>
       <path d="M 31 75.875 
Q 24.46875 64.65625 21.28125 53.65625 
Q 18.109375 42.671875 18.109375 31.390625 
Q 18.109375 20.125 21.3125 9.0625 
Q 24.515625 -2 31 -13.1875 
L 23.1875 -13.1875 
Q 15.875 -1.703125 12.234375 9.375 
Q 8.59375 20.453125 8.59375 31.390625 
Q 8.59375 42.28125 12.203125 53.3125 
Q 15.828125 64.359375 23.1875 75.875 
z
" id="DejaVuSans-40"/>
       <path d="M 60.015625 54.6875 
L 34.90625 27.875 
L 50.296875 0 
L 39.984375 0 
L 28.421875 21.6875 
L 8.296875 0 
L -2.59375 0 
L 24.3125 28.8125 
L 10.015625 54.6875 
L 20.3125 54.6875 
L 30.8125 34.90625 
L 49.125 54.6875 
z
" id="DejaVuSans-Oblique-120"/>
       <path d="M 8.015625 75.875 
L 15.828125 75.875 
Q 23.140625 64.359375 26.78125 53.3125 
Q 30.421875 42.28125 30.421875 31.390625 
Q 30.421875 20.453125 26.78125 9.375 
Q 23.140625 -1.703125 15.828125 -13.1875 
L 8.015625 -13.1875 
Q 14.5 -2 17.703125 9.0625 
Q 20.90625 20.125 20.90625 31.390625 
Q 20.90625 42.671875 17.703125 53.65625 
Q 14.5 64.65625 8.015625 75.875 
z
" id="DejaVuSans-41"/>
      </defs>
      <use transform="translate(0 0.125)" xlink:href="#DejaVuSans-Oblique-70"/>
      <use transform="translate(57.519531 0.125)" xlink:href="#DejaVuSans-40"/>
      <use transform="translate(96.533203 0.125)" xlink:href="#DejaVuSans-Oblique-120"/>
      <use transform="translate(155.712891 0.125)" xlink:href="#DejaVuSans-41"/>
     </g>
    </g>
   </g>
   <g id="line2d_45">
    <path clip-path="url(#pd28ee735ad)" d="M 267.20812 285.214909 
L 269.092867 285.214909 
L 269.79155 285.214909 
L 268.81045 285.214909 
L 268.893859 285.214909 
L 268.291414 285.214909 
L 268.13494 285.214909 
L 268.524628 285.214909 
L 269.162127 285.214909 
L 267.465491 285.214909 
L 269.281543 285.214909 
L 266.434356 285.214909 
L 267.357044 285.214909 
L 267.135576 285.214909 
L 268.037775 285.214909 
L 268.1537 285.214909 
L 267.179016 285.214909 
L 267.918034 285.214909 
L 267.028219 285.214909 
L 267.195592 285.214909 
L 268.452293 285.214909 
L 267.561812 285.214909 
L 267.370499 285.214909 
L 268.485047 285.214909 
L 268.091182 285.214909 
L 267.468481 285.214909 
L 266.056921 285.214909 
L 267.573931 285.214909 
L 267.510466 285.214909 
L 266.928306 285.214909 
L 267.383998 285.214909 
L 267.203809 285.214909 
L 268.190673 285.214909 
L 265.83116 285.214909 
L 267.242323 285.214909 
L 266.868884 285.214909 
L 266.813798 285.214909 
L 267.618818 285.214909 
L 267.087726 285.214909 
L 267.378171 285.214909 
L 267.269488 285.214909 
L 266.129435 285.214909 
L 264.829993 285.214909 
L 263.636612 285.214909 
L 263.098407 285.214909 
L 261.380456 285.214909 
L 259.93398 285.214909 
L 259.164171 285.214909 
L 257.652094 285.214909 
L 257.683141 285.214909 
L 255.371652 285.214909 
L 253.678231 285.214909 
L 251.716406 285.214909 
L 249.814973 285.214909 
L 246.628757 285.214909 
L 243.109311 285.214908 
L 239.901005 285.214906 
L 238.77949 285.214902 
L 235.77769 285.214893 
L 230.40868 285.21488 
L 220.665412 285.214827 
L 220.630102 285.214753 
L 209.639522 285.214455 
L 205.675172 285.214206 
L 203.65306 285.213554 
L 197.074156 285.212666 
L 191.650977 285.209675 
L 191.515835 285.209036 
L 188.450704 285.200142 
L 178.821519 285.18 
L 175.468557 285.173333 
L 174.368113 285.143609 
L 169.963751 285.1212 
L 162.288261 284.715229 
L 160.074812 284.722376 
L 144.483725 284.012027 
L 142.856416 283.975536 
L 130.313536 283.712221 
L 122.466142 281.428108 
L 90.048889 266.807022 
L 91.983017 266.833315 
" style="fill:none;stroke:#1f77b4;stroke-linecap:square;stroke-width:3;"/>
   </g>
   <g id="line2d_46">
    <path clip-path="url(#pd28ee735ad)" d="M 122.779012 172.767493 
L 120.655608 199.064672 
L 131.757614 216.22497 
L 135.733993 227.706808 
L 143.078248 243.600086 
L 146.936213 258.824178 
L 161.944911 269.40936 
L 172.399405 276.517531 
L 187.575686 280.677596 
L 198.618679 283.380666 
L 213.930667 284.629717 
L 230.146939 285.085405 
L 247.167143 285.201507 
L 261.693848 285.212627 
L 274.686434 285.214553 
L 288.673784 285.214864 
L 301.741484 285.214905 
L 315.496001 285.214909 
L 331.012996 285.214909 
L 347.568244 285.214909 
L 364.511661 285.214909 
L 383.062554 285.214909 
L 409.306324 285.214909 
L 432.827125 285.214909 
" style="fill:none;stroke:#ff7f0e;stroke-linecap:square;stroke-width:3;"/>
   </g>
   <g id="line2d_47">
    <path clip-path="url(#pd28ee735ad)" d="M 146.816871 123.190382 
L 147.62313 195.4857 
L 163.284203 246.502108 
L 158.204126 270.128446 
L 166.965246 282.555065 
L 180.949995 285.188665 
L 204.035195 285.214892 
L 219.291613 285.214909 
L 236.664939 285.214909 
L 249.69657 285.214909 
L 250.525251 285.214909 
L 250.476025 285.214909 
L 249.840737 285.214909 
L 249.391365 285.214909 
" style="fill:none;stroke:#2ca02c;stroke-linecap:square;stroke-width:3;"/>
   </g>
   <g id="line2d_48">
    <path clip-path="url(#pd28ee735ad)" d="M 294.487979 98.218524 
L 308.607646 98.218524 
L 320.228109 98.218524 
L 342.182844 98.218524 
L 376.564993 268.169871 
L 401.131448 285.214909 
L 401.351157 285.214909 
L 403.20432 285.214909 
" style="fill:none;stroke:#d62728;stroke-linecap:square;stroke-width:3;"/>
   </g>
   <g id="line2d_49">
    <path clip-path="url(#pd28ee735ad)" d="M 108.138504 54.953091 
L 105.627137 175.238023 
L 102.370434 215.887756 
L 122.098857 220.436998 
L 111.083994 228.610225 
L 135.230539 237.611037 
L 164.05325 239.704287 
L 185.428486 239.704287 
L 203.527676 261.630781 
L 217.238302 273.339312 
L 231.494119 279.236619 
L 251.79565 283.660857 
L 273.786591 285.012708 
L 297.679186 285.200735 
L 325.974557 285.214716 
L 340.280942 285.214909 
L 369.47795 285.214909 
L 401.164789 285.214909 
L 425.213561 285.214909 
" style="fill:none;stroke:#9467bd;stroke-linecap:square;stroke-width:3;"/>
   </g>
   <g id="line2d_50">
    <path clip-path="url(#pd28ee735ad)" d="M 204.204299 54.953091 
L 196.443332 55.776536 
L 199.118988 55.776536 
L 205.323568 56.555948 
L 193.473239 56.555948 
L 202.323905 57.487573 
L 206.036623 61.454413 
L 207.969704 67.369722 
L 215.232682 88.439188 
L 219.22973 122.205767 
L 231.794379 174.06082 
L 244.493223 218.472863 
L 259.325639 250.631371 
L 280.456508 279.331998 
L 301.385418 284.893618 
L 306.948431 285.214909 
L 306.031779 285.214909 
L 304.148422 285.214909 
L 304.343477 285.214909 
L 303.706575 285.214909 
L 303.143384 285.214909 
" style="fill:none;stroke:#8c564b;stroke-linecap:square;stroke-width:3;"/>
   </g>
   <g id="line2d_51">
    <path clip-path="url(#pd28ee735ad)" d="M 221.140329 195.859908 
L 219.358011 211.437072 
L 222.202682 216.356167 
L 223.46003 219.861489 
L 224.364816 225.210945 
L 226.365789 231.015154 
L 229.2538 236.503634 
L 237.09336 242.134298 
L 242.432174 247.69887 
L 249.560126 253.235171 
L 258.226008 258.276226 
L 261.892549 262.916996 
L 266.790759 267.247379 
L 273.563633 270.966718 
L 282.238357 274.195598 
L 294.253716 276.937809 
L 304.73771 279.119574 
L 318.848188 280.909535 
L 334.150437 282.473536 
L 352.266441 283.572134 
L 367.652551 284.379862 
L 383.448551 284.787786 
L 396.314075 285.028942 
L 410.56123 285.148038 
" style="fill:none;stroke:#e377c2;stroke-linecap:square;stroke-width:3;"/>
   </g>
   <g id="line2d_52">
    <path clip-path="url(#pd28ee735ad)" d="M 188.614396 98.607479 
L 190.781172 210.512821 
L 194.996333 213.918507 
L 197.749325 221.56657 
L 201.321373 231.769349 
L 210.1742 243.093913 
L 222.743026 253.043277 
L 230.950587 261.908608 
L 243.193113 270.040608 
L 254.894943 276.205025 
L 270.831793 280.744304 
L 282.904945 283.303154 
L 295.866474 284.587379 
L 312.890541 285.000767 
L 327.022865 285.16509 
L 343.738154 285.202075 
L 359.580972 285.213566 
L 373.942644 285.214822 
L 385.241028 285.214908 
L 404.98437 285.214909 
" style="fill:none;stroke:#7f7f7f;stroke-linecap:square;stroke-width:3;"/>
   </g>
   <g id="line2d_53">
    <path clip-path="url(#pd28ee735ad)" d="M 148.285669 152.31038 
L 168.024152 170.120926 
L 172.932856 187.742057 
L 171.671676 200.85291 
L 177.171667 220.12433 
L 178.363574 240.650032 
L 179.273099 249.868553 
L 181.165536 256.99464 
L 181.154474 260.956926 
L 183.827279 261.236524 
L 189.985442 262.76337 
L 192.942512 264.076853 
L 197.106061 262.067312 
L 203.084126 262.913694 
L 212.391819 260.660306 
L 222.168529 261.044733 
L 231.922056 265.095083 
L 246.035952 263.38354 
L 259.482725 259.633195 
L 270.839859 263.776228 
L 281.652797 263.732732 
L 288.693914 264.808266 
L 303.084313 263.016881 
L 315.036055 265.25125 
L 324.280689 261.966325 
L 337.765066 264.115486 
L 351.473511 266.424572 
L 366.889235 261.019038 
L 383.520619 263.455927 
L 398.404206 265.153283 
L 413.826151 265.115763 
" style="fill:none;stroke:#bcbd22;stroke-linecap:square;stroke-width:3;"/>
   </g>
   <g id="line2d_54">
    <path clip-path="url(#pd28ee735ad)" d="M 195.881208 195.859908 
L 199.106688 211.437072 
L 199.337296 216.356167 
L 196.015351 219.861489 
L 199.019039 225.210945 
L 197.730936 231.015154 
L 199.122205 236.503634 
L 200.676475 242.134298 
L 201.890601 247.69887 
L 205.190333 253.235171 
L 209.312549 258.276226 
L 213.649967 262.916996 
L 219.819269 267.247379 
L 227.18633 270.966718 
L 239.356261 274.195598 
L 250.28079 276.937809 
L 262.970889 279.119574 
L 277.454702 280.909535 
L 291.49673 282.473536 
L 310.430867 283.572134 
L 333.399795 284.379862 
L 352.63391 284.787786 
L 370.492429 285.028942 
L 385.773053 285.148038 
L 399.261557 285.18548 
L 431.049278 285.205608 
" style="fill:none;stroke:#17becf;stroke-linecap:square;stroke-width:3;"/>
   </g>
   <g id="line2d_55">
    <path clip-path="url(#pd28ee735ad)" d="M 228.244797 195.859908 
L 228.921928 211.437072 
L 228.248087 217.461786 
L 228.400572 222.316649 
L 230.276037 230.61509 
L 232.073569 240.167551 
L 230.837941 248.995853 
L 231.259396 257.59887 
L 234.077458 265.581933 
L 236.441579 272.501877 
L 240.229734 277.742642 
L 246.418736 281.282731 
L 252.332432 283.684719 
L 260.57853 284.766389 
L 269.738373 285.131841 
L 280.834608 285.198005 
L 294.984682 285.212402 
L 309.157112 285.214411 
L 322.439255 285.214873 
L 338.263389 285.214899 
L 351.814722 285.214898 
L 367.791815 285.214907 
L 384.161627 285.214909 
L 401.861337 285.214909 
" style="fill:none;stroke:#1f77b4;stroke-linecap:square;stroke-width:3;"/>
   </g>
   <g id="line2d_56">
    <path clip-path="url(#pd28ee735ad)" d="M 248.498363 195.859908 
L 253.442565 211.437072 
L 264.421788 216.356167 
L 272.303997 219.861489 
L 285.706159 225.210945 
L 299.083748 231.015154 
L 311.078833 236.503634 
L 326.484083 242.134298 
L 341.566133 247.69887 
L 358.249088 253.235171 
L 371.93834 258.276226 
L 388.560904 262.916996 
L 407.188483 267.247379 
" style="fill:none;stroke:#ff7f0e;stroke-linecap:square;stroke-width:3;"/>
   </g>
   <g id="line2d_57">
    <path clip-path="url(#pd28ee735ad)" d="M 150.649325 172.767493 
L 151.441786 199.064672 
L 158.804533 216.22497 
L 157.879688 227.706808 
L 165.740122 243.600086 
L 167.965248 258.824178 
L 176.688005 269.40936 
L 185.488907 276.517531 
L 190.428535 280.677596 
L 206.061041 283.380666 
L 217.278435 284.629717 
L 230.584695 285.085405 
L 246.053177 285.201507 
L 261.350839 285.212627 
L 271.928462 285.214553 
L 284.467532 285.214864 
L 298.312512 285.214905 
L 311.622994 285.214909 
L 326.619588 285.214909 
L 342.51279 285.214909 
L 354.534087 285.214909 
L 368.302813 285.214909 
L 387.091803 285.214909 
L 397.820689 285.214909 
L 414.736564 285.214909 
" style="fill:none;stroke:#2ca02c;stroke-linecap:square;stroke-width:3;"/>
   </g>
   <g id="line2d_58">
    <path clip-path="url(#pd28ee735ad)" d="M 374.869773 172.767493 
L 409.69327 199.064672 
L 408.226064 216.630622 
L 407.885408 226.508681 
" style="fill:none;stroke:#d62728;stroke-linecap:square;stroke-width:3;"/>
   </g>
   <g id="patch_3">
    <path d="M 72.196742 296.728 
L 72.196742 43.44 
" style="fill:none;stroke:#000000;stroke-linecap:square;stroke-linejoin:miter;stroke-width:0.8;"/>
   </g>
   <g id="patch_4">
    <path d="M 450 296.728 
L 450 43.44 
" style="fill:none;stroke:#000000;stroke-linecap:square;stroke-linejoin:miter;stroke-width:0.8;"/>
   </g>
   <g id="patch_5">
    <path d="M 72.196742 296.728 
L 450 296.728 
" style="fill:none;stroke:#000000;stroke-linecap:square;stroke-linejoin:miter;stroke-width:0.8;"/>
   </g>
   <g id="patch_6">
    <path d="M 72.196742 43.44 
L 450 43.44 
" style="fill:none;stroke:#000000;stroke-linecap:square;stroke-linejoin:miter;stroke-width:0.8;"/>
   </g>
   <g id="text_12">
    <!-- Lasso Regression[reg=0.05] -->
    <g transform="translate(162.437746 21.763062)scale(0.14 -0.14)">
     <defs>
      <path d="M 9.8125 72.90625 
L 19.671875 72.90625 
L 19.671875 8.296875 
L 55.171875 8.296875 
L 55.171875 0 
L 9.8125 0 
z
" id="DejaVuSans-76"/>
      <path d="M 34.28125 27.484375 
Q 23.390625 27.484375 19.1875 25 
Q 14.984375 22.515625 14.984375 16.5 
Q 14.984375 11.71875 18.140625 8.90625 
Q 21.296875 6.109375 26.703125 6.109375 
Q 34.1875 6.109375 38.703125 11.40625 
Q 43.21875 16.703125 43.21875 25.484375 
L 43.21875 27.484375 
z
M 52.203125 31.203125 
L 52.203125 0 
L 43.21875 0 
L 43.21875 8.296875 
Q 40.140625 3.328125 35.546875 0.953125 
Q 30.953125 -1.421875 24.3125 -1.421875 
Q 15.921875 -1.421875 10.953125 3.296875 
Q 6 8.015625 6 15.921875 
Q 6 25.140625 12.171875 29.828125 
Q 18.359375 34.515625 30.609375 34.515625 
L 43.21875 34.515625 
L 43.21875 35.40625 
Q 43.21875 41.609375 39.140625 45 
Q 35.0625 48.390625 27.6875 48.390625 
Q 23 48.390625 18.546875 47.265625 
Q 14.109375 46.140625 10.015625 43.890625 
L 10.015625 52.203125 
Q 14.9375 54.109375 19.578125 55.046875 
Q 24.21875 56 28.609375 56 
Q 40.484375 56 46.34375 49.84375 
Q 52.203125 43.703125 52.203125 31.203125 
z
" id="DejaVuSans-97"/>
      <path d="M 30.609375 48.390625 
Q 23.390625 48.390625 19.1875 42.75 
Q 14.984375 37.109375 14.984375 27.296875 
Q 14.984375 17.484375 19.15625 11.84375 
Q 23.34375 6.203125 30.609375 6.203125 
Q 37.796875 6.203125 41.984375 11.859375 
Q 46.1875 17.53125 46.1875 27.296875 
Q 46.1875 37.015625 41.984375 42.703125 
Q 37.796875 48.390625 30.609375 48.390625 
z
M 30.609375 56 
Q 42.328125 56 49.015625 48.375 
Q 55.71875 40.765625 55.71875 27.296875 
Q 55.71875 13.875 49.015625 6.21875 
Q 42.328125 -1.421875 30.609375 -1.421875 
Q 18.84375 -1.421875 12.171875 6.21875 
Q 5.515625 13.875 5.515625 27.296875 
Q 5.515625 40.765625 12.171875 48.375 
Q 18.84375 56 30.609375 56 
z
" id="DejaVuSans-111"/>
      <path d="M 44.390625 34.1875 
Q 47.5625 33.109375 50.5625 29.59375 
Q 53.5625 26.078125 56.59375 19.921875 
L 66.609375 0 
L 56 0 
L 46.6875 18.703125 
Q 43.0625 26.03125 39.671875 28.421875 
Q 36.28125 30.8125 30.421875 30.8125 
L 19.671875 30.8125 
L 19.671875 0 
L 9.8125 0 
L 9.8125 72.90625 
L 32.078125 72.90625 
Q 44.578125 72.90625 50.734375 67.671875 
Q 56.890625 62.453125 56.890625 51.90625 
Q 56.890625 45.015625 53.6875 40.46875 
Q 50.484375 35.9375 44.390625 34.1875 
z
M 19.671875 64.796875 
L 19.671875 38.921875 
L 32.078125 38.921875 
Q 39.203125 38.921875 42.84375 42.21875 
Q 46.484375 45.515625 46.484375 51.90625 
Q 46.484375 58.296875 42.84375 61.546875 
Q 39.203125 64.796875 32.078125 64.796875 
z
" id="DejaVuSans-82"/>
      <path d="M 45.40625 27.984375 
Q 45.40625 37.75 41.375 43.109375 
Q 37.359375 48.484375 30.078125 48.484375 
Q 22.859375 48.484375 18.828125 43.109375 
Q 14.796875 37.75 14.796875 27.984375 
Q 14.796875 18.265625 18.828125 12.890625 
Q 22.859375 7.515625 30.078125 7.515625 
Q 37.359375 7.515625 41.375 12.890625 
Q 45.40625 18.265625 45.40625 27.984375 
z
M 54.390625 6.78125 
Q 54.390625 -7.171875 48.1875 -13.984375 
Q 42 -20.796875 29.203125 -20.796875 
Q 24.46875 -20.796875 20.265625 -20.09375 
Q 16.0625 -19.390625 12.109375 -17.921875 
L 12.109375 -9.1875 
Q 16.0625 -11.328125 19.921875 -12.34375 
Q 23.78125 -13.375 27.78125 -13.375 
Q 36.625 -13.375 41.015625 -8.765625 
Q 45.40625 -4.15625 45.40625 5.171875 
L 45.40625 9.625 
Q 42.625 4.78125 38.28125 2.390625 
Q 33.9375 0 27.875 0 
Q 17.828125 0 11.671875 7.65625 
Q 5.515625 15.328125 5.515625 27.984375 
Q 5.515625 40.671875 11.671875 48.328125 
Q 17.828125 56 27.875 56 
Q 33.9375 56 38.28125 53.609375 
Q 42.625 51.21875 45.40625 46.390625 
L 45.40625 54.6875 
L 54.390625 54.6875 
z
" id="DejaVuSans-103"/>
      <path d="M 41.109375 46.296875 
Q 39.59375 47.171875 37.8125 47.578125 
Q 36.03125 48 33.890625 48 
Q 26.265625 48 22.1875 43.046875 
Q 18.109375 38.09375 18.109375 28.8125 
L 18.109375 0 
L 9.078125 0 
L 9.078125 54.6875 
L 18.109375 54.6875 
L 18.109375 46.1875 
Q 20.953125 51.171875 25.484375 53.578125 
Q 30.03125 56 36.53125 56 
Q 37.453125 56 38.578125 55.875 
Q 39.703125 55.765625 41.0625 55.515625 
z
" id="DejaVuSans-114"/>
      <path d="M 54.890625 33.015625 
L 54.890625 0 
L 45.90625 0 
L 45.90625 32.71875 
Q 45.90625 40.484375 42.875 44.328125 
Q 39.84375 48.1875 33.796875 48.1875 
Q 26.515625 48.1875 22.3125 43.546875 
Q 18.109375 38.921875 18.109375 30.90625 
L 18.109375 0 
L 9.078125 0 
L 9.078125 54.6875 
L 18.109375 54.6875 
L 18.109375 46.1875 
Q 21.34375 51.125 25.703125 53.5625 
Q 30.078125 56 35.796875 56 
Q 45.21875 56 50.046875 50.171875 
Q 54.890625 44.34375 54.890625 33.015625 
z
" id="DejaVuSans-110"/>
      <path d="M 10.59375 45.40625 
L 73.1875 45.40625 
L 73.1875 37.203125 
L 10.59375 37.203125 
z
M 10.59375 25.484375 
L 73.1875 25.484375 
L 73.1875 17.1875 
L 10.59375 17.1875 
z
" id="DejaVuSans-61"/>
      <path d="M 10.6875 12.40625 
L 21 12.40625 
L 21 0 
L 10.6875 0 
z
" id="DejaVuSans-46"/>
     </defs>
     <use xlink:href="#DejaVuSans-76"/>
     <use x="55.712891" xlink:href="#DejaVuSans-97"/>
     <use x="116.992188" xlink:href="#DejaVuSans-115"/>
     <use x="169.091797" xlink:href="#DejaVuSans-115"/>
     <use x="221.191406" xlink:href="#DejaVuSans-111"/>
     <use x="282.373047" xlink:href="#DejaVuSans-32"/>
     <use x="314.160156" xlink:href="#DejaVuSans-82"/>
     <use x="379.142578" xlink:href="#DejaVuSans-101"/>
     <use x="440.666016" xlink:href="#DejaVuSans-103"/>
     <use x="504.142578" xlink:href="#DejaVuSans-114"/>
     <use x="543.005859" xlink:href="#DejaVuSans-101"/>
     <use x="604.529297" xlink:href="#DejaVuSans-115"/>
     <use x="656.628906" xlink:href="#DejaVuSans-115"/>
     <use x="708.728516" xlink:href="#DejaVuSans-105"/>
     <use x="736.511719" xlink:href="#DejaVuSans-111"/>
     <use x="797.693359" xlink:href="#DejaVuSans-110"/>
     <use x="861.072266" xlink:href="#DejaVuSans-91"/>
     <use x="900.085938" xlink:href="#DejaVuSans-114"/>
     <use x="938.949219" xlink:href="#DejaVuSans-101"/>
     <use x="1000.472656" xlink:href="#DejaVuSans-103"/>
     <use x="1063.949219" xlink:href="#DejaVuSans-61"/>
     <use x="1147.738281" xlink:href="#DejaVuSans-48"/>
     <use x="1211.361328" xlink:href="#DejaVuSans-46"/>
     <use x="1243.148438" xlink:href="#DejaVuSans-48"/>
     <use x="1306.771484" xlink:href="#DejaVuSans-53"/>
     <use x="1370.394531" xlink:href="#DejaVuSans-93"/>
    </g>
    <!-- Data: Simulated[n_samples=100,n_features=10000,rho=0] -->
    <g transform="translate(51.476809 37.44)scale(0.14 -0.14)">
     <defs>
      <path d="M 19.671875 64.796875 
L 19.671875 8.109375 
L 31.59375 8.109375 
Q 46.6875 8.109375 53.6875 14.9375 
Q 60.6875 21.78125 60.6875 36.53125 
Q 60.6875 51.171875 53.6875 57.984375 
Q 46.6875 64.796875 31.59375 64.796875 
z
M 9.8125 72.90625 
L 30.078125 72.90625 
Q 51.265625 72.90625 61.171875 64.09375 
Q 71.09375 55.28125 71.09375 36.53125 
Q 71.09375 17.671875 61.125 8.828125 
Q 51.171875 0 30.078125 0 
L 9.8125 0 
z
" id="DejaVuSans-68"/>
      <path d="M 18.3125 70.21875 
L 18.3125 54.6875 
L 36.8125 54.6875 
L 36.8125 47.703125 
L 18.3125 47.703125 
L 18.3125 18.015625 
Q 18.3125 11.328125 20.140625 9.421875 
Q 21.96875 7.515625 27.59375 7.515625 
L 36.8125 7.515625 
L 36.8125 0 
L 27.59375 0 
Q 17.1875 0 13.234375 3.875 
Q 9.28125 7.765625 9.28125 18.015625 
L 9.28125 47.703125 
L 2.6875 47.703125 
L 2.6875 54.6875 
L 9.28125 54.6875 
L 9.28125 70.21875 
z
" id="DejaVuSans-116"/>
      <path d="M 11.71875 12.40625 
L 22.015625 12.40625 
L 22.015625 0 
L 11.71875 0 
z
M 11.71875 51.703125 
L 22.015625 51.703125 
L 22.015625 39.3125 
L 11.71875 39.3125 
z
" id="DejaVuSans-58"/>
      <path d="M 53.515625 70.515625 
L 53.515625 60.890625 
Q 47.90625 63.578125 42.921875 64.890625 
Q 37.9375 66.21875 33.296875 66.21875 
Q 25.25 66.21875 20.875 63.09375 
Q 16.5 59.96875 16.5 54.203125 
Q 16.5 49.359375 19.40625 46.890625 
Q 22.3125 44.4375 30.421875 42.921875 
L 36.375 41.703125 
Q 47.40625 39.59375 52.65625 34.296875 
Q 57.90625 29 57.90625 20.125 
Q 57.90625 9.515625 50.796875 4.046875 
Q 43.703125 -1.421875 29.984375 -1.421875 
Q 24.8125 -1.421875 18.96875 -0.25 
Q 13.140625 0.921875 6.890625 3.21875 
L 6.890625 13.375 
Q 12.890625 10.015625 18.65625 8.296875 
Q 24.421875 6.59375 29.984375 6.59375 
Q 38.421875 6.59375 43.015625 9.90625 
Q 47.609375 13.234375 47.609375 19.390625 
Q 47.609375 24.75 44.3125 27.78125 
Q 41.015625 30.8125 33.5 32.328125 
L 27.484375 33.5 
Q 16.453125 35.6875 11.515625 40.375 
Q 6.59375 45.0625 6.59375 53.421875 
Q 6.59375 63.09375 13.40625 68.65625 
Q 20.21875 74.21875 32.171875 74.21875 
Q 37.3125 74.21875 42.625 73.28125 
Q 47.953125 72.359375 53.515625 70.515625 
z
" id="DejaVuSans-83"/>
      <path d="M 8.5 21.578125 
L 8.5 54.6875 
L 17.484375 54.6875 
L 17.484375 21.921875 
Q 17.484375 14.15625 20.5 10.265625 
Q 23.53125 6.390625 29.59375 6.390625 
Q 36.859375 6.390625 41.078125 11.03125 
Q 45.3125 15.671875 45.3125 23.6875 
L 45.3125 54.6875 
L 54.296875 54.6875 
L 54.296875 0 
L 45.3125 0 
L 45.3125 8.40625 
Q 42.046875 3.421875 37.71875 1 
Q 33.40625 -1.421875 27.6875 -1.421875 
Q 18.265625 -1.421875 13.375 4.4375 
Q 8.5 10.296875 8.5 21.578125 
z
M 31.109375 56 
z
" id="DejaVuSans-117"/>
      <path d="M 9.421875 75.984375 
L 18.40625 75.984375 
L 18.40625 0 
L 9.421875 0 
z
" id="DejaVuSans-108"/>
      <path d="M 45.40625 46.390625 
L 45.40625 75.984375 
L 54.390625 75.984375 
L 54.390625 0 
L 45.40625 0 
L 45.40625 8.203125 
Q 42.578125 3.328125 38.25 0.953125 
Q 33.9375 -1.421875 27.875 -1.421875 
Q 17.96875 -1.421875 11.734375 6.484375 
Q 5.515625 14.40625 5.515625 27.296875 
Q 5.515625 40.1875 11.734375 48.09375 
Q 17.96875 56 27.875 56 
Q 33.9375 56 38.25 53.625 
Q 42.578125 51.265625 45.40625 46.390625 
z
M 14.796875 27.296875 
Q 14.796875 17.390625 18.875 11.75 
Q 22.953125 6.109375 30.078125 6.109375 
Q 37.203125 6.109375 41.296875 11.75 
Q 45.40625 17.390625 45.40625 27.296875 
Q 45.40625 37.203125 41.296875 42.84375 
Q 37.203125 48.484375 30.078125 48.484375 
Q 22.953125 48.484375 18.875 42.84375 
Q 14.796875 37.203125 14.796875 27.296875 
z
" id="DejaVuSans-100"/>
      <path d="M 50.984375 -16.609375 
L 50.984375 -23.578125 
L -0.984375 -23.578125 
L -0.984375 -16.609375 
z
" id="DejaVuSans-95"/>
      <path d="M 18.109375 8.203125 
L 18.109375 -20.796875 
L 9.078125 -20.796875 
L 9.078125 54.6875 
L 18.109375 54.6875 
L 18.109375 46.390625 
Q 20.953125 51.265625 25.265625 53.625 
Q 29.59375 56 35.59375 56 
Q 45.5625 56 51.78125 48.09375 
Q 58.015625 40.1875 58.015625 27.296875 
Q 58.015625 14.40625 51.78125 6.484375 
Q 45.5625 -1.421875 35.59375 -1.421875 
Q 29.59375 -1.421875 25.265625 0.953125 
Q 20.953125 3.328125 18.109375 8.203125 
z
M 48.6875 27.296875 
Q 48.6875 37.203125 44.609375 42.84375 
Q 40.53125 48.484375 33.40625 48.484375 
Q 26.265625 48.484375 22.1875 42.84375 
Q 18.109375 37.203125 18.109375 27.296875 
Q 18.109375 17.390625 22.1875 11.75 
Q 26.265625 6.109375 33.40625 6.109375 
Q 40.53125 6.109375 44.609375 11.75 
Q 48.6875 17.390625 48.6875 27.296875 
z
" id="DejaVuSans-112"/>
      <path d="M 11.71875 12.40625 
L 22.015625 12.40625 
L 22.015625 4 
L 14.015625 -11.625 
L 7.71875 -11.625 
L 11.71875 4 
z
" id="DejaVuSans-44"/>
      <path d="M 37.109375 75.984375 
L 37.109375 68.5 
L 28.515625 68.5 
Q 23.6875 68.5 21.796875 66.546875 
Q 19.921875 64.59375 19.921875 59.515625 
L 19.921875 54.6875 
L 34.71875 54.6875 
L 34.71875 47.703125 
L 19.921875 47.703125 
L 19.921875 0 
L 10.890625 0 
L 10.890625 47.703125 
L 2.296875 47.703125 
L 2.296875 54.6875 
L 10.890625 54.6875 
L 10.890625 58.5 
Q 10.890625 67.625 15.140625 71.796875 
Q 19.390625 75.984375 28.609375 75.984375 
z
" id="DejaVuSans-102"/>
      <path d="M 54.890625 33.015625 
L 54.890625 0 
L 45.90625 0 
L 45.90625 32.71875 
Q 45.90625 40.484375 42.875 44.328125 
Q 39.84375 48.1875 33.796875 48.1875 
Q 26.515625 48.1875 22.3125 43.546875 
Q 18.109375 38.921875 18.109375 30.90625 
L 18.109375 0 
L 9.078125 0 
L 9.078125 75.984375 
L 18.109375 75.984375 
L 18.109375 46.1875 
Q 21.34375 51.125 25.703125 53.5625 
Q 30.078125 56 35.796875 56 
Q 45.21875 56 50.046875 50.171875 
Q 54.890625 44.34375 54.890625 33.015625 
z
" id="DejaVuSans-104"/>
     </defs>
     <use xlink:href="#DejaVuSans-68"/>
     <use x="77.001953" xlink:href="#DejaVuSans-97"/>
     <use x="138.28125" xlink:href="#DejaVuSans-116"/>
     <use x="177.490234" xlink:href="#DejaVuSans-97"/>
     <use x="238.769531" xlink:href="#DejaVuSans-58"/>
     <use x="272.460938" xlink:href="#DejaVuSans-32"/>
     <use x="304.248047" xlink:href="#DejaVuSans-83"/>
     <use x="367.724609" xlink:href="#DejaVuSans-105"/>
     <use x="395.507812" xlink:href="#DejaVuSans-109"/>
     <use x="492.919922" xlink:href="#DejaVuSans-117"/>
     <use x="556.298828" xlink:href="#DejaVuSans-108"/>
     <use x="584.082031" xlink:href="#DejaVuSans-97"/>
     <use x="645.361328" xlink:href="#DejaVuSans-116"/>
     <use x="684.570312" xlink:href="#DejaVuSans-101"/>
     <use x="746.09375" xlink:href="#DejaVuSans-100"/>
     <use x="809.570312" xlink:href="#DejaVuSans-91"/>
     <use x="848.583984" xlink:href="#DejaVuSans-110"/>
     <use x="911.962891" xlink:href="#DejaVuSans-95"/>
     <use x="961.962891" xlink:href="#DejaVuSans-115"/>
     <use x="1014.0625" xlink:href="#DejaVuSans-97"/>
     <use x="1075.341797" xlink:href="#DejaVuSans-109"/>
     <use x="1172.753906" xlink:href="#DejaVuSans-112"/>
     <use x="1236.230469" xlink:href="#DejaVuSans-108"/>
     <use x="1264.013672" xlink:href="#DejaVuSans-101"/>
     <use x="1325.537109" xlink:href="#DejaVuSans-115"/>
     <use x="1377.636719" xlink:href="#DejaVuSans-61"/>
     <use x="1461.425781" xlink:href="#DejaVuSans-49"/>
     <use x="1525.048828" xlink:href="#DejaVuSans-48"/>
     <use x="1588.671875" xlink:href="#DejaVuSans-48"/>
     <use x="1652.294922" xlink:href="#DejaVuSans-44"/>
     <use x="1684.082031" xlink:href="#DejaVuSans-110"/>
     <use x="1747.460938" xlink:href="#DejaVuSans-95"/>
     <use x="1797.460938" xlink:href="#DejaVuSans-102"/>
     <use x="1832.666016" xlink:href="#DejaVuSans-101"/>
     <use x="1894.189453" xlink:href="#DejaVuSans-97"/>
     <use x="1955.46875" xlink:href="#DejaVuSans-116"/>
     <use x="1994.677734" xlink:href="#DejaVuSans-117"/>
     <use x="2058.056641" xlink:href="#DejaVuSans-114"/>
     <use x="2096.919922" xlink:href="#DejaVuSans-101"/>
     <use x="2158.443359" xlink:href="#DejaVuSans-115"/>
     <use x="2210.542969" xlink:href="#DejaVuSans-61"/>
     <use x="2294.332031" xlink:href="#DejaVuSans-49"/>
     <use x="2357.955078" xlink:href="#DejaVuSans-48"/>
     <use x="2421.578125" xlink:href="#DejaVuSans-48"/>
     <use x="2485.201172" xlink:href="#DejaVuSans-48"/>
     <use x="2548.824219" xlink:href="#DejaVuSans-48"/>
     <use x="2612.447266" xlink:href="#DejaVuSans-44"/>
     <use x="2644.234375" xlink:href="#DejaVuSans-114"/>
     <use x="2683.597656" xlink:href="#DejaVuSans-104"/>
     <use x="2746.976562" xlink:href="#DejaVuSans-111"/>
     <use x="2808.158203" xlink:href="#DejaVuSans-61"/>
     <use x="2891.947266" xlink:href="#DejaVuSans-48"/>
     <use x="2955.570312" xlink:href="#DejaVuSans-93"/>
    </g>
   </g>
   <g id="legend_1">
    <g id="patch_7">
     <path d="M 81.996742 343.11 
L 386.275805 343.11 
Q 389.075805 343.11 389.075805 340.31 
L 389.075805 53.24 
Q 389.075805 50.44 386.275805 50.44 
L 81.996742 50.44 
Q 79.196742 50.44 79.196742 53.24 
L 79.196742 340.31 
Q 79.196742 343.11 81.996742 343.11 
z
" style="fill:#ffffff;opacity:0.8;stroke:#cccccc;stroke-linejoin:miter;"/>
    </g>
    <g id="line2d_59">
     <path d="M 84.796742 61.777812 
L 112.796742 61.777812 
" style="fill:none;stroke:#1f77b4;stroke-linecap:square;stroke-width:3;"/>
    </g>
    <g id="line2d_60"/>
    <g id="text_13">
     <!-- Blitz -->
     <g transform="translate(123.996742 66.677812)scale(0.14 -0.14)">
      <defs>
       <path d="M 19.671875 34.8125 
L 19.671875 8.109375 
L 35.5 8.109375 
Q 43.453125 8.109375 47.28125 11.40625 
Q 51.125 14.703125 51.125 21.484375 
Q 51.125 28.328125 47.28125 31.5625 
Q 43.453125 34.8125 35.5 34.8125 
z
M 19.671875 64.796875 
L 19.671875 42.828125 
L 34.28125 42.828125 
Q 41.5 42.828125 45.03125 45.53125 
Q 48.578125 48.25 48.578125 53.8125 
Q 48.578125 59.328125 45.03125 62.0625 
Q 41.5 64.796875 34.28125 64.796875 
z
M 9.8125 72.90625 
L 35.015625 72.90625 
Q 46.296875 72.90625 52.390625 68.21875 
Q 58.5 63.53125 58.5 54.890625 
Q 58.5 48.1875 55.375 44.234375 
Q 52.25 40.28125 46.1875 39.3125 
Q 53.46875 37.75 57.5 32.78125 
Q 61.53125 27.828125 61.53125 20.40625 
Q 61.53125 10.640625 54.890625 5.3125 
Q 48.25 0 35.984375 0 
L 9.8125 0 
z
" id="DejaVuSans-66"/>
       <path d="M 5.515625 54.6875 
L 48.1875 54.6875 
L 48.1875 46.484375 
L 14.40625 7.171875 
L 48.1875 7.171875 
L 48.1875 0 
L 4.296875 0 
L 4.296875 8.203125 
L 38.09375 47.515625 
L 5.515625 47.515625 
z
" id="DejaVuSans-122"/>
      </defs>
      <use xlink:href="#DejaVuSans-66"/>
      <use x="68.603516" xlink:href="#DejaVuSans-108"/>
      <use x="96.386719" xlink:href="#DejaVuSans-105"/>
      <use x="124.169922" xlink:href="#DejaVuSans-116"/>
      <use x="163.378906" xlink:href="#DejaVuSans-122"/>
     </g>
    </g>
    <g id="line2d_61">
     <path d="M 84.796742 82.327187 
L 112.796742 82.327187 
" style="fill:none;stroke:#ff7f0e;stroke-linecap:square;stroke-width:3;"/>
    </g>
    <g id="line2d_62"/>
    <g id="text_14">
     <!-- cd -->
     <g transform="translate(123.996742 87.227187)scale(0.14 -0.14)">
      <use xlink:href="#DejaVuSans-99"/>
      <use x="54.980469" xlink:href="#DejaVuSans-100"/>
     </g>
    </g>
    <g id="line2d_63">
     <path d="M 84.796742 102.876562 
L 112.796742 102.876562 
" style="fill:none;stroke:#2ca02c;stroke-linecap:square;stroke-width:3;"/>
    </g>
    <g id="line2d_64"/>
    <g id="text_15">
     <!-- Celer -->
     <g transform="translate(123.996742 107.776562)scale(0.14 -0.14)">
      <defs>
       <path d="M 64.40625 67.28125 
L 64.40625 56.890625 
Q 59.421875 61.53125 53.78125 63.8125 
Q 48.140625 66.109375 41.796875 66.109375 
Q 29.296875 66.109375 22.65625 58.46875 
Q 16.015625 50.828125 16.015625 36.375 
Q 16.015625 21.96875 22.65625 14.328125 
Q 29.296875 6.6875 41.796875 6.6875 
Q 48.140625 6.6875 53.78125 8.984375 
Q 59.421875 11.28125 64.40625 15.921875 
L 64.40625 5.609375 
Q 59.234375 2.09375 53.4375 0.328125 
Q 47.65625 -1.421875 41.21875 -1.421875 
Q 24.65625 -1.421875 15.125 8.703125 
Q 5.609375 18.84375 5.609375 36.375 
Q 5.609375 53.953125 15.125 64.078125 
Q 24.65625 74.21875 41.21875 74.21875 
Q 47.75 74.21875 53.53125 72.484375 
Q 59.328125 70.75 64.40625 67.28125 
z
" id="DejaVuSans-67"/>
      </defs>
      <use xlink:href="#DejaVuSans-67"/>
      <use x="69.824219" xlink:href="#DejaVuSans-101"/>
      <use x="131.347656" xlink:href="#DejaVuSans-108"/>
      <use x="159.130859" xlink:href="#DejaVuSans-101"/>
      <use x="220.654297" xlink:href="#DejaVuSans-114"/>
     </g>
    </g>
    <g id="line2d_65">
     <path d="M 84.796742 123.425937 
L 112.796742 123.425937 
" style="fill:none;stroke:#d62728;stroke-linecap:square;stroke-width:3;"/>
    </g>
    <g id="line2d_66"/>
    <g id="text_16">
     <!-- cvxpy -->
     <g transform="translate(123.996742 128.325937)scale(0.14 -0.14)">
      <defs>
       <path d="M 2.984375 54.6875 
L 12.5 54.6875 
L 29.59375 8.796875 
L 46.6875 54.6875 
L 56.203125 54.6875 
L 35.6875 0 
L 23.484375 0 
z
" id="DejaVuSans-118"/>
       <path d="M 54.890625 54.6875 
L 35.109375 28.078125 
L 55.90625 0 
L 45.3125 0 
L 29.390625 21.484375 
L 13.484375 0 
L 2.875 0 
L 24.125 28.609375 
L 4.6875 54.6875 
L 15.28125 54.6875 
L 29.78125 35.203125 
L 44.28125 54.6875 
z
" id="DejaVuSans-120"/>
       <path d="M 32.171875 -5.078125 
Q 28.375 -14.84375 24.75 -17.8125 
Q 21.140625 -20.796875 15.09375 -20.796875 
L 7.90625 -20.796875 
L 7.90625 -13.28125 
L 13.1875 -13.28125 
Q 16.890625 -13.28125 18.9375 -11.515625 
Q 21 -9.765625 23.484375 -3.21875 
L 25.09375 0.875 
L 2.984375 54.6875 
L 12.5 54.6875 
L 29.59375 11.921875 
L 46.6875 54.6875 
L 56.203125 54.6875 
z
" id="DejaVuSans-121"/>
      </defs>
      <use xlink:href="#DejaVuSans-99"/>
      <use x="54.980469" xlink:href="#DejaVuSans-118"/>
      <use x="114.160156" xlink:href="#DejaVuSans-120"/>
      <use x="173.339844" xlink:href="#DejaVuSans-112"/>
      <use x="236.816406" xlink:href="#DejaVuSans-121"/>
     </g>
    </g>
    <g id="line2d_67">
     <path d="M 84.796742 143.975312 
L 112.796742 143.975312 
" style="fill:none;stroke:#9467bd;stroke-linecap:square;stroke-width:3;"/>
    </g>
    <g id="line2d_68"/>
    <g id="text_17">
     <!-- Cyanure -->
     <g transform="translate(123.996742 148.875312)scale(0.14 -0.14)">
      <use xlink:href="#DejaVuSans-67"/>
      <use x="69.824219" xlink:href="#DejaVuSans-121"/>
      <use x="129.003906" xlink:href="#DejaVuSans-97"/>
      <use x="190.283203" xlink:href="#DejaVuSans-110"/>
      <use x="253.662109" xlink:href="#DejaVuSans-117"/>
      <use x="317.041016" xlink:href="#DejaVuSans-114"/>
      <use x="355.904297" xlink:href="#DejaVuSans-101"/>
     </g>
    </g>
    <g id="line2d_69">
     <path d="M 84.796742 164.524687 
L 112.796742 164.524687 
" style="fill:none;stroke:#8c564b;stroke-linecap:square;stroke-width:3;"/>
    </g>
    <g id="line2d_70"/>
    <g id="text_18">
     <!-- glmnet -->
     <g transform="translate(123.996742 169.424687)scale(0.14 -0.14)">
      <use xlink:href="#DejaVuSans-103"/>
      <use x="63.476562" xlink:href="#DejaVuSans-108"/>
      <use x="91.259766" xlink:href="#DejaVuSans-109"/>
      <use x="188.671875" xlink:href="#DejaVuSans-110"/>
      <use x="252.050781" xlink:href="#DejaVuSans-101"/>
      <use x="313.574219" xlink:href="#DejaVuSans-116"/>
     </g>
    </g>
    <g id="line2d_71">
     <path d="M 84.796742 185.074062 
L 112.796742 185.074062 
" style="fill:none;stroke:#e377c2;stroke-linecap:square;stroke-width:3;"/>
    </g>
    <g id="line2d_72"/>
    <g id="text_19">
     <!-- Julia-PGD -->
     <g transform="translate(123.996742 189.974062)scale(0.14 -0.14)">
      <defs>
       <path d="M 9.8125 72.90625 
L 19.671875 72.90625 
L 19.671875 5.078125 
Q 19.671875 -8.109375 14.671875 -14.0625 
Q 9.671875 -20.015625 -1.421875 -20.015625 
L -5.171875 -20.015625 
L -5.171875 -11.71875 
L -2.09375 -11.71875 
Q 4.4375 -11.71875 7.125 -8.046875 
Q 9.8125 -4.390625 9.8125 5.078125 
z
" id="DejaVuSans-74"/>
       <path d="M 4.890625 31.390625 
L 31.203125 31.390625 
L 31.203125 23.390625 
L 4.890625 23.390625 
z
" id="DejaVuSans-45"/>
       <path d="M 19.671875 64.796875 
L 19.671875 37.40625 
L 32.078125 37.40625 
Q 38.96875 37.40625 42.71875 40.96875 
Q 46.484375 44.53125 46.484375 51.125 
Q 46.484375 57.671875 42.71875 61.234375 
Q 38.96875 64.796875 32.078125 64.796875 
z
M 9.8125 72.90625 
L 32.078125 72.90625 
Q 44.34375 72.90625 50.609375 67.359375 
Q 56.890625 61.8125 56.890625 51.125 
Q 56.890625 40.328125 50.609375 34.8125 
Q 44.34375 29.296875 32.078125 29.296875 
L 19.671875 29.296875 
L 19.671875 0 
L 9.8125 0 
z
" id="DejaVuSans-80"/>
       <path d="M 59.515625 10.40625 
L 59.515625 29.984375 
L 43.40625 29.984375 
L 43.40625 38.09375 
L 69.28125 38.09375 
L 69.28125 6.78125 
Q 63.578125 2.734375 56.6875 0.65625 
Q 49.8125 -1.421875 42 -1.421875 
Q 24.90625 -1.421875 15.25 8.5625 
Q 5.609375 18.5625 5.609375 36.375 
Q 5.609375 54.25 15.25 64.234375 
Q 24.90625 74.21875 42 74.21875 
Q 49.125 74.21875 55.546875 72.453125 
Q 61.96875 70.703125 67.390625 67.28125 
L 67.390625 56.78125 
Q 61.921875 61.421875 55.765625 63.765625 
Q 49.609375 66.109375 42.828125 66.109375 
Q 29.4375 66.109375 22.71875 58.640625 
Q 16.015625 51.171875 16.015625 36.375 
Q 16.015625 21.625 22.71875 14.15625 
Q 29.4375 6.6875 42.828125 6.6875 
Q 48.046875 6.6875 52.140625 7.59375 
Q 56.25 8.5 59.515625 10.40625 
z
" id="DejaVuSans-71"/>
      </defs>
      <use xlink:href="#DejaVuSans-74"/>
      <use x="29.492188" xlink:href="#DejaVuSans-117"/>
      <use x="92.871094" xlink:href="#DejaVuSans-108"/>
      <use x="120.654297" xlink:href="#DejaVuSans-105"/>
      <use x="148.4375" xlink:href="#DejaVuSans-97"/>
      <use x="209.716797" xlink:href="#DejaVuSans-45"/>
      <use x="245.800781" xlink:href="#DejaVuSans-80"/>
      <use x="306.103516" xlink:href="#DejaVuSans-71"/>
      <use x="383.59375" xlink:href="#DejaVuSans-68"/>
     </g>
    </g>
    <g id="line2d_73">
     <path d="M 84.796742 205.623437 
L 112.796742 205.623437 
" style="fill:none;stroke:#7f7f7f;stroke-linecap:square;stroke-width:3;"/>
    </g>
    <g id="line2d_74"/>
    <g id="text_20">
     <!-- L-BFGS-B -->
     <g transform="translate(123.996742 210.523437)scale(0.14 -0.14)">
      <defs>
       <path d="M 9.8125 72.90625 
L 51.703125 72.90625 
L 51.703125 64.59375 
L 19.671875 64.59375 
L 19.671875 43.109375 
L 48.578125 43.109375 
L 48.578125 34.8125 
L 19.671875 34.8125 
L 19.671875 0 
L 9.8125 0 
z
" id="DejaVuSans-70"/>
      </defs>
      <use xlink:href="#DejaVuSans-76"/>
      <use x="53.962891" xlink:href="#DejaVuSans-45"/>
      <use x="86.421875" xlink:href="#DejaVuSans-66"/>
      <use x="155.025391" xlink:href="#DejaVuSans-70"/>
      <use x="212.544922" xlink:href="#DejaVuSans-71"/>
      <use x="290.035156" xlink:href="#DejaVuSans-83"/>
      <use x="353.511719" xlink:href="#DejaVuSans-45"/>
      <use x="385.970703" xlink:href="#DejaVuSans-66"/>
     </g>
    </g>
    <g id="line2d_75">
     <path d="M 84.796742 226.172812 
L 112.796742 226.172812 
" style="fill:none;stroke:#bcbd22;stroke-linecap:square;stroke-width:3;"/>
    </g>
    <g id="line2d_76"/>
    <g id="text_21">
     <!-- Lightning -->
     <g transform="translate(123.996742 231.072812)scale(0.14 -0.14)">
      <use xlink:href="#DejaVuSans-76"/>
      <use x="55.712891" xlink:href="#DejaVuSans-105"/>
      <use x="83.496094" xlink:href="#DejaVuSans-103"/>
      <use x="146.972656" xlink:href="#DejaVuSans-104"/>
      <use x="210.351562" xlink:href="#DejaVuSans-116"/>
      <use x="249.560547" xlink:href="#DejaVuSans-110"/>
      <use x="312.939453" xlink:href="#DejaVuSans-105"/>
      <use x="340.722656" xlink:href="#DejaVuSans-110"/>
      <use x="404.101562" xlink:href="#DejaVuSans-103"/>
     </g>
    </g>
    <g id="line2d_77">
     <path d="M 84.796742 246.722187 
L 112.796742 246.722187 
" style="fill:none;stroke:#17becf;stroke-linecap:square;stroke-width:3;"/>
    </g>
    <g id="line2d_78"/>
    <g id="text_22">
     <!-- Python-PGD[use_acceleration=False] -->
     <g transform="translate(123.996742 251.622187)scale(0.14 -0.14)">
      <use xlink:href="#DejaVuSans-80"/>
      <use x="60.302734" xlink:href="#DejaVuSans-121"/>
      <use x="119.482422" xlink:href="#DejaVuSans-116"/>
      <use x="158.691406" xlink:href="#DejaVuSans-104"/>
      <use x="222.070312" xlink:href="#DejaVuSans-111"/>
      <use x="283.251953" xlink:href="#DejaVuSans-110"/>
      <use x="346.630859" xlink:href="#DejaVuSans-45"/>
      <use x="382.714844" xlink:href="#DejaVuSans-80"/>
      <use x="443.017578" xlink:href="#DejaVuSans-71"/>
      <use x="520.507812" xlink:href="#DejaVuSans-68"/>
      <use x="597.509766" xlink:href="#DejaVuSans-91"/>
      <use x="636.523438" xlink:href="#DejaVuSans-117"/>
      <use x="699.902344" xlink:href="#DejaVuSans-115"/>
      <use x="752.001953" xlink:href="#DejaVuSans-101"/>
      <use x="813.525391" xlink:href="#DejaVuSans-95"/>
      <use x="863.525391" xlink:href="#DejaVuSans-97"/>
      <use x="924.804688" xlink:href="#DejaVuSans-99"/>
      <use x="979.785156" xlink:href="#DejaVuSans-99"/>
      <use x="1034.765625" xlink:href="#DejaVuSans-101"/>
      <use x="1096.289062" xlink:href="#DejaVuSans-108"/>
      <use x="1124.072266" xlink:href="#DejaVuSans-101"/>
      <use x="1185.595703" xlink:href="#DejaVuSans-114"/>
      <use x="1226.708984" xlink:href="#DejaVuSans-97"/>
      <use x="1287.988281" xlink:href="#DejaVuSans-116"/>
      <use x="1327.197266" xlink:href="#DejaVuSans-105"/>
      <use x="1354.980469" xlink:href="#DejaVuSans-111"/>
      <use x="1416.162109" xlink:href="#DejaVuSans-110"/>
      <use x="1479.541016" xlink:href="#DejaVuSans-61"/>
      <use x="1563.330078" xlink:href="#DejaVuSans-70"/>
      <use x="1611.724609" xlink:href="#DejaVuSans-97"/>
      <use x="1673.003906" xlink:href="#DejaVuSans-108"/>
      <use x="1700.787109" xlink:href="#DejaVuSans-115"/>
      <use x="1752.886719" xlink:href="#DejaVuSans-101"/>
      <use x="1814.410156" xlink:href="#DejaVuSans-93"/>
     </g>
    </g>
    <g id="line2d_79">
     <path d="M 84.796742 267.660937 
L 112.796742 267.660937 
" style="fill:none;stroke:#1f77b4;stroke-linecap:square;stroke-width:3;"/>
    </g>
    <g id="line2d_80"/>
    <g id="text_23">
     <!-- Python-PGD[use_acceleration=True] -->
     <g transform="translate(123.996742 272.560937)scale(0.14 -0.14)">
      <use xlink:href="#DejaVuSans-80"/>
      <use x="60.302734" xlink:href="#DejaVuSans-121"/>
      <use x="119.482422" xlink:href="#DejaVuSans-116"/>
      <use x="158.691406" xlink:href="#DejaVuSans-104"/>
      <use x="222.070312" xlink:href="#DejaVuSans-111"/>
      <use x="283.251953" xlink:href="#DejaVuSans-110"/>
      <use x="346.630859" xlink:href="#DejaVuSans-45"/>
      <use x="382.714844" xlink:href="#DejaVuSans-80"/>
      <use x="443.017578" xlink:href="#DejaVuSans-71"/>
      <use x="520.507812" xlink:href="#DejaVuSans-68"/>
      <use x="597.509766" xlink:href="#DejaVuSans-91"/>
      <use x="636.523438" xlink:href="#DejaVuSans-117"/>
      <use x="699.902344" xlink:href="#DejaVuSans-115"/>
      <use x="752.001953" xlink:href="#DejaVuSans-101"/>
      <use x="813.525391" xlink:href="#DejaVuSans-95"/>
      <use x="863.525391" xlink:href="#DejaVuSans-97"/>
      <use x="924.804688" xlink:href="#DejaVuSans-99"/>
      <use x="979.785156" xlink:href="#DejaVuSans-99"/>
      <use x="1034.765625" xlink:href="#DejaVuSans-101"/>
      <use x="1096.289062" xlink:href="#DejaVuSans-108"/>
      <use x="1124.072266" xlink:href="#DejaVuSans-101"/>
      <use x="1185.595703" xlink:href="#DejaVuSans-114"/>
      <use x="1226.708984" xlink:href="#DejaVuSans-97"/>
      <use x="1287.988281" xlink:href="#DejaVuSans-116"/>
      <use x="1327.197266" xlink:href="#DejaVuSans-105"/>
      <use x="1354.980469" xlink:href="#DejaVuSans-111"/>
      <use x="1416.162109" xlink:href="#DejaVuSans-110"/>
      <use x="1479.541016" xlink:href="#DejaVuSans-61"/>
      <use x="1563.330078" xlink:href="#DejaVuSans-84"/>
      <use x="1609.664062" xlink:href="#DejaVuSans-114"/>
      <use x="1650.777344" xlink:href="#DejaVuSans-117"/>
      <use x="1714.15625" xlink:href="#DejaVuSans-101"/>
      <use x="1775.679688" xlink:href="#DejaVuSans-93"/>
     </g>
    </g>
    <g id="line2d_81">
     <path d="M 84.796742 288.599687 
L 112.796742 288.599687 
" style="fill:none;stroke:#ff7f0e;stroke-linecap:square;stroke-width:3;"/>
    </g>
    <g id="line2d_82"/>
    <g id="text_24">
     <!-- R-PGD -->
     <g transform="translate(123.996742 293.499687)scale(0.14 -0.14)">
      <use xlink:href="#DejaVuSans-82"/>
      <use x="65.482422" xlink:href="#DejaVuSans-45"/>
      <use x="101.566406" xlink:href="#DejaVuSans-80"/>
      <use x="161.869141" xlink:href="#DejaVuSans-71"/>
      <use x="239.359375" xlink:href="#DejaVuSans-68"/>
     </g>
    </g>
    <g id="line2d_83">
     <path d="M 84.796742 309.149062 
L 112.796742 309.149062 
" style="fill:none;stroke:#2ca02c;stroke-linecap:square;stroke-width:3;"/>
    </g>
    <g id="line2d_84"/>
    <g id="text_25">
     <!-- sklearn -->
     <g transform="translate(123.996742 314.049062)scale(0.14 -0.14)">
      <defs>
       <path d="M 9.078125 75.984375 
L 18.109375 75.984375 
L 18.109375 31.109375 
L 44.921875 54.6875 
L 56.390625 54.6875 
L 27.390625 29.109375 
L 57.625 0 
L 45.90625 0 
L 18.109375 26.703125 
L 18.109375 0 
L 9.078125 0 
z
" id="DejaVuSans-107"/>
      </defs>
      <use xlink:href="#DejaVuSans-115"/>
      <use x="52.099609" xlink:href="#DejaVuSans-107"/>
      <use x="110.009766" xlink:href="#DejaVuSans-108"/>
      <use x="137.792969" xlink:href="#DejaVuSans-101"/>
      <use x="199.316406" xlink:href="#DejaVuSans-97"/>
      <use x="260.595703" xlink:href="#DejaVuSans-114"/>
      <use x="299.958984" xlink:href="#DejaVuSans-110"/>
     </g>
    </g>
    <g id="line2d_85">
     <path d="M 84.796742 329.698437 
L 112.796742 329.698437 
" style="fill:none;stroke:#d62728;stroke-linecap:square;stroke-width:3;"/>
    </g>
    <g id="line2d_86"/>
    <g id="text_26">
     <!-- statsmodels -->
     <g transform="translate(123.996742 334.598437)scale(0.14 -0.14)">
      <use xlink:href="#DejaVuSans-115"/>
      <use x="52.099609" xlink:href="#DejaVuSans-116"/>
      <use x="91.308594" xlink:href="#DejaVuSans-97"/>
      <use x="152.587891" xlink:href="#DejaVuSans-116"/>
      <use x="191.796875" xlink:href="#DejaVuSans-115"/>
      <use x="243.896484" xlink:href="#DejaVuSans-109"/>
      <use x="341.308594" xlink:href="#DejaVuSans-111"/>
      <use x="402.490234" xlink:href="#DejaVuSans-100"/>
      <use x="465.966797" xlink:href="#DejaVuSans-101"/>
      <use x="527.490234" xlink:href="#DejaVuSans-108"/>
      <use x="555.273438" xlink:href="#DejaVuSans-115"/>
     </g>
    </g>
   </g>
  </g>
 </g>
 <defs>
  <clipPath id="pd28ee735ad">
   <rect height="253.288" width="377.803258" x="72.196742" y="43.44"/>
  </clipPath>
 </defs>
</svg>
