<?xml version="1.0" encoding="utf-8" standalone="no"?>
<!DOCTYPE svg PUBLIC "-//W3C//DTD SVG 1.1//EN"
  "http://www.w3.org/Graphics/SVG/1.1/DTD/svg11.dtd">
<!-- Created with matplotlib (https://matplotlib.org/) -->
<svg height="345.6pt" version="1.1" viewBox="0 0 460.8 345.6" width="460.8pt" xmlns="http://www.w3.org/2000/svg" xmlns:xlink="http://www.w3.org/1999/xlink">
 <metadata>
  <rdf:RDF xmlns:cc="http://creativecommons.org/ns#" xmlns:dc="http://purl.org/dc/elements/1.1/" xmlns:rdf="http://www.w3.org/1999/02/22-rdf-syntax-ns#">
   <cc:Work>
    <dc:type rdf:resource="http://purl.org/dc/dcmitype/StillImage"/>
    <dc:date>2020-12-16T18:00:02.776403</dc:date>
    <dc:format>image/svg+xml</dc:format>
    <dc:creator>
     <cc:Agent>
      <dc:title>Matplotlib v3.3.3, https://matplotlib.org/</dc:title>
     </cc:Agent>
    </dc:creator>
   </cc:Work>
  </rdf:RDF>
 </metadata>
 <defs>
  <style type="text/css">*{stroke-linecap:butt;stroke-linejoin:round;}</style>
 </defs>
 <g id="figure_1">
  <g id="patch_1">
   <path d="M 0 345.6 
L 460.8 345.6 
L 460.8 0 
L 0 0 
z
" style="fill:#ffffff;"/>
  </g>
  <g id="axes_1">
   <g id="patch_2">
    <path d="M 72.196742 296.728 
L 450 296.728 
L 450 43.44 
L 72.196742 43.44 
z
" style="fill:#ffffff;"/>
   </g>
   <g id="PolyCollection_1">
    <defs>
     <path d="M 227.509333 -60.385091 
L 223.464471 -60.385091 
L 224.851859 -60.385091 
L 225.818278 -60.385091 
L 224.93859 -60.385091 
L 224.368465 -60.385091 
L 223.974914 -60.385091 
L 221.699234 -60.385091 
L 219.943234 -60.385091 
L 218.731781 -60.385091 
L 218.726336 -60.385091 
L 216.954532 -60.385091 
L 215.262593 -60.385091 
L 215.919682 -60.385091 
L 215.649616 -60.385091 
L 214.542817 -60.385091 
L 213.679999 -60.385091 
L 211.780856 -60.385091 
L 211.398938 -60.385091 
L 210.228472 -60.385091 
L 209.23452 -60.385091 
L 208.099302 -60.385091 
L 206.398619 -60.385091 
L 205.137801 -60.385092 
L 203.649213 -60.385092 
L 202.779722 -60.385093 
L 200.17484 -60.385096 
L 198.087895 -60.3851 
L 196.786441 -60.385113 
L 195.942045 -60.385115 
L 193.222756 -60.385196 
L 189.445422 -60.385357 
L 186.528841 -60.386165 
L 187.051629 -60.386071 
L 187.371126 -60.386245 
L 185.581615 -60.38923 
L 189.663659 -60.389229 
L 177.980919 -60.408375 
L 173.831571 -60.413552 
L 177.077393 -60.413057 
L 169.967865 -60.41476 
L 159.480254 -60.804265 
L 163.244035 -60.798921 
L 158.764324 -60.81952 
L 152.076726 -62.283041 
L 139.104345 -62.744214 
L 140.023114 -62.768485 
L 116.915924 -65.079588 
L 115.083403 -65.073634 
L 123.933996 -65.073634 
L 123.933996 -65.073634 
L 123.179252 -65.079588 
L 155.104057 -62.768485 
L 157.517479 -62.744214 
L 159.533339 -62.283041 
L 167.022904 -60.81952 
L 177.529505 -60.798921 
L 166.73186 -60.804265 
L 179.650448 -60.41476 
L 186.60545 -60.413057 
L 185.544595 -60.413552 
L 194.269589 -60.408375 
L 192.214983 -60.389229 
L 191.222656 -60.38923 
L 194.245426 -60.386245 
L 193.51123 -60.386071 
L 190.877927 -60.386165 
L 196.773552 -60.385357 
L 197.023628 -60.385196 
L 197.275829 -60.385115 
L 200.624349 -60.385113 
L 203.90977 -60.3851 
L 203.104675 -60.385096 
L 205.610043 -60.385093 
L 207.564331 -60.385092 
L 209.888153 -60.385092 
L 209.575208 -60.385091 
L 213.674949 -60.385091 
L 215.854875 -60.385091 
L 214.267859 -60.385091 
L 214.426812 -60.385091 
L 217.311577 -60.385091 
L 216.787046 -60.385091 
L 218.772485 -60.385091 
L 220.943468 -60.385091 
L 218.905905 -60.385091 
L 219.889352 -60.385091 
L 221.524621 -60.385091 
L 223.717854 -60.385091 
L 225.388804 -60.385091 
L 224.71719 -60.385091 
L 223.473917 -60.385091 
L 228.112421 -60.385091 
L 227.562219 -60.385091 
L 227.697206 -60.385091 
L 228.229503 -60.385091 
L 228.648666 -60.385091 
L 227.509333 -60.385091 
z
" id="mbfa213f6bb" style="stroke:#1f77b4;stroke-opacity:0.3;"/>
    </defs>
    <g clip-path="url(#p6a5f13cbfe)">
     <use style="fill:#1f77b4;fill-opacity:0.3;stroke:#1f77b4;stroke-opacity:0.3;" x="0" xlink:href="#mbfa213f6bb" y="345.6"/>
    </g>
   </g>
   <g id="PolyCollection_2">
    <defs>
     <path d="M 133.51684 -185.23467 
L 113.393265 -185.23467 
L 132.304458 -130.851023 
L 142.359716 -104.910698 
L 143.461002 -91.431019 
L 155.481807 -77.496014 
L 170.967263 -68.583387 
L 176.382466 -63.651106 
L 190.830274 -61.075431 
L 197.700587 -60.485126 
L 210.692356 -60.404061 
L 224.060924 -60.388615 
L 237.634839 -60.385718 
L 251.212672 -60.38513 
L 265.394937 -60.385092 
L 279.550053 -60.385091 
L 291.247335 -60.385091 
L 304.524718 -60.385091 
L 315.785338 -60.385091 
L 331.252124 -60.385091 
L 352.124671 -60.385091 
L 373.520012 -60.385091 
L 396.760314 -60.385091 
L 398.626185 -60.385091 
L 398.626185 -60.385091 
L 376.995053 -60.385091 
L 353.542159 -60.385091 
L 333.226302 -60.385091 
L 322.063135 -60.385091 
L 309.940559 -60.385091 
L 300.902077 -60.385091 
L 281.796604 -60.385091 
L 267.012651 -60.385092 
L 252.638568 -60.38513 
L 240.887047 -60.385718 
L 226.558084 -60.388615 
L 214.792639 -60.404061 
L 200.665376 -60.485126 
L 197.980054 -61.075431 
L 185.338333 -63.651106 
L 178.940979 -68.583387 
L 166.434593 -77.496014 
L 165.179092 -91.431019 
L 153.476236 -104.910698 
L 157.748707 -130.851023 
L 133.51684 -185.23467 
z
" id="m440d2101d1" style="stroke:#ff7f0e;stroke-opacity:0.3;"/>
    </defs>
    <g clip-path="url(#p6a5f13cbfe)">
     <use style="fill:#ff7f0e;fill-opacity:0.3;stroke:#ff7f0e;stroke-opacity:0.3;" x="0" xlink:href="#m440d2101d1" y="345.6"/>
    </g>
   </g>
   <g id="PolyCollection_3">
    <defs>
     <path d="M 162.875263 -212.115758 
L 151.113831 -212.115758 
L 167.462218 -138.072503 
L 165.54167 -86.141256 
L 173.90421 -68.552148 
L 180.131723 -61.078366 
L 196.736371 -60.38544 
L 207.026776 -60.385091 
L 214.872095 -60.385091 
L 215.757683 -60.385091 
L 215.427962 -60.385091 
L 216.750938 -60.385091 
L 216.536778 -60.385091 
L 216.073406 -60.385091 
L 218.314968 -60.385091 
L 218.314968 -60.385091 
L 218.380785 -60.385091 
L 218.417685 -60.385091 
L 217.932454 -60.385091 
L 217.67694 -60.385091 
L 217.452673 -60.385091 
L 212.783833 -60.385091 
L 208.667655 -60.38544 
L 192.91987 -61.078366 
L 181.644717 -68.552148 
L 177.180635 -86.141256 
L 180.368181 -138.072503 
L 162.875263 -212.115758 
z
" id="m604d8e4d36" style="stroke:#2ca02c;stroke-opacity:0.3;"/>
    </defs>
    <g clip-path="url(#p6a5f13cbfe)">
     <use style="fill:#2ca02c;fill-opacity:0.3;stroke:#2ca02c;stroke-opacity:0.3;" x="0" xlink:href="#m604d8e4d36" y="345.6"/>
    </g>
   </g>
   <g id="PolyCollection_4">
    <defs>
     <path d="M 329.127691 -258.819218 
L 288.339488 -258.819218 
L 302.463312 -258.819218 
L 308.830002 -258.819218 
L 326.788482 -258.819218 
L 360.387189 -147.384627 
L 382.262976 -60.385091 
L 381.173686 -60.385091 
L 381.005985 -60.385091 
L 380.216567 -60.385091 
L 378.669784 -60.385091 
L 378.725193 -60.385091 
L 379.871363 -60.385091 
L 379.871363 -60.385091 
L 381.167167 -60.385091 
L 382.768094 -60.385091 
L 382.886191 -60.385091 
L 384.348547 -60.385091 
L 384.264137 -60.385091 
L 362.548767 -147.384627 
L 328.318093 -258.819218 
L 311.086481 -258.819218 
L 308.251574 -258.819218 
L 329.127691 -258.819218 
z
" id="m0371c77eca" style="stroke:#d62728;stroke-opacity:0.3;"/>
    </defs>
    <g clip-path="url(#p6a5f13cbfe)">
     <use style="fill:#d62728;fill-opacity:0.3;stroke:#d62728;stroke-opacity:0.3;" x="0" xlink:href="#m0371c77eca" y="345.6"/>
    </g>
   </g>
   <g id="PolyCollection_5">
    <defs>
     <path d="M 112.631127 -290.646909 
L 89.369618 -290.646909 
L 97.423572 -178.316113 
L 109.856483 -138.819542 
L 115.787924 -130.57912 
L 126.983275 -116.224243 
L 136.960371 -107.076242 
L 151.511266 -103.704405 
L 161.970627 -103.704405 
L 192.805145 -75.606084 
L 215.857097 -64.537686 
L 238.320387 -61.736935 
L 260.3771 -60.452576 
L 279.535542 -60.385791 
L 300.807869 -60.385091 
L 319.632445 -60.385091 
L 338.999449 -60.385091 
L 363.624994 -60.385091 
L 384.902288 -60.385091 
L 408.831246 -60.385091 
L 431.864053 -60.385091 
L 432.827125 -60.385091 
L 432.827125 -60.385091 
L 410.359577 -60.385091 
L 386.67917 -60.385091 
L 365.586993 -60.385091 
L 343.399147 -60.385091 
L 334.245644 -60.385091 
L 312.946722 -60.385091 
L 283.831491 -60.385791 
L 263.865193 -60.452576 
L 241.78729 -61.736935 
L 225.052115 -64.537686 
L 203.226402 -75.606084 
L 170.968272 -103.704405 
L 163.823982 -103.704405 
L 148.870374 -107.076242 
L 147.083565 -116.224243 
L 142.829195 -130.57912 
L 136.042013 -138.819542 
L 127.74194 -178.316113 
L 112.631127 -290.646909 
z
" id="mbe88e11bd0" style="stroke:#9467bd;stroke-opacity:0.3;"/>
    </defs>
    <g clip-path="url(#p6a5f13cbfe)">
     <use style="fill:#9467bd;fill-opacity:0.3;stroke:#9467bd;stroke-opacity:0.3;" x="0" xlink:href="#mbe88e11bd0" y="345.6"/>
    </g>
   </g>
   <g id="PolyCollection_6">
    <defs>
     <path d="M 215.572098 -290.646909 
L 192.593647 -290.646909 
L 197.46428 -289.40766 
L 198.622478 -289.40766 
L 198.308521 -288.22023 
L 201.296453 -287.08284 
L 202.568884 -284.951229 
L 207.336477 -281.214104 
L 212.457987 -278.696939 
L 214.923203 -270.252034 
L 220.390965 -255.195514 
L 224.552964 -228.592415 
L 228.319685 -198.234082 
L 238.943348 -150.747288 
L 248.299153 -105.480287 
L 264.515995 -71.181254 
L 277.994292 -60.979659 
L 286.08297 -60.385091 
L 285.796198 -60.385091 
L 284.938679 -60.385091 
L 285.123538 -60.385091 
L 284.948537 -60.385091 
L 283.588922 -60.385091 
L 287.414208 -60.385091 
L 287.414208 -60.385091 
L 295.372654 -60.385091 
L 287.376465 -60.385091 
L 290.630765 -60.385091 
L 297.550529 -60.385091 
L 297.285706 -60.385091 
L 280.904541 -60.979659 
L 281.941693 -71.181254 
L 273.053918 -105.480287 
L 249.516698 -150.747288 
L 263.219494 -198.234082 
L 235.696319 -228.592415 
L 261.012739 -255.195514 
L 226.578499 -270.252034 
L 229.754282 -278.696939 
L 228.530068 -281.214104 
L 220.537226 -284.951229 
L 223.837563 -287.08284 
L 221.098636 -288.22023 
L 259.266469 -289.40766 
L 220.71208 -289.40766 
L 215.572098 -290.646909 
z
" id="md54a1c42ac" style="stroke:#8c564b;stroke-opacity:0.3;"/>
    </defs>
    <g clip-path="url(#p6a5f13cbfe)">
     <use style="fill:#8c564b;fill-opacity:0.3;stroke:#8c564b;stroke-opacity:0.3;" x="0" xlink:href="#md54a1c42ac" y="345.6"/>
    </g>
   </g>
   <g id="PolyCollection_7">
    <defs>
     <path d="M 270.821809 -168.276647 
L 229.635463 -168.276647 
L 230.683994 -149.017686 
L 231.849797 -139.628533 
L 231.611129 -132.99825 
L 235.044833 -123.528018 
L 236.267473 -114.230179 
L 239.027914 -106.34703 
L 241.997585 -98.691439 
L 247.140697 -91.528157 
L 249.233078 -84.387539 
L 259.811914 -78.390941 
L 269.971347 -73.670965 
L 278.726825 -69.573737 
L 284.64989 -66.158135 
L 288.70216 -63.82625 
L 296.812781 -62.540517 
L 302.045503 -61.587532 
L 310.286027 -61.067157 
L 321.923541 -60.670164 
L 335.604893 -60.471677 
L 349.907147 -60.403673 
L 361.564372 -60.387519 
L 375.679494 -60.385729 
L 390.705782 -60.385179 
L 406.55592 -60.385096 
L 411.57351 -60.385096 
L 411.57351 -60.385096 
L 398.213237 -60.385179 
L 379.534139 -60.385729 
L 368.646373 -60.387519 
L 354.114987 -60.403673 
L 343.009812 -60.471677 
L 332.739914 -60.670164 
L 319.189266 -61.067157 
L 308.514539 -61.587532 
L 302.524685 -62.540517 
L 301.41851 -63.82625 
L 285.196055 -66.158135 
L 281.100846 -69.573737 
L 276.068868 -73.670965 
L 265.936592 -78.390941 
L 256.497498 -84.387539 
L 251.25484 -91.528157 
L 245.780387 -98.691439 
L 242.395417 -106.34703 
L 243.553585 -114.230179 
L 261.81912 -123.528018 
L 258.266902 -132.99825 
L 242.457029 -139.628533 
L 235.588444 -149.017686 
L 270.821809 -168.276647 
z
" id="m62ba7ac26a" style="stroke:#e377c2;stroke-opacity:0.3;"/>
    </defs>
    <g clip-path="url(#p6a5f13cbfe)">
     <use style="fill:#e377c2;fill-opacity:0.3;stroke:#e377c2;stroke-opacity:0.3;" x="0" xlink:href="#m62ba7ac26a" y="345.6"/>
    </g>
   </g>
   <g id="PolyCollection_8">
    <defs>
     <path d="M 200.049636 -232.979027 
L 195.476811 -232.979027 
L 197.790922 -149.861592 
L 199.907996 -143.060893 
L 201.621171 -129.354941 
L 207.047742 -113.014589 
L 211.850739 -98.073153 
L 217.847523 -85.377286 
L 224.87716 -75.386945 
L 233.764789 -67.212963 
L 243.195829 -63.077815 
L 255.648315 -61.456001 
L 265.768171 -60.674204 
L 278.563441 -60.424073 
L 290.809831 -60.387028 
L 302.758731 -60.385207 
L 314.121595 -60.385091 
L 327.97542 -60.385091 
L 332.185747 -60.385091 
L 332.228593 -60.385091 
L 333.478803 -60.385091 
L 331.761011 -60.385091 
L 332.348186 -60.385091 
L 332.653715 -60.385091 
L 336.622255 -60.385091 
L 336.622255 -60.385091 
L 334.274211 -60.385091 
L 334.699305 -60.385091 
L 346.169144 -60.385091 
L 333.112372 -60.385091 
L 336.659284 -60.385091 
L 334.652179 -60.385091 
L 323.048822 -60.385091 
L 304.545576 -60.385207 
L 300.497724 -60.387028 
L 292.88064 -60.424073 
L 266.909932 -60.674204 
L 306.262575 -61.456001 
L 246.778478 -63.077815 
L 258.569387 -67.212963 
L 226.77647 -75.386945 
L 220.097657 -85.377286 
L 250.21749 -98.073153 
L 210.122286 -113.014589 
L 245.832652 -129.354941 
L 201.760451 -143.060893 
L 244.45263 -149.861592 
L 200.049636 -232.979027 
z
" id="m1c0f7c5e9d" style="stroke:#7f7f7f;stroke-opacity:0.3;"/>
    </defs>
    <g clip-path="url(#p6a5f13cbfe)">
     <use style="fill:#7f7f7f;fill-opacity:0.3;stroke:#7f7f7f;stroke-opacity:0.3;" x="0" xlink:href="#m1c0f7c5e9d" y="345.6"/>
    </g>
   </g>
   <g id="PolyCollection_9">
    <defs>
     <path d="M 158.257264 -240.631678 
L 153.154226 -240.631678 
L 176.100519 -191.698691 
L 176.527748 -154.807596 
L 178.024744 -131.140968 
L 180.320583 -106.937092 
L 182.643597 -92.172248 
L 182.011756 -84.929703 
L 186.260035 -80.587578 
L 187.573037 -80.457754 
L 190.789627 -84.966297 
L 194.446946 -83.48617 
L 199.117207 -80.416856 
L 207.122016 -81.025566 
L 215.095906 -82.757952 
L 222.841752 -81.087773 
L 233.062608 -82.948908 
L 244.890193 -81.388946 
L 252.61603 -82.297149 
L 263.605505 -82.42908 
L 278.753185 -81.593835 
L 287.417363 -81.405569 
L 297.705457 -83.559064 
L 307.733222 -79.263169 
L 320.236461 -80.906103 
L 333.25254 -81.43788 
L 349.547086 -81.985964 
L 366.249963 -79.303915 
L 377.767568 -82.736536 
L 390.531431 -79.173863 
L 405.841933 -84.456973 
L 421.481638 -85.578048 
L 421.481638 -85.578048 
L 421.481638 -85.578048 
L 407.67537 -84.456973 
L 392.432107 -79.173863 
L 384.5154 -82.736536 
L 373.184556 -79.303915 
L 354.553853 -81.985964 
L 335.832514 -81.43788 
L 323.168527 -80.906103 
L 312.340706 -79.263169 
L 304.113314 -83.559064 
L 295.307209 -81.405569 
L 279.557538 -81.593835 
L 275.450093 -82.42908 
L 261.45426 -82.297149 
L 248.975905 -81.388946 
L 234.858462 -82.948908 
L 225.346626 -81.087773 
L 216.403364 -82.757952 
L 208.686147 -81.025566 
L 206.21898 -80.416856 
L 195.575036 -83.48617 
L 197.999125 -84.966297 
L 189.466906 -80.457754 
L 192.235177 -80.587578 
L 184.031612 -84.929703 
L 190.320908 -92.172248 
L 200.872761 -106.937092 
L 182.288158 -131.140968 
L 183.165183 -154.807596 
L 184.73134 -191.698691 
L 158.257264 -240.631678 
z
" id="m511bab10df" style="stroke:#bcbd22;stroke-opacity:0.3;"/>
    </defs>
    <g clip-path="url(#p6a5f13cbfe)">
     <use style="fill:#bcbd22;fill-opacity:0.3;stroke:#bcbd22;stroke-opacity:0.3;" x="0" xlink:href="#m511bab10df" y="345.6"/>
    </g>
   </g>
   <g id="PolyCollection_10">
    <defs>
     <path d="M 217.153889 -168.276647 
L 213.455644 -168.276647 
L 218.260976 -149.017686 
L 217.022266 -139.628533 
L 216.260221 -132.99825 
L 218.403557 -123.528018 
L 218.557059 -114.230179 
L 220.459683 -106.34703 
L 223.341346 -98.691439 
L 224.681665 -91.528157 
L 225.757665 -84.387539 
L 231.092736 -78.390941 
L 237.424986 -73.670965 
L 243.769324 -69.573737 
L 252.551494 -66.158135 
L 263.534907 -63.82625 
L 273.703992 -62.540517 
L 282.261624 -61.587532 
L 294.532582 -61.067157 
L 305.962782 -60.670164 
L 316.74162 -60.471677 
L 330.865177 -60.403673 
L 344.499117 -60.387519 
L 362.196526 -60.385729 
L 376.579734 -60.385179 
L 395.180138 -60.385096 
L 411.262409 -60.385091 
L 419.094385 -60.385091 
L 419.094385 -60.385091 
L 412.884614 -60.385096 
L 378.621574 -60.385179 
L 365.31352 -60.385729 
L 345.662578 -60.387519 
L 331.576118 -60.403673 
L 319.293662 -60.471677 
L 309.585162 -60.670164 
L 299.42083 -61.067157 
L 286.949855 -61.587532 
L 276.201429 -62.540517 
L 266.41837 -63.82625 
L 297.62677 -66.158135 
L 247.749941 -69.573737 
L 239.529491 -73.670965 
L 233.278658 -78.390941 
L 230.419725 -84.387539 
L 226.942266 -91.528157 
L 224.959299 -98.691439 
L 224.173644 -106.34703 
L 224.607571 -114.230179 
L 221.256792 -123.528018 
L 220.850864 -132.99825 
L 221.584716 -139.628533 
L 225.874049 -149.017686 
L 217.153889 -168.276647 
z
" id="m26cb38cf21" style="stroke:#17becf;stroke-opacity:0.3;"/>
    </defs>
    <g clip-path="url(#p6a5f13cbfe)">
     <use style="fill:#17becf;fill-opacity:0.3;stroke:#17becf;stroke-opacity:0.3;" x="0" xlink:href="#m26cb38cf21" y="345.6"/>
    </g>
   </g>
   <g id="PolyCollection_11">
    <defs>
     <path d="M 235.567997 -168.276647 
L 223.984272 -168.276647 
L 232.030435 -149.017686 
L 232.058218 -137.490917 
L 232.908409 -128.488913 
L 233.528624 -114.791535 
L 232.84573 -101.326723 
L 233.930739 -89.813847 
L 235.851059 -79.131478 
L 237.053765 -71.181871 
L 239.501253 -64.94202 
L 243.065531 -62.17343 
L 248.342911 -60.964036 
L 256.543994 -60.456808 
L 263.584273 -60.402533 
L 272.191013 -60.387712 
L 281.325542 -60.385478 
L 290.623051 -60.385155 
L 306.029306 -60.3851 
L 315.737435 -60.385093 
L 324.289641 -60.385091 
L 340.859836 -60.385091 
L 354.124196 -60.385091 
L 371.168171 -60.385091 
L 384.837556 -60.385091 
L 396.103547 -60.385091 
L 411.793242 -60.385091 
L 416.171457 -60.385091 
L 416.171457 -60.385091 
L 406.592633 -60.385091 
L 395.465281 -60.385091 
L 377.257993 -60.385091 
L 360.096775 -60.385091 
L 346.154562 -60.385091 
L 332.811399 -60.385091 
L 319.712582 -60.385093 
L 329.529058 -60.3851 
L 294.580724 -60.385155 
L 283.20285 -60.385478 
L 274.334332 -60.387712 
L 265.284701 -60.402533 
L 260.158141 -60.456808 
L 251.084607 -60.964036 
L 247.051873 -62.17343 
L 241.956922 -64.94202 
L 239.496828 -71.181871 
L 237.551418 -79.131478 
L 236.689189 -89.813847 
L 234.636697 -101.326723 
L 235.185422 -114.791535 
L 236.332346 -128.488913 
L 233.03068 -137.490917 
L 233.451766 -149.017686 
L 235.567997 -168.276647 
z
" id="m047b717063" style="stroke:#1f77b4;stroke-opacity:0.3;"/>
    </defs>
    <g clip-path="url(#p6a5f13cbfe)">
     <use style="fill:#1f77b4;fill-opacity:0.3;stroke:#1f77b4;stroke-opacity:0.3;" x="0" xlink:href="#m047b717063" y="345.6"/>
    </g>
   </g>
   <g id="PolyCollection_12">
    <defs>
     <path d="M 246.406746 -168.276647 
L 242.477792 -168.276647 
L 252.154429 -149.017686 
L 259.052305 -139.628533 
L 264.561197 -132.99825 
L 273.622942 -123.528018 
L 286.938509 -114.230179 
L 297.307565 -106.34703 
L 308.819038 -98.691439 
L 321.157711 -91.528157 
L 337.62619 -84.387539 
L 349.597726 -78.390941 
L 364.51143 -73.670965 
L 378.456367 -69.573737 
L 396.209519 -66.158135 
L 408.99538 -63.82625 
L 430.332934 -62.540517 
L 430.332934 -62.540517 
L 430.332934 -62.540517 
L 412.426077 -63.82625 
L 399.187385 -66.158135 
L 382.476283 -69.573737 
L 366.507983 -73.670965 
L 353.518286 -78.390941 
L 341.118467 -84.387539 
L 326.131944 -91.528157 
L 311.116984 -98.691439 
L 299.930264 -106.34703 
L 293.542037 -114.230179 
L 278.414806 -123.528018 
L 285.597815 -132.99825 
L 264.408639 -139.628533 
L 257.954741 -149.017686 
L 246.406746 -168.276647 
z
" id="m32742eb5da" style="stroke:#ff7f0e;stroke-opacity:0.3;"/>
    </defs>
    <g clip-path="url(#p6a5f13cbfe)">
     <use style="fill:#ff7f0e;fill-opacity:0.3;stroke:#ff7f0e;stroke-opacity:0.3;" x="0" xlink:href="#m32742eb5da" y="345.6"/>
    </g>
   </g>
   <g id="PolyCollection_13">
    <defs>
     <path d="M 175.270176 -185.23467 
L 166.670578 -185.23467 
L 153.74612 -130.851023 
L 161.056482 -104.910698 
L 162.245866 -91.431019 
L 169.486261 -77.496014 
L 168.033285 -68.583387 
L 177.47987 -63.651106 
L 183.631955 -61.075431 
L 190.092868 -60.485126 
L 201.59727 -60.404061 
L 216.416777 -60.388615 
L 227.339426 -60.385718 
L 239.227436 -60.38513 
L 253.411959 -60.385092 
L 267.686714 -60.385091 
L 282.225796 -60.385091 
L 293.733941 -60.385091 
L 303.891781 -60.385091 
L 319.345305 -60.385091 
L 337.289334 -60.385091 
L 358.831684 -60.385091 
L 387.240462 -60.385091 
L 398.910013 -60.385091 
L 398.910013 -60.385091 
L 368.007995 -60.385091 
L 338.20095 -60.385091 
L 322.346746 -60.385091 
L 305.384376 -60.385091 
L 294.358042 -60.385091 
L 283.405201 -60.385091 
L 269.612967 -60.385091 
L 255.139425 -60.385092 
L 242.180701 -60.38513 
L 231.241282 -60.385718 
L 221.307138 -60.388615 
L 206.75598 -60.404061 
L 202.176743 -60.485126 
L 192.03107 -61.075431 
L 183.975696 -63.651106 
L 185.180155 -68.583387 
L 176.844519 -77.496014 
L 174.94583 -91.431019 
L 187.02412 -104.910698 
L 176.46189 -130.851023 
L 175.270176 -185.23467 
z
" id="m556908513f" style="stroke:#2ca02c;stroke-opacity:0.3;"/>
    </defs>
    <g clip-path="url(#p6a5f13cbfe)">
     <use style="fill:#2ca02c;fill-opacity:0.3;stroke:#2ca02c;stroke-opacity:0.3;" x="0" xlink:href="#m556908513f" y="345.6"/>
    </g>
   </g>
   <g id="PolyCollection_14">
    <defs>
     <path d="M 358.722274 -185.23467 
L 353.75599 -185.23467 
L 381.090404 -130.851023 
L 379.394505 -104.201162 
L 384.063127 -91.520175 
L 384.930895 -81.500592 
L 385.912666 -77.736977 
L 385.607886 -77.043877 
L 388.422253 -77.043877 
L 388.422253 -77.043877 
L 390.135602 -77.736977 
L 388.433726 -81.500592 
L 387.561442 -91.520175 
L 381.596003 -104.201162 
L 383.977274 -130.851023 
L 358.722274 -185.23467 
z
" id="m1c6ddaef08" style="stroke:#d62728;stroke-opacity:0.3;"/>
    </defs>
    <g clip-path="url(#p6a5f13cbfe)">
     <use style="fill:#d62728;fill-opacity:0.3;stroke:#d62728;stroke-opacity:0.3;" x="0" xlink:href="#m1c6ddaef08" y="345.6"/>
    </g>
   </g>
   <g id="matplotlib.axis_1">
    <g id="xtick_1">
     <g id="line2d_1">
      <defs>
       <path d="M 0 0 
L 0 3.5 
" id="m387eeb3b4b" style="stroke:#000000;stroke-width:0.8;"/>
      </defs>
      <g>
       <use style="stroke:#000000;stroke-width:0.8;" x="84.740933" xlink:href="#m387eeb3b4b" y="296.728"/>
      </g>
     </g>
     <g id="text_1">
      <!-- $\mathdefault{10^{-3}}$ -->
      <g transform="translate(72.990933 311.326437)scale(0.1 -0.1)">
       <defs>
        <path d="M 12.40625 8.296875 
L 28.515625 8.296875 
L 28.515625 63.921875 
L 10.984375 60.40625 
L 10.984375 69.390625 
L 28.421875 72.90625 
L 38.28125 72.90625 
L 38.28125 8.296875 
L 54.390625 8.296875 
L 54.390625 0 
L 12.40625 0 
z
" id="DejaVuSans-49"/>
        <path d="M 31.78125 66.40625 
Q 24.171875 66.40625 20.328125 58.90625 
Q 16.5 51.421875 16.5 36.375 
Q 16.5 21.390625 20.328125 13.890625 
Q 24.171875 6.390625 31.78125 6.390625 
Q 39.453125 6.390625 43.28125 13.890625 
Q 47.125 21.390625 47.125 36.375 
Q 47.125 51.421875 43.28125 58.90625 
Q 39.453125 66.40625 31.78125 66.40625 
z
M 31.78125 74.21875 
Q 44.046875 74.21875 50.515625 64.515625 
Q 56.984375 54.828125 56.984375 36.375 
Q 56.984375 17.96875 50.515625 8.265625 
Q 44.046875 -1.421875 31.78125 -1.421875 
Q 19.53125 -1.421875 13.0625 8.265625 
Q 6.59375 17.96875 6.59375 36.375 
Q 6.59375 54.828125 13.0625 64.515625 
Q 19.53125 74.21875 31.78125 74.21875 
z
" id="DejaVuSans-48"/>
        <path d="M 10.59375 35.5 
L 73.1875 35.5 
L 73.1875 27.203125 
L 10.59375 27.203125 
z
" id="DejaVuSans-8722"/>
        <path d="M 40.578125 39.3125 
Q 47.65625 37.796875 51.625 33 
Q 55.609375 28.21875 55.609375 21.1875 
Q 55.609375 10.40625 48.1875 4.484375 
Q 40.765625 -1.421875 27.09375 -1.421875 
Q 22.515625 -1.421875 17.65625 -0.515625 
Q 12.796875 0.390625 7.625 2.203125 
L 7.625 11.71875 
Q 11.71875 9.328125 16.59375 8.109375 
Q 21.484375 6.890625 26.8125 6.890625 
Q 36.078125 6.890625 40.9375 10.546875 
Q 45.796875 14.203125 45.796875 21.1875 
Q 45.796875 27.640625 41.28125 31.265625 
Q 36.765625 34.90625 28.71875 34.90625 
L 20.21875 34.90625 
L 20.21875 43.015625 
L 29.109375 43.015625 
Q 36.375 43.015625 40.234375 45.921875 
Q 44.09375 48.828125 44.09375 54.296875 
Q 44.09375 59.90625 40.109375 62.90625 
Q 36.140625 65.921875 28.71875 65.921875 
Q 24.65625 65.921875 20.015625 65.03125 
Q 15.375 64.15625 9.8125 62.3125 
L 9.8125 71.09375 
Q 15.4375 72.65625 20.34375 73.4375 
Q 25.25 74.21875 29.59375 74.21875 
Q 40.828125 74.21875 47.359375 69.109375 
Q 53.90625 64.015625 53.90625 55.328125 
Q 53.90625 49.265625 50.4375 45.09375 
Q 46.96875 40.921875 40.578125 39.3125 
z
" id="DejaVuSans-51"/>
       </defs>
       <use transform="translate(0 0.765625)" xlink:href="#DejaVuSans-49"/>
       <use transform="translate(63.623047 0.765625)" xlink:href="#DejaVuSans-48"/>
       <use transform="translate(128.203125 39.046875)scale(0.7)" xlink:href="#DejaVuSans-8722"/>
       <use transform="translate(186.855469 39.046875)scale(0.7)" xlink:href="#DejaVuSans-51"/>
      </g>
     </g>
    </g>
    <g id="xtick_2">
     <g id="line2d_2">
      <g>
       <use style="stroke:#000000;stroke-width:0.8;" x="170.643514" xlink:href="#m387eeb3b4b" y="296.728"/>
      </g>
     </g>
     <g id="text_2">
      <!-- $\mathdefault{10^{-2}}$ -->
      <g transform="translate(158.893514 311.326437)scale(0.1 -0.1)">
       <defs>
        <path d="M 19.1875 8.296875 
L 53.609375 8.296875 
L 53.609375 0 
L 7.328125 0 
L 7.328125 8.296875 
Q 12.9375 14.109375 22.625 23.890625 
Q 32.328125 33.6875 34.8125 36.53125 
Q 39.546875 41.84375 41.421875 45.53125 
Q 43.3125 49.21875 43.3125 52.78125 
Q 43.3125 58.59375 39.234375 62.25 
Q 35.15625 65.921875 28.609375 65.921875 
Q 23.96875 65.921875 18.8125 64.3125 
Q 13.671875 62.703125 7.8125 59.421875 
L 7.8125 69.390625 
Q 13.765625 71.78125 18.9375 73 
Q 24.125 74.21875 28.421875 74.21875 
Q 39.75 74.21875 46.484375 68.546875 
Q 53.21875 62.890625 53.21875 53.421875 
Q 53.21875 48.921875 51.53125 44.890625 
Q 49.859375 40.875 45.40625 35.40625 
Q 44.1875 33.984375 37.640625 27.21875 
Q 31.109375 20.453125 19.1875 8.296875 
z
" id="DejaVuSans-50"/>
       </defs>
       <use transform="translate(0 0.765625)" xlink:href="#DejaVuSans-49"/>
       <use transform="translate(63.623047 0.765625)" xlink:href="#DejaVuSans-48"/>
       <use transform="translate(128.203125 39.046875)scale(0.7)" xlink:href="#DejaVuSans-8722"/>
       <use transform="translate(186.855469 39.046875)scale(0.7)" xlink:href="#DejaVuSans-50"/>
      </g>
     </g>
    </g>
    <g id="xtick_3">
     <g id="line2d_3">
      <g>
       <use style="stroke:#000000;stroke-width:0.8;" x="256.546094" xlink:href="#m387eeb3b4b" y="296.728"/>
      </g>
     </g>
     <g id="text_3">
      <!-- $\mathdefault{10^{-1}}$ -->
      <g transform="translate(244.796094 311.326437)scale(0.1 -0.1)">
       <use transform="translate(0 0.684375)" xlink:href="#DejaVuSans-49"/>
       <use transform="translate(63.623047 0.684375)" xlink:href="#DejaVuSans-48"/>
       <use transform="translate(128.203125 38.965625)scale(0.7)" xlink:href="#DejaVuSans-8722"/>
       <use transform="translate(186.855469 38.965625)scale(0.7)" xlink:href="#DejaVuSans-49"/>
      </g>
     </g>
    </g>
    <g id="xtick_4">
     <g id="line2d_4">
      <g>
       <use style="stroke:#000000;stroke-width:0.8;" x="342.448675" xlink:href="#m387eeb3b4b" y="296.728"/>
      </g>
     </g>
     <g id="text_4">
      <!-- $\mathdefault{10^{0}}$ -->
      <g transform="translate(333.648675 311.326437)scale(0.1 -0.1)">
       <use transform="translate(0 0.765625)" xlink:href="#DejaVuSans-49"/>
       <use transform="translate(63.623047 0.765625)" xlink:href="#DejaVuSans-48"/>
       <use transform="translate(128.203125 39.046875)scale(0.7)" xlink:href="#DejaVuSans-48"/>
      </g>
     </g>
    </g>
    <g id="xtick_5">
     <g id="line2d_5">
      <g>
       <use style="stroke:#000000;stroke-width:0.8;" x="428.351255" xlink:href="#m387eeb3b4b" y="296.728"/>
      </g>
     </g>
     <g id="text_5">
      <!-- $\mathdefault{10^{1}}$ -->
      <g transform="translate(419.551255 311.326437)scale(0.1 -0.1)">
       <use transform="translate(0 0.684375)" xlink:href="#DejaVuSans-49"/>
       <use transform="translate(63.623047 0.684375)" xlink:href="#DejaVuSans-48"/>
       <use transform="translate(128.203125 38.965625)scale(0.7)" xlink:href="#DejaVuSans-49"/>
      </g>
     </g>
    </g>
    <g id="xtick_6">
     <g id="line2d_6">
      <defs>
       <path d="M 0 0 
L 0 2 
" id="me31c796ecb" style="stroke:#000000;stroke-width:0.6;"/>
      </defs>
      <g>
       <use style="stroke:#000000;stroke-width:0.6;" x="76.416113" xlink:href="#me31c796ecb" y="296.728"/>
      </g>
     </g>
    </g>
    <g id="xtick_7">
     <g id="line2d_7">
      <g>
       <use style="stroke:#000000;stroke-width:0.6;" x="80.810247" xlink:href="#me31c796ecb" y="296.728"/>
      </g>
     </g>
    </g>
    <g id="xtick_8">
     <g id="line2d_8">
      <g>
       <use style="stroke:#000000;stroke-width:0.6;" x="110.600187" xlink:href="#me31c796ecb" y="296.728"/>
      </g>
     </g>
    </g>
    <g id="xtick_9">
     <g id="line2d_9">
      <g>
       <use style="stroke:#000000;stroke-width:0.6;" x="125.72688" xlink:href="#me31c796ecb" y="296.728"/>
      </g>
     </g>
    </g>
    <g id="xtick_10">
     <g id="line2d_10">
      <g>
       <use style="stroke:#000000;stroke-width:0.6;" x="136.45944" xlink:href="#me31c796ecb" y="296.728"/>
      </g>
     </g>
    </g>
    <g id="xtick_11">
     <g id="line2d_11">
      <g>
       <use style="stroke:#000000;stroke-width:0.6;" x="144.78426" xlink:href="#me31c796ecb" y="296.728"/>
      </g>
     </g>
    </g>
    <g id="xtick_12">
     <g id="line2d_12">
      <g>
       <use style="stroke:#000000;stroke-width:0.6;" x="151.586134" xlink:href="#me31c796ecb" y="296.728"/>
      </g>
     </g>
    </g>
    <g id="xtick_13">
     <g id="line2d_13">
      <g>
       <use style="stroke:#000000;stroke-width:0.6;" x="157.337036" xlink:href="#me31c796ecb" y="296.728"/>
      </g>
     </g>
    </g>
    <g id="xtick_14">
     <g id="line2d_14">
      <g>
       <use style="stroke:#000000;stroke-width:0.6;" x="162.318694" xlink:href="#me31c796ecb" y="296.728"/>
      </g>
     </g>
    </g>
    <g id="xtick_15">
     <g id="line2d_15">
      <g>
       <use style="stroke:#000000;stroke-width:0.6;" x="166.712827" xlink:href="#me31c796ecb" y="296.728"/>
      </g>
     </g>
    </g>
    <g id="xtick_16">
     <g id="line2d_16">
      <g>
       <use style="stroke:#000000;stroke-width:0.6;" x="196.502767" xlink:href="#me31c796ecb" y="296.728"/>
      </g>
     </g>
    </g>
    <g id="xtick_17">
     <g id="line2d_17">
      <g>
       <use style="stroke:#000000;stroke-width:0.6;" x="211.629461" xlink:href="#me31c796ecb" y="296.728"/>
      </g>
     </g>
    </g>
    <g id="xtick_18">
     <g id="line2d_18">
      <g>
       <use style="stroke:#000000;stroke-width:0.6;" x="222.362021" xlink:href="#me31c796ecb" y="296.728"/>
      </g>
     </g>
    </g>
    <g id="xtick_19">
     <g id="line2d_19">
      <g>
       <use style="stroke:#000000;stroke-width:0.6;" x="230.686841" xlink:href="#me31c796ecb" y="296.728"/>
      </g>
     </g>
    </g>
    <g id="xtick_20">
     <g id="line2d_20">
      <g>
       <use style="stroke:#000000;stroke-width:0.6;" x="237.488714" xlink:href="#me31c796ecb" y="296.728"/>
      </g>
     </g>
    </g>
    <g id="xtick_21">
     <g id="line2d_21">
      <g>
       <use style="stroke:#000000;stroke-width:0.6;" x="243.239616" xlink:href="#me31c796ecb" y="296.728"/>
      </g>
     </g>
    </g>
    <g id="xtick_22">
     <g id="line2d_22">
      <g>
       <use style="stroke:#000000;stroke-width:0.6;" x="248.221274" xlink:href="#me31c796ecb" y="296.728"/>
      </g>
     </g>
    </g>
    <g id="xtick_23">
     <g id="line2d_23">
      <g>
       <use style="stroke:#000000;stroke-width:0.6;" x="252.615408" xlink:href="#me31c796ecb" y="296.728"/>
      </g>
     </g>
    </g>
    <g id="xtick_24">
     <g id="line2d_24">
      <g>
       <use style="stroke:#000000;stroke-width:0.6;" x="282.405348" xlink:href="#me31c796ecb" y="296.728"/>
      </g>
     </g>
    </g>
    <g id="xtick_25">
     <g id="line2d_25">
      <g>
       <use style="stroke:#000000;stroke-width:0.6;" x="297.532041" xlink:href="#me31c796ecb" y="296.728"/>
      </g>
     </g>
    </g>
    <g id="xtick_26">
     <g id="line2d_26">
      <g>
       <use style="stroke:#000000;stroke-width:0.6;" x="308.264601" xlink:href="#me31c796ecb" y="296.728"/>
      </g>
     </g>
    </g>
    <g id="xtick_27">
     <g id="line2d_27">
      <g>
       <use style="stroke:#000000;stroke-width:0.6;" x="316.589421" xlink:href="#me31c796ecb" y="296.728"/>
      </g>
     </g>
    </g>
    <g id="xtick_28">
     <g id="line2d_28">
      <g>
       <use style="stroke:#000000;stroke-width:0.6;" x="323.391295" xlink:href="#me31c796ecb" y="296.728"/>
      </g>
     </g>
    </g>
    <g id="xtick_29">
     <g id="line2d_29">
      <g>
       <use style="stroke:#000000;stroke-width:0.6;" x="329.142197" xlink:href="#me31c796ecb" y="296.728"/>
      </g>
     </g>
    </g>
    <g id="xtick_30">
     <g id="line2d_30">
      <g>
       <use style="stroke:#000000;stroke-width:0.6;" x="334.123855" xlink:href="#me31c796ecb" y="296.728"/>
      </g>
     </g>
    </g>
    <g id="xtick_31">
     <g id="line2d_31">
      <g>
       <use style="stroke:#000000;stroke-width:0.6;" x="338.517988" xlink:href="#me31c796ecb" y="296.728"/>
      </g>
     </g>
    </g>
    <g id="xtick_32">
     <g id="line2d_32">
      <g>
       <use style="stroke:#000000;stroke-width:0.6;" x="368.307928" xlink:href="#me31c796ecb" y="296.728"/>
      </g>
     </g>
    </g>
    <g id="xtick_33">
     <g id="line2d_33">
      <g>
       <use style="stroke:#000000;stroke-width:0.6;" x="383.434622" xlink:href="#me31c796ecb" y="296.728"/>
      </g>
     </g>
    </g>
    <g id="xtick_34">
     <g id="line2d_34">
      <g>
       <use style="stroke:#000000;stroke-width:0.6;" x="394.167182" xlink:href="#me31c796ecb" y="296.728"/>
      </g>
     </g>
    </g>
    <g id="xtick_35">
     <g id="line2d_35">
      <g>
       <use style="stroke:#000000;stroke-width:0.6;" x="402.492002" xlink:href="#me31c796ecb" y="296.728"/>
      </g>
     </g>
    </g>
    <g id="xtick_36">
     <g id="line2d_36">
      <g>
       <use style="stroke:#000000;stroke-width:0.6;" x="409.293875" xlink:href="#me31c796ecb" y="296.728"/>
      </g>
     </g>
    </g>
    <g id="xtick_37">
     <g id="line2d_37">
      <g>
       <use style="stroke:#000000;stroke-width:0.6;" x="415.044777" xlink:href="#me31c796ecb" y="296.728"/>
      </g>
     </g>
    </g>
    <g id="xtick_38">
     <g id="line2d_38">
      <g>
       <use style="stroke:#000000;stroke-width:0.6;" x="420.026435" xlink:href="#me31c796ecb" y="296.728"/>
      </g>
     </g>
    </g>
    <g id="xtick_39">
     <g id="line2d_39">
      <g>
       <use style="stroke:#000000;stroke-width:0.6;" x="424.420569" xlink:href="#me31c796ecb" y="296.728"/>
      </g>
     </g>
    </g>
    <g id="text_6">
     <!-- Time [sec] -->
     <g transform="translate(224.481809 328.043937)scale(0.14 -0.14)">
      <defs>
       <path d="M -0.296875 72.90625 
L 61.375 72.90625 
L 61.375 64.59375 
L 35.5 64.59375 
L 35.5 0 
L 25.59375 0 
L 25.59375 64.59375 
L -0.296875 64.59375 
z
" id="DejaVuSans-84"/>
       <path d="M 9.421875 54.6875 
L 18.40625 54.6875 
L 18.40625 0 
L 9.421875 0 
z
M 9.421875 75.984375 
L 18.40625 75.984375 
L 18.40625 64.59375 
L 9.421875 64.59375 
z
" id="DejaVuSans-105"/>
       <path d="M 52 44.1875 
Q 55.375 50.25 60.0625 53.125 
Q 64.75 56 71.09375 56 
Q 79.640625 56 84.28125 50.015625 
Q 88.921875 44.046875 88.921875 33.015625 
L 88.921875 0 
L 79.890625 0 
L 79.890625 32.71875 
Q 79.890625 40.578125 77.09375 44.375 
Q 74.3125 48.1875 68.609375 48.1875 
Q 61.625 48.1875 57.5625 43.546875 
Q 53.515625 38.921875 53.515625 30.90625 
L 53.515625 0 
L 44.484375 0 
L 44.484375 32.71875 
Q 44.484375 40.625 41.703125 44.40625 
Q 38.921875 48.1875 33.109375 48.1875 
Q 26.21875 48.1875 22.15625 43.53125 
Q 18.109375 38.875 18.109375 30.90625 
L 18.109375 0 
L 9.078125 0 
L 9.078125 54.6875 
L 18.109375 54.6875 
L 18.109375 46.1875 
Q 21.1875 51.21875 25.484375 53.609375 
Q 29.78125 56 35.6875 56 
Q 41.65625 56 45.828125 52.96875 
Q 50 49.953125 52 44.1875 
z
" id="DejaVuSans-109"/>
       <path d="M 56.203125 29.59375 
L 56.203125 25.203125 
L 14.890625 25.203125 
Q 15.484375 15.921875 20.484375 11.0625 
Q 25.484375 6.203125 34.421875 6.203125 
Q 39.59375 6.203125 44.453125 7.46875 
Q 49.3125 8.734375 54.109375 11.28125 
L 54.109375 2.78125 
Q 49.265625 0.734375 44.1875 -0.34375 
Q 39.109375 -1.421875 33.890625 -1.421875 
Q 20.796875 -1.421875 13.15625 6.1875 
Q 5.515625 13.8125 5.515625 26.8125 
Q 5.515625 40.234375 12.765625 48.109375 
Q 20.015625 56 32.328125 56 
Q 43.359375 56 49.78125 48.890625 
Q 56.203125 41.796875 56.203125 29.59375 
z
M 47.21875 32.234375 
Q 47.125 39.59375 43.09375 43.984375 
Q 39.0625 48.390625 32.421875 48.390625 
Q 24.90625 48.390625 20.390625 44.140625 
Q 15.875 39.890625 15.1875 32.171875 
z
" id="DejaVuSans-101"/>
       <path id="DejaVuSans-32"/>
       <path d="M 8.59375 75.984375 
L 29.296875 75.984375 
L 29.296875 69 
L 17.578125 69 
L 17.578125 -6.203125 
L 29.296875 -6.203125 
L 29.296875 -13.1875 
L 8.59375 -13.1875 
z
" id="DejaVuSans-91"/>
       <path d="M 44.28125 53.078125 
L 44.28125 44.578125 
Q 40.484375 46.53125 36.375 47.5 
Q 32.28125 48.484375 27.875 48.484375 
Q 21.1875 48.484375 17.84375 46.4375 
Q 14.5 44.390625 14.5 40.28125 
Q 14.5 37.15625 16.890625 35.375 
Q 19.28125 33.59375 26.515625 31.984375 
L 29.59375 31.296875 
Q 39.15625 29.25 43.1875 25.515625 
Q 47.21875 21.78125 47.21875 15.09375 
Q 47.21875 7.46875 41.1875 3.015625 
Q 35.15625 -1.421875 24.609375 -1.421875 
Q 20.21875 -1.421875 15.453125 -0.5625 
Q 10.6875 0.296875 5.421875 2 
L 5.421875 11.28125 
Q 10.40625 8.6875 15.234375 7.390625 
Q 20.0625 6.109375 24.8125 6.109375 
Q 31.15625 6.109375 34.5625 8.28125 
Q 37.984375 10.453125 37.984375 14.40625 
Q 37.984375 18.0625 35.515625 20.015625 
Q 33.0625 21.96875 24.703125 23.78125 
L 21.578125 24.515625 
Q 13.234375 26.265625 9.515625 29.90625 
Q 5.8125 33.546875 5.8125 39.890625 
Q 5.8125 47.609375 11.28125 51.796875 
Q 16.75 56 26.8125 56 
Q 31.78125 56 36.171875 55.265625 
Q 40.578125 54.546875 44.28125 53.078125 
z
" id="DejaVuSans-115"/>
       <path d="M 48.78125 52.59375 
L 48.78125 44.1875 
Q 44.96875 46.296875 41.140625 47.34375 
Q 37.3125 48.390625 33.40625 48.390625 
Q 24.65625 48.390625 19.8125 42.84375 
Q 14.984375 37.3125 14.984375 27.296875 
Q 14.984375 17.28125 19.8125 11.734375 
Q 24.65625 6.203125 33.40625 6.203125 
Q 37.3125 6.203125 41.140625 7.25 
Q 44.96875 8.296875 48.78125 10.40625 
L 48.78125 2.09375 
Q 45.015625 0.34375 40.984375 -0.53125 
Q 36.96875 -1.421875 32.421875 -1.421875 
Q 20.0625 -1.421875 12.78125 6.34375 
Q 5.515625 14.109375 5.515625 27.296875 
Q 5.515625 40.671875 12.859375 48.328125 
Q 20.21875 56 33.015625 56 
Q 37.15625 56 41.109375 55.140625 
Q 45.0625 54.296875 48.78125 52.59375 
z
" id="DejaVuSans-99"/>
       <path d="M 30.421875 75.984375 
L 30.421875 -13.1875 
L 9.71875 -13.1875 
L 9.71875 -6.203125 
L 21.390625 -6.203125 
L 21.390625 69 
L 9.71875 69 
L 9.71875 75.984375 
z
" id="DejaVuSans-93"/>
      </defs>
      <use xlink:href="#DejaVuSans-84"/>
      <use x="57.958984" xlink:href="#DejaVuSans-105"/>
      <use x="85.742188" xlink:href="#DejaVuSans-109"/>
      <use x="183.154297" xlink:href="#DejaVuSans-101"/>
      <use x="244.677734" xlink:href="#DejaVuSans-32"/>
      <use x="276.464844" xlink:href="#DejaVuSans-91"/>
      <use x="315.478516" xlink:href="#DejaVuSans-115"/>
      <use x="367.578125" xlink:href="#DejaVuSans-101"/>
      <use x="429.101562" xlink:href="#DejaVuSans-99"/>
      <use x="484.082031" xlink:href="#DejaVuSans-93"/>
     </g>
    </g>
   </g>
   <g id="matplotlib.axis_2">
    <g id="ytick_1">
     <g id="line2d_40">
      <defs>
       <path d="M 0 0 
L -2 0 
" id="mab6b341dee" style="stroke:#000000;stroke-width:0.6;"/>
      </defs>
      <g>
       <use style="stroke:#000000;stroke-width:0.6;" x="72.196742" xlink:href="#mab6b341dee" y="230.852687"/>
      </g>
     </g>
     <g id="text_7">
      <!-- $\mathdefault{2\times10^{4}}$ -->
      <g transform="translate(30.596742 234.651906)scale(0.1 -0.1)">
       <defs>
        <path d="M 70.125 53.71875 
L 47.796875 31.296875 
L 70.125 8.984375 
L 64.3125 3.078125 
L 41.890625 25.484375 
L 19.484375 3.078125 
L 13.71875 8.984375 
L 35.984375 31.296875 
L 13.71875 53.71875 
L 19.484375 59.625 
L 41.890625 37.203125 
L 64.3125 59.625 
z
" id="DejaVuSans-215"/>
        <path d="M 37.796875 64.3125 
L 12.890625 25.390625 
L 37.796875 25.390625 
z
M 35.203125 72.90625 
L 47.609375 72.90625 
L 47.609375 25.390625 
L 58.015625 25.390625 
L 58.015625 17.1875 
L 47.609375 17.1875 
L 47.609375 0 
L 37.796875 0 
L 37.796875 17.1875 
L 4.890625 17.1875 
L 4.890625 26.703125 
z
" id="DejaVuSans-52"/>
       </defs>
       <use transform="translate(0 0.684375)" xlink:href="#DejaVuSans-50"/>
       <use transform="translate(83.105469 0.684375)" xlink:href="#DejaVuSans-215"/>
       <use transform="translate(186.376953 0.684375)" xlink:href="#DejaVuSans-49"/>
       <use transform="translate(250 0.684375)" xlink:href="#DejaVuSans-48"/>
       <use transform="translate(314.580078 38.965625)scale(0.7)" xlink:href="#DejaVuSans-52"/>
      </g>
     </g>
    </g>
    <g id="ytick_2">
     <g id="line2d_41">
      <g>
       <use style="stroke:#000000;stroke-width:0.6;" x="72.196742" xlink:href="#mab6b341dee" y="154.633941"/>
      </g>
     </g>
     <g id="text_8">
      <!-- $\mathdefault{3\times10^{4}}$ -->
      <g transform="translate(30.596742 158.433159)scale(0.1 -0.1)">
       <use transform="translate(0 0.684375)" xlink:href="#DejaVuSans-51"/>
       <use transform="translate(83.105469 0.684375)" xlink:href="#DejaVuSans-215"/>
       <use transform="translate(186.376953 0.684375)" xlink:href="#DejaVuSans-49"/>
       <use transform="translate(250 0.684375)" xlink:href="#DejaVuSans-48"/>
       <use transform="translate(314.580078 38.965625)scale(0.7)" xlink:href="#DejaVuSans-52"/>
      </g>
     </g>
    </g>
    <g id="ytick_3">
     <g id="line2d_42">
      <g>
       <use style="stroke:#000000;stroke-width:0.6;" x="72.196742" xlink:href="#mab6b341dee" y="100.555879"/>
      </g>
     </g>
     <g id="text_9">
      <!-- $\mathdefault{4\times10^{4}}$ -->
      <g transform="translate(30.596742 104.355098)scale(0.1 -0.1)">
       <use transform="translate(0 0.684375)" xlink:href="#DejaVuSans-52"/>
       <use transform="translate(83.105469 0.684375)" xlink:href="#DejaVuSans-215"/>
       <use transform="translate(186.376953 0.684375)" xlink:href="#DejaVuSans-49"/>
       <use transform="translate(250 0.684375)" xlink:href="#DejaVuSans-48"/>
       <use transform="translate(314.580078 38.965625)scale(0.7)" xlink:href="#DejaVuSans-52"/>
      </g>
     </g>
    </g>
    <g id="ytick_4">
     <g id="line2d_43">
      <g>
       <use style="stroke:#000000;stroke-width:0.6;" x="72.196742" xlink:href="#mab6b341dee" y="58.609676"/>
      </g>
     </g>
    </g>
    <g id="text_10">
     <!-- $F(x)$ -->
     <g transform="translate(23.68518 183.734)rotate(-90)scale(0.14 -0.14)">
      <defs>
       <path d="M 16.890625 72.90625 
L 58.6875 72.90625 
L 57.078125 64.59375 
L 25.09375 64.59375 
L 20.90625 43.109375 
L 49.8125 43.109375 
L 48.1875 34.8125 
L 19.28125 34.8125 
L 12.5 0 
L 2.6875 0 
z
" id="DejaVuSans-Oblique-70"/>
       <path d="M 31 75.875 
Q 24.46875 64.65625 21.28125 53.65625 
Q 18.109375 42.671875 18.109375 31.390625 
Q 18.109375 20.125 21.3125 9.0625 
Q 24.515625 -2 31 -13.1875 
L 23.1875 -13.1875 
Q 15.875 -1.703125 12.234375 9.375 
Q 8.59375 20.453125 8.59375 31.390625 
Q 8.59375 42.28125 12.203125 53.3125 
Q 15.828125 64.359375 23.1875 75.875 
z
" id="DejaVuSans-40"/>
       <path d="M 60.015625 54.6875 
L 34.90625 27.875 
L 50.296875 0 
L 39.984375 0 
L 28.421875 21.6875 
L 8.296875 0 
L -2.59375 0 
L 24.3125 28.8125 
L 10.015625 54.6875 
L 20.3125 54.6875 
L 30.8125 34.90625 
L 49.125 54.6875 
z
" id="DejaVuSans-Oblique-120"/>
       <path d="M 8.015625 75.875 
L 15.828125 75.875 
Q 23.140625 64.359375 26.78125 53.3125 
Q 30.421875 42.28125 30.421875 31.390625 
Q 30.421875 20.453125 26.78125 9.375 
Q 23.140625 -1.703125 15.828125 -13.1875 
L 8.015625 -13.1875 
Q 14.5 -2 17.703125 9.0625 
Q 20.90625 20.125 20.90625 31.390625 
Q 20.90625 42.671875 17.703125 53.65625 
Q 14.5 64.65625 8.015625 75.875 
z
" id="DejaVuSans-41"/>
      </defs>
      <use transform="translate(0 0.125)" xlink:href="#DejaVuSans-Oblique-70"/>
      <use transform="translate(57.519531 0.125)" xlink:href="#DejaVuSans-40"/>
      <use transform="translate(96.533203 0.125)" xlink:href="#DejaVuSans-Oblique-120"/>
      <use transform="translate(155.712891 0.125)" xlink:href="#DejaVuSans-41"/>
     </g>
    </g>
   </g>
   <g id="line2d_44">
    <path clip-path="url(#p6a5f13cbfe)" d="M 226.07663 285.214909 
L 226.62552 285.214909 
L 227.40225 285.214909 
L 225.42645 285.214909 
L 226.350304 285.214909 
L 224.862457 285.214909 
L 222.530369 285.214909 
L 221.398396 285.214909 
L 222.33019 285.214909 
L 220.06439 285.214909 
L 220.603181 285.214909 
L 218.537606 285.214909 
L 218.101162 285.214909 
L 219.599167 285.214909 
L 216.171255 285.214909 
L 215.465394 285.214909 
L 214.48608 285.214909 
L 213.057569 285.214909 
L 212.712226 285.214909 
L 211.860856 285.214909 
L 210.447106 285.214909 
L 207.974683 285.214909 
L 207.081555 285.214908 
L 204.473247 285.214908 
L 203.175659 285.214907 
L 201.32835 285.214904 
L 198.567927 285.2149 
L 197.771577 285.214887 
L 196.418128 285.214885 
L 195.011034 285.214804 
L 193.22323 285.214643 
L 188.545302 285.213835 
L 193.144655 285.213929 
L 191.181877 285.213755 
L 186.823987 285.21077 
L 190.403876 285.210771 
L 180.07643 285.191625 
L 181.586603 285.186448 
L 181.060098 285.186943 
L 176.892619 285.18524 
L 163.389856 284.795735 
L 168.476823 284.801079 
L 164.926082 284.78048 
L 152.996369 283.316959 
L 144.58744 282.855786 
L 140.576066 282.831515 
L 117.437904 280.520412 
L 116.863283 280.526366 
" style="fill:none;stroke:#1f77b4;stroke-linecap:square;stroke-width:3;"/>
   </g>
   <g id="line2d_45">
    <path clip-path="url(#p6a5f13cbfe)" d="M 122.428465 160.36533 
L 133.639029 214.748977 
L 145.995688 240.689302 
L 154.18746 254.168981 
L 156.831673 268.103986 
L 174.51483 277.016613 
L 180.932214 281.948894 
L 194.002525 284.524569 
L 199.468616 285.114874 
L 211.888037 285.195939 
L 225.106081 285.211385 
L 239.058585 285.214282 
L 251.300785 285.21487 
L 266.422704 285.214908 
L 280.923962 285.214909 
L 292.26813 285.214909 
L 305.451408 285.214909 
L 317.017174 285.214909 
L 332.504223 285.214909 
L 353.036291 285.214909 
L 373.919193 285.214909 
L 397.622241 285.214909 
" style="fill:none;stroke:#ff7f0e;stroke-linecap:square;stroke-width:3;"/>
   </g>
   <g id="line2d_46">
    <path clip-path="url(#p6a5f13cbfe)" d="M 154.9229 133.484242 
L 171.076978 207.527497 
L 166.854751 259.458744 
L 177.37173 277.047852 
L 187.705839 284.521634 
L 202.679958 285.21456 
L 208.617162 285.214909 
L 215.767637 285.214909 
L 216.494506 285.214909 
L 216.880672 285.214909 
L 217.150896 285.214909 
L 217.027308 285.214909 
L 216.949955 285.214909 
" style="fill:none;stroke:#2ca02c;stroke-linecap:square;stroke-width:3;"/>
   </g>
   <g id="line2d_47">
    <path clip-path="url(#p6a5f13cbfe)" d="M 290.439255 86.780782 
L 303.984219 86.780782 
L 310.457696 86.780782 
L 326.811026 86.780782 
L 361.283294 198.215373 
L 383.579369 285.214909 
L 382.17617 285.214909 
L 382.104558 285.214909 
L 381.007901 285.214909 
L 380.537886 285.214909 
L 379.213327 285.214909 
" style="fill:none;stroke:#d62728;stroke-linecap:square;stroke-width:3;"/>
   </g>
   <g id="line2d_48">
    <path clip-path="url(#p6a5f13cbfe)" d="M 97.85139 54.953091 
L 108.17776 167.283887 
L 120.441182 206.780458 
L 116.419788 215.02088 
L 140.669312 229.375757 
L 144.290192 238.523758 
L 154.451517 241.895595 
L 166.961144 241.895595 
L 194.171525 269.993916 
L 220.052199 281.062314 
L 240.115761 283.863065 
L 262.214707 285.147424 
L 281.047501 285.214209 
L 301.826091 285.214909 
L 320.324167 285.214909 
L 339.611615 285.214909 
L 364.164823 285.214909 
L 385.53434 285.214909 
L 409.578041 285.214909 
L 432.779116 285.214909 
" style="fill:none;stroke:#9467bd;stroke-linecap:square;stroke-width:3;"/>
   </g>
   <g id="line2d_49">
    <path clip-path="url(#p6a5f13cbfe)" d="M 201.425547 54.953091 
L 211.577061 56.19234 
L 203.813895 56.19234 
L 199.155224 57.37977 
L 210.597639 58.51716 
L 205.121322 60.648771 
L 213.644444 64.385896 
L 218.958007 66.903061 
L 222.393821 75.347966 
L 226.754881 90.404486 
L 228.611855 117.007585 
L 229.615184 147.365918 
L 243.345141 194.852712 
L 251.321596 240.119713 
L 264.82184 274.418746 
L 278.289468 284.620341 
L 288.130808 285.214909 
L 287.458497 285.214909 
L 288.701205 285.214909 
L 285.73486 285.214909 
L 286.924088 285.214909 
L 284.316576 285.214909 
" style="fill:none;stroke:#8c564b;stroke-linecap:square;stroke-width:3;"/>
   </g>
   <g id="line2d_50">
    <path clip-path="url(#p6a5f13cbfe)" d="M 230.519969 177.323353 
L 231.016121 196.582314 
L 232.258481 205.971467 
L 233.410016 212.60175 
L 238.174335 222.071982 
L 237.654135 231.369821 
L 239.59298 239.25297 
L 242.916225 246.908561 
L 248.815902 254.071843 
L 253.263671 261.212461 
L 261.840948 267.209059 
L 274.636034 271.929035 
L 279.722043 276.026263 
L 284.98476 279.441865 
L 290.022364 281.77375 
L 297.584807 283.059483 
L 302.554816 284.012468 
L 311.722562 284.532843 
L 322.79592 284.929836 
L 338.03978 285.128323 
L 352.756179 285.196327 
L 365.37237 285.212481 
L 376.5675 285.214271 
L 395.762288 285.214821 
L 408.495101 285.214904 
" style="fill:none;stroke:#e377c2;stroke-linecap:square;stroke-width:3;"/>
   </g>
   <g id="line2d_51">
    <path clip-path="url(#p6a5f13cbfe)" d="M 199.42985 112.620973 
L 199.176925 195.738408 
L 201.444108 202.539107 
L 203.99142 216.245059 
L 207.646711 232.585411 
L 214.190491 247.526847 
L 218.322482 260.222714 
L 226.270796 270.213055 
L 234.328653 278.387037 
L 244.72761 282.522185 
L 257.733315 284.143999 
L 265.908377 284.925796 
L 287.064466 285.175927 
L 292.532676 285.212972 
L 303.21199 285.214793 
L 317.130422 285.214909 
L 328.717523 285.214909 
L 333.118527 285.214909 
L 332.761164 285.214909 
L 345.000352 285.214909 
L 333.031742 285.214909 
L 332.492478 285.214909 
L 333.948316 285.214909 
" style="fill:none;stroke:#7f7f7f;stroke-linecap:square;stroke-width:3;"/>
   </g>
   <g id="line2d_52">
    <path clip-path="url(#p6a5f13cbfe)" d="M 155.473741 104.968322 
L 178.960096 153.901309 
L 180.256201 190.792404 
L 178.619831 214.459032 
L 191.192344 238.662908 
L 183.884893 253.427752 
L 182.94959 260.670297 
L 188.097506 265.012422 
L 188.092519 265.142246 
L 192.064138 260.633703 
L 195.265627 262.11383 
L 200.622278 265.183144 
L 208.30443 264.574434 
L 215.781695 262.842048 
L 223.858447 264.512227 
L 234.248507 262.651092 
L 248.580262 264.211054 
L 253.932079 263.302851 
L 270.636775 263.17092 
L 279.303821 264.006165 
L 290.623673 264.194431 
L 301.665878 262.040936 
L 311.318267 266.336831 
L 321.817696 264.693897 
L 334.151628 264.16212 
L 351.374892 263.614036 
L 370.70561 266.296085 
L 380.462411 262.863464 
L 391.748549 266.426137 
L 406.200922 261.143027 
L 421.481638 260.021952 
" style="fill:none;stroke:#bcbd22;stroke-linecap:square;stroke-width:3;"/>
   </g>
   <g id="line2d_53">
    <path clip-path="url(#p6a5f13cbfe)" d="M 213.803531 177.323353 
L 219.954413 196.582314 
L 220.605406 205.971467 
L 219.42177 212.60175 
L 219.479779 222.071982 
L 221.837577 231.369821 
L 221.043034 239.25297 
L 223.682089 246.908561 
L 226.020445 254.071843 
L 228.730317 261.212461 
L 232.819804 267.209059 
L 239.298194 271.929035 
L 244.354962 276.026263 
L 255.383817 279.441865 
L 264.480257 281.77375 
L 274.242382 283.059483 
L 284.185437 284.012468 
L 296.614697 284.532843 
L 307.11034 284.929836 
L 316.957954 285.128323 
L 331.314333 285.196327 
L 345.120758 285.212481 
L 364.570762 285.214271 
L 377.294929 285.214821 
L 401.570854 285.214904 
L 413.444105 285.214909 
" style="fill:none;stroke:#17becf;stroke-linecap:square;stroke-width:3;"/>
   </g>
   <g id="line2d_54">
    <path clip-path="url(#p6a5f13cbfe)" d="M 230.894208 177.323353 
L 232.48852 196.582314 
L 232.593294 208.109083 
L 234.005515 217.111087 
L 234.164911 230.808465 
L 233.149205 244.273277 
L 234.503434 255.786153 
L 236.491163 266.468522 
L 237.632191 274.418129 
L 241.751284 280.65798 
L 243.386029 283.42657 
L 248.665221 284.635964 
L 257.65605 285.143192 
L 264.156562 285.197467 
L 272.995972 285.212288 
L 282.887872 285.214522 
L 293.525508 285.214845 
L 309.328983 285.2149 
L 316.347153 285.214907 
L 327.050256 285.214909 
L 342.326977 285.214909 
L 357.375058 285.214909 
L 372.90237 285.214909 
L 392.916525 285.214909 
L 400.034002 285.214909 
L 414.022265 285.214909 
" style="fill:none;stroke:#1f77b4;stroke-linecap:square;stroke-width:3;"/>
   </g>
   <g id="line2d_55">
    <path clip-path="url(#p6a5f13cbfe)" d="M 244.30835 177.323353 
L 254.593935 196.582314 
L 263.483121 205.971467 
L 267.816565 212.60175 
L 274.215106 222.071982 
L 287.971268 231.369821 
L 297.94162 239.25297 
L 309.105483 246.908561 
L 322.545149 254.071843 
L 339.151125 261.212461 
L 351.02062 267.209059 
L 364.967482 271.929035 
L 378.65109 276.026263 
L 397.793287 279.441865 
L 410.231055 281.77375 
L 430.332934 283.059483 
" style="fill:none;stroke:#ff7f0e;stroke-linecap:square;stroke-width:3;"/>
   </g>
   <g id="line2d_56">
    <path clip-path="url(#p6a5f13cbfe)" d="M 172.789577 160.36533 
L 174.748537 214.748977 
L 165.652829 240.689302 
L 173.545746 254.168981 
L 175.62013 268.103986 
L 175.664009 277.016613 
L 179.351597 281.948894 
L 187.988113 284.524569 
L 199.443234 285.114874 
L 203.918324 285.195939 
L 217.69124 285.211385 
L 228.479011 285.214282 
L 241.039456 285.21487 
L 254.557352 285.214908 
L 268.40799 285.214909 
L 282.871406 285.214909 
L 293.914803 285.214909 
L 304.320471 285.214909 
L 320.268517 285.214909 
L 337.725299 285.214909 
L 361.625839 285.214909 
L 390.871101 285.214909 
" style="fill:none;stroke:#2ca02c;stroke-linecap:square;stroke-width:3;"/>
   </g>
   <g id="line2d_57">
    <path clip-path="url(#p6a5f13cbfe)" d="M 356.683875 160.36533 
L 382.041037 214.748977 
L 379.554143 241.398838 
L 384.877792 254.079825 
L 387.529005 264.099408 
L 387.703534 267.863023 
L 386.424688 268.556123 
" style="fill:none;stroke:#d62728;stroke-linecap:square;stroke-width:3;"/>
   </g>
   <g id="patch_3">
    <path d="M 72.196742 296.728 
L 72.196742 43.44 
" style="fill:none;stroke:#000000;stroke-linecap:square;stroke-linejoin:miter;stroke-width:0.8;"/>
   </g>
   <g id="patch_4">
    <path d="M 450 296.728 
L 450 43.44 
" style="fill:none;stroke:#000000;stroke-linecap:square;stroke-linejoin:miter;stroke-width:0.8;"/>
   </g>
   <g id="patch_5">
    <path d="M 72.196742 296.728 
L 450 296.728 
" style="fill:none;stroke:#000000;stroke-linecap:square;stroke-linejoin:miter;stroke-width:0.8;"/>
   </g>
   <g id="patch_6">
    <path d="M 72.196742 43.44 
L 450 43.44 
" style="fill:none;stroke:#000000;stroke-linecap:square;stroke-linejoin:miter;stroke-width:0.8;"/>
   </g>
   <g id="text_11">
    <!-- Lasso Regression[reg=0.1] -->
    <g transform="translate(166.891496 21.763062)scale(0.14 -0.14)">
     <defs>
      <path d="M 9.8125 72.90625 
L 19.671875 72.90625 
L 19.671875 8.296875 
L 55.171875 8.296875 
L 55.171875 0 
L 9.8125 0 
z
" id="DejaVuSans-76"/>
      <path d="M 34.28125 27.484375 
Q 23.390625 27.484375 19.1875 25 
Q 14.984375 22.515625 14.984375 16.5 
Q 14.984375 11.71875 18.140625 8.90625 
Q 21.296875 6.109375 26.703125 6.109375 
Q 34.1875 6.109375 38.703125 11.40625 
Q 43.21875 16.703125 43.21875 25.484375 
L 43.21875 27.484375 
z
M 52.203125 31.203125 
L 52.203125 0 
L 43.21875 0 
L 43.21875 8.296875 
Q 40.140625 3.328125 35.546875 0.953125 
Q 30.953125 -1.421875 24.3125 -1.421875 
Q 15.921875 -1.421875 10.953125 3.296875 
Q 6 8.015625 6 15.921875 
Q 6 25.140625 12.171875 29.828125 
Q 18.359375 34.515625 30.609375 34.515625 
L 43.21875 34.515625 
L 43.21875 35.40625 
Q 43.21875 41.609375 39.140625 45 
Q 35.0625 48.390625 27.6875 48.390625 
Q 23 48.390625 18.546875 47.265625 
Q 14.109375 46.140625 10.015625 43.890625 
L 10.015625 52.203125 
Q 14.9375 54.109375 19.578125 55.046875 
Q 24.21875 56 28.609375 56 
Q 40.484375 56 46.34375 49.84375 
Q 52.203125 43.703125 52.203125 31.203125 
z
" id="DejaVuSans-97"/>
      <path d="M 30.609375 48.390625 
Q 23.390625 48.390625 19.1875 42.75 
Q 14.984375 37.109375 14.984375 27.296875 
Q 14.984375 17.484375 19.15625 11.84375 
Q 23.34375 6.203125 30.609375 6.203125 
Q 37.796875 6.203125 41.984375 11.859375 
Q 46.1875 17.53125 46.1875 27.296875 
Q 46.1875 37.015625 41.984375 42.703125 
Q 37.796875 48.390625 30.609375 48.390625 
z
M 30.609375 56 
Q 42.328125 56 49.015625 48.375 
Q 55.71875 40.765625 55.71875 27.296875 
Q 55.71875 13.875 49.015625 6.21875 
Q 42.328125 -1.421875 30.609375 -1.421875 
Q 18.84375 -1.421875 12.171875 6.21875 
Q 5.515625 13.875 5.515625 27.296875 
Q 5.515625 40.765625 12.171875 48.375 
Q 18.84375 56 30.609375 56 
z
" id="DejaVuSans-111"/>
      <path d="M 44.390625 34.1875 
Q 47.5625 33.109375 50.5625 29.59375 
Q 53.5625 26.078125 56.59375 19.921875 
L 66.609375 0 
L 56 0 
L 46.6875 18.703125 
Q 43.0625 26.03125 39.671875 28.421875 
Q 36.28125 30.8125 30.421875 30.8125 
L 19.671875 30.8125 
L 19.671875 0 
L 9.8125 0 
L 9.8125 72.90625 
L 32.078125 72.90625 
Q 44.578125 72.90625 50.734375 67.671875 
Q 56.890625 62.453125 56.890625 51.90625 
Q 56.890625 45.015625 53.6875 40.46875 
Q 50.484375 35.9375 44.390625 34.1875 
z
M 19.671875 64.796875 
L 19.671875 38.921875 
L 32.078125 38.921875 
Q 39.203125 38.921875 42.84375 42.21875 
Q 46.484375 45.515625 46.484375 51.90625 
Q 46.484375 58.296875 42.84375 61.546875 
Q 39.203125 64.796875 32.078125 64.796875 
z
" id="DejaVuSans-82"/>
      <path d="M 45.40625 27.984375 
Q 45.40625 37.75 41.375 43.109375 
Q 37.359375 48.484375 30.078125 48.484375 
Q 22.859375 48.484375 18.828125 43.109375 
Q 14.796875 37.75 14.796875 27.984375 
Q 14.796875 18.265625 18.828125 12.890625 
Q 22.859375 7.515625 30.078125 7.515625 
Q 37.359375 7.515625 41.375 12.890625 
Q 45.40625 18.265625 45.40625 27.984375 
z
M 54.390625 6.78125 
Q 54.390625 -7.171875 48.1875 -13.984375 
Q 42 -20.796875 29.203125 -20.796875 
Q 24.46875 -20.796875 20.265625 -20.09375 
Q 16.0625 -19.390625 12.109375 -17.921875 
L 12.109375 -9.1875 
Q 16.0625 -11.328125 19.921875 -12.34375 
Q 23.78125 -13.375 27.78125 -13.375 
Q 36.625 -13.375 41.015625 -8.765625 
Q 45.40625 -4.15625 45.40625 5.171875 
L 45.40625 9.625 
Q 42.625 4.78125 38.28125 2.390625 
Q 33.9375 0 27.875 0 
Q 17.828125 0 11.671875 7.65625 
Q 5.515625 15.328125 5.515625 27.984375 
Q 5.515625 40.671875 11.671875 48.328125 
Q 17.828125 56 27.875 56 
Q 33.9375 56 38.28125 53.609375 
Q 42.625 51.21875 45.40625 46.390625 
L 45.40625 54.6875 
L 54.390625 54.6875 
z
" id="DejaVuSans-103"/>
      <path d="M 41.109375 46.296875 
Q 39.59375 47.171875 37.8125 47.578125 
Q 36.03125 48 33.890625 48 
Q 26.265625 48 22.1875 43.046875 
Q 18.109375 38.09375 18.109375 28.8125 
L 18.109375 0 
L 9.078125 0 
L 9.078125 54.6875 
L 18.109375 54.6875 
L 18.109375 46.1875 
Q 20.953125 51.171875 25.484375 53.578125 
Q 30.03125 56 36.53125 56 
Q 37.453125 56 38.578125 55.875 
Q 39.703125 55.765625 41.0625 55.515625 
z
" id="DejaVuSans-114"/>
      <path d="M 54.890625 33.015625 
L 54.890625 0 
L 45.90625 0 
L 45.90625 32.71875 
Q 45.90625 40.484375 42.875 44.328125 
Q 39.84375 48.1875 33.796875 48.1875 
Q 26.515625 48.1875 22.3125 43.546875 
Q 18.109375 38.921875 18.109375 30.90625 
L 18.109375 0 
L 9.078125 0 
L 9.078125 54.6875 
L 18.109375 54.6875 
L 18.109375 46.1875 
Q 21.34375 51.125 25.703125 53.5625 
Q 30.078125 56 35.796875 56 
Q 45.21875 56 50.046875 50.171875 
Q 54.890625 44.34375 54.890625 33.015625 
z
" id="DejaVuSans-110"/>
      <path d="M 10.59375 45.40625 
L 73.1875 45.40625 
L 73.1875 37.203125 
L 10.59375 37.203125 
z
M 10.59375 25.484375 
L 73.1875 25.484375 
L 73.1875 17.1875 
L 10.59375 17.1875 
z
" id="DejaVuSans-61"/>
      <path d="M 10.6875 12.40625 
L 21 12.40625 
L 21 0 
L 10.6875 0 
z
" id="DejaVuSans-46"/>
     </defs>
     <use xlink:href="#DejaVuSans-76"/>
     <use x="55.712891" xlink:href="#DejaVuSans-97"/>
     <use x="116.992188" xlink:href="#DejaVuSans-115"/>
     <use x="169.091797" xlink:href="#DejaVuSans-115"/>
     <use x="221.191406" xlink:href="#DejaVuSans-111"/>
     <use x="282.373047" xlink:href="#DejaVuSans-32"/>
     <use x="314.160156" xlink:href="#DejaVuSans-82"/>
     <use x="379.142578" xlink:href="#DejaVuSans-101"/>
     <use x="440.666016" xlink:href="#DejaVuSans-103"/>
     <use x="504.142578" xlink:href="#DejaVuSans-114"/>
     <use x="543.005859" xlink:href="#DejaVuSans-101"/>
     <use x="604.529297" xlink:href="#DejaVuSans-115"/>
     <use x="656.628906" xlink:href="#DejaVuSans-115"/>
     <use x="708.728516" xlink:href="#DejaVuSans-105"/>
     <use x="736.511719" xlink:href="#DejaVuSans-111"/>
     <use x="797.693359" xlink:href="#DejaVuSans-110"/>
     <use x="861.072266" xlink:href="#DejaVuSans-91"/>
     <use x="900.085938" xlink:href="#DejaVuSans-114"/>
     <use x="938.949219" xlink:href="#DejaVuSans-101"/>
     <use x="1000.472656" xlink:href="#DejaVuSans-103"/>
     <use x="1063.949219" xlink:href="#DejaVuSans-61"/>
     <use x="1147.738281" xlink:href="#DejaVuSans-48"/>
     <use x="1211.361328" xlink:href="#DejaVuSans-46"/>
     <use x="1243.148438" xlink:href="#DejaVuSans-49"/>
     <use x="1306.771484" xlink:href="#DejaVuSans-93"/>
    </g>
    <!-- Data: Simulated[n_samples=100,n_features=5000,rho=0] -->
    <g transform="translate(55.930559 37.44)scale(0.14 -0.14)">
     <defs>
      <path d="M 19.671875 64.796875 
L 19.671875 8.109375 
L 31.59375 8.109375 
Q 46.6875 8.109375 53.6875 14.9375 
Q 60.6875 21.78125 60.6875 36.53125 
Q 60.6875 51.171875 53.6875 57.984375 
Q 46.6875 64.796875 31.59375 64.796875 
z
M 9.8125 72.90625 
L 30.078125 72.90625 
Q 51.265625 72.90625 61.171875 64.09375 
Q 71.09375 55.28125 71.09375 36.53125 
Q 71.09375 17.671875 61.125 8.828125 
Q 51.171875 0 30.078125 0 
L 9.8125 0 
z
" id="DejaVuSans-68"/>
      <path d="M 18.3125 70.21875 
L 18.3125 54.6875 
L 36.8125 54.6875 
L 36.8125 47.703125 
L 18.3125 47.703125 
L 18.3125 18.015625 
Q 18.3125 11.328125 20.140625 9.421875 
Q 21.96875 7.515625 27.59375 7.515625 
L 36.8125 7.515625 
L 36.8125 0 
L 27.59375 0 
Q 17.1875 0 13.234375 3.875 
Q 9.28125 7.765625 9.28125 18.015625 
L 9.28125 47.703125 
L 2.6875 47.703125 
L 2.6875 54.6875 
L 9.28125 54.6875 
L 9.28125 70.21875 
z
" id="DejaVuSans-116"/>
      <path d="M 11.71875 12.40625 
L 22.015625 12.40625 
L 22.015625 0 
L 11.71875 0 
z
M 11.71875 51.703125 
L 22.015625 51.703125 
L 22.015625 39.3125 
L 11.71875 39.3125 
z
" id="DejaVuSans-58"/>
      <path d="M 53.515625 70.515625 
L 53.515625 60.890625 
Q 47.90625 63.578125 42.921875 64.890625 
Q 37.9375 66.21875 33.296875 66.21875 
Q 25.25 66.21875 20.875 63.09375 
Q 16.5 59.96875 16.5 54.203125 
Q 16.5 49.359375 19.40625 46.890625 
Q 22.3125 44.4375 30.421875 42.921875 
L 36.375 41.703125 
Q 47.40625 39.59375 52.65625 34.296875 
Q 57.90625 29 57.90625 20.125 
Q 57.90625 9.515625 50.796875 4.046875 
Q 43.703125 -1.421875 29.984375 -1.421875 
Q 24.8125 -1.421875 18.96875 -0.25 
Q 13.140625 0.921875 6.890625 3.21875 
L 6.890625 13.375 
Q 12.890625 10.015625 18.65625 8.296875 
Q 24.421875 6.59375 29.984375 6.59375 
Q 38.421875 6.59375 43.015625 9.90625 
Q 47.609375 13.234375 47.609375 19.390625 
Q 47.609375 24.75 44.3125 27.78125 
Q 41.015625 30.8125 33.5 32.328125 
L 27.484375 33.5 
Q 16.453125 35.6875 11.515625 40.375 
Q 6.59375 45.0625 6.59375 53.421875 
Q 6.59375 63.09375 13.40625 68.65625 
Q 20.21875 74.21875 32.171875 74.21875 
Q 37.3125 74.21875 42.625 73.28125 
Q 47.953125 72.359375 53.515625 70.515625 
z
" id="DejaVuSans-83"/>
      <path d="M 8.5 21.578125 
L 8.5 54.6875 
L 17.484375 54.6875 
L 17.484375 21.921875 
Q 17.484375 14.15625 20.5 10.265625 
Q 23.53125 6.390625 29.59375 6.390625 
Q 36.859375 6.390625 41.078125 11.03125 
Q 45.3125 15.671875 45.3125 23.6875 
L 45.3125 54.6875 
L 54.296875 54.6875 
L 54.296875 0 
L 45.3125 0 
L 45.3125 8.40625 
Q 42.046875 3.421875 37.71875 1 
Q 33.40625 -1.421875 27.6875 -1.421875 
Q 18.265625 -1.421875 13.375 4.4375 
Q 8.5 10.296875 8.5 21.578125 
z
M 31.109375 56 
z
" id="DejaVuSans-117"/>
      <path d="M 9.421875 75.984375 
L 18.40625 75.984375 
L 18.40625 0 
L 9.421875 0 
z
" id="DejaVuSans-108"/>
      <path d="M 45.40625 46.390625 
L 45.40625 75.984375 
L 54.390625 75.984375 
L 54.390625 0 
L 45.40625 0 
L 45.40625 8.203125 
Q 42.578125 3.328125 38.25 0.953125 
Q 33.9375 -1.421875 27.875 -1.421875 
Q 17.96875 -1.421875 11.734375 6.484375 
Q 5.515625 14.40625 5.515625 27.296875 
Q 5.515625 40.1875 11.734375 48.09375 
Q 17.96875 56 27.875 56 
Q 33.9375 56 38.25 53.625 
Q 42.578125 51.265625 45.40625 46.390625 
z
M 14.796875 27.296875 
Q 14.796875 17.390625 18.875 11.75 
Q 22.953125 6.109375 30.078125 6.109375 
Q 37.203125 6.109375 41.296875 11.75 
Q 45.40625 17.390625 45.40625 27.296875 
Q 45.40625 37.203125 41.296875 42.84375 
Q 37.203125 48.484375 30.078125 48.484375 
Q 22.953125 48.484375 18.875 42.84375 
Q 14.796875 37.203125 14.796875 27.296875 
z
" id="DejaVuSans-100"/>
      <path d="M 50.984375 -16.609375 
L 50.984375 -23.578125 
L -0.984375 -23.578125 
L -0.984375 -16.609375 
z
" id="DejaVuSans-95"/>
      <path d="M 18.109375 8.203125 
L 18.109375 -20.796875 
L 9.078125 -20.796875 
L 9.078125 54.6875 
L 18.109375 54.6875 
L 18.109375 46.390625 
Q 20.953125 51.265625 25.265625 53.625 
Q 29.59375 56 35.59375 56 
Q 45.5625 56 51.78125 48.09375 
Q 58.015625 40.1875 58.015625 27.296875 
Q 58.015625 14.40625 51.78125 6.484375 
Q 45.5625 -1.421875 35.59375 -1.421875 
Q 29.59375 -1.421875 25.265625 0.953125 
Q 20.953125 3.328125 18.109375 8.203125 
z
M 48.6875 27.296875 
Q 48.6875 37.203125 44.609375 42.84375 
Q 40.53125 48.484375 33.40625 48.484375 
Q 26.265625 48.484375 22.1875 42.84375 
Q 18.109375 37.203125 18.109375 27.296875 
Q 18.109375 17.390625 22.1875 11.75 
Q 26.265625 6.109375 33.40625 6.109375 
Q 40.53125 6.109375 44.609375 11.75 
Q 48.6875 17.390625 48.6875 27.296875 
z
" id="DejaVuSans-112"/>
      <path d="M 11.71875 12.40625 
L 22.015625 12.40625 
L 22.015625 4 
L 14.015625 -11.625 
L 7.71875 -11.625 
L 11.71875 4 
z
" id="DejaVuSans-44"/>
      <path d="M 37.109375 75.984375 
L 37.109375 68.5 
L 28.515625 68.5 
Q 23.6875 68.5 21.796875 66.546875 
Q 19.921875 64.59375 19.921875 59.515625 
L 19.921875 54.6875 
L 34.71875 54.6875 
L 34.71875 47.703125 
L 19.921875 47.703125 
L 19.921875 0 
L 10.890625 0 
L 10.890625 47.703125 
L 2.296875 47.703125 
L 2.296875 54.6875 
L 10.890625 54.6875 
L 10.890625 58.5 
Q 10.890625 67.625 15.140625 71.796875 
Q 19.390625 75.984375 28.609375 75.984375 
z
" id="DejaVuSans-102"/>
      <path d="M 10.796875 72.90625 
L 49.515625 72.90625 
L 49.515625 64.59375 
L 19.828125 64.59375 
L 19.828125 46.734375 
Q 21.96875 47.46875 24.109375 47.828125 
Q 26.265625 48.1875 28.421875 48.1875 
Q 40.625 48.1875 47.75 41.5 
Q 54.890625 34.8125 54.890625 23.390625 
Q 54.890625 11.625 47.5625 5.09375 
Q 40.234375 -1.421875 26.90625 -1.421875 
Q 22.3125 -1.421875 17.546875 -0.640625 
Q 12.796875 0.140625 7.71875 1.703125 
L 7.71875 11.625 
Q 12.109375 9.234375 16.796875 8.0625 
Q 21.484375 6.890625 26.703125 6.890625 
Q 35.15625 6.890625 40.078125 11.328125 
Q 45.015625 15.765625 45.015625 23.390625 
Q 45.015625 31 40.078125 35.4375 
Q 35.15625 39.890625 26.703125 39.890625 
Q 22.75 39.890625 18.8125 39.015625 
Q 14.890625 38.140625 10.796875 36.28125 
z
" id="DejaVuSans-53"/>
      <path d="M 54.890625 33.015625 
L 54.890625 0 
L 45.90625 0 
L 45.90625 32.71875 
Q 45.90625 40.484375 42.875 44.328125 
Q 39.84375 48.1875 33.796875 48.1875 
Q 26.515625 48.1875 22.3125 43.546875 
Q 18.109375 38.921875 18.109375 30.90625 
L 18.109375 0 
L 9.078125 0 
L 9.078125 75.984375 
L 18.109375 75.984375 
L 18.109375 46.1875 
Q 21.34375 51.125 25.703125 53.5625 
Q 30.078125 56 35.796875 56 
Q 45.21875 56 50.046875 50.171875 
Q 54.890625 44.34375 54.890625 33.015625 
z
" id="DejaVuSans-104"/>
     </defs>
     <use xlink:href="#DejaVuSans-68"/>
     <use x="77.001953" xlink:href="#DejaVuSans-97"/>
     <use x="138.28125" xlink:href="#DejaVuSans-116"/>
     <use x="177.490234" xlink:href="#DejaVuSans-97"/>
     <use x="238.769531" xlink:href="#DejaVuSans-58"/>
     <use x="272.460938" xlink:href="#DejaVuSans-32"/>
     <use x="304.248047" xlink:href="#DejaVuSans-83"/>
     <use x="367.724609" xlink:href="#DejaVuSans-105"/>
     <use x="395.507812" xlink:href="#DejaVuSans-109"/>
     <use x="492.919922" xlink:href="#DejaVuSans-117"/>
     <use x="556.298828" xlink:href="#DejaVuSans-108"/>
     <use x="584.082031" xlink:href="#DejaVuSans-97"/>
     <use x="645.361328" xlink:href="#DejaVuSans-116"/>
     <use x="684.570312" xlink:href="#DejaVuSans-101"/>
     <use x="746.09375" xlink:href="#DejaVuSans-100"/>
     <use x="809.570312" xlink:href="#DejaVuSans-91"/>
     <use x="848.583984" xlink:href="#DejaVuSans-110"/>
     <use x="911.962891" xlink:href="#DejaVuSans-95"/>
     <use x="961.962891" xlink:href="#DejaVuSans-115"/>
     <use x="1014.0625" xlink:href="#DejaVuSans-97"/>
     <use x="1075.341797" xlink:href="#DejaVuSans-109"/>
     <use x="1172.753906" xlink:href="#DejaVuSans-112"/>
     <use x="1236.230469" xlink:href="#DejaVuSans-108"/>
     <use x="1264.013672" xlink:href="#DejaVuSans-101"/>
     <use x="1325.537109" xlink:href="#DejaVuSans-115"/>
     <use x="1377.636719" xlink:href="#DejaVuSans-61"/>
     <use x="1461.425781" xlink:href="#DejaVuSans-49"/>
     <use x="1525.048828" xlink:href="#DejaVuSans-48"/>
     <use x="1588.671875" xlink:href="#DejaVuSans-48"/>
     <use x="1652.294922" xlink:href="#DejaVuSans-44"/>
     <use x="1684.082031" xlink:href="#DejaVuSans-110"/>
     <use x="1747.460938" xlink:href="#DejaVuSans-95"/>
     <use x="1797.460938" xlink:href="#DejaVuSans-102"/>
     <use x="1832.666016" xlink:href="#DejaVuSans-101"/>
     <use x="1894.189453" xlink:href="#DejaVuSans-97"/>
     <use x="1955.46875" xlink:href="#DejaVuSans-116"/>
     <use x="1994.677734" xlink:href="#DejaVuSans-117"/>
     <use x="2058.056641" xlink:href="#DejaVuSans-114"/>
     <use x="2096.919922" xlink:href="#DejaVuSans-101"/>
     <use x="2158.443359" xlink:href="#DejaVuSans-115"/>
     <use x="2210.542969" xlink:href="#DejaVuSans-61"/>
     <use x="2294.332031" xlink:href="#DejaVuSans-53"/>
     <use x="2357.955078" xlink:href="#DejaVuSans-48"/>
     <use x="2421.578125" xlink:href="#DejaVuSans-48"/>
     <use x="2485.201172" xlink:href="#DejaVuSans-48"/>
     <use x="2548.824219" xlink:href="#DejaVuSans-44"/>
     <use x="2580.611328" xlink:href="#DejaVuSans-114"/>
     <use x="2619.974609" xlink:href="#DejaVuSans-104"/>
     <use x="2683.353516" xlink:href="#DejaVuSans-111"/>
     <use x="2744.535156" xlink:href="#DejaVuSans-61"/>
     <use x="2828.324219" xlink:href="#DejaVuSans-48"/>
     <use x="2891.947266" xlink:href="#DejaVuSans-93"/>
    </g>
   </g>
   <g id="legend_1">
    <g id="patch_7">
     <path d="M 81.996742 343.11 
L 386.275805 343.11 
Q 389.075805 343.11 389.075805 340.31 
L 389.075805 53.24 
Q 389.075805 50.44 386.275805 50.44 
L 81.996742 50.44 
Q 79.196742 50.44 79.196742 53.24 
L 79.196742 340.31 
Q 79.196742 343.11 81.996742 343.11 
z
" style="fill:#ffffff;opacity:0.8;stroke:#cccccc;stroke-linejoin:miter;"/>
    </g>
    <g id="line2d_58">
     <path d="M 84.796742 61.777812 
L 112.796742 61.777812 
" style="fill:none;stroke:#1f77b4;stroke-linecap:square;stroke-width:3;"/>
    </g>
    <g id="line2d_59"/>
    <g id="text_12">
     <!-- Blitz -->
     <g transform="translate(123.996742 66.677812)scale(0.14 -0.14)">
      <defs>
       <path d="M 19.671875 34.8125 
L 19.671875 8.109375 
L 35.5 8.109375 
Q 43.453125 8.109375 47.28125 11.40625 
Q 51.125 14.703125 51.125 21.484375 
Q 51.125 28.328125 47.28125 31.5625 
Q 43.453125 34.8125 35.5 34.8125 
z
M 19.671875 64.796875 
L 19.671875 42.828125 
L 34.28125 42.828125 
Q 41.5 42.828125 45.03125 45.53125 
Q 48.578125 48.25 48.578125 53.8125 
Q 48.578125 59.328125 45.03125 62.0625 
Q 41.5 64.796875 34.28125 64.796875 
z
M 9.8125 72.90625 
L 35.015625 72.90625 
Q 46.296875 72.90625 52.390625 68.21875 
Q 58.5 63.53125 58.5 54.890625 
Q 58.5 48.1875 55.375 44.234375 
Q 52.25 40.28125 46.1875 39.3125 
Q 53.46875 37.75 57.5 32.78125 
Q 61.53125 27.828125 61.53125 20.40625 
Q 61.53125 10.640625 54.890625 5.3125 
Q 48.25 0 35.984375 0 
L 9.8125 0 
z
" id="DejaVuSans-66"/>
       <path d="M 5.515625 54.6875 
L 48.1875 54.6875 
L 48.1875 46.484375 
L 14.40625 7.171875 
L 48.1875 7.171875 
L 48.1875 0 
L 4.296875 0 
L 4.296875 8.203125 
L 38.09375 47.515625 
L 5.515625 47.515625 
z
" id="DejaVuSans-122"/>
      </defs>
      <use xlink:href="#DejaVuSans-66"/>
      <use x="68.603516" xlink:href="#DejaVuSans-108"/>
      <use x="96.386719" xlink:href="#DejaVuSans-105"/>
      <use x="124.169922" xlink:href="#DejaVuSans-116"/>
      <use x="163.378906" xlink:href="#DejaVuSans-122"/>
     </g>
    </g>
    <g id="line2d_60">
     <path d="M 84.796742 82.327187 
L 112.796742 82.327187 
" style="fill:none;stroke:#ff7f0e;stroke-linecap:square;stroke-width:3;"/>
    </g>
    <g id="line2d_61"/>
    <g id="text_13">
     <!-- cd -->
     <g transform="translate(123.996742 87.227187)scale(0.14 -0.14)">
      <use xlink:href="#DejaVuSans-99"/>
      <use x="54.980469" xlink:href="#DejaVuSans-100"/>
     </g>
    </g>
    <g id="line2d_62">
     <path d="M 84.796742 102.876562 
L 112.796742 102.876562 
" style="fill:none;stroke:#2ca02c;stroke-linecap:square;stroke-width:3;"/>
    </g>
    <g id="line2d_63"/>
    <g id="text_14">
     <!-- Celer -->
     <g transform="translate(123.996742 107.776562)scale(0.14 -0.14)">
      <defs>
       <path d="M 64.40625 67.28125 
L 64.40625 56.890625 
Q 59.421875 61.53125 53.78125 63.8125 
Q 48.140625 66.109375 41.796875 66.109375 
Q 29.296875 66.109375 22.65625 58.46875 
Q 16.015625 50.828125 16.015625 36.375 
Q 16.015625 21.96875 22.65625 14.328125 
Q 29.296875 6.6875 41.796875 6.6875 
Q 48.140625 6.6875 53.78125 8.984375 
Q 59.421875 11.28125 64.40625 15.921875 
L 64.40625 5.609375 
Q 59.234375 2.09375 53.4375 0.328125 
Q 47.65625 -1.421875 41.21875 -1.421875 
Q 24.65625 -1.421875 15.125 8.703125 
Q 5.609375 18.84375 5.609375 36.375 
Q 5.609375 53.953125 15.125 64.078125 
Q 24.65625 74.21875 41.21875 74.21875 
Q 47.75 74.21875 53.53125 72.484375 
Q 59.328125 70.75 64.40625 67.28125 
z
" id="DejaVuSans-67"/>
      </defs>
      <use xlink:href="#DejaVuSans-67"/>
      <use x="69.824219" xlink:href="#DejaVuSans-101"/>
      <use x="131.347656" xlink:href="#DejaVuSans-108"/>
      <use x="159.130859" xlink:href="#DejaVuSans-101"/>
      <use x="220.654297" xlink:href="#DejaVuSans-114"/>
     </g>
    </g>
    <g id="line2d_64">
     <path d="M 84.796742 123.425937 
L 112.796742 123.425937 
" style="fill:none;stroke:#d62728;stroke-linecap:square;stroke-width:3;"/>
    </g>
    <g id="line2d_65"/>
    <g id="text_15">
     <!-- cvxpy -->
     <g transform="translate(123.996742 128.325937)scale(0.14 -0.14)">
      <defs>
       <path d="M 2.984375 54.6875 
L 12.5 54.6875 
L 29.59375 8.796875 
L 46.6875 54.6875 
L 56.203125 54.6875 
L 35.6875 0 
L 23.484375 0 
z
" id="DejaVuSans-118"/>
       <path d="M 54.890625 54.6875 
L 35.109375 28.078125 
L 55.90625 0 
L 45.3125 0 
L 29.390625 21.484375 
L 13.484375 0 
L 2.875 0 
L 24.125 28.609375 
L 4.6875 54.6875 
L 15.28125 54.6875 
L 29.78125 35.203125 
L 44.28125 54.6875 
z
" id="DejaVuSans-120"/>
       <path d="M 32.171875 -5.078125 
Q 28.375 -14.84375 24.75 -17.8125 
Q 21.140625 -20.796875 15.09375 -20.796875 
L 7.90625 -20.796875 
L 7.90625 -13.28125 
L 13.1875 -13.28125 
Q 16.890625 -13.28125 18.9375 -11.515625 
Q 21 -9.765625 23.484375 -3.21875 
L 25.09375 0.875 
L 2.984375 54.6875 
L 12.5 54.6875 
L 29.59375 11.921875 
L 46.6875 54.6875 
L 56.203125 54.6875 
z
" id="DejaVuSans-121"/>
      </defs>
      <use xlink:href="#DejaVuSans-99"/>
      <use x="54.980469" xlink:href="#DejaVuSans-118"/>
      <use x="114.160156" xlink:href="#DejaVuSans-120"/>
      <use x="173.339844" xlink:href="#DejaVuSans-112"/>
      <use x="236.816406" xlink:href="#DejaVuSans-121"/>
     </g>
    </g>
    <g id="line2d_66">
     <path d="M 84.796742 143.975312 
L 112.796742 143.975312 
" style="fill:none;stroke:#9467bd;stroke-linecap:square;stroke-width:3;"/>
    </g>
    <g id="line2d_67"/>
    <g id="text_16">
     <!-- Cyanure -->
     <g transform="translate(123.996742 148.875312)scale(0.14 -0.14)">
      <use xlink:href="#DejaVuSans-67"/>
      <use x="69.824219" xlink:href="#DejaVuSans-121"/>
      <use x="129.003906" xlink:href="#DejaVuSans-97"/>
      <use x="190.283203" xlink:href="#DejaVuSans-110"/>
      <use x="253.662109" xlink:href="#DejaVuSans-117"/>
      <use x="317.041016" xlink:href="#DejaVuSans-114"/>
      <use x="355.904297" xlink:href="#DejaVuSans-101"/>
     </g>
    </g>
    <g id="line2d_68">
     <path d="M 84.796742 164.524687 
L 112.796742 164.524687 
" style="fill:none;stroke:#8c564b;stroke-linecap:square;stroke-width:3;"/>
    </g>
    <g id="line2d_69"/>
    <g id="text_17">
     <!-- glmnet -->
     <g transform="translate(123.996742 169.424687)scale(0.14 -0.14)">
      <use xlink:href="#DejaVuSans-103"/>
      <use x="63.476562" xlink:href="#DejaVuSans-108"/>
      <use x="91.259766" xlink:href="#DejaVuSans-109"/>
      <use x="188.671875" xlink:href="#DejaVuSans-110"/>
      <use x="252.050781" xlink:href="#DejaVuSans-101"/>
      <use x="313.574219" xlink:href="#DejaVuSans-116"/>
     </g>
    </g>
    <g id="line2d_70">
     <path d="M 84.796742 185.074062 
L 112.796742 185.074062 
" style="fill:none;stroke:#e377c2;stroke-linecap:square;stroke-width:3;"/>
    </g>
    <g id="line2d_71"/>
    <g id="text_18">
     <!-- Julia-PGD -->
     <g transform="translate(123.996742 189.974062)scale(0.14 -0.14)">
      <defs>
       <path d="M 9.8125 72.90625 
L 19.671875 72.90625 
L 19.671875 5.078125 
Q 19.671875 -8.109375 14.671875 -14.0625 
Q 9.671875 -20.015625 -1.421875 -20.015625 
L -5.171875 -20.015625 
L -5.171875 -11.71875 
L -2.09375 -11.71875 
Q 4.4375 -11.71875 7.125 -8.046875 
Q 9.8125 -4.390625 9.8125 5.078125 
z
" id="DejaVuSans-74"/>
       <path d="M 4.890625 31.390625 
L 31.203125 31.390625 
L 31.203125 23.390625 
L 4.890625 23.390625 
z
" id="DejaVuSans-45"/>
       <path d="M 19.671875 64.796875 
L 19.671875 37.40625 
L 32.078125 37.40625 
Q 38.96875 37.40625 42.71875 40.96875 
Q 46.484375 44.53125 46.484375 51.125 
Q 46.484375 57.671875 42.71875 61.234375 
Q 38.96875 64.796875 32.078125 64.796875 
z
M 9.8125 72.90625 
L 32.078125 72.90625 
Q 44.34375 72.90625 50.609375 67.359375 
Q 56.890625 61.8125 56.890625 51.125 
Q 56.890625 40.328125 50.609375 34.8125 
Q 44.34375 29.296875 32.078125 29.296875 
L 19.671875 29.296875 
L 19.671875 0 
L 9.8125 0 
z
" id="DejaVuSans-80"/>
       <path d="M 59.515625 10.40625 
L 59.515625 29.984375 
L 43.40625 29.984375 
L 43.40625 38.09375 
L 69.28125 38.09375 
L 69.28125 6.78125 
Q 63.578125 2.734375 56.6875 0.65625 
Q 49.8125 -1.421875 42 -1.421875 
Q 24.90625 -1.421875 15.25 8.5625 
Q 5.609375 18.5625 5.609375 36.375 
Q 5.609375 54.25 15.25 64.234375 
Q 24.90625 74.21875 42 74.21875 
Q 49.125 74.21875 55.546875 72.453125 
Q 61.96875 70.703125 67.390625 67.28125 
L 67.390625 56.78125 
Q 61.921875 61.421875 55.765625 63.765625 
Q 49.609375 66.109375 42.828125 66.109375 
Q 29.4375 66.109375 22.71875 58.640625 
Q 16.015625 51.171875 16.015625 36.375 
Q 16.015625 21.625 22.71875 14.15625 
Q 29.4375 6.6875 42.828125 6.6875 
Q 48.046875 6.6875 52.140625 7.59375 
Q 56.25 8.5 59.515625 10.40625 
z
" id="DejaVuSans-71"/>
      </defs>
      <use xlink:href="#DejaVuSans-74"/>
      <use x="29.492188" xlink:href="#DejaVuSans-117"/>
      <use x="92.871094" xlink:href="#DejaVuSans-108"/>
      <use x="120.654297" xlink:href="#DejaVuSans-105"/>
      <use x="148.4375" xlink:href="#DejaVuSans-97"/>
      <use x="209.716797" xlink:href="#DejaVuSans-45"/>
      <use x="245.800781" xlink:href="#DejaVuSans-80"/>
      <use x="306.103516" xlink:href="#DejaVuSans-71"/>
      <use x="383.59375" xlink:href="#DejaVuSans-68"/>
     </g>
    </g>
    <g id="line2d_72">
     <path d="M 84.796742 205.623437 
L 112.796742 205.623437 
" style="fill:none;stroke:#7f7f7f;stroke-linecap:square;stroke-width:3;"/>
    </g>
    <g id="line2d_73"/>
    <g id="text_19">
     <!-- L-BFGS-B -->
     <g transform="translate(123.996742 210.523437)scale(0.14 -0.14)">
      <defs>
       <path d="M 9.8125 72.90625 
L 51.703125 72.90625 
L 51.703125 64.59375 
L 19.671875 64.59375 
L 19.671875 43.109375 
L 48.578125 43.109375 
L 48.578125 34.8125 
L 19.671875 34.8125 
L 19.671875 0 
L 9.8125 0 
z
" id="DejaVuSans-70"/>
      </defs>
      <use xlink:href="#DejaVuSans-76"/>
      <use x="53.962891" xlink:href="#DejaVuSans-45"/>
      <use x="86.421875" xlink:href="#DejaVuSans-66"/>
      <use x="155.025391" xlink:href="#DejaVuSans-70"/>
      <use x="212.544922" xlink:href="#DejaVuSans-71"/>
      <use x="290.035156" xlink:href="#DejaVuSans-83"/>
      <use x="353.511719" xlink:href="#DejaVuSans-45"/>
      <use x="385.970703" xlink:href="#DejaVuSans-66"/>
     </g>
    </g>
    <g id="line2d_74">
     <path d="M 84.796742 226.172812 
L 112.796742 226.172812 
" style="fill:none;stroke:#bcbd22;stroke-linecap:square;stroke-width:3;"/>
    </g>
    <g id="line2d_75"/>
    <g id="text_20">
     <!-- Lightning -->
     <g transform="translate(123.996742 231.072812)scale(0.14 -0.14)">
      <use xlink:href="#DejaVuSans-76"/>
      <use x="55.712891" xlink:href="#DejaVuSans-105"/>
      <use x="83.496094" xlink:href="#DejaVuSans-103"/>
      <use x="146.972656" xlink:href="#DejaVuSans-104"/>
      <use x="210.351562" xlink:href="#DejaVuSans-116"/>
      <use x="249.560547" xlink:href="#DejaVuSans-110"/>
      <use x="312.939453" xlink:href="#DejaVuSans-105"/>
      <use x="340.722656" xlink:href="#DejaVuSans-110"/>
      <use x="404.101562" xlink:href="#DejaVuSans-103"/>
     </g>
    </g>
    <g id="line2d_76">
     <path d="M 84.796742 246.722187 
L 112.796742 246.722187 
" style="fill:none;stroke:#17becf;stroke-linecap:square;stroke-width:3;"/>
    </g>
    <g id="line2d_77"/>
    <g id="text_21">
     <!-- Python-PGD[use_acceleration=False] -->
     <g transform="translate(123.996742 251.622187)scale(0.14 -0.14)">
      <use xlink:href="#DejaVuSans-80"/>
      <use x="60.302734" xlink:href="#DejaVuSans-121"/>
      <use x="119.482422" xlink:href="#DejaVuSans-116"/>
      <use x="158.691406" xlink:href="#DejaVuSans-104"/>
      <use x="222.070312" xlink:href="#DejaVuSans-111"/>
      <use x="283.251953" xlink:href="#DejaVuSans-110"/>
      <use x="346.630859" xlink:href="#DejaVuSans-45"/>
      <use x="382.714844" xlink:href="#DejaVuSans-80"/>
      <use x="443.017578" xlink:href="#DejaVuSans-71"/>
      <use x="520.507812" xlink:href="#DejaVuSans-68"/>
      <use x="597.509766" xlink:href="#DejaVuSans-91"/>
      <use x="636.523438" xlink:href="#DejaVuSans-117"/>
      <use x="699.902344" xlink:href="#DejaVuSans-115"/>
      <use x="752.001953" xlink:href="#DejaVuSans-101"/>
      <use x="813.525391" xlink:href="#DejaVuSans-95"/>
      <use x="863.525391" xlink:href="#DejaVuSans-97"/>
      <use x="924.804688" xlink:href="#DejaVuSans-99"/>
      <use x="979.785156" xlink:href="#DejaVuSans-99"/>
      <use x="1034.765625" xlink:href="#DejaVuSans-101"/>
      <use x="1096.289062" xlink:href="#DejaVuSans-108"/>
      <use x="1124.072266" xlink:href="#DejaVuSans-101"/>
      <use x="1185.595703" xlink:href="#DejaVuSans-114"/>
      <use x="1226.708984" xlink:href="#DejaVuSans-97"/>
      <use x="1287.988281" xlink:href="#DejaVuSans-116"/>
      <use x="1327.197266" xlink:href="#DejaVuSans-105"/>
      <use x="1354.980469" xlink:href="#DejaVuSans-111"/>
      <use x="1416.162109" xlink:href="#DejaVuSans-110"/>
      <use x="1479.541016" xlink:href="#DejaVuSans-61"/>
      <use x="1563.330078" xlink:href="#DejaVuSans-70"/>
      <use x="1611.724609" xlink:href="#DejaVuSans-97"/>
      <use x="1673.003906" xlink:href="#DejaVuSans-108"/>
      <use x="1700.787109" xlink:href="#DejaVuSans-115"/>
      <use x="1752.886719" xlink:href="#DejaVuSans-101"/>
      <use x="1814.410156" xlink:href="#DejaVuSans-93"/>
     </g>
    </g>
    <g id="line2d_78">
     <path d="M 84.796742 267.660937 
L 112.796742 267.660937 
" style="fill:none;stroke:#1f77b4;stroke-linecap:square;stroke-width:3;"/>
    </g>
    <g id="line2d_79"/>
    <g id="text_22">
     <!-- Python-PGD[use_acceleration=True] -->
     <g transform="translate(123.996742 272.560937)scale(0.14 -0.14)">
      <use xlink:href="#DejaVuSans-80"/>
      <use x="60.302734" xlink:href="#DejaVuSans-121"/>
      <use x="119.482422" xlink:href="#DejaVuSans-116"/>
      <use x="158.691406" xlink:href="#DejaVuSans-104"/>
      <use x="222.070312" xlink:href="#DejaVuSans-111"/>
      <use x="283.251953" xlink:href="#DejaVuSans-110"/>
      <use x="346.630859" xlink:href="#DejaVuSans-45"/>
      <use x="382.714844" xlink:href="#DejaVuSans-80"/>
      <use x="443.017578" xlink:href="#DejaVuSans-71"/>
      <use x="520.507812" xlink:href="#DejaVuSans-68"/>
      <use x="597.509766" xlink:href="#DejaVuSans-91"/>
      <use x="636.523438" xlink:href="#DejaVuSans-117"/>
      <use x="699.902344" xlink:href="#DejaVuSans-115"/>
      <use x="752.001953" xlink:href="#DejaVuSans-101"/>
      <use x="813.525391" xlink:href="#DejaVuSans-95"/>
      <use x="863.525391" xlink:href="#DejaVuSans-97"/>
      <use x="924.804688" xlink:href="#DejaVuSans-99"/>
      <use x="979.785156" xlink:href="#DejaVuSans-99"/>
      <use x="1034.765625" xlink:href="#DejaVuSans-101"/>
      <use x="1096.289062" xlink:href="#DejaVuSans-108"/>
      <use x="1124.072266" xlink:href="#DejaVuSans-101"/>
      <use x="1185.595703" xlink:href="#DejaVuSans-114"/>
      <use x="1226.708984" xlink:href="#DejaVuSans-97"/>
      <use x="1287.988281" xlink:href="#DejaVuSans-116"/>
      <use x="1327.197266" xlink:href="#DejaVuSans-105"/>
      <use x="1354.980469" xlink:href="#DejaVuSans-111"/>
      <use x="1416.162109" xlink:href="#DejaVuSans-110"/>
      <use x="1479.541016" xlink:href="#DejaVuSans-61"/>
      <use x="1563.330078" xlink:href="#DejaVuSans-84"/>
      <use x="1609.664062" xlink:href="#DejaVuSans-114"/>
      <use x="1650.777344" xlink:href="#DejaVuSans-117"/>
      <use x="1714.15625" xlink:href="#DejaVuSans-101"/>
      <use x="1775.679688" xlink:href="#DejaVuSans-93"/>
     </g>
    </g>
    <g id="line2d_80">
     <path d="M 84.796742 288.599687 
L 112.796742 288.599687 
" style="fill:none;stroke:#ff7f0e;stroke-linecap:square;stroke-width:3;"/>
    </g>
    <g id="line2d_81"/>
    <g id="text_23">
     <!-- R-PGD -->
     <g transform="translate(123.996742 293.499687)scale(0.14 -0.14)">
      <use xlink:href="#DejaVuSans-82"/>
      <use x="65.482422" xlink:href="#DejaVuSans-45"/>
      <use x="101.566406" xlink:href="#DejaVuSans-80"/>
      <use x="161.869141" xlink:href="#DejaVuSans-71"/>
      <use x="239.359375" xlink:href="#DejaVuSans-68"/>
     </g>
    </g>
    <g id="line2d_82">
     <path d="M 84.796742 309.149062 
L 112.796742 309.149062 
" style="fill:none;stroke:#2ca02c;stroke-linecap:square;stroke-width:3;"/>
    </g>
    <g id="line2d_83"/>
    <g id="text_24">
     <!-- sklearn -->
     <g transform="translate(123.996742 314.049062)scale(0.14 -0.14)">
      <defs>
       <path d="M 9.078125 75.984375 
L 18.109375 75.984375 
L 18.109375 31.109375 
L 44.921875 54.6875 
L 56.390625 54.6875 
L 27.390625 29.109375 
L 57.625 0 
L 45.90625 0 
L 18.109375 26.703125 
L 18.109375 0 
L 9.078125 0 
z
" id="DejaVuSans-107"/>
      </defs>
      <use xlink:href="#DejaVuSans-115"/>
      <use x="52.099609" xlink:href="#DejaVuSans-107"/>
      <use x="110.009766" xlink:href="#DejaVuSans-108"/>
      <use x="137.792969" xlink:href="#DejaVuSans-101"/>
      <use x="199.316406" xlink:href="#DejaVuSans-97"/>
      <use x="260.595703" xlink:href="#DejaVuSans-114"/>
      <use x="299.958984" xlink:href="#DejaVuSans-110"/>
     </g>
    </g>
    <g id="line2d_84">
     <path d="M 84.796742 329.698437 
L 112.796742 329.698437 
" style="fill:none;stroke:#d62728;stroke-linecap:square;stroke-width:3;"/>
    </g>
    <g id="line2d_85"/>
    <g id="text_25">
     <!-- statsmodels -->
     <g transform="translate(123.996742 334.598437)scale(0.14 -0.14)">
      <use xlink:href="#DejaVuSans-115"/>
      <use x="52.099609" xlink:href="#DejaVuSans-116"/>
      <use x="91.308594" xlink:href="#DejaVuSans-97"/>
      <use x="152.587891" xlink:href="#DejaVuSans-116"/>
      <use x="191.796875" xlink:href="#DejaVuSans-115"/>
      <use x="243.896484" xlink:href="#DejaVuSans-109"/>
      <use x="341.308594" xlink:href="#DejaVuSans-111"/>
      <use x="402.490234" xlink:href="#DejaVuSans-100"/>
      <use x="465.966797" xlink:href="#DejaVuSans-101"/>
      <use x="527.490234" xlink:href="#DejaVuSans-108"/>
      <use x="555.273438" xlink:href="#DejaVuSans-115"/>
     </g>
    </g>
   </g>
  </g>
 </g>
 <defs>
  <clipPath id="p6a5f13cbfe">
   <rect height="253.288" width="377.803258" x="72.196742" y="43.44"/>
  </clipPath>
 </defs>
</svg>
